<svg xmlns="http://www.w3.org/2000/svg" xmlns:xlink="http://www.w3.org/1999/xlink" contentStyleType="text/css" data-diagram-type="SEQUENCE" height="1594px" preserveAspectRatio="none" style="width:1198px;height:1594px;background:#FFFFFF;" version="1.1" viewBox="0 0 1198 1594" width="1198px" zoomAndPan="magnify"><title>&#22259;&#34920;&#21066;&#38500;&#12501;&#12525;&#12540;&#65288;UC 3-9&#65289;</title><defs/><g><text fill="#000000" font-family="sans-serif" font-size="14" font-weight="bold" lengthAdjust="spacing" textLength="174.2822" x="508.3022" y="29.5332">&#22259;&#34920;&#21066;&#38500;&#12501;&#12525;&#12540;&#65288;UC 3-9&#65289;</text><g><title>&#12502;&#12521;&#12454;&#12470;</title><rect fill="#FFFFFF" height="272.1641" style="stroke:#181818;stroke-width:1;" width="10" x="311" y="197.9219"/></g><g><title>&#12502;&#12521;&#12454;&#12470;</title><rect fill="#FFFFFF" height="229.8125" style="stroke:#181818;stroke-width:1;" width="10" x="311" y="516.2734"/></g><g><title>&#12502;&#12521;&#12454;&#12470;</title><rect fill="#FFFFFF" height="30.3516" style="stroke:#181818;stroke-width:1;" width="10" x="311" y="792.2734"/></g><g><title>&#12502;&#12521;&#12454;&#12470;</title><rect fill="#FFFFFF" height="30.3516" style="stroke:#181818;stroke-width:1;" width="10" x="311" y="1091.625"/></g><g><title>&#12502;&#12521;&#12454;&#12470;</title><rect fill="#FFFFFF" height="90.0547" style="stroke:#181818;stroke-width:1;" width="10" x="311" y="1382.9766"/></g><g><title>API Routes</title><rect fill="#FFFFFF" height="108.4063" style="stroke:#181818;stroke-width:1;" width="10" x="597.9688" y="607.3281"/></g><g><title>API Routes</title><rect fill="#FFFFFF" height="46.1875" style="stroke:#181818;stroke-width:1;" width="10" x="597.9688" y="746.0859"/></g><g><title>API Routes</title><rect fill="#FFFFFF" height="269" style="stroke:#181818;stroke-width:1;" width="10" x="597.9688" y="822.625"/></g><g><title>DiagramService</title><rect fill="#FFFFFF" height="176.1094" style="stroke:#181818;stroke-width:1;" width="10" x="744.0259" y="885.1641"/></g><g><title>IDiagramRepository</title><rect fill="#FFFFFF" height="99.0547" style="stroke:#181818;stroke-width:1;" width="10" x="913.1294" y="931.8672"/></g><g><title>IDiagramRepository</title><rect fill="#FFFFFF" height="200.2969" style="stroke:#181818;stroke-width:1;" width="10" x="913.1294" y="1121.9766"/></g><g><title>Supabase Storage</title><rect fill="#FFFFFF" height="30.3516" style="stroke:#181818;stroke-width:1;" width="10" x="1085.8975" y="1184.5156"/></g><g><title>Supabase Storage</title><rect fill="#FFFFFF" height="30.3516" style="stroke:#181818;stroke-width:1;" width="10" x="1085.8975" y="1261.5703"/></g><rect fill="none" height="1139.3516" rx="5" ry="5" style="stroke:#000000;stroke-width:1.5;" width="1171.8867" x="10" y="355.6797"/><rect fill="none" height="813" rx="5" ry="5" style="stroke:#000000;stroke-width:1.5;" width="1151.8867" x="20" y="675.0313"/><rect fill="none" height="490.8125" rx="5" ry="5" style="stroke:#000000;stroke-width:1.5;" width="1131.8867" x="30" y="990.2188"/><g><title>&#12456;&#12531;&#12489;&#12518;&#12540;&#12470;&#12540;</title><rect fill="#000000" fill-opacity="0.00000" height="1390.8125" width="8" x="88" y="121.2188"/><line style="stroke:#181818;stroke-width:0.5;stroke-dasharray:5.0,5.0;" x1="92" x2="92" y1="121.2188" y2="1512.0313"/></g><g><title>&#12502;&#12521;&#12454;&#12470;</title><rect fill="#000000" fill-opacity="0.00000" height="1390.8125" width="8" x="312" y="121.2188"/><line style="stroke:#181818;stroke-width:0.5;stroke-dasharray:5.0,5.0;" x1="315.3379" x2="315.3379" y1="121.2188" y2="1512.0313"/></g><g><title>API Routes</title><rect fill="#000000" fill-opacity="0.00000" height="1390.8125" width="8" x="598.9688" y="121.2188"/><line style="stroke:#181818;stroke-width:0.5;stroke-dasharray:5.0,5.0;" x1="602.2861" x2="602.2861" y1="121.2188" y2="1512.0313"/></g><g><title>DiagramService</title><rect fill="#000000" fill-opacity="0.00000" height="1390.8125" width="8" x="745.0259" y="121.2188"/><line style="stroke:#181818;stroke-width:0.5;stroke-dasharray:5.0,5.0;" x1="748.2329" x2="748.2329" y1="121.2188" y2="1512.0313"/></g><g><title>IDiagramRepository</title><rect fill="#000000" fill-opacity="0.00000" height="1390.8125" width="8" x="914.1294" y="121.2188"/><line style="stroke:#181818;stroke-width:0.5;stroke-dasharray:5.0,5.0;" x1="917.2744" x2="917.2744" y1="121.2188" y2="1512.0313"/></g><g><title>Supabase Storage</title><rect fill="#000000" fill-opacity="0.00000" height="1390.8125" width="8" x="1086.8975" y="121.2188"/><line style="stroke:#181818;stroke-width:0.5;stroke-dasharray:5.0,5.0;" x1="1089.9082" x2="1089.9082" y1="121.2188" y2="1512.0313"/></g><g class="participant participant-head" data-participant="user"><text fill="#000000" font-family="sans-serif" font-size="14" lengthAdjust="spacing" textLength="98" x="40" y="118.1426">&#12456;&#12531;&#12489;&#12518;&#12540;&#12470;&#12540;</text><ellipse cx="92" cy="52.1094" fill="#E2E2F0" rx="8" ry="8" style="stroke:#181818;stroke-width:0.5;"/><path d="M92,60.1094 L92,87.1094 M79,68.1094 L105,68.1094 M92,87.1094 L79,102.1094 M92,87.1094 L105,102.1094" fill="none" style="stroke:#181818;stroke-width:0.5;"/></g><g class="participant participant-tail" data-participant="user"><text fill="#000000" font-family="sans-serif" font-size="14" lengthAdjust="spacing" textLength="98" x="40" y="1525.5645">&#12456;&#12531;&#12489;&#12518;&#12540;&#12470;&#12540;</text><ellipse cx="92" cy="1537.1406" fill="#E2E2F0" rx="8" ry="8" style="stroke:#181818;stroke-width:0.5;"/><path d="M92,1545.1406 L92,1572.1406 M79,1553.1406 L105,1553.1406 M92,1572.1406 L79,1587.1406 M92,1572.1406 L105,1587.1406" fill="none" style="stroke:#181818;stroke-width:0.5;"/></g><g class="participant participant-head" data-participant="browser"><rect fill="#E3F2FD" height="49.2188" rx="5" ry="5" style="stroke:#666666;stroke-width:0.5;" width="79.3242" x="276.3379" y="71"/><text fill="#000000" font-family="sans-serif" font-size="14" lengthAdjust="spacing" textLength="56" x="288" y="92.5332">&#12502;&#12521;&#12454;&#12470;</text><text fill="#000000" font-family="sans-serif" font-size="14" lengthAdjust="spacing" textLength="65.3242" x="283.3379" y="110.1426">(&#22259;&#34920;&#19968;&#35239;)</text></g><g class="participant participant-tail" data-participant="browser"><rect fill="#E3F2FD" height="49.2188" rx="5" ry="5" style="stroke:#666666;stroke-width:0.5;" width="79.3242" x="276.3379" y="1511.0313"/><text fill="#000000" font-family="sans-serif" font-size="14" lengthAdjust="spacing" textLength="56" x="288" y="1532.5645">&#12502;&#12521;&#12454;&#12470;</text><text fill="#000000" font-family="sans-serif" font-size="14" lengthAdjust="spacing" textLength="65.3242" x="283.3379" y="1550.1738">(&#22259;&#34920;&#19968;&#35239;)</text></g><g class="participant participant-head" data-participant="APIRoutes"><rect fill="#FFF3E0" height="49.2188" rx="5" ry="5" style="stroke:#666666;stroke-width:0.5;" width="107.3652" x="549.2861" y="71"/><text fill="#000000" font-family="sans-serif" font-size="14" lengthAdjust="spacing" textLength="70.8135" x="567.562" y="92.5332">API Routes</text><text fill="#000000" font-family="sans-serif" font-size="14" lengthAdjust="spacing" textLength="93.3652" x="556.2861" y="110.1426">(/api/diagrams)</text></g><g class="participant participant-tail" data-participant="APIRoutes"><rect fill="#FFF3E0" height="49.2188" rx="5" ry="5" style="stroke:#666666;stroke-width:0.5;" width="107.3652" x="549.2861" y="1511.0313"/><text fill="#000000" font-family="sans-serif" font-size="14" lengthAdjust="spacing" textLength="70.8135" x="567.562" y="1532.5645">API Routes</text><text fill="#000000" font-family="sans-serif" font-size="14" lengthAdjust="spacing" textLength="93.3652" x="556.2861" y="1550.1738">(/api/diagrams)</text></g><g class="participant participant-head" data-participant="DiagramService"><rect fill="#E8F5E9" height="31.6094" rx="5" ry="5" style="stroke:#666666;stroke-width:0.5;" width="113.5859" x="692.2329" y="88.6094"/><text fill="#000000" font-family="sans-serif" font-size="14" lengthAdjust="spacing" textLength="99.5859" x="699.2329" y="110.1426">DiagramService</text></g><g class="participant participant-tail" data-participant="DiagramService"><rect fill="#E8F5E9" height="31.6094" rx="5" ry="5" style="stroke:#666666;stroke-width:0.5;" width="113.5859" x="692.2329" y="1511.0313"/><text fill="#000000" font-family="sans-serif" font-size="14" lengthAdjust="spacing" textLength="99.5859" x="699.2329" y="1532.5645">DiagramService</text></g><g class="participant participant-head" data-participant="DiagramRepo"><rect fill="#FCE4EC" height="31.6094" rx="5" ry="5" style="stroke:#666666;stroke-width:0.5;" width="137.71" x="849.2744" y="88.6094"/><text fill="#000000" font-family="sans-serif" font-size="14" lengthAdjust="spacing" textLength="123.71" x="856.2744" y="110.1426">IDiagramRepository</text></g><g class="participant participant-tail" data-participant="DiagramRepo"><rect fill="#FCE4EC" height="31.6094" rx="5" ry="5" style="stroke:#666666;stroke-width:0.5;" width="137.71" x="849.2744" y="1511.0313"/><text fill="#000000" font-family="sans-serif" font-size="14" lengthAdjust="spacing" textLength="123.71" x="856.2744" y="1532.5645">IDiagramRepository</text></g><g class="participant participant-head" data-participant="Storage"><text fill="#000000" font-family="sans-serif" font-size="14" lengthAdjust="spacing" textLength="115.9785" x="1029.9082" y="118.1426">Supabase Storage</text><path d="M1072.8975,67.6094 C1072.8975,57.6094 1090.8975,57.6094 1090.8975,57.6094 C1090.8975,57.6094 1108.8975,57.6094 1108.8975,67.6094 L1108.8975,93.6094 C1108.8975,103.6094 1090.8975,103.6094 1090.8975,103.6094 C1090.8975,103.6094 1072.8975,103.6094 1072.8975,93.6094 L1072.8975,67.6094" fill="#F3E5F5" style="stroke:#181818;stroke-width:1.5;"/><path d="M1072.8975,67.6094 C1072.8975,77.6094 1090.8975,77.6094 1090.8975,77.6094 C1090.8975,77.6094 1108.8975,77.6094 1108.8975,67.6094" fill="none" style="stroke:#181818;stroke-width:1.5;"/></g><g class="participant participant-tail" data-participant="Storage"><text fill="#000000" font-family="sans-serif" font-size="14" lengthAdjust="spacing" textLength="115.9785" x="1029.9082" y="1525.5645">Supabase Storage</text><path d="M1072.8975,1538.6406 C1072.8975,1528.6406 1090.8975,1528.6406 1090.8975,1528.6406 C1090.8975,1528.6406 1108.8975,1528.6406 1108.8975,1538.6406 L1108.8975,1564.6406 C1108.8975,1574.6406 1090.8975,1574.6406 1090.8975,1574.6406 C1090.8975,1574.6406 1072.8975,1574.6406 1072.8975,1564.6406 L1072.8975,1538.6406" fill="#F3E5F5" style="stroke:#181818;stroke-width:1.5;"/><path d="M1072.8975,1538.6406 C1072.8975,1548.6406 1090.8975,1548.6406 1090.8975,1548.6406 C1090.8975,1548.6406 1108.8975,1548.6406 1108.8975,1538.6406" fill="none" style="stroke:#181818;stroke-width:1.5;"/></g><g><title>&#12502;&#12521;&#12454;&#12470;</title><rect fill="#FFFFFF" height="272.1641" style="stroke:#181818;stroke-width:1;" width="10" x="311" y="197.9219"/></g><g><title>&#12502;&#12521;&#12454;&#12470;</title><rect fill="#FFFFFF" height="229.8125" style="stroke:#181818;stroke-width:1;" width="10" x="311" y="516.2734"/></g><g><title>&#12502;&#12521;&#12454;&#12470;</title><rect fill="#FFFFFF" height="30.3516" style="stroke:#181818;stroke-width:1;" width="10" x="311" y="792.2734"/></g><g><title>&#12502;&#12521;&#12454;&#12470;</title><rect fill="#FFFFFF" height="30.3516" style="stroke:#181818;stroke-width:1;" width="10" x="311" y="1091.625"/></g><g><title>&#12502;&#12521;&#12454;&#12470;</title><rect fill="#FFFFFF" height="90.0547" style="stroke:#181818;stroke-width:1;" width="10" x="311" y="1382.9766"/></g><g><title>API Routes</title><rect fill="#FFFFFF" height="108.4063" style="stroke:#181818;stroke-width:1;" width="10" x="597.9688" y="607.3281"/></g><g><title>API Routes</title><rect fill="#FFFFFF" height="46.1875" style="stroke:#181818;stroke-width:1;" width="10" x="597.9688" y="746.0859"/></g><g><title>API Routes</title><rect fill="#FFFFFF" height="269" style="stroke:#181818;stroke-width:1;" width="10" x="597.9688" y="822.625"/></g><g><title>DiagramService</title><rect fill="#FFFFFF" height="176.1094" style="stroke:#181818;stroke-width:1;" width="10" x="744.0259" y="885.1641"/></g><g><title>IDiagramRepository</title><rect fill="#FFFFFF" height="99.0547" style="stroke:#181818;stroke-width:1;" width="10" x="913.1294" y="931.8672"/></g><g><title>IDiagramRepository</title><rect fill="#FFFFFF" height="200.2969" style="stroke:#181818;stroke-width:1;" width="10" x="913.1294" y="1121.9766"/></g><g><title>Supabase Storage</title><rect fill="#FFFFFF" height="30.3516" style="stroke:#181818;stroke-width:1;" width="10" x="1085.8975" y="1184.5156"/></g><g><title>Supabase Storage</title><rect fill="#FFFFFF" height="30.3516" style="stroke:#181818;stroke-width:1;" width="10" x="1085.8975" y="1261.5703"/></g><rect fill="#EEEEEE" height="3" rx="5" ry="5" style="stroke:#EEEEEE;stroke-width:1;" width="1191.8867" x="0" y="152.3945"/><line style="stroke:#000000;stroke-width:1;" x1="0" x2="1191.8867" y1="152.3945" y2="152.3945"/><line style="stroke:#000000;stroke-width:1;" x1="0" x2="1191.8867" y1="155.3945" y2="155.3945"/><rect fill="#EEEEEE" height="24.3516" rx="5" ry="5" style="stroke:#000000;stroke-width:2;" width="71.2368" x="560.325" y="141.2188"/><text fill="#000000" font-family="sans-serif" font-size="13" font-weight="bold" lengthAdjust="spacing" textLength="53.625" x="566.325" y="158.7139">&#21066;&#38500;&#30906;&#35469;</text><g class="message" data-participant-1="user" data-participant-2="browser"><polygon fill="#181818" points="299,193.9219,309,197.9219,299,201.9219,303,197.9219" style="stroke:#181818;stroke-width:1;"/><line style="stroke:#181818;stroke-width:2;" x1="92" x2="305" y1="197.9219" y2="197.9219"/><text fill="#000000" font-family="sans-serif" font-size="13" lengthAdjust="spacing" textLength="195" x="99" y="193.0654">&#22259;&#34920;&#12398;&#12300;&#21066;&#38500;&#12301;&#12508;&#12479;&#12531;&#12434;&#12463;&#12522;&#12483;&#12463;</text></g><g class="message" data-participant-1="browser" data-participant-2="browser"><line style="stroke:#181818;stroke-width:2;" x1="321" x2="363" y1="228.2734" y2="228.2734"/><line style="stroke:#181818;stroke-width:2;" x1="363" x2="363" y1="228.2734" y2="241.2734"/><line style="stroke:#181818;stroke-width:2;" x1="322" x2="363" y1="241.2734" y2="241.2734"/><polygon fill="#181818" points="332,237.2734,322,241.2734,332,245.2734,328,241.2734" style="stroke:#181818;stroke-width:1;"/><text fill="#000000" font-family="sans-serif" font-size="13" lengthAdjust="spacing" textLength="91" x="328" y="223.417">&#22259;&#34920;&#24773;&#22577;&#12434;&#21462;&#24471;</text></g><path d="M214,259.2734 L214,308.2734 A5,5 0 0 0 219,313.2734 L412,313.2734 A5,5 0 0 0 417,308.2734 L417,264.2734 L407,254.2734 L219,254.2734 A5,5 0 0 0 214,259.2734" fill="#FFFDE7" style="stroke:#FBC02D;stroke-width:0.5;"/><path d="M407,254.2734 L407,261.7734 A2.5,2.5 0 0 0 409.5,264.2734 L417,264.2734 L407,254.2734" fill="#FFFDE7" style="stroke:#FBC02D;stroke-width:0.5;"/><text fill="#000000" font-family="sans-serif" font-size="13" font-weight="bold" lengthAdjust="spacing" textLength="120.6563" x="220" y="272.7686">&#30906;&#35469;&#12480;&#12452;&#12450;&#12525;&#12464;&#34920;&#31034;</text><text fill="#000000" font-family="sans-serif" font-size="13" lengthAdjust="spacing" textLength="182" x="220" y="289.1201">&#12300;&#12371;&#12398;&#22259;&#34920;&#12434;&#21066;&#38500;&#12375;&#12414;&#12377;&#12363;&#65311;&#12301;</text><text fill="#000000" font-family="sans-serif" font-size="13" lengthAdjust="spacing" textLength="182" x="220" y="305.4717">&#12300;&#21066;&#38500;&#12377;&#12427;&#12392;&#24489;&#20803;&#12391;&#12365;&#12414;&#12379;&#12435;&#12301;</text><g class="message" data-participant-1="browser" data-participant-2="user"><polygon fill="#181818" points="103,336.6797,93,340.6797,103,344.6797,99,340.6797" style="stroke:#181818;stroke-width:1;"/><line style="stroke:#181818;stroke-width:2;stroke-dasharray:2.0,2.0;" x1="97" x2="310" y1="340.6797" y2="340.6797"/><text fill="#000000" font-family="sans-serif" font-size="13" lengthAdjust="spacing" textLength="117" x="109" y="335.8232">&#30906;&#35469;&#12480;&#12452;&#12450;&#12525;&#12464;&#34920;&#31034;</text></g><path d="M15,355.6797 L70.1709,355.6797 L70.1709,364.0313 L60.1709,374.0313 L10,374.0313 L10,360.6797 A5,5 0 0 1 15,355.6797" fill="#EEEEEE" style="stroke:#000000;stroke-width:1.5;"/><rect fill="none" height="1139.3516" rx="5" ry="5" style="stroke:#000000;stroke-width:1.5;" width="1171.8867" x="10" y="355.6797"/><text fill="#000000" font-family="sans-serif" font-size="13" font-weight="bold" lengthAdjust="spacing" textLength="15.1709" x="25" y="370.1748">alt</text><text fill="#000000" font-family="sans-serif" font-size="11" font-weight="bold" lengthAdjust="spacing" textLength="64.0449" x="85.1709" y="369.0986">[&#12461;&#12515;&#12531;&#12475;&#12523;]</text><g class="message" data-participant-1="user" data-participant-2="browser"><polygon fill="#181818" points="299,392.3828,309,396.3828,299,400.3828,303,396.3828" style="stroke:#181818;stroke-width:1;"/><line style="stroke:#181818;stroke-width:2;" x1="92" x2="305" y1="396.3828" y2="396.3828"/><text fill="#000000" font-family="sans-serif" font-size="13" lengthAdjust="spacing" textLength="130" x="99" y="391.5264">&#12461;&#12515;&#12531;&#12475;&#12523;&#12434;&#12463;&#12522;&#12483;&#12463;</text></g><g class="message" data-participant-1="browser" data-participant-2="browser"><line style="stroke:#181818;stroke-width:2;" x1="321" x2="363" y1="426.7344" y2="426.7344"/><line style="stroke:#181818;stroke-width:2;" x1="363" x2="363" y1="426.7344" y2="439.7344"/><line style="stroke:#181818;stroke-width:2;" x1="322" x2="363" y1="439.7344" y2="439.7344"/><polygon fill="#181818" points="332,435.7344,322,439.7344,332,443.7344,328,439.7344" style="stroke:#181818;stroke-width:1;"/><text fill="#000000" font-family="sans-serif" font-size="13" lengthAdjust="spacing" textLength="117" x="328" y="421.8779">&#12480;&#12452;&#12450;&#12525;&#12464;&#12434;&#38281;&#12376;&#12427;</text></g><g class="message" data-participant-1="browser" data-participant-2="user"><polygon fill="#181818" points="103,466.0859,93,470.0859,103,474.0859,99,470.0859" style="stroke:#181818;stroke-width:1;"/><line style="stroke:#181818;stroke-width:2;stroke-dasharray:2.0,2.0;" x1="97" x2="315" y1="470.0859" y2="470.0859"/><text fill="#000000" font-family="sans-serif" font-size="13" lengthAdjust="spacing" textLength="91" x="109" y="465.2295">&#22259;&#34920;&#19968;&#35239;&#12395;&#25147;&#12427;</text></g><line style="stroke:#000000;stroke-width:1;stroke-dasharray:2.0,2.0;" x1="10" x2="1181.8867" y1="479.0859" y2="479.0859"/><text fill="#000000" font-family="sans-serif" font-size="11" font-weight="bold" lengthAdjust="spacing" textLength="52.7012" x="15" y="490.5049">[&#21066;&#38500;&#30906;&#35469;]</text><g class="message" data-participant-1="user" data-participant-2="browser"><polygon fill="#181818" points="299,512.2734,309,516.2734,299,520.2734,303,516.2734" style="stroke:#181818;stroke-width:1;"/><line style="stroke:#181818;stroke-width:2;" x1="92" x2="305" y1="516.2734" y2="516.2734"/><text fill="#000000" font-family="sans-serif" font-size="13" lengthAdjust="spacing" textLength="65" x="99" y="511.417">&#21066;&#38500;&#12434;&#30906;&#35469;</text></g><rect fill="#EEEEEE" height="3" rx="5" ry="5" style="stroke:#EEEEEE;stroke-width:1;" width="1191.8867" x="0" y="545.4492"/><line style="stroke:#000000;stroke-width:1;" x1="0" x2="1191.8867" y1="545.4492" y2="545.4492"/><line style="stroke:#000000;stroke-width:1;" x1="0" x2="1191.8867" y1="548.4492" y2="548.4492"/><rect fill="#EEEEEE" height="24.3516" rx="5" ry="5" style="stroke:#000000;stroke-width:2;" width="71.2368" x="560.325" y="534.2734"/><text fill="#000000" font-family="sans-serif" font-size="13" font-weight="bold" lengthAdjust="spacing" textLength="53.625" x="566.325" y="551.7686">&#21066;&#38500;&#20966;&#29702;</text><g class="message" data-participant-1="browser" data-participant-2="APIRoutes"><polygon fill="#181818" points="585.9688,603.3281,595.9688,607.3281,585.9688,611.3281,589.9688,607.3281" style="stroke:#181818;stroke-width:1;"/><line style="stroke:#181818;stroke-width:2;" x1="321" x2="591.9688" y1="607.3281" y2="607.3281"/><text fill="#000000" font-family="sans-serif" font-size="13" lengthAdjust="spacing" textLength="50.5718" x="328" y="586.1201">DELETE</text><text fill="#000000" font-family="sans-serif" font-size="13" lengthAdjust="spacing" textLength="257.9688" x="328" y="602.4717">/api/diagrams/{projectName}/{diagramName}</text></g><path d="M537,625.3281 L537,657.3281 A5,5 0 0 0 542,662.3281 L662,662.3281 A5,5 0 0 0 667,657.3281 L667,630.3281 L657,620.3281 L542,620.3281 A5,5 0 0 0 537,625.3281" fill="#FFFDE7" style="stroke:#FBC02D;stroke-width:0.5;"/><path d="M657,620.3281 L657,627.8281 A2.5,2.5 0 0 0 659.5,630.3281 L667,630.3281 L657,620.3281" fill="#FFFDE7" style="stroke:#FBC02D;stroke-width:0.5;"/><text fill="#000000" font-family="sans-serif" font-size="13" lengthAdjust="spacing" textLength="91" x="543" y="638.8232">&#35469;&#35388;&#12539;&#27177;&#38480;&#26908;&#35388;</text><text fill="#000000" font-family="sans-serif" font-size="13" lengthAdjust="spacing" textLength="109.8208" x="543" y="655.1748">Storage Policy&#36969;&#29992;</text><path d="M25,675.0313 L80.1709,675.0313 L80.1709,683.3828 L70.1709,693.3828 L20,693.3828 L20,680.0313 A5,5 0 0 1 25,675.0313" fill="#EEEEEE" style="stroke:#000000;stroke-width:1.5;"/><rect fill="none" height="813" rx="5" ry="5" style="stroke:#000000;stroke-width:1.5;" width="1151.8867" x="20" y="675.0313"/><text fill="#000000" font-family="sans-serif" font-size="13" font-weight="bold" lengthAdjust="spacing" textLength="15.1709" x="35" y="689.5264">alt</text><text fill="#000000" font-family="sans-serif" font-size="11" font-weight="bold" lengthAdjust="spacing" textLength="99.0107" x="95.1709" y="688.4502">[401 Unauthorized]</text><g class="message" data-participant-1="APIRoutes" data-participant-2="browser"><polygon fill="#181818" points="332,711.7344,322,715.7344,332,719.7344,328,715.7344" style="stroke:#181818;stroke-width:1;"/><line style="stroke:#181818;stroke-width:2;stroke-dasharray:2.0,2.0;" x1="326" x2="601.9688" y1="715.7344" y2="715.7344"/><text fill="#000000" font-family="sans-serif" font-size="13" lengthAdjust="spacing" textLength="21.6899" x="338" y="710.8779">401</text><text fill="#000000" font-family="sans-serif" font-size="13" lengthAdjust="spacing" textLength="3.6118" x="359.6899" y="710.8779">&#160;</text><text fill="#000000" font-family="sans-serif" font-size="13" lengthAdjust="spacing" textLength="103.2764" x="363.3018" y="710.8779">UNAUTHORIZED</text></g><g class="message" data-participant-1="browser" data-participant-2="user"><polygon fill="#181818" points="103,742.0859,93,746.0859,103,750.0859,99,746.0859" style="stroke:#181818;stroke-width:1;"/><line style="stroke:#181818;stroke-width:2;stroke-dasharray:2.0,2.0;" x1="97" x2="315" y1="746.0859" y2="746.0859"/><text fill="#000000" font-family="sans-serif" font-size="13" lengthAdjust="spacing" textLength="195" x="109" y="741.2295">&#12456;&#12521;&#12540;&#12300;&#12525;&#12464;&#12452;&#12531;&#12375;&#12390;&#12367;&#12384;&#12373;&#12356;&#12301;</text></g><line style="stroke:#000000;stroke-width:1;stroke-dasharray:2.0,2.0;" x1="20" x2="1171.8867" y1="755.0859" y2="755.0859"/><text fill="#000000" font-family="sans-serif" font-size="11" font-weight="bold" lengthAdjust="spacing" textLength="82.5054" x="25" y="766.5049">[403 Forbidden]</text><g class="message" data-participant-1="APIRoutes" data-participant-2="browser"><polygon fill="#181818" points="332,788.2734,322,792.2734,332,796.2734,328,792.2734" style="stroke:#181818;stroke-width:1;"/><line style="stroke:#181818;stroke-width:2;stroke-dasharray:2.0,2.0;" x1="326" x2="601.9688" y1="792.2734" y2="792.2734"/><text fill="#000000" font-family="sans-serif" font-size="13" lengthAdjust="spacing" textLength="21.6899" x="338" y="787.417">403</text><text fill="#000000" font-family="sans-serif" font-size="13" lengthAdjust="spacing" textLength="3.6118" x="359.6899" y="787.417">&#160;</text><text fill="#000000" font-family="sans-serif" font-size="13" lengthAdjust="spacing" textLength="76.5591" x="363.3018" y="787.417">FORBIDDEN</text></g><g class="message" data-participant-1="browser" data-participant-2="user"><polygon fill="#181818" points="103,818.625,93,822.625,103,826.625,99,822.625" style="stroke:#181818;stroke-width:1;"/><line style="stroke:#181818;stroke-width:2;stroke-dasharray:2.0,2.0;" x1="97" x2="315" y1="822.625" y2="822.625"/><text fill="#000000" font-family="sans-serif" font-size="13" lengthAdjust="spacing" textLength="195" x="109" y="817.7686">&#12456;&#12521;&#12540;&#12300;&#21066;&#38500;&#27177;&#38480;&#12364;&#12354;&#12426;&#12414;&#12379;&#12435;&#12301;</text></g><line style="stroke:#000000;stroke-width:1;stroke-dasharray:2.0,2.0;" x1="20" x2="1171.8867" y1="831.625" y2="831.625"/><text fill="#000000" font-family="sans-serif" font-size="11" font-weight="bold" lengthAdjust="spacing" textLength="52.7012" x="25" y="843.0439">[&#27491;&#24120;&#20966;&#29702;]</text><g class="message" data-participant-1="APIRoutes" data-participant-2="DiagramService"><polygon fill="#181818" points="732.0259,881.1641,742.0259,885.1641,732.0259,889.1641,736.0259,885.1641" style="stroke:#181818;stroke-width:1;"/><line style="stroke:#181818;stroke-width:2;" x1="607.9688" x2="738.0259" y1="885.1641" y2="885.1641"/><text fill="#000000" font-family="sans-serif" font-size="13" lengthAdjust="spacing" textLength="117.0571" x="614.9688" y="863.9561">delete(projectName,</text><text fill="#000000" font-family="sans-serif" font-size="13" lengthAdjust="spacing" textLength="85.9727" x="614.9688" y="880.3076">diagramName)</text></g><g class="message" data-participant-1="DiagramService" data-participant-2="DiagramRepo"><polygon fill="#181818" points="901.1294,927.8672,911.1294,931.8672,901.1294,935.8672,905.1294,931.8672" style="stroke:#181818;stroke-width:1;"/><line style="stroke:#181818;stroke-width:2;" x1="754.0259" x2="907.1294" y1="931.8672" y2="931.8672"/><text fill="#000000" font-family="sans-serif" font-size="13" lengthAdjust="spacing" textLength="117.0571" x="761.0259" y="910.6592">delete(projectName,</text><text fill="#000000" font-family="sans-serif" font-size="13" lengthAdjust="spacing" textLength="85.9727" x="761.0259" y="927.0107">diagramName)</text></g><g class="message" data-participant-1="DiagramRepo" data-participant-2="DiagramRepo"><line style="stroke:#181818;stroke-width:2;" x1="923.1294" x2="965.1294" y1="962.2188" y2="962.2188"/><line style="stroke:#181818;stroke-width:2;" x1="965.1294" x2="965.1294" y1="962.2188" y2="975.2188"/><line style="stroke:#181818;stroke-width:2;" x1="924.1294" x2="965.1294" y1="975.2188" y2="975.2188"/><polygon fill="#181818" points="934.1294,971.2188,924.1294,975.2188,934.1294,979.2188,930.1294,975.2188" style="stroke:#181818;stroke-width:1;"/><text fill="#000000" font-family="sans-serif" font-size="13" lengthAdjust="spacing" textLength="52" x="930.1294" y="957.3623">&#23384;&#22312;&#30906;&#35469;</text></g><path d="M35,990.2188 L90.1709,990.2188 L90.1709,998.5703 L80.1709,1008.5703 L30,1008.5703 L30,995.2188 A5,5 0 0 1 35,990.2188" fill="#EEEEEE" style="stroke:#000000;stroke-width:1.5;"/><rect fill="none" height="490.8125" rx="5" ry="5" style="stroke:#000000;stroke-width:1.5;" width="1131.8867" x="30" y="990.2188"/><text fill="#000000" font-family="sans-serif" font-size="13" font-weight="bold" lengthAdjust="spacing" textLength="15.1709" x="45" y="1004.7139">alt</text><text fill="#000000" font-family="sans-serif" font-size="11" font-weight="bold" lengthAdjust="spacing" textLength="83.7139" x="105.1709" y="1003.6377">[404 Not Found]</text><g class="message" data-participant-1="DiagramRepo" data-participant-2="DiagramService"><polygon fill="#181818" points="765.0259,1026.9219,755.0259,1030.9219,765.0259,1034.9219,761.0259,1030.9219" style="stroke:#181818;stroke-width:1;"/><line style="stroke:#181818;stroke-width:2;stroke-dasharray:2.0,2.0;" x1="759.0259" x2="917.1294" y1="1030.9219" y2="1030.9219"/><text fill="#000000" font-family="sans-serif" font-size="13" lengthAdjust="spacing" textLength="135.1035" x="771.0259" y="1026.0654">DiagramNotFoundError</text></g><g class="message" data-participant-1="DiagramService" data-participant-2="APIRoutes"><polygon fill="#181818" points="618.9688,1057.2734,608.9688,1061.2734,618.9688,1065.2734,614.9688,1061.2734" style="stroke:#181818;stroke-width:1;"/><line style="stroke:#181818;stroke-width:2;stroke-dasharray:2.0,2.0;" x1="612.9688" x2="748.0259" y1="1061.2734" y2="1061.2734"/><text fill="#000000" font-family="sans-serif" font-size="13" lengthAdjust="spacing" textLength="21.6899" x="624.9688" y="1056.417">404</text><text fill="#000000" font-family="sans-serif" font-size="13" lengthAdjust="spacing" textLength="3.6118" x="646.6587" y="1056.417">&#160;</text><text fill="#000000" font-family="sans-serif" font-size="13" lengthAdjust="spacing" textLength="80.8882" x="650.2705" y="1056.417">NOT_FOUND</text></g><g class="message" data-participant-1="APIRoutes" data-participant-2="browser"><polygon fill="#181818" points="332,1087.625,322,1091.625,332,1095.625,328,1091.625" style="stroke:#181818;stroke-width:1;"/><line style="stroke:#181818;stroke-width:2;stroke-dasharray:2.0,2.0;" x1="326" x2="601.9688" y1="1091.625" y2="1091.625"/><text fill="#000000" font-family="sans-serif" font-size="13" lengthAdjust="spacing" textLength="21.6899" x="338" y="1086.7686">404</text><text fill="#000000" font-family="sans-serif" font-size="13" lengthAdjust="spacing" textLength="3.6118" x="359.6899" y="1086.7686">&#160;</text><text fill="#000000" font-family="sans-serif" font-size="13" lengthAdjust="spacing" textLength="80.8882" x="363.3018" y="1086.7686">NOT_FOUND</text></g><g class="message" data-participant-1="browser" data-participant-2="user"><polygon fill="#181818" points="103,1117.9766,93,1121.9766,103,1125.9766,99,1121.9766" style="stroke:#181818;stroke-width:1;"/><line style="stroke:#181818;stroke-width:2;stroke-dasharray:2.0,2.0;" x1="97" x2="315" y1="1121.9766" y2="1121.9766"/><text fill="#000000" font-family="sans-serif" font-size="13" lengthAdjust="spacing" textLength="195" x="109" y="1117.1201">&#12456;&#12521;&#12540;&#12300;&#22259;&#34920;&#12364;&#35211;&#12388;&#12363;&#12426;&#12414;&#12379;&#12435;&#12301;</text></g><line style="stroke:#000000;stroke-width:1;stroke-dasharray:2.0,2.0;" x1="30" x2="1161.8867" y1="1130.9766" y2="1130.9766"/><text fill="#000000" font-family="sans-serif" font-size="11" font-weight="bold" lengthAdjust="spacing" textLength="52.7012" x="35" y="1142.3955">[&#22259;&#34920;&#23384;&#22312;]</text><g class="message" data-participant-1="DiagramRepo" data-participant-2="Storage"><polygon fill="#181818" points="1073.8975,1180.5156,1083.8975,1184.5156,1073.8975,1188.5156,1077.8975,1184.5156" style="stroke:#181818;stroke-width:1;"/><line style="stroke:#181818;stroke-width:2;" x1="923.1294" x2="1079.8975" y1="1184.5156" y2="1184.5156"/><text fill="#000000" font-family="sans-serif" font-size="13" lengthAdjust="spacing" textLength="117" x="930.1294" y="1163.3076">&#12477;&#12540;&#12473;&#12501;&#12449;&#12452;&#12523;&#21066;&#38500;</text><text fill="#000000" font-family="sans-serif" font-size="13" lengthAdjust="spacing" textLength="36.1182" x="930.1294" y="1179.6592">(.puml</text><text fill="#000000" font-family="sans-serif" font-size="13" lengthAdjust="spacing" textLength="3.6118" x="966.2476" y="1179.6592">&#160;</text><text fill="#000000" font-family="sans-serif" font-size="13" lengthAdjust="spacing" textLength="3.6118" x="969.8594" y="1179.6592">/</text><text fill="#000000" font-family="sans-serif" font-size="13" lengthAdjust="spacing" textLength="3.6118" x="973.4712" y="1179.6592">&#160;</text><text fill="#000000" font-family="sans-serif" font-size="13" lengthAdjust="spacing" textLength="96.8145" x="977.083" y="1179.6592">.excalidraw.json)</text></g><g class="message" data-participant-1="Storage" data-participant-2="DiagramRepo"><polygon fill="#181818" points="934.1294,1210.8672,924.1294,1214.8672,934.1294,1218.8672,930.1294,1214.8672" style="stroke:#181818;stroke-width:1;"/><line style="stroke:#181818;stroke-width:2;stroke-dasharray:2.0,2.0;" x1="928.1294" x2="1089.8975" y1="1214.8672" y2="1214.8672"/><text fill="#000000" font-family="sans-serif" font-size="13" lengthAdjust="spacing" textLength="52" x="940.1294" y="1210.0107">&#21066;&#38500;&#25104;&#21151;</text></g><g class="message" data-participant-1="DiagramRepo" data-participant-2="Storage"><polygon fill="#181818" points="1073.8975,1257.5703,1083.8975,1261.5703,1073.8975,1265.5703,1077.8975,1261.5703" style="stroke:#181818;stroke-width:1;"/><line style="stroke:#181818;stroke-width:2;" x1="923.1294" x2="1079.8975" y1="1261.5703" y2="1261.5703"/><text fill="#000000" font-family="sans-serif" font-size="13" lengthAdjust="spacing" textLength="143" x="930.1294" y="1240.3623">&#12503;&#12524;&#12499;&#12517;&#12540;&#12501;&#12449;&#12452;&#12523;&#21066;&#38500;</text><text fill="#000000" font-family="sans-serif" font-size="13" lengthAdjust="spacing" textLength="80.9072" x="930.1294" y="1256.7139">(.preview.svg)</text></g><g class="message" data-participant-1="Storage" data-participant-2="DiagramRepo"><polygon fill="#181818" points="934.1294,1287.9219,924.1294,1291.9219,934.1294,1295.9219,930.1294,1291.9219" style="stroke:#181818;stroke-width:1;"/><line style="stroke:#181818;stroke-width:2;stroke-dasharray:2.0,2.0;" x1="928.1294" x2="1089.8975" y1="1291.9219" y2="1291.9219"/><text fill="#000000" font-family="sans-serif" font-size="13" lengthAdjust="spacing" textLength="52" x="940.1294" y="1287.0654">&#21066;&#38500;&#25104;&#21151;</text></g><g class="message" data-participant-1="DiagramRepo" data-participant-2="DiagramService"><polygon fill="#181818" points="760.0259,1318.2734,750.0259,1322.2734,760.0259,1326.2734,756.0259,1322.2734" style="stroke:#181818;stroke-width:1;"/><line style="stroke:#181818;stroke-width:2;stroke-dasharray:2.0,2.0;" x1="754.0259" x2="917.1294" y1="1322.2734" y2="1322.2734"/><text fill="#000000" font-family="sans-serif" font-size="13" lengthAdjust="spacing" textLength="23.8481" x="766.0259" y="1317.417">void</text></g><g class="message" data-participant-1="DiagramService" data-participant-2="APIRoutes"><polygon fill="#181818" points="613.9688,1348.625,603.9688,1352.625,613.9688,1356.625,609.9688,1352.625" style="stroke:#181818;stroke-width:1;"/><line style="stroke:#181818;stroke-width:2;stroke-dasharray:2.0,2.0;" x1="607.9688" x2="748.0259" y1="1352.625" y2="1352.625"/><text fill="#000000" font-family="sans-serif" font-size="13" lengthAdjust="spacing" textLength="21.6899" x="619.9688" y="1347.7686">204</text><text fill="#000000" font-family="sans-serif" font-size="13" lengthAdjust="spacing" textLength="3.6118" x="641.6587" y="1347.7686">&#160;</text><text fill="#000000" font-family="sans-serif" font-size="13" lengthAdjust="spacing" textLength="16.6182" x="645.2705" y="1347.7686">No</text><text fill="#000000" font-family="sans-serif" font-size="13" lengthAdjust="spacing" textLength="3.6118" x="661.8887" y="1347.7686">&#160;</text><text fill="#000000" font-family="sans-serif" font-size="13" lengthAdjust="spacing" textLength="45.5317" x="665.5005" y="1347.7686">Content</text></g><g class="message" data-participant-1="APIRoutes" data-participant-2="browser"><polygon fill="#181818" points="332,1378.9766,322,1382.9766,332,1386.9766,328,1382.9766" style="stroke:#181818;stroke-width:1;"/><line style="stroke:#181818;stroke-width:2;stroke-dasharray:2.0,2.0;" x1="326" x2="601.9688" y1="1382.9766" y2="1382.9766"/><text fill="#000000" font-family="sans-serif" font-size="13" lengthAdjust="spacing" textLength="21.6899" x="338" y="1378.1201">204</text><text fill="#000000" font-family="sans-serif" font-size="13" lengthAdjust="spacing" textLength="3.6118" x="359.6899" y="1378.1201">&#160;</text><text fill="#000000" font-family="sans-serif" font-size="13" lengthAdjust="spacing" textLength="16.6182" x="363.3018" y="1378.1201">No</text><text fill="#000000" font-family="sans-serif" font-size="13" lengthAdjust="spacing" textLength="3.6118" x="379.9199" y="1378.1201">&#160;</text><text fill="#000000" font-family="sans-serif" font-size="13" lengthAdjust="spacing" textLength="45.5317" x="383.5317" y="1378.1201">Content</text></g><g class="message" data-participant-1="browser" data-participant-2="browser"><line style="stroke:#181818;stroke-width:2;" x1="321" x2="363" y1="1429.6797" y2="1429.6797"/><line style="stroke:#181818;stroke-width:2;" x1="363" x2="363" y1="1429.6797" y2="1442.6797"/><line style="stroke:#181818;stroke-width:2;" x1="322" x2="363" y1="1442.6797" y2="1442.6797"/><polygon fill="#181818" points="332,1438.6797,322,1442.6797,332,1446.6797,328,1442.6797" style="stroke:#181818;stroke-width:1;"/><text fill="#000000" font-family="sans-serif" font-size="13" lengthAdjust="spacing" textLength="91" x="328" y="1408.4717">&#22259;&#34920;&#19968;&#35239;&#12434;&#26356;&#26032;</text><text fill="#000000" font-family="sans-serif" font-size="13" lengthAdjust="spacing" textLength="156" x="328" y="1424.8232">&#65288;&#21066;&#38500;&#12373;&#12428;&#12383;&#22259;&#34920;&#12434;&#38500;&#22806;&#65289;</text></g><g class="message" data-participant-1="browser" data-participant-2="user"><polygon fill="#181818" points="103,1469.0313,93,1473.0313,103,1477.0313,99,1473.0313" style="stroke:#181818;stroke-width:1;"/><line style="stroke:#181818;stroke-width:2;stroke-dasharray:2.0,2.0;" x1="97" x2="315" y1="1473.0313" y2="1473.0313"/><text fill="#000000" font-family="sans-serif" font-size="13" lengthAdjust="spacing" textLength="195" x="109" y="1468.1748">&#12300;&#22259;&#34920;&#12434;&#21066;&#38500;&#12375;&#12414;&#12375;&#12383;&#12301;&#12488;&#12540;&#12473;&#12488;</text></g><!--SRC=[pLThJzjM6FxkNt54Fr1G0oc1jI1H2H9dGoeNSVaoLPfCSaHTWftPJg13bR2zRboAYc258f3eXQP96LkhJXkbbFwOCuVmYR-mznmxYHqRIBSlCyAOSzxdlJxlw-F6xY- -k4P4ZB-8UKICTyHyJumFrjRxBWItqlEyjR1ukhbBp2V4t0SHa1sBeaYeqzacngeZeMyIOmcshPt3uk5w5og-shUMDYj044UHbflNKB6mKp8__NqmLygz1WKe7efztHyATmAqkBjToXzreQWiQNX6ku7weqCeX8PIWgIDzTz68_Zx39OI6CL4OK8HfhZ6Vn4ifqwAKbe0E58TVJsA8a-FtXKJan9MLTJc4b7aZ9HCo8g45NGzxDgO4cQcG5YOmAhu0qPjuR1RCzmrCI6cmN4qoo6uUeN4v0JJ5fLJieAkn7leZxqdAqciEEjViOjxu5OdoHe-Lqyy7kDl-FN4UwFXjXZLeubQ2WUNy-netYxdsT42nma93P0DnCXJ6fWBnCmnLlm9zmOag2YZOeLpnzP0p7LY5eYH0waxqbNRY5tS9WOPXzG22btX8_6sUCoBxXdgGyDoHiCgO5k5jDYQj2khsc3OjxTPc14-x8KxD1Z1IbPCO8RmBe7Lc_4EljCBwtE4Xd5QLaK8-RuRIbV1N9HlvwDSKj24SK75g64aaxQVHW00LMSGvnd48tn7l8FZkhkHdU6J5uUbDyk8yeqc3OLkLJ9HxYoY_qRc7Za5cLicvZOnFhF-MoN6xyHyGqmJ7cXLnAm0170KS5nPKu3IeldGUlQETkNZTUjuW-COTUGiY9JX23Kts-uHSuuOkyHuGSbWl0NuoUvXSpD8W6D4NmCFVLs-GVHZsklwqjdH3hXj2xjd0D7prd71UcWI_JNHbvdy5Z7Mg32MaepChXWWY8mTmGLE0JTJ6amfuEnBbgAFnDnZdFTdjqQgDfqK59Z06iE0ErrV8FfJEjOyeAh7RheJVQyu_x4idCJ-ik4KqCTD3-wS29ni6gkE69NogwEh5RvPF-TELdvYVAi9iDf3NIZ6t-P7UUJfjDRPj2BVmmbjG9Z23rfddNNsdzToHPDjeygiwWPY5_WCSvoO7ulvmkdcYZtMdRroomp9AJ5n_rGldFoIPrjLQZ2ZKExsy7Kq9WaPxQwim8nDEXgGAwIG9syCCD0pDlhDu73Vjtoi0d1LezRNmBgo2LYWim_wm673BcKKfN-Ew8-9_epeJuZ-ezq1FYkU8h6wjuSZA2uhus8oYQKAv0AtpWyI50qEz_R5Oln0VH7wtAepT9jQTX693XF18CQYfv_h2hsu_z8wEB0PUb7aGQ7VgfteNM0hXJLyrSNQQyX5sYQ_2Q-AgfqQrLLZx1tm7onHlCyCK-gpOUq_jRRpxdbGfNyx6f0rO0syx2ixFeL1AN8M0Ct0F9nl58y6LxtSBWSOgIIdPfGmxmP7luiFZWt4Bj5TJhnRwdnwrw7NJ_4BQLuFrPrNygDI3bvWy2PREe_g5z6zGdddiCLg6-nZ85C2s5AUbzJTJ-mqze6UtepdR2BjsIqAfwUMT6OgXLfH2vv922angGZJBVTKMMeADk-ezMoMJONy9BK7mVoAjRXpNYBA6kiCnjmWvg_4N2FcAnfLS4WApefukaNDJloFmWXgkAmi9kjfi2_fi3RM__R7aAJLsM9rzLXzcWC6S_rTvZ-PEgSaOxMuzKTn_UqT2RuzoiT6A3wyNNOgXqrweDbTfzyabxLmfNDhJwXmts6dwlboqynVriAL3dR6BVrBV_y1]--></g></svg>