<svg xmlns="http://www.w3.org/2000/svg" xmlns:xlink="http://www.w3.org/1999/xlink" contentStyleType="text/css" data-diagram-type="SEQUENCE" height="1432px" preserveAspectRatio="none" style="width:983px;height:1432px;background:#FFFFFF;" version="1.1" viewBox="0 0 983 1432" width="983px" zoomAndPan="magnify"><title>&#22259;&#34920;&#26032;&#35215;&#20316;&#25104;&#12501;&#12525;&#12540;&#65288;UC 3-1&#65289;</title><defs/><g><text fill="#000000" font-family="sans-serif" font-size="14" font-weight="bold" lengthAdjust="spacing" textLength="203.1572" x="386.3918" y="29.5332">&#22259;&#34920;&#26032;&#35215;&#20316;&#25104;&#12501;&#12525;&#12540;&#65288;UC 3-1&#65289;</text><g><title>&#12502;&#12521;&#12454;&#12470;</title><rect fill="#FFFFFF" height="1142.4375" style="stroke:#181818;stroke-width:1;" width="10" x="283" y="197.9219"/></g><g><title>API Routes</title><rect fill="#FFFFFF" height="607.9219" style="stroke:#181818;stroke-width:1;" width="10" x="486" y="620.3828"/></g><g><title>DiagramService</title><rect fill="#FFFFFF" height="530.8672" style="stroke:#181818;stroke-width:1;" width="10" x="650.0889" y="650.7344"/></g><g><title>Supabase Storage</title><rect fill="#FFFFFF" height="30.3516" style="stroke:#181818;stroke-width:1;" width="10" x="863.3276" y="697.4375"/></g><g><title>Supabase Storage</title><rect fill="#FFFFFF" height="99.4063" style="stroke:#181818;stroke-width:1;" width="10" x="863.3276" y="1051.8438"/></g><rect fill="none" height="816.2188" rx="5" ry="5" style="stroke:#000000;stroke-width:1.5;" width="956.9409" x="10" y="517.1406"/><rect fill="none" height="583.5703" rx="5" ry="5" style="stroke:#000000;stroke-width:1.5;" width="936.9409" x="20" y="742.7891"/><g><title>&#12456;&#12531;&#12489;&#12518;&#12540;&#12470;&#12540;</title><rect fill="#000000" fill-opacity="0.00000" height="1229.1406" width="8" x="78" y="121.2188"/><line style="stroke:#181818;stroke-width:0.5;stroke-dasharray:5.0,5.0;" x1="82" x2="82" y1="121.2188" y2="1350.3594"/></g><g><title>&#12502;&#12521;&#12454;&#12470;</title><rect fill="#000000" fill-opacity="0.00000" height="1229.1406" width="8" x="284" y="121.2188"/><line style="stroke:#181818;stroke-width:0.5;stroke-dasharray:5.0,5.0;" x1="287.1035" x2="287.1035" y1="121.2188" y2="1350.3594"/></g><g><title>API Routes</title><rect fill="#000000" fill-opacity="0.00000" height="1229.1406" width="8" x="487" y="121.2188"/><line style="stroke:#181818;stroke-width:0.5;stroke-dasharray:5.0,5.0;" x1="490.3174" x2="490.3174" y1="121.2188" y2="1350.3594"/></g><g><title>DiagramService</title><rect fill="#000000" fill-opacity="0.00000" height="1229.1406" width="8" x="651.0889" y="121.2188"/><line style="stroke:#181818;stroke-width:0.5;stroke-dasharray:5.0,5.0;" x1="654.2959" x2="654.2959" y1="121.2188" y2="1350.3594"/></g><g><title>Supabase Storage</title><rect fill="#000000" fill-opacity="0.00000" height="1229.1406" width="8" x="864.3276" y="121.2188"/><line style="stroke:#181818;stroke-width:0.5;stroke-dasharray:5.0,5.0;" x1="867.3384" x2="867.3384" y1="121.2188" y2="1350.3594"/></g><g class="participant participant-head" data-participant="User"><text fill="#000000" font-family="sans-serif" font-size="14" lengthAdjust="spacing" textLength="98" x="30" y="118.1426">&#12456;&#12531;&#12489;&#12518;&#12540;&#12470;&#12540;</text><ellipse cx="82" cy="52.1094" fill="#E2E2F0" rx="8" ry="8" style="stroke:#181818;stroke-width:0.5;"/><path d="M82,60.1094 L82,87.1094 M69,68.1094 L95,68.1094 M82,87.1094 L69,102.1094 M82,87.1094 L95,102.1094" fill="none" style="stroke:#181818;stroke-width:0.5;"/></g><g class="participant participant-tail" data-participant="User"><text fill="#000000" font-family="sans-serif" font-size="14" lengthAdjust="spacing" textLength="98" x="30" y="1363.8926">&#12456;&#12531;&#12489;&#12518;&#12540;&#12470;&#12540;</text><ellipse cx="82" cy="1375.4688" fill="#E2E2F0" rx="8" ry="8" style="stroke:#181818;stroke-width:0.5;"/><path d="M82,1383.4688 L82,1410.4688 M69,1391.4688 L95,1391.4688 M82,1410.4688 L69,1425.4688 M82,1410.4688 L95,1425.4688" fill="none" style="stroke:#181818;stroke-width:0.5;"/></g><g class="participant participant-head" data-participant="Browser"><rect fill="#FAFAFA" height="49.2188" rx="5" ry="5" style="stroke:#666666;stroke-width:0.5;" width="105.793" x="235.1035" y="71"/><text fill="#000000" font-family="sans-serif" font-size="14" lengthAdjust="spacing" textLength="56" x="260" y="92.5332">&#12502;&#12521;&#12454;&#12470;</text><text fill="#000000" font-family="sans-serif" font-size="14" lengthAdjust="spacing" textLength="91.793" x="242.1035" y="110.1426">(Next.js Client)</text></g><g class="participant participant-tail" data-participant="Browser"><rect fill="#FAFAFA" height="49.2188" rx="5" ry="5" style="stroke:#666666;stroke-width:0.5;" width="105.793" x="235.1035" y="1349.3594"/><text fill="#000000" font-family="sans-serif" font-size="14" lengthAdjust="spacing" textLength="56" x="260" y="1370.8926">&#12502;&#12521;&#12454;&#12470;</text><text fill="#000000" font-family="sans-serif" font-size="14" lengthAdjust="spacing" textLength="91.793" x="242.1035" y="1388.502">(Next.js Client)</text></g><g class="participant participant-head" data-participant="APIRoutes"><rect fill="#FAFAFA" height="49.2188" rx="5" ry="5" style="stroke:#666666;stroke-width:0.5;" width="107.3652" x="437.3174" y="71"/><text fill="#000000" font-family="sans-serif" font-size="14" lengthAdjust="spacing" textLength="70.8135" x="455.5933" y="92.5332">API Routes</text><text fill="#000000" font-family="sans-serif" font-size="14" lengthAdjust="spacing" textLength="93.3652" x="444.3174" y="110.1426">(/api/diagrams)</text></g><g class="participant participant-tail" data-participant="APIRoutes"><rect fill="#FAFAFA" height="49.2188" rx="5" ry="5" style="stroke:#666666;stroke-width:0.5;" width="107.3652" x="437.3174" y="1349.3594"/><text fill="#000000" font-family="sans-serif" font-size="14" lengthAdjust="spacing" textLength="70.8135" x="455.5933" y="1370.8926">API Routes</text><text fill="#000000" font-family="sans-serif" font-size="14" lengthAdjust="spacing" textLength="93.3652" x="444.3174" y="1388.502">(/api/diagrams)</text></g><g class="participant participant-head" data-participant="DiagramService"><rect fill="#FAFAFA" height="31.6094" rx="5" ry="5" style="stroke:#666666;stroke-width:0.5;" width="113.5859" x="598.2959" y="88.6094"/><text fill="#000000" font-family="sans-serif" font-size="14" lengthAdjust="spacing" textLength="99.5859" x="605.2959" y="110.1426">DiagramService</text></g><g class="participant participant-tail" data-participant="DiagramService"><rect fill="#FAFAFA" height="31.6094" rx="5" ry="5" style="stroke:#666666;stroke-width:0.5;" width="113.5859" x="598.2959" y="1349.3594"/><text fill="#000000" font-family="sans-serif" font-size="14" lengthAdjust="spacing" textLength="99.5859" x="605.2959" y="1370.8926">DiagramService</text></g><g class="participant participant-head" data-participant="Storage"><text fill="#000000" font-family="sans-serif" font-size="14" lengthAdjust="spacing" textLength="115.9785" x="807.3384" y="118.1426">Supabase Storage</text><path d="M850.3276,67.6094 C850.3276,57.6094 868.3276,57.6094 868.3276,57.6094 C868.3276,57.6094 886.3276,57.6094 886.3276,67.6094 L886.3276,93.6094 C886.3276,103.6094 868.3276,103.6094 868.3276,103.6094 C868.3276,103.6094 850.3276,103.6094 850.3276,93.6094 L850.3276,67.6094" fill="#E2E2F0" style="stroke:#181818;stroke-width:1.5;"/><path d="M850.3276,67.6094 C850.3276,77.6094 868.3276,77.6094 868.3276,77.6094 C868.3276,77.6094 886.3276,77.6094 886.3276,67.6094" fill="none" style="stroke:#181818;stroke-width:1.5;"/></g><g class="participant participant-tail" data-participant="Storage"><text fill="#000000" font-family="sans-serif" font-size="14" lengthAdjust="spacing" textLength="115.9785" x="807.3384" y="1363.8926">Supabase Storage</text><path d="M850.3276,1376.9688 C850.3276,1366.9688 868.3276,1366.9688 868.3276,1366.9688 C868.3276,1366.9688 886.3276,1366.9688 886.3276,1376.9688 L886.3276,1402.9688 C886.3276,1412.9688 868.3276,1412.9688 868.3276,1412.9688 C868.3276,1412.9688 850.3276,1412.9688 850.3276,1402.9688 L850.3276,1376.9688" fill="#E2E2F0" style="stroke:#181818;stroke-width:1.5;"/><path d="M850.3276,1376.9688 C850.3276,1386.9688 868.3276,1386.9688 868.3276,1386.9688 C868.3276,1386.9688 886.3276,1386.9688 886.3276,1376.9688" fill="none" style="stroke:#181818;stroke-width:1.5;"/></g><g><title>&#12502;&#12521;&#12454;&#12470;</title><rect fill="#FFFFFF" height="1142.4375" style="stroke:#181818;stroke-width:1;" width="10" x="283" y="197.9219"/></g><g><title>API Routes</title><rect fill="#FFFFFF" height="607.9219" style="stroke:#181818;stroke-width:1;" width="10" x="486" y="620.3828"/></g><g><title>DiagramService</title><rect fill="#FFFFFF" height="530.8672" style="stroke:#181818;stroke-width:1;" width="10" x="650.0889" y="650.7344"/></g><g><title>Supabase Storage</title><rect fill="#FFFFFF" height="30.3516" style="stroke:#181818;stroke-width:1;" width="10" x="863.3276" y="697.4375"/></g><g><title>Supabase Storage</title><rect fill="#FFFFFF" height="99.4063" style="stroke:#181818;stroke-width:1;" width="10" x="863.3276" y="1051.8438"/></g><rect fill="#EEEEEE" height="3" rx="5" ry="5" style="stroke:#EEEEEE;stroke-width:1;" width="976.9409" x="0" y="152.3945"/><line style="stroke:#000000;stroke-width:1;" x1="0" x2="976.9409" y1="152.3945" y2="152.3945"/><line style="stroke:#000000;stroke-width:1;" x1="0" x2="976.9409" y1="155.3945" y2="155.3945"/><rect fill="#EEEEEE" height="24.3516" rx="5" ry="5" style="stroke:#000000;stroke-width:2;" width="186.4277" x="395.2566" y="141.2188"/><text fill="#000000" font-family="sans-serif" font-size="13" font-weight="bold" lengthAdjust="spacing" textLength="168.8159" x="401.2566" y="158.7139">&#21069;&#25552;: &#12503;&#12525;&#12472;&#12455;&#12463;&#12488;&#36984;&#25246;&#28168;&#12415;</text><g class="message" data-participant-1="User" data-participant-2="Browser"><polygon fill="#181818" points="271,193.9219,281,197.9219,271,201.9219,275,197.9219" style="stroke:#181818;stroke-width:1;"/><line style="stroke:#181818;stroke-width:2;" x1="82" x2="277" y1="197.9219" y2="197.9219"/><text fill="#000000" font-family="sans-serif" font-size="13" lengthAdjust="spacing" textLength="182" x="89" y="193.0654">&#12300;&#26032;&#35215;&#22259;&#34920;&#12301;&#12508;&#12479;&#12531;&#12434;&#12463;&#12522;&#12483;&#12463;</text></g><g class="message" data-participant-1="Browser" data-participant-2="Browser"><line style="stroke:#181818;stroke-width:2;" x1="293" x2="335" y1="228.2734" y2="228.2734"/><line style="stroke:#181818;stroke-width:2;" x1="335" x2="335" y1="228.2734" y2="241.2734"/><line style="stroke:#181818;stroke-width:2;" x1="294" x2="335" y1="241.2734" y2="241.2734"/><polygon fill="#181818" points="304,237.2734,294,241.2734,304,245.2734,300,241.2734" style="stroke:#181818;stroke-width:1;"/><text fill="#000000" font-family="sans-serif" font-size="13" lengthAdjust="spacing" textLength="143" x="300" y="223.417">&#22259;&#34920;&#20316;&#25104;&#12480;&#12452;&#12450;&#12525;&#12464;&#34920;&#31034;</text></g><path d="M163,259.2734 L163,324.2734 A5,5 0 0 0 168,329.2734 L407,329.2734 A5,5 0 0 0 412,324.2734 L412,264.2734 L402,254.2734 L168,254.2734 A5,5 0 0 0 163,259.2734" fill="#FFFDE7" style="stroke:#FBC02D;stroke-width:0.5;"/><path d="M402,254.2734 L402,261.7734 A2.5,2.5 0 0 0 404.5,264.2734 L412,264.2734 L402,254.2734" fill="#FFFDE7" style="stroke:#FBC02D;stroke-width:0.5;"/><text fill="#000000" font-family="sans-serif" font-size="13" font-weight="bold" lengthAdjust="spacing" textLength="53.625" x="169" y="272.7686">&#20837;&#21147;&#38917;&#30446;</text><text fill="#000000" font-family="sans-serif" font-size="13" lengthAdjust="spacing" textLength="105.4536" x="169" y="289.1201">1. &#22259;&#34920;&#21517;&#65288;&#24517;&#38920;&#65289;</text><text fill="#000000" font-family="sans-serif" font-size="13" lengthAdjust="spacing" textLength="228.998" x="169" y="305.4717">2. &#22259;&#34920;&#12479;&#12452;&#12503;&#65288;PlantUML/Excalidraw&#65289;</text><text fill="#000000" font-family="sans-serif" font-size="13" lengthAdjust="spacing" textLength="187.0654" x="169" y="321.8232">3. &#20316;&#25104;&#26041;&#27861;&#65288;&#31354;/&#12486;&#12531;&#12503;&#12524;&#12540;&#12488;&#65289;</text><g class="message" data-participant-1="User" data-participant-2="Browser"><polygon fill="#181818" points="271,369.3828,281,373.3828,271,377.3828,275,373.3828" style="stroke:#181818;stroke-width:1;"/><line style="stroke:#181818;stroke-width:2;" x1="82" x2="277" y1="373.3828" y2="373.3828"/><text fill="#000000" font-family="sans-serif" font-size="13" lengthAdjust="spacing" textLength="78" x="89" y="352.1748">&#22259;&#34920;&#21517;&#12434;&#20837;&#21147;</text><text fill="#000000" font-family="sans-serif" font-size="13" lengthAdjust="spacing" textLength="7.5918" x="89" y="368.5264">+</text><text fill="#000000" font-family="sans-serif" font-size="13" lengthAdjust="spacing" textLength="3.6118" x="96.5918" y="368.5264">&#160;</text><text fill="#000000" font-family="sans-serif" font-size="13" lengthAdjust="spacing" textLength="78" x="100.2036" y="368.5264">&#12479;&#12452;&#12503;&#12434;&#36984;&#25246;</text></g><g class="message" data-participant-1="Browser" data-participant-2="Browser"><line style="stroke:#181818;stroke-width:2;" x1="293" x2="335" y1="403.7344" y2="403.7344"/><line style="stroke:#181818;stroke-width:2;" x1="335" x2="335" y1="403.7344" y2="416.7344"/><line style="stroke:#181818;stroke-width:2;" x1="294" x2="335" y1="416.7344" y2="416.7344"/><polygon fill="#181818" points="304,412.7344,294,416.7344,304,420.7344,300,416.7344" style="stroke:#181818;stroke-width:1;"/><text fill="#000000" font-family="sans-serif" font-size="13" lengthAdjust="spacing" textLength="169" x="300" y="398.8779">&#12463;&#12521;&#12452;&#12450;&#12531;&#12488;&#12496;&#12522;&#12487;&#12540;&#12471;&#12519;&#12531;</text></g><path d="M206,434.7344 L206,499.7344 A5,5 0 0 0 211,504.7344 L364,504.7344 A5,5 0 0 0 369,499.7344 L369,439.7344 L359,429.7344 L211,429.7344 A5,5 0 0 0 206,434.7344" fill="#FFFDE7" style="stroke:#FBC02D;stroke-width:0.5;"/><path d="M359,429.7344 L359,437.2344 A2.5,2.5 0 0 0 361.5,439.7344 L369,439.7344 L359,429.7344" fill="#FFFDE7" style="stroke:#FBC02D;stroke-width:0.5;"/><text fill="#000000" font-family="sans-serif" font-size="13" font-weight="bold" lengthAdjust="spacing" textLength="134.0625" x="212" y="448.2295">&#12496;&#12522;&#12487;&#12540;&#12471;&#12519;&#12531;&#12523;&#12540;&#12523;</text><text fill="#000000" font-family="sans-serif" font-size="13" lengthAdjust="spacing" textLength="72.9409" x="212" y="464.5811">- &#31354;&#25991;&#23383;&#19981;&#21487;</text><text fill="#000000" font-family="sans-serif" font-size="13" lengthAdjust="spacing" textLength="75.8608" x="212" y="480.9326">- 1&#12316;100&#25991;&#23383;</text><text fill="#000000" font-family="sans-serif" font-size="13" lengthAdjust="spacing" textLength="142.3589" x="212" y="497.2842">- &#31105;&#27490;&#25991;&#23383;: &lt; &gt; : " / \ | ? *</text><path d="M15,517.1406 L70.1709,517.1406 L70.1709,525.4922 L60.1709,535.4922 L10,535.4922 L10,522.1406 A5,5 0 0 1 15,517.1406" fill="#EEEEEE" style="stroke:#000000;stroke-width:1.5;"/><rect fill="none" height="816.2188" rx="5" ry="5" style="stroke:#000000;stroke-width:1.5;" width="956.9409" x="10" y="517.1406"/><text fill="#000000" font-family="sans-serif" font-size="13" font-weight="bold" lengthAdjust="spacing" textLength="15.1709" x="25" y="531.6357">alt</text><text fill="#000000" font-family="sans-serif" font-size="11" font-weight="bold" lengthAdjust="spacing" textLength="120.7637" x="85.1709" y="530.5596">[&#12496;&#12522;&#12487;&#12540;&#12471;&#12519;&#12531;&#12456;&#12521;&#12540;]</text><g class="message" data-participant-1="Browser" data-participant-2="User"><polygon fill="#181818" points="93,553.8438,83,557.8438,93,561.8438,89,557.8438" style="stroke:#181818;stroke-width:1;"/><line style="stroke:#181818;stroke-width:2;stroke-dasharray:2.0,2.0;" x1="87" x2="282" y1="557.8438" y2="557.8438"/><text fill="#000000" font-family="sans-serif" font-size="13" lengthAdjust="spacing" textLength="130" x="99" y="552.9873">&#12456;&#12521;&#12540;&#12513;&#12483;&#12475;&#12540;&#12472;&#34920;&#31034;</text></g><line style="stroke:#000000;stroke-width:1;stroke-dasharray:2.0,2.0;" x1="10" x2="966.9409" y1="566.8438" y2="566.8438"/><text fill="#000000" font-family="sans-serif" font-size="11" font-weight="bold" lengthAdjust="spacing" textLength="103.2324" x="15" y="578.2627">[&#12496;&#12522;&#12487;&#12540;&#12471;&#12519;&#12531;OK]</text><g class="message" data-participant-1="Browser" data-participant-2="APIRoutes"><polygon fill="#181818" points="474,616.3828,484,620.3828,474,624.3828,478,620.3828" style="stroke:#181818;stroke-width:1;"/><line style="stroke:#181818;stroke-width:2;" x1="293" x2="480" y1="620.3828" y2="620.3828"/><text fill="#000000" font-family="sans-serif" font-size="13" lengthAdjust="spacing" textLength="35.3945" x="300" y="599.1748">POST</text><text fill="#000000" font-family="sans-serif" font-size="13" lengthAdjust="spacing" textLength="3.6118" x="335.3945" y="599.1748">&#160;</text><text fill="#000000" font-family="sans-serif" font-size="13" lengthAdjust="spacing" textLength="78.0381" x="339.0063" y="599.1748">/api/diagrams</text><text fill="#000000" font-family="sans-serif" font-size="13" lengthAdjust="spacing" textLength="4.3418" x="300" y="615.5264">{</text><text fill="#000000" font-family="sans-serif" font-size="13" lengthAdjust="spacing" textLength="3.6118" x="304.3418" y="615.5264">&#160;</text><text fill="#000000" font-family="sans-serif" font-size="13" lengthAdjust="spacing" textLength="53.4727" x="307.9536" y="615.5264">projectId,</text><text fill="#000000" font-family="sans-serif" font-size="13" lengthAdjust="spacing" textLength="3.6118" x="361.4263" y="615.5264">&#160;</text><text fill="#000000" font-family="sans-serif" font-size="13" lengthAdjust="spacing" textLength="36.1309" x="365.0381" y="615.5264">name,</text><text fill="#000000" font-family="sans-serif" font-size="13" lengthAdjust="spacing" textLength="3.6118" x="401.1689" y="615.5264">&#160;</text><text fill="#000000" font-family="sans-serif" font-size="13" lengthAdjust="spacing" textLength="24.5718" x="404.7808" y="615.5264">type</text><text fill="#000000" font-family="sans-serif" font-size="13" lengthAdjust="spacing" textLength="3.6118" x="429.3525" y="615.5264">&#160;</text><text fill="#000000" font-family="sans-serif" font-size="13" lengthAdjust="spacing" textLength="4.3418" x="432.9644" y="615.5264">}</text></g><g class="message" data-participant-1="APIRoutes" data-participant-2="DiagramService"><polygon fill="#181818" points="638.0889,646.7344,648.0889,650.7344,638.0889,654.7344,642.0889,650.7344" style="stroke:#181818;stroke-width:1;"/><line style="stroke:#181818;stroke-width:2;" x1="496" x2="644.0889" y1="650.7344" y2="650.7344"/><text fill="#000000" font-family="sans-serif" font-size="13" lengthAdjust="spacing" textLength="111.9854" x="503" y="645.8779">createDiagram(dto)</text></g><g class="message" data-participant-1="DiagramService" data-participant-2="Storage"><polygon fill="#181818" points="851.3276,693.4375,861.3276,697.4375,851.3276,701.4375,855.3276,697.4375" style="stroke:#181818;stroke-width:1;"/><line style="stroke:#181818;stroke-width:2;" x1="660.0889" x2="857.3276" y1="697.4375" y2="697.4375"/><text fill="#000000" font-family="sans-serif" font-size="13" lengthAdjust="spacing" textLength="49.8481" x="667.0889" y="676.2295">list(path)</text><text fill="#000000" font-family="sans-serif" font-size="13" lengthAdjust="spacing" textLength="78" x="667.0889" y="692.5811">&#37325;&#35079;&#12481;&#12455;&#12483;&#12463;</text></g><g class="message" data-participant-1="Storage" data-participant-2="DiagramService"><polygon fill="#181818" points="671.0889,723.7891,661.0889,727.7891,671.0889,731.7891,667.0889,727.7891" style="stroke:#181818;stroke-width:1;"/><line style="stroke:#181818;stroke-width:2;stroke-dasharray:2.0,2.0;" x1="665.0889" x2="867.3276" y1="727.7891" y2="727.7891"/><text fill="#000000" font-family="sans-serif" font-size="13" lengthAdjust="spacing" textLength="78" x="677.0889" y="722.9326">&#12501;&#12449;&#12452;&#12523;&#19968;&#35239;</text></g><path d="M25,742.7891 L80.1709,742.7891 L80.1709,751.1406 L70.1709,761.1406 L20,761.1406 L20,747.7891 A5,5 0 0 1 25,742.7891" fill="#EEEEEE" style="stroke:#000000;stroke-width:1.5;"/><rect fill="none" height="583.5703" rx="5" ry="5" style="stroke:#000000;stroke-width:1.5;" width="936.9409" x="20" y="742.7891"/><text fill="#000000" font-family="sans-serif" font-size="13" font-weight="bold" lengthAdjust="spacing" textLength="15.1709" x="35" y="757.2842">alt</text><text fill="#000000" font-family="sans-serif" font-size="11" font-weight="bold" lengthAdjust="spacing" textLength="98.0762" x="95.1709" y="756.208">[&#21516;&#21517;&#12501;&#12449;&#12452;&#12523;&#23384;&#22312;]</text><g class="message" data-participant-1="DiagramService" data-participant-2="APIRoutes"><polygon fill="#181818" points="507,779.4922,497,783.4922,507,787.4922,503,783.4922" style="stroke:#181818;stroke-width:1;"/><line style="stroke:#181818;stroke-width:2;stroke-dasharray:2.0,2.0;" x1="501" x2="649.0889" y1="783.4922" y2="783.4922"/><text fill="#000000" font-family="sans-serif" font-size="13" lengthAdjust="spacing" textLength="102.5845" x="513" y="778.6357">ConflictError(409)</text></g><g class="message" data-participant-1="APIRoutes" data-participant-2="Browser"><polygon fill="#181818" points="304,826.1953,294,830.1953,304,834.1953,300,830.1953" style="stroke:#181818;stroke-width:1;"/><line style="stroke:#181818;stroke-width:2;stroke-dasharray:2.0,2.0;" x1="298" x2="485" y1="830.1953" y2="830.1953"/><text fill="#000000" font-family="sans-serif" font-size="13" lengthAdjust="spacing" textLength="21.6899" x="310" y="808.9873">409</text><text fill="#000000" font-family="sans-serif" font-size="13" lengthAdjust="spacing" textLength="3.6118" x="331.6899" y="808.9873">&#160;</text><text fill="#000000" font-family="sans-serif" font-size="13" lengthAdjust="spacing" textLength="43.3481" x="335.3018" y="808.9873">Conflict</text><text fill="#000000" font-family="sans-serif" font-size="13" lengthAdjust="spacing" textLength="169" x="310" y="825.3389">&#12300;&#21516;&#21517;&#12398;&#22259;&#34920;&#12364;&#23384;&#22312;&#12375;&#12414;&#12377;&#12301;</text></g><g class="message" data-participant-1="Browser" data-participant-2="User"><polygon fill="#181818" points="93,856.5469,83,860.5469,93,864.5469,89,860.5469" style="stroke:#181818;stroke-width:1;"/><line style="stroke:#181818;stroke-width:2;stroke-dasharray:2.0,2.0;" x1="87" x2="282" y1="860.5469" y2="860.5469"/><text fill="#000000" font-family="sans-serif" font-size="13" lengthAdjust="spacing" textLength="65" x="99" y="855.6904">&#12456;&#12521;&#12540;&#34920;&#31034;</text></g><line style="stroke:#000000;stroke-width:1;stroke-dasharray:2.0,2.0;" x1="20" x2="956.9409" y1="869.5469" y2="869.5469"/><text fill="#000000" font-family="sans-serif" font-size="11" font-weight="bold" lengthAdjust="spacing" textLength="52.7012" x="25" y="880.9658">[&#37325;&#35079;&#12394;&#12375;]</text><g class="message" data-participant-1="DiagramService" data-participant-2="DiagramService"><line style="stroke:#181818;stroke-width:2;" x1="660.0889" x2="702.0889" y1="923.0859" y2="923.0859"/><line style="stroke:#181818;stroke-width:2;" x1="702.0889" x2="702.0889" y1="923.0859" y2="936.0859"/><line style="stroke:#181818;stroke-width:2;" x1="661.0889" x2="702.0889" y1="936.0859" y2="936.0859"/><polygon fill="#181818" points="671.0889,932.0859,661.0889,936.0859,671.0889,940.0859,667.0889,936.0859" style="stroke:#181818;stroke-width:1;"/><text fill="#000000" font-family="sans-serif" font-size="13" lengthAdjust="spacing" textLength="104" x="667.0889" y="901.8779">&#12501;&#12449;&#12452;&#12523;&#12497;&#12473;&#29983;&#25104;</text><text fill="#000000" font-family="sans-serif" font-size="13" lengthAdjust="spacing" textLength="179.2388" x="667.0889" y="918.2295">{user_id}/{project}/{name}.puml</text></g><path d="M505,954.0859 L505,1019.0859 A5,5 0 0 0 510,1024.0859 L799,1024.0859 A5,5 0 0 0 804,1019.0859 L804,959.0859 L794,949.0859 L510,949.0859 A5,5 0 0 0 505,954.0859" fill="#FFFDE7" style="stroke:#FBC02D;stroke-width:0.5;"/><path d="M794,949.0859 L794,956.5859 A2.5,2.5 0 0 0 796.5,959.0859 L804,959.0859 L794,949.0859" fill="#FFFDE7" style="stroke:#FBC02D;stroke-width:0.5;"/><text fill="#000000" font-family="sans-serif" font-size="13" font-weight="bold" lengthAdjust="spacing" textLength="159.0088" x="511" y="967.5811">TD-006: Storage Only&#27083;&#25104;</text><text fill="#000000" font-family="sans-serif" font-size="13" lengthAdjust="spacing" textLength="278.2305" x="511" y="983.9326">&#12497;&#12473;: /{user_id}/{project_name}/{diagram_name}</text><text fill="#000000" font-family="sans-serif" font-size="13" lengthAdjust="spacing" textLength="104.0317" x="511" y="1000.2842">- PlantUML: .puml</text><text fill="#000000" font-family="sans-serif" font-size="13" lengthAdjust="spacing" textLength="170.5044" x="511" y="1016.6357">- Excalidraw: .excalidraw.json</text><g class="message" data-participant-1="DiagramService" data-participant-2="Storage"><polygon fill="#181818" points="851.3276,1047.8438,861.3276,1051.8438,851.3276,1055.8438,855.3276,1051.8438" style="stroke:#181818;stroke-width:1;"/><line style="stroke:#181818;stroke-width:2;" x1="660.0889" x2="857.3276" y1="1051.8438" y2="1051.8438"/><text fill="#000000" font-family="sans-serif" font-size="13" lengthAdjust="spacing" textLength="72.2808" x="667.0889" y="1046.9873">upload(path,</text><text fill="#000000" font-family="sans-serif" font-size="13" lengthAdjust="spacing" textLength="3.6118" x="739.3696" y="1046.9873">&#160;</text><text fill="#000000" font-family="sans-serif" font-size="13" lengthAdjust="spacing" textLength="79.4854" x="742.9814" y="1046.9873">initialContent)</text></g><path d="M788,1069.8438 L788,1118.8438 A5,5 0 0 0 793,1123.8438 L941,1123.8438 A5,5 0 0 0 946,1118.8438 L946,1074.8438 L936,1064.8438 L793,1064.8438 A5,5 0 0 0 788,1069.8438" fill="#FFFDE7" style="stroke:#FBC02D;stroke-width:0.5;"/><path d="M936,1064.8438 L936,1072.3438 A2.5,2.5 0 0 0 938.5,1074.8438 L946,1074.8438 L936,1064.8438" fill="#FFFDE7" style="stroke:#FBC02D;stroke-width:0.5;"/><text fill="#000000" font-family="sans-serif" font-size="13" font-weight="bold" lengthAdjust="spacing" textLength="94.7197" x="794" y="1083.3389">RLS Policy&#36969;&#29992;</text><text fill="#000000" font-family="sans-serif" font-size="13" lengthAdjust="spacing" textLength="120.3135" x="794" y="1099.6904">- user_id = auth.uid()</text><text fill="#000000" font-family="sans-serif" font-size="13" lengthAdjust="spacing" textLength="137.9409" x="794" y="1116.042">- &#25152;&#26377;&#32773;&#12398;&#12415;&#26360;&#12365;&#36796;&#12415;&#21487;</text><g class="message" data-participant-1="Storage" data-participant-2="DiagramService"><polygon fill="#181818" points="671.0889,1147.25,661.0889,1151.25,671.0889,1155.25,667.0889,1151.25" style="stroke:#181818;stroke-width:1;"/><line style="stroke:#181818;stroke-width:2;stroke-dasharray:2.0,2.0;" x1="665.0889" x2="867.3276" y1="1151.25" y2="1151.25"/><text fill="#000000" font-family="sans-serif" font-size="13" lengthAdjust="spacing" textLength="52" x="677.0889" y="1146.3936">&#20445;&#23384;&#25104;&#21151;</text></g><g class="message" data-participant-1="DiagramService" data-participant-2="APIRoutes"><polygon fill="#181818" points="507,1177.6016,497,1181.6016,507,1185.6016,503,1181.6016" style="stroke:#181818;stroke-width:1;"/><line style="stroke:#181818;stroke-width:2;stroke-dasharray:2.0,2.0;" x1="501" x2="654.0889" y1="1181.6016" y2="1181.6016"/><text fill="#000000" font-family="sans-serif" font-size="13" lengthAdjust="spacing" textLength="4.3418" x="513" y="1176.7451">{</text><text fill="#000000" font-family="sans-serif" font-size="13" lengthAdjust="spacing" textLength="3.6118" x="517.3418" y="1176.7451">&#160;</text><text fill="#000000" font-family="sans-serif" font-size="13" lengthAdjust="spacing" textLength="13.73" x="520.9536" y="1176.7451">id,</text><text fill="#000000" font-family="sans-serif" font-size="13" lengthAdjust="spacing" textLength="3.6118" x="534.6836" y="1176.7451">&#160;</text><text fill="#000000" font-family="sans-serif" font-size="13" lengthAdjust="spacing" textLength="36.1309" x="538.2954" y="1176.7451">name,</text><text fill="#000000" font-family="sans-serif" font-size="13" lengthAdjust="spacing" textLength="3.6118" x="574.4263" y="1176.7451">&#160;</text><text fill="#000000" font-family="sans-serif" font-size="13" lengthAdjust="spacing" textLength="28.1836" x="578.0381" y="1176.7451">type,</text><text fill="#000000" font-family="sans-serif" font-size="13" lengthAdjust="spacing" textLength="3.6118" x="606.2217" y="1176.7451">&#160;</text><text fill="#000000" font-family="sans-serif" font-size="13" lengthAdjust="spacing" textLength="25.3018" x="609.8335" y="1176.7451">path</text><text fill="#000000" font-family="sans-serif" font-size="13" lengthAdjust="spacing" textLength="3.6118" x="635.1353" y="1176.7451">&#160;</text><text fill="#000000" font-family="sans-serif" font-size="13" lengthAdjust="spacing" textLength="4.3418" x="638.7471" y="1176.7451">}</text></g><g class="message" data-participant-1="APIRoutes" data-participant-2="Browser"><polygon fill="#181818" points="304,1224.3047,294,1228.3047,304,1232.3047,300,1228.3047" style="stroke:#181818;stroke-width:1;"/><line style="stroke:#181818;stroke-width:2;stroke-dasharray:2.0,2.0;" x1="298" x2="490" y1="1228.3047" y2="1228.3047"/><text fill="#000000" font-family="sans-serif" font-size="13" lengthAdjust="spacing" textLength="21.6899" x="310" y="1207.0967">201</text><text fill="#000000" font-family="sans-serif" font-size="13" lengthAdjust="spacing" textLength="3.6118" x="331.6899" y="1207.0967">&#160;</text><text fill="#000000" font-family="sans-serif" font-size="13" lengthAdjust="spacing" textLength="46.249" x="335.3018" y="1207.0967">Created</text><text fill="#000000" font-family="sans-serif" font-size="13" lengthAdjust="spacing" textLength="4.3418" x="310" y="1223.4482">{</text><text fill="#000000" font-family="sans-serif" font-size="13" lengthAdjust="spacing" textLength="3.6118" x="314.3418" y="1223.4482">&#160;</text><text fill="#000000" font-family="sans-serif" font-size="13" lengthAdjust="spacing" textLength="46.9663" x="317.9536" y="1223.4482">diagram</text><text fill="#000000" font-family="sans-serif" font-size="13" lengthAdjust="spacing" textLength="3.6118" x="364.9199" y="1223.4482">&#160;</text><text fill="#000000" font-family="sans-serif" font-size="13" lengthAdjust="spacing" textLength="4.3418" x="368.5317" y="1223.4482">}</text></g><g class="message" data-participant-1="Browser" data-participant-2="Browser"><line style="stroke:#181818;stroke-width:2;" x1="293" x2="335" y1="1258.6563" y2="1258.6563"/><line style="stroke:#181818;stroke-width:2;" x1="335" x2="335" y1="1258.6563" y2="1271.6563"/><line style="stroke:#181818;stroke-width:2;" x1="294" x2="335" y1="1271.6563" y2="1271.6563"/><polygon fill="#181818" points="304,1267.6563,294,1271.6563,304,1275.6563,300,1271.6563" style="stroke:#181818;stroke-width:1;"/><text fill="#000000" font-family="sans-serif" font-size="13" lengthAdjust="spacing" textLength="117" x="300" y="1253.7998">&#12456;&#12487;&#12451;&#12479;&#30011;&#38754;&#12395;&#36983;&#31227;</text></g><g class="message" data-participant-1="Browser" data-participant-2="User"><polygon fill="#181818" points="93,1314.3594,83,1318.3594,93,1322.3594,89,1318.3594" style="stroke:#181818;stroke-width:1;"/><line style="stroke:#181818;stroke-width:2;stroke-dasharray:2.0,2.0;" x1="87" x2="282" y1="1318.3594" y2="1318.3594"/><text fill="#000000" font-family="sans-serif" font-size="13" lengthAdjust="spacing" textLength="78" x="99" y="1297.1514">&#12456;&#12487;&#12451;&#12479;&#34920;&#31034;</text><text fill="#000000" font-family="sans-serif" font-size="13" lengthAdjust="spacing" textLength="76.5781" x="99" y="1313.5029">(&#31354;&#12398;Monaco</text><text fill="#000000" font-family="sans-serif" font-size="13" lengthAdjust="spacing" textLength="3.6118" x="175.5781" y="1313.5029">&#160;</text><text fill="#000000" font-family="sans-serif" font-size="13" lengthAdjust="spacing" textLength="38.2891" x="179.1899" y="1313.5029">Editor)</text></g><!--SRC=[dLPjJzjM5FxkNt74FW0PUOEfrQBH2G9CrSf01RuXLLxiWOknCyTfonXIR8ln6i4g2gkWesKKGXbjfqfh2hJyc8kTv5F_mewl7ME7X6vpfCY-FkUvvppdEUUwkVC_Nqmp4FqjCKw9_XSntX3zdRdv9W7uLtvMiDPVb_TMpjzlMVEhn7X4Z2CqH8-H97I4uwuHqH-w5jfZeY_XQtFxs3fUJu3r_CXSUkmveZbqHE9jO1ributtvyLSUMyV0Q0ltFDDVpWMHrThTwjSE4r0KfPK_e5w7VgJWn26GP6Lr97-Mp34_vZbfHGFFG8xfh2JJFF_I9d9J0XIcaLtoBXuNOeYtnyU5r8J4f_9GBlFH96p4fUI5ObN81xplPXa7qoYCJl6PuIVU6YFnVp8-AyAAI6DWSCq0tXriwc9COgMb4LPWS_wkkoVyqvME5vnrw_HYvdnmqcooZV4wUlhwRr-6QUlEnbhxx5nL44L-QkA-l5qtYdgnzC5Xc5JAlgFP31ZDWDDH2_OqZ0MYB57bV8t_ZSn_WoxaJxFt5WdnW7Hzz1mL6hv3kiOkPk1f2ZmajeQzEiQl7bRpgfyXdhY4pYFw1TbqqAKSygSgN5pgp_4A_S458Fj6rngOZXMPRzdCpmCOIvO8seqb4q75fiOfhCJp8MyjRAQ069is6peHQBl4_qLCUOhMj5Q_DqgpXFj36pbK4x2DxnyqIctx33gTaCkJumjef_HPdf8OLuGmy0RcrRX7ejrTBqPfWeJG7I0gWNA4NsNw3iqiDUuNjezPXYg1laUcbUX048XS_QvkRXPUJfRsdmP2k5IFEA2cQjvhB1vDbjvEczN6A0zuhNlcRs3iO46rJQBzZv8iQB0AUnznxeZ0auyrlexwyqZD2qT74U9yGlL1RBsfwqBWsBp4aVLMeyiBnganebsLFeSl11mrM6y0JEKpOCg8RZpF35MARzpL9Sun_PnlH4_TOs9SKXZFwICXG4JizRdpAEDysBUN7b5r-8ajnMFnPnrnsfFiuvsd8K4V0KtCBecYC8e_0nVGyX70YkgK7zZkwiEx85A6xUQBoOyKitMDI36CwgW4-fUT4N0YwZZkiW3tmOXR_ZQB0630qF346YkKMaQqefybq-fDxasaDX9lWtKgJGFCnJ8qwq7mz3r2rJSegOb4v1IUFHnbriuLMuDWWKT7CGQ48IjTcy2H26ZjgHPTRnrLAhCvSkxcBDcTwhJN05iruikLX72zOAq1w3-ZAhlq3cGg0_7Nu9oDi1YcglBje1zZkRHR-PMWHhKIwA6VppQVX25bDgBHuxIyaNiorRFqqTeGFTevBcDIZXnt1YqbsuFQyjE34JR8De7-o3EvJtKgwJbQiasetfoYTLU85B3X3x18p5-nS-8qjespWkKLXQtl2DmCz5fLsDuPqji9fBEJegCjyj5pzOe0xmh51hk2STYrn9UKGSaSShQNyATQFjMBoU414Glxtw7xXsTTiNlFFfSBpus4k14w7ztCHZnBUyzuFacIvxXHVCtPl12rzcqABCSLNOR29AW2gn8Ft_miFG0wiinI9jVz5M-RjyQWa4PTJDLqGvAQuK0Is5msO5EOBFgU2GhS2sj0GDh8MTjBPHpiwWrF0EjpIBHykKFftZl3CT66L_PTUTdJr2lM3HpSTlpQDHp_wAbfa48pAqsiDc4cNhOzSRELRtN7ej3aeuopfwJhcpgOzVCnveXx3_72lR8rl_0aw-qTb9viaEqmuhsjhH_yickTTsSniNF93oli3RziiIcPEZb1AJEAI7Mn3w66CONOFKq_0S0]--></g></svg>