<svg xmlns="http://www.w3.org/2000/svg" xmlns:xlink="http://www.w3.org/1999/xlink" contentStyleType="text/css" data-diagram-type="SEQUENCE" height="1021px" preserveAspectRatio="none" style="width:967px;height:1021px;background:#FFFFFF;" version="1.1" viewBox="0 0 967 1021" width="967px" zoomAndPan="magnify"><title>&#12503;&#12525;&#12472;&#12455;&#12463;&#12488;&#21066;&#38500;&#12501;&#12525;&#12540;&#65288;UC 2-4&#65289;</title><defs/><g><text fill="#000000" font-family="sans-serif" font-size="14" font-weight="bold" lengthAdjust="spacing" textLength="232.0322" x="363.4839" y="29.5332">&#12503;&#12525;&#12472;&#12455;&#12463;&#12488;&#21066;&#38500;&#12501;&#12525;&#12540;&#65288;UC 2-4&#65289;</text><g><title>&lt;u&gt;&#12502;&#12521;&#12454;&#12470;</title><rect fill="#FFFFFF" height="712.9766" style="stroke:#181818;stroke-width:1;" width="10" x="244.7827" y="201.5313"/></g><g><title>&lt;u&gt;Next.js</title><rect fill="#FFFFFF" height="30.3516" style="stroke:#181818;stroke-width:1;" width="10" x="498.5215" y="248.2344"/></g><g><title>&lt;u&gt;Next.js</title><rect fill="#FFFFFF" height="286.2188" style="stroke:#181818;stroke-width:1;" width="10" x="498.5215" y="539.5859"/></g><g><title>&lt;u&gt;ProjectService</title><rect fill="#FFFFFF" height="225.5156" style="stroke:#181818;stroke-width:1;" width="10" x="661.9204" y="569.9375"/></g><g><title>&lt;u&gt;Supabase</title><rect fill="#FFFFFF" height="148.4609" style="stroke:#181818;stroke-width:1;" width="10" x="840.5283" y="616.6406"/></g><rect fill="none" height="454.8125" rx="5" ry="5" style="stroke:#000000;stroke-width:1.5;" width="940" x="10" y="452.6953"/><g><title>&lt;u&gt;&#12456;&#12531;&#12489;&#12518;&#12540;&#12470;&#12540;</title><rect fill="#000000" fill-opacity="0.00000" height="799.6797" width="8" x="68" y="124.8281"/><line style="stroke:#181818;stroke-width:0.5;stroke-dasharray:5.0,5.0;" x1="72" x2="72" y1="124.8281" y2="924.5078"/></g><g><title>&lt;u&gt;&#12502;&#12521;&#12454;&#12470;</title><rect fill="#000000" fill-opacity="0.00000" height="799.6797" width="8" x="245.7827" y="124.8281"/><line style="stroke:#181818;stroke-width:0.5;stroke-dasharray:5.0,5.0;" x1="248.8862" x2="248.8862" y1="124.8281" y2="924.5078"/></g><g><title>&lt;u&gt;Next.js</title><rect fill="#000000" fill-opacity="0.00000" height="799.6797" width="8" x="499.5215" y="124.8281"/><line style="stroke:#181818;stroke-width:0.5;stroke-dasharray:5.0,5.0;" x1="503.1147" x2="503.1147" y1="124.8281" y2="924.5078"/></g><g><title>&lt;u&gt;ProjectService</title><rect fill="#000000" fill-opacity="0.00000" height="799.6797" width="8" x="662.9204" y="124.8281"/><line style="stroke:#181818;stroke-width:0.5;stroke-dasharray:5.0,5.0;" x1="666.793" x2="666.793" y1="124.8281" y2="924.5078"/></g><g><title>&lt;u&gt;Supabase</title><rect fill="#000000" fill-opacity="0.00000" height="799.6797" width="8" x="841.5283" y="124.8281"/><line style="stroke:#181818;stroke-width:0.5;stroke-dasharray:5.0,5.0;" x1="845.001" x2="845.001" y1="124.8281" y2="924.5078"/></g><g class="participant participant-head" data-participant="user"><text fill="#000000" font-family="sans-serif" font-size="14" lengthAdjust="spacing" text-decoration="underline" textLength="98" x="20" y="121.752">&#12456;&#12531;&#12489;&#12518;&#12540;&#12470;&#12540;</text><ellipse cx="72" cy="55.7188" fill="#E2E2F0" rx="8" ry="8" style="stroke:#181818;stroke-width:0.5;"/><path d="M72,63.7188 L72,90.7188 M59,71.7188 L85,71.7188 M72,90.7188 L59,105.7188 M72,90.7188 L85,105.7188" fill="none" style="stroke:#181818;stroke-width:0.5;"/></g><g class="participant participant-tail" data-participant="user"><text fill="#000000" font-family="sans-serif" font-size="14" lengthAdjust="spacing" text-decoration="underline" textLength="98" x="20" y="938.041">&#12456;&#12531;&#12489;&#12518;&#12540;&#12470;&#12540;</text><ellipse cx="72" cy="949.6172" fill="#E2E2F0" rx="8" ry="8" style="stroke:#181818;stroke-width:0.5;"/><path d="M72,957.6172 L72,984.6172 M59,965.6172 L85,965.6172 M72,984.6172 L59,999.6172 M72,984.6172 L85,999.6172" fill="none" style="stroke:#181818;stroke-width:0.5;"/></g><g class="participant participant-head" data-participant="browser"><rect fill="#E3F2FD" height="49.2188" rx="5" ry="5" style="stroke:#666666;stroke-width:0.5;" width="105.793" x="196.8862" y="74.6094"/><text fill="#000000" font-family="sans-serif" font-size="14" lengthAdjust="spacing" text-decoration="underline" textLength="56" x="221.7827" y="96.1426">&#12502;&#12521;&#12454;&#12470;</text><text fill="#000000" font-family="sans-serif" font-size="14" lengthAdjust="spacing" text-decoration="underline" textLength="91.793" x="203.8862" y="113.752">(Next.js Client)</text></g><g class="participant participant-tail" data-participant="browser"><rect fill="#E3F2FD" height="49.2188" rx="5" ry="5" style="stroke:#666666;stroke-width:0.5;" width="105.793" x="196.8862" y="923.5078"/><text fill="#000000" font-family="sans-serif" font-size="14" lengthAdjust="spacing" text-decoration="underline" textLength="56" x="221.7827" y="945.041">&#12502;&#12521;&#12454;&#12470;</text><text fill="#000000" font-family="sans-serif" font-size="14" lengthAdjust="spacing" text-decoration="underline" textLength="91.793" x="203.8862" y="962.6504">(Next.js Client)</text></g><g class="participant participant-head" data-participant="api"><rect fill="#FFF3E0" height="49.2188" rx="5" ry="5" style="stroke:#666666;stroke-width:0.5;" width="84.8135" x="461.1147" y="74.6094"/><text fill="#000000" font-family="sans-serif" font-size="14" lengthAdjust="spacing" text-decoration="underline" textLength="42.7861" x="482.1284" y="96.1426">Next.js</text><text fill="#000000" font-family="sans-serif" font-size="14" lengthAdjust="spacing" text-decoration="underline" textLength="70.8135" x="468.1147" y="113.752">API Routes</text></g><g class="participant participant-tail" data-participant="api"><rect fill="#FFF3E0" height="49.2188" rx="5" ry="5" style="stroke:#666666;stroke-width:0.5;" width="84.8135" x="461.1147" y="923.5078"/><text fill="#000000" font-family="sans-serif" font-size="14" lengthAdjust="spacing" text-decoration="underline" textLength="42.7861" x="482.1284" y="945.041">Next.js</text><text fill="#000000" font-family="sans-serif" font-size="14" lengthAdjust="spacing" text-decoration="underline" textLength="70.8135" x="468.1147" y="962.6504">API Routes</text></g><g class="participant participant-head" data-participant="service"><rect fill="#E8F5E9" height="31.6094" rx="5" ry="5" style="stroke:#666666;stroke-width:0.5;" width="104.2549" x="614.793" y="92.2188"/><text fill="#000000" font-family="sans-serif" font-size="14" lengthAdjust="spacing" text-decoration="underline" textLength="90.2549" x="621.793" y="113.752">ProjectService</text></g><g class="participant participant-tail" data-participant="service"><rect fill="#E8F5E9" height="31.6094" rx="5" ry="5" style="stroke:#666666;stroke-width:0.5;" width="104.2549" x="614.793" y="923.5078"/><text fill="#000000" font-family="sans-serif" font-size="14" lengthAdjust="spacing" text-decoration="underline" textLength="90.2549" x="621.793" y="945.041">ProjectService</text></g><g class="participant participant-head" data-participant="storage"><text fill="#000000" font-family="sans-serif" font-size="14" lengthAdjust="spacing" text-decoration="underline" textLength="63.0547" x="811.001" y="104.1426">Supabase</text><text fill="#000000" font-family="sans-serif" font-size="14" lengthAdjust="spacing" text-decoration="underline" textLength="49.0342" x="818.0112" y="121.752">Storage</text><path d="M827.5283,53.6094 C827.5283,43.6094 845.5283,43.6094 845.5283,43.6094 C845.5283,43.6094 863.5283,43.6094 863.5283,53.6094 L863.5283,79.6094 C863.5283,89.6094 845.5283,89.6094 845.5283,89.6094 C845.5283,89.6094 827.5283,89.6094 827.5283,79.6094 L827.5283,53.6094" fill="#FCE4EC" style="stroke:#181818;stroke-width:1.5;"/><path d="M827.5283,53.6094 C827.5283,63.6094 845.5283,63.6094 845.5283,63.6094 C845.5283,63.6094 863.5283,63.6094 863.5283,53.6094" fill="none" style="stroke:#181818;stroke-width:1.5;"/></g><g class="participant participant-tail" data-participant="storage"><text fill="#000000" font-family="sans-serif" font-size="14" lengthAdjust="spacing" text-decoration="underline" textLength="63.0547" x="811.001" y="938.041">Supabase</text><text fill="#000000" font-family="sans-serif" font-size="14" lengthAdjust="spacing" text-decoration="underline" textLength="49.0342" x="818.0112" y="955.6504">Storage</text><path d="M827.5283,968.7266 C827.5283,958.7266 845.5283,958.7266 845.5283,958.7266 C845.5283,958.7266 863.5283,958.7266 863.5283,968.7266 L863.5283,994.7266 C863.5283,1004.7266 845.5283,1004.7266 845.5283,1004.7266 C845.5283,1004.7266 827.5283,1004.7266 827.5283,994.7266 L827.5283,968.7266" fill="#FCE4EC" style="stroke:#181818;stroke-width:1.5;"/><path d="M827.5283,968.7266 C827.5283,978.7266 845.5283,978.7266 845.5283,978.7266 C845.5283,978.7266 863.5283,978.7266 863.5283,968.7266" fill="none" style="stroke:#181818;stroke-width:1.5;"/></g><g><title>&lt;u&gt;&#12502;&#12521;&#12454;&#12470;</title><rect fill="#FFFFFF" height="712.9766" style="stroke:#181818;stroke-width:1;" width="10" x="244.7827" y="201.5313"/></g><g><title>&lt;u&gt;Next.js</title><rect fill="#FFFFFF" height="30.3516" style="stroke:#181818;stroke-width:1;" width="10" x="498.5215" y="248.2344"/></g><g><title>&lt;u&gt;Next.js</title><rect fill="#FFFFFF" height="286.2188" style="stroke:#181818;stroke-width:1;" width="10" x="498.5215" y="539.5859"/></g><g><title>&lt;u&gt;ProjectService</title><rect fill="#FFFFFF" height="225.5156" style="stroke:#181818;stroke-width:1;" width="10" x="661.9204" y="569.9375"/></g><g><title>&lt;u&gt;Supabase</title><rect fill="#FFFFFF" height="148.4609" style="stroke:#181818;stroke-width:1;" width="10" x="840.5283" y="616.6406"/></g><rect fill="#EEEEEE" height="3" rx="5" ry="5" style="stroke:#EEEEEE;stroke-width:1;" width="960" x="0" y="156.0039"/><line style="stroke:#000000;stroke-width:1;" x1="0" x2="960" y1="156.0039" y2="156.0039"/><line style="stroke:#000000;stroke-width:1;" x1="0" x2="960" y1="159.0039" y2="159.0039"/><rect fill="#EEEEEE" height="24.3516" rx="5" ry="5" style="stroke:#000000;stroke-width:2;" width="151.6743" x="404.1628" y="144.8281"/><text fill="#000000" font-family="sans-serif" font-size="13" font-weight="bold" lengthAdjust="spacing" textLength="134.0625" x="410.1628" y="162.3232">&#12503;&#12525;&#12472;&#12455;&#12463;&#12488;&#21066;&#38500;&#38283;&#22987;</text><g class="message" data-participant-1="user" data-participant-2="browser"><polygon fill="#181818" points="232.7827,197.5313,242.7827,201.5313,232.7827,205.5313,236.7827,201.5313" style="stroke:#181818;stroke-width:1;"/><line style="stroke:#181818;stroke-width:2;" x1="72" x2="238.7827" y1="201.5313" y2="201.5313"/><text fill="#000000" font-family="sans-serif" font-size="13" lengthAdjust="spacing" textLength="130" x="79" y="196.6748">&#21066;&#38500;&#12508;&#12479;&#12531;&#12434;&#12463;&#12522;&#12483;&#12463;</text></g><g class="message" data-participant-1="browser" data-participant-2="api"><polygon fill="#181818" points="486.5215,244.2344,496.5215,248.2344,486.5215,252.2344,490.5215,248.2344" style="stroke:#181818;stroke-width:1;"/><line style="stroke:#181818;stroke-width:2;" x1="254.7827" x2="492.5215" y1="248.2344" y2="248.2344"/><text fill="#000000" font-family="sans-serif" font-size="13" lengthAdjust="spacing" textLength="26.7236" x="261.7827" y="227.0264">GET</text><text fill="#000000" font-family="sans-serif" font-size="13" lengthAdjust="spacing" textLength="224.7388" x="261.7827" y="243.3779">/api/projects/{projectId}/diagrams/count</text></g><g class="message" data-participant-1="api" data-participant-2="browser"><polygon fill="#181818" points="265.7827,274.5859,255.7827,278.5859,265.7827,282.5859,261.7827,278.5859" style="stroke:#181818;stroke-width:1;"/><line style="stroke:#181818;stroke-width:2;stroke-dasharray:2.0,2.0;" x1="259.7827" x2="502.5215" y1="278.5859" y2="278.5859"/><text fill="#000000" font-family="sans-serif" font-size="13" lengthAdjust="spacing" textLength="4.3418" x="271.7827" y="273.7295">{</text><text fill="#000000" font-family="sans-serif" font-size="13" lengthAdjust="spacing" textLength="3.6118" x="276.1245" y="273.7295">&#160;</text><text fill="#000000" font-family="sans-serif" font-size="13" lengthAdjust="spacing" textLength="35.4136" x="279.7363" y="273.7295">count:</text><text fill="#000000" font-family="sans-serif" font-size="13" lengthAdjust="spacing" textLength="3.6118" x="315.1499" y="273.7295">&#160;</text><text fill="#000000" font-family="sans-serif" font-size="13" lengthAdjust="spacing" textLength="9.3882" x="318.7617" y="273.7295">N</text><text fill="#000000" font-family="sans-serif" font-size="13" lengthAdjust="spacing" textLength="3.6118" x="328.1499" y="273.7295">&#160;</text><text fill="#000000" font-family="sans-serif" font-size="13" lengthAdjust="spacing" textLength="4.3418" x="331.7617" y="273.7295">}</text></g><g class="message" data-participant-1="browser" data-participant-2="browser"><line style="stroke:#181818;stroke-width:2;" x1="254.7827" x2="296.7827" y1="308.9375" y2="308.9375"/><line style="stroke:#181818;stroke-width:2;" x1="296.7827" x2="296.7827" y1="308.9375" y2="321.9375"/><line style="stroke:#181818;stroke-width:2;" x1="255.7827" x2="296.7827" y1="321.9375" y2="321.9375"/><polygon fill="#181818" points="265.7827,317.9375,255.7827,321.9375,265.7827,325.9375,261.7827,321.9375" style="stroke:#181818;stroke-width:1;"/><text fill="#000000" font-family="sans-serif" font-size="13" lengthAdjust="spacing" textLength="117" x="261.7827" y="304.0811">&#30906;&#35469;&#12480;&#12452;&#12450;&#12525;&#12464;&#34920;&#31034;</text></g><path d="M124,339.9375 L124,404.9375 A5,5 0 0 0 129,409.9375 L370,409.9375 A5,5 0 0 0 375,404.9375 L375,344.9375 L365,334.9375 L129,334.9375 A5,5 0 0 0 124,339.9375" fill="#FFFDE7" style="stroke:#FBC02D;stroke-width:0.5;"/><path d="M365,334.9375 L365,342.4375 A2.5,2.5 0 0 0 367.5,344.9375 L375,344.9375 L365,334.9375" fill="#FFFDE7" style="stroke:#FBC02D;stroke-width:0.5;"/><text fill="#000000" font-family="sans-serif" font-size="13" font-weight="bold" lengthAdjust="spacing" textLength="120.6563" x="130" y="353.4326">&#21066;&#38500;&#30906;&#35469;&#12480;&#12452;&#12450;&#12525;&#12464;</text><text fill="#000000" font-family="sans-serif" font-size="13" lengthAdjust="spacing" textLength="195" x="130" y="369.7842">&#12300;&#12371;&#12398;&#12503;&#12525;&#12472;&#12455;&#12463;&#12488;&#12434;&#21066;&#38500;&#12377;&#12427;&#12392;</text><text fill="#000000" font-family="sans-serif" font-size="13" lengthAdjust="spacing" textLength="230.3882" x="130" y="386.1357">&#12288;&#21547;&#12414;&#12428;&#12427;N&#20214;&#12398;&#22259;&#34920;&#12418;&#21066;&#38500;&#12373;&#12428;&#12414;&#12377;&#12290;</text><text fill="#000000" font-family="sans-serif" font-size="13" lengthAdjust="spacing" textLength="195" x="130" y="402.4873">&#12288;&#12371;&#12398;&#25805;&#20316;&#12399;&#21462;&#12426;&#28040;&#12379;&#12414;&#12379;&#12435;&#12290;&#12301;</text><g class="message" data-participant-1="user" data-participant-2="browser"><polygon fill="#181818" points="232.7827,433.6953,242.7827,437.6953,232.7827,441.6953,236.7827,437.6953" style="stroke:#181818;stroke-width:1;"/><line style="stroke:#181818;stroke-width:2;" x1="72" x2="238.7827" y1="437.6953" y2="437.6953"/><text fill="#000000" font-family="sans-serif" font-size="13" lengthAdjust="spacing" textLength="65" x="79" y="432.8389">&#21066;&#38500;&#12434;&#30906;&#35469;</text><text fill="#000000" font-family="sans-serif" font-size="13" lengthAdjust="spacing" textLength="3.6118" x="144" y="432.8389">&#160;</text><text fill="#000000" font-family="sans-serif" font-size="13" lengthAdjust="spacing" textLength="11.5591" x="147.6118" y="432.8389">or</text><text fill="#000000" font-family="sans-serif" font-size="13" lengthAdjust="spacing" textLength="3.6118" x="159.1709" y="432.8389">&#160;</text><text fill="#000000" font-family="sans-serif" font-size="13" lengthAdjust="spacing" textLength="65" x="162.7827" y="432.8389">&#12461;&#12515;&#12531;&#12475;&#12523;</text></g><path d="M15,452.6953 L70.1709,452.6953 L70.1709,461.0469 L60.1709,471.0469 L10,471.0469 L10,457.6953 A5,5 0 0 1 15,452.6953" fill="#EEEEEE" style="stroke:#000000;stroke-width:1.5;"/><rect fill="none" height="454.8125" rx="5" ry="5" style="stroke:#000000;stroke-width:1.5;" width="940" x="10" y="452.6953"/><text fill="#000000" font-family="sans-serif" font-size="13" font-weight="bold" lengthAdjust="spacing" textLength="15.1709" x="25" y="467.1904">alt</text><text fill="#000000" font-family="sans-serif" font-size="11" font-weight="bold" lengthAdjust="spacing" textLength="64.0449" x="85.1709" y="466.1143">[&#12461;&#12515;&#12531;&#12475;&#12523;]</text><g class="message" data-participant-1="browser" data-participant-2="user"><polygon fill="#181818" points="83,489.3984,73,493.3984,83,497.3984,79,493.3984" style="stroke:#181818;stroke-width:1;"/><line style="stroke:#181818;stroke-width:2;stroke-dasharray:2.0,2.0;" x1="77" x2="243.7827" y1="493.3984" y2="493.3984"/><text fill="#000000" font-family="sans-serif" font-size="13" lengthAdjust="spacing" textLength="91" x="89" y="488.542">&#19968;&#35239;&#30011;&#38754;&#12395;&#25147;&#12427;</text></g><line style="stroke:#000000;stroke-width:1;stroke-dasharray:2.0,2.0;" x1="10" x2="950" y1="502.3984" y2="502.3984"/><text fill="#000000" font-family="sans-serif" font-size="11" font-weight="bold" lengthAdjust="spacing" textLength="30.0137" x="15" y="513.8174">[&#30906;&#35469;]</text><g class="message" data-participant-1="browser" data-participant-2="api"><polygon fill="#181818" points="486.5215,535.5859,496.5215,539.5859,486.5215,543.5859,490.5215,539.5859" style="stroke:#181818;stroke-width:1;"/><line style="stroke:#181818;stroke-width:2;" x1="254.7827" x2="492.5215" y1="539.5859" y2="539.5859"/><text fill="#000000" font-family="sans-serif" font-size="13" lengthAdjust="spacing" textLength="50.5718" x="261.7827" y="534.7295">DELETE</text><text fill="#000000" font-family="sans-serif" font-size="13" lengthAdjust="spacing" textLength="3.6118" x="312.3545" y="534.7295">&#160;</text><text fill="#000000" font-family="sans-serif" font-size="13" lengthAdjust="spacing" textLength="132.2471" x="315.9663" y="534.7295">/api/projects/{projectId}</text></g><g class="message" data-participant-1="api" data-participant-2="service"><polygon fill="#181818" points="649.9204,565.9375,659.9204,569.9375,649.9204,573.9375,653.9204,569.9375" style="stroke:#181818;stroke-width:1;"/><line style="stroke:#181818;stroke-width:2;" x1="508.5215" x2="655.9204" y1="569.9375" y2="569.9375"/><text fill="#000000" font-family="sans-serif" font-size="13" lengthAdjust="spacing" textLength="134.3989" x="515.5215" y="565.0811">deleteProject(projectId)</text></g><g class="message" data-participant-1="service" data-participant-2="storage"><polygon fill="#181818" points="828.5283,612.6406,838.5283,616.6406,828.5283,620.6406,832.5283,616.6406" style="stroke:#181818;stroke-width:1;"/><line style="stroke:#181818;stroke-width:2;" x1="671.9204" x2="834.5283" y1="616.6406" y2="616.6406"/><text fill="#000000" font-family="sans-serif" font-size="13" lengthAdjust="spacing" textLength="104" x="678.9204" y="595.4326">&#12501;&#12457;&#12523;&#12480;&#20877;&#24112;&#21066;&#38500;</text><text fill="#000000" font-family="sans-serif" font-size="13" lengthAdjust="spacing" textLength="149.6079" x="678.9204" y="611.7842">/{user_id}/{project_name}/</text></g><path d="M750,634.6406 L750,732.6406 A5,5 0 0 0 755,737.6406 L935,737.6406 A5,5 0 0 0 940,732.6406 L940,639.6406 L930,629.6406 L755,629.6406 A5,5 0 0 0 750,634.6406" fill="#FFFDE7" style="stroke:#FBC02D;stroke-width:0.5;"/><path d="M930,629.6406 L930,637.1406 A2.5,2.5 0 0 0 932.5,639.6406 L940,639.6406 L930,629.6406" fill="#FFFDE7" style="stroke:#FBC02D;stroke-width:0.5;"/><text fill="#000000" font-family="sans-serif" font-size="13" font-weight="bold" lengthAdjust="spacing" textLength="93.8438" x="756" y="648.1357">&#12459;&#12473;&#12465;&#12540;&#12489;&#21066;&#38500;</text><text fill="#000000" font-family="sans-serif" font-size="13" lengthAdjust="spacing" textLength="169" x="756" y="664.4873">&#12503;&#12525;&#12472;&#12455;&#12463;&#12488;&#12501;&#12457;&#12523;&#12480;&#37197;&#19979;&#12398;</text><text fill="#000000" font-family="sans-serif" font-size="13" lengthAdjust="spacing" textLength="156" x="756" y="680.8389">&#20840;&#12501;&#12449;&#12452;&#12523;&#12434;&#20877;&#24112;&#30340;&#12395;&#21066;&#38500;</text><text fill="#000000" font-family="sans-serif" font-size="13" lengthAdjust="spacing" textLength="39.73" x="756" y="697.1904">- .puml</text><text fill="#000000" font-family="sans-serif" font-size="13" lengthAdjust="spacing" textLength="100.4263" x="756" y="713.542">- .excalidraw.json</text><text fill="#000000" font-family="sans-serif" font-size="13" lengthAdjust="spacing" textLength="80.1899" x="756" y="729.8936">- .preview.svg</text><g class="message" data-participant-1="storage" data-participant-2="service"><polygon fill="#181818" points="682.9204,761.1016,672.9204,765.1016,682.9204,769.1016,678.9204,765.1016" style="stroke:#181818;stroke-width:1;"/><line style="stroke:#181818;stroke-width:2;stroke-dasharray:2.0,2.0;" x1="676.9204" x2="844.5283" y1="765.1016" y2="765.1016"/><text fill="#000000" font-family="sans-serif" font-size="13" lengthAdjust="spacing" textLength="52" x="688.9204" y="760.2451">&#21066;&#38500;&#25104;&#21151;</text></g><g class="message" data-participant-1="service" data-participant-2="api"><polygon fill="#181818" points="519.5215,791.4531,509.5215,795.4531,519.5215,799.4531,515.5215,795.4531" style="stroke:#181818;stroke-width:1;"/><line style="stroke:#181818;stroke-width:2;stroke-dasharray:2.0,2.0;" x1="513.5215" x2="665.9204" y1="795.4531" y2="795.4531"/><text fill="#000000" font-family="sans-serif" font-size="13" lengthAdjust="spacing" textLength="52" x="525.5215" y="790.5967">&#21066;&#38500;&#23436;&#20102;</text></g><g class="message" data-participant-1="api" data-participant-2="browser"><polygon fill="#181818" points="265.7827,821.8047,255.7827,825.8047,265.7827,829.8047,261.7827,825.8047" style="stroke:#181818;stroke-width:1;"/><line style="stroke:#181818;stroke-width:2;stroke-dasharray:2.0,2.0;" x1="259.7827" x2="502.5215" y1="825.8047" y2="825.8047"/><text fill="#000000" font-family="sans-serif" font-size="13" lengthAdjust="spacing" textLength="21.6899" x="271.7827" y="820.9482">204</text><text fill="#000000" font-family="sans-serif" font-size="13" lengthAdjust="spacing" textLength="3.6118" x="293.4727" y="820.9482">&#160;</text><text fill="#000000" font-family="sans-serif" font-size="13" lengthAdjust="spacing" textLength="16.6182" x="297.0845" y="820.9482">No</text><text fill="#000000" font-family="sans-serif" font-size="13" lengthAdjust="spacing" textLength="3.6118" x="313.7026" y="820.9482">&#160;</text><text fill="#000000" font-family="sans-serif" font-size="13" lengthAdjust="spacing" textLength="45.5317" x="317.3145" y="820.9482">Content</text></g><g class="message" data-participant-1="browser" data-participant-2="browser"><line style="stroke:#181818;stroke-width:2;" x1="254.7827" x2="296.7827" y1="856.1563" y2="856.1563"/><line style="stroke:#181818;stroke-width:2;" x1="296.7827" x2="296.7827" y1="856.1563" y2="869.1563"/><line style="stroke:#181818;stroke-width:2;" x1="255.7827" x2="296.7827" y1="869.1563" y2="869.1563"/><polygon fill="#181818" points="265.7827,865.1563,255.7827,869.1563,265.7827,873.1563,261.7827,869.1563" style="stroke:#181818;stroke-width:1;"/><text fill="#000000" font-family="sans-serif" font-size="13" lengthAdjust="spacing" textLength="130" x="261.7827" y="851.2998">&#12503;&#12525;&#12472;&#12455;&#12463;&#12488;&#19968;&#35239;&#26356;&#26032;</text></g><g class="message" data-participant-1="browser" data-participant-2="user"><polygon fill="#181818" points="83,895.5078,73,899.5078,83,903.5078,79,899.5078" style="stroke:#181818;stroke-width:1;"/><line style="stroke:#181818;stroke-width:2;stroke-dasharray:2.0,2.0;" x1="77" x2="243.7827" y1="899.5078" y2="899.5078"/><text fill="#000000" font-family="sans-serif" font-size="13" lengthAdjust="spacing" textLength="117" x="89" y="894.6514">&#23436;&#20102;&#12513;&#12483;&#12475;&#12540;&#12472;&#34920;&#31034;</text></g><!--SRC=[dLLjJnj74Fv-ls95Ff1OzKiDILjBH2BsEOfK8LJeDwJeSbxH2-RElJiRL8HaxvN8l5Y9eA6YfAgW54XG25KgwcAt_J7Zi-5J_aBdTi_sEJQDsaL2wxtdcTcPUMPsUEm_BscO0FiTd3gmNy5v2-mFT_TjWe3pFJYlWLM17G5x0qxPNLsxsZa0vxbtxjIHzsMInCEZ0w30DdrqQGVOEaBTfworSfGWpLzUk-ix7IFeYen4RaT6FoBJgN0iTaSQ_XyHIDQSfkSKKvad5lqwJtMLZfkciJ3zbQREwTIoI3m0COsydb4DKwSc-JWM-32lBCuZM9cbblOD9V5OR83XISMqDLNBARfDq0urivfEWpV81G1B4i5rJr7dPhdNf94rJ78ZFUxzYM-6YJRyypjyISj1SxfXqsljfDCf-PD-E-bxoLWyvTcnDJjBFrpBT_MogEMx-geaAQgDLeQ07NjwS5R1EUJoECV_GqInIDwYfXICSmYSRN1U0Zj4r8n-Su8ksf775abcDQhRjpZf4HO4UUI6F9AEfrEzV9ymeuzFFY1V67cRMfoav3GUveWSwoLCciPZgjfJr2neAkLOI-pHmQVfs_9dKaQnbKUAHSdGL3x7TpFw54Q6zHLuiKVxINbKJahIsDYrcRhQNdUFrecdDIzu4hxRYIT1siby0Unlta6RdFeA70StNZgrWe9Lz1cIrAQY5I_01BalJvCeRgCv4POLNV9t3pBBqOocpA8KhAYAjRUxzf0WUVnmpssM28Sbo0HPbZAq1ntqt6MqzYykNrN0AG8x0BRF4t1skNVSEhYG9Au_eu30zlK92OL4o0E9eH0YeBW1fIqedNvmDa3fcEEBxhCJAFq5R0CF9ngrSoJZTC1h06DjmdFlCuAGMMI29jmqjogDFrz0wOtxT1lOMlEy3ALTZjm5jeLWA5OagcTuE_rB3TccY8bW0m33rlYP5xG6pWdsHTRkE_HwhvDKj9WNvXhLukNXKUkxsjMF-r0wQPPhtXYaMLIZSD1BREiW9NykJylNIu6pUYlAJpmHtEqqG89aQ9RQrE-Hcnt-hLw-ZnSsscJFZjyOtYE06N-9SMADtISLjtecyZIZHvUyI1zgAC_s_HxgoZnTZhxdGzWIFhfQQXyJla8XO2VuyF0Ng8uJHtZXIlBM0145BdQrKcbKKKUdFjfTEUQVzpnL8WBrng_U-k5RB8KmxKF399BBpsUxl-YYgcIrZAaiu3Goz03Cf0MDBaIimYm_x6g99y_FMBYd2i9Li_pCNVk9mmBTs9ENJkuxGX1KztIZSV6aZneiMt__nsEZPC8WIKEtSVQ-J-vePk0aw4-q479pzxVczjbrOXVN16UF3xmQVokg_lp0F4d1ATGU8ly0]--></g></svg>