<svg xmlns="http://www.w3.org/2000/svg" xmlns:xlink="http://www.w3.org/1999/xlink" contentStyleType="text/css" data-diagram-type="SEQUENCE" height="1231px" preserveAspectRatio="none" style="width:843px;height:1231px;background:#FFFFFF;" version="1.1" viewBox="0 0 843 1231" width="843px" zoomAndPan="magnify"><title>&#12475;&#12483;&#12471;&#12519;&#12531;&#26908;&#35388;&#12501;&#12525;&#12540;&#65288;Middleware&#65289;</title><defs/><g><text fill="#000000" font-family="sans-serif" font-size="14" font-weight="bold" lengthAdjust="spacing" textLength="249.4912" x="293.2271" y="29.5332">&#12475;&#12483;&#12471;&#12519;&#12531;&#26908;&#35388;&#12501;&#12525;&#12540;&#65288;Middleware&#65289;</text><g><title>&#12502;&#12521;&#12454;&#12470;</title><rect fill="#FFFFFF" height="839.5703" style="stroke:#181818;stroke-width:1;" width="10" x="231" y="197.9219"/></g><g><title>Middleware</title><rect fill="#FFFFFF" height="792.8672" style="stroke:#181818;stroke-width:1;" width="10" x="445.9399" y="244.625"/></g><g><title>Supabase Auth</title><rect fill="#FFFFFF" height="217.1641" style="stroke:#181818;stroke-width:1;" width="10" x="598.4253" y="436.4375"/></g><rect fill="none" height="417.5938" rx="5" ry="5" style="stroke:#000000;stroke-width:1.5;" width="663.8276" x="10" y="612.8984"/><rect fill="none" height="171.9453" rx="5" ry="5" style="stroke:#000000;stroke-width:1.5;" width="498.9155" x="20" y="851.5469"/><g><title>&#12456;&#12531;&#12489;&#12518;&#12540;&#12470;&#12540;</title><rect fill="#000000" fill-opacity="0.00000" height="1028.0313" width="8" x="78" y="121.2188"/><line style="stroke:#181818;stroke-width:0.5;stroke-dasharray:5.0,5.0;" x1="82" x2="82" y1="121.2188" y2="1149.25"/></g><g><title>&#12502;&#12521;&#12454;&#12470;</title><rect fill="#000000" fill-opacity="0.00000" height="1028.0313" width="8" x="232" y="121.2188"/><line style="stroke:#181818;stroke-width:0.5;stroke-dasharray:5.0,5.0;" x1="236" x2="236" y1="121.2188" y2="1149.25"/></g><g><title>Middleware</title><rect fill="#000000" fill-opacity="0.00000" height="1028.0313" width="8" x="446.9399" y="121.2188"/><line style="stroke:#181818;stroke-width:0.5;stroke-dasharray:5.0,5.0;" x1="449.9644" x2="449.9644" y1="121.2188" y2="1149.25"/></g><g><title>Supabase Auth</title><rect fill="#000000" fill-opacity="0.00000" height="1028.0313" width="8" x="599.4253" y="121.2188"/><line style="stroke:#181818;stroke-width:0.5;stroke-dasharray:5.0,5.0;" x1="603.0229" x2="603.0229" y1="121.2188" y2="1149.25"/></g><g class="participant participant-head" data-participant="user"><text fill="#000000" font-family="sans-serif" font-size="14" lengthAdjust="spacing" textLength="98" x="30" y="118.1426">&#12456;&#12531;&#12489;&#12518;&#12540;&#12470;&#12540;</text><ellipse cx="82" cy="52.1094" fill="#E2E2F0" rx="8" ry="8" style="stroke:#181818;stroke-width:0.5;"/><path d="M82,60.1094 L82,87.1094 M69,68.1094 L95,68.1094 M82,87.1094 L69,102.1094 M82,87.1094 L95,102.1094" fill="none" style="stroke:#181818;stroke-width:0.5;"/></g><g class="participant participant-tail" data-participant="user"><text fill="#000000" font-family="sans-serif" font-size="14" lengthAdjust="spacing" textLength="98" x="30" y="1162.7832">&#12456;&#12531;&#12489;&#12518;&#12540;&#12470;&#12540;</text><ellipse cx="82" cy="1174.3594" fill="#E2E2F0" rx="8" ry="8" style="stroke:#181818;stroke-width:0.5;"/><path d="M82,1182.3594 L82,1209.3594 M69,1190.3594 L95,1190.3594 M82,1209.3594 L69,1224.3594 M82,1209.3594 L95,1224.3594" fill="none" style="stroke:#181818;stroke-width:0.5;"/></g><g class="participant participant-head" data-participant="browser"><rect fill="#E3F2FD" height="31.6094" rx="5" ry="5" style="stroke:#666666;stroke-width:0.5;" width="70" x="201" y="88.6094"/><text fill="#000000" font-family="sans-serif" font-size="14" lengthAdjust="spacing" textLength="56" x="208" y="110.1426">&#12502;&#12521;&#12454;&#12470;</text></g><g class="participant participant-tail" data-participant="browser"><rect fill="#E3F2FD" height="31.6094" rx="5" ry="5" style="stroke:#666666;stroke-width:0.5;" width="70" x="201" y="1148.25"/><text fill="#000000" font-family="sans-serif" font-size="14" lengthAdjust="spacing" textLength="56" x="208" y="1169.7832">&#12502;&#12521;&#12454;&#12470;</text></g><g class="participant participant-head" data-participant="middleware"><rect fill="#FFF3E0" height="49.2188" rx="5" ry="5" style="stroke:#666666;stroke-width:0.5;" width="115.9512" x="392.9644" y="71"/><text fill="#000000" font-family="sans-serif" font-size="14" lengthAdjust="spacing" textLength="71.5859" x="415.147" y="92.5332">Middleware</text><text fill="#000000" font-family="sans-serif" font-size="14" lengthAdjust="spacing" textLength="101.9512" x="399.9644" y="110.1426">(updateSession)</text></g><g class="participant participant-tail" data-participant="middleware"><rect fill="#FFF3E0" height="49.2188" rx="5" ry="5" style="stroke:#666666;stroke-width:0.5;" width="115.9512" x="392.9644" y="1148.25"/><text fill="#000000" font-family="sans-serif" font-size="14" lengthAdjust="spacing" textLength="71.5859" x="415.147" y="1169.7832">Middleware</text><text fill="#000000" font-family="sans-serif" font-size="14" lengthAdjust="spacing" textLength="101.9512" x="399.9644" y="1187.3926">(updateSession)</text></g><g class="participant participant-head" data-participant="supabase"><rect fill="#E8F5E9" height="49.2188" rx="5" ry="5" style="stroke:#666666;stroke-width:0.5;" width="120.8047" x="543.0229" y="71"/><text fill="#000000" font-family="sans-serif" font-size="14" lengthAdjust="spacing" textLength="95.7441" x="555.5532" y="92.5332">Supabase Auth</text><text fill="#000000" font-family="sans-serif" font-size="14" lengthAdjust="spacing" textLength="106.8047" x="550.0229" y="110.1426">(@supabase/ssr)</text></g><g class="participant participant-tail" data-participant="supabase"><rect fill="#E8F5E9" height="49.2188" rx="5" ry="5" style="stroke:#666666;stroke-width:0.5;" width="120.8047" x="543.0229" y="1148.25"/><text fill="#000000" font-family="sans-serif" font-size="14" lengthAdjust="spacing" textLength="95.7441" x="555.5532" y="1169.7832">Supabase Auth</text><text fill="#000000" font-family="sans-serif" font-size="14" lengthAdjust="spacing" textLength="106.8047" x="550.0229" y="1187.3926">(@supabase/ssr)</text></g><g><title>&#12502;&#12521;&#12454;&#12470;</title><rect fill="#FFFFFF" height="839.5703" style="stroke:#181818;stroke-width:1;" width="10" x="231" y="197.9219"/></g><g><title>Middleware</title><rect fill="#FFFFFF" height="792.8672" style="stroke:#181818;stroke-width:1;" width="10" x="445.9399" y="244.625"/></g><g><title>Supabase Auth</title><rect fill="#FFFFFF" height="217.1641" style="stroke:#181818;stroke-width:1;" width="10" x="598.4253" y="436.4375"/></g><rect fill="#EEEEEE" height="3" rx="5" ry="5" style="stroke:#EEEEEE;stroke-width:1;" width="836.9453" x="0" y="152.3945"/><line style="stroke:#000000;stroke-width:1;" x1="0" x2="836.9453" y1="152.3945" y2="152.3945"/><line style="stroke:#000000;stroke-width:1;" x1="0" x2="836.9453" y1="155.3945" y2="155.3945"/><rect fill="#EEEEEE" height="24.3516" rx="5" ry="5" style="stroke:#000000;stroke-width:2;" width="124.8618" x="356.0417" y="141.2188"/><text fill="#000000" font-family="sans-serif" font-size="13" font-weight="bold" lengthAdjust="spacing" textLength="107.25" x="362.0417" y="158.7139">&#12506;&#12540;&#12472;&#12522;&#12463;&#12456;&#12473;&#12488;</text><g class="message" data-participant-1="user" data-participant-2="browser"><polygon fill="#181818" points="219,193.9219,229,197.9219,219,201.9219,223,197.9219" style="stroke:#181818;stroke-width:1;"/><line style="stroke:#181818;stroke-width:2;" x1="82" x2="225" y1="197.9219" y2="197.9219"/><text fill="#000000" font-family="sans-serif" font-size="13" lengthAdjust="spacing" textLength="130" x="89" y="193.0654">&#20445;&#35703;&#12506;&#12540;&#12472;&#12395;&#12450;&#12463;&#12475;&#12473;</text></g><g class="message" data-participant-1="browser" data-participant-2="middleware"><polygon fill="#181818" points="433.9399,240.625,443.9399,244.625,433.9399,248.625,437.9399,244.625" style="stroke:#181818;stroke-width:1;"/><line style="stroke:#181818;stroke-width:2;" x1="241" x2="439.9399" y1="244.625" y2="244.625"/><text fill="#000000" font-family="sans-serif" font-size="13" lengthAdjust="spacing" textLength="65" x="248" y="223.417">&#12522;&#12463;&#12456;&#12473;&#12488;</text><text fill="#000000" font-family="sans-serif" font-size="13" lengthAdjust="spacing" textLength="7.5918" x="248" y="239.7686">+</text><text fill="#000000" font-family="sans-serif" font-size="13" lengthAdjust="spacing" textLength="3.6118" x="255.5918" y="239.7686">&#160;</text><text fill="#000000" font-family="sans-serif" font-size="13" lengthAdjust="spacing" textLength="40.4663" x="259.2036" y="239.7686">Cookie</text></g><g class="message" data-participant-1="middleware" data-participant-2="middleware"><line style="stroke:#181818;stroke-width:2;" x1="455.9399" x2="497.9399" y1="307.6797" y2="307.6797"/><line style="stroke:#181818;stroke-width:2;" x1="497.9399" x2="497.9399" y1="307.6797" y2="320.6797"/><line style="stroke:#181818;stroke-width:2;" x1="456.9399" x2="497.9399" y1="320.6797" y2="320.6797"/><polygon fill="#181818" points="466.9399,316.6797,456.9399,320.6797,466.9399,324.6797,462.9399,320.6797" style="stroke:#181818;stroke-width:1;"/><text fill="#000000" font-family="sans-serif" font-size="13" lengthAdjust="spacing" textLength="116.3145" x="462.9399" y="270.1201">createServerClient()</text><text fill="#000000" font-family="sans-serif" font-size="13" lengthAdjust="spacing" textLength="7.5918" x="462.9399" y="286.4717">+</text><text fill="#000000" font-family="sans-serif" font-size="13" lengthAdjust="spacing" textLength="3.6118" x="470.5317" y="286.4717">&#160;</text><text fill="#000000" font-family="sans-serif" font-size="13" lengthAdjust="spacing" textLength="70.0781" x="474.1436" y="286.4717">cookies&#35373;&#23450;</text><text fill="#000000" font-family="sans-serif" font-size="13" lengthAdjust="spacing" textLength="76.5781" x="462.9399" y="302.8232">(getAll/setAll)</text></g><path d="M460,338.6797 L460,403.6797 A5,5 0 0 0 465,408.6797 L684,408.6797 A5,5 0 0 0 689,403.6797 L689,343.6797 L679,333.6797 L465,333.6797 A5,5 0 0 0 460,338.6797" fill="#FFFDE7" style="stroke:#FBC02D;stroke-width:0.5;"/><path d="M679,333.6797 L679,341.1797 A2.5,2.5 0 0 0 681.5,343.6797 L689,343.6797 L679,333.6797" fill="#FFFDE7" style="stroke:#FBC02D;stroke-width:0.5;"/><text fill="#000000" font-family="sans-serif" font-size="13" font-weight="bold" lengthAdjust="spacing" textLength="195.6284" x="466" y="352.1748">&#37325;&#35201;: &#12371;&#12398;&#38291;&#12395;&#12467;&#12540;&#12489;&#12434;&#20837;&#12428;&#12394;&#12356;</text><text fill="#000000" font-family="sans-serif" font-size="13" lengthAdjust="spacing" textLength="129.3145" x="466" y="368.5264">createServerClient()&#12392;</text><text fill="#000000" font-family="sans-serif" font-size="13" lengthAdjust="spacing" textLength="158.1772" x="466" y="384.8779">getUser()&#12398;&#38291;&#12395;&#20182;&#12398;&#20966;&#29702;&#12434;</text><text fill="#000000" font-family="sans-serif" font-size="13" lengthAdjust="spacing" textLength="208" x="466" y="401.2295">&#20837;&#12428;&#12427;&#12392;&#20104;&#26399;&#12379;&#12396;&#12525;&#12464;&#12450;&#12454;&#12488;&#12364;&#30330;&#29983;</text><g class="message" data-participant-1="middleware" data-participant-2="supabase"><polygon fill="#181818" points="586.4253,432.4375,596.4253,436.4375,586.4253,440.4375,590.4253,436.4375" style="stroke:#181818;stroke-width:1;"/><line style="stroke:#181818;stroke-width:2;" x1="455.9399" x2="592.4253" y1="436.4375" y2="436.4375"/><text fill="#000000" font-family="sans-serif" font-size="13" font-weight="bold" lengthAdjust="spacing" textLength="57.0654" x="462.9399" y="431.5811">getUser()</text></g><path d="M613,454.4375 L613,535.4375 A5,5 0 0 0 618,540.4375 L826,540.4375 A5,5 0 0 0 831,535.4375 L831,459.4375 L821,449.4375 L618,449.4375 A5,5 0 0 0 613,454.4375" fill="#FFFDE7" style="stroke:#FBC02D;stroke-width:0.5;"/><path d="M821,449.4375 L821,456.9375 A2.5,2.5 0 0 0 823.5,459.4375 L831,459.4375 L821,449.4375" fill="#FFFDE7" style="stroke:#FBC02D;stroke-width:0.5;"/><text fill="#000000" font-family="sans-serif" font-size="13" font-weight="bold" lengthAdjust="spacing" textLength="124.0967" x="619" y="467.9326">getUser()&#12398;&#20869;&#37096;&#20966;&#29702;</text><text fill="#000000" font-family="sans-serif" font-size="13" lengthAdjust="spacing" textLength="171.9199" x="619" y="484.2842">1. Cookie&#12363;&#12425;&#12475;&#12483;&#12471;&#12519;&#12531;&#21462;&#24471;</text><text fill="#000000" font-family="sans-serif" font-size="13" lengthAdjust="spacing" textLength="171.1646" x="619" y="500.6357">2. JWT&#26399;&#38480;&#20999;&#12428;&#12394;&#12425;&#33258;&#21205;&#26356;&#26032;</text><text fill="#000000" font-family="sans-serif" font-size="13" lengthAdjust="spacing" textLength="197.9453" x="619" y="516.9873">3. refresh_token&#12391;&#12488;&#12540;&#12463;&#12531;&#20877;&#21462;&#24471;</text><text fill="#000000" font-family="sans-serif" font-size="13" lengthAdjust="spacing" textLength="184.9199" x="619" y="533.3389">4. &#26032;Cookie&#12434;&#12524;&#12473;&#12509;&#12531;&#12473;&#12395;&#35373;&#23450;</text><g class="message" data-participant-1="supabase" data-participant-2="supabase"><line style="stroke:#181818;stroke-width:2;" x1="608.4253" x2="650.4253" y1="584.8984" y2="584.8984"/><line style="stroke:#181818;stroke-width:2;" x1="650.4253" x2="650.4253" y1="584.8984" y2="597.8984"/><line style="stroke:#181818;stroke-width:2;" x1="609.4253" x2="650.4253" y1="597.8984" y2="597.8984"/><polygon fill="#181818" points="619.4253,593.8984,609.4253,597.8984,619.4253,601.8984,615.4253,597.8984" style="stroke:#181818;stroke-width:1;"/><text fill="#000000" font-family="sans-serif" font-size="13" lengthAdjust="spacing" textLength="52.7109" x="615.4253" y="563.6904">JWT&#26908;&#35388;</text><text fill="#000000" font-family="sans-serif" font-size="13" lengthAdjust="spacing" textLength="7.5918" x="615.4253" y="580.042">+</text><text fill="#000000" font-family="sans-serif" font-size="13" lengthAdjust="spacing" textLength="3.6118" x="623.0171" y="580.042">&#160;</text><text fill="#000000" font-family="sans-serif" font-size="13" lengthAdjust="spacing" textLength="104" x="626.6289" y="580.042">&#33258;&#21205;&#12488;&#12540;&#12463;&#12531;&#26356;&#26032;</text></g><path d="M15,612.8984 L70.1709,612.8984 L70.1709,621.25 L60.1709,631.25 L10,631.25 L10,617.8984 A5,5 0 0 1 15,612.8984" fill="#EEEEEE" style="stroke:#000000;stroke-width:1.5;"/><rect fill="none" height="417.5938" rx="5" ry="5" style="stroke:#000000;stroke-width:1.5;" width="663.8276" x="10" y="612.8984"/><text fill="#000000" font-family="sans-serif" font-size="13" font-weight="bold" lengthAdjust="spacing" textLength="15.1709" x="25" y="627.3936">alt</text><text fill="#000000" font-family="sans-serif" font-size="11" font-weight="bold" lengthAdjust="spacing" textLength="98.0762" x="85.1709" y="626.3174">[&#12518;&#12540;&#12470;&#12540;&#35469;&#35388;&#28168;&#12415;]</text><g class="message" data-participant-1="supabase" data-participant-2="middleware"><polygon fill="#181818" points="466.9399,649.6016,456.9399,653.6016,466.9399,657.6016,462.9399,653.6016" style="stroke:#181818;stroke-width:1;"/><line style="stroke:#181818;stroke-width:2;stroke-dasharray:2.0,2.0;" x1="460.9399" x2="602.4253" y1="653.6016" y2="653.6016"/><text fill="#000000" font-family="sans-serif" font-size="13" lengthAdjust="spacing" textLength="4.3418" x="472.9399" y="648.7451">{</text><text fill="#000000" font-family="sans-serif" font-size="13" lengthAdjust="spacing" textLength="3.6118" x="477.2817" y="648.7451">&#160;</text><text fill="#000000" font-family="sans-serif" font-size="13" lengthAdjust="spacing" textLength="28.9136" x="480.8936" y="648.7451">data:</text><text fill="#000000" font-family="sans-serif" font-size="13" lengthAdjust="spacing" textLength="3.6118" x="509.8071" y="648.7451">&#160;</text><text fill="#000000" font-family="sans-serif" font-size="13" lengthAdjust="spacing" textLength="4.3418" x="513.4189" y="648.7451">{</text><text fill="#000000" font-family="sans-serif" font-size="13" lengthAdjust="spacing" textLength="3.6118" x="517.7607" y="648.7451">&#160;</text><text fill="#000000" font-family="sans-serif" font-size="13" lengthAdjust="spacing" textLength="25.2891" x="521.3726" y="648.7451">user</text><text fill="#000000" font-family="sans-serif" font-size="13" lengthAdjust="spacing" textLength="3.6118" x="546.6616" y="648.7451">&#160;</text><text fill="#000000" font-family="sans-serif" font-size="13" lengthAdjust="spacing" textLength="4.3418" x="550.2734" y="648.7451">}</text><text fill="#000000" font-family="sans-serif" font-size="13" lengthAdjust="spacing" textLength="3.6118" x="554.6152" y="648.7451">&#160;</text><text fill="#000000" font-family="sans-serif" font-size="13" lengthAdjust="spacing" textLength="4.3418" x="558.2271" y="648.7451">}</text></g><g class="message" data-participant-1="middleware" data-participant-2="browser"><polygon fill="#181818" points="252,696.3047,242,700.3047,252,704.3047,248,700.3047" style="stroke:#181818;stroke-width:1;"/><line style="stroke:#181818;stroke-width:2;stroke-dasharray:2.0,2.0;" x1="246" x2="444.9399" y1="700.3047" y2="700.3047"/><text fill="#000000" font-family="sans-serif" font-size="13" lengthAdjust="spacing" textLength="114.918" x="258" y="679.0967">supabaseResponse</text><text fill="#000000" font-family="sans-serif" font-size="13" lengthAdjust="spacing" textLength="95.3291" x="258" y="695.4482">(&#20803;&#12398;&#12524;&#12473;&#12509;&#12531;&#12473;</text><text fill="#000000" font-family="sans-serif" font-size="13" lengthAdjust="spacing" textLength="3.6118" x="353.3291" y="695.4482">&#160;</text><text fill="#000000" font-family="sans-serif" font-size="13" lengthAdjust="spacing" textLength="7.5918" x="356.9409" y="695.4482">+</text><text fill="#000000" font-family="sans-serif" font-size="13" lengthAdjust="spacing" textLength="3.6118" x="364.5327" y="695.4482">&#160;</text><text fill="#000000" font-family="sans-serif" font-size="13" lengthAdjust="spacing" textLength="70.7954" x="368.1445" y="695.4482">&#26356;&#26032;Cookie)</text></g><g class="message" data-participant-1="browser" data-participant-2="user"><polygon fill="#181818" points="93,726.6563,83,730.6563,93,734.6563,89,730.6563" style="stroke:#181818;stroke-width:1;"/><line style="stroke:#181818;stroke-width:2;stroke-dasharray:2.0,2.0;" x1="87" x2="230" y1="730.6563" y2="730.6563"/><text fill="#000000" font-family="sans-serif" font-size="13" lengthAdjust="spacing" textLength="91" x="99" y="725.7998">&#20445;&#35703;&#12506;&#12540;&#12472;&#34920;&#31034;</text></g><line style="stroke:#000000;stroke-width:1;stroke-dasharray:2.0,2.0;" x1="10" x2="673.8276" y1="739.6563" y2="739.6563"/><text fill="#000000" font-family="sans-serif" font-size="11" font-weight="bold" lengthAdjust="spacing" textLength="158.9253" x="15" y="751.0752">[&#12518;&#12540;&#12470;&#12540;&#26410;&#35469;&#35388;&#65288;user: null&#65289;]</text><g class="message" data-participant-1="supabase" data-participant-2="middleware"><polygon fill="#181818" points="466.9399,772.8438,456.9399,776.8438,466.9399,780.8438,462.9399,776.8438" style="stroke:#181818;stroke-width:1;"/><line style="stroke:#181818;stroke-width:2;stroke-dasharray:2.0,2.0;" x1="460.9399" x2="602.4253" y1="776.8438" y2="776.8438"/><text fill="#000000" font-family="sans-serif" font-size="13" lengthAdjust="spacing" textLength="4.3418" x="472.9399" y="771.9873">{</text><text fill="#000000" font-family="sans-serif" font-size="13" lengthAdjust="spacing" textLength="3.6118" x="477.2817" y="771.9873">&#160;</text><text fill="#000000" font-family="sans-serif" font-size="13" lengthAdjust="spacing" textLength="28.9136" x="480.8936" y="771.9873">data:</text><text fill="#000000" font-family="sans-serif" font-size="13" lengthAdjust="spacing" textLength="3.6118" x="509.8071" y="771.9873">&#160;</text><text fill="#000000" font-family="sans-serif" font-size="13" lengthAdjust="spacing" textLength="4.3418" x="513.4189" y="771.9873">{</text><text fill="#000000" font-family="sans-serif" font-size="13" lengthAdjust="spacing" textLength="3.6118" x="517.7607" y="771.9873">&#160;</text><text fill="#000000" font-family="sans-serif" font-size="13" lengthAdjust="spacing" textLength="28.9009" x="521.3726" y="771.9873">user:</text><text fill="#000000" font-family="sans-serif" font-size="13" lengthAdjust="spacing" textLength="3.6118" x="550.2734" y="771.9873">&#160;</text><text fill="#000000" font-family="sans-serif" font-size="13" lengthAdjust="spacing" textLength="20.2363" x="553.8853" y="771.9873">null</text><text fill="#000000" font-family="sans-serif" font-size="13" lengthAdjust="spacing" textLength="3.6118" x="574.1216" y="771.9873">&#160;</text><text fill="#000000" font-family="sans-serif" font-size="13" lengthAdjust="spacing" textLength="4.3418" x="577.7334" y="771.9873">}</text><text fill="#000000" font-family="sans-serif" font-size="13" lengthAdjust="spacing" textLength="3.6118" x="582.0752" y="771.9873">&#160;</text><text fill="#000000" font-family="sans-serif" font-size="13" lengthAdjust="spacing" textLength="4.3418" x="585.687" y="771.9873">}</text></g><g class="message" data-participant-1="middleware" data-participant-2="middleware"><line style="stroke:#181818;stroke-width:2;" x1="455.9399" x2="497.9399" y1="823.5469" y2="823.5469"/><line style="stroke:#181818;stroke-width:2;" x1="497.9399" x2="497.9399" y1="823.5469" y2="836.5469"/><line style="stroke:#181818;stroke-width:2;" x1="456.9399" x2="497.9399" y1="836.5469" y2="836.5469"/><polygon fill="#181818" points="466.9399,832.5469,456.9399,836.5469,466.9399,840.5469,462.9399,836.5469" style="stroke:#181818;stroke-width:1;"/><text fill="#000000" font-family="sans-serif" font-size="13" lengthAdjust="spacing" textLength="52" x="462.9399" y="802.3389">&#12497;&#12473;&#30906;&#35469;</text><text fill="#000000" font-family="sans-serif" font-size="13" lengthAdjust="spacing" textLength="39.019" x="462.9399" y="818.6904">(/login,</text><text fill="#000000" font-family="sans-serif" font-size="13" lengthAdjust="spacing" textLength="3.6118" x="501.959" y="818.6904">&#160;</text><text fill="#000000" font-family="sans-serif" font-size="13" lengthAdjust="spacing" textLength="28.9136" x="505.5708" y="818.6904">/auth</text><text fill="#000000" font-family="sans-serif" font-size="13" lengthAdjust="spacing" textLength="3.6118" x="534.4844" y="818.6904">&#160;</text><text fill="#000000" font-family="sans-serif" font-size="13" lengthAdjust="spacing" textLength="43.3291" x="538.0962" y="818.6904">&#12399;&#38500;&#22806;)</text></g><path d="M25,851.5469 L80.1709,851.5469 L80.1709,859.8984 L70.1709,869.8984 L20,869.8984 L20,856.5469 A5,5 0 0 1 25,851.5469" fill="#EEEEEE" style="stroke:#000000;stroke-width:1.5;"/><rect fill="none" height="171.9453" rx="5" ry="5" style="stroke:#000000;stroke-width:1.5;" width="498.9155" x="20" y="851.5469"/><text fill="#000000" font-family="sans-serif" font-size="13" font-weight="bold" lengthAdjust="spacing" textLength="15.1709" x="35" y="866.042">alt</text><text fill="#000000" font-family="sans-serif" font-size="11" font-weight="bold" lengthAdjust="spacing" textLength="132.1074" x="95.1709" y="864.9658">[&#20445;&#35703;&#12506;&#12540;&#12472;&#12408;&#12398;&#12450;&#12463;&#12475;&#12473;]</text><g class="message" data-participant-1="middleware" data-participant-2="browser"><polygon fill="#181818" points="252,904.6016,242,908.6016,252,912.6016,248,908.6016" style="stroke:#181818;stroke-width:1;"/><line style="stroke:#181818;stroke-width:2;stroke-dasharray:2.0,2.0;" x1="246" x2="444.9399" y1="908.6016" y2="908.6016"/><text fill="#000000" font-family="sans-serif" font-size="13" lengthAdjust="spacing" textLength="132.228" x="258" y="887.3936">NextResponse.redirect</text><text fill="#000000" font-family="sans-serif" font-size="13" lengthAdjust="spacing" textLength="39.7363" x="258" y="903.7451">(/login)</text></g><g class="message" data-participant-1="browser" data-participant-2="user"><polygon fill="#181818" points="93,934.9531,83,938.9531,93,942.9531,89,938.9531" style="stroke:#181818;stroke-width:1;"/><line style="stroke:#181818;stroke-width:2;stroke-dasharray:2.0,2.0;" x1="87" x2="230" y1="938.9531" y2="938.9531"/><text fill="#000000" font-family="sans-serif" font-size="13" lengthAdjust="spacing" textLength="104" x="99" y="934.0967">&#12525;&#12464;&#12452;&#12531;&#12506;&#12540;&#12472;&#12408;</text></g><line style="stroke:#000000;stroke-width:1;stroke-dasharray:2.0,2.0;" x1="20" x2="518.9155" y1="947.9531" y2="947.9531"/><text fill="#000000" font-family="sans-serif" font-size="11" font-weight="bold" lengthAdjust="spacing" textLength="132.1074" x="25" y="959.3721">[&#20844;&#38283;&#12506;&#12540;&#12472;&#12408;&#12398;&#12450;&#12463;&#12475;&#12473;]</text><g class="message" data-participant-1="middleware" data-participant-2="browser"><polygon fill="#181818" points="252,981.1406,242,985.1406,252,989.1406,248,985.1406" style="stroke:#181818;stroke-width:1;"/><line style="stroke:#181818;stroke-width:2;stroke-dasharray:2.0,2.0;" x1="246" x2="444.9399" y1="985.1406" y2="985.1406"/><text fill="#000000" font-family="sans-serif" font-size="13" lengthAdjust="spacing" textLength="114.918" x="258" y="980.2842">supabaseResponse</text></g><g class="message" data-participant-1="browser" data-participant-2="user"><polygon fill="#181818" points="93,1011.4922,83,1015.4922,93,1019.4922,89,1015.4922" style="stroke:#181818;stroke-width:1;"/><line style="stroke:#181818;stroke-width:2;stroke-dasharray:2.0,2.0;" x1="87" x2="230" y1="1015.4922" y2="1015.4922"/><text fill="#000000" font-family="sans-serif" font-size="13" lengthAdjust="spacing" textLength="65" x="99" y="1010.6357">&#12506;&#12540;&#12472;&#34920;&#31034;</text></g><path d="M315,1047.4922 L315,1128.4922 A5,5 0 0 0 320,1133.4922 L581,1133.4922 A5,5 0 0 0 586,1128.4922 L586,1052.4922 L576,1042.4922 L320,1042.4922 A5,5 0 0 0 315,1047.4922" fill="#FFFDE7" style="stroke:#FBC02D;stroke-width:0.5;"/><path d="M576,1042.4922 L576,1049.9922 A2.5,2.5 0 0 0 578.5,1052.4922 L586,1052.4922 L576,1042.4922" fill="#FFFDE7" style="stroke:#FBC02D;stroke-width:0.5;"/><text fill="#000000" font-family="sans-serif" font-size="13" font-weight="bold" lengthAdjust="spacing" textLength="250.7007" x="321" y="1060.9873">&#37325;&#35201;: supabaseResponse&#12434;&#12381;&#12398;&#12414;&#12414;&#36820;&#12377;</text><text fill="#000000" font-family="sans-serif" font-size="13" lengthAdjust="spacing" textLength="229.7217" x="321" y="1077.3389">&#26032;&#12375;&#12356;NextResponse.next()&#12434;&#20316;&#12427;&#22580;&#21512;:</text><text fill="#000000" font-family="sans-serif" font-size="13" lengthAdjust="spacing" textLength="100.4263" x="321" y="1093.6904">1. request &#12434;&#28193;&#12377;</text><text fill="#000000" font-family="sans-serif" font-size="13" lengthAdjust="spacing" textLength="110.5317" x="321" y="1110.042">2. cookies&#12434;&#12467;&#12500;&#12540;</text><text fill="#000000" font-family="sans-serif" font-size="13" lengthAdjust="spacing" textLength="221" x="321" y="1126.3936">&#12371;&#12428;&#12434;&#24608;&#12427;&#12392;&#12475;&#12483;&#12471;&#12519;&#12531;&#21516;&#26399;&#12364;&#22730;&#12428;&#12427;</text><!--SRC=[fLRVJzjM57w_VyKLVQ2XQqZ3jcwHc4Q1F4pgD9LEUwaqkSbji6BixDffgrL8ipqW6Q2obAPA0RLqASqoA9seDagpyiTSd1zF_HTsxhNZE0OsiJcHaznxpdVF-SuvdpCuUkOB3M9c_Sdi1hD-P_OUizuuQti9M7lBR5lil83bPdMzNMim-o6pTy0Md8uEDzexiFjOkEupwncpThcNzQPPiS30TKdWSKqro5tZChuw_XM-YAVoEUccf1CyDNNDcTjs6lUPNMGMe3vdzYQFm2wWmV-G1zApifgJg3I3TV9TdgWfCaQfTkVwj9pAgaJNSJnWGhMycavfL2KKNue5DcQakpDWB6M8BdzFS3mM2oB3tP1JSavI3NmFORYkIAbiHg2DQuf6yRda67-vUnfD4-gjVomkD1k4KpM3d8gJJ4vCNZwEaxmo7ejFS1n3DXJoBvLwtoXSbTDfXToHA7dVA28afGo06M1MJP1TPFQMAE4VS1_0aexpEg4ecEW0iylC_fLPMs0bJ6u2hs25pqsE9EF9YNxhtdatrFFvN5eoo1GmAcjgH3ZF-FiYoP79MB-_to5ZUMCQ83xNlOLXNQSkH7S50lWa-T7afmYDZk9UBzfrqOirw4Ne9ioRWoU5BtxcHvuuri3cRy4UvZJ9jo7qhWT2NLT02QG0ez9_t0tr0lIybfL93wDdZr30DuoKeaIGHMz3jHMPgCRv28TB2JYzNTjnNZu6HZB465EKOLryH10IRKJbpBI1jLl1mp0U6keiBBUtJ0ZJVC3Cbvto0v7f7i-Q3rx9cNlEh2Lcrfdvuz0Gk9mK1JDhi0FdVWqCy9yUqD7RCdnt5hPQA_E01JOUdBK8BaS7XURw4sQkCNERjwFrIb0C_LPWvbAhSj1QVOA8cXPp46R6ht42al1FXWXzLhiMOGByTHpqv77EptNicXkjIFLIr2iLCnUPLGoDadE_xBnx16RnAFxYc-kGIgUouXGMFBgiOdkXxYm-RAwzRfPVWTb855DoYn9z-bj3onALcIzufhozTZdS_BAF-64KWuztjbLYzhPedWrNWO5OjzO1Sdmw-gdXSOc9vttYnXCyquiDIOg1WuFUhY-3JtCVwd0e9AO77sxAUnWcMEAVOePcyQnmI9CJwi0tWbNi6xYksJMYvpHLv-hWpDbGbb3s-09smtRfYGXKV_W0Cd_Y0BStQwtg0K94WIo2kJRNwswwe8NSDO7LlA9mBJnBugxNsT8_9XG_GtgjPmSG3YG_h6WPMVq03qkWSp2UkvrArQcM8ouEhzWnYThdR0LL2dlNgQH_2O_UBk5HIj8o9Id3FppY0vp0RtTYg-8vqOj1-0YMuVdTAI_-h_Z2JV7F0VMNMiIXflcG81GeI4000wk-ZWknq43SJbFAS4nyGCqDdfhv3jxjmrLcLeH-G9Coyn48Pn_DAlm0lR5AHt-jWn0wJryxAuM4ApUK_pNHOHYjKdD_4t1SUV4Kdf_4fNcL_yV2GhAvbfQQFpnr5JMiK2jBGc2Nd5z-SbMtfnX_0m00]--></g></svg>