<svg xmlns="http://www.w3.org/2000/svg" xmlns:xlink="http://www.w3.org/1999/xlink" contentStyleType="text/css" data-diagram-type="SEQUENCE" height="758px" preserveAspectRatio="none" style="width:764px;height:758px;background:#FFFFFF;" version="1.1" viewBox="0 0 764 758" width="764px" zoomAndPan="magnify"><title>&#12525;&#12464;&#12450;&#12454;&#12488;&#12501;&#12525;&#12540;&#65288;&#12469;&#12540;&#12496;&#12540;&#20596; - &#25512;&#22888;&#65289;</title><defs/><g><text fill="#000000" font-family="sans-serif" font-size="14" font-weight="bold" lengthAdjust="spacing" textLength="257.8789" x="249.1821" y="29.5332">&#12525;&#12464;&#12450;&#12454;&#12488;&#12501;&#12525;&#12540;&#65288;&#12469;&#12540;&#12496;&#12540;&#20596; - &#25512;&#22888;&#65289;</text><g><title>&#12502;&#12521;&#12454;&#12470;</title><rect fill="#FFFFFF" height="460.2734" style="stroke:#181818;stroke-width:1;" width="10" x="245" y="197.9219"/></g><g><title>Route Handler</title><rect fill="#FFFFFF" height="399.5703" style="stroke:#181818;stroke-width:1;" width="10" x="411.228" y="228.2734"/></g><g><title>Supabase Auth</title><rect fill="#FFFFFF" height="30.3516" style="stroke:#181818;stroke-width:1;" width="10" x="604.2432" y="301.9766"/></g><g><title>Supabase Auth</title><rect fill="#FFFFFF" height="73.7031" style="stroke:#181818;stroke-width:1;" width="10" x="604.2432" y="388.0313"/></g><rect fill="none" height="122.4063" rx="5" ry="5" style="stroke:#000000;stroke-width:1.5;" width="393.1528" x="354.0903" y="347.3281"/><g><title>&#12456;&#12531;&#12489;&#12518;&#12540;&#12470;&#12540;</title><rect fill="#000000" fill-opacity="0.00000" height="554.9766" width="8" x="53" y="121.2188"/><line style="stroke:#181818;stroke-width:0.5;stroke-dasharray:5.0,5.0;" x1="57" x2="57" y1="121.2188" y2="676.1953"/></g><g><title>&#12502;&#12521;&#12454;&#12470;</title><rect fill="#000000" fill-opacity="0.00000" height="554.9766" width="8" x="246" y="121.2188"/><line style="stroke:#181818;stroke-width:0.5;stroke-dasharray:5.0,5.0;" x1="250" x2="250" y1="121.2188" y2="676.1953"/></g><g><title>Route Handler</title><rect fill="#000000" fill-opacity="0.00000" height="554.9766" width="8" x="412.228" y="121.2188"/><line style="stroke:#181818;stroke-width:0.5;stroke-dasharray:5.0,5.0;" x1="416.0903" x2="416.0903" y1="121.2188" y2="676.1953"/></g><g><title>Supabase Auth</title><rect fill="#000000" fill-opacity="0.00000" height="554.9766" width="8" x="605.2432" y="121.2188"/><line style="stroke:#181818;stroke-width:0.5;stroke-dasharray:5.0,5.0;" x1="608.8408" x2="608.8408" y1="121.2188" y2="676.1953"/></g><g class="participant participant-head" data-participant="user"><text fill="#000000" font-family="sans-serif" font-size="14" lengthAdjust="spacing" textLength="98" x="5" y="118.1426">&#12456;&#12531;&#12489;&#12518;&#12540;&#12470;&#12540;</text><ellipse cx="57" cy="52.1094" fill="#E2E2F0" rx="8" ry="8" style="stroke:#181818;stroke-width:0.5;"/><path d="M57,60.1094 L57,87.1094 M44,68.1094 L70,68.1094 M57,87.1094 L44,102.1094 M57,87.1094 L70,102.1094" fill="none" style="stroke:#181818;stroke-width:0.5;"/></g><g class="participant participant-tail" data-participant="user"><text fill="#000000" font-family="sans-serif" font-size="14" lengthAdjust="spacing" textLength="98" x="5" y="689.7285">&#12456;&#12531;&#12489;&#12518;&#12540;&#12470;&#12540;</text><ellipse cx="57" cy="701.3047" fill="#E2E2F0" rx="8" ry="8" style="stroke:#181818;stroke-width:0.5;"/><path d="M57,709.3047 L57,736.3047 M44,717.3047 L70,717.3047 M57,736.3047 L44,751.3047 M57,736.3047 L70,751.3047" fill="none" style="stroke:#181818;stroke-width:0.5;"/></g><g class="participant participant-head" data-participant="browser"><rect fill="#E3F2FD" height="31.6094" rx="5" ry="5" style="stroke:#666666;stroke-width:0.5;" width="70" x="215" y="88.6094"/><text fill="#000000" font-family="sans-serif" font-size="14" lengthAdjust="spacing" textLength="56" x="222" y="110.1426">&#12502;&#12521;&#12454;&#12470;</text></g><g class="participant participant-tail" data-participant="browser"><rect fill="#E3F2FD" height="31.6094" rx="5" ry="5" style="stroke:#666666;stroke-width:0.5;" width="70" x="215" y="675.1953"/><text fill="#000000" font-family="sans-serif" font-size="14" lengthAdjust="spacing" textLength="56" x="222" y="696.7285">&#12502;&#12521;&#12454;&#12470;</text></g><g class="participant participant-head" data-participant="handler"><rect fill="#FFF3E0" height="49.2188" rx="5" ry="5" style="stroke:#666666;stroke-width:0.5;" width="104.2754" x="364.0903" y="71"/><text fill="#000000" font-family="sans-serif" font-size="14" lengthAdjust="spacing" textLength="90.2754" x="371.0903" y="92.5332">Route Handler</text><text fill="#000000" font-family="sans-serif" font-size="14" lengthAdjust="spacing" textLength="89.4961" x="371.48" y="110.1426">(/auth/signout)</text></g><g class="participant participant-tail" data-participant="handler"><rect fill="#FFF3E0" height="49.2188" rx="5" ry="5" style="stroke:#666666;stroke-width:0.5;" width="104.2754" x="364.0903" y="675.1953"/><text fill="#000000" font-family="sans-serif" font-size="14" lengthAdjust="spacing" textLength="90.2754" x="371.0903" y="696.7285">Route Handler</text><text fill="#000000" font-family="sans-serif" font-size="14" lengthAdjust="spacing" textLength="89.4961" x="371.48" y="714.3379">(/auth/signout)</text></g><g class="participant participant-head" data-participant="supabase"><rect fill="#E8F5E9" height="49.2188" rx="5" ry="5" style="stroke:#666666;stroke-width:0.5;" width="120.8047" x="548.8408" y="71"/><text fill="#000000" font-family="sans-serif" font-size="14" lengthAdjust="spacing" textLength="95.7441" x="561.3711" y="92.5332">Supabase Auth</text><text fill="#000000" font-family="sans-serif" font-size="14" lengthAdjust="spacing" textLength="106.8047" x="555.8408" y="110.1426">(@supabase/ssr)</text></g><g class="participant participant-tail" data-participant="supabase"><rect fill="#E8F5E9" height="49.2188" rx="5" ry="5" style="stroke:#666666;stroke-width:0.5;" width="120.8047" x="548.8408" y="675.1953"/><text fill="#000000" font-family="sans-serif" font-size="14" lengthAdjust="spacing" textLength="95.7441" x="561.3711" y="696.7285">Supabase Auth</text><text fill="#000000" font-family="sans-serif" font-size="14" lengthAdjust="spacing" textLength="106.8047" x="555.8408" y="714.3379">(@supabase/ssr)</text></g><g><title>&#12502;&#12521;&#12454;&#12470;</title><rect fill="#FFFFFF" height="460.2734" style="stroke:#181818;stroke-width:1;" width="10" x="245" y="197.9219"/></g><g><title>Route Handler</title><rect fill="#FFFFFF" height="399.5703" style="stroke:#181818;stroke-width:1;" width="10" x="411.228" y="228.2734"/></g><g><title>Supabase Auth</title><rect fill="#FFFFFF" height="30.3516" style="stroke:#181818;stroke-width:1;" width="10" x="604.2432" y="301.9766"/></g><g><title>Supabase Auth</title><rect fill="#FFFFFF" height="73.7031" style="stroke:#181818;stroke-width:1;" width="10" x="604.2432" y="388.0313"/></g><rect fill="#EEEEEE" height="3" rx="5" ry="5" style="stroke:#EEEEEE;stroke-width:1;" width="757.2432" x="0" y="152.3945"/><line style="stroke:#000000;stroke-width:1;" x1="0" x2="757.2432" y1="152.3945" y2="152.3945"/><line style="stroke:#000000;stroke-width:1;" x1="0" x2="757.2432" y1="155.3945" y2="155.3945"/><rect fill="#EEEEEE" height="24.3516" rx="5" ry="5" style="stroke:#000000;stroke-width:2;" width="84.6431" x="336.3" y="141.2188"/><text fill="#000000" font-family="sans-serif" font-size="13" font-weight="bold" lengthAdjust="spacing" textLength="67.0313" x="342.3" y="158.7139">&#12525;&#12464;&#12450;&#12454;&#12488;</text><g class="message" data-participant-1="user" data-participant-2="browser"><polygon fill="#181818" points="233,193.9219,243,197.9219,233,201.9219,237,197.9219" style="stroke:#181818;stroke-width:1;"/><line style="stroke:#181818;stroke-width:2;" x1="57" x2="239" y1="197.9219" y2="197.9219"/><text fill="#000000" font-family="sans-serif" font-size="13" lengthAdjust="spacing" textLength="169" x="64" y="193.0654">&#12525;&#12464;&#12450;&#12454;&#12488;&#12508;&#12479;&#12531;&#12434;&#12463;&#12522;&#12483;&#12463;</text></g><g class="message" data-participant-1="browser" data-participant-2="handler"><polygon fill="#181818" points="399.228,224.2734,409.228,228.2734,399.228,232.2734,403.228,228.2734" style="stroke:#181818;stroke-width:1;"/><line style="stroke:#181818;stroke-width:2;" x1="255" x2="405.228" y1="228.2734" y2="228.2734"/><text fill="#000000" font-family="sans-serif" font-size="13" lengthAdjust="spacing" textLength="35.3945" x="262" y="223.417">POST</text><text fill="#000000" font-family="sans-serif" font-size="13" lengthAdjust="spacing" textLength="3.6118" x="297.3945" y="223.417">&#160;</text><text fill="#000000" font-family="sans-serif" font-size="13" lengthAdjust="spacing" textLength="74.4453" x="301.0063" y="223.417">/auth/signout</text></g><g class="message" data-participant-1="handler" data-participant-2="handler"><line style="stroke:#181818;stroke-width:2;" x1="421.228" x2="463.228" y1="258.625" y2="258.625"/><line style="stroke:#181818;stroke-width:2;" x1="463.228" x2="463.228" y1="258.625" y2="271.625"/><line style="stroke:#181818;stroke-width:2;" x1="422.228" x2="463.228" y1="271.625" y2="271.625"/><polygon fill="#181818" points="432.228,267.625,422.228,271.625,432.228,275.625,428.228,271.625" style="stroke:#181818;stroke-width:1;"/><text fill="#000000" font-family="sans-serif" font-size="13" lengthAdjust="spacing" textLength="78.0254" x="428.228" y="253.7686">createClient()</text></g><g class="message" data-participant-1="handler" data-participant-2="supabase"><polygon fill="#181818" points="592.2432,297.9766,602.2432,301.9766,592.2432,305.9766,596.2432,301.9766" style="stroke:#181818;stroke-width:1;"/><line style="stroke:#181818;stroke-width:2;" x1="421.228" x2="598.2432" y1="301.9766" y2="301.9766"/><text fill="#000000" font-family="sans-serif" font-size="13" lengthAdjust="spacing" textLength="54.1772" x="428.228" y="297.1201">getUser()</text></g><g class="message" data-participant-1="supabase" data-participant-2="handler"><polygon fill="#181818" points="432.228,328.3281,422.228,332.3281,432.228,336.3281,428.228,332.3281" style="stroke:#181818;stroke-width:1;"/><line style="stroke:#181818;stroke-width:2;stroke-dasharray:2.0,2.0;" x1="426.228" x2="608.2432" y1="332.3281" y2="332.3281"/><text fill="#000000" font-family="sans-serif" font-size="13" lengthAdjust="spacing" textLength="4.3418" x="438.228" y="327.4717">{</text><text fill="#000000" font-family="sans-serif" font-size="13" lengthAdjust="spacing" textLength="3.6118" x="442.5698" y="327.4717">&#160;</text><text fill="#000000" font-family="sans-serif" font-size="13" lengthAdjust="spacing" textLength="25.2891" x="446.1816" y="327.4717">user</text><text fill="#000000" font-family="sans-serif" font-size="13" lengthAdjust="spacing" textLength="3.6118" x="471.4707" y="327.4717">&#160;</text><text fill="#000000" font-family="sans-serif" font-size="13" lengthAdjust="spacing" textLength="4.3418" x="475.0825" y="327.4717">}</text></g><path d="M359.0903,347.3281 L414.2612,347.3281 L414.2612,355.6797 L404.2612,365.6797 L354.0903,365.6797 L354.0903,352.3281 A5,5 0 0 1 359.0903,347.3281" fill="#EEEEEE" style="stroke:#000000;stroke-width:1.5;"/><rect fill="none" height="122.4063" rx="5" ry="5" style="stroke:#000000;stroke-width:1.5;" width="393.1528" x="354.0903" y="347.3281"/><text fill="#000000" font-family="sans-serif" font-size="13" font-weight="bold" lengthAdjust="spacing" textLength="15.1709" x="369.0903" y="361.8232">alt</text><text fill="#000000" font-family="sans-serif" font-size="11" font-weight="bold" lengthAdjust="spacing" textLength="86.7324" x="429.2612" y="360.7471">[&#12518;&#12540;&#12470;&#12540;&#12364;&#23384;&#22312;]</text><g class="message" data-participant-1="handler" data-participant-2="supabase"><polygon fill="#181818" points="592.2432,384.0313,602.2432,388.0313,592.2432,392.0313,596.2432,388.0313" style="stroke:#181818;stroke-width:1;"/><line style="stroke:#181818;stroke-width:2;" x1="421.228" x2="598.2432" y1="388.0313" y2="388.0313"/><text fill="#000000" font-family="sans-serif" font-size="13" lengthAdjust="spacing" textLength="53.46" x="428.228" y="383.1748">signOut()</text></g><g class="message" data-participant-1="supabase" data-participant-2="supabase"><line style="stroke:#181818;stroke-width:2;" x1="614.2432" x2="656.2432" y1="418.3828" y2="418.3828"/><line style="stroke:#181818;stroke-width:2;" x1="656.2432" x2="656.2432" y1="418.3828" y2="431.3828"/><line style="stroke:#181818;stroke-width:2;" x1="615.2432" x2="656.2432" y1="431.3828" y2="431.3828"/><polygon fill="#181818" points="625.2432,427.3828,615.2432,431.3828,625.2432,435.3828,621.2432,431.3828" style="stroke:#181818;stroke-width:1;"/><text fill="#000000" font-family="sans-serif" font-size="13" lengthAdjust="spacing" textLength="104" x="621.2432" y="413.5264">&#12475;&#12483;&#12471;&#12519;&#12531;&#28961;&#21177;&#21270;</text></g><g class="message" data-participant-1="supabase" data-participant-2="handler"><polygon fill="#181818" points="432.228,457.7344,422.228,461.7344,432.228,465.7344,428.228,461.7344" style="stroke:#181818;stroke-width:1;"/><line style="stroke:#181818;stroke-width:2;stroke-dasharray:2.0,2.0;" x1="426.228" x2="608.2432" y1="461.7344" y2="461.7344"/><text fill="#000000" font-family="sans-serif" font-size="13" lengthAdjust="spacing" textLength="26" x="438.228" y="456.8779">&#25104;&#21151;</text></g><g class="message" data-participant-1="handler" data-participant-2="handler"><line style="stroke:#181818;stroke-width:2;" x1="421.228" x2="463.228" y1="499.0859" y2="499.0859"/><line style="stroke:#181818;stroke-width:2;" x1="463.228" x2="463.228" y1="499.0859" y2="512.0859"/><line style="stroke:#181818;stroke-width:2;" x1="422.228" x2="463.228" y1="512.0859" y2="512.0859"/><polygon fill="#181818" points="432.228,508.0859,422.228,512.0859,432.228,516.0859,428.228,512.0859" style="stroke:#181818;stroke-width:1;"/><text fill="#000000" font-family="sans-serif" font-size="13" font-weight="bold" lengthAdjust="spacing" textLength="106.6089" x="428.228" y="494.2295">revalidatePath('/',</text><text fill="#000000" font-family="sans-serif" font-size="13" font-weight="bold" lengthAdjust="spacing" textLength="3.6118" x="534.8369" y="494.2295">&#160;</text><text fill="#000000" font-family="sans-serif" font-size="13" font-weight="bold" lengthAdjust="spacing" textLength="48.7944" x="538.4487" y="494.2295">'layout')</text></g><path d="M426,530.0859 L426,579.0859 A5,5 0 0 0 431,584.0859 L598,584.0859 A5,5 0 0 0 603,579.0859 L603,535.0859 L593,525.0859 L431,525.0859 A5,5 0 0 0 426,530.0859" fill="#FFFDE7" style="stroke:#FBC02D;stroke-width:0.5;"/><path d="M593,525.0859 L593,532.5859 A2.5,2.5 0 0 0 595.5,535.0859 L603,535.0859 L593,525.0859" fill="#FFFDE7" style="stroke:#FBC02D;stroke-width:0.5;"/><text fill="#000000" font-family="sans-serif" font-size="13" font-weight="bold" lengthAdjust="spacing" textLength="132.2852" x="432" y="543.5811">&#37325;&#35201;: revalidatePath()</text><text fill="#000000" font-family="sans-serif" font-size="13" lengthAdjust="spacing" textLength="156" x="432" y="559.9326">&#12469;&#12540;&#12496;&#12540;&#20596;&#12391;&#12461;&#12515;&#12483;&#12471;&#12517;&#12434;</text><text fill="#000000" font-family="sans-serif" font-size="13" lengthAdjust="spacing" textLength="156" x="432" y="576.2842">&#28961;&#21177;&#21270;&#12375;&#12390;&#12487;&#12540;&#12479;&#12434;&#20877;&#21462;&#24471;</text><g class="message" data-participant-1="handler" data-participant-2="browser"><polygon fill="#181818" points="266,623.8438,256,627.8438,266,631.8438,262,627.8438" style="stroke:#181818;stroke-width:1;"/><line style="stroke:#181818;stroke-width:2;stroke-dasharray:2.0,2.0;" x1="260" x2="415.228" y1="627.8438" y2="627.8438"/><text fill="#000000" font-family="sans-serif" font-size="13" lengthAdjust="spacing" textLength="132.228" x="272" y="606.6357">NextResponse.redirect</text><text fill="#000000" font-family="sans-serif" font-size="13" lengthAdjust="spacing" textLength="43.9829" x="272" y="622.9873">('/login',</text><text fill="#000000" font-family="sans-serif" font-size="13" lengthAdjust="spacing" textLength="3.6118" x="315.9829" y="622.9873">&#160;</text><text fill="#000000" font-family="sans-serif" font-size="13" lengthAdjust="spacing" textLength="26.019" x="319.5947" y="622.9873">302)</text></g><g class="message" data-participant-1="browser" data-participant-2="user"><polygon fill="#181818" points="68,654.1953,58,658.1953,68,662.1953,64,658.1953" style="stroke:#181818;stroke-width:1;"/><line style="stroke:#181818;stroke-width:2;stroke-dasharray:2.0,2.0;" x1="62" x2="249" y1="658.1953" y2="658.1953"/><text fill="#000000" font-family="sans-serif" font-size="13" lengthAdjust="spacing" textLength="117" x="74" y="653.3389">&#12525;&#12464;&#12452;&#12531;&#12506;&#12540;&#12472;&#34920;&#31034;</text></g><!--SRC=[dLHTJnD157sVNp61XwMDjQL4qIOOeRJnHI4KtdmPjcExOTcjixkA4Xwwgr8GX9W8Vf0Ob8zg96fG56tanqmMy8c_uDsXNNPRU91ficdcddFcddllZDJptmj9cDi_k5FZzbVkR7DxrtspdSBSsUBs5sw_u_O6TohSUU7jEBMZMeNRtpsuimXVj_mDn_3-iwgxNZsgpO3OI1ftnf8j_F8hRZ-5yFxQoc6rbi9fNJFfXDcDRwO7GI5dbSWeCIZEvORSnv_SsW9tPhWD9wvpPzNBowaWwHpka36cQ2N2o3Wsw5sBQZBjPKo_FrnKv36D6WPE1Y1CjxIyh3EDCjoP20J6oSGuW4c16if3YfE9H50PlgOYAoMYcNWIOLXzH1uh2BMqhkeCjsTxlTznJ6TvokhxbyL2Kq4vJJVfcJhPR7-ckrKdsvTE9Fiz7LCnLNhU_Y4Yco3NnksgAFeCTpR4REp0jmqJ0ri6PIXek8qxIzpvu9rZxmZ8ADGNKBWzqvLDPll3w27T0dStY9PNARkjTSI9PHRZXbBG810H_E9nK9ZjoYJ2V7zIUe47_Ej6VIDk6EoOtzY11AvaBsMk8jJJqrmGxCs6vmN7hla9dpBsAzpU4zVYERS_S-SZTnpuuvL9kKV0I9sAK4C3v1hvf_3WG6uOXnoUCEieX1hm45Dc541fLQ6QsH49WNnxALoWvWWS2W1VjX55FYmM4fuK7SHJA4zREOYe9Wwsd9VdtAsNxafLJDpfINZE1YmlIm_JAkhjdYGJedBxjoWel3-RKEM3HwlkxAuxjzJ42HdOhoowisy5uZGBLCkVKT9ebD5xH5NoW1yaPh53YaiNiAII1z0NAHAD8d7nc58ecbY_upS80_FlzFpXHZc5cnGy4iPD5ugNDyNBzRvXRHsc1s2-ErvUvcMeyRGeynv4tIVpxiAI-sVPIr_S_u27q83UWaTpY1ebNJFeHKRp2gEo2TT0YgjwGT70K5SY6GasrvypVq91q0gF-vguxAz5FZyFLwi7QxzGKACnvVy0]--></g></svg>