<svg xmlns="http://www.w3.org/2000/svg" xmlns:xlink="http://www.w3.org/1999/xlink" contentStyleType="text/css" data-diagram-type="SEQUENCE" height="1237px" preserveAspectRatio="none" style="width:1102px;height:1237px;background:#FFFFFF;" version="1.1" viewBox="0 0 1102 1237" width="1102px" zoomAndPan="magnify"><title>&#12503;&#12525;&#12472;&#12455;&#12463;&#12488;&#20316;&#25104;&#12501;&#12525;&#12540;&#65288;UC 2-1&#65289;</title><defs/><g><text fill="#000000" font-family="sans-serif" font-size="14" font-weight="bold" lengthAdjust="spacing" textLength="232.0322" x="431.1284" y="29.5332">&#12503;&#12525;&#12472;&#12455;&#12463;&#12488;&#20316;&#25104;&#12501;&#12525;&#12540;&#65288;UC 2-1&#65289;</text><g><title>&lt;u&gt;&#12502;&#12521;&#12454;&#12470;</title><rect fill="#FFFFFF" height="928.2734" style="stroke:#181818;stroke-width:1;" width="10" x="283" y="201.5313"/></g><g><title>&lt;u&gt;Next.js</title><rect fill="#FFFFFF" height="479.1641" style="stroke:#181818;stroke-width:1;" width="10" x="521.2295" y="554.9375"/></g><g><title>&lt;u&gt;ProjectService</title><rect fill="#FFFFFF" height="402.1094" style="stroke:#181818;stroke-width:1;" width="10" x="709.0903" y="585.2891"/></g><g><title>&lt;u&gt;Supabase</title><rect fill="#FFFFFF" height="30.3516" style="stroke:#181818;stroke-width:1;" width="10" x="887.6982" y="631.9922"/></g><g><title>&lt;u&gt;Supabase</title><rect fill="#FFFFFF" height="99.4063" style="stroke:#181818;stroke-width:1;" width="10" x="887.6982" y="857.6406"/></g><rect fill="none" height="671.1094" rx="5" ry="5" style="stroke:#000000;stroke-width:1.5;" width="1075.2891" x="10" y="451.6953"/><rect fill="none" height="438.4609" rx="5" ry="5" style="stroke:#000000;stroke-width:1.5;" width="1055.2891" x="20" y="677.3438"/><g><title>&lt;u&gt;&#12456;&#12531;&#12489;&#12518;&#12540;&#12470;&#12540;</title><rect fill="#000000" fill-opacity="0.00000" height="1014.9766" width="8" x="78" y="124.8281"/><line style="stroke:#181818;stroke-width:0.5;stroke-dasharray:5.0,5.0;" x1="82" x2="82" y1="124.8281" y2="1139.8047"/></g><g><title>&lt;u&gt;&#12502;&#12521;&#12454;&#12470;</title><rect fill="#000000" fill-opacity="0.00000" height="1014.9766" width="8" x="284" y="124.8281"/><line style="stroke:#181818;stroke-width:0.5;stroke-dasharray:5.0,5.0;" x1="287.1035" x2="287.1035" y1="124.8281" y2="1139.8047"/></g><g><title>&lt;u&gt;Next.js</title><rect fill="#000000" fill-opacity="0.00000" height="1014.9766" width="8" x="522.2295" y="124.8281"/><line style="stroke:#181818;stroke-width:0.5;stroke-dasharray:5.0,5.0;" x1="525.8228" x2="525.8228" y1="124.8281" y2="1139.8047"/></g><g><title>&lt;u&gt;ProjectService</title><rect fill="#000000" fill-opacity="0.00000" height="1014.9766" width="8" x="710.0903" y="124.8281"/><line style="stroke:#181818;stroke-width:0.5;stroke-dasharray:5.0,5.0;" x1="713.9629" x2="713.9629" y1="124.8281" y2="1139.8047"/></g><g><title>&lt;u&gt;Supabase</title><rect fill="#000000" fill-opacity="0.00000" height="1014.9766" width="8" x="888.6982" y="124.8281"/><line style="stroke:#181818;stroke-width:0.5;stroke-dasharray:5.0,5.0;" x1="892.1709" x2="892.1709" y1="124.8281" y2="1139.8047"/></g><g class="participant participant-head" data-participant="user"><text fill="#000000" font-family="sans-serif" font-size="14" lengthAdjust="spacing" text-decoration="underline" textLength="98" x="30" y="121.752">&#12456;&#12531;&#12489;&#12518;&#12540;&#12470;&#12540;</text><ellipse cx="82" cy="55.7188" fill="#E2E2F0" rx="8" ry="8" style="stroke:#181818;stroke-width:0.5;"/><path d="M82,63.7188 L82,90.7188 M69,71.7188 L95,71.7188 M82,90.7188 L69,105.7188 M82,90.7188 L95,105.7188" fill="none" style="stroke:#181818;stroke-width:0.5;"/></g><g class="participant participant-tail" data-participant="user"><text fill="#000000" font-family="sans-serif" font-size="14" lengthAdjust="spacing" text-decoration="underline" textLength="98" x="30" y="1153.3379">&#12456;&#12531;&#12489;&#12518;&#12540;&#12470;&#12540;</text><ellipse cx="82" cy="1164.9141" fill="#E2E2F0" rx="8" ry="8" style="stroke:#181818;stroke-width:0.5;"/><path d="M82,1172.9141 L82,1199.9141 M69,1180.9141 L95,1180.9141 M82,1199.9141 L69,1214.9141 M82,1199.9141 L95,1214.9141" fill="none" style="stroke:#181818;stroke-width:0.5;"/></g><g class="participant participant-head" data-participant="browser"><rect fill="#E3F2FD" height="49.2188" rx="5" ry="5" style="stroke:#666666;stroke-width:0.5;" width="105.793" x="235.1035" y="74.6094"/><text fill="#000000" font-family="sans-serif" font-size="14" lengthAdjust="spacing" text-decoration="underline" textLength="56" x="260" y="96.1426">&#12502;&#12521;&#12454;&#12470;</text><text fill="#000000" font-family="sans-serif" font-size="14" lengthAdjust="spacing" text-decoration="underline" textLength="91.793" x="242.1035" y="113.752">(Next.js Client)</text></g><g class="participant participant-tail" data-participant="browser"><rect fill="#E3F2FD" height="49.2188" rx="5" ry="5" style="stroke:#666666;stroke-width:0.5;" width="105.793" x="235.1035" y="1138.8047"/><text fill="#000000" font-family="sans-serif" font-size="14" lengthAdjust="spacing" text-decoration="underline" textLength="56" x="260" y="1160.3379">&#12502;&#12521;&#12454;&#12470;</text><text fill="#000000" font-family="sans-serif" font-size="14" lengthAdjust="spacing" text-decoration="underline" textLength="91.793" x="242.1035" y="1177.9473">(Next.js Client)</text></g><g class="participant participant-head" data-participant="api"><rect fill="#FFF3E0" height="49.2188" rx="5" ry="5" style="stroke:#666666;stroke-width:0.5;" width="84.8135" x="483.8228" y="74.6094"/><text fill="#000000" font-family="sans-serif" font-size="14" lengthAdjust="spacing" text-decoration="underline" textLength="42.7861" x="504.8364" y="96.1426">Next.js</text><text fill="#000000" font-family="sans-serif" font-size="14" lengthAdjust="spacing" text-decoration="underline" textLength="70.8135" x="490.8228" y="113.752">API Routes</text></g><g class="participant participant-tail" data-participant="api"><rect fill="#FFF3E0" height="49.2188" rx="5" ry="5" style="stroke:#666666;stroke-width:0.5;" width="84.8135" x="483.8228" y="1138.8047"/><text fill="#000000" font-family="sans-serif" font-size="14" lengthAdjust="spacing" text-decoration="underline" textLength="42.7861" x="504.8364" y="1160.3379">Next.js</text><text fill="#000000" font-family="sans-serif" font-size="14" lengthAdjust="spacing" text-decoration="underline" textLength="70.8135" x="490.8228" y="1177.9473">API Routes</text></g><g class="participant participant-head" data-participant="service"><rect fill="#E8F5E9" height="31.6094" rx="5" ry="5" style="stroke:#666666;stroke-width:0.5;" width="104.2549" x="661.9629" y="92.2188"/><text fill="#000000" font-family="sans-serif" font-size="14" lengthAdjust="spacing" text-decoration="underline" textLength="90.2549" x="668.9629" y="113.752">ProjectService</text></g><g class="participant participant-tail" data-participant="service"><rect fill="#E8F5E9" height="31.6094" rx="5" ry="5" style="stroke:#666666;stroke-width:0.5;" width="104.2549" x="661.9629" y="1138.8047"/><text fill="#000000" font-family="sans-serif" font-size="14" lengthAdjust="spacing" text-decoration="underline" textLength="90.2549" x="668.9629" y="1160.3379">ProjectService</text></g><g class="participant participant-head" data-participant="storage"><text fill="#000000" font-family="sans-serif" font-size="14" lengthAdjust="spacing" text-decoration="underline" textLength="63.0547" x="858.1709" y="104.1426">Supabase</text><text fill="#000000" font-family="sans-serif" font-size="14" lengthAdjust="spacing" text-decoration="underline" textLength="49.0342" x="865.1812" y="121.752">Storage</text><path d="M874.6982,53.6094 C874.6982,43.6094 892.6982,43.6094 892.6982,43.6094 C892.6982,43.6094 910.6982,43.6094 910.6982,53.6094 L910.6982,79.6094 C910.6982,89.6094 892.6982,89.6094 892.6982,89.6094 C892.6982,89.6094 874.6982,89.6094 874.6982,79.6094 L874.6982,53.6094" fill="#FCE4EC" style="stroke:#181818;stroke-width:1.5;"/><path d="M874.6982,53.6094 C874.6982,63.6094 892.6982,63.6094 892.6982,63.6094 C892.6982,63.6094 910.6982,63.6094 910.6982,53.6094" fill="none" style="stroke:#181818;stroke-width:1.5;"/></g><g class="participant participant-tail" data-participant="storage"><text fill="#000000" font-family="sans-serif" font-size="14" lengthAdjust="spacing" text-decoration="underline" textLength="63.0547" x="858.1709" y="1153.3379">Supabase</text><text fill="#000000" font-family="sans-serif" font-size="14" lengthAdjust="spacing" text-decoration="underline" textLength="49.0342" x="865.1812" y="1170.9473">Storage</text><path d="M874.6982,1184.0234 C874.6982,1174.0234 892.6982,1174.0234 892.6982,1174.0234 C892.6982,1174.0234 910.6982,1174.0234 910.6982,1184.0234 L910.6982,1210.0234 C910.6982,1220.0234 892.6982,1220.0234 892.6982,1220.0234 C892.6982,1220.0234 874.6982,1220.0234 874.6982,1210.0234 L874.6982,1184.0234" fill="#FCE4EC" style="stroke:#181818;stroke-width:1.5;"/><path d="M874.6982,1184.0234 C874.6982,1194.0234 892.6982,1194.0234 892.6982,1194.0234 C892.6982,1194.0234 910.6982,1194.0234 910.6982,1184.0234" fill="none" style="stroke:#181818;stroke-width:1.5;"/></g><g><title>&lt;u&gt;&#12502;&#12521;&#12454;&#12470;</title><rect fill="#FFFFFF" height="928.2734" style="stroke:#181818;stroke-width:1;" width="10" x="283" y="201.5313"/></g><g><title>&lt;u&gt;Next.js</title><rect fill="#FFFFFF" height="479.1641" style="stroke:#181818;stroke-width:1;" width="10" x="521.2295" y="554.9375"/></g><g><title>&lt;u&gt;ProjectService</title><rect fill="#FFFFFF" height="402.1094" style="stroke:#181818;stroke-width:1;" width="10" x="709.0903" y="585.2891"/></g><g><title>&lt;u&gt;Supabase</title><rect fill="#FFFFFF" height="30.3516" style="stroke:#181818;stroke-width:1;" width="10" x="887.6982" y="631.9922"/></g><g><title>&lt;u&gt;Supabase</title><rect fill="#FFFFFF" height="99.4063" style="stroke:#181818;stroke-width:1;" width="10" x="887.6982" y="857.6406"/></g><rect fill="#EEEEEE" height="3" rx="5" ry="5" style="stroke:#EEEEEE;stroke-width:1;" width="1095.2891" x="0" y="156.0039"/><line style="stroke:#000000;stroke-width:1;" x1="0" x2="1095.2891" y1="156.0039" y2="156.0039"/><line style="stroke:#000000;stroke-width:1;" x1="0" x2="1095.2891" y1="159.0039" y2="159.0039"/><rect fill="#EEEEEE" height="24.3516" rx="5" ry="5" style="stroke:#000000;stroke-width:2;" width="151.6743" x="471.8074" y="144.8281"/><text fill="#000000" font-family="sans-serif" font-size="13" font-weight="bold" lengthAdjust="spacing" textLength="134.0625" x="477.8074" y="162.3232">&#12503;&#12525;&#12472;&#12455;&#12463;&#12488;&#20316;&#25104;&#38283;&#22987;</text><g class="message" data-participant-1="user" data-participant-2="browser"><polygon fill="#181818" points="271,197.5313,281,201.5313,271,205.5313,275,201.5313" style="stroke:#181818;stroke-width:1;"/><line style="stroke:#181818;stroke-width:2;" x1="82" x2="277" y1="201.5313" y2="201.5313"/><text fill="#000000" font-family="sans-serif" font-size="13" lengthAdjust="spacing" textLength="182" x="89" y="196.6748">&#12300;&#26032;&#35215;&#20316;&#25104;&#12301;&#12508;&#12479;&#12531;&#12434;&#12463;&#12522;&#12483;&#12463;</text></g><g class="message" data-participant-1="browser" data-participant-2="browser"><line style="stroke:#181818;stroke-width:2;" x1="293" x2="335" y1="248.2344" y2="248.2344"/><line style="stroke:#181818;stroke-width:2;" x1="335" x2="335" y1="248.2344" y2="261.2344"/><line style="stroke:#181818;stroke-width:2;" x1="294" x2="335" y1="261.2344" y2="261.2344"/><polygon fill="#181818" points="304,257.2344,294,261.2344,304,265.2344,300,261.2344" style="stroke:#181818;stroke-width:1;"/><text fill="#000000" font-family="sans-serif" font-size="13" lengthAdjust="spacing" textLength="117" x="300" y="227.0264">&#12503;&#12525;&#12472;&#12455;&#12463;&#12488;&#21517;&#20837;&#21147;</text><text fill="#000000" font-family="sans-serif" font-size="13" lengthAdjust="spacing" textLength="91" x="300" y="243.3779">&#12480;&#12452;&#12450;&#12525;&#12464;&#34920;&#31034;</text></g><g class="message" data-participant-1="user" data-participant-2="browser"><polygon fill="#181818" points="271,287.5859,281,291.5859,271,295.5859,275,291.5859" style="stroke:#181818;stroke-width:1;"/><line style="stroke:#181818;stroke-width:2;" x1="82" x2="277" y1="291.5859" y2="291.5859"/><text fill="#000000" font-family="sans-serif" font-size="13" lengthAdjust="spacing" textLength="130" x="89" y="286.7295">&#12503;&#12525;&#12472;&#12455;&#12463;&#12488;&#21517;&#12434;&#20837;&#21147;</text></g><g class="message" data-participant-1="browser" data-participant-2="browser"><line style="stroke:#181818;stroke-width:2;" x1="293" x2="335" y1="321.9375" y2="321.9375"/><line style="stroke:#181818;stroke-width:2;" x1="335" x2="335" y1="321.9375" y2="334.9375"/><line style="stroke:#181818;stroke-width:2;" x1="294" x2="335" y1="334.9375" y2="334.9375"/><polygon fill="#181818" points="304,330.9375,294,334.9375,304,338.9375,300,334.9375" style="stroke:#181818;stroke-width:1;"/><text fill="#000000" font-family="sans-serif" font-size="13" lengthAdjust="spacing" textLength="169" x="300" y="317.0811">&#12463;&#12521;&#12452;&#12450;&#12531;&#12488;&#12496;&#12522;&#12487;&#12540;&#12471;&#12519;&#12531;</text></g><path d="M298,352.9375 L298,433.9375 A5,5 0 0 0 303,438.9375 L490,438.9375 A5,5 0 0 0 495,433.9375 L495,357.9375 L485,347.9375 L303,347.9375 A5,5 0 0 0 298,352.9375" fill="#FFFDE7" style="stroke:#FBC02D;stroke-width:0.5;"/><path d="M485,347.9375 L485,355.4375 A2.5,2.5 0 0 0 487.5,357.9375 L495,357.9375 L485,347.9375" fill="#FFFDE7" style="stroke:#FBC02D;stroke-width:0.5;"/><text fill="#000000" font-family="sans-serif" font-size="13" font-weight="bold" lengthAdjust="spacing" textLength="134.0625" x="304" y="366.4326">&#12496;&#12522;&#12487;&#12540;&#12471;&#12519;&#12531;&#12523;&#12540;&#12523;</text><text fill="#000000" font-family="sans-serif" font-size="13" lengthAdjust="spacing" textLength="176.9409" x="304" y="382.7842">- &#24517;&#38920;&#12481;&#12455;&#12483;&#12463;&#65288;&#31354;&#25991;&#23383;&#19981;&#21487;&#65289;</text><text fill="#000000" font-family="sans-serif" font-size="13" lengthAdjust="spacing" textLength="166.8608" x="304" y="399.1357">- &#25991;&#23383;&#25968;&#21046;&#38480;&#65288;1&#12316;100&#25991;&#23383;&#65289;</text><text fill="#000000" font-family="sans-serif" font-size="13" lengthAdjust="spacing" textLength="111.9409" x="304" y="415.4873">- &#31105;&#27490;&#25991;&#23383;&#12481;&#12455;&#12483;&#12463;</text><text fill="#000000" font-family="sans-serif" font-size="13" lengthAdjust="spacing" textLength="75.1943" x="311.2236" y="431.8389">&lt; &gt; : " / \ | ? *</text><path d="M15,451.6953 L70.1709,451.6953 L70.1709,460.0469 L60.1709,470.0469 L10,470.0469 L10,456.6953 A5,5 0 0 1 15,451.6953" fill="#EEEEEE" style="stroke:#000000;stroke-width:1.5;"/><rect fill="none" height="671.1094" rx="5" ry="5" style="stroke:#000000;stroke-width:1.5;" width="1075.2891" x="10" y="451.6953"/><text fill="#000000" font-family="sans-serif" font-size="13" font-weight="bold" lengthAdjust="spacing" textLength="15.1709" x="25" y="466.1904">alt</text><text fill="#000000" font-family="sans-serif" font-size="11" font-weight="bold" lengthAdjust="spacing" textLength="103.2324" x="85.1709" y="465.1143">[&#12496;&#12522;&#12487;&#12540;&#12471;&#12519;&#12531;NG]</text><g class="message" data-participant-1="browser" data-participant-2="user"><polygon fill="#181818" points="93,488.3984,83,492.3984,93,496.3984,89,492.3984" style="stroke:#181818;stroke-width:1;"/><line style="stroke:#181818;stroke-width:2;stroke-dasharray:2.0,2.0;" x1="87" x2="282" y1="492.3984" y2="492.3984"/><text fill="#000000" font-family="sans-serif" font-size="13" lengthAdjust="spacing" textLength="156" x="99" y="487.542">&#12496;&#12522;&#12487;&#12540;&#12471;&#12519;&#12531;&#12456;&#12521;&#12540;&#34920;&#31034;</text></g><line style="stroke:#000000;stroke-width:1;stroke-dasharray:2.0,2.0;" x1="10" x2="1085.2891" y1="501.3984" y2="501.3984"/><text fill="#000000" font-family="sans-serif" font-size="11" font-weight="bold" lengthAdjust="spacing" textLength="103.2324" x="15" y="512.8174">[&#12496;&#12522;&#12487;&#12540;&#12471;&#12519;&#12531;OK]</text><g class="message" data-participant-1="browser" data-participant-2="api"><polygon fill="#181818" points="509.2295,550.9375,519.2295,554.9375,509.2295,558.9375,513.2295,554.9375" style="stroke:#181818;stroke-width:1;"/><line style="stroke:#181818;stroke-width:2;" x1="293" x2="515.2295" y1="554.9375" y2="554.9375"/><text fill="#000000" font-family="sans-serif" font-size="13" lengthAdjust="spacing" textLength="35.3945" x="300" y="533.7295">POST</text><text fill="#000000" font-family="sans-serif" font-size="13" lengthAdjust="spacing" textLength="3.6118" x="335.3945" y="533.7295">&#160;</text><text fill="#000000" font-family="sans-serif" font-size="13" lengthAdjust="spacing" textLength="70.0908" x="339.0063" y="533.7295">/api/projects</text><text fill="#000000" font-family="sans-serif" font-size="13" lengthAdjust="spacing" textLength="4.3418" x="300" y="550.0811">{</text><text fill="#000000" font-family="sans-serif" font-size="13" lengthAdjust="spacing" textLength="3.6118" x="304.3418" y="550.0811">&#160;</text><text fill="#000000" font-family="sans-serif" font-size="13" lengthAdjust="spacing" textLength="36.1309" x="307.9536" y="550.0811">name:</text><text fill="#000000" font-family="sans-serif" font-size="13" lengthAdjust="spacing" textLength="3.6118" x="344.0845" y="550.0811">&#160;</text><text fill="#000000" font-family="sans-serif" font-size="13" lengthAdjust="spacing" textLength="100.2295" x="347.6963" y="550.0811">"&#12503;&#12525;&#12472;&#12455;&#12463;&#12488;&#21517;"</text><text fill="#000000" font-family="sans-serif" font-size="13" lengthAdjust="spacing" textLength="3.6118" x="447.9258" y="550.0811">&#160;</text><text fill="#000000" font-family="sans-serif" font-size="13" lengthAdjust="spacing" textLength="4.3418" x="451.5376" y="550.0811">}</text></g><g class="message" data-participant-1="api" data-participant-2="service"><polygon fill="#181818" points="697.0903,581.2891,707.0903,585.2891,697.0903,589.2891,701.0903,585.2891" style="stroke:#181818;stroke-width:1;"/><line style="stroke:#181818;stroke-width:2;" x1="531.2295" x2="703.0903" y1="585.2891" y2="585.2891"/><text fill="#000000" font-family="sans-serif" font-size="13" lengthAdjust="spacing" textLength="117.7681" x="538.2295" y="580.4326">createProject(name)</text></g><g class="message" data-participant-1="service" data-participant-2="storage"><polygon fill="#181818" points="875.6982,627.9922,885.6982,631.9922,875.6982,635.9922,879.6982,631.9922" style="stroke:#181818;stroke-width:1;"/><line style="stroke:#181818;stroke-width:2;" x1="719.0903" x2="881.6982" y1="631.9922" y2="631.9922"/><text fill="#000000" font-family="sans-serif" font-size="13" lengthAdjust="spacing" textLength="104" x="726.0903" y="610.7842">&#12501;&#12457;&#12523;&#12480;&#23384;&#22312;&#30906;&#35469;</text><text fill="#000000" font-family="sans-serif" font-size="13" lengthAdjust="spacing" textLength="149.6079" x="726.0903" y="627.1357">/{user_id}/{project_name}/</text></g><g class="message" data-participant-1="storage" data-participant-2="service"><polygon fill="#181818" points="730.0903,658.3438,720.0903,662.3438,730.0903,666.3438,726.0903,662.3438" style="stroke:#181818;stroke-width:1;"/><line style="stroke:#181818;stroke-width:2;stroke-dasharray:2.0,2.0;" x1="724.0903" x2="891.6982" y1="662.3438" y2="662.3438"/><text fill="#000000" font-family="sans-serif" font-size="13" lengthAdjust="spacing" textLength="52" x="736.0903" y="657.4873">&#23384;&#22312;&#26377;&#28961;</text></g><path d="M25,677.3438 L80.1709,677.3438 L80.1709,685.6953 L70.1709,695.6953 L20,695.6953 L20,682.3438 A5,5 0 0 1 25,677.3438" fill="#EEEEEE" style="stroke:#000000;stroke-width:1.5;"/><rect fill="none" height="438.4609" rx="5" ry="5" style="stroke:#000000;stroke-width:1.5;" width="1055.2891" x="20" y="677.3438"/><text fill="#000000" font-family="sans-serif" font-size="13" font-weight="bold" lengthAdjust="spacing" textLength="15.1709" x="35" y="691.8389">alt</text><text fill="#000000" font-family="sans-serif" font-size="11" font-weight="bold" lengthAdjust="spacing" textLength="120.7637" x="95.1709" y="690.7627">[&#21516;&#21517;&#12503;&#12525;&#12472;&#12455;&#12463;&#12488;&#23384;&#22312;]</text><g class="message" data-participant-1="service" data-participant-2="api"><polygon fill="#181818" points="542.2295,714.0469,532.2295,718.0469,542.2295,722.0469,538.2295,718.0469" style="stroke:#181818;stroke-width:1;"/><line style="stroke:#181818;stroke-width:2;stroke-dasharray:2.0,2.0;" x1="536.2295" x2="708.0903" y1="718.0469" y2="718.0469"/><text fill="#000000" font-family="sans-serif" font-size="13" lengthAdjust="spacing" textLength="32.5" x="548.2295" y="713.1904">Error:</text><text fill="#000000" font-family="sans-serif" font-size="13" lengthAdjust="spacing" textLength="3.6118" x="580.7295" y="713.1904">&#160;</text><text fill="#000000" font-family="sans-serif" font-size="13" lengthAdjust="spacing" textLength="117.749" x="584.3413" y="713.1904">DUPLICATE_NAME</text></g><g class="message" data-participant-1="api" data-participant-2="browser"><polygon fill="#181818" points="304,760.75,294,764.75,304,768.75,300,764.75" style="stroke:#181818;stroke-width:1;"/><line style="stroke:#181818;stroke-width:2;stroke-dasharray:2.0,2.0;" x1="298" x2="520.2295" y1="764.75" y2="764.75"/><text fill="#000000" font-family="sans-serif" font-size="13" lengthAdjust="spacing" textLength="21.6899" x="310" y="743.542">409</text><text fill="#000000" font-family="sans-serif" font-size="13" lengthAdjust="spacing" textLength="3.6118" x="331.6899" y="743.542">&#160;</text><text fill="#000000" font-family="sans-serif" font-size="13" lengthAdjust="spacing" textLength="43.3481" x="335.3018" y="743.542">Conflict</text><text fill="#000000" font-family="sans-serif" font-size="13" lengthAdjust="spacing" textLength="204.2295" x="310" y="759.8936">"&#21516;&#21517;&#12398;&#12503;&#12525;&#12472;&#12455;&#12463;&#12488;&#12364;&#23384;&#22312;&#12375;&#12414;&#12377;"</text></g><g class="message" data-participant-1="browser" data-participant-2="user"><polygon fill="#181818" points="93,791.1016,83,795.1016,93,799.1016,89,795.1016" style="stroke:#181818;stroke-width:1;"/><line style="stroke:#181818;stroke-width:2;stroke-dasharray:2.0,2.0;" x1="87" x2="282" y1="795.1016" y2="795.1016"/><text fill="#000000" font-family="sans-serif" font-size="13" lengthAdjust="spacing" textLength="130" x="99" y="790.2451">&#12456;&#12521;&#12540;&#12513;&#12483;&#12475;&#12540;&#12472;&#34920;&#31034;</text></g><line style="stroke:#000000;stroke-width:1;stroke-dasharray:2.0,2.0;" x1="20" x2="1075.2891" y1="804.1016" y2="804.1016"/><text fill="#000000" font-family="sans-serif" font-size="11" font-weight="bold" lengthAdjust="spacing" textLength="52.7012" x="25" y="815.5205">[&#21516;&#21517;&#12394;&#12375;]</text><g class="message" data-participant-1="service" data-participant-2="storage"><polygon fill="#181818" points="875.6982,853.6406,885.6982,857.6406,875.6982,861.6406,879.6982,857.6406" style="stroke:#181818;stroke-width:1;"/><line style="stroke:#181818;stroke-width:2;" x1="719.0903" x2="881.6982" y1="857.6406" y2="857.6406"/><text fill="#000000" font-family="sans-serif" font-size="13" lengthAdjust="spacing" textLength="78" x="726.0903" y="836.4326">&#12501;&#12457;&#12523;&#12480;&#20316;&#25104;</text><text fill="#000000" font-family="sans-serif" font-size="13" lengthAdjust="spacing" textLength="149.6079" x="726.0903" y="852.7842">/{user_id}/{project_name}/</text></g><path d="M902,875.6406 L902,924.6406 A5,5 0 0 0 907,929.6406 L1060,929.6406 A5,5 0 0 0 1065,924.6406 L1065,880.6406 L1055,870.6406 L907,870.6406 A5,5 0 0 0 902,875.6406" fill="#FFFDE7" style="stroke:#FBC02D;stroke-width:0.5;"/><path d="M1055,870.6406 L1055,878.1406 A2.5,2.5 0 0 0 1057.5,880.6406 L1065,880.6406 L1055,870.6406" fill="#FFFDE7" style="stroke:#FBC02D;stroke-width:0.5;"/><text fill="#000000" font-family="sans-serif" font-size="13" font-weight="bold" lengthAdjust="spacing" textLength="117.1206" x="908" y="889.1357">Storage Policy&#36969;&#29992;</text><text fill="#000000" font-family="sans-serif" font-size="13" lengthAdjust="spacing" textLength="142.2891" x="908" y="905.4873">RLS&#12395;&#12424;&#12426;&#33258;&#12518;&#12540;&#12470;&#12540;&#12398;</text><text fill="#000000" font-family="sans-serif" font-size="13" lengthAdjust="spacing" textLength="130" x="908" y="921.8389">&#12501;&#12457;&#12523;&#12480;&#12398;&#12415;&#20316;&#25104;&#21487;&#33021;</text><g class="message" data-participant-1="storage" data-participant-2="service"><polygon fill="#181818" points="730.0903,953.0469,720.0903,957.0469,730.0903,961.0469,726.0903,957.0469" style="stroke:#181818;stroke-width:1;"/><line style="stroke:#181818;stroke-width:2;stroke-dasharray:2.0,2.0;" x1="724.0903" x2="891.6982" y1="957.0469" y2="957.0469"/><text fill="#000000" font-family="sans-serif" font-size="13" lengthAdjust="spacing" textLength="52" x="736.0903" y="952.1904">&#20316;&#25104;&#25104;&#21151;</text></g><g class="message" data-participant-1="service" data-participant-2="api"><polygon fill="#181818" points="542.2295,983.3984,532.2295,987.3984,542.2295,991.3984,538.2295,987.3984" style="stroke:#181818;stroke-width:1;"/><line style="stroke:#181818;stroke-width:2;stroke-dasharray:2.0,2.0;" x1="536.2295" x2="713.0903" y1="987.3984" y2="987.3984"/><text fill="#000000" font-family="sans-serif" font-size="13" lengthAdjust="spacing" textLength="92.46" x="548.2295" y="982.542">Project&#20316;&#25104;&#23436;&#20102;</text></g><g class="message" data-participant-1="api" data-participant-2="browser"><polygon fill="#181818" points="304,1030.1016,294,1034.1016,304,1038.1016,300,1034.1016" style="stroke:#181818;stroke-width:1;"/><line style="stroke:#181818;stroke-width:2;stroke-dasharray:2.0,2.0;" x1="298" x2="525.2295" y1="1034.1016" y2="1034.1016"/><text fill="#000000" font-family="sans-serif" font-size="13" lengthAdjust="spacing" textLength="21.6899" x="310" y="1012.8936">201</text><text fill="#000000" font-family="sans-serif" font-size="13" lengthAdjust="spacing" textLength="3.6118" x="331.6899" y="1012.8936">&#160;</text><text fill="#000000" font-family="sans-serif" font-size="13" lengthAdjust="spacing" textLength="46.249" x="335.3018" y="1012.8936">Created</text><text fill="#000000" font-family="sans-serif" font-size="13" lengthAdjust="spacing" textLength="4.3418" x="310" y="1029.2451">{</text><text fill="#000000" font-family="sans-serif" font-size="13" lengthAdjust="spacing" textLength="3.6118" x="314.3418" y="1029.2451">&#160;</text><text fill="#000000" font-family="sans-serif" font-size="13" lengthAdjust="spacing" textLength="39.019" x="317.9536" y="1029.2451">project</text><text fill="#000000" font-family="sans-serif" font-size="13" lengthAdjust="spacing" textLength="3.6118" x="356.9727" y="1029.2451">&#160;</text><text fill="#000000" font-family="sans-serif" font-size="13" lengthAdjust="spacing" textLength="4.3418" x="360.5845" y="1029.2451">}</text></g><g class="message" data-participant-1="browser" data-participant-2="browser"><line style="stroke:#181818;stroke-width:2;" x1="293" x2="335" y1="1064.4531" y2="1064.4531"/><line style="stroke:#181818;stroke-width:2;" x1="335" x2="335" y1="1064.4531" y2="1077.4531"/><line style="stroke:#181818;stroke-width:2;" x1="294" x2="335" y1="1077.4531" y2="1077.4531"/><polygon fill="#181818" points="304,1073.4531,294,1077.4531,304,1081.4531,300,1077.4531" style="stroke:#181818;stroke-width:1;"/><text fill="#000000" font-family="sans-serif" font-size="13" lengthAdjust="spacing" textLength="130" x="300" y="1059.5967">&#12503;&#12525;&#12472;&#12455;&#12463;&#12488;&#19968;&#35239;&#26356;&#26032;</text></g><g class="message" data-participant-1="browser" data-participant-2="user"><polygon fill="#181818" points="93,1103.8047,83,1107.8047,93,1111.8047,89,1107.8047" style="stroke:#181818;stroke-width:1;"/><line style="stroke:#181818;stroke-width:2;stroke-dasharray:2.0,2.0;" x1="87" x2="282" y1="1107.8047" y2="1107.8047"/><text fill="#000000" font-family="sans-serif" font-size="13" lengthAdjust="spacing" textLength="117" x="99" y="1102.9482">&#23436;&#20102;&#12513;&#12483;&#12475;&#12540;&#12472;&#34920;&#31034;</text></g><!--SRC=[dLPRJnj757xVNp5o7aYi6gzDaZPMeN9ygQAcn0hapHBQs1EomUowk-iqAKMoTqkv2nGLA0Af1IM0GKweg59AIVWnmzhcAN-XPsRMcpMiYTf1GiFiTxvp-yuCNRt_UGbTY9X_4UkOc7yGwu2OVzjh1p54h1LYrOXvICnjOhuXrjJfk_Nwr2AnbkYvTGns3n8e6ehuG8dvma5NLeav2r1xmMnCRCTG_LNDdbrrIS0Lwkc-qHtv30qcGw9uK-Zw7na8-eYi52LD6aKw_gw4bHoEQvhw_U1ZEJUYO5r7KGz4KqjAFgTg2jPGHFHy69MUZG9O6iQw_0D6KL7q8Sv8cY7dvAAa60Xui5QG5UoDeEW1Z0a8rcqfDpBCl2RKWggXA-au_U7VL0qudFERR0dZNZf5DN17ddGwcVhy8a_wTaAC9YcF8Hi5_EbUVZYUuhtyS3mj25BE09O0CNUe7gnfOcqnURo5tm4awQYaOqtmvXaWrZAngiJS0bHMkTgFdndTJtIKACXOCQuneuVG4B13Lr8zwMWwsMxl66ILUEOEkg-M3Amp8waeipHxKcAxGKPJd-2SCO2rft8ECwpEz-3WY_IDr2qXBndIGqd7A31GAh9TLXc0pA2_7C_tm9z8NKyb1A6tjsEbpfPdxUrPHBL6aqUXFZSV69NoN7rvlxcru5IrF4-iTMAUi6bwmMXsYMN1XfPMVYf1HnrhGMZHj3DU2CDUdBSdNjapQrc5M6LYlYJc9eFiDpTs6Y-FVEFoOu68E54drnHORJaueCDiBR849fa8uAROXdD1OCBKvE771b8VkVaW50pw6X1hZ_vfxGM300eX-sJYx7VWhj3WM750X8tgKNrvqgwjd1xEsmjlg1efbf_Lb_RjgRTdgui0Z93oUaGK-OSMhB5LgTSs-PcNc0t8bwWFiWkWCCgY7z5NA2XW9S-c2mHVC91lqFrVCrktK52fKgksVZdIYQd2YTCJND2nF_BUD-t4VKpfCPIvDp28mh0F5xd0OIJ6a2ADuXWTCfz-1j0uetAL1SO2Fm5686wDHGpbD0m0PtAkKj9hxQOEb9ktx2Y5CoaqxILYLbalotRjLtjzfx5vrDoTpohXCLgP8Ja_7XvpOX-YBiR3vtnmBkx2uGsrXSbvw-lJZPys62oFBrXpJcYRlJX7HNsnCeo4mTgISIkTWWT2Yw7aWypTEuduO6geF_vjoiMpshNDnNNn5ageogE2d3EoIi3nMtdjy_XLvhXtKbaXbVVm10PSNZybjKH3h0scrt-OK0uT3L4hfgEMnrsWlPXNfoRnA-cJxV5jaVkbVTIz7UGh67JkLPHHeJxFpohLnYyxRD1Rw_xT0LBP8oRyQp3JdDprFYbGH0_G6pmjR-M4fm3NGTDwvm8_3gzR2bynSMDgF_ER2-qaA7-bE0FZXF5wxlJePrycx_3uQoWgHb223M6UZhNJ1sU0pz6vOtpkdhZiUZyzB3UtjkjhVy9pT9daU1ANw4t9qzjH43pnj2xuVm40]--></g></svg>