<svg xmlns="http://www.w3.org/2000/svg" xmlns:xlink="http://www.w3.org/1999/xlink" contentStyleType="text/css" data-diagram-type="DESCRIPTION" height="206.1px" preserveAspectRatio="none" style="width:433px;height:206px;background:#FFFFFF;" version="1.1" viewBox="0 0 433 206" width="433.8px" zoomAndPan="magnify"><title>&#12487;&#12540;&#12479;&#12501;&#12525;&#12540;&#22259; - &#12524;&#12505;&#12523;1-A&#65288;&#35469;&#35388;&#12501;&#12525;&#12540;&#65289;</title><defs/><g><text fill="#000000" font-family="sans-serif" font-size="12.6" font-weight="bold" lengthAdjust="spacing" textLength="252.3938" x="84.4575" y="22.0799">&#12487;&#12540;&#12479;&#12501;&#12525;&#12540;&#22259; - &#12524;&#12505;&#12523;1-A&#65288;&#35469;&#35388;&#12501;&#12525;&#12540;&#65289;</text><!--entity user--><g class="entity" data-entity="user" data-source-line="8" data-uid="ent0002" id="entity_user"><rect fill="#ADD8E6" height="30.4523" rx="6.75" ry="6.75" style="stroke:#181818;stroke-width:0.45;" width="87.3" x="71.631" y="168.8484"/><text fill="#000000" font-family="sans-serif" font-size="9.9" lengthAdjust="spacing" textLength="69.3" x="80.631" y="188.1255">&#12456;&#12531;&#12489;&#12518;&#12540;&#12470;&#12540;</text></g><!--entity P1--><g class="entity" data-entity="P1" data-source-line="10" data-uid="ent0003" id="entity_P1"><ellipse cx="227.781" cy="57.2484" fill="#E3F2FD" rx="7.2" ry="7.2" style="stroke:#181818;stroke-width:0.45;"/><text fill="#000000" font-family="sans-serif" font-size="9.9" lengthAdjust="spacing" textLength="20.3656" x="218.9735" y="82.8255">P1.0</text><text fill="#000000" font-family="sans-serif" font-size="9.9" lengthAdjust="spacing" textLength="19.8" x="216.2229" y="95.2778">&#35469;&#35388;</text><text fill="#000000" font-family="sans-serif" font-size="9.9" lengthAdjust="spacing" textLength="19.8" x="216.2229" y="107.7302">&#20966;&#29702;</text></g><!--entity D2--><g class="entity" data-entity="D2" data-source-line="12" data-uid="ent0004" id="entity_D2"><rect fill="#FFF8E1" height="33.9047" rx="6.75" ry="6.75" style="stroke:#181818;stroke-width:0.45;" width="178.2277" x="250.281" y="167.0484"/><text fill="#000000" font-family="sans-serif" font-size="9.9" lengthAdjust="spacing" textLength="154.8277" x="259.281" y="192.4778">user_id | access_token | expires_at</text><line style="stroke:#181818;stroke-width:0.9;" x1="251.181" x2="310.5166" y1="175.9746" y2="175.9746"/><line style="stroke:#181818;stroke-width:0.9;" x1="251.181" x2="310.5166" y1="177.7746" y2="177.7746"/><text fill="#000000" font-family="sans-serif" font-size="9.9" lengthAdjust="spacing" textLength="57.7564" x="310.5166" y="179.5755">D2: &#35469;&#35388;&#24773;&#22577;</text><line style="stroke:#181818;stroke-width:0.9;" x1="368.2731" x2="427.6087" y1="175.9746" y2="175.9746"/><line style="stroke:#181818;stroke-width:0.9;" x1="368.2731" x2="427.6087" y1="177.7746" y2="177.7746"/></g><g class="entity" data-entity="GMN9" data-source-line="20" data-uid="ent0010" id="entity_GMN9"><path d="M267.831,46.8984 L267.831,53.6484 L236.106,57.2484 L267.831,60.8484 L267.831,67.3031 A6.75,6.75 0 0 0 274.581,74.0531 L366.0888,74.0531 A6.75,6.75 0 0 0 372.8388,67.3031 L372.8388,49.1484 L363.8388,40.1484 L274.581,40.1484 A6.75,6.75 0 0 0 267.831,46.8984" fill="#FEFFDD" style="stroke:#181818;stroke-width:0.45;"/><path d="M363.8388,40.1484 L363.8388,45.7734 A3.375,3.375 0 0 0 367.2138,49.1484 L372.8388,49.1484 L363.8388,40.1484" fill="#FEFFDD" style="stroke:#181818;stroke-width:0.45;"/><text fill="#000000" font-family="sans-serif" font-size="9.9" lengthAdjust="spacing" textLength="86.1078" x="273.231" y="54.9255">OAuth + PKCE&#35469;&#35388;</text><text fill="#000000" font-family="sans-serif" font-size="9.9" lengthAdjust="spacing" textLength="85.286" x="273.231" y="67.3778">Google/GitHub&#23550;&#24540;</text></g><!--link user to P1--><g class="link" data-entity-1="user" data-entity-2="P1" data-source-line="14" data-uid="lnk5" id="link_user_P1"><path d="M118.854,168.6864 C123.804,151.0014 134.244,121.0854 152.181,101.3484 C171.693,79.8654 199.3797,68.1362 214.5447,62.6912" fill="none" id="user-to-P1" style="stroke:#181818;stroke-width:0.9;"/><polygon fill="#181818" points="219.627,60.8664,210.787,60.2154,215.3917,62.3871,213.22,66.9919,219.627,60.8664" style="stroke:#181818;stroke-width:0.9;"/><text fill="#000000" font-family="sans-serif" font-size="9.9" lengthAdjust="spacing" textLength="21.9995" x="194.3608" y="112.5255">DF-1</text><text fill="#000000" font-family="sans-serif" font-size="9.9" lengthAdjust="spacing" textLength="59.4" x="175.6605" y="124.9778">&#12525;&#12464;&#12452;&#12531;&#35201;&#27714;</text><text fill="#000000" font-family="sans-serif" font-size="9.9" lengthAdjust="spacing" textLength="104.5591" x="153.081" y="137.4302">{provider, code_verifier}</text></g><!--link P1 to user--><g class="link" data-entity-1="P1" data-entity-2="user" data-source-line="17" data-uid="lnk8" id="link_P1_user"><path d="M219.456,58.4994 C183.582,60.2184 42.705,68.9754 16.281,101.3484 C5.4,114.6684 6.858,125.6574 16.281,140.0484 C28.602,158.8764 45.9487,168.0168 66.4057,174.0378" fill="none" id="P1-to-user" style="stroke:#181818;stroke-width:0.9;"/><polygon fill="#181818" points="71.586,175.5624,64.832,169.8219,67.2691,174.2919,62.7991,176.7289,71.586,175.5624" style="stroke:#181818;stroke-width:0.9;"/><text fill="#000000" font-family="sans-serif" font-size="9.9" lengthAdjust="spacing" textLength="21.9995" x="58.7412" y="112.5255">DF-2</text><text fill="#000000" font-family="sans-serif" font-size="9.9" lengthAdjust="spacing" textLength="59.4" x="40.0409" y="124.9778">&#35469;&#35388;&#12488;&#12540;&#12463;&#12531;</text><text fill="#000000" font-family="sans-serif" font-size="9.9" lengthAdjust="spacing" textLength="105.1198" x="17.181" y="137.4302">{access_token, user_id}</text></g><!--link P1 to D2--><g class="link" data-entity-1="P1" data-entity-2="D2" data-source-line="15" data-uid="lnk6" id="link_P1_D2"><path d="M233.919,65.5194 C250.416,85.3194 294.552,138.2754 296.181,140.0484 C304.479,149.1294 310.2723,155.0678 318.3453,162.9878" fill="none" id="P1-to-D2" style="stroke:#181818;stroke-width:0.9;"/><polygon fill="#181818" points="322.2,166.7694,318.939,158.5271,318.9877,163.618,313.8968,163.6667,322.2,166.7694" style="stroke:#181818;stroke-width:0.9;"/><text fill="#000000" font-family="sans-serif" font-size="9.9" lengthAdjust="spacing" textLength="69.3" x="297.081" y="118.8255">&#12475;&#12483;&#12471;&#12519;&#12531;&#20445;&#23384;</text><text fill="#000000" font-family="sans-serif" font-size="9.9" lengthAdjust="spacing" textLength="64.9542" x="299.2539" y="131.2778">{session_data}</text></g><!--link D2 to P1--><g class="link" data-entity-1="D2" data-entity-2="P1" data-source-line="16" data-uid="lnk7" id="link_D2_P1"><path d="M354.438,167.0034 C368.946,149.3364 386.559,120.9954 370.881,101.3484 C337.104,59.0304 301.833,95.7234 252.081,74.3484 C246.303,71.8644 244.7748,71.1867 240.2388,67.8477" fill="none" id="D2-to-P1" style="stroke:#181818;stroke-width:0.9;"/><polygon fill="#181818" points="235.89,64.6464,240.2791,72.3475,239.514,67.3141,244.5474,66.549,235.89,64.6464" style="stroke:#181818;stroke-width:0.9;"/><text fill="#000000" font-family="sans-serif" font-size="9.9" lengthAdjust="spacing" textLength="39.6" x="377.1955" y="118.8255">&#35469;&#35388;&#30906;&#35469;</text><text fill="#000000" font-family="sans-serif" font-size="9.9" lengthAdjust="spacing" textLength="39.629" x="377.181" y="131.2778">{is_valid}</text></g><!--SRC=[JL5DQnD16BxFhtX9ZdPhDoBOG8JQP2ie6EXrOPdkJf8XwqoOdOsYvk0EslOWU14K5KGa5hMqfL11W_anuxQvzI_uxgQ6N8RvUBxUPpJNCGDhTgsPs6ngpHjh3d6Vlpy51-z_MFFEck-kit4vsPjzUpKxc2mmbvDzaeGK-MkhwuGaVIu6LD67i4F3VbV9L4IRCfOA7lMuPall4UlGDDQU57gRFs7WkakFLpmbc0Bt9Y6AXPgABhfKR7PWpQar-zQCoxndk5Q09f0cYAxUvzsUlXEdZ92Ggx2WGDjTNVF5FBalyjtnnUkNK7BQBbHRDxoQrqGuLH5K6erchGvpxBbvaNywQJHyKMW7F89dGCEG9KcWPPy9FBB70wvO4b1TwZLhKFKyxrRB9QJCupYt2vCwD3t7zKLHMdPiioyumspy_FmayyNJWP937Z6r0g6CM31aYdSuKoE2n8AFedMmsMzhZCr-MlCLoN-d7_F3jqXEC0sN8eYefYE2q8NZV8QBpxzmWq2U14CQysWXM-OhWzN-bsFDNjdf4JeWPNdM5RZgO4I8a9g1Aee6sK4p0l1W8zKzk0RjUvkjkHPURac9VtPzY-kxwKv-z2UVVY1CH53moJy0]--></g></svg>