<svg xmlns="http://www.w3.org/2000/svg" xmlns:xlink="http://www.w3.org/1999/xlink" contentStyleType="text/css" data-diagram-type="DESCRIPTION" height="522.75px" preserveAspectRatio="none" style="width:760px;height:522px;background:#FFFFFF;" version="1.1" viewBox="0 0 760 522" width="760.75px" zoomAndPan="magnify"><title>&#12487;&#12540;&#12479;&#12501;&#12525;&#12540;&#22259; - &#12524;&#12505;&#12523;1-B&#65288;&#22259;&#34920;&#25805;&#20316;&#12501;&#12525;&#12540;&#65289;</title><defs/><g><text fill="#000000" font-family="sans-serif" font-size="11.9" font-weight="bold" lengthAdjust="spacing" textLength="262.9156" x="243.3244" y="20.8532">&#12487;&#12540;&#12479;&#12501;&#12525;&#12540;&#22259; - &#12524;&#12505;&#12523;1-B&#65288;&#22259;&#34920;&#25805;&#20316;&#12501;&#12525;&#12540;&#65289;</text><!--entity user--><g class="entity" data-entity="user" data-source-line="8" data-uid="ent0002" id="entity_user"><rect fill="#ADD8E6" height="27.6914" rx="6.375" ry="6.375" style="stroke:#181818;stroke-width:0.425;" width="76.5" x="345.015" y="38.768"/><text fill="#000000" font-family="sans-serif" font-size="8.5" lengthAdjust="spacing" textLength="59.5" x="353.515" y="56.0917">&#12456;&#12531;&#12489;&#12518;&#12540;&#12470;&#12540;</text></g><!--entity P2--><g class="entity" data-entity="P2" data-source-line="10" data-uid="ent0003" id="entity_P2"><ellipse cx="384.115" cy="158.618" fill="#E8F5E9" rx="6.8" ry="6.8" style="stroke:#181818;stroke-width:0.425;"/><text fill="#000000" font-family="sans-serif" font-size="8.5" lengthAdjust="spacing" textLength="17.4856" x="360.9766" y="181.8917">P2.0</text><text fill="#000000" font-family="sans-serif" font-size="8.5" lengthAdjust="spacing" textLength="51" x="358.615" y="192.5831">&#12503;&#12525;&#12472;&#12455;&#12463;&#12488;</text><text fill="#000000" font-family="sans-serif" font-size="8.5" lengthAdjust="spacing" textLength="17" x="358.615" y="203.2745">&#31649;&#29702;</text></g><!--entity P3--><g class="entity" data-entity="P3" data-source-line="11" data-uid="ent0004" id="entity_P3"><ellipse cx="183.515" cy="371.968" fill="#E8F5E9" rx="6.8" ry="6.8" style="stroke:#181818;stroke-width:0.425;"/><text fill="#000000" font-family="sans-serif" font-size="8.5" lengthAdjust="spacing" textLength="17.4856" x="175.953" y="395.2417">P3.0</text><text fill="#000000" font-family="sans-serif" font-size="8.5" lengthAdjust="spacing" textLength="17" x="173.5914" y="405.9331">&#22259;&#34920;</text><text fill="#000000" font-family="sans-serif" font-size="8.5" lengthAdjust="spacing" textLength="17" x="173.5914" y="416.6245">&#31649;&#29702;</text></g><!--entity P4--><g class="entity" data-entity="P4" data-source-line="12" data-uid="ent0005" id="entity_P4"><ellipse cx="183.515" cy="471.418" fill="#E8F5E9" rx="6.8" ry="6.8" style="stroke:#181818;stroke-width:0.425;"/><text fill="#000000" font-family="sans-serif" font-size="8.5" lengthAdjust="spacing" textLength="17.4856" x="159.1958" y="494.6917">P4.0</text><text fill="#000000" font-family="sans-serif" font-size="8.5" lengthAdjust="spacing" textLength="25.5" x="156.8342" y="505.3831">&#26908;&#35388;&#12539;</text><text fill="#000000" font-family="sans-serif" font-size="8.5" lengthAdjust="spacing" textLength="51" x="156.8342" y="516.0745">&#12524;&#12531;&#12480;&#12522;&#12531;&#12464;</text></g><!--entity P7--><g class="entity" data-entity="P7" data-source-line="13" data-uid="ent0006" id="entity_P7"><ellipse cx="637.415" cy="371.968" fill="#E8F5E9" rx="6.8" ry="6.8" style="stroke:#181818;stroke-width:0.425;"/><text fill="#000000" font-family="sans-serif" font-size="8.5" lengthAdjust="spacing" textLength="17.4856" x="625.8458" y="395.2417">P7.0</text><text fill="#000000" font-family="sans-serif" font-size="8.5" lengthAdjust="spacing" textLength="25.5" x="623.4842" y="405.9331">&#12456;&#12463;&#12473;</text><text fill="#000000" font-family="sans-serif" font-size="8.5" lengthAdjust="spacing" textLength="25.5" x="623.4842" y="416.6245">&#12509;&#12540;&#12488;</text></g><!--entity D1--><g class="entity" data-entity="D1" data-source-line="15" data-uid="ent0007" id="entity_D1"><rect fill="#FFF8E1" height="29.8828" rx="6.375" ry="6.375" style="stroke:#181818;stroke-width:0.425;" width="167.318" x="300.39" y="250.418"/><text fill="#000000" font-family="sans-serif" font-size="8.5" lengthAdjust="spacing" textLength="145.218" x="308.89" y="272.4831">source_code | preview_svg | metadata</text><line style="stroke:#181818;stroke-width:0.85;" x1="301.24" x2="346.5046" y1="258.3137" y2="258.3137"/><line style="stroke:#181818;stroke-width:0.85;" x1="301.24" x2="346.5046" y1="260.0137" y2="260.0137"/><text fill="#000000" font-family="sans-serif" font-size="8.5" lengthAdjust="spacing" textLength="75.0889" x="346.5046" y="261.3667">D1: &#22259;&#34920;&#12473;&#12488;&#12524;&#12540;&#12472;</text><line style="stroke:#181818;stroke-width:0.85;" x1="421.5934" x2="466.858" y1="258.3137" y2="258.3137"/><line style="stroke:#181818;stroke-width:0.85;" x1="421.5934" x2="466.858" y1="260.0137" y2="260.0137"/></g><!--link user to P2--><g class="link" data-entity-1="user" data-entity-2="P2" data-source-line="17" data-uid="lnk8" id="link_user_P2"><path d="M349.0865,66.8605 C338.1895,72.887 327.3775,81.217 321.215,92.318 C314.0665,105.204 313.5395,112.8965 321.215,125.468 C333.438,145.477 357.4427,152.5931 371.3742,155.4321" fill="none" id="user-to-P2" style="stroke:#181818;stroke-width:0.85;"/><polygon fill="#181818" points="376.3715,156.4505,369.5545,151.5914,372.2071,155.6018,368.1967,158.2545,376.3715,156.4505" style="stroke:#181818;stroke-width:0.85;"/><text fill="#000000" font-family="sans-serif" font-size="8.5" lengthAdjust="spacing" textLength="41.5703" x="343.5723" y="101.9917">DF-11&#12316;14</text><text fill="#000000" font-family="sans-serif" font-size="8.5" lengthAdjust="spacing" textLength="68" x="330.3575" y="112.6831">&#12503;&#12525;&#12472;&#12455;&#12463;&#12488;&#25805;&#20316;</text><text fill="#000000" font-family="sans-serif" font-size="8.5" lengthAdjust="spacing" textLength="84.585" x="322.065" y="123.3745">{action, project_name}</text></g><!--link P2 to user--><g class="link" data-entity-1="P2" data-entity-2="user" data-source-line="20" data-uid="lnk11" id="link_P2_user"><path d="M391.799,151.24 C398.1825,145.273 406.776,135.8295 410.465,125.468 C415.412,111.5875 414.9105,106.3685 410.465,92.318 C407.4985,82.9255 404.5616,77.7894 398.8496,70.7939" fill="none" id="P2-to-user" style="stroke:#181818;stroke-width:0.85;"/><polygon fill="#181818" points="395.624,66.8435,397.8288,74.9194,398.312,70.1355,403.096,70.6187,395.624,66.8435" style="stroke:#181818;stroke-width:0.85;"/><text fill="#000000" font-family="sans-serif" font-size="8.5" lengthAdjust="spacing" textLength="23.6157" x="441.5527" y="101.9917">DF-15</text><text fill="#000000" font-family="sans-serif" font-size="8.5" lengthAdjust="spacing" textLength="34" x="436.3605" y="112.6831">&#25805;&#20316;&#32080;&#26524;</text><text fill="#000000" font-family="sans-serif" font-size="8.5" lengthAdjust="spacing" textLength="75.5911" x="415.565" y="123.3745">{projects[], success}</text></g><!--link P2 to D1--><g class="link" data-entity-1="P2" data-entity-2="D1" data-source-line="18" data-uid="lnk9" id="link_P2_D1"><path d="M376.346,162.9275 C366.554,167.781 350.166,177.6155 343.315,191.768 C336.8975,205.028 337.569,211.352 343.315,224.918 C347.548,234.9055 351.7806,240.3154 359.6771,246.9964" fill="none" id="P2-to-D1" style="stroke:#181818;stroke-width:0.85;"/><polygon fill="#181818" points="363.5705,250.2905,359.9264,242.7537,360.326,247.5454,355.5343,247.9449,363.5705,250.2905" style="stroke:#181818;stroke-width:0.85;"/><text fill="#000000" font-family="sans-serif" font-size="8.5" lengthAdjust="spacing" textLength="34" x="347.9543" y="206.5417">&#19968;&#35239;&#21462;&#24471;</text><text fill="#000000" font-family="sans-serif" font-size="8.5" lengthAdjust="spacing" textLength="41.5786" x="344.165" y="217.2331">{list_prefix}</text></g><!--link D1 to P2--><g class="link" data-entity-1="D1" data-entity-2="P2" data-source-line="19" data-uid="lnk10" id="link_D1_P2"><path d="M386.4015,250.214 C387.4895,242.717 388.6795,233.3415 389.215,224.918 C390.1585,210.213 390.371,206.456 389.215,191.768 C388.5265,182.9365 387.7515,177.8799 386.4935,171.3689" fill="none" id="D1-to-P2" style="stroke:#181818;stroke-width:0.85;"/><polygon fill="#181818" points="385.526,166.3615,383.639,174.5175,386.3322,170.5343,390.3155,173.2276,385.526,166.3615" style="stroke:#181818;stroke-width:0.85;"/><text fill="#000000" font-family="sans-serif" font-size="8.5" lengthAdjust="spacing" textLength="68" x="390.915" y="206.5417">&#12503;&#12525;&#12472;&#12455;&#12463;&#12488;&#19968;&#35239;</text><text fill="#000000" font-family="sans-serif" font-size="8.5" lengthAdjust="spacing" textLength="40.1633" x="404.8333" y="217.2331">{projects[]}</text></g><!--link user to P3--><g class="link" data-entity-1="user" data-entity-2="P3" data-source-line="22" data-uid="lnk12" id="link_user_P3"><path d="M344.879,56.7115 C284.9625,61.99 172.3545,74.026 136.765,92.318 C81.651,120.6485 62.4835,134.41 39.015,191.768 C5.1,274.6685 136.6179,347.5049 171.1704,364.9979" fill="none" id="user-to-P3" style="stroke:#181818;stroke-width:0.85;"/><polygon fill="#181818" points="175.7205,367.3015,170.4311,360.8127,171.9287,365.3818,167.3596,366.8795,175.7205,367.3015" style="stroke:#181818;stroke-width:0.85;"/><text fill="#000000" font-family="sans-serif" font-size="8.5" lengthAdjust="spacing" textLength="30.7046" x="65.3899" y="201.4417">DF-3,23</text><text fill="#000000" font-family="sans-serif" font-size="8.5" lengthAdjust="spacing" textLength="34" x="63.7422" y="212.1331">&#22259;&#34920;&#25805;&#20316;</text><text fill="#000000" font-family="sans-serif" font-size="8.5" lengthAdjust="spacing" textLength="81.7544" x="39.865" y="222.8245">{action, source_code}</text></g><!--link P3 to user--><g class="link" data-entity-1="P3" data-entity-2="user" data-source-line="27" data-uid="lnk17" id="link_P3_user"><path d="M181.849,364.114 C179.2395,352.0015 175.015,326.442 180.115,305.668 C206.5415,198.007 226.0235,165.469 309.315,92.318 C321.181,81.897 331.7437,75.5191 345.2502,69.1271" fill="none" id="P3-to-user" style="stroke:#181818;stroke-width:0.85;"/><polygon fill="#181818" points="349.86,66.9455,341.4908,67.1447,346.0185,68.7635,344.3997,73.2911,349.86,66.9455" style="stroke:#181818;stroke-width:0.85;"/><text fill="#000000" font-family="sans-serif" font-size="8.5" lengthAdjust="spacing" textLength="35.4319" x="249.0277" y="201.4417">DF-16,24</text><text fill="#000000" font-family="sans-serif" font-size="8.5" lengthAdjust="spacing" textLength="34" x="249.7436" y="212.1331">&#25805;&#20316;&#32080;&#26524;</text><text fill="#000000" font-family="sans-serif" font-size="8.5" lengthAdjust="spacing" textLength="91.6572" x="220.915" y="222.8245">{diagrams[], templates[]}</text></g><!--link P3 to P4--><g class="link" data-entity-1="P3" data-entity-2="P4" data-source-line="23" data-uid="lnk13" id="link_P3_P4"><path d="M175.712,373.5235 C159.9615,375.4105 124.6015,382.1425 109.565,405.118 C101.4985,417.443 101.4985,425.943 109.565,438.268 C124.6015,461.2435 154.8977,467.3688 170.6482,469.2558" fill="none" id="P3-to-P4" style="stroke:#181818;stroke-width:0.85;"/><polygon fill="#181818" points="175.712,469.8625,168.5208,465.5766,171.4922,469.3569,167.7119,472.3283,175.712,469.8625" style="stroke:#181818;stroke-width:0.85;"/><text fill="#000000" font-family="sans-serif" font-size="8.5" lengthAdjust="spacing" textLength="18.8884" x="154.8449" y="414.7917">DF-5</text><text fill="#000000" font-family="sans-serif" font-size="8.5" lengthAdjust="spacing" textLength="34" x="147.2891" y="425.4831">&#26908;&#35388;&#20381;&#38972;</text><text fill="#000000" font-family="sans-serif" font-size="8.5" lengthAdjust="spacing" textLength="107.7483" x="110.415" y="436.1745">{source_code, content_type}</text></g><!--link P4 to P3--><g class="link" data-entity-1="P4" data-entity-2="P3" data-source-line="24" data-uid="lnk14" id="link_P4_P3"><path d="M191.4625,466.6155 C200.719,461.5155 215.543,451.6725 221.765,438.268 C227.97,424.906 227.97,418.48 221.765,405.118 C215.543,391.7135 205.1859,384.3316 195.9294,379.2316" fill="none" id="P4-to-P3" style="stroke:#181818;stroke-width:0.85;"/><polygon fill="#181818" points="191.4625,376.7705,196.5221,383.44,195.1849,378.8214,199.8035,377.4842,191.4625,376.7705" style="stroke:#181818;stroke-width:0.85;"/><text fill="#000000" font-family="sans-serif" font-size="8.5" lengthAdjust="spacing" textLength="18.8884" x="260.5529" y="414.7917">DF-6</text><text fill="#000000" font-family="sans-serif" font-size="8.5" lengthAdjust="spacing" textLength="34" x="252.9971" y="425.4831">&#26908;&#35388;&#32080;&#26524;</text><text fill="#000000" font-family="sans-serif" font-size="8.5" lengthAdjust="spacing" textLength="84.5642" x="227.715" y="436.1745">{preview_svg, errors[]}</text></g><!--link P3 to D1--><g class="link" data-entity-1="P3" data-entity-2="D1" data-source-line="25" data-uid="lnk15" id="link_P3_D1"><path d="M191.403,370.5485 C221.0595,368.2535 325.4905,358.8695 350.965,338.818 C369.495,324.2405 376.9476,301.9546 380.5941,285.2861" fill="none" id="P3-to-D1" style="stroke:#181818;stroke-width:0.85;"/><polygon fill="#181818" points="381.684,280.304,376.7277,287.0506,380.7757,284.4558,383.3706,288.5038,381.684,280.304" style="stroke:#181818;stroke-width:0.85;"/><text fill="#000000" font-family="sans-serif" font-size="8.5" lengthAdjust="spacing" textLength="18.8884" x="436.9088" y="315.3417">DF-4</text><text fill="#000000" font-family="sans-serif" font-size="8.5" lengthAdjust="spacing" textLength="17" x="437.853" y="326.0331">&#20445;&#23384;</text><text fill="#000000" font-family="sans-serif" font-size="8.5" lengthAdjust="spacing" textLength="143.176" x="374.765" y="336.7245">{file_path, source_code, preview_svg}</text></g><!--link D1 to P3--><g class="link" data-entity-1="D1" data-entity-2="P3" data-source-line="26" data-uid="lnk16" id="link_D1_P3"><path d="M300.3135,275.935 C259.794,282.3015 216.801,291.9915 202.215,305.668 C185.4955,321.3505 183.3952,345.754 183.3527,359.116" fill="none" id="D1-to-P3" style="stroke:#181818;stroke-width:0.85;"/><polygon fill="#181818" points="183.3365,364.216,186.7608,356.5768,183.35,359.966,179.9608,356.5552,183.3365,364.216" style="stroke:#181818;stroke-width:0.85;"/><text fill="#000000" font-family="sans-serif" font-size="8.5" lengthAdjust="spacing" textLength="17" x="264.9702" y="320.4417">&#35501;&#21462;</text><text fill="#000000" font-family="sans-serif" font-size="8.5" lengthAdjust="spacing" textLength="140.8103" x="203.065" y="331.1331">{source_code, metadata, templates[]}</text></g><!--link user to P7--><g class="link" data-entity-1="user" data-entity-2="P7" data-source-line="29" data-uid="lnk18" id="link_user_P7"><path d="M421.549,59.338 C445.6465,64.5485 476.221,74.3065 498.015,92.318 C592.722,170.5605 628.0721,324.2554 635.0931,359.2074" fill="none" id="user-to-P7" style="stroke:#181818;stroke-width:0.85;"/><polygon fill="#181818" points="636.0975,364.2075,637.9243,356.0377,635.2605,360.0407,631.2575,357.3769,636.0975,364.2075" style="stroke:#181818;stroke-width:0.85;"/><text fill="#000000" font-family="sans-serif" font-size="8.5" lengthAdjust="spacing" textLength="23.6157" x="625.3013" y="201.4417">DF-10</text><text fill="#000000" font-family="sans-serif" font-size="8.5" lengthAdjust="spacing" textLength="68" x="603.1091" y="212.1331">&#12456;&#12463;&#12473;&#12509;&#12540;&#12488;&#35201;&#27714;</text><text fill="#000000" font-family="sans-serif" font-size="8.5" lengthAdjust="spacing" textLength="91.1882" x="591.515" y="222.8245">{diagram_name, format}</text></g><!--link P7 to user--><g class="link" data-entity-1="P7" data-entity-2="user" data-source-line="31" data-uid="lnk20" id="link_P7_user"><path d="M643.0675,364.199 C662.5325,339.464 723.86,253.58 690.115,191.768 C636.5055,93.576 496.4588,65.5925 426.7418,57.424" fill="none" id="P7-to-user" style="stroke:#181818;stroke-width:0.85;"/><polygon fill="#181818" points="421.6765,56.8305,428.8789,61.0976,425.8976,57.325,429.6702,54.3438,421.6765,56.8305" style="stroke:#181818;stroke-width:0.85;"/><text fill="#000000" font-family="sans-serif" font-size="8.5" lengthAdjust="spacing" textLength="51" x="701.9897" y="206.5417">&#20986;&#21147;&#12501;&#12449;&#12452;&#12523;</text><text fill="#000000" font-family="sans-serif" font-size="8.5" lengthAdjust="spacing" textLength="54.3494" x="700.315" y="217.2331">{exported_file}</text></g><!--link D1 to P7--><g class="link" data-entity-1="D1" data-entity-2="P7" data-source-line="30" data-uid="lnk19" id="link_D1_P7"><path d="M460.054,280.1765 C481.9585,286.1095 505.308,294.3545 525.215,305.668 C543.8045,316.2335 542.164,327.139 560.065,338.818 C583.4655,354.084 610.3947,363.1545 624.8362,367.4725" fill="none" id="D1-to-P7" style="stroke:#181818;stroke-width:0.85;"/><polygon fill="#181818" points="629.7225,368.9335,623.3671,363.4845,625.6506,367.716,621.4191,369.9995,629.7225,368.9335" style="stroke:#181818;stroke-width:0.85;"/><text fill="#000000" font-family="sans-serif" font-size="8.5" lengthAdjust="spacing" textLength="42.5" x="566.8397" y="320.4417">&#12477;&#12540;&#12473;&#35501;&#36796;</text><text fill="#000000" font-family="sans-serif" font-size="8.5" lengthAdjust="spacing" textLength="54.3494" x="560.915" y="331.1331">{source_code}</text></g><!--SRC=[RPHBJzj04CVl_XGhk3e8nmcXIEc1Gauz8FNOLDRMtWGNnuxM6w2FIDGh5QXK5QbgQKMeYeG0KUX3g1Mq0JxC9Y4zyHKwQ-VXG2wM7_ER-Sz_nijivX0a-AhWTH5S2lvUy6EuRswTe0IyFnBya-1VjSJqTNqDNhPt3bhltZJEQxt8w_gwufiOieoFJQOLnL-mtJAck8GUOtEXIBsAQztp78-YfNcRaTXtYnHmnM4vpsKFx6S4QUEnZnsEkeGY3T9IOZBi5g7CY0WE13yHV5tmlL3sRxYE8EoZYW_He_VjuZoRTYf4KKoRcX91SycnyRmh-AOK7PoAO5y4tmLVoxjNttQkDbwXa9zBej7PoLnwzawCr2KPjNuZMXyIdPBHhTrQ-w0k-5zPyYWKkoBueRm9VdJWr10u4ug4za1RS2RXRTaWN-imcHwZc9XQQ2IRdT6cK2GE28WCwu4dfzbitlMz2ZM9ONeMGIzGcP95comP_c8Hdag4OGip76QUqT1eBfURdDKK9JGnaRWhtPX2Cxc4fecLcfOQPb-q2tdtEJQPxRagrF2UmAGC5vT8LO4CCX5adqADqvNstdxpxOVcnIO0Zkqp0nGLxEMg0W6zWhUBH2GmdUJ-mqUzrA7OI6KQV0_bNFtQQ7sk3SIhoA-O9l7zQhm_FI9rDQbt9tohePY5K5IFm5G4fhkJRbni__jI1oeMhI8J5fkup61Fov9D3HITwB8njRtng8XGwj6eKRtl8N0mXiRbTlFu8n05so566RFv0PbgVD1zRsNTzk4n3E2cpkucg8YHKjd1ZCGBnnoUK9EfMoPRDYx23nkQFC37ZCvq4iItkxVRxRsNhPz1FrEuEoegUBI4ML-_p262yt2vpw2HziKDmq5n9gwukVgd-NfBdbF1ZWXsuHI3UB9SzYWZbY6zgoh_0G00]--></g></svg>