<svg xmlns="http://www.w3.org/2000/svg" xmlns:xlink="http://www.w3.org/1999/xlink" contentStyleType="text/css" data-diagram-type="DESCRIPTION" height="472.5px" preserveAspectRatio="none" style="width:621px;height:472px;background:#FFFFFF;" version="1.1" viewBox="0 0 621 472" width="621.9px" zoomAndPan="magnify"><title>&#12487;&#12540;&#12479;&#12501;&#12525;&#12540;&#22259; - &#12524;&#12505;&#12523;1-C&#65288;AI&#25903;&#25588;&#12501;&#12525;&#12540;&#65289;</title><defs/><g><text fill="#000000" font-family="sans-serif" font-size="12.6" font-weight="bold" lengthAdjust="spacing" textLength="264.9938" x="172.3379" y="22.0799">&#12487;&#12540;&#12479;&#12501;&#12525;&#12540;&#22259; - &#12524;&#12505;&#12523;1-C&#65288;AI&#25903;&#25588;&#12501;&#12525;&#12540;&#65289;</text><!--entity user--><g class="entity" data-entity="user" data-source-line="8" data-uid="ent0002" id="entity_user"><rect fill="#ADD8E6" height="30.4523" rx="6.75" ry="6.75" style="stroke:#181818;stroke-width:0.45;" width="87.3" x="97.218" y="185.9484"/><text fill="#000000" font-family="sans-serif" font-size="9.9" lengthAdjust="spacing" textLength="69.3" x="106.218" y="205.2255">&#12456;&#12531;&#12489;&#12518;&#12540;&#12470;&#12540;</text></g><!--entity P5--><g class="entity" data-entity="P5" data-source-line="10" data-uid="ent0003" id="entity_P5"><ellipse cx="360.468" cy="63.5484" fill="#F3E5F5" rx="7.2" ry="7.2" style="stroke:#181818;stroke-width:0.45;"/><text fill="#000000" font-family="sans-serif" font-size="9.9" lengthAdjust="spacing" textLength="20.3656" x="351.6605" y="89.1255">P5.0</text><text fill="#000000" font-family="sans-serif" font-size="9.9" lengthAdjust="spacing" textLength="9.3538" x="348.9099" y="101.5778">AI</text><text fill="#000000" font-family="sans-serif" font-size="9.9" lengthAdjust="spacing" textLength="19.8" x="348.9099" y="114.0302">&#25903;&#25588;</text></g><!--entity P8--><g class="entity" data-entity="P8" data-source-line="11" data-uid="ent0004" id="entity_P8"><ellipse cx="231.768" cy="323.6484" fill="#F3E5F5" rx="7.2" ry="7.2" style="stroke:#181818;stroke-width:0.45;"/><text fill="#000000" font-family="sans-serif" font-size="9.9" lengthAdjust="spacing" textLength="20.3656" x="208.3933" y="349.2255">P8.0</text><text fill="#000000" font-family="sans-serif" font-size="9.9" lengthAdjust="spacing" textLength="19.8" x="205.6427" y="361.6778">&#23398;&#32722;</text><text fill="#000000" font-family="sans-serif" font-size="9.9" lengthAdjust="spacing" textLength="49.5" x="205.6427" y="374.1302">&#12467;&#12531;&#12486;&#12531;&#12484;</text></g><!--entity openrouter--><g class="entity" data-entity="openrouter" data-source-line="13" data-uid="ent0005" id="entity_openrouter"><rect fill="#E8EAF6" height="42.9047" rx="6.75" ry="6.75" style="stroke:#181818;stroke-width:0.45;" width="71.9328" x="317.268" y="179.6484"/><text fill="#000000" font-family="sans-serif" font-size="9.9" lengthAdjust="spacing" textLength="53.9328" x="326.268" y="198.9255">OpenRouter</text><text fill="#000000" font-family="sans-serif" font-size="9.9" lengthAdjust="spacing" textLength="15.957" x="326.268" y="211.3778">API</text></g><!--entity openai--><g class="entity" data-entity="openai" data-source-line="14" data-uid="ent0006" id="entity_openai"><rect fill="#E8EAF6" height="42.9047" rx="6.75" ry="6.75" style="stroke:#181818;stroke-width:0.45;" width="51.572" x="426.618" y="424.4484"/><text fill="#000000" font-family="sans-serif" font-size="9.9" lengthAdjust="spacing" textLength="33.572" x="435.618" y="443.7255">OpenAI</text><text fill="#000000" font-family="sans-serif" font-size="9.9" lengthAdjust="spacing" textLength="15.957" x="435.618" y="456.1778">API</text></g><!--entity D3--><g class="entity" data-entity="D3" data-source-line="16" data-uid="ent0007" id="entity_D3"><rect fill="#FFF8E1" height="33.9047" rx="6.75" ry="6.75" style="stroke:#181818;stroke-width:0.45;" width="171.4504" x="71.118" y="428.9484"/><text fill="#000000" font-family="sans-serif" font-size="9.9" lengthAdjust="spacing" textLength="148.0504" x="80.118" y="454.3778">category | title | body | embedding</text><line style="stroke:#181818;stroke-width:0.9;" x1="72.018" x2="98.265" y1="437.8746" y2="437.8746"/><line style="stroke:#181818;stroke-width:0.9;" x1="72.018" x2="98.265" y1="439.6746" y2="439.6746"/><text fill="#000000" font-family="sans-serif" font-size="9.9" lengthAdjust="spacing" textLength="117.1564" x="98.265" y="441.4755">D3: &#23398;&#32722;&#12467;&#12531;&#12486;&#12531;&#12484;&#12473;&#12488;&#12450;</text><line style="stroke:#181818;stroke-width:0.9;" x1="215.4214" x2="241.6684" y1="437.8746" y2="437.8746"/><line style="stroke:#181818;stroke-width:0.9;" x1="215.4214" x2="241.6684" y1="439.6746" y2="439.6746"/></g><g class="entity" data-entity="GMN20" data-source-line="33" data-uid="ent0021" id="entity_GMN20"><path d="M400.068,46.8984 L400.068,59.9484 L368.946,63.5484 L400.068,67.1484 L400.068,79.7555 A6.75,6.75 0 0 0 406.818,86.5055 L542.6244,86.5055 A6.75,6.75 0 0 0 549.3744,79.7555 L549.3744,49.1484 L540.3744,40.1484 L406.818,40.1484 A6.75,6.75 0 0 0 400.068,46.8984" fill="#FEFFDD" style="stroke:#181818;stroke-width:0.45;"/><path d="M540.3744,40.1484 L540.3744,45.7734 A3.375,3.375 0 0 0 543.7494,49.1484 L549.3744,49.1484 L540.3744,40.1484" fill="#FEFFDD" style="stroke:#181818;stroke-width:0.45;"/><text fill="#000000" font-family="sans-serif" font-size="9.9" lengthAdjust="spacing" textLength="130.4064" x="405.468" y="54.9255">TD-007: LLM/Embedding&#20998;&#38626;</text><text fill="#000000" font-family="sans-serif" font-size="9.9" lengthAdjust="spacing" textLength="78.6924" x="405.468" y="67.3778">LLM: OpenRouter</text><text fill="#000000" font-family="sans-serif" font-size="9.9" lengthAdjust="spacing" textLength="89.158" x="405.468" y="79.8302">Embedding: OpenAI</text></g><!--link user to P5--><g class="link" data-entity-1="user" data-entity-2="P5" data-source-line="18" data-uid="lnk8" id="link_user_P5"><path d="M142.092,185.8584 C144.495,166.6164 151.596,132.8844 172.368,113.9484 C226.269,64.8084 317.7198,63.2112 346.6728,63.9582" fill="none" id="user-to-P5" style="stroke:#181818;stroke-width:0.9;"/><polygon fill="#181818" points="352.071,64.0974,344.0665,60.2897,347.5725,63.9814,343.8808,67.4873,352.071,64.0974" style="stroke:#181818;stroke-width:0.9;"/><text fill="#000000" font-family="sans-serif" font-size="9.9" lengthAdjust="spacing" textLength="21.9995" x="216.4862" y="125.1255">DF-7</text><text fill="#000000" font-family="sans-serif" font-size="9.9" lengthAdjust="spacing" textLength="29.1538" x="212.9091" y="137.5778">AI&#36074;&#21839;</text><text fill="#000000" font-family="sans-serif" font-size="9.9" lengthAdjust="spacing" textLength="108.4359" x="173.268" y="150.0302">{question, context_code}</text></g><!--link P5 to user--><g class="link" data-entity-1="P5" data-entity-2="user" data-source-line="23" data-uid="lnk13" id="link_P5_user"><path d="M352.269,64.2594 C304.452,63.3504 62.172,61.4244 16.668,113.9484 C5.4,126.9444 6.921,138.4734 16.668,152.6484 C34.587,178.7304 63.5913,189.5413 91.6173,194.9053" fill="none" id="P5-to-user" style="stroke:#181818;stroke-width:0.9;"/><polygon fill="#181818" points="96.921,195.9204,89.6421,190.862,92.5012,195.0745,88.2887,197.9336,96.921,195.9204" style="stroke:#181818;stroke-width:0.9;"/><text fill="#000000" font-family="sans-serif" font-size="9.9" lengthAdjust="spacing" textLength="29.1538" x="65.1852" y="131.4255">AI&#22238;&#31572;</text><text fill="#000000" font-family="sans-serif" font-size="9.9" lengthAdjust="spacing" textLength="124.3881" x="17.568" y="143.8778">{ai_response, suggestions[]}</text></g><!--link P5 to openrouter--><g class="link" data-entity-1="P5" data-entity-2="openrouter" data-source-line="19" data-uid="lnk9" id="link_P5_openrouter"><path d="M352.26,67.6794 C337.518,73.9974 306.936,89.5404 294.768,113.9484 C287.091,129.3384 287.388,137.1144 294.768,152.6484 C299.826,163.3044 304.32,169.0094 313.518,176.2814" fill="none" id="P5-to-openrouter" style="stroke:#181818;stroke-width:0.9;"/><polygon fill="#181818" points="317.754,179.6304,313.6326,171.7829,314.224,176.8396,309.1673,177.4309,317.754,179.6304" style="stroke:#181818;stroke-width:0.9;"/><text fill="#000000" font-family="sans-serif" font-size="9.9" lengthAdjust="spacing" textLength="21.9995" x="329.518" y="125.1255">DF-8</text><text fill="#000000" font-family="sans-serif" font-size="9.9" lengthAdjust="spacing" textLength="48.9586" x="316.0384" y="137.5778">LLM&#21839;&#21512;&#12379;</text><text fill="#000000" font-family="sans-serif" font-size="9.9" lengthAdjust="spacing" textLength="89.6994" x="295.668" y="150.0302">{model, messages[]}</text></g><!--link openrouter to P5--><g class="link" data-entity-1="openrouter" data-entity-2="P5" data-source-line="20" data-uid="lnk10" id="link_openrouter_P5"><path d="M373.599,179.5224 C379.881,171.7284 386.001,162.3864 389.268,152.6484 C394.731,136.3404 393.741,130.5534 389.268,113.9484 C384.867,97.6314 376.8913,85.4396 369.8263,76.2146" fill="none" id="openrouter-to-P5" style="stroke:#181818;stroke-width:0.9;"/><polygon fill="#181818" points="366.543,71.9274,368.6099,80.5471,369.2791,75.5001,374.3261,76.1693,366.543,71.9274" style="stroke:#181818;stroke-width:0.9;"/><text fill="#000000" font-family="sans-serif" font-size="9.9" lengthAdjust="spacing" textLength="29.1538" x="402.8607" y="131.4255">AI&#22238;&#31572;</text><text fill="#000000" font-family="sans-serif" font-size="9.9" lengthAdjust="spacing" textLength="47.3392" x="393.768" y="143.8778">{response}</text></g><!--link P5 to openai--><g class="link" data-entity-1="P5" data-entity-2="openai" data-source-line="21" data-uid="lnk11" id="link_P5_openai"><path d="M367.146,71.8464 C371.745,76.6254 378.198,82.7094 384.768,86.9484 C410.67,103.6704 430.335,89.1624 448.668,113.9484 C513.702,201.8874 468.261,249.5154 473.868,358.7484 C474.75,375.9294 477.495,380.6364 473.868,397.4484 C471.87,406.6914 470.2935,411.4401 466.3245,419.5851" fill="none" id="P5-to-openai" style="stroke:#181818;stroke-width:0.9;"/><polygon fill="#181818" points="463.959,424.4394,470.7434,418.7349,465.9302,420.3942,464.271,415.581,463.959,424.4394" style="stroke:#181818;stroke-width:0.9;"/><text fill="#000000" font-family="sans-serif" font-size="9.9" lengthAdjust="spacing" textLength="21.9995" x="500.6683" y="261.0255">DF-9</text><text fill="#000000" font-family="sans-serif" font-size="9.9" lengthAdjust="spacing" textLength="59.4" x="481.968" y="273.4778">&#12505;&#12463;&#12488;&#12523;&#22793;&#25563;</text><text fill="#000000" font-family="sans-serif" font-size="9.9" lengthAdjust="spacing" textLength="49.5435" x="486.8962" y="285.9302">{input_text}</text></g><!--link openai to P5--><g class="link" data-entity-1="openai" data-entity-2="P5" data-source-line="22" data-uid="lnk12" id="link_openai_P5"><path d="M475.128,424.3764 C483.048,416.4474 491.58,407.0064 498.168,397.4484 C537.561,340.2534 565.155,317.5014 549.468,249.8484 C534.276,184.3194 534.663,156.8604 482.868,113.9484 C448.038,85.0944 424.278,108.9354 384.768,86.9484 C377.73,83.0334 374.7726,80.6514 370.2276,75.6924" fill="none" id="openai-to-P5" style="stroke:#181818;stroke-width:0.9;"/><polygon fill="#181818" points="366.579,71.7114,369.3979,80.1152,369.6195,75.0289,374.7058,75.2504,366.579,71.7114" style="stroke:#181818;stroke-width:0.9;"/><text fill="#000000" font-family="sans-serif" font-size="9.9" lengthAdjust="spacing" textLength="39.6" x="564.7188" y="267.3255">&#12505;&#12463;&#12488;&#12523;</text><text fill="#000000" font-family="sans-serif" font-size="9.9" lengthAdjust="spacing" textLength="61.1016" x="553.968" y="279.7778">{embedding[]}</text></g><!--link user to P8--><g class="link" data-entity-1="user" data-entity-2="P8" data-source-line="25" data-uid="lnk14" id="link_user_P8"><path d="M129.771,216.6924 C117.207,235.0794 100.44,266.9484 116.568,288.5484 C142.398,323.1624 196.3755,324.3821 218.1645,323.4911" fill="none" id="user-to-P8" style="stroke:#181818;stroke-width:0.9;"/><polygon fill="#181818" points="223.56,323.2704,215.3197,320.0044,219.0638,323.4543,215.6139,327.1984,223.56,323.2704" style="stroke:#181818;stroke-width:0.9;"/><text fill="#000000" font-family="sans-serif" font-size="9.9" lengthAdjust="spacing" textLength="27.5054" x="143.893" y="261.0255">DF-25</text><text fill="#000000" font-family="sans-serif" font-size="9.9" lengthAdjust="spacing" textLength="39.6" x="137.8457" y="273.4778">&#23398;&#32722;&#26908;&#32034;</text><text fill="#000000" font-family="sans-serif" font-size="9.9" lengthAdjust="spacing" textLength="80.3553" x="117.468" y="285.9302">{query, category?}</text></g><!--link P8 to user--><g class="link" data-entity-1="P8" data-entity-2="user" data-source-line="30" data-uid="lnk19" id="link_P8_user"><path d="M230.094,315.2784 C226.692,301.3194 217.899,270.7734 202.068,249.8484 C192.069,236.6364 182.0195,228.1409 169.6265,219.7259" fill="none" id="P8-to-user" style="stroke:#181818;stroke-width:0.9;"/><polygon fill="#181818" points="165.159,216.6924,169.8379,224.2209,168.8819,219.2203,173.8825,218.2643,165.159,216.6924" style="stroke:#181818;stroke-width:0.9;"/><text fill="#000000" font-family="sans-serif" font-size="9.9" lengthAdjust="spacing" textLength="27.5054" x="252.4849" y="261.0255">DF-28</text><text fill="#000000" font-family="sans-serif" font-size="9.9" lengthAdjust="spacing" textLength="69.3" x="231.5876" y="273.4778">&#23398;&#32722;&#12467;&#12531;&#12486;&#12531;&#12484;</text><text fill="#000000" font-family="sans-serif" font-size="9.9" lengthAdjust="spacing" textLength="86.9392" x="222.768" y="285.9302">{results[], tutorials[]}</text></g><!--link P8 to openai--><g class="link" data-entity-1="P8" data-entity-2="openai" data-source-line="26" data-uid="lnk15" id="link_P8_openai"><path d="M240.003,331.1634 C248.319,337.9134 261.423,348.7854 272.268,358.7484 C290.169,375.2094 290.295,384.6234 310.968,397.4484 C347.814,420.3174 391.6623,432.5214 421.2183,439.0284" fill="none" id="P8-to-openai" style="stroke:#181818;stroke-width:0.9;"/><polygon fill="#181818" points="426.492,440.1894,419.3555,434.9321,422.0972,439.2219,417.8074,441.9637,426.492,440.1894" style="stroke:#181818;stroke-width:0.9;"/><text fill="#000000" font-family="sans-serif" font-size="9.9" lengthAdjust="spacing" textLength="27.5054" x="327.8153" y="369.9255">DF-26</text><text fill="#000000" font-family="sans-serif" font-size="9.9" lengthAdjust="spacing" textLength="59.4" x="311.868" y="382.3778">&#12505;&#12463;&#12488;&#12523;&#22793;&#25563;</text><text fill="#000000" font-family="sans-serif" font-size="9.9" lengthAdjust="spacing" textLength="31.3774" x="325.8793" y="394.8302">{query}</text></g><!--link openai to P8--><g class="link" data-entity-1="openai" data-entity-2="P8" data-source-line="27" data-uid="lnk16" id="link_openai_P8"><path d="M432.504,424.2144 C424.809,415.9614 415.989,406.3404 408.168,397.4484 C393.345,380.6094 394.848,370.5384 375.768,358.7484 C330.084,330.5154 268.4032,325.7944 245.3182,324.9304" fill="none" id="openai-to-P8" style="stroke:#181818;stroke-width:0.9;"/><polygon fill="#181818" points="239.922,324.7284,247.8817,328.6289,244.4189,324.8967,248.151,321.4339,239.922,324.7284" style="stroke:#181818;stroke-width:0.9;"/><text fill="#000000" font-family="sans-serif" font-size="9.9" lengthAdjust="spacing" textLength="39.6" x="419.8188" y="376.2255">&#12505;&#12463;&#12488;&#12523;</text><text fill="#000000" font-family="sans-serif" font-size="9.9" lengthAdjust="spacing" textLength="61.1016" x="409.068" y="388.6778">{embedding[]}</text></g><!--link P8 to D3--><g class="link" data-entity-1="P8" data-entity-2="D3" data-source-line="28" data-uid="lnk17" id="link_P8_D3"><path d="M223.371,325.1604 C194.769,327.4554 101.844,336.5094 84.168,358.7484 C73.467,372.2124 75.987,382.3194 84.168,397.4484 C91.503,411.0204 99.892,418.6476 112.951,426.1716" fill="none" id="P8-to-D3" style="stroke:#181818;stroke-width:0.9;"/><polygon fill="#181818" points="117.63,428.8674,112.4088,421.7044,113.7309,426.6209,108.8144,427.943,117.63,428.8674" style="stroke:#181818;stroke-width:0.9;"/><text fill="#000000" font-family="sans-serif" font-size="9.9" lengthAdjust="spacing" textLength="27.5054" x="122.2293" y="369.9255">DF-27</text><text fill="#000000" font-family="sans-serif" font-size="9.9" lengthAdjust="spacing" textLength="39.6" x="116.1819" y="382.3778">&#39006;&#20284;&#26908;&#32034;</text><text fill="#000000" font-family="sans-serif" font-size="9.9" lengthAdjust="spacing" textLength="101.8279" x="85.068" y="394.8302">{embedding, threshold}</text></g><!--link D3 to P8--><g class="link" data-entity-1="D3" data-entity-2="P8" data-source-line="29" data-uid="lnk18" id="link_D3_P8"><path d="M169.578,428.6964 C176.274,419.6514 184.509,408.1224 191.268,397.4484 C205.983,374.2104 218.702,350.1165 225.551,336.7605" fill="none" id="D3-to-P8" style="stroke:#181818;stroke-width:0.9;"/><polygon fill="#181818" points="228.015,331.9554,221.1156,337.5203,225.9616,335.9596,227.5223,340.8057,228.015,331.9554" style="stroke:#181818;stroke-width:0.9;"/><text fill="#000000" font-family="sans-serif" font-size="9.9" lengthAdjust="spacing" textLength="39.6" x="219.6373" y="376.2255">&#26908;&#32034;&#32080;&#26524;</text><text fill="#000000" font-family="sans-serif" font-size="9.9" lengthAdjust="spacing" textLength="49.5387" x="214.668" y="388.6778">{contents[]}</text></g><!--SRC=[XLD1JnD15BxFhtY1QwijfB0qgQRIDcc2aQWtQyYoEsmtj3CuEnj5uM3NO3b131nC2Oc442CI3aKJaoRycB6jdFWBlfrjrmLZl6pQDz_tlkzzRqQwia511UzLq5EjInNig-0CV_SxNKXZ_QiAFghWD9kUl-wrYzN1tlbWvo96NVUsYMUPs25pPuuGRzLbQwOmcx1iMgkEu3wpvtc32tXPToLDdDjqnVGRiiAPVEA-ff3D9Wv7FC6eW6oE444jQJ87LIPKwxCAkYhOLi69TlmTlnDWUk1xY9vSS9swVD3mAI6MAwoG0ekvEvaQArPhB78F6h-OWydAT3bNoIMGHeZidvqCBp_Kc6frjTQM_huRqOoOblJrQ8sonzoNLA3IObL3ETQ4hi5asIWNApEt6Q6d9DfqOoInJ673HA5Gciv3vEYM7zNweOAsQXqL2ZLccP8wNAp31aYzqGrOvdRubpQNgMsxpD4gfMcqNwaOvImXEh5q-buOHHvAbVHicDAlxfV-_awDlNdXKq-wdAN0mYtHLtB9uZRT98WEIOdfDDceiOM5XqZjxxRLsmusQ2AyaO8czJpJeTwpvviaGOg5YzL-vt1ujeSCGRqrphoR8XYA5fZ3ZU1TR9s7KmUd_UFjmKueWxV6bqkXmQW_ukFUIG92uon2BoC9dS8D5wQxD3QI0iztd2W7FK0YD2EoDPKRtvZ1yS7muYXAJgnZRAETt4SjuwznfcR-COzctnp5-DyeKNjSRjGQ5tdrwV1dhnTRYk4fa7MShiuRzYP1Gjm_WWw_xGuE3v2WTywabsW_IYeKCCOptxgJqGxnOICFbNp9XMisekGObnH4-3w1h-1w2C3JKZgJcSq3NfoxvR73VdlhgdE4frZDmv-7XPKO4zMBLKAP3M5ZyXi0]--></g></svg>