<svg xmlns="http://www.w3.org/2000/svg" xmlns:xlink="http://www.w3.org/1999/xlink" contentStyleType="text/css" data-diagram-type="DESCRIPTION" height="210.8px" preserveAspectRatio="none" style="width:1274px;height:210px;background:#FFFFFF;" version="1.1" viewBox="0 0 1274 210" width="1274.15px" zoomAndPan="magnify"><title>&#12487;&#12540;&#12479;&#12501;&#12525;&#12540;&#22259; - &#12524;&#12505;&#12523;1-D&#65288;&#31649;&#29702;&#27231;&#33021;&#12501;&#12525;&#12540;&#65289;</title><defs/><g><text fill="#000000" font-family="sans-serif" font-size="11.9" font-weight="bold" lengthAdjust="spacing" textLength="262.9156" x="499.7267" y="20.8532">&#12487;&#12540;&#12479;&#12501;&#12525;&#12540;&#22259; - &#12524;&#12505;&#12523;1-D&#65288;&#31649;&#29702;&#27231;&#33021;&#12501;&#12525;&#12540;&#65289;</text><!--entity dev--><g class="entity" data-entity="dev" data-source-line="8" data-uid="ent0002" id="entity_dev"><rect fill="#90EE90" height="27.6914" rx="6.375" ry="6.375" style="stroke:#181818;stroke-width:0.425;" width="70.3616" x="192.644" y="173.204"/><text fill="#000000" font-family="sans-serif" font-size="8.5" lengthAdjust="spacing" textLength="53.3616" x="201.144" y="190.5277">&#38283;&#30330;&#32773;/&#31649;&#29702;&#32773;</text></g><!--entity P6--><g class="entity" data-entity="P6" data-source-line="10" data-uid="ent0003" id="entity_P6"><ellipse cx="600.219" cy="69.079" fill="#FFEBEE" rx="6.8" ry="6.8" style="stroke:#181818;stroke-width:0.425;"/><text fill="#000000" font-family="sans-serif" font-size="8.5" lengthAdjust="spacing" textLength="17.4856" x="592.657" y="92.3527">P6.0</text><text fill="#000000" font-family="sans-serif" font-size="8.5" lengthAdjust="spacing" textLength="17" x="590.2954" y="103.0441">&#31649;&#29702;</text><text fill="#000000" font-family="sans-serif" font-size="8.5" lengthAdjust="spacing" textLength="17" x="590.2954" y="113.7355">&#27231;&#33021;</text></g><!--entity D2--><g class="entity" data-entity="D2" data-source-line="12" data-uid="ent0004" id="entity_D2"><rect fill="#FFF8E1" height="29.8828" rx="6.375" ry="6.375" style="stroke:#181818;stroke-width:0.425;" width="129.9894" x="406.844" y="172.354"/><text fill="#000000" font-family="sans-serif" font-size="8.5" lengthAdjust="spacing" textLength="107.8894" x="415.344" y="194.4191">user_id | access_token | role</text><line style="stroke:#181818;stroke-width:0.85;" x1="407.694" x2="447.0443" y1="180.2497" y2="180.2497"/><line style="stroke:#181818;stroke-width:0.85;" x1="407.694" x2="447.0443" y1="181.9497" y2="181.9497"/><text fill="#000000" font-family="sans-serif" font-size="8.5" lengthAdjust="spacing" textLength="49.5889" x="447.0443" y="183.3027">D2: &#35469;&#35388;&#24773;&#22577;</text><line style="stroke:#181818;stroke-width:0.85;" x1="496.6331" x2="535.9834" y1="180.2497" y2="180.2497"/><line style="stroke:#181818;stroke-width:0.85;" x1="496.6331" x2="535.9834" y1="181.9497" y2="181.9497"/></g><!--entity D4--><g class="entity" data-entity="D4" data-source-line="13" data-uid="ent0005" id="entity_D4"><rect fill="#FFF8E1" height="29.8828" rx="6.375" ry="6.375" style="stroke:#181818;stroke-width:0.425;" width="132.424" x="606.169" y="172.354"/><text fill="#000000" font-family="sans-serif" font-size="8.5" lengthAdjust="spacing" textLength="99.8459" x="614.669" y="194.4191">workflow | steps[] | edges[]</text><line style="stroke:#181818;stroke-width:0.85;" x1="607.019" x2="618.069" y1="180.2497" y2="180.2497"/><line style="stroke:#181818;stroke-width:0.85;" x1="607.019" x2="618.069" y1="181.9497" y2="181.9497"/><text fill="#000000" font-family="sans-serif" font-size="8.5" lengthAdjust="spacing" textLength="108.624" x="618.069" y="183.3027">D4: LLM&#12527;&#12540;&#12463;&#12501;&#12525;&#12540;&#12473;&#12488;&#12450;</text><line style="stroke:#181818;stroke-width:0.85;" x1="726.693" x2="737.743" y1="180.2497" y2="180.2497"/><line style="stroke:#181818;stroke-width:0.85;" x1="726.693" x2="737.743" y1="181.9497" y2="181.9497"/></g><!--entity D5--><g class="entity" data-entity="D5" data-source-line="14" data-uid="ent0006" id="entity_D5"><rect fill="#FFF8E1" height="29.8828" rx="6.375" ry="6.375" style="stroke:#181818;stroke-width:0.425;" width="171.5763" x="854.369" y="172.354"/><text fill="#000000" font-family="sans-serif" font-size="8.5" lengthAdjust="spacing" textLength="149.4763" x="862.869" y="194.4191">model_name | dimensions | usage_logs</text><line style="stroke:#181818;stroke-width:0.85;" x1="855.219" x2="889.6116" y1="180.2497" y2="180.2497"/><line style="stroke:#181818;stroke-width:0.85;" x1="855.219" x2="889.6116" y1="181.9497" y2="181.9497"/><text fill="#000000" font-family="sans-serif" font-size="8.5" lengthAdjust="spacing" textLength="101.0911" x="889.6116" y="183.3027">D5: Embedding&#35373;&#23450;&#12473;&#12488;&#12450;</text><line style="stroke:#181818;stroke-width:0.85;" x1="990.7027" x2="1025.0953" y1="180.2497" y2="180.2497"/><line style="stroke:#181818;stroke-width:0.85;" x1="990.7027" x2="1025.0953" y1="181.9497" y2="181.9497"/></g><!--entity openrouter--><g class="entity" data-entity="openrouter" data-source-line="16" data-uid="ent0007" id="entity_openrouter"><rect fill="#E8EAF6" height="38.3828" rx="6.375" ry="6.375" style="stroke:#181818;stroke-width:0.425;" width="63.3059" x="1161.219" y="168.104"/><text fill="#000000" font-family="sans-serif" font-size="8.5" lengthAdjust="spacing" textLength="46.3059" x="1169.719" y="185.4277">OpenRouter</text><text fill="#000000" font-family="sans-serif" font-size="8.5" lengthAdjust="spacing" textLength="13.7004" x="1169.719" y="196.1191">API</text></g><g class="entity" data-entity="GMN20" data-source-line="37" data-uid="ent0021" id="entity_GMN20"><path d="M637.619,60.579 L637.619,65.679 L608.1835,69.079 L637.619,72.479 L637.619,77.7118 A6.375,6.375 0 0 0 643.994,84.0868 L726.5776,84.0868 A6.375,6.375 0 0 0 732.9526,77.7118 L732.9526,62.704 L724.4526,54.204 L643.994,54.204 A6.375,6.375 0 0 0 637.619,60.579" fill="#FEFFDD" style="stroke:#181818;stroke-width:0.425;"/><path d="M724.4526,54.204 L724.4526,59.5165 A3.1875,3.1875 0 0 0 727.6401,62.704 L732.9526,62.704 L724.4526,54.204" fill="#FEFFDD" style="stroke:#181818;stroke-width:0.425;"/><text fill="#000000" font-family="sans-serif" font-size="8.5" lengthAdjust="spacing" textLength="64.7129" x="642.719" y="67.2777">MVP: DF-17&#12316;22</text><text fill="#000000" font-family="sans-serif" font-size="8.5" lengthAdjust="spacing" textLength="77.4836" x="642.719" y="77.9691">Phase 2: DF-29&#12316;39</text></g><!--link dev to P6--><g class="link" data-entity-1="dev" data-entity-2="P6" data-source-line="18" data-uid="lnk8" id="link_dev_P6"><path d="M200.7955,173.153 C189.091,165.894 176.613,155.677 170.119,142.604 C163.557,129.412 160.1825,120.3425 170.119,109.454 C199.7415,76.9755 530.885,70.9116 587.155,70.1041" fill="none" id="dev-to-P6" style="stroke:#181818;stroke-width:0.85;"/><polygon fill="#181818" points="592.2545,70.031,584.5565,66.7411,588.0049,70.092,584.6541,73.5404,592.2545,70.031" style="stroke:#181818;stroke-width:0.85;"/><text fill="#000000" font-family="sans-serif" font-size="8.5" lengthAdjust="spacing" textLength="23.6157" x="196.9608" y="119.1277">DF-17</text><text fill="#000000" font-family="sans-serif" font-size="8.5" lengthAdjust="spacing" textLength="51" x="183.2687" y="129.8191">&#12518;&#12540;&#12470;&#12540;&#31649;&#29702;</text><text fill="#000000" font-family="sans-serif" font-size="8.5" lengthAdjust="spacing" textLength="75.5994" x="170.969" y="140.5105">{command, user_id}</text></g><!--link dev to P6--><g class="link" data-entity-1="dev" data-entity-2="P6" data-source-line="19" data-uid="lnk9" id="link_dev_P6"><path d="M235.2375,173.0595 C246.466,153.1525 267.9625,117.155 280.619,109.454 C335.427,76.1085 543.7203,70.875 587.3168,70.127" fill="none" id="dev-to-P6-1" style="stroke:#181818;stroke-width:0.85;"/><polygon fill="#181818" points="592.416,70.0395,584.7088,66.7712,588.1666,70.1124,584.8255,73.5702,592.416,70.0395" style="stroke:#181818;stroke-width:0.85;"/><text fill="#000000" font-family="sans-serif" font-size="8.5" lengthAdjust="spacing" textLength="23.6157" x="297.78" y="119.1277">DF-18</text><text fill="#000000" font-family="sans-serif" font-size="8.5" lengthAdjust="spacing" textLength="33.5352" x="292.8203" y="129.8191">LLM&#35373;&#23450;</text><text fill="#000000" font-family="sans-serif" font-size="8.5" lengthAdjust="spacing" textLength="56.2378" x="281.469" y="140.5105">{model_config}</text></g><!--link dev to P6--><g class="link" data-entity-1="dev" data-entity-2="P6" data-source-line="20" data-uid="lnk10" id="link_dev_P6"><path d="M263.381,174.904 C286.28,166.9735 316.438,155.5495 341.819,142.604 C365.8995,130.3215 367.7355,119.5435 392.819,109.454 C466.616,79.7805 559.2326,72.3153 587.2911,70.6408" fill="none" id="dev-to-P6-2" style="stroke:#181818;stroke-width:0.85;"/><polygon fill="#181818" points="592.382,70.337,584.543,67.3987,588.1395,70.5902,584.9481,74.1867,592.382,70.337" style="stroke:#181818;stroke-width:0.85;"/><text fill="#000000" font-family="sans-serif" font-size="8.5" lengthAdjust="spacing" textLength="23.6157" x="407.3611" y="119.1277">DF-19</text><text fill="#000000" font-family="sans-serif" font-size="8.5" lengthAdjust="spacing" textLength="51" x="393.669" y="129.8191">&#12471;&#12473;&#12486;&#12512;&#35373;&#23450;</text><text fill="#000000" font-family="sans-serif" font-size="8.5" lengthAdjust="spacing" textLength="34.9712" x="401.6834" y="140.5105">{settings}</text></g><!--link P6 to dev--><g class="link" data-entity-1="P6" data-entity-2="dev" data-source-line="34" data-uid="lnk19" id="link_P6_dev"><path d="M592.2035,69.861 C527.238,69.4105 88.1195,67.872 49.419,109.454 C5.1,157.0625 123.6352,176.0511 187.4277,182.7916" fill="none" id="P6-to-dev" style="stroke:#181818;stroke-width:0.85;"/><polygon fill="#181818" points="192.4995,183.3275,185.2491,179.1424,188.273,182.8809,184.5346,185.9048,192.4995,183.3275" style="stroke:#181818;stroke-width:0.85;"/><text fill="#000000" font-family="sans-serif" font-size="8.5" lengthAdjust="spacing" textLength="23.6157" x="91.8538" y="119.1277">DF-22</text><text fill="#000000" font-family="sans-serif" font-size="8.5" lengthAdjust="spacing" textLength="34" x="86.6617" y="129.8191">&#31649;&#29702;&#32080;&#26524;</text><text fill="#000000" font-family="sans-serif" font-size="8.5" lengthAdjust="spacing" textLength="106.7854" x="50.269" y="140.5105">{logs[], users[], usage_stats}</text></g><!--link P6 to D2--><g class="link" data-entity-1="P6" data-entity-2="D2" data-source-line="22" data-uid="lnk11" id="link_P6_D2"><path d="M592.552,70.8725 C565.5815,74.3575 475.796,87.4645 459.119,109.454 C445.2895,127.6865 452.9906,150.8122 461.3716,167.5232" fill="none" id="P6-to-D2" style="stroke:#181818;stroke-width:0.85;"/><polygon fill="#181818" points="463.658,172.082,463.2677,163.7195,461.7527,168.283,457.1893,166.768,463.658,172.082" style="stroke:#181818;stroke-width:0.85;"/><text fill="#000000" font-family="sans-serif" font-size="8.5" lengthAdjust="spacing" textLength="23.6157" x="477.9111" y="119.1277">DF-20</text><text fill="#000000" font-family="sans-serif" font-size="8.5" lengthAdjust="spacing" textLength="59.5" x="459.969" y="129.8191">&#12518;&#12540;&#12470;&#12540;&#21839;&#21512;&#12379;</text><text fill="#000000" font-family="sans-serif" font-size="8.5" lengthAdjust="spacing" textLength="26.9402" x="476.2489" y="140.5105">{query}</text></g><!--link D2 to P6--><g class="link" data-entity-1="D2" data-entity-2="P6" data-source-line="23" data-uid="lnk12" id="link_D2_P6"><path d="M489.1325,172.235 C499.3155,163.7775 512.397,152.7445 523.719,142.604 C549.916,119.1355 576.2082,93.5649 589.5362,80.4579" fill="none" id="D2-to-P6" style="stroke:#181818;stroke-width:0.85;"/><polygon fill="#181818" points="593.1725,76.882,585.3341,79.8217,590.1423,79.8619,590.1021,84.6701,593.1725,76.882" style="stroke:#181818;stroke-width:0.85;"/><text fill="#000000" font-family="sans-serif" font-size="8.5" lengthAdjust="spacing" textLength="23.6157" x="572.2611" y="119.1277">DF-21</text><text fill="#000000" font-family="sans-serif" font-size="8.5" lengthAdjust="spacing" textLength="51" x="558.569" y="129.8191">&#12518;&#12540;&#12470;&#12540;&#24773;&#22577;</text><text fill="#000000" font-family="sans-serif" font-size="8.5" lengthAdjust="spacing" textLength="31.186" x="568.476" y="140.5105">{users[]}</text></g><!--link P6 to D4--><g class="link" data-entity-1="P6" data-entity-2="D4" data-source-line="25" data-uid="lnk13" id="link_P6_D4"><path d="M603.789,76.8905 C610.606,90.006 626.0845,119.178 641.019,142.604 C647.4535,152.702 652.2732,159.5571 658.5292,167.9721" fill="none" id="P6-to-D4" style="stroke:#181818;stroke-width:0.85;"/><polygon fill="#181818" points="661.572,172.065,659.7364,163.8972,659.0364,168.6543,654.2793,167.9542,661.572,172.065" style="stroke:#181818;stroke-width:0.85;"/><text fill="#000000" font-family="sans-serif" font-size="8.5" lengthAdjust="spacing" textLength="41.5703" x="671.6377" y="119.1277">DF-29&#12316;31</text><text fill="#000000" font-family="sans-serif" font-size="8.5" lengthAdjust="spacing" textLength="68" x="658.4228" y="129.8191">&#12527;&#12540;&#12463;&#12501;&#12525;&#12540;&#25805;&#20316;</text><text fill="#000000" font-family="sans-serif" font-size="8.5" lengthAdjust="spacing" textLength="101.1077" x="641.869" y="140.5105">{workflow, steps[], edges[]}</text></g><!--link D4 to P6--><g class="link" data-entity-1="D4" data-entity-2="P6" data-source-line="26" data-uid="lnk14" id="link_D4_P6"><path d="M712.368,172.269 C725.611,165.4605 738.8795,155.8215 746.419,142.604 C753.712,129.803 755.7265,120.8695 746.419,109.454 C710.8295,65.815 674.526,105.051 622.319,83.954 C617.2615,81.914 616.2697,81.6162 612.2067,78.7857" fill="none" id="D4-to-P6" style="stroke:#181818;stroke-width:0.85;"/><polygon fill="#181818" points="608.022,75.8705,612.3555,83.0331,611.5092,78.2998,616.2425,77.4536,608.022,75.8705" style="stroke:#181818;stroke-width:0.85;"/><text fill="#000000" font-family="sans-serif" font-size="8.5" lengthAdjust="spacing" textLength="68" x="754.069" y="124.2277">&#12527;&#12540;&#12463;&#12501;&#12525;&#12540;&#24773;&#22577;</text><text fill="#000000" font-family="sans-serif" font-size="8.5" lengthAdjust="spacing" textLength="47.7129" x="764.2126" y="134.9191">{workflows[]}</text></g><!--link P6 to D5--><g class="link" data-entity-1="P6" data-entity-2="D5" data-source-line="28" data-uid="lnk15" id="link_P6_D5"><path d="M607.954,76.0405 C612.0085,78.922 617.185,82.118 622.319,83.954 C709.75,115.268 742.968,76.287 829.719,109.454 C839.732,113.2875 888.0526,148.1349 916.9441,169.2744" fill="none" id="P6-to-D5" style="stroke:#181818;stroke-width:0.85;"/><polygon fill="#181818" points="921.06,172.286,916.8939,165.0247,917.6301,169.7763,912.8785,170.5126,921.06,172.286" style="stroke:#181818;stroke-width:0.85;"/><text fill="#000000" font-family="sans-serif" font-size="8.5" lengthAdjust="spacing" textLength="41.5703" x="909.5015" y="119.1277">DF-32&#12316;37</text><text fill="#000000" font-family="sans-serif" font-size="8.5" lengthAdjust="spacing" textLength="60.0022" x="900.2856" y="129.8191">Embedding&#25805;&#20316;</text><text fill="#000000" font-family="sans-serif" font-size="8.5" lengthAdjust="spacing" textLength="102.5354" x="879.019" y="140.5105">{model_name, dimensions}</text></g><!--link D5 to P6--><g class="link" data-entity-1="D5" data-entity-2="P6" data-source-line="29" data-uid="lnk16" id="link_D5_P6"><path d="M962.404,172.3115 C972.1365,164.806 982.5405,154.6315 987.819,142.604 C993.735,129.1145 997.866,120.232 987.819,109.454 C960.0495,79.687 660.994,96.67 622.319,83.954 C617.134,82.254 616.0993,82.0423 612.0533,79.1353" fill="none" id="D5-to-P6" style="stroke:#181818;stroke-width:0.85;"/><polygon fill="#181818" points="607.9115,76.1595,612.1403,83.3844,611.363,78.6393,616.1081,77.862,607.9115,76.1595" style="stroke:#181818;stroke-width:0.85;"/><text fill="#000000" font-family="sans-serif" font-size="8.5" lengthAdjust="spacing" textLength="51" x="1013.9175" y="124.2277">&#35373;&#23450;&#12539;&#20351;&#29992;&#37327;</text><text fill="#000000" font-family="sans-serif" font-size="8.5" lengthAdjust="spacing" textLength="87.897" x="995.469" y="134.9191">{settings, usage_logs[]}</text></g><!--link P6 to openrouter--><g class="link" data-entity-1="P6" data-entity-2="openrouter" data-source-line="31" data-uid="lnk17" id="link_P6_openrouter"><path d="M607.903,76.1935 C611.9405,79.109 617.1255,82.288 622.319,83.954 C820.845,147.534 894.863,37.918 1090.669,109.454 C1108.2725,115.8885 1143.1934,144.0489 1167.5459,164.6954" fill="none" id="P6-to-openrouter" style="stroke:#181818;stroke-width:0.85;"/><polygon fill="#181818" points="1171.436,167.9935,1167.7996,160.453,1168.1943,165.2451,1163.4022,165.6397,1171.436,167.9935" style="stroke:#181818;stroke-width:0.85;"/><text fill="#000000" font-family="sans-serif" font-size="8.5" lengthAdjust="spacing" textLength="51" x="1144.3381" y="124.2277">&#20351;&#29992;&#37327;&#21839;&#21512;&#12379;</text><text fill="#000000" font-family="sans-serif" font-size="8.5" lengthAdjust="spacing" textLength="61.4382" x="1139.119" y="134.9191">{config_request}</text></g><!--link openrouter to P6--><g class="link" data-entity-1="openrouter" data-entity-2="P6" data-source-line="32" data-uid="lnk18" id="link_openrouter_P6"><path d="M1204.2205,168.019 C1213.528,150.6535 1222.844,124.992 1207.969,109.454 C1162.919,62.4065 684.454,103.4785 622.319,83.954 C617.117,82.322 616.0626,82.1259 612.0251,79.2019" fill="none" id="openrouter-to-P6" style="stroke:#181818;stroke-width:0.85;"/><polygon fill="#181818" points="607.8945,76.2105,612.0961,83.4513,611.3366,78.7033,616.0846,77.9439,607.8945,76.2105" style="stroke:#181818;stroke-width:0.85;"/><text fill="#000000" font-family="sans-serif" font-size="8.5" lengthAdjust="spacing" textLength="51" x="1216.469" y="124.2277">&#20351;&#29992;&#37327;&#12487;&#12540;&#12479;</text><text fill="#000000" font-family="sans-serif" font-size="8.5" lengthAdjust="spacing" textLength="50.1077" x="1216.9152" y="134.9191">{usage_data}</text></g><!--SRC=[RLHTQnD157tVNp6qhqbDjabD0n6gIKIe61HyCHAckvFjacIcpamiVXHgbdw8b1QqGctHweFKZxQ8gAWf_J7JVFIfVy6xkybcO_iIPcVlEUVUSqzMsh9Aa79MbDDKZMFbR2fd7ywjxUye2lTVbREbd2_nQFQikTevUD_PM6v_UjTrZeBAi-PpJHWOM69ZgQIcYOfDvp37DJI3ZOh5MPsQrrYLSJG_QqiIUc-ICgvNPPvHUST-J50y5dhPmt5AE8e3BIU6nDG2cP7JroywMt-wYqkN_8RWD8Am0Bw7Q7JQjcRbTKu8rJJ3veOBG8M9iLYH-jL5wW-0F4nX0etcyxchkHoKOswYaKmcgwTHz_DQTw_PTfPQkzyocIAj2y9BjecU8cmOH8YIP1L2uP6pAl6OihhBb4_buWEYH1fDJzzKpg7dxc7WcMhyLiwgQdnmgUSPhvIhR1x8X2HpujvzE17J8d3ocHFdcPDfbAlD4DEqgTNTssyTl1dYh36JL4iKrmXmcNQDK64pAk2XBh15IbLc2Pyx6N27BRurH-XjLfU45-bKuOPNok2EUtTeD9VAJUKdDCsrF1gzujgOHjbyD7wvI9NpqHln9_psBNzYi5eDKpE2UaOkd8UcYXJCyeS1X3-2mMZPjYwedWIXnYzlw6Nbx0OmGQG4JyI2fa6j2u75U10zDjnRQtEzjR6gdcq3wa6Ty4SB6fI6HVJuCCAF0vIxGy1sGXg97c9IBUwCUx3_Tzv-kNPoj0FW_huZ_NL7-jk61XA31YwWwEltAOPxIFezZEjk3x288221z20MaL0gG3OvaEsboVbxSdJSURLtkh8USZKIoazOEvIDD0g0OOVzHPOu0Qk5ND12Y40w00RV8yzhLz344W_at3JuVklzltNdnqRxhJkZtveVjDx19H0IIpSKb4c2kFkHGAmCiXf2D-yMUk45utGTRWgpM12aXrOwgH5g8XUi_GC0]--></g></svg>