<svg xmlns="http://www.w3.org/2000/svg" xmlns:xlink="http://www.w3.org/1999/xlink" contentStyleType="text/css" data-diagram-type="DESCRIPTION" height="406.3px" preserveAspectRatio="none" style="width:651px;height:406px;background:#FFFFFF;" version="1.1" viewBox="0 0 651 406" width="651.95px" zoomAndPan="magnify"><title>&#12487;&#12540;&#12479;&#12501;&#12525;&#12540;&#22259; - &#12524;&#12505;&#12523;2&#65288;P3.0 &#22259;&#34920;&#31649;&#29702;&#65289;</title><defs/><g><text fill="#000000" font-family="sans-serif" font-size="11.9" font-weight="bold" lengthAdjust="spacing" textLength="241.3294" x="199.4513" y="20.8532">&#12487;&#12540;&#12479;&#12501;&#12525;&#12540;&#22259; - &#12524;&#12505;&#12523;2&#65288;P3.0 &#22259;&#34920;&#31649;&#29702;&#65289;</text><!--entity user--><g class="entity" data-entity="user" data-source-line="8" data-uid="ent0002" id="entity_user"><rect fill="#ADD8E6" height="27.6914" rx="6.375" ry="6.375" style="stroke:#181818;stroke-width:0.425;" width="76.5" x="263.3725" y="38.768"/><text fill="#000000" font-family="sans-serif" font-size="8.5" lengthAdjust="spacing" textLength="59.5" x="271.8725" y="56.0917">&#12456;&#12531;&#12489;&#12518;&#12540;&#12470;&#12540;</text></g><!--entity P31--><g class="entity" data-entity="P31" data-source-line="10" data-uid="ent0003" id="entity_P31"><ellipse cx="301.6225" cy="158.618" fill="#E8F5E9" rx="6.8" ry="6.8" style="stroke:#181818;stroke-width:0.425;"/><text fill="#000000" font-family="sans-serif" font-size="8.5" lengthAdjust="spacing" textLength="17.4856" x="290.5264" y="181.8917">P3.1</text><text fill="#000000" font-family="sans-serif" font-size="8.5" lengthAdjust="spacing" textLength="17" x="288.1649" y="192.5831">&#22259;&#34920;</text><text fill="#000000" font-family="sans-serif" font-size="8.5" lengthAdjust="spacing" textLength="24.5537" x="288.1649" y="203.2745">CRUD</text></g><!--entity P32--><g class="entity" data-entity="P32" data-source-line="11" data-uid="ent0004" id="entity_P32"><ellipse cx="214.9225" cy="354.968" fill="#E8F5E9" rx="6.8" ry="6.8" style="stroke:#181818;stroke-width:0.425;"/><text fill="#000000" font-family="sans-serif" font-size="8.5" lengthAdjust="spacing" textLength="17.4856" x="191.7841" y="378.2417">P3.2</text><text fill="#000000" font-family="sans-serif" font-size="8.5" lengthAdjust="spacing" textLength="51" x="189.4225" y="388.9331">&#12486;&#12531;&#12503;&#12524;&#12540;&#12488;</text><text fill="#000000" font-family="sans-serif" font-size="8.5" lengthAdjust="spacing" textLength="17" x="189.4225" y="399.6245">&#36984;&#25246;</text></g><!--entity P33--><g class="entity" data-entity="P33" data-source-line="12" data-uid="ent0005" id="entity_P33"><ellipse cx="557.4725" cy="354.968" fill="#E8F5E9" rx="6.8" ry="6.8" style="stroke:#181818;stroke-width:0.425;"/><text fill="#000000" font-family="sans-serif" font-size="8.5" lengthAdjust="spacing" textLength="17.4856" x="549.9105" y="378.2417">P3.3</text><text fill="#000000" font-family="sans-serif" font-size="8.5" lengthAdjust="spacing" textLength="17" x="547.5489" y="388.9331">&#19968;&#35239;</text><text fill="#000000" font-family="sans-serif" font-size="8.5" lengthAdjust="spacing" textLength="17" x="547.5489" y="399.6245">&#21462;&#24471;</text></g><!--entity D1--><g class="entity" data-entity="D1" data-source-line="14" data-uid="ent0006" id="entity_D1"><rect fill="#FFF8E1" height="21.1371" rx="6.375" ry="6.375" style="stroke:#181818;stroke-width:0.425;" width="98.8889" x="361.9725" y="251.268"/><line style="stroke:#181818;stroke-width:0.85;" x1="362.8225" x2="373.8725" y1="259.1637" y2="259.1637"/><line style="stroke:#181818;stroke-width:0.85;" x1="362.8225" x2="373.8725" y1="260.8637" y2="260.8637"/><text fill="#000000" font-family="sans-serif" font-size="8.5" lengthAdjust="spacing" textLength="75.0889" x="373.8725" y="262.2167">D1: &#22259;&#34920;&#12473;&#12488;&#12524;&#12540;&#12472;</text><line style="stroke:#181818;stroke-width:0.85;" x1="448.9614" x2="460.0114" y1="259.1637" y2="259.1637"/><line style="stroke:#181818;stroke-width:0.85;" x1="448.9614" x2="460.0114" y1="260.8637" y2="260.8637"/></g><!--link user to P31--><g class="link" data-entity-1="user" data-entity-2="P31" data-source-line="16" data-uid="lnk7" id="link_user_P31"><path d="M301.6225,66.8265 C301.6225,89.156 301.6225,128.545 301.6225,145.698" fill="none" id="user-to-P31" style="stroke:#181818;stroke-width:0.85;"/><polygon fill="#181818" points="301.6225,150.798,305.0225,143.148,301.6225,146.548,298.2225,143.148,301.6225,150.798" style="stroke:#181818;stroke-width:0.85;"/><text fill="#000000" font-family="sans-serif" font-size="8.5" lengthAdjust="spacing" textLength="18.8884" x="350.9096" y="101.9917">DF-3</text><text fill="#000000" font-family="sans-serif" font-size="8.5" lengthAdjust="spacing" textLength="81.2771" x="319.7153" y="112.6831">{action, source_code,</text><text fill="#000000" font-family="sans-serif" font-size="8.5" lengthAdjust="spacing" textLength="115.7627" x="302.4725" y="123.3745">project_name, diagram_name}</text></g><!--link P31 to D1--><g class="link" data-entity-1="P31" data-entity-2="D1" data-source-line="18" data-uid="lnk8" id="link_P31_D1"><path d="M298.8175,166.387 C294.083,179.2815 286.2205,207.272 299.0725,224.918 C313.4715,244.6805 333.8599,252.9584 356.8609,257.1319" fill="none" id="P31-to-D1" style="stroke:#181818;stroke-width:0.85;"/><polygon fill="#181818" points="361.879,258.0425,354.9589,253.3313,357.6973,257.2837,353.7449,260.0221,361.879,258.0425" style="stroke:#181818;stroke-width:0.85;"/><text fill="#000000" font-family="sans-serif" font-size="8.5" lengthAdjust="spacing" textLength="55.7231" x="317.4268" y="201.4417">&#20316;&#25104;/&#26356;&#26032;/&#21066;&#38500;</text><text fill="#000000" font-family="sans-serif" font-size="8.5" lengthAdjust="spacing" textLength="90.7317" x="299.9225" y="212.1331">{file_path, source_code,</text><text fill="#000000" font-family="sans-serif" font-size="8.5" lengthAdjust="spacing" textLength="50.0828" x="320.247" y="222.8245">preview_svg}</text></g><!--link D1 to P31--><g class="link" data-entity-1="D1" data-entity-2="P31" data-source-line="19" data-uid="lnk9" id="link_D1_P31"><path d="M411.638,251.2 C411.6295,236.4185 409.4365,208.445 394.2725,191.768 C371.2375,166.438 332.3473,161.3096 314.5143,160.1281" fill="none" id="D1-to-P31" style="stroke:#181818;stroke-width:0.85;"/><polygon fill="#181818" points="309.4255,159.791,316.834,163.6893,313.6662,160.0719,317.2835,156.9041,309.4255,159.791" style="stroke:#181818;stroke-width:0.85;"/><text fill="#000000" font-family="sans-serif" font-size="8.5" lengthAdjust="spacing" textLength="17" x="448.3288" y="206.5417">&#35501;&#21462;</text><text fill="#000000" font-family="sans-serif" font-size="8.5" lengthAdjust="spacing" textLength="94.5127" x="409.5725" y="217.2331">{source_code, metadata}</text></g><!--link user to P32--><g class="link" data-entity-1="user" data-entity-2="P32" data-source-line="21" data-uid="lnk10" id="link_user_P32"><path d="M263.1855,58.794 C232.6025,64.0385 189.4395,74.0855 155.4225,92.318 C96.6875,123.7935 70.567,131.0015 43.2225,191.768 C5.1,276.5045 164.0207,336.7274 202.2707,349.8684" fill="none" id="user-to-P32" style="stroke:#181818;stroke-width:0.85;"/><polygon fill="#181818" points="207.094,351.5255,200.9638,345.8243,203.0746,350.1446,198.7544,352.2554,207.094,351.5255" style="stroke:#181818;stroke-width:0.85;"/><text fill="#000000" font-family="sans-serif" font-size="8.5" lengthAdjust="spacing" textLength="23.6157" x="80.4673" y="206.5417">DF-23</text><text fill="#000000" font-family="sans-serif" font-size="8.5" lengthAdjust="spacing" textLength="96.4053" x="44.0725" y="217.2331">{content_type, category?}</text></g><!--link P32 to user--><g class="link" data-entity-1="P32" data-entity-2="user" data-source-line="23" data-uid="lnk12" id="link_P32_user"><path d="M213.503,347.1225 C209.151,324.2235 197.2595,249.6955 214.0725,191.768 C228.9475,140.5045 265.8334,93.8753 286.1569,70.6873" fill="none" id="P32-to-user" style="stroke:#181818;stroke-width:0.85;"/><polygon fill="#181818" points="289.5185,66.852,281.9193,70.364,286.7172,70.0481,287.0331,74.846,289.5185,66.852" style="stroke:#181818;stroke-width:0.85;"/><text fill="#000000" font-family="sans-serif" font-size="8.5" lengthAdjust="spacing" textLength="23.6157" x="226.7407" y="206.5417">DF-24</text><text fill="#000000" font-family="sans-serif" font-size="8.5" lengthAdjust="spacing" textLength="47.2522" x="214.9225" y="217.2331">{templates[]}</text></g><!--link D1 to P32--><g class="link" data-entity-1="D1" data-entity-2="P32" data-source-line="22" data-uid="lnk11" id="link_D1_P32"><path d="M390.2605,272.518 C347.327,292.5015 255.8157,335.0849 227.5277,348.2514" fill="none" id="D1-to-P32" style="stroke:#181818;stroke-width:0.85;"/><polygon fill="#181818" points="222.904,350.4035,231.2743,350.2578,226.7571,348.6101,228.4048,344.0929,222.904,350.4035" style="stroke:#181818;stroke-width:0.85;"/><text fill="#000000" font-family="sans-serif" font-size="8.5" lengthAdjust="spacing" textLength="68" x="331.3725" y="308.5417">&#12486;&#12531;&#12503;&#12524;&#12540;&#12488;&#35501;&#21462;</text><text fill="#000000" font-family="sans-serif" font-size="8.5" lengthAdjust="spacing" textLength="47.2522" x="341.7464" y="319.2331">{templates[]}</text></g><!--link P32 to P31--><g class="link" data-entity-1="P32" data-entity-2="P31" data-source-line="24" data-uid="lnk13" id="link_P32_P31"><path d="M217.651,347.2245 C226.644,324.657 256.3685,251.013 284.6225,191.768 C288.881,182.843 291.8111,177.2772 295.3641,170.7917" fill="none" id="P32-to-P31" style="stroke:#181818;stroke-width:0.85;"/><polygon fill="#181818" points="297.8145,166.319,291.1571,171.3946,295.7725,170.0463,297.1208,174.6617,297.8145,166.319" style="stroke:#181818;stroke-width:0.85;"/><text fill="#000000" font-family="sans-serif" font-size="8.5" lengthAdjust="spacing" textLength="34" x="275.5319" y="260.0917">&#36984;&#25246;&#32080;&#26524;</text><text fill="#000000" font-family="sans-serif" font-size="8.5" lengthAdjust="spacing" textLength="68.5188" x="258.2725" y="270.7831">{template_source}</text></g><!--link user to P33--><g class="link" data-entity-1="user" data-entity-2="P33" data-source-line="26" data-uid="lnk14" id="link_user_P33"><path d="M340.102,59.8905 C365.8995,65.407 399.772,75.301 425.7225,92.318 C474.555,124.3375 483.8965,140.3515 511.5725,191.768 C541.4245,247.222 552.8349,318.99 555.9374,342.1695" fill="none" id="user-to-P33" style="stroke:#181818;stroke-width:0.85;"/><polygon fill="#181818" points="556.614,347.2245,558.9691,339.191,556.0502,343.012,552.2292,340.0931,556.614,347.2245" style="stroke:#181818;stroke-width:0.85;"/><text fill="#000000" font-family="sans-serif" font-size="8.5" lengthAdjust="spacing" textLength="34" x="538.4625" y="206.5417">&#19968;&#35239;&#35201;&#27714;</text><text fill="#000000" font-family="sans-serif" font-size="8.5" lengthAdjust="spacing" textLength="57.1799" x="526.8725" y="217.2331">{project_name}</text></g><!--link P33 to user--><g class="link" data-entity-1="P33" data-entity-2="user" data-source-line="28" data-uid="lnk16" id="link_P33_user"><path d="M561.867,347.2585 C576.045,324.1725 618.1795,247.63 591.4725,191.768 C545.734,96.092 412.954,67.0023 345.1665,58.0348" fill="none" id="P33-to-user" style="stroke:#181818;stroke-width:0.85;"/><polygon fill="#181818" points="340.1105,57.366,347.2485,61.7399,344.3238,57.9233,348.1403,54.9986,340.1105,57.366" style="stroke:#181818;stroke-width:0.85;"/><text fill="#000000" font-family="sans-serif" font-size="8.5" lengthAdjust="spacing" textLength="23.6157" x="610.8444" y="206.5417">DF-16</text><text fill="#000000" font-family="sans-serif" font-size="8.5" lengthAdjust="spacing" textLength="45.3596" x="599.9725" y="217.2331">{diagrams[]}</text></g><!--link D1 to P33--><g class="link" data-entity-1="D1" data-entity-2="P33" data-source-line="27" data-uid="lnk15" id="link_D1_P33"><path d="M421.209,272.5435 C434.3925,285.166 458.796,307.198 482.6725,321.818 C505.597,335.8515 530.8643,345.2166 544.8638,349.9511" fill="none" id="D1-to-P33" style="stroke:#181818;stroke-width:0.85;"/><polygon fill="#181818" points="549.695,351.585,543.5374,345.9134,545.669,350.2234,541.359,352.355,549.695,351.585" style="stroke:#181818;stroke-width:0.85;"/><text fill="#000000" font-family="sans-serif" font-size="8.5" lengthAdjust="spacing" textLength="51" x="483.5225" y="308.5417">&#12501;&#12449;&#12452;&#12523;&#19968;&#35239;</text><text fill="#000000" font-family="sans-serif" font-size="8.5" lengthAdjust="spacing" textLength="25.5166" x="496.2642" y="319.2331">{files[]}</text></g><!--SRC=[TLFVQzDG67tFNt7fNjkjQPpKGHLScYSVXkBJ8k6QtALnwKr9RZUc55m2izsBVTd6s1WKHXtgH9bAXQf_p5r_x6d_Wbzksf4wVGatzpldE-TyNy8SvXB4epSywlFmDu_sU7GEvy7H1Sh1_KSU7VBeG-6wtrnHvlC8xiUTiz6dpgYzSzrlIO69WP-VBovAKh3kq1hsSHKzn-QwxNjrQYrxhkUZpOh3IAfkaJLSTvdcKVR4UKcGd4yL9poV4X_9qDOd9iFK1faC3yzuTC6Z5e-wml1tU6OG3b0z0FJS8yUki8TkdKYIwVXcJ45WMzPfubkdou-VgaWmLXGPpPMBscBvtWoue5CUxGYP0v6_pwEcJg-sUyFTaocry4-gejFBtkjnzntelTqV_3gOmfKRk6HYtqAPKacLboR3vE4FK9X8XRrIIP1KSATfMh4iIv88bylT5vwNaAhbGEaLDfdZqImAlBfl4iFqB9BLQSttNi3038gh98ii1zimK_7MaAIO7_THupQNFu-7pVR2yEZhSF_pmg2rUtLu2ctN79SODSmgjpkJ3OTi6i66tP1KEMLe_FuSyW8tJK1Lmh256MxC12Wa0Gfn0XFsJoWps5ODy2PcnFRyhGUfxZ7wzZPkz1YfrboW1QlF6bACZbb2B16vypzCuZlPwUXRUtXod48QIOnPtqeyCR7SSNTx-2K4V7hKAS-AyBp7mmuFJ-7VcNuIOh8J5yfVJkMxK9yiIq3-0000]--></g></svg>