<svg xmlns="http://www.w3.org/2000/svg" xmlns:xlink="http://www.w3.org/1999/xlink" contentStyleType="text/css" data-diagram-type="DESCRIPTION" height="531.25px" preserveAspectRatio="none" style="width:442px;height:531px;background:#FFFFFF;" version="1.1" viewBox="0 0 442 531" width="442px" zoomAndPan="magnify"><title>&#12487;&#12540;&#12479;&#12501;&#12525;&#12540;&#22259; - &#12524;&#12505;&#12523;2&#65288;P5.0 AI&#25903;&#25588;&#65289;</title><defs/><g><text fill="#000000" font-family="sans-serif" font-size="11.9" font-weight="bold" lengthAdjust="spacing" textLength="228.6857" x="100.7562" y="20.8532">&#12487;&#12540;&#12479;&#12501;&#12525;&#12540;&#22259; - &#12524;&#12505;&#12523;2&#65288;P5.0 AI&#25903;&#25588;&#65289;</text><!--entity user--><g class="entity" data-entity="user" data-source-line="8" data-uid="ent0002" id="entity_user"><rect fill="#ADD8E6" height="27.6914" rx="6.375" ry="6.375" style="stroke:#181818;stroke-width:0.425;" width="76.5" x="241.8335" y="38.768"/><text fill="#000000" font-family="sans-serif" font-size="8.5" lengthAdjust="spacing" textLength="59.5" x="250.3335" y="56.0917">&#12456;&#12531;&#12489;&#12518;&#12540;&#12470;&#12540;</text></g><!--entity P51--><g class="entity" data-entity="P51" data-source-line="10" data-uid="ent0003" id="entity_P51"><ellipse cx="110.9335" cy="152.243" fill="#F3E5F5" rx="6.8" ry="6.8" style="stroke:#181818;stroke-width:0.425;"/><text fill="#000000" font-family="sans-serif" font-size="8.5" lengthAdjust="spacing" textLength="17.4856" x="94.8694" y="175.5167">P5.1</text><text fill="#000000" font-family="sans-serif" font-size="8.5" lengthAdjust="spacing" textLength="36.8513" x="92.5078" y="186.2081">Question-</text><text fill="#000000" font-family="sans-serif" font-size="8.5" lengthAdjust="spacing" textLength="17.9504" x="92.5078" y="196.8995">Start</text></g><!--entity P52--><g class="entity" data-entity="P52" data-source-line="11" data-uid="ent0004" id="entity_P52"><ellipse cx="206.9835" cy="256.793" fill="#F3E5F5" rx="6.8" ry="6.8" style="stroke:#181818;stroke-width:0.425;"/><text fill="#000000" font-family="sans-serif" font-size="8.5" lengthAdjust="spacing" textLength="17.4856" x="191.1643" y="280.0667">P5.2</text><text fill="#000000" font-family="sans-serif" font-size="8.5" lengthAdjust="spacing" textLength="8.031" x="188.8027" y="290.7581">AI</text><text fill="#000000" font-family="sans-serif" font-size="8.5" lengthAdjust="spacing" textLength="34" x="188.8027" y="301.4495">&#12481;&#12515;&#12483;&#12488;</text></g><!--entity P53--><g class="entity" data-entity="P53" data-source-line="12" data-uid="ent0005" id="entity_P53"><ellipse cx="223.9835" cy="479.918" fill="#F3E5F5" rx="6.8" ry="6.8" style="stroke:#181818;stroke-width:0.425;"/><text fill="#000000" font-family="sans-serif" font-size="8.5" lengthAdjust="spacing" textLength="17.4856" x="213.5951" y="503.1917">P5.3</text><text fill="#000000" font-family="sans-serif" font-size="8.5" lengthAdjust="spacing" textLength="25.5" x="211.2335" y="513.8831">&#12467;&#12540;&#12489;</text><text fill="#000000" font-family="sans-serif" font-size="8.5" lengthAdjust="spacing" textLength="17" x="211.2335" y="524.5745">&#29983;&#25104;</text></g><!--entity openrouter--><g class="entity" data-entity="openrouter" data-source-line="14" data-uid="ent0006" id="entity_openrouter"><rect fill="#E8EAF6" height="38.3828" rx="6.375" ry="6.375" style="stroke:#181818;stroke-width:0.425;" width="63.3059" x="104.1335" y="360.068"/><text fill="#000000" font-family="sans-serif" font-size="8.5" lengthAdjust="spacing" textLength="46.3059" x="112.6335" y="377.3917">OpenRouter</text><text fill="#000000" font-family="sans-serif" font-size="8.5" lengthAdjust="spacing" textLength="13.7004" x="112.6335" y="388.0831">API</text></g><!--entity openai--><g class="entity" data-entity="openai" data-source-line="15" data-uid="ent0007" id="entity_openai"><rect fill="#E8EAF6" height="38.3828" rx="6.375" ry="6.375" style="stroke:#181818;stroke-width:0.425;" width="45.8245" x="26.7835" y="237.668"/><text fill="#000000" font-family="sans-serif" font-size="8.5" lengthAdjust="spacing" textLength="28.8245" x="35.2835" y="254.9917">OpenAI</text><text fill="#000000" font-family="sans-serif" font-size="8.5" lengthAdjust="spacing" textLength="13.7004" x="35.2835" y="265.6831">API</text></g><!--link user to P51--><g class="link" data-entity-1="user" data-entity-2="P51" data-source-line="17" data-uid="lnk8" id="link_user_P51"><path d="M241.672,61.072 C217.821,66.92 187.3145,76.7545 163.6335,92.318 C141.814,106.666 126.1571,127.9917 118.0906,140.2402" fill="none" id="user-to-P51" style="stroke:#181818;stroke-width:0.85;"/><polygon fill="#181818" points="115.2855,144.4995,122.3326,139.9805,117.623,140.95,116.6535,136.2405,115.2855,144.4995" style="stroke:#181818;stroke-width:0.85;"/><text fill="#000000" font-family="sans-serif" font-size="8.5" lengthAdjust="spacing" textLength="18.8884" x="201.5901" y="101.9917">DF-7</text><text fill="#000000" font-family="sans-serif" font-size="8.5" lengthAdjust="spacing" textLength="93.1016" x="164.4835" y="112.6831">{question, context_code}</text></g><!--link P51 to openai--><g class="link" data-entity-1="P51" data-entity-2="openai" data-source-line="18" data-uid="lnk9" id="link_P51_openai"><path d="M106.726,160.165 C97.3335,175.958 76.9925,210.1488 63.248,233.2348" fill="none" id="P51-to-openai" style="stroke:#181818;stroke-width:0.85;"/><polygon fill="#181818" points="60.639,237.617,67.4739,232.783,62.8131,233.9652,61.631,229.3044,60.639,237.617" style="stroke:#181818;stroke-width:0.85;"/><text fill="#000000" font-family="sans-serif" font-size="8.5" lengthAdjust="spacing" textLength="51" x="89.6835" y="198.8917">&#12505;&#12463;&#12488;&#12523;&#22793;&#25563;</text><text fill="#000000" font-family="sans-serif" font-size="8.5" lengthAdjust="spacing" textLength="37.8142" x="96.2764" y="209.5831">{question}</text></g><!--link openai to P51--><g class="link" data-entity-1="openai" data-entity-2="P51" data-source-line="19" data-uid="lnk10" id="link_openai_P51"><path d="M29.801,237.651 C17.187,223.813 5.1,204.6285 15.7335,189.218 C36.2185,159.536 79.4133,154.4771 98.1898,153.5421" fill="none" id="openai-to-P51" style="stroke:#181818;stroke-width:0.85;"/><polygon fill="#181818" points="103.2835,153.2885,95.4739,150.2731,99.0388,153.4998,95.8121,157.0647,103.2835,153.2885" style="stroke:#181818;stroke-width:0.85;"/><text fill="#000000" font-family="sans-serif" font-size="8.5" lengthAdjust="spacing" textLength="52.4609" x="16.5835" y="204.4167">{embedding[]}</text></g><!--link P51 to P52--><g class="link" data-entity-1="P51" data-entity-2="P52" data-source-line="20" data-uid="lnk11" id="link_P51_P52"><path d="M117.8695,159.927 C125.137,167.1265 136.8245,178.8395 146.6335,189.218 C166.8125,210.553 186.5254,232.7123 197.3714,245.0118" fill="none" id="P51-to-P52" style="stroke:#181818;stroke-width:0.85;"/><polygon fill="#181818" points="200.7445,248.837,198.2349,240.8504,197.9336,245.6493,193.1347,245.348,200.7445,248.837" style="stroke:#181818;stroke-width:0.85;"/><text fill="#000000" font-family="sans-serif" font-size="8.5" lengthAdjust="spacing" textLength="68" x="172.9665" y="198.8917">&#39006;&#20284;&#12467;&#12531;&#12486;&#12461;&#12473;&#12488;</text><text fill="#000000" font-family="sans-serif" font-size="8.5" lengthAdjust="spacing" textLength="79.866" x="167.0335" y="209.5831">{context, embedding}</text></g><!--link P52 to openrouter--><g class="link" data-entity-1="P52" data-entity-2="openrouter" data-source-line="22" data-uid="lnk12" id="link_P52_openrouter"><path d="M199.053,257.83 C177.4205,258.8245 117.3935,264.8935 92.2335,301.418 C83.878,313.5475 86.632,320.9425 92.2335,334.568 C96.22,344.258 99.8007,349.448 107.2722,356.486" fill="none" id="P52-to-openrouter" style="stroke:#181818;stroke-width:0.85;"/><polygon fill="#181818" points="110.9845,359.983,107.7473,352.2627,107.8909,357.0689,103.0847,357.2124,110.9845,359.983" style="stroke:#181818;stroke-width:0.85;"/><text fill="#000000" font-family="sans-serif" font-size="8.5" lengthAdjust="spacing" textLength="18.8884" x="121.908" y="311.0917">DF-8</text><text fill="#000000" font-family="sans-serif" font-size="8.5" lengthAdjust="spacing" textLength="76.5374" x="93.0835" y="321.7831">{model, messages[],</text><text fill="#000000" font-family="sans-serif" font-size="8.5" lengthAdjust="spacing" textLength="48.6675" x="107.0184" y="332.4745">temperature}</text></g><!--link openrouter to P52--><g class="link" data-entity-1="openrouter" data-entity-2="P52" data-source-line="23" data-uid="lnk13" id="link_openrouter_P52"><path d="M154.105,359.762 C160.8795,352.333 168.2405,343.4505 173.8335,334.568 C188.9635,310.581 198.6962,283.3508 203.2352,269.4278" fill="none" id="openrouter-to-P52" style="stroke:#181818;stroke-width:0.85;"/><polygon fill="#181818" points="204.816,264.579,199.2123,270.7984,203.4987,268.6197,205.6774,272.9061,204.816,264.579" style="stroke:#181818;stroke-width:0.85;"/><text fill="#000000" font-family="sans-serif" font-size="8.5" lengthAdjust="spacing" textLength="40.6448" x="190.8335" y="321.7167">{response}</text></g><!--link P52 to user--><g class="link" data-entity-1="P52" data-entity-2="user" data-source-line="24" data-uid="lnk14" id="link_P52_user"><path d="M214.761,251.0895 C225.4455,243.9665 244.392,229.6185 253.7335,212.168 C279.803,163.463 281.435,100.3661 280.772,71.9676" fill="none" id="P52-to-user" style="stroke:#181818;stroke-width:0.85;"/><polygon fill="#181818" points="280.653,66.869,277.4325,74.5962,280.7522,71.1178,284.2306,74.4375,280.653,66.869" style="stroke:#181818;stroke-width:0.85;"/><text fill="#000000" font-family="sans-serif" font-size="8.5" lengthAdjust="spacing" textLength="25.031" x="289.3119" y="150.4417">AI&#22238;&#31572;</text><text fill="#000000" font-family="sans-serif" font-size="8.5" lengthAdjust="spacing" textLength="51.9878" x="275.8335" y="161.1331">{ai_response}</text></g><!--link P52 to P53--><g class="link" data-entity-1="P52" data-entity-2="P53" data-source-line="26" data-uid="lnk15" id="link_P52_P53"><path d="M213.9025,264.6725 C221.3995,272.773 233.0105,286.8575 238.4335,301.418 C261.0435,362.1335 270.7335,385.568 249.4835,446.768 C245.973,456.8915 241.4679,462.6758 235.3224,468.6853" fill="none" id="P52-to-P53" style="stroke:#181818;stroke-width:0.85;"/><polygon fill="#181818" points="231.676,472.251,239.5227,469.3334,234.7146,469.2796,234.7684,464.4716,231.676,472.251" style="stroke:#181818;stroke-width:0.85;"/><text fill="#000000" font-family="sans-serif" font-size="8.5" lengthAdjust="spacing" textLength="34" x="276.5137" y="377.3917">&#29983;&#25104;&#20381;&#38972;</text><text fill="#000000" font-family="sans-serif" font-size="8.5" lengthAdjust="spacing" textLength="64.2605" x="261.3835" y="388.0831">{prompt, context}</text></g><!--link P53 to openrouter--><g class="link" data-entity-1="P53" data-entity-2="openrouter" data-source-line="27" data-uid="lnk16" id="link_P53_openrouter"><path d="M215.968,478.507 C188.6235,476.399 99.7985,467.9925 82.8835,446.768 C69.9125,430.4905 83.1158,414.9305 101.2803,401.5175" fill="none" id="P53-to-openrouter" style="stroke:#181818;stroke-width:0.85;"/><polygon fill="#181818" points="105.383,398.488,97.2093,400.2971,101.9641,401.0126,101.2486,405.7674,105.383,398.488" style="stroke:#181818;stroke-width:0.85;"/><text fill="#000000" font-family="sans-serif" font-size="8.5" lengthAdjust="spacing" textLength="42.5" x="92.4867" y="433.4917">&#12467;&#12540;&#12489;&#29983;&#25104;</text><text fill="#000000" font-family="sans-serif" font-size="8.5" lengthAdjust="spacing" textLength="60.0063" x="83.7335" y="444.1831">{model, prompt}</text></g><!--link openrouter to P53--><g class="link" data-entity-1="openrouter" data-entity-2="P53" data-source-line="28" data-uid="lnk17" id="link_openrouter_P53"><path d="M144.7125,398.386 C152.3625,412.6065 164.237,432.267 178.0835,446.768 C189.6605,458.889 201.971,466.7824 211.712,472.3159" fill="none" id="openrouter-to-P53" style="stroke:#181818;stroke-width:0.85;"/><polygon fill="#181818" points="216.1465,474.835,211.1742,468.1001,212.4511,472.7358,207.8155,474.0127,216.1465,474.835" style="stroke:#181818;stroke-width:0.85;"/><text fill="#000000" font-family="sans-serif" font-size="8.5" lengthAdjust="spacing" textLength="67.1201" x="178.9335" y="439.0167">{generated_code}</text></g><!--link P53 to user--><g class="link" data-entity-1="P53" data-entity-2="user" data-source-line="29" data-uid="lnk18" id="link_P53_user"><path d="M231.8715,477.9715 C263.398,473.1095 378.6835,450.5165 378.6835,380.043 C378.6835,151.393 378.6835,151.393 378.6835,151.393 C378.6835,111.6215 342.2131,84.9256 313.1006,69.2601" fill="none" id="P53-to-user" style="stroke:#181818;stroke-width:0.85;"/><polygon fill="#181818" points="308.6095,66.8435,313.735,73.4625,312.3521,68.8574,316.9572,67.4744,308.6095,66.8435" style="stroke:#181818;stroke-width:0.85;"/><text fill="#000000" font-family="sans-serif" font-size="8.5" lengthAdjust="spacing" textLength="34" x="390.4158" y="254.9917">&#20462;&#27491;&#25552;&#26696;</text><text fill="#000000" font-family="sans-serif" font-size="8.5" lengthAdjust="spacing" textLength="55.7646" x="379.5335" y="265.6831">{suggestions[]}</text></g><!--SRC=[RP9FYzD06CRl-HJ3zjek_KErz21KRQ4WMDtZPbbcap4Rjfd4cGcAfGSpuBQdxg4UfBYwh8YWTGyLGGZkXvasovxsApYJf6dKXHBAvFazyxpF6sQpFWA27miUYk1IyBU2p-N_rMm1IlByc-3l1FzQlGb7lVfs6RIwqVGYclou2SSQDQ1aozkDkgRH8njxa407743Zo2AkZyq7RjybuCMXpL3klOcUGR_FEYvcE_Oh12hbtCkK8nWHK96s11aCOajUioM2Bu8l11yB_ZaE-rC-jm2amATINNXaMuViVjz7ccROn508a94hEdxY8yfi5vTqlCCWOI2cUlKAA7HgxNgd_XTGrN6hgsF1Nmj-BZWNVBG6ghS2DIaE5YeI7-luQleX6fsiYLf6v4Tvx27yrFKP8lAkNZVMklACn6UWq6wqMvqx_n8gLLuDxKofnHMKIlVYgPhWOQTqLyU3v-dWHM38jj5Bjc-u9XfgIgJ4gKiJg2K75t9IkUhLft4qcUNeePRgDlu3v1mWqxInjRktiLC5DS7rsUao3ED6vE-D2EOY-2MjfMEQeWWoVAXfYbg7IGk81sX8m95n-qNW84gXXUZkNb6N3ew726G-GKco5Dea6114FHVJUDB4FEwdAR_UrUpqQZwLrj3UtyWodTfO4oGxNFv-V_qnb5AFk8x7iXALQ-t_oDataD2Rz0b-IrPrrS12M4s3p6mtjNpYvUNtQ7uUJKwYCzKWzIqhsGfLpVy1]--></g></svg>