<svg xmlns="http://www.w3.org/2000/svg" xmlns:xlink="http://www.w3.org/1999/xlink" contentStyleType="text/css" data-diagram-type="DESCRIPTION" height="272.85px" preserveAspectRatio="none" style="width:537px;height:272px;background:#FFFFFF;" version="1.1" viewBox="0 0 537 272" width="537.2px" zoomAndPan="magnify"><title>&#12487;&#12540;&#12479;&#12501;&#12525;&#12540;&#22259; - &#12524;&#12505;&#12523;2&#65288;P6.0 &#31649;&#29702;&#27231;&#33021; - MVP&#65289;</title><defs/><g><text fill="#000000" font-family="sans-serif" font-size="11.9" font-weight="bold" lengthAdjust="spacing" textLength="277.6918" x="123.8284" y="20.8532">&#12487;&#12540;&#12479;&#12501;&#12525;&#12540;&#22259; - &#12524;&#12505;&#12523;2&#65288;P6.0 &#31649;&#29702;&#27231;&#33021; - MVP&#65289;</text><!--entity dev--><g class="entity" data-entity="dev" data-source-line="8" data-uid="ent0002" id="entity_dev"><rect fill="#90EE90" height="27.6914" rx="6.375" ry="6.375" style="stroke:#181818;stroke-width:0.425;" width="70.3616" x="222.4705" y="38.768"/><text fill="#000000" font-family="sans-serif" font-size="8.5" lengthAdjust="spacing" textLength="53.3616" x="230.9705" y="56.0917">&#38283;&#30330;&#32773;/&#31649;&#29702;&#32773;</text></g><!--entity P61--><g class="entity" data-entity="P61" data-source-line="10" data-uid="ent0003" id="entity_P61"><ellipse cx="57.9955" cy="148.418" fill="#FFEBEE" rx="6.8" ry="6.8" style="stroke:#181818;stroke-width:0.425;"/><text fill="#000000" font-family="sans-serif" font-size="8.5" lengthAdjust="spacing" textLength="17.4856" x="43.3571" y="171.6917">P6.1</text><text fill="#000000" font-family="sans-serif" font-size="8.5" lengthAdjust="spacing" textLength="34" x="40.9955" y="182.3831">&#12518;&#12540;&#12470;&#12540;</text><text fill="#000000" font-family="sans-serif" font-size="8.5" lengthAdjust="spacing" textLength="17" x="40.9955" y="193.0745">&#31649;&#29702;</text></g><!--entity P62--><g class="entity" data-entity="P62" data-source-line="11" data-uid="ent0004" id="entity_P62"><ellipse cx="240.7455" cy="148.418" fill="#FFEBEE" rx="6.8" ry="6.8" style="stroke:#181818;stroke-width:0.425;"/><text fill="#000000" font-family="sans-serif" font-size="8.5" lengthAdjust="spacing" textLength="17.4856" x="233.1835" y="171.6917">P6.2</text><text fill="#000000" font-family="sans-serif" font-size="8.5" lengthAdjust="spacing" textLength="16.5352" x="230.8219" y="182.3831">LLM</text><text fill="#000000" font-family="sans-serif" font-size="8.5" lengthAdjust="spacing" textLength="17" x="230.8219" y="193.0745">&#31649;&#29702;</text></g><!--entity P63--><g class="entity" data-entity="P63" data-source-line="12" data-uid="ent0005" id="entity_P63"><ellipse cx="461.7455" cy="148.418" fill="#FFEBEE" rx="6.8" ry="6.8" style="stroke:#181818;stroke-width:0.425;"/><text fill="#000000" font-family="sans-serif" font-size="8.5" lengthAdjust="spacing" textLength="17.4856" x="447.1071" y="171.6917">P6.3</text><text fill="#000000" font-family="sans-serif" font-size="8.5" lengthAdjust="spacing" textLength="34" x="444.7455" y="182.3831">&#12471;&#12473;&#12486;&#12512;</text><text fill="#000000" font-family="sans-serif" font-size="8.5" lengthAdjust="spacing" textLength="17" x="444.7455" y="193.0745">&#35373;&#23450;</text></g><!--entity D2--><g class="entity" data-entity="D2" data-source-line="14" data-uid="ent0006" id="entity_D2"><rect fill="#FFF8E1" height="21.1371" rx="6.375" ry="6.375" style="stroke:#181818;stroke-width:0.425;" width="73.3889" x="57.9955" y="238.518"/><line style="stroke:#181818;stroke-width:0.85;" x1="58.8455" x2="69.8955" y1="246.4137" y2="246.4137"/><line style="stroke:#181818;stroke-width:0.85;" x1="58.8455" x2="69.8955" y1="248.1137" y2="248.1137"/><text fill="#000000" font-family="sans-serif" font-size="8.5" lengthAdjust="spacing" textLength="49.5889" x="69.8955" y="249.4667">D2: &#35469;&#35388;&#24773;&#22577;</text><line style="stroke:#181818;stroke-width:0.85;" x1="119.4844" x2="130.5344" y1="246.4137" y2="246.4137"/><line style="stroke:#181818;stroke-width:0.85;" x1="119.4844" x2="130.5344" y1="248.1137" y2="248.1137"/></g><!--entity openrouter--><g class="entity" data-entity="openrouter" data-source-line="16" data-uid="ent0007" id="entity_openrouter"><rect fill="#E8EAF6" height="38.3828" rx="6.375" ry="6.375" style="stroke:#181818;stroke-width:0.425;" width="63.3059" x="202.4955" y="230.018"/><text fill="#000000" font-family="sans-serif" font-size="8.5" lengthAdjust="spacing" textLength="46.3059" x="210.9955" y="247.3417">OpenRouter</text><text fill="#000000" font-family="sans-serif" font-size="8.5" lengthAdjust="spacing" textLength="13.7004" x="210.9955" y="258.0331">API</text></g><!--link dev to P61--><g class="link" data-entity-1="dev" data-entity-2="P61" data-source-line="18" data-uid="lnk8" id="link_dev_P61"><path d="M222.411,54.068 C162.9365,55.6065 46.8095,62.4575 21.4455,92.318 C14.841,100.087 17.255,105.969 21.4455,115.268 C27.2935,128.239 36.8174,135.5042 45.6914,140.7487" fill="none" id="dev-to-P61" style="stroke:#181818;stroke-width:0.85;"/><polygon fill="#181818" points="50.082,143.3435,45.226,136.5242,46.4232,141.1811,41.7663,142.3783,50.082,143.3435" style="stroke:#181818;stroke-width:0.85;"/><text fill="#000000" font-family="sans-serif" font-size="8.5" lengthAdjust="spacing" textLength="23.6157" x="40.9681" y="101.9917">DF-17</text><text fill="#000000" font-family="sans-serif" font-size="8.5" lengthAdjust="spacing" textLength="60.9609" x="22.2955" y="112.6831">{user_id, action}</text></g><!--link P61 to dev--><g class="link" data-entity-1="P61" data-entity-2="dev" data-source-line="21" data-uid="lnk11" id="link_P61_dev"><path d="M65.705,141.5075 C80.053,130.4745 112.115,106.8955 142.1455,92.318 C168.0365,79.7465 194.1442,71.036 217.5192,64.2955" fill="none" id="P61-to-dev" style="stroke:#181818;stroke-width:0.85;"/><polygon fill="#181818" points="222.4195,62.8825,214.127,61.7352,218.3359,64.06,216.0111,68.269,222.4195,62.8825" style="stroke:#181818;stroke-width:0.85;"/><text fill="#000000" font-family="sans-serif" font-size="8.5" lengthAdjust="spacing" textLength="34" x="154.1082" y="101.9917">&#31649;&#29702;&#32080;&#26524;</text><text fill="#000000" font-family="sans-serif" font-size="8.5" lengthAdjust="spacing" textLength="56.2253" x="142.9955" y="112.6831">{users[], logs[]}</text></g><!--link P61 to D2--><g class="link" data-entity-1="P61" data-entity-2="D2" data-source-line="19" data-uid="lnk9" id="link_P61_D2"><path d="M50.1245,151.92 C38.9215,156.17 18.8105,165.6815 10.3955,181.568 C5.6185,190.578 5.1,195.797 10.3955,204.518 C20.774,221.62 35.4762,230.5684 53.0882,237.1219" fill="none" id="P61-to-D2" style="stroke:#181818;stroke-width:0.85;"/><polygon fill="#181818" points="57.868,238.9005,51.884,233.046,53.8848,237.4183,49.5126,239.4191,57.868,238.9005" style="stroke:#181818;stroke-width:0.85;"/><text fill="#000000" font-family="sans-serif" font-size="8.5" lengthAdjust="spacing" textLength="59.5" x="11.2455" y="191.2417">&#12518;&#12540;&#12470;&#12540;&#21839;&#21512;&#12379;</text><text fill="#000000" font-family="sans-serif" font-size="8.5" lengthAdjust="spacing" textLength="26.9402" x="27.5254" y="201.9331">{query}</text></g><!--link D2 to P61--><g class="link" data-entity-1="D2" data-entity-2="P61" data-source-line="20" data-uid="lnk10" id="link_D2_P61"><path d="M92.293,238.365 C89.148,225.139 82.926,201.152 74.9955,181.568 C71.332,172.524 68.4896,167.0813 64.7581,160.6638" fill="none" id="D2-to-P61" style="stroke:#181818;stroke-width:0.85;"/><polygon fill="#181818" points="62.1945,156.255,63.1006,164.5773,64.3308,159.929,68.9791,161.1592,62.1945,156.255" style="stroke:#181818;stroke-width:0.85;"/><text fill="#000000" font-family="sans-serif" font-size="8.5" lengthAdjust="spacing" textLength="51" x="84.3455" y="191.2417">&#12518;&#12540;&#12470;&#12540;&#24773;&#22577;</text><text fill="#000000" font-family="sans-serif" font-size="8.5" lengthAdjust="spacing" textLength="31.186" x="94.2525" y="201.9331">{users[]}</text></g><!--link dev to P62--><g class="link" data-entity-1="dev" data-entity-2="P62" data-source-line="23" data-uid="lnk12" id="link_dev_P62"><path d="M232.9425,66.971 C223.7455,73.3205 214.336,81.846 209.2955,92.318 C204.867,101.5065 205.4535,105.816 209.2955,115.268 C214.064,127.015 221.2792,133.8201 228.9547,139.4386" fill="none" id="dev-to-P62" style="stroke:#181818;stroke-width:0.85;"/><polygon fill="#181818" points="233.07,142.451,228.9054,135.1889,229.6406,139.9406,224.8888,140.6759,233.07,142.451" style="stroke:#181818;stroke-width:0.85;"/><text fill="#000000" font-family="sans-serif" font-size="8.5" lengthAdjust="spacing" textLength="23.6157" x="226.4565" y="101.9917">DF-18</text><text fill="#000000" font-family="sans-serif" font-size="8.5" lengthAdjust="spacing" textLength="56.2378" x="210.1455" y="112.6831">{model_config}</text></g><!--link P62 to dev--><g class="link" data-entity-1="P62" data-entity-2="dev" data-source-line="26" data-uid="lnk15" id="link_P62_dev"><path d="M248.557,141.924 C255.8075,136.161 266.1095,126.488 270.4955,115.268 C276.7345,99.288 272.6136,84.3804 266.8846,71.6474" fill="none" id="P62-to-dev" style="stroke:#181818;stroke-width:0.85;"/><polygon fill="#181818" points="264.792,66.9965,264.8303,75.3679,266.5358,70.8722,271.0315,72.5778,264.792,66.9965" style="stroke:#181818;stroke-width:0.85;"/><text fill="#000000" font-family="sans-serif" font-size="8.5" lengthAdjust="spacing" textLength="33.5352" x="302.1588" y="101.9917">LLM&#24773;&#22577;</text><text fill="#000000" font-family="sans-serif" font-size="8.5" lengthAdjust="spacing" textLength="88.3618" x="274.7455" y="112.6831">{models[], usage_stats}</text></g><!--link P62 to openrouter--><g class="link" data-entity-1="P62" data-entity-2="openrouter" data-source-line="24" data-uid="lnk13" id="link_P62_openrouter"><path d="M233.0105,153.5435 C224.332,158.8305 210.7405,168.733 205.0455,181.568 C197.8205,197.837 204.2772,212.3362 214.2732,225.7577" fill="none" id="P62-to-openrouter" style="stroke:#181818;stroke-width:0.85;"/><polygon fill="#181818" points="217.3195,229.848,215.4769,221.6817,214.7809,226.4394,210.0232,225.7435,217.3195,229.848" style="stroke:#181818;stroke-width:0.85;"/><text fill="#000000" font-family="sans-serif" font-size="8.5" lengthAdjust="spacing" textLength="51" x="205.8955" y="191.2417">&#20351;&#29992;&#37327;&#21839;&#21512;&#12379;</text><text fill="#000000" font-family="sans-serif" font-size="8.5" lengthAdjust="spacing" textLength="34.9753" x="213.9078" y="201.9331">{api_key}</text></g><!--link openrouter to P62--><g class="link" data-entity-1="openrouter" data-entity-2="P62" data-source-line="25" data-uid="lnk14" id="link_openrouter_P62"><path d="M248.625,229.7885 C253.623,222.368 258.587,213.4685 261.1455,204.518 C263.942,194.709 263.976,191.3685 261.1455,181.568 C258.3405,171.8865 254.8671,166.2942 249.9116,160.1147" fill="none" id="openrouter-to-P62" style="stroke:#181818;stroke-width:0.85;"/><polygon fill="#181818" points="246.721,156.136,248.8545,164.2311,249.3798,159.4515,254.1594,159.9769,246.721,156.136" style="stroke:#181818;stroke-width:0.85;"/><text fill="#000000" font-family="sans-serif" font-size="8.5" lengthAdjust="spacing" textLength="51" x="264.5455" y="191.2417">&#20351;&#29992;&#37327;&#12487;&#12540;&#12479;</text><text fill="#000000" font-family="sans-serif" font-size="8.5" lengthAdjust="spacing" textLength="50.1077" x="264.9917" y="201.9331">{usage_data}</text></g><!--link dev to P63--><g class="link" data-entity-1="dev" data-entity-2="P63" data-source-line="28" data-uid="lnk16" id="link_dev_P63"><path d="M293.114,63.741 C315.5795,70.66 345.0235,80.6815 369.9455,92.318 C402.645,107.584 434.2998,128.5477 449.7528,139.2067" fill="none" id="dev-to-P63" style="stroke:#181818;stroke-width:0.85;"/><polygon fill="#181818" points="453.951,142.1025,449.5843,134.9601,450.4525,139.6893,445.7232,140.5576,453.951,142.1025" style="stroke:#181818;stroke-width:0.85;"/><text fill="#000000" font-family="sans-serif" font-size="8.5" lengthAdjust="spacing" textLength="23.6157" x="417.2732" y="101.9917">DF-19</text><text fill="#000000" font-family="sans-serif" font-size="8.5" lengthAdjust="spacing" textLength="34.9712" x="411.5955" y="112.6831">{settings}</text></g><!--link P63 to dev--><g class="link" data-entity-1="P63" data-entity-2="dev" data-source-line="29" data-uid="lnk17" id="link_P63_dev"><path d="M463.0545,140.7425 C464.865,129.1485 466.599,105.5525 454.0955,92.318 C432.565,69.521 348.8678,60.0309 298.3693,56.1889" fill="none" id="P63-to-dev" style="stroke:#181818;stroke-width:0.85;"/><polygon fill="#181818" points="293.284,55.802,300.654,59.7725,297.5218,56.1244,301.1699,52.9921,293.284,55.802" style="stroke:#181818;stroke-width:0.85;"/><text fill="#000000" font-family="sans-serif" font-size="8.5" lengthAdjust="spacing" textLength="34" x="480.372" y="101.9917">&#35373;&#23450;&#32080;&#26524;</text><text fill="#000000" font-family="sans-serif" font-size="8.5" lengthAdjust="spacing" textLength="66.1531" x="464.2955" y="112.6831">{current_settings}</text></g><!--SRC=[RP9TQnD158RlzrSCoMrJimd6k12XcbqHKWmMUkDA67Udso7fR9oTLLGAcg4V8j9SMA5MjDv8_6X1H4L9wOyPyz6h_WLdPsDs8xrPXZFF-vxtp1w6MGi1mRS4xulEYU2xWX_Ays3_6yZ9-XV1zmJ_N3ZhRzTBytamEde_wcuEFxuRysC9B2xNp_hFjC21qYK_NxweQK4JapQaS0tSXKxJetv8t6j-owVWmIfcA7NleXKOjfZb4xQ47o6WvrEN4nqbY09TsbBaC4WysIPp-khvQE_t-Cd6XJYDF6K03AJVVP2jOM-LNQS84KrpC7KY0P3HTPi8_a5D-KD-RH9hWLBMIph8MfPvrJHdH0MRr6gB_xE5SzcYRD3vAJg_1DyK_C0cuzxXuEZrFr5nAj8SI5sGgLIg1GECFxqOz_f3lZ4u-5gfABQg_AsogSzCVREDo2q_P8ZQPA5-Gw6-h55L0rcpR2vO9KsBNY6Nkw9cCa3LokcNRF8u311jO7SEG8TXdwnhqNM4oMu6IB_CO7TdqDqMJ_Ubwbw8wCDrJJA9OvgDSq_iWzjt4jieXJ7Pbj7txl3jcuIQ0otVKtGgR64IjYovDTz5hORZanNiHPPn-zIm1lXpV39wsJlTsad7XMtSQ28PE8KcxbF9TDjL9EYXXWiPJ1h5sUMFduwd0gdaCHymo8AP-CL9_CkI3X1Zc7X1v5XCESOBCNqD9wGK4TP8yBy0]--></g></svg>