<svg xmlns="http://www.w3.org/2000/svg" xmlns:xlink="http://www.w3.org/1999/xlink" contentStyleType="text/css" data-diagram-type="DESCRIPTION" height="605.2px" preserveAspectRatio="none" style="width:546px;height:605px;background:#FFFFFF;" version="1.1" viewBox="0 0 546 605" width="546.55px" zoomAndPan="magnify"><title>&#12487;&#12540;&#12479;&#12501;&#12525;&#12540;&#22259; - &#12524;&#12505;&#12523;2&#65288;P6.0 &#31649;&#29702;&#27231;&#33021; - Phase 2&#36861;&#21152;&#65289;</title><defs/><g><text fill="#000000" font-family="sans-serif" font-size="11.9" font-weight="bold" lengthAdjust="spacing" textLength="321.4336" x="106.9609" y="20.8532">&#12487;&#12540;&#12479;&#12501;&#12525;&#12540;&#22259; - &#12524;&#12505;&#12523;2&#65288;P6.0 &#31649;&#29702;&#27231;&#33021; - Phase 2&#36861;&#21152;&#65289;</text><!--entity dev--><g class="entity" data-entity="dev" data-source-line="8" data-uid="ent0002" id="entity_dev"><rect fill="#90EE90" height="27.6914" rx="6.375" ry="6.375" style="stroke:#181818;stroke-width:0.425;" width="70.3616" x="177.9305" y="151.818"/><text fill="#000000" font-family="sans-serif" font-size="8.5" lengthAdjust="spacing" textLength="53.3616" x="186.4305" y="169.1417">&#38283;&#30330;&#32773;/&#31649;&#29702;&#32773;</text></g><!--entity P64--><g class="entity" data-entity="P64" data-source-line="10" data-uid="ent0003" id="entity_P64"><ellipse cx="335.6055" cy="52.793" fill="#FCE4EC" rx="6.8" ry="6.8" style="stroke:#181818;stroke-width:0.425;"/><text fill="#000000" font-family="sans-serif" font-size="8.5" lengthAdjust="spacing" textLength="17.4856" x="312.4671" y="76.0667">P6.4</text><text fill="#000000" font-family="sans-serif" font-size="8.5" lengthAdjust="spacing" textLength="51" x="310.1055" y="86.7581">&#12527;&#12540;&#12463;&#12501;&#12525;&#12540;</text><text fill="#000000" font-family="sans-serif" font-size="8.5" lengthAdjust="spacing" textLength="17" x="310.1055" y="97.4495">&#23450;&#32681;</text></g><!--entity P65--><g class="entity" data-entity="P65" data-source-line="11" data-uid="ent0004" id="entity_P65"><ellipse cx="208.9555" cy="473.543" fill="#FCE4EC" rx="6.8" ry="6.8" style="stroke:#181818;stroke-width:0.425;"/><text fill="#000000" font-family="sans-serif" font-size="8.5" lengthAdjust="spacing" textLength="17.4856" x="189.816" y="496.8167">P6.5</text><text fill="#000000" font-family="sans-serif" font-size="8.5" lengthAdjust="spacing" textLength="43.0022" x="187.4544" y="507.5081">Embedding</text><text fill="#000000" font-family="sans-serif" font-size="8.5" lengthAdjust="spacing" textLength="17" x="187.4544" y="518.1995">&#35373;&#23450;</text></g><!--entity P66--><g class="entity" data-entity="P66" data-source-line="12" data-uid="ent0005" id="entity_P66"><ellipse cx="332.2055" cy="271.668" fill="#FCE4EC" rx="6.8" ry="6.8" style="stroke:#181818;stroke-width:0.425;"/><text fill="#000000" font-family="sans-serif" font-size="8.5" lengthAdjust="spacing" textLength="17.4856" x="312.1363" y="294.9417">P6.6</text><text fill="#000000" font-family="sans-serif" font-size="8.5" lengthAdjust="spacing" textLength="43.0022" x="309.7747" y="305.6331">Embedding</text><text fill="#000000" font-family="sans-serif" font-size="8.5" lengthAdjust="spacing" textLength="42.5" x="309.7747" y="316.3245">&#20351;&#29992;&#37327;&#30435;&#35222;</text></g><!--entity D4--><g class="entity" data-entity="D4" data-source-line="14" data-uid="ent0006" id="entity_D4"><rect fill="#FFF8E1" height="21.1371" rx="6.375" ry="6.375" style="stroke:#181818;stroke-width:0.425;" width="132.424" x="384.9055" y="155.218"/><line style="stroke:#181818;stroke-width:0.85;" x1="385.7555" x2="396.8055" y1="163.1137" y2="163.1137"/><line style="stroke:#181818;stroke-width:0.85;" x1="385.7555" x2="396.8055" y1="164.8137" y2="164.8137"/><text fill="#000000" font-family="sans-serif" font-size="8.5" lengthAdjust="spacing" textLength="108.624" x="396.8055" y="166.1667">D4: LLM&#12527;&#12540;&#12463;&#12501;&#12525;&#12540;&#12473;&#12488;&#12450;</text><line style="stroke:#181818;stroke-width:0.85;" x1="505.4295" x2="516.4795" y1="163.1137" y2="163.1137"/><line style="stroke:#181818;stroke-width:0.85;" x1="505.4295" x2="516.4795" y1="164.8137" y2="164.8137"/></g><!--entity D5--><g class="entity" data-entity="D5" data-source-line="15" data-uid="ent0007" id="entity_D5"><rect fill="#FFF8E1" height="21.1371" rx="6.375" ry="6.375" style="stroke:#181818;stroke-width:0.425;" width="124.8911" x="272.2805" y="363.468"/><line style="stroke:#181818;stroke-width:0.85;" x1="273.1305" x2="284.1805" y1="371.3637" y2="371.3637"/><line style="stroke:#181818;stroke-width:0.85;" x1="273.1305" x2="284.1805" y1="373.0637" y2="373.0637"/><text fill="#000000" font-family="sans-serif" font-size="8.5" lengthAdjust="spacing" textLength="101.0911" x="284.1805" y="374.4167">D5: Embedding&#35373;&#23450;&#12473;&#12488;&#12450;</text><line style="stroke:#181818;stroke-width:0.85;" x1="385.2716" x2="396.3216" y1="371.3637" y2="371.3637"/><line style="stroke:#181818;stroke-width:0.85;" x1="385.2716" x2="396.3216" y1="373.0637" y2="373.0637"/></g><!--entity openai--><g class="entity" data-entity="openai" data-source-line="17" data-uid="ent0008" id="entity_openai"><rect fill="#E8EAF6" height="38.3828" rx="6.375" ry="6.375" style="stroke:#181818;stroke-width:0.425;" width="45.8245" x="186.0055" y="562.368"/><text fill="#000000" font-family="sans-serif" font-size="8.5" lengthAdjust="spacing" textLength="28.8245" x="194.5055" y="579.6917">OpenAI</text><text fill="#000000" font-family="sans-serif" font-size="8.5" lengthAdjust="spacing" textLength="13.7004" x="194.5055" y="590.3831">API</text></g><g class="entity" data-entity="GMN23" data-source-line="37" data-uid="ent0024" id="entity_GMN23"><path d="M373.4305,44.293 L373.4305,49.393 L343.6295,52.793 L373.4305,56.193 L373.4305,61.4258 A6.375,6.375 0 0 0 379.8055,67.8008 L486.9055,67.8008 A6.375,6.375 0 0 0 493.2805,61.4258 L493.2805,46.418 L484.7805,37.918 L379.8055,37.918 A6.375,6.375 0 0 0 373.4305,44.293" fill="#FEFFDD" style="stroke:#181818;stroke-width:0.425;"/><path d="M484.7805,37.918 L484.7805,43.2305 A3.1875,3.1875 0 0 0 487.968,46.418 L493.2805,46.418 L484.7805,37.918" fill="#FEFFDD" style="stroke:#181818;stroke-width:0.425;"/><text fill="#000000" font-family="sans-serif" font-size="8.5" lengthAdjust="spacing" textLength="68.4856" x="378.5305" y="50.9917">TD-008: DAG&#27083;&#36896;</text><text fill="#000000" font-family="sans-serif" font-size="8.5" lengthAdjust="spacing" textLength="102" x="378.5305" y="61.6831">&#12499;&#12472;&#12517;&#12450;&#12523;&#12494;&#12540;&#12489;&#12456;&#12487;&#12451;&#12479;</text></g><g class="entity" data-entity="GMN26" data-source-line="42" data-uid="ent0027" id="entity_GMN26"><path d="M246.7805,465.043 L246.7805,470.143 L216.631,473.543 L246.7805,476.943 L246.7805,482.1758 A6.375,6.375 0 0 0 253.1555,488.5508 L351.7555,488.5508 A6.375,6.375 0 0 0 358.1305,482.1758 L358.1305,467.168 L349.6305,458.668 L253.1555,458.668 A6.375,6.375 0 0 0 246.7805,465.043" fill="#FEFFDD" style="stroke:#181818;stroke-width:0.425;"/><path d="M349.6305,458.668 L349.6305,463.9805 A3.1875,3.1875 0 0 0 352.818,467.168 L358.1305,467.168 L349.6305,458.668" fill="#FEFFDD" style="stroke:#181818;stroke-width:0.425;"/><text fill="#000000" font-family="sans-serif" font-size="8.5" lengthAdjust="spacing" textLength="75.5662" x="251.8805" y="471.7417">TD-009: &#20877;&#29983;&#25104;&#25126;&#30053;</text><text fill="#000000" font-family="sans-serif" font-size="8.5" lengthAdjust="spacing" textLength="93.5" x="251.8805" y="482.4331">&#12496;&#12483;&#12463;&#12464;&#12521;&#12454;&#12531;&#12489;&#12472;&#12519;&#12502;</text></g><!--link dev to P64--><g class="link" data-entity-1="dev" data-entity-2="P64" data-source-line="19" data-uid="lnk9" id="link_dev_P64"><path d="M219.8355,151.665 C228.106,136.0845 243.508,110.2615 262.5055,93.168 C282.999,74.74 308.8375,63.6163 323.058,58.2358" fill="none" id="dev-to-P64" style="stroke:#181818;stroke-width:0.85;"/><polygon fill="#181818" points="327.828,56.431,319.4698,55.9582,323.853,57.935,321.8762,62.3181,327.828,56.431" style="stroke:#181818;stroke-width:0.85;"/><text fill="#000000" font-family="sans-serif" font-size="8.5" lengthAdjust="spacing" textLength="41.5703" x="293.1242" y="102.8417">DF-29&#12316;31</text><text fill="#000000" font-family="sans-serif" font-size="8.5" lengthAdjust="spacing" textLength="68" x="279.9093" y="113.5331">&#12527;&#12540;&#12463;&#12501;&#12525;&#12540;&#25805;&#20316;</text><text fill="#000000" font-family="sans-serif" font-size="8.5" lengthAdjust="spacing" textLength="101.1077" x="263.3555" y="124.2245">{workflow, steps[], edges[]}</text></g><!--link P64 to dev--><g class="link" data-entity-1="P64" data-entity-2="dev" data-source-line="22" data-uid="lnk12" id="link_P64_dev"><path d="M327.811,54.085 C295.936,56.0655 176.171,65.305 153.7055,93.168 C144.466,104.643 146.6845,113.3725 153.7055,126.318 C159.647,137.2575 165.7425,143.033 176.291,149.1105" fill="none" id="P64-to-dev" style="stroke:#181818;stroke-width:0.85;"/><polygon fill="#181818" points="180.71,151.6565,175.7788,144.8914,177.0275,149.5348,172.3841,150.7835,180.71,151.6565" style="stroke:#181818;stroke-width:0.85;"/><text fill="#000000" font-family="sans-serif" font-size="8.5" lengthAdjust="spacing" textLength="34" x="174.1661" y="107.9417">&#25805;&#20316;&#32080;&#26524;</text><text fill="#000000" font-family="sans-serif" font-size="8.5" lengthAdjust="spacing" textLength="73.2212" x="154.5555" y="118.6331">{result, workflows[]}</text></g><!--link P64 to D4--><g class="link" data-entity-1="P64" data-entity-2="D4" data-source-line="20" data-uid="lnk10" id="link_P64_D4"><path d="M341.8275,60.6895 C356.915,77.7745 394.706,120.436 401.0555,126.318 C412.5135,136.926 422.5527,144.6899 432.9057,152.1444" fill="none" id="P64-to-D4" style="stroke:#181818;stroke-width:0.85;"/><polygon fill="#181818" points="437.0445,155.1245,432.8231,147.8952,433.5955,152.6411,428.8497,153.4136,437.0445,155.1245" style="stroke:#181818;stroke-width:0.85;"/><text fill="#000000" font-family="sans-serif" font-size="8.5" lengthAdjust="spacing" textLength="24.5537" x="419.6339" y="107.9417">CRUD</text><text fill="#000000" font-family="sans-serif" font-size="8.5" lengthAdjust="spacing" textLength="60.0105" x="401.9055" y="118.6331">{workflow_data}</text></g><!--link D4 to P64--><g class="link" data-entity-1="D4" data-entity-2="P64" data-source-line="21" data-uid="lnk11" id="link_D4_P64"><path d="M457.7335,155.014 C466.65,139.969 480.0035,111.3325 465.6555,93.168 C435.3275,54.7735 403.7925,86.3255 358.5555,67.668 C353.209,65.458 351.8909,64.9333 347.5899,62.0603" fill="none" id="D4-to-P64" style="stroke:#181818;stroke-width:0.85;"/><polygon fill="#181818" points="343.349,59.2275,347.8218,66.304,346.8831,61.5882,351.5989,60.6495,343.349,59.2275" style="stroke:#181818;stroke-width:0.85;"/><text fill="#000000" font-family="sans-serif" font-size="8.5" lengthAdjust="spacing" textLength="68" x="472.4555" y="107.9417">&#12527;&#12540;&#12463;&#12501;&#12525;&#12540;&#24773;&#22577;</text><text fill="#000000" font-family="sans-serif" font-size="8.5" lengthAdjust="spacing" textLength="47.7129" x="482.5991" y="118.6331">{workflows[]}</text></g><!--link dev to P65--><g class="link" data-entity-1="dev" data-entity-2="P65" data-source-line="24" data-uid="lnk13" id="link_dev_P65"><path d="M184.28,179.9615 C143.9815,200.2765 72.692,243.2865 44.0555,304.818 C5.1,388.526 158.6874,453.4348 196.3339,467.9358" fill="none" id="dev-to-P65" style="stroke:#181818;stroke-width:0.85;"/><polygon fill="#181818" points="201.093,469.769,195.1764,463.8464,197.127,468.2413,192.7322,470.192,201.093,469.769" style="stroke:#181818;stroke-width:0.85;"/><text fill="#000000" font-family="sans-serif" font-size="8.5" lengthAdjust="spacing" textLength="41.5703" x="75.388" y="314.4917">DF-32&#12316;34</text><text fill="#000000" font-family="sans-serif" font-size="8.5" lengthAdjust="spacing" textLength="60.0022" x="66.1721" y="325.1831">Embedding&#35373;&#23450;</text><text fill="#000000" font-family="sans-serif" font-size="8.5" lengthAdjust="spacing" textLength="102.5354" x="44.9055" y="335.8745">{model_name, dimensions}</text></g><!--link P65 to dev--><g class="link" data-entity-1="P65" data-entity-2="dev" data-source-line="29" data-uid="lnk18" id="link_P65_dev"><path d="M208.76,465.6975 C208.556,457.801 208.233,444.558 208.1055,433.168 C207.995,422.968 208.0715,420.418 208.1055,410.218 C208.301,363.3745 208.046,351.653 208.9555,304.818 C209.848,259.003 211.5876,209.7589 212.5056,185.1174" fill="none" id="P65-to-dev" style="stroke:#181818;stroke-width:0.85;"/><polygon fill="#181818" points="212.6955,180.021,209.0131,187.5391,212.5373,184.268,215.8083,187.7922,212.6955,180.021" style="stroke:#181818;stroke-width:0.85;"/><text fill="#000000" font-family="sans-serif" font-size="8.5" lengthAdjust="spacing" textLength="34" x="250.2199" y="319.5917">&#35373;&#23450;&#32080;&#26524;</text><text fill="#000000" font-family="sans-serif" font-size="8.5" lengthAdjust="spacing" textLength="114.8289" x="209.8055" y="330.2831">{settings, regeneration_status}</text></g><!--link P65 to D5--><g class="link" data-entity-1="P65" data-entity-2="D5" data-source-line="25" data-uid="lnk14" id="link_P65_D5"><path d="M216.8095,467.355 C221.1445,464.55 226.695,461.184 231.9055,458.668 C261.613,444.3285 276.42,454.469 301.6055,433.168 C317.152,420.027 325.2051,402.4354 329.8376,389.5919" fill="none" id="P65-to-D5" style="stroke:#181818;stroke-width:0.85;"/><polygon fill="#181818" points="331.568,384.7945,325.7741,390.8371,330.126,388.7924,332.1707,393.1443,331.568,384.7945" style="stroke:#181818;stroke-width:0.85;"/><text fill="#000000" font-family="sans-serif" font-size="8.5" lengthAdjust="spacing" textLength="34" x="321.6411" y="419.8917">&#35373;&#23450;&#20445;&#23384;</text><text fill="#000000" font-family="sans-serif" font-size="8.5" lengthAdjust="spacing" textLength="34.9712" x="321.1555" y="430.5831">{settings}</text></g><!--link D5 to P65--><g class="link" data-entity-1="D5" data-entity-2="P65" data-source-line="26" data-uid="lnk15" id="link_D5_P65"><path d="M272.17,384.718 C255.8925,389.937 239.6065,397.944 227.6555,410.218 C212.5,425.7985 209.7671,448.0557 209.2486,460.7547" fill="none" id="D5-to-P65" style="stroke:#181818;stroke-width:0.85;"/><polygon fill="#181818" points="209.0405,465.8505,212.7498,458.3455,209.2139,461.604,205.9554,458.0681,209.0405,465.8505" style="stroke:#181818;stroke-width:0.85;"/><text fill="#000000" font-family="sans-serif" font-size="8.5" lengthAdjust="spacing" textLength="34" x="244.582" y="419.8917">&#29694;&#22312;&#35373;&#23450;</text><text fill="#000000" font-family="sans-serif" font-size="8.5" lengthAdjust="spacing" textLength="66.1531" x="228.5055" y="430.5831">{current_settings}</text></g><!--link P65 to openai--><g class="link" data-entity-1="P65" data-entity-2="openai" data-source-line="27" data-uid="lnk16" id="link_P65_openai"><path d="M201.28,477.9205 C189.8985,483.624 168.98,496.068 160.5055,513.918 C156.1365,523.132 156.366,527.5435 160.5055,536.868 C165.801,548.785 172.0588,555.7274 181.8168,563.1819" fill="none" id="P65-to-openai" style="stroke:#181818;stroke-width:0.85;"/><polygon fill="#181818" points="185.8695,566.278,181.8544,558.9321,182.4922,563.6979,177.7264,564.3357,185.8695,566.278" style="stroke:#181818;stroke-width:0.85;"/><text fill="#000000" font-family="sans-serif" font-size="8.5" lengthAdjust="spacing" textLength="42.5" x="168.2182" y="523.5917">&#20877;&#29983;&#25104;&#23455;&#34892;</text><text fill="#000000" font-family="sans-serif" font-size="8.5" lengthAdjust="spacing" textLength="56.2253" x="161.3555" y="534.2831">{texts[], model}</text></g><!--link openai to P65--><g class="link" data-entity-1="openai" data-entity-2="P65" data-source-line="28" data-uid="lnk17" id="link_openai_P65"><path d="M215.5345,562.368 C217.9995,554.616 220.49,545.4105 221.7055,536.868 C223.1505,526.77 223.295,523.9905 221.7055,513.918 C219.8525,502.0945 216.9614,493.7123 213.8079,485.9518" fill="none" id="openai-to-P65" style="stroke:#181818;stroke-width:0.85;"/><polygon fill="#181818" points="211.888,481.227,211.618,489.5941,213.4879,485.1643,217.9178,487.0342,211.888,481.227" style="stroke:#181818;stroke-width:0.85;"/><text fill="#000000" font-family="sans-serif" font-size="8.5" lengthAdjust="spacing" textLength="42.5" x="231.361" y="523.5917">&#26032;&#12505;&#12463;&#12488;&#12523;</text><text fill="#000000" font-family="sans-serif" font-size="8.5" lengthAdjust="spacing" textLength="56.7109" x="224.2555" y="534.2831">{embeddings[]}</text></g><!--link dev to P66--><g class="link" data-entity-1="dev" data-entity-2="P66" data-source-line="31" data-uid="lnk19" id="link_dev_P66"><path d="M215.526,179.9105 C218.994,195.8735 226.9925,222.5635 243.8055,238.518 C267.393,260.8985 302.663,267.387 319.459,269.4355" fill="none" id="dev-to-P66" style="stroke:#181818;stroke-width:0.85;"/><polygon fill="#181818" points="324.5215,270.053,317.3394,265.7518,320.3028,269.5384,316.5161,272.5018,324.5215,270.053" style="stroke:#181818;stroke-width:0.85;"/><text fill="#000000" font-family="sans-serif" font-size="8.5" lengthAdjust="spacing" textLength="41.5703" x="248.2145" y="215.0417">DF-35&#12316;37</text><text fill="#000000" font-family="sans-serif" font-size="8.5" lengthAdjust="spacing" textLength="42.5" x="247.7496" y="225.7331">&#20351;&#29992;&#37327;&#30435;&#35222;</text><text fill="#000000" font-family="sans-serif" font-size="8.5" lengthAdjust="spacing" textLength="48.6882" x="244.6555" y="236.4245">{date_range}</text></g><!--link P66 to dev--><g class="link" data-entity-1="P66" data-entity-2="dev" data-source-line="34" data-uid="lnk22" id="link_P66_dev"><path d="M330.1315,263.7715 C325.9495,250.6645 315.3415,222.3255 297.3555,205.368 C283.6705,192.4565 269.6893,185.0816 253.3608,178.9021" fill="none" id="P66-to-dev" style="stroke:#181818;stroke-width:0.85;"/><polygon fill="#181818" points="248.591,177.097,254.5423,182.9846,252.5659,178.6013,256.9492,176.6248,248.591,177.097" style="stroke:#181818;stroke-width:0.85;"/><text fill="#000000" font-family="sans-serif" font-size="8.5" lengthAdjust="spacing" textLength="59.5" x="344.323" y="220.1417">&#20351;&#29992;&#37327;&#12524;&#12509;&#12540;&#12488;</text><text fill="#000000" font-family="sans-serif" font-size="8.5" lengthAdjust="spacing" textLength="105.835" x="321.1555" y="230.8331">{daily_stats[], cost_forecast}</text></g><!--link P66 to D5--><g class="link" data-entity-1="P66" data-entity-2="D5" data-source-line="32" data-uid="lnk20" id="link_P66_D5"><path d="M332.044,279.403 C331.7975,291.3285 331.4405,316.616 332.2055,337.968 C332.52,346.5615 332.8168,351.221 333.4203,358.2845" fill="none" id="P66-to-D5" style="stroke:#181818;stroke-width:0.85;"/><polygon fill="#181818" points="333.8545,363.366,336.5909,355.4543,333.4927,359.1314,329.8156,356.0332,333.8545,363.366" style="stroke:#181818;stroke-width:0.85;"/><text fill="#000000" font-family="sans-serif" font-size="8.5" lengthAdjust="spacing" textLength="34" x="333.0555" y="319.5917">&#12525;&#12464;&#21462;&#24471;</text><text fill="#000000" font-family="sans-serif" font-size="8.5" lengthAdjust="spacing" textLength="26.9402" x="336.5854" y="330.2831">{query}</text></g><!--link D5 to P66--><g class="link" data-entity-1="D5" data-entity-2="P66" data-source-line="33" data-uid="lnk21" id="link_D5_P66"><path d="M349.724,363.4 C357.7565,357.178 366.894,348.355 371.3055,337.968 C377.0685,324.4105 377.587,318.146 371.3055,304.818 C364.854,291.116 353.9315,283.638 344.4965,278.6315" fill="none" id="D5-to-P66" style="stroke:#181818;stroke-width:0.85;"/><polygon fill="#181818" points="339.9915,276.241,345.1554,282.8301,343.7457,278.2331,348.3427,276.8234,339.9915,276.241" style="stroke:#181818;stroke-width:0.85;"/><text fill="#000000" font-family="sans-serif" font-size="8.5" lengthAdjust="spacing" textLength="42.5" x="382.9457" y="319.5917">&#20351;&#29992;&#37327;&#12525;&#12464;</text><text fill="#000000" font-family="sans-serif" font-size="8.5" lengthAdjust="spacing" textLength="53.8804" x="377.2555" y="330.2831">{usage_logs[]}</text></g><!--SRC=[RLHRJnD167tVNp61rnOBT2iqmOJGrf1W95wUh6d6xb0sjBCuEnKl8I4x4OetIC1wGq69255GOqpKSFanmtRB4t_1RtPxsGRUPdU-SxvppZSptEH5WgHOa69VEaTIl9HY5zRkkrye2l-_IV56Ygzzf_kLyKHF37bx7xtb-ThEUbqSGC7u9BO9wgiV7RXFDaxt5pKxZu4lrZEWQvezPT9fp709tS7vgGApojGOiOeMGpEJ9YUXVODCu7AHPopAhviF2UgDXJORE4O9Gxr0oqYUOrg0DbqdrQVUct_rkSSN0bsmwaBO1hvxg7lCB4pooumGgcbva-KL0869U9PAyTtt-xtbDqlTlRVUuGxoyUE9EEhEZAJZwP4Eg9wbwT8TOXWcBMHfVNiNG4s4VYuYqO4uFZZoLhTF5fQyTvlrhMeJccX1jJnc1keQ6ah5asXixCfPeTBvAqL5Ef-6XdnqIYdDP0RIlMsidaIjfe78CoYzXGhdUNMQqE7HB1qU7_NBBFZ69kfE3wI7CmbDKxb6evVyV98ebOds3SgvjVxUynAjhJm_FbZBqaSp5fkQA5ep4MHpCctVkXr1n2WGMCngYaWHfXJVoBMRgL1zpi0SpsgfUAZbEMt4OtVZPmZMmQi49r4WnVkzNFkW135Yms6Be0v4o9iUUEllKzxYeG46MG93oJ98CKTnYKIGOPO8jKsBsggj7jXH547ryT5xT_SrO6p2EN10LKeFDVAM3jsrxHPplimOeJpNhcvoDcQHHExySszrlLPPTlVMwn-V0OYJ-zpFrTSrgpLAsqrgrH_g7glOAd2R0KAQdXfnwQ6u0Z6jk9fI8eYH0e5RY3cupTaSyxBT4LoY4PokWhjuvhW35uoKv1YSDgAQ9jfXgM4wFzobgdlu2khkbWbx44fACRVOWbgeAjkuG795gsaY4J8HgeOtxBqwDQBYAp2B3tpnVc9vo-Qv2Glk0BOvcA4M9uYfbmDP4-hGQGZTI4LZiG6mDdovzkNfoTm6_9DYHJf_fFWCTmeIbUA5ts5HEjlgCNKsuJ7L23MG8ZnBgpTf1qFph5Msl9UVVV9bAOGQbmDpsv7EbXI_V7Be-4MAQflvFm00]--></g></svg>