<svg xmlns="http://www.w3.org/2000/svg" xmlns:xlink="http://www.w3.org/1999/xlink" contentStyleType="text/css" data-diagram-type="DESCRIPTION" height="401.2px" preserveAspectRatio="none" style="width:814px;height:401px;background:#FFFFFF;" version="1.1" viewBox="0 0 814 401" width="814.3px" zoomAndPan="magnify"><title>&#12487;&#12540;&#12479;&#12501;&#12525;&#12540;&#22259; - &#12524;&#12505;&#12523;2&#65288;P8.0 &#23398;&#32722;&#12467;&#12531;&#12486;&#12531;&#12484;&#65289;&#12304;Phase 2&#12305;</title><defs/><g><text fill="#000000" font-family="sans-serif" font-size="11.9" font-weight="bold" lengthAdjust="spacing" textLength="347.6741" x="227.5428" y="20.8532">&#12487;&#12540;&#12479;&#12501;&#12525;&#12540;&#22259; - &#12524;&#12505;&#12523;2&#65288;P8.0 &#23398;&#32722;&#12467;&#12531;&#12486;&#12531;&#12484;&#65289;&#12304;Phase 2&#12305;</text><!--entity user--><g class="entity" data-entity="user" data-source-line="8" data-uid="ent0002" id="entity_user"><rect fill="#ADD8E6" height="27.6914" rx="6.375" ry="6.375" style="stroke:#181818;stroke-width:0.425;" width="76.5" x="392.9975" y="38.768"/><text fill="#000000" font-family="sans-serif" font-size="8.5" lengthAdjust="spacing" textLength="59.5" x="401.4975" y="56.0917">&#12456;&#12531;&#12489;&#12518;&#12540;&#12470;&#12540;</text></g><!--entity P81--><g class="entity" data-entity="P81" data-source-line="10" data-uid="ent0003" id="entity_P81"><ellipse cx="432.0975" cy="148.418" fill="#F3E5F5" rx="6.8" ry="6.8" style="stroke:#181818;stroke-width:0.425;"/><text fill="#000000" font-family="sans-serif" font-size="8.5" lengthAdjust="spacing" textLength="17.4856" x="421.7091" y="171.6917">P8.1</text><text fill="#000000" font-family="sans-serif" font-size="8.5" lengthAdjust="spacing" textLength="25.5" x="419.3475" y="182.3831">&#12504;&#12523;&#12503;</text><text fill="#000000" font-family="sans-serif" font-size="8.5" lengthAdjust="spacing" textLength="17" x="419.3475" y="193.0745">&#26908;&#32034;</text></g><!--entity P82--><g class="entity" data-entity="P82" data-source-line="11" data-uid="ent0004" id="entity_P82"><ellipse cx="676.8975" cy="349.868" fill="#F3E5F5" rx="6.8" ry="6.8" style="stroke:#181818;stroke-width:0.425;"/><text fill="#000000" font-family="sans-serif" font-size="8.5" lengthAdjust="spacing" textLength="17.4856" x="649.5091" y="373.1417">P8.2</text><text fill="#000000" font-family="sans-serif" font-size="8.5" lengthAdjust="spacing" textLength="59.5" x="647.1475" y="383.8331">&#12481;&#12517;&#12540;&#12488;&#12522;&#12450;&#12523;</text><text fill="#000000" font-family="sans-serif" font-size="8.5" lengthAdjust="spacing" textLength="17" x="647.1475" y="394.5245">&#23455;&#34892;</text></g><!--entity P83--><g class="entity" data-entity="P83" data-source-line="12" data-uid="ent0005" id="entity_P83"><ellipse cx="234.0475" cy="349.868" fill="#F3E5F5" rx="6.8" ry="6.8" style="stroke:#181818;stroke-width:0.425;"/><text fill="#000000" font-family="sans-serif" font-size="8.5" lengthAdjust="spacing" textLength="17.4856" x="226.4855" y="373.1417">P8.3</text><text fill="#000000" font-family="sans-serif" font-size="8.5" lengthAdjust="spacing" textLength="17" x="224.1239" y="383.8331">&#36914;&#25431;</text><text fill="#000000" font-family="sans-serif" font-size="8.5" lengthAdjust="spacing" textLength="17" x="224.1239" y="394.5245">&#31649;&#29702;</text></g><!--entity D3--><g class="entity" data-entity="D3" data-source-line="14" data-uid="ent0006" id="entity_D3"><rect fill="#FFF8E1" height="21.1371" rx="6.375" ry="6.375" style="stroke:#181818;stroke-width:0.425;" width="124.3889" x="414.2475" y="238.518"/><line style="stroke:#181818;stroke-width:0.85;" x1="415.0975" x2="426.1475" y1="246.4137" y2="246.4137"/><line style="stroke:#181818;stroke-width:0.85;" x1="415.0975" x2="426.1475" y1="248.1137" y2="248.1137"/><text fill="#000000" font-family="sans-serif" font-size="8.5" lengthAdjust="spacing" textLength="100.5889" x="426.1475" y="249.4667">D3: &#23398;&#32722;&#12467;&#12531;&#12486;&#12531;&#12484;&#12473;&#12488;&#12450;</text><line style="stroke:#181818;stroke-width:0.85;" x1="526.7364" x2="537.7864" y1="246.4137" y2="246.4137"/><line style="stroke:#181818;stroke-width:0.85;" x1="526.7364" x2="537.7864" y1="248.1137" y2="248.1137"/></g><!--entity openai--><g class="entity" data-entity="openai" data-source-line="16" data-uid="ent0007" id="entity_openai"><rect fill="#E8EAF6" height="38.3828" rx="6.375" ry="6.375" style="stroke:#181818;stroke-width:0.425;" width="45.8245" x="308.8475" y="230.018"/><text fill="#000000" font-family="sans-serif" font-size="8.5" lengthAdjust="spacing" textLength="28.8245" x="317.3475" y="247.3417">OpenAI</text><text fill="#000000" font-family="sans-serif" font-size="8.5" lengthAdjust="spacing" textLength="13.7004" x="317.3475" y="258.0331">API</text></g><!--link user to P81--><g class="link" data-entity-1="user" data-entity-2="P81" data-source-line="18" data-uid="lnk8" id="link_user_P81"><path d="M402.611,66.852 C392.581,73.057 382.4235,81.506 376.8475,92.318 C372.164,101.379 371.7645,106.4195 376.8475,115.268 C387.124,133.1945 406.7189,140.7424 419.3584,144.2869" fill="none" id="user-to-P81" style="stroke:#181818;stroke-width:0.85;"/><polygon fill="#181818" points="424.269,145.664,417.8212,140.3246,420.1769,144.5164,415.9851,146.8721,424.269,145.664" style="stroke:#181818;stroke-width:0.85;"/><text fill="#000000" font-family="sans-serif" font-size="8.5" lengthAdjust="spacing" textLength="23.6157" x="400.3856" y="101.9917">DF-25</text><text fill="#000000" font-family="sans-serif" font-size="8.5" lengthAdjust="spacing" textLength="68.9919" x="377.6975" y="112.6831">{query, category?}</text></g><!--link P81 to user--><g class="link" data-entity-1="P81" data-entity-2="user" data-source-line="23" data-uid="lnk13" id="link_P81_user"><path d="M437.58,140.615 C442.1275,134.3845 448.239,124.7795 450.7975,115.268 C453.441,105.4165 453.1605,102.2375 450.7975,92.318 C448.664,83.393 446.685,78.5984 442.5115,71.4074" fill="none" id="P81-to-user" style="stroke:#181818;stroke-width:0.85;"/><polygon fill="#181818" points="439.9515,66.9965,440.8509,75.3195,442.0848,70.6722,446.7321,71.9062,439.9515,66.9965" style="stroke:#181818;stroke-width:0.85;"/><text fill="#000000" font-family="sans-serif" font-size="8.5" lengthAdjust="spacing" textLength="23.6157" x="459.2577" y="101.9917">DF-28</text><text fill="#000000" font-family="sans-serif" font-size="8.5" lengthAdjust="spacing" textLength="35.436" x="453.3475" y="112.6831">{results[]}</text></g><!--link P81 to openai--><g class="link" data-entity-1="P81" data-entity-2="openai" data-source-line="19" data-uid="lnk9" id="link_P81_openai"><path d="M424.1925,149.948 C398.0635,152.3705 315.231,161.542 299.4975,181.568 C287.963,196.239 296.4747,211.8847 308.9612,225.9947" fill="none" id="P81-to-openai" style="stroke:#181818;stroke-width:0.85;"/><polygon fill="#181818" points="312.341,229.814,309.8174,221.8319,309.5245,226.6312,304.7251,226.3383,312.341,229.814" style="stroke:#181818;stroke-width:0.85;"/><text fill="#000000" font-family="sans-serif" font-size="8.5" lengthAdjust="spacing" textLength="51" x="300.3475" y="191.2417">&#12505;&#12463;&#12488;&#12523;&#22793;&#25563;</text><text fill="#000000" font-family="sans-serif" font-size="8.5" lengthAdjust="spacing" textLength="26.9402" x="312.3774" y="201.9331">{query}</text></g><!--link openai to P81--><g class="link" data-entity-1="openai" data-entity-2="P81" data-source-line="20" data-uid="lnk10" id="link_openai_P81"><path d="M344.9555,229.9245 C355.487,215.874 371.093,196.443 387.0475,181.568 C399.007,170.4075 410.6184,162.5258 419.9854,156.6778" fill="none" id="openai-to-P81" style="stroke:#181818;stroke-width:0.85;"/><polygon fill="#181818" points="424.3115,153.977,416.0217,155.1442,420.7064,156.2277,419.6229,160.9124,424.3115,153.977" style="stroke:#181818;stroke-width:0.85;"/><text fill="#000000" font-family="sans-serif" font-size="8.5" lengthAdjust="spacing" textLength="52.4609" x="387.8975" y="196.7667">{embedding[]}</text></g><!--link P81 to D3--><g class="link" data-entity-1="P81" data-entity-2="D3" data-source-line="21" data-uid="lnk11" id="link_P81_D3"><path d="M435.132,156.0765 C442.7735,173.204 460.7639,213.503 469.7484,233.6395" fill="none" id="P81-to-D3" style="stroke:#181818;stroke-width:0.85;"/><polygon fill="#181818" points="471.8265,238.297,471.8144,229.9254,470.0948,234.4158,465.6045,232.6962,471.8265,238.297" style="stroke:#181818;stroke-width:0.85;"/><text fill="#000000" font-family="sans-serif" font-size="8.5" lengthAdjust="spacing" textLength="34" x="482.6115" y="191.2417">&#39006;&#20284;&#26908;&#32034;</text><text fill="#000000" font-family="sans-serif" font-size="8.5" lengthAdjust="spacing" textLength="87.428" x="455.8975" y="201.9331">{embedding, threshold}</text></g><!--link D3 to P81--><g class="link" data-entity-1="D3" data-entity-2="P81" data-source-line="22" data-uid="lnk12" id="link_D3_P81"><path d="M502.2565,238.4585 C530.0685,226.4395 567.9785,204.7985 550.2475,181.568 C536.503,163.565 468.8974,153.7911 444.8679,150.7991" fill="none" id="D3-to-P81" style="stroke:#181818;stroke-width:0.85;"/><polygon fill="#181818" points="439.807,150.169,446.9783,154.4881,444.0244,150.6941,447.8185,147.7403,439.807,150.169" style="stroke:#181818;stroke-width:0.85;"/><text fill="#000000" font-family="sans-serif" font-size="8.5" lengthAdjust="spacing" textLength="34" x="559.6141" y="191.2417">&#26908;&#32034;&#32080;&#26524;</text><text fill="#000000" font-family="sans-serif" font-size="8.5" lengthAdjust="spacing" textLength="42.5332" x="555.3475" y="201.9331">{contents[]}</text></g><!--link user to P82--><g class="link" data-entity-1="user" data-entity-2="P82" data-source-line="25" data-uid="lnk14" id="link_user_P82"><path d="M457.5125,66.869 C495.0315,86.9545 564.009,128.4855 605.4975,181.568 C647.53,235.356 668.274,312.6248 674.105,337.0113" fill="none" id="user-to-P82" style="stroke:#181818;stroke-width:0.85;"/><polygon fill="#181818" points="675.291,341.9715,676.8188,333.7405,674.3027,337.838,670.2052,335.3219,675.291,341.9715" style="stroke:#181818;stroke-width:0.85;"/><text fill="#000000" font-family="sans-serif" font-size="8.5" lengthAdjust="spacing" textLength="76.5" x="620.7975" y="191.2417">&#12481;&#12517;&#12540;&#12488;&#12522;&#12450;&#12523;&#38283;&#22987;</text><text fill="#000000" font-family="sans-serif" font-size="8.5" lengthAdjust="spacing" textLength="44.9031" x="636.596" y="201.9331">{content_id}</text></g><!--link P82 to user--><g class="link" data-entity-1="P82" data-entity-2="user" data-source-line="27" data-uid="lnk16" id="link_P82_user"><path d="M681.122,342.031 C695.1725,317.857 737.5875,236.2315 704.9475,181.568 C654.7805,97.588 537.487,68.8659 474.757,59.0314" fill="none" id="P82-to-user" style="stroke:#181818;stroke-width:0.85;"/><polygon fill="#181818" points="469.7185,58.2415,476.7496,62.7853,473.9172,58.8997,477.8028,56.0674,469.7185,58.2415" style="stroke:#181818;stroke-width:0.85;"/><text fill="#000000" font-family="sans-serif" font-size="8.5" lengthAdjust="spacing" textLength="51" x="735.5786" y="191.2417">&#12473;&#12486;&#12483;&#12503;&#34920;&#31034;</text><text fill="#000000" font-family="sans-serif" font-size="8.5" lengthAdjust="spacing" textLength="93.5623" x="714.2975" y="201.9331">{current_step, validation}</text></g><!--link D3 to P82--><g class="link" data-entity-1="D3" data-entity-2="P82" data-source-line="26" data-uid="lnk15" id="link_D3_P82"><path d="M491.3085,259.9295 C512.669,273.8015 553.3415,299.225 590.1975,316.718 C618.341,330.08 648.7516,340.2098 664.1876,345.0718" fill="none" id="D3-to-P82" style="stroke:#181818;stroke-width:0.85;"/><polygon fill="#181818" points="669.052,346.604,662.7768,341.0628,664.9983,345.3272,660.7339,347.5486,669.052,346.604" style="stroke:#181818;stroke-width:0.85;"/><text fill="#000000" font-family="sans-serif" font-size="8.5" lengthAdjust="spacing" textLength="59.5" x="592.9588" y="303.4417">&#12467;&#12531;&#12486;&#12531;&#12484;&#21462;&#24471;</text><text fill="#000000" font-family="sans-serif" font-size="8.5" lengthAdjust="spacing" textLength="63.3225" x="591.0475" y="314.1331">{content, steps[]}</text></g><!--link user to P83--><g class="link" data-entity-1="user" data-entity-2="P83" data-source-line="29" data-uid="lnk17" id="link_user_P83"><path d="M392.972,56.057 C324.8615,60.7915 185.6145,72.5895 141.3975,92.318 C85.595,117.206 62.424,126.0885 36.8475,181.568 C5.1,250.401 75.6245,273.81 141.3975,316.718 C169.643,335.146 204.6122,343.4208 221.2722,346.6593" fill="none" id="user-to-P83" style="stroke:#181818;stroke-width:0.85;"/><polygon fill="#181818" points="226.2785,347.6325,219.4178,342.8352,222.1066,346.8215,218.1203,349.5103,226.2785,347.6325" style="stroke:#181818;stroke-width:0.85;"/><text fill="#000000" font-family="sans-serif" font-size="8.5" lengthAdjust="spacing" textLength="34" x="65.1191" y="191.2417">&#36914;&#25431;&#26356;&#26032;</text><text fill="#000000" font-family="sans-serif" font-size="8.5" lengthAdjust="spacing" textLength="88.8433" x="37.6975" y="201.9331">{content_id, completed}</text></g><!--link P83 to user--><g class="link" data-entity-1="P83" data-entity-2="user" data-source-line="32" data-uid="lnk20" id="link_P83_user"><path d="M228.259,342.133 C208.947,318.2735 149.8125,237.5575 183.8975,181.568 C229.704,106.3005 330.6695,74.4695 387.917,61.745" fill="none" id="P83-to-user" style="stroke:#181818;stroke-width:0.85;"/><polygon fill="#181818" points="392.8955,60.6385,384.69,58.9793,388.7467,61.5606,386.1655,65.6173,392.8955,60.6385" style="stroke:#181818;stroke-width:0.85;"/><text fill="#000000" font-family="sans-serif" font-size="8.5" lengthAdjust="spacing" textLength="34" x="219.4925" y="191.2417">&#36914;&#25431;&#29366;&#27841;</text><text fill="#000000" font-family="sans-serif" font-size="8.5" lengthAdjust="spacing" textLength="103.49" x="184.7475" y="201.9331">{completion_rate, badges[]}</text></g><!--link P83 to D3--><g class="link" data-entity-1="P83" data-entity-2="D3" data-source-line="30" data-uid="lnk18" id="link_P83_D3"><path d="M241.077,342.15 C253.419,330.4795 280.2195,306.7815 307.1475,293.768 C341.1475,277.3375 377.0869,267.5559 410.1689,260.7899" fill="none" id="P83-to-D3" style="stroke:#181818;stroke-width:0.85;"/><polygon fill="#181818" points="415.1655,259.768,406.9894,257.9698,411.0017,260.6196,408.3519,264.6319,415.1655,259.768" style="stroke:#181818;stroke-width:0.85;"/><text fill="#000000" font-family="sans-serif" font-size="8.5" lengthAdjust="spacing" textLength="34" x="321.0027" y="303.4417">&#36914;&#25431;&#20445;&#23384;</text><text fill="#000000" font-family="sans-serif" font-size="8.5" lengthAdjust="spacing" textLength="60.0105" x="307.9975" y="314.1331">{user_progress}</text></g><!--link D3 to P83--><g class="link" data-entity-1="D3" data-entity-2="P83" data-source-line="31" data-uid="lnk19" id="link_D3_P83"><path d="M463.879,259.921 C445.0515,274.49 407.6515,301.571 371.7475,316.718 C324.683,336.574 268.2553,344.8548 246.8523,347.5068" fill="none" id="D3-to-P83" style="stroke:#181818;stroke-width:0.85;"/><polygon fill="#181818" points="241.791,348.134,249.801,350.5675,246.0087,347.6114,248.9649,343.8191,241.791,348.134" style="stroke:#181818;stroke-width:0.85;"/><text fill="#000000" font-family="sans-serif" font-size="8.5" lengthAdjust="spacing" textLength="34" x="437.6495" y="303.4417">&#36914;&#25431;&#24773;&#22577;</text><text fill="#000000" font-family="sans-serif" font-size="8.5" lengthAdjust="spacing" textLength="80.804" x="414.2475" y="314.1331">{progress[], badges[]}</text></g><!--SRC=[RPDlIzjG5CRVvrDSz6qxR4f7ANJ3pGQ4mGfxQKLYSfS6uqrtasuu4JHtSpetT8EfG-TMSKxcT7zqmaQP7-QQH5_v5NRkRMjJ44feUv_VSyvpxebl-mv6dBtWhCc3KyxUSNO0tyED8vI6_xznzfwpVVMokL3EtnX0uS5kVFgM1qUSmMTUFfzTDXVvx4gvgdiOgNpsZU8PEhWEtCZd5CMRi4bDf_ea6jUD2OkwTMBUTHsNeYTLsyU9SnC_rEkEhxd4Vs0_nIWpa3XiSvHWYZ9WIx7XwyI2Cdqys9DzB7AsAsESmBCFwHwgUw3klsTRLV-EKyUAOjZK40Y2C9aAuMmTmd6sLY7HpcPyl8qaLivdKB-MBUMqN0-X2cAEiy-Y2blWx2iFji6WGiB3Z-UDLnrQlPRELiZ5xA_eDHIB3nlnodn7dhsIAuPEJTHNB0vb2zUFcWT_HELWkrYKz920DIrVolICv7uDay7X2Xai3qkP2xzr6_MNygL1xQQYoC6aqxTar08Qqj9ghaAc7zKndKeXG_UnvTAfspEAE1Uwja41YNq8lilq- -7EOhIyqU5cbBQewpkD9yUnQTh46XdjUa7F1NJHs3fhDbjJ1uShOGhvLOgzgkkOCmeeksOjRVnx9ThQ1CA0DS74zvBECbOhJXuau0Fx91N9nAgCSSqzNgmkXL-MkjvZTh87YVNUHhYy6lvRwm8fvFcurcv9JROaxmqe1ijstjYBT_uAgawfA2EW57giExQf-xPBUjkLqvAB4sqSHwi_Ulg3ot8dQmxsiIbgPXC3biZPwOVmO1qGOJXMewu5G_4IgHBkx7duwIT8EwgHqHIyiwQ5su6ooK0j9dvv4XtDoOva5z3y68NjIOB_0G00]--></g></svg>