<svg xmlns="http://www.w3.org/2000/svg" xmlns:xlink="http://www.w3.org/1999/xlink" contentStyleType="text/css" data-diagram-type="DESCRIPTION" height="312.3px" preserveAspectRatio="none" style="width:1202px;height:312px;background:#FFFFFF;" version="1.1" viewBox="0 0 1202 312" width="1202.4px" zoomAndPan="magnify"><title>&#12487;&#12540;&#12479;&#12501;&#12525;&#12540;&#22259; - &#12524;&#12505;&#12523;0&#65288;&#12467;&#12531;&#12486;&#12461;&#12473;&#12488;&#22259;&#65289;</title><defs/><g><text fill="#000000" font-family="sans-serif" font-size="12.6" font-weight="bold" lengthAdjust="spacing" textLength="265.086" x="462.6698" y="22.0799">&#12487;&#12540;&#12479;&#12501;&#12525;&#12540;&#22259; - &#12524;&#12505;&#12523;0&#65288;&#12467;&#12531;&#12486;&#12461;&#12473;&#12488;&#22259;&#65289;</text><!--entity user--><g class="entity" data-entity="user" data-source-line="9" data-uid="ent0002" id="entity_user"><rect fill="#ADD8E6" height="30.4523" rx="6.75" ry="6.75" style="stroke:#181818;stroke-width:0.45;" width="87.3" x="506.322" y="41.0484"/><text fill="#000000" font-family="sans-serif" font-size="9.9" lengthAdjust="spacing" textLength="69.3" x="515.322" y="60.3255">&#12456;&#12531;&#12489;&#12518;&#12540;&#12470;&#12540;</text></g><!--entity dev--><g class="entity" data-entity="dev" data-source-line="10" data-uid="ent0003" id="entity_dev"><rect fill="#90EE90" height="30.4523" rx="6.75" ry="6.75" style="stroke:#181818;stroke-width:0.45;" width="47.7" x="39.222" y="275.0484"/><text fill="#000000" font-family="sans-serif" font-size="9.9" lengthAdjust="spacing" textLength="29.7" x="48.222" y="294.3255">&#38283;&#30330;&#32773;</text></g><!--entity openrouter--><g class="entity" data-entity="openrouter" data-source-line="11" data-uid="ent0004" id="entity_openrouter"><rect fill="#E6E6FA" height="30.4523" rx="6.75" ry="6.75" style="stroke:#181818;stroke-width:0.45;" width="90.6403" x="268.722" y="275.0484"/><text fill="#000000" font-family="sans-serif" font-size="9.9" lengthAdjust="spacing" textLength="72.6403" x="277.722" y="294.3255">OpenRouter API</text></g><!--entity openai--><g class="entity" data-entity="openai" data-source-line="12" data-uid="ent0005" id="entity_openai"><rect fill="#E6E6FA" height="30.4523" rx="6.75" ry="6.75" style="stroke:#181818;stroke-width:0.45;" width="70.2795" x="482.472" y="275.0484"/><text fill="#000000" font-family="sans-serif" font-size="9.9" lengthAdjust="spacing" textLength="52.2795" x="491.472" y="294.3255">OpenAI API</text></g><!--entity system--><g class="entity" data-entity="system" data-source-line="15" data-uid="ent0006" id="entity_system"><ellipse cx="549.972" cy="172.4484" fill="#F0F8FF" rx="7.2" ry="7.2" style="stroke:#181818;stroke-width:0.45;"/><text fill="#000000" font-family="sans-serif" font-size="9.9" lengthAdjust="spacing" textLength="13.7624" x="533.7395" y="198.0255">0.0</text><text fill="#000000" font-family="sans-serif" font-size="9.9" lengthAdjust="spacing" textLength="43.4672" x="528.2384" y="210.4778">PlantUML</text><text fill="#000000" font-family="sans-serif" font-size="9.9" lengthAdjust="spacing" textLength="28.0709" x="530.9889" y="222.9302">Studio</text></g><!--entity storage--><g class="entity" data-entity="storage" data-source-line="18" data-uid="ent0007" id="entity_storage"><rect fill="#FFFFE0" height="33.9047" rx="6.75" ry="6.75" style="stroke:#181818;stroke-width:0.45;" width="192.5363" x="646.272" y="273.2484"/><text fill="#000000" font-family="sans-serif" font-size="9.9" lengthAdjust="spacing" textLength="169.1363" x="655.272" y="298.6778">source_code | preview_svg | metadata</text><line style="stroke:#181818;stroke-width:0.9;" x1="647.172" x2="698.8119" y1="282.1746" y2="282.1746"/><line style="stroke:#181818;stroke-width:0.9;" x1="647.172" x2="698.8119" y1="283.9746" y2="283.9746"/><text fill="#000000" font-family="sans-serif" font-size="9.9" lengthAdjust="spacing" textLength="87.4564" x="698.8119" y="285.7755">D1: &#22259;&#34920;&#12473;&#12488;&#12524;&#12540;&#12472;</text><line style="stroke:#181818;stroke-width:0.9;" x1="786.2684" x2="837.9083" y1="282.1746" y2="282.1746"/><line style="stroke:#181818;stroke-width:0.9;" x1="786.2684" x2="837.9083" y1="283.9746" y2="283.9746"/></g><!--entity auth--><g class="entity" data-entity="auth" data-source-line="19" data-uid="ent0008" id="entity_auth"><rect fill="#FFFFE0" height="33.9047" rx="6.75" ry="6.75" style="stroke:#181818;stroke-width:0.45;" width="178.2277" x="975.672" y="273.2484"/><text fill="#000000" font-family="sans-serif" font-size="9.9" lengthAdjust="spacing" textLength="154.8277" x="984.672" y="298.6778">user_id | access_token | expires_at</text><line style="stroke:#181818;stroke-width:0.9;" x1="976.572" x2="1035.9076" y1="282.1746" y2="282.1746"/><line style="stroke:#181818;stroke-width:0.9;" x1="976.572" x2="1035.9076" y1="283.9746" y2="283.9746"/><text fill="#000000" font-family="sans-serif" font-size="9.9" lengthAdjust="spacing" textLength="57.7564" x="1035.9076" y="285.7755">D2: &#35469;&#35388;&#24773;&#22577;</text><line style="stroke:#181818;stroke-width:0.9;" x1="1093.6641" x2="1152.9997" y1="282.1746" y2="282.1746"/><line style="stroke:#181818;stroke-width:0.9;" x1="1093.6641" x2="1152.9997" y1="283.9746" y2="283.9746"/></g><!--link user to system--><g class="link" data-entity-1="user" data-entity-2="system" data-source-line="22" data-uid="lnk9" id="link_user_system"><path d="M506.322,67.8054 C490.32,74.0064 473.841,83.6994 464.472,98.6484 C455.337,113.2194 454.824,123.1014 464.472,137.3484 C482.31,163.6914 518.6955,169.3272 536.4075,170.7132" fill="none" id="user-to-system" style="stroke:#181818;stroke-width:0.9;"/><polygon fill="#181818" points="541.791,171.1344,533.9965,166.9135,537.3047,170.7834,533.4348,174.0916,541.791,171.1344" style="stroke:#181818;stroke-width:0.9;"/><text fill="#000000" font-family="sans-serif" font-size="9.9" lengthAdjust="spacing" textLength="80.3457" x="489.3147" y="109.8255">DF-1,3,7,10,11-14</text><text fill="#000000" font-family="sans-serif" font-size="9.9" lengthAdjust="spacing" textLength="128.2311" x="465.372" y="122.2778">{source_code, project_name,</text><text fill="#000000" font-family="sans-serif" font-size="9.9" lengthAdjust="spacing" textLength="112.2741" x="473.3505" y="134.7302">diagram_name, question}</text></g><!--link system to user--><g class="link" data-entity-1="system" data-entity-2="user" data-source-line="23" data-uid="lnk10" id="link_system_user"><path d="M558.252,168.4524 C569.565,163.7184 589.383,153.4854 597.672,137.3484 C605.529,122.0484 604.809,114.2994 597.672,98.6484 C592.713,87.7764 587.6399,81.8986 578.4959,75.0136" fill="none" id="system-to-user" style="stroke:#181818;stroke-width:0.9;"/><polygon fill="#181818" points="574.182,71.7654,578.4874,79.5136,577.7769,74.4722,582.8182,73.7617,574.182,71.7654" style="stroke:#181818;stroke-width:0.9;"/><text fill="#000000" font-family="sans-serif" font-size="9.9" lengthAdjust="spacing" textLength="44.0183" x="634.3182" y="109.8255">DF-2,6,15</text><text fill="#000000" font-family="sans-serif" font-size="9.9" lengthAdjust="spacing" textLength="97.9365" x="607.3591" y="122.2778">{preview_svg, errors[],</text><text fill="#000000" font-family="sans-serif" font-size="9.9" lengthAdjust="spacing" textLength="102.9107" x="604.872" y="134.7302">ai_response, projects[]}</text></g><!--link dev to system--><g class="link" data-entity-1="dev" data-entity-2="system" data-source-line="26" data-uid="lnk11" id="link_dev_system"><path d="M70.749,274.8414 C81.747,255.6264 103.914,222.5334 133.272,207.5484 C208.26,169.2624 484.1648,172.1832 536.2478,173.0922" fill="none" id="dev-to-system" style="stroke:#181818;stroke-width:0.9;"/><polygon fill="#181818" points="541.647,173.1864,533.6111,169.4456,537.1477,173.1079,533.4854,176.6445,541.647,173.1864" style="stroke:#181818;stroke-width:0.9;"/><text fill="#000000" font-family="sans-serif" font-size="9.9" lengthAdjust="spacing" textLength="99.5946" x="134.172" y="225.0255">{command, llm_config,</text><text fill="#000000" font-family="sans-serif" font-size="9.9" lengthAdjust="spacing" textLength="74.2838" x="146.8274" y="237.4778">system_settings}</text></g><!--link system to dev--><g class="link" data-entity-1="system" data-entity-2="dev" data-source-line="27" data-uid="lnk12" id="link_system_dev"><path d="M541.818,173.2134 C477.603,172.2684 54.657,167.5704 17.172,207.5484 C5.4,220.0944 10.35,230.4624 17.172,246.2484 C22.122,257.6964 27.5504,264.1345 36.7304,271.5055" fill="none" id="system-to-dev" style="stroke:#181818;stroke-width:0.9;"/><polygon fill="#181818" points="40.941,274.8864,36.879,267.008,37.4321,272.069,32.3711,272.6222,40.941,274.8864" style="stroke:#181818;stroke-width:0.9;"/><text fill="#000000" font-family="sans-serif" font-size="9.9" lengthAdjust="spacing" textLength="64.9301" x="18.072" y="225.0255">{logs[], users[],</text><text fill="#000000" font-family="sans-serif" font-size="9.9" lengthAdjust="spacing" textLength="56.693" x="22.1906" y="237.4778">usage_stats}</text></g><!--link system to storage--><g class="link" data-entity-1="system" data-entity-2="storage" data-source-line="30" data-uid="lnk13" id="link_system_storage"><path d="M558.198,175.0134 C575.892,178.8204 618.489,189.3054 649.872,207.5484 C680.877,225.5754 707.178,250.9965 724.296,269.2305" fill="none" id="system-to-storage" style="stroke:#181818;stroke-width:0.9;"/><polygon fill="#181818" points="727.992,273.1674,725.0726,264.798,724.912,269.8866,719.8234,269.726,727.992,273.1674" style="stroke:#181818;stroke-width:0.9;"/><text fill="#000000" font-family="sans-serif" font-size="9.9" lengthAdjust="spacing" textLength="21.9995" x="743.9101" y="218.7255">DF-4</text><text fill="#000000" font-family="sans-serif" font-size="9.9" lengthAdjust="spacing" textLength="105.6757" x="702.072" y="231.1778">{file_path, source_code,</text><text fill="#000000" font-family="sans-serif" font-size="9.9" lengthAdjust="spacing" textLength="58.3317" x="725.744" y="243.6302">preview_svg}</text></g><!--link storage to system--><g class="link" data-entity-1="storage" data-entity-2="system" data-source-line="31" data-uid="lnk14" id="link_storage_system"><path d="M786.123,273.2394 C797.715,266.7054 808.839,257.8764 815.472,246.2484 C823.986,231.3084 826.83,220.4634 815.472,207.5484 C797.976,187.6584 606.4393,176.3551 563.5723,174.0601" fill="none" id="storage-to-system" style="stroke:#181818;stroke-width:0.9;"/><polygon fill="#181818" points="558.18,173.7714,566.076,177.7993,562.6736,174.012,566.4609,170.6096,558.18,173.7714" style="stroke:#181818;stroke-width:0.9;"/><text fill="#000000" font-family="sans-serif" font-size="9.9" lengthAdjust="spacing" textLength="62.7451" x="845.6545" y="225.0255">{source_code,</text><text fill="#000000" font-family="sans-serif" font-size="9.9" lengthAdjust="spacing" textLength="105.1102" x="824.472" y="237.4778">preview_svg, metadata}</text></g><!--link system to auth--><g class="link" data-entity-1="system" data-entity-2="auth" data-source-line="33" data-uid="lnk15" id="link_system_auth"><path d="M558.234,173.4924 C607.599,174.4104 863.928,180.4674 936.972,207.5484 C964.656,217.8084 966.204,230.1744 990.972,246.2484 C1005.417,255.6264 1017.2358,262.692 1030.9698,270.549" fill="none" id="system-to-auth" style="stroke:#181818;stroke-width:0.9;"/><polygon fill="#181818" points="1035.657,273.2304,1030.4139,266.0834,1031.751,270.9959,1026.8386,272.333,1035.657,273.2304" style="stroke:#181818;stroke-width:0.9;"/><text fill="#000000" font-family="sans-serif" font-size="9.9" lengthAdjust="spacing" textLength="104.5591" x="991.872" y="231.3255">{provider, code_verifier}</text></g><!--link auth to system--><g class="link" data-entity-1="auth" data-entity-2="system" data-source-line="34" data-uid="lnk16" id="link_auth_system"><path d="M1081.539,273.1674 C1098.045,255.1944 1118.43,226.3404 1100.772,207.5484 C1081.332,186.8664 631.2134,175.296 563.6954,173.676" fill="none" id="auth-to-system" style="stroke:#181818;stroke-width:0.9;"/><polygon fill="#181818" points="558.297,173.5464,566.3083,177.3397,562.7957,173.6544,566.481,170.1418,558.297,173.5464" style="stroke:#181818;stroke-width:0.9;"/><text fill="#000000" font-family="sans-serif" font-size="9.9" lengthAdjust="spacing" textLength="66.593" x="1119.0524" y="225.0255">{access_token,</text><text fill="#000000" font-family="sans-serif" font-size="9.9" lengthAdjust="spacing" textLength="86.9537" x="1108.872" y="237.4778">user_id, expires_at}</text></g><!--link system to openrouter--><g class="link" data-entity-1="system" data-entity-2="openrouter" data-source-line="37" data-uid="lnk17" id="link_system_openrouter"><path d="M541.593,173.6454 C494.946,175.3914 268.605,185.0034 248.472,207.5484 C237.015,220.3734 240.309,231.1104 248.472,246.2484 C255.141,258.6234 262.4003,265.3499 274.2893,272.1719" fill="none" id="system-to-openrouter" style="stroke:#181818;stroke-width:0.9;"/><polygon fill="#181818" points="278.973,274.8594,273.7391,267.7056,275.0699,272.6198,270.1557,273.9506,278.973,274.8594" style="stroke:#181818;stroke-width:0.9;"/><text fill="#000000" font-family="sans-serif" font-size="9.9" lengthAdjust="spacing" textLength="21.9995" x="282.944" y="218.7255">DF-8</text><text fill="#000000" font-family="sans-serif" font-size="9.9" lengthAdjust="spacing" textLength="89.1435" x="249.372" y="231.1778">{model, messages[],</text><text fill="#000000" font-family="sans-serif" font-size="9.9" lengthAdjust="spacing" textLength="56.6833" x="265.6021" y="243.6302">temperature}</text></g><!--link openrouter to system--><g class="link" data-entity-1="openrouter" data-entity-2="system" data-source-line="38" data-uid="lnk18" id="link_openrouter_system"><path d="M325.17,274.8414 C339.993,256.2474 368.181,224.5044 399.672,207.5484 C448.92,181.0344 512.5404,175.3237 536.2194,174.0007" fill="none" id="openrouter-to-system" style="stroke:#181818;stroke-width:0.9;"/><polygon fill="#181818" points="541.611,173.6994,533.3228,170.5569,537.118,173.9505,533.7244,177.7457,541.611,173.6994" style="stroke:#181818;stroke-width:0.9;"/><text fill="#000000" font-family="sans-serif" font-size="9.9" lengthAdjust="spacing" textLength="46.7833" x="414.6147" y="225.0255">{response,</text><text fill="#000000" font-family="sans-serif" font-size="9.9" lengthAdjust="spacing" textLength="74.8688" x="400.572" y="237.4778">generated_code}</text></g><!--link system to openai--><g class="link" data-entity-1="system" data-entity-2="openai" data-source-line="40" data-uid="lnk19" id="link_system_openai"><path d="M541.647,175.0854 C527.616,178.5234 499.644,187.6314 487.872,207.5484 C474.948,229.4274 488.4784,253.5838 501.5734,270.5488" fill="none" id="system-to-openai" style="stroke:#181818;stroke-width:0.9;"/><polygon fill="#181818" points="504.873,274.8234,502.7735,266.2117,502.1234,271.2612,497.0739,270.6111,504.873,274.8234" style="stroke:#181818;stroke-width:0.9;"/><text fill="#000000" font-family="sans-serif" font-size="9.9" lengthAdjust="spacing" textLength="21.9995" x="518.7765" y="225.0255">DF-9</text><text fill="#000000" font-family="sans-serif" font-size="9.9" lengthAdjust="spacing" textLength="82.0085" x="488.772" y="237.4778">{model, input_text}</text></g><!--link openai to system--><g class="link" data-entity-1="openai" data-entity-2="system" data-source-line="41" data-uid="lnk20" id="link_openai_system"><path d="M547.011,274.9314 C557.937,267.9024 569.133,258.3264 575.172,246.2484 C582.867,230.8674 580.545,223.8924 575.172,207.5484 C571.716,197.0364 567.3736,191.0217 561.2896,184.5957" fill="none" id="openai-to-system" style="stroke:#181818;stroke-width:0.9;"/><polygon fill="#181818" points="557.577,180.6744,560.5317,189.0315,560.6708,183.9422,565.7601,184.0813,557.577,180.6744" style="stroke:#181818;stroke-width:0.9;"/><text fill="#000000" font-family="sans-serif" font-size="9.9" lengthAdjust="spacing" textLength="61.1016" x="581.472" y="231.3255">{embedding[]}</text></g><!--SRC=[VLHTRzH657tthnWb3xnugvW2BP6sKY1AXHG40lKXwY9hOjyuG-oPxSnuGqiZjMib1A6y82LyvAKjg5tnyO0YqO-aweyPDYnF_0NkZ7StDYcHLgkrvzvpppdtx6YcKo2ck6EA0zFzpnJRfdY9l_kxUwI1xr-Ouf4fda-zFzWqtJrJu6V3T5-Qxj-csCIYzmTtFHLHn9ZwxBpdgHN6srJIZ2pIQ2MH8kVnHP4AILQNcORAUGnBD4_rdE3wEli1I11K3eTzaeCamLdFEqMQpIRfFzrvL_HCjpUYyQJyHcxztTt17_Vx__w6V6oj9o7Ib2V8QsBKSDSKlpkLh_5xWb15SeNua_CiMTONqXogJUzsxhrzzC_WftLN64DdMFUr1E3LmYjjuDT4hX5fvkebLotmbInVJSxJ3l0OvCSjCvTgvPHLIeToJV70xgAxZsPRYHiRAAv1PkTcoOB8PIpueFVmS6_RwOsOZ2msmJrCjVZLb7BzpUNv5YVNTHupGOYRfRvN6Z8oEPEo29pcyR1H0jncJHUTt3piFNlxv-Ct-m_Dprl778weZCb4ipaRJ1CCmk3Nth3LPWQH_cesMrmXqGZ2ICH0VYHj2Hq6gw7g9FYKWQOnrRGafeMa2GnTNe0q5Qj78qvFay6phK7luB1Ox__ooYBRtOKiHXmQHQ1KgCKAS7o4MsqcGOLKEs2Qw-KwwZ75eynFa_-DYbFhej9eV3LoS1htq0Zyp_ql_63A3u96SAR5RrVa-gXMtCIbXvncuBTup6Y2sIuVoNSvACq4N_E6W1RR3N78f_rpVd0M4IkM-GIa559zUmFHA0jHP5jmTJG9JzPEKZVEj5DaCrqJT3iIMKPvx9CqpL03Ns89JYhFGmLQCvwe6c6BWOsfI2mhnx-abojSPgWqrUf4IiTZvxXLHeo2uMon7Y-n5C8srSi-gThTuXMhaEImhQxmamt-E8r8jpBTfGSRqU4Em_-cJsnls079bXZ8DSyLr8TKy-YFW-fNWdcY9UKjX_V3HqPKRXNdnPVeHOPaKijTMRzBwx6-3PBgNCAQLscgano7fyKJuBOUOkTBNV_mRd83pnyDn7iwrw66MxeSWILrUCWM8OunBpQI7m00]--></g></svg>