<svg xmlns="http://www.w3.org/2000/svg" xmlns:xlink="http://www.w3.org/1999/xlink" contentStyleType="text/css" data-diagram-type="DESCRIPTION" height="901.85px" preserveAspectRatio="none" style="width:1076px;height:901px;background:#FFFFFF;" version="1.1" viewBox="0 0 1076 901" width="1076.1px" zoomAndPan="magnify"><title>&#12487;&#12540;&#12479;&#12501;&#12525;&#12540;&#22259; - &#12524;&#12505;&#12523;1&#65288;&#20027;&#35201;&#12503;&#12525;&#12475;&#12473;&#65289;</title><defs/><g><text fill="#000000" font-family="sans-serif" font-size="11.9" font-weight="bold" lengthAdjust="spacing" textLength="238.0872" x="413.2886" y="20.8532">&#12487;&#12540;&#12479;&#12501;&#12525;&#12540;&#22259; - &#12524;&#12505;&#12523;1&#65288;&#20027;&#35201;&#12503;&#12525;&#12475;&#12473;&#65289;</text><!--entity user--><g class="entity" data-entity="user" data-source-line="9" data-uid="ent0002" id="entity_user"><rect fill="#ADD8E6" height="26.6223" rx="6.375" ry="6.375" style="stroke:#181818;stroke-width:0.425;" width="70.55" x="540.175" y="38.768"/><text fill="#000000" font-family="sans-serif" font-size="7.65" lengthAdjust="spacing" textLength="53.55" x="548.675" y="55.2093">&#12456;&#12531;&#12489;&#12518;&#12540;&#12470;&#12540;</text></g><!--entity dev--><g class="entity" data-entity="dev" data-source-line="10" data-uid="ent0003" id="entity_dev"><rect fill="#90EE90" height="26.6223" rx="6.375" ry="6.375" style="stroke:#181818;stroke-width:0.425;" width="39.95" x="324.275" y="439.118"/><text fill="#000000" font-family="sans-serif" font-size="7.65" lengthAdjust="spacing" textLength="22.95" x="332.775" y="455.5593">&#38283;&#30330;&#32773;</text></g><!--entity openrouter--><g class="entity" data-entity="openrouter" data-source-line="11" data-uid="ent0004" id="entity_openrouter"><rect fill="#E6E6FA" height="36.2445" rx="6.375" ry="6.375" style="stroke:#181818;stroke-width:0.425;" width="58.6753" x="515.525" y="434.018"/><text fill="#000000" font-family="sans-serif" font-size="7.65" lengthAdjust="spacing" textLength="41.6753" x="524.025" y="450.4593">OpenRouter</text><text fill="#000000" font-family="sans-serif" font-size="7.65" lengthAdjust="spacing" textLength="12.3304" x="524.025" y="460.0816">API</text></g><!--entity openai--><g class="entity" data-entity="openai" data-source-line="12" data-uid="ent0005" id="entity_openai"><rect fill="#E6E6FA" height="36.2445" rx="6.375" ry="6.375" style="stroke:#181818;stroke-width:0.425;" width="42.942" x="715.275" y="638.018"/><text fill="#000000" font-family="sans-serif" font-size="7.65" lengthAdjust="spacing" textLength="25.942" x="723.775" y="654.4593">OpenAI</text><text fill="#000000" font-family="sans-serif" font-size="7.65" lengthAdjust="spacing" textLength="12.3304" x="723.775" y="664.0816">API</text></g><!--entity P1--><g class="entity" data-entity="P1" data-source-line="15" data-uid="ent0006" id="entity_P1"><ellipse cx="423.3" cy="153.518" fill="#F0F8FF" rx="6.8" ry="6.8" style="stroke:#181818;stroke-width:0.425;"/><text fill="#000000" font-family="sans-serif" font-size="7.65" lengthAdjust="spacing" textLength="15.737" x="416.4942" y="175.9093">P1.0</text><text fill="#000000" font-family="sans-serif" font-size="7.65" lengthAdjust="spacing" textLength="15.3" x="414.3688" y="185.5316">&#35469;&#35388;</text><text fill="#000000" font-family="sans-serif" font-size="7.65" lengthAdjust="spacing" textLength="15.3" x="414.3688" y="195.1539">&#20966;&#29702;</text></g><!--entity P2--><g class="entity" data-entity="P2" data-source-line="16" data-uid="ent0007" id="entity_P2"><ellipse cx="167.45" cy="853.068" fill="#F0F8FF" rx="6.8" ry="6.8" style="stroke:#181818;stroke-width:0.425;"/><text fill="#000000" font-family="sans-serif" font-size="7.65" lengthAdjust="spacing" textLength="15.737" x="146.6254" y="875.4593">P2.0</text><text fill="#000000" font-family="sans-serif" font-size="7.65" lengthAdjust="spacing" textLength="45.9" x="144.5" y="885.0816">&#12503;&#12525;&#12472;&#12455;&#12463;&#12488;</text><text fill="#000000" font-family="sans-serif" font-size="7.65" lengthAdjust="spacing" textLength="15.3" x="144.5" y="894.7039">&#31649;&#29702;</text></g><!--entity P3--><g class="entity" data-entity="P3" data-source-line="17" data-uid="ent0008" id="entity_P3"><ellipse cx="345.1" cy="656.293" fill="#F0F8FF" rx="6.8" ry="6.8" style="stroke:#181818;stroke-width:0.425;"/><text fill="#000000" font-family="sans-serif" font-size="7.65" lengthAdjust="spacing" textLength="15.737" x="338.2942" y="678.6843">P3.0</text><text fill="#000000" font-family="sans-serif" font-size="7.65" lengthAdjust="spacing" textLength="15.3" x="336.1688" y="688.3066">&#22259;&#34920;</text><text fill="#000000" font-family="sans-serif" font-size="7.65" lengthAdjust="spacing" textLength="15.3" x="336.1688" y="697.9289">&#31649;&#29702;</text></g><!--entity P4--><g class="entity" data-entity="P4" data-source-line="18" data-uid="ent0009" id="entity_P4"><ellipse cx="423.3" cy="549.618" fill="#F0F8FF" rx="6.8" ry="6.8" style="stroke:#181818;stroke-width:0.425;"/><text fill="#000000" font-family="sans-serif" font-size="7.65" lengthAdjust="spacing" textLength="15.737" x="401.4127" y="572.0093">P4.0</text><text fill="#000000" font-family="sans-serif" font-size="7.65" lengthAdjust="spacing" textLength="22.95" x="399.2873" y="581.6316">&#26908;&#35388;&#12539;</text><text fill="#000000" font-family="sans-serif" font-size="7.65" lengthAdjust="spacing" textLength="45.9" x="399.2873" y="591.2539">&#12524;&#12531;&#12480;&#12522;&#12531;&#12464;</text></g><!--entity P5--><g class="entity" data-entity="P5" data-source-line="19" data-uid="ent0010" id="entity_P5"><ellipse cx="702.1" cy="549.618" fill="#F0F8FF" rx="6.8" ry="6.8" style="stroke:#181818;stroke-width:0.425;"/><text fill="#000000" font-family="sans-serif" font-size="7.65" lengthAdjust="spacing" textLength="15.737" x="695.2942" y="572.0093">P5.0</text><text fill="#000000" font-family="sans-serif" font-size="7.65" lengthAdjust="spacing" textLength="7.2279" x="693.1688" y="581.6316">AI</text><text fill="#000000" font-family="sans-serif" font-size="7.65" lengthAdjust="spacing" textLength="15.3" x="693.1688" y="591.2539">&#25903;&#25588;</text></g><!--entity P6--><g class="entity" data-entity="P6" data-source-line="20" data-uid="ent0011" id="entity_P6"><ellipse cx="461.55" cy="357.093" fill="#F0F8FF" rx="6.8" ry="6.8" style="stroke:#181818;stroke-width:0.425;"/><text fill="#000000" font-family="sans-serif" font-size="7.65" lengthAdjust="spacing" textLength="15.737" x="454.7442" y="379.4843">P6.0</text><text fill="#000000" font-family="sans-serif" font-size="7.65" lengthAdjust="spacing" textLength="15.3" x="452.6188" y="389.1066">&#31649;&#29702;</text><text fill="#000000" font-family="sans-serif" font-size="7.65" lengthAdjust="spacing" textLength="15.3" x="452.6188" y="398.7289">&#27231;&#33021;</text></g><!--entity P7--><g class="entity" data-entity="P7" data-source-line="21" data-uid="ent0012" id="entity_P7"><ellipse cx="877.2" cy="853.068" fill="#F0F8FF" rx="6.8" ry="6.8" style="stroke:#181818;stroke-width:0.425;"/><text fill="#000000" font-family="sans-serif" font-size="7.65" lengthAdjust="spacing" textLength="15.737" x="866.7877" y="875.4593">P7.0</text><text fill="#000000" font-family="sans-serif" font-size="7.65" lengthAdjust="spacing" textLength="22.95" x="864.6623" y="885.0816">&#12456;&#12463;&#12473;</text><text fill="#000000" font-family="sans-serif" font-size="7.65" lengthAdjust="spacing" textLength="22.95" x="864.6623" y="894.7039">&#12509;&#12540;&#12488;</text></g><!--entity D1--><g class="entity" data-entity="D1" data-source-line="24" data-uid="ent0013" id="entity_D1"><rect fill="#FFFFE0" height="27.7445" rx="6.375" ry="6.375" style="stroke:#181818;stroke-width:0.425;" width="152.7962" x="187" y="755.318"/><text fill="#000000" font-family="sans-serif" font-size="7.65" lengthAdjust="spacing" textLength="130.6962" x="195.5" y="775.4316">source_code | preview_svg | metadata</text><line style="stroke:#181818;stroke-width:0.85;" x1="187.85" x2="229.6081" y1="762.6791" y2="762.6791"/><line style="stroke:#181818;stroke-width:0.85;" x1="187.85" x2="229.6081" y1="764.3791" y2="764.3791"/><text fill="#000000" font-family="sans-serif" font-size="7.65" lengthAdjust="spacing" textLength="67.58" x="229.6081" y="765.3843">D1: &#22259;&#34920;&#12473;&#12488;&#12524;&#12540;&#12472;</text><line style="stroke:#181818;stroke-width:0.85;" x1="297.1881" x2="338.9462" y1="762.6791" y2="762.6791"/><line style="stroke:#181818;stroke-width:0.85;" x1="297.1881" x2="338.9462" y1="764.3791" y2="764.3791"/></g><!--entity D2--><g class="entity" data-entity="D2" data-source-line="25" data-uid="ent0014" id="entity_D2"><rect fill="#FFFFE0" height="27.7445" rx="6.375" ry="6.375" style="stroke:#181818;stroke-width:0.425;" width="141.7396" x="369.325" y="223.218"/><text fill="#000000" font-family="sans-serif" font-size="7.65" lengthAdjust="spacing" textLength="119.6396" x="377.825" y="243.3316">user_id | access_token | expires_at</text><line style="stroke:#181818;stroke-width:0.85;" x1="370.175" x2="417.8798" y1="230.5791" y2="230.5791"/><line style="stroke:#181818;stroke-width:0.85;" x1="370.175" x2="417.8798" y1="232.2791" y2="232.2791"/><text fill="#000000" font-family="sans-serif" font-size="7.65" lengthAdjust="spacing" textLength="44.63" x="417.8798" y="233.2843">D2: &#35469;&#35388;&#24773;&#22577;</text><line style="stroke:#181818;stroke-width:0.85;" x1="462.5098" x2="510.2146" y1="230.5791" y2="230.5791"/><line style="stroke:#181818;stroke-width:0.85;" x1="462.5098" x2="510.2146" y1="232.2791" y2="232.2791"/></g><!--link user to P1--><g class="link" data-entity-1="user" data-entity-2="P1" data-source-line="28" data-uid="lnk15" id="link_user_P1"><path d="M540.1325,55.5555 C495.363,59.882 421.9995,69.98 405.45,90.618 C392.122,107.2355 405.3449,129.2868 414.6354,141.6543" fill="none" id="user-to-P1" style="stroke:#181818;stroke-width:0.85;"/><polygon fill="#181818" points="417.6985,145.732,415.8222,137.5734,415.1459,142.3339,410.3854,141.6576,417.6985,145.732" style="stroke:#181818;stroke-width:0.85;"/><text fill="#000000" font-family="sans-serif" font-size="7.65" lengthAdjust="spacing" textLength="16.9996" x="438.198" y="104.0843">DF-1</text><text fill="#000000" font-family="sans-serif" font-size="7.65" lengthAdjust="spacing" textLength="80.7957" x="406.3" y="113.7066">{provider, code_verifier}</text></g><!--link P1 to user--><g class="link" data-entity-1="P1" data-entity-2="user" data-source-line="31" data-uid="lnk18" id="link_P1_user"><path d="M431.2985,149.8545 C444.4905,145.0095 471.342,134.24 491.3,120.368 C506.872,109.539 507.3055,102.739 521.9,90.618 C532.848,81.523 541.643,75.1455 552.1065,68.082" fill="none" id="P1-to-user" style="stroke:#181818;stroke-width:0.85;"/><polygon fill="#181818" points="556.3335,65.2285,548.0907,66.6907,552.811,67.6064,551.8953,72.3267,556.3335,65.2285" style="stroke:#181818;stroke-width:0.85;"/><text fill="#000000" font-family="sans-serif" font-size="7.65" lengthAdjust="spacing" textLength="28.4821" x="549.1234" y="99.4093">DF-2/2E</text><text fill="#000000" font-family="sans-serif" font-size="7.65" lengthAdjust="spacing" textLength="81.229" x="522.75" y="109.0316">{access_token, user_id}</text><text fill="#000000" font-family="sans-serif" font-size="7.65" lengthAdjust="spacing" textLength="30.1891" x="548.2699" y="118.6539">or {error}</text></g><!--link P1 to D2--><g class="link" data-entity-1="P1" data-entity-2="D2" data-source-line="29" data-uid="lnk16" id="link_P1_D2"><path d="M415.4715,156.2975 C396.797,161.3125 352.1975,175.8645 365.5,197.718 C372.419,209.0825 379.2868,215.0109 391.1783,220.8249" fill="none" id="P1-to-D2" style="stroke:#181818;stroke-width:0.85;"/><polygon fill="#181818" points="395.76,223.065,390.3808,216.6504,391.9419,221.1982,387.3941,222.7593,395.76,223.065" style="stroke:#181818;stroke-width:0.85;"/><text fill="#000000" font-family="sans-serif" font-size="7.65" lengthAdjust="spacing" textLength="50.1919" x="366.35" y="195.4593">{session_data}</text></g><!--link D2 to P1--><g class="link" data-entity-1="D2" data-entity-2="P1" data-source-line="30" data-uid="lnk17" id="link_D2_P1"><path d="M437.5205,222.9885 C433.8655,205.351 428.6092,179.9916 425.7872,166.3576" fill="none" id="D2-to-P1" style="stroke:#181818;stroke-width:0.85;"/><polygon fill="#181818" points="424.7535,161.3635,422.9746,169.5438,425.6149,165.5253,429.6335,168.1655,424.7535,161.3635" style="stroke:#181818;stroke-width:0.85;"/><text fill="#000000" font-family="sans-serif" font-size="7.65" lengthAdjust="spacing" textLength="30.6224" x="432.65" y="195.4593">{is_valid}</text></g><!--link user to P2--><g class="link" data-entity-1="user" data-entity-2="P2" data-source-line="34" data-uid="lnk19" id="link_user_P2"><path d="M540.0815,53.8555 C447.27,56.941 198.492,67.2175 119.85,90.618 C64.277,107.159 5.1,94.6895 5.1,152.668 C5.1,152.668 5.1,152.668 5.1,770.193 C5.1,840.301 122.0907,850.27 154.5267,851.7405" fill="none" id="user-to-P2" style="stroke:#181818;stroke-width:0.85;"/><polygon fill="#181818" points="159.6215,851.9715,152.1333,848.2285,155.3759,851.779,151.8254,855.0215,159.6215,851.9715" style="stroke:#181818;stroke-width:0.85;"/><text fill="#000000" font-family="sans-serif" font-size="7.65" lengthAdjust="spacing" textLength="32.3108" x="27.8578" y="450.8843">DF-11-14</text><text fill="#000000" font-family="sans-serif" font-size="7.65" lengthAdjust="spacing" textLength="76.1265" x="5.95" y="460.5066">{action, project_name}</text></g><!--link P2 to user--><g class="link" data-entity-1="P2" data-entity-2="user" data-source-line="37" data-uid="lnk22" id="link_P2_user"><path d="M163.6845,845.2055 C156.5955,831.308 141.95,799.127 141.95,770.193 C141.95,152.668 141.95,152.668 141.95,152.668 C141.95,71.187 431.3428,56.312 534.8728,53.5495" fill="none" id="P2-to-user" style="stroke:#181818;stroke-width:0.85;"/><polygon fill="#181818" points="539.971,53.4135,532.233,50.2187,535.7225,53.5268,532.4144,57.0163,539.971,53.4135" style="stroke:#181818;stroke-width:0.85;"/><text fill="#000000" font-family="sans-serif" font-size="7.65" lengthAdjust="spacing" textLength="36.9912" x="158.3204" y="446.2093">DF-15/15E</text><text fill="#000000" font-family="sans-serif" font-size="7.65" lengthAdjust="spacing" textLength="68.032" x="142.8" y="455.8316">{projects[], success}</text><text fill="#000000" font-family="sans-serif" font-size="7.65" lengthAdjust="spacing" textLength="30.1891" x="161.7214" y="465.4539">or {error}</text></g><!--link P2 to D1--><g class="link" data-entity-1="P2" data-entity-2="D1" data-source-line="35" data-uid="lnk20" id="link_P2_D1"><path d="M175.168,849.702 C187.833,845.282 213.316,835.1245 230.35,819.918 C241.961,809.5565 248.9538,798.7696 254.7338,787.8811" fill="none" id="P2-to-D1" style="stroke:#181818;stroke-width:0.85;"/><polygon fill="#181818" points="257.125,783.3765,250.535,788.5393,255.1323,787.1304,256.5413,791.7276,257.125,783.3765" style="stroke:#181818;stroke-width:0.85;"/><text fill="#000000" font-family="sans-serif" font-size="7.65" lengthAdjust="spacing" textLength="37.4208" x="241.4" y="817.6593">{list_prefix}</text></g><!--link D1 to P2--><g class="link" data-entity-1="D1" data-entity-2="P2" data-source-line="36" data-uid="lnk21" id="link_D1_P2"><path d="M224.2215,783.436 C210.8,789.505 196.5625,797.8435 186.15,808.868 C176.239,819.3485 172.311,830.947 170.0755,840.2715" fill="none" id="D1-to-P2" style="stroke:#181818;stroke-width:0.85;"/><polygon fill="#181818" points="168.8865,845.231,173.9763,838.5844,169.8773,841.0981,167.3637,836.9991,168.8865,845.231" style="stroke:#181818;stroke-width:0.85;"/><text fill="#000000" font-family="sans-serif" font-size="7.65" lengthAdjust="spacing" textLength="36.147" x="187" y="817.6593">{projects[]}</text></g><!--link user to P3--><g class="link" data-entity-1="user" data-entity-2="P3" data-source-line="40" data-uid="lnk23" id="link_user_P3"><path d="M540.1155,55.6405 C453.254,63.622 236.3,89.8275 236.3,152.668 C236.3,152.668 236.3,152.668 236.3,357.943 C236.3,476.756 267.563,504.891 317.9,612.518 C324.1815,625.9395 330.9417,636.1044 336.9002,644.3409" fill="none" id="user-to-P3" style="stroke:#181818;stroke-width:0.85;"/><polygon fill="#181818" points="339.8895,648.473,338.1603,640.282,337.3984,645.0296,332.6509,644.2677,339.8895,648.473" style="stroke:#181818;stroke-width:0.85;"/><text fill="#000000" font-family="sans-serif" font-size="7.65" lengthAdjust="spacing" textLength="16.9996" x="279.4697" y="351.0093">DF-3</text><text fill="#000000" font-family="sans-serif" font-size="7.65" lengthAdjust="spacing" textLength="75.6969" x="250.121" y="360.6316">{action, project_name,</text><text fill="#000000" font-family="sans-serif" font-size="7.65" lengthAdjust="spacing" textLength="101.6389" x="237.15" y="370.2539">diagram_name, source_code}</text></g><!--link P3 to user--><g class="link" data-entity-1="P3" data-entity-2="user" data-source-line="45" data-uid="lnk28" id="link_P3_user"><path d="M352.92,655.579 C379.967,655.6725 471.087,652.8335 529.55,612.518 C629.2125,543.7955 626.45,479.0085 626.45,357.943 C626.45,152.668 626.45,152.668 626.45,152.668 C626.45,123.8615 621.554,115.897 607.75,90.618 C602.701,81.37 598.6322,76.0565 592.0872,69.1375" fill="none" id="P3-to-user" style="stroke:#181818;stroke-width:0.85;"/><polygon fill="#181818" points="588.5825,65.4325,591.3696,73.3264,591.5031,68.52,596.3096,68.6535,588.5825,65.4325" style="stroke:#181818;stroke-width:0.85;"/><text fill="#000000" font-family="sans-serif" font-size="7.65" lengthAdjust="spacing" textLength="21.2542" x="648.5635" y="355.6843">DF-16</text><text fill="#000000" font-family="sans-serif" font-size="7.65" lengthAdjust="spacing" textLength="63.7811" x="627.3" y="365.3066">{diagrams[], result}</text></g><!--link P3 to P4--><g class="link" data-entity-1="P3" data-entity-2="P4" data-source-line="41" data-uid="lnk24" id="link_P3_P4"><path d="M352.9625,653.097 C367.812,648.2265 399.823,635.502 414.8,612.518 C425.9605,595.3905 425.781,575.0371 424.6505,562.7291" fill="none" id="P3-to-P4" style="stroke:#181818;stroke-width:0.85;"/><polygon fill="#181818" points="424.184,557.6505,421.498,565.5794,424.5727,561.8827,428.2695,564.9574,424.184,557.6505" style="stroke:#181818;stroke-width:0.85;"/><text fill="#000000" font-family="sans-serif" font-size="7.65" lengthAdjust="spacing" textLength="16.9996" x="464.9869" y="596.2343">DF-5</text><text fill="#000000" font-family="sans-serif" font-size="7.65" lengthAdjust="spacing" textLength="96.9735" x="425" y="605.8566">{source_code, content_type}</text></g><!--link P4 to P3--><g class="link" data-entity-1="P4" data-entity-2="P3" data-source-line="42" data-uid="lnk25" id="link_P4_P3"><path d="M415.5395,550.4 C396.967,550.6975 350.03,554.378 329.8,582.768 C315.214,603.2445 329.0032,630.3789 337.7072,644.1999" fill="none" id="P4-to-P3" style="stroke:#181818;stroke-width:0.85;"/><polygon fill="#181818" points="340.425,648.5155,339.2254,640.2303,338.1602,644.9192,333.4713,643.854,340.425,648.5155" style="stroke:#181818;stroke-width:0.85;"/><text fill="#000000" font-family="sans-serif" font-size="7.65" lengthAdjust="spacing" textLength="28.4821" x="354.8906" y="591.5593">DF-6/6E</text><text fill="#000000" font-family="sans-serif" font-size="7.65" lengthAdjust="spacing" textLength="76.9632" x="330.65" y="601.1816">{is_valid, preview_svg,</text><text fill="#000000" font-family="sans-serif" font-size="7.65" lengthAdjust="spacing" textLength="26.7825" x="355.7404" y="610.8039">errors[]}</text></g><!--link P3 to D1--><g class="link" data-entity-1="P3" data-entity-2="D1" data-source-line="43" data-uid="lnk26" id="link_P3_D1"><path d="M337.1525,657.398 C316.0555,658.5455 258.6635,664.912 234.6,700.068 C222.6575,717.5185 234.5312,736.8449 247.0177,751.2439" fill="none" id="P3-to-D1" style="stroke:#181818;stroke-width:0.85;"/><polygon fill="#181818" points="250.359,755.097,247.9158,747.0899,247.5746,751.8861,242.7784,751.5449,250.359,755.097" style="stroke:#181818;stroke-width:0.85;"/><text fill="#000000" font-family="sans-serif" font-size="7.65" lengthAdjust="spacing" textLength="16.9996" x="267.7795" y="708.8593">DF-4</text><text fill="#000000" font-family="sans-serif" font-size="7.65" lengthAdjust="spacing" textLength="81.6585" x="235.45" y="718.4816">{file_path, source_code,</text><text fill="#000000" font-family="sans-serif" font-size="7.65" lengthAdjust="spacing" textLength="45.0745" x="253.742" y="728.1039">preview_svg}</text></g><!--link D1 to P3--><g class="link" data-entity-1="D1" data-entity-2="P3" data-source-line="44" data-uid="lnk27" id="link_D1_P3"><path d="M290.921,755.2585 C301.6905,748.875 313.344,740.307 321.3,729.818 C336.8635,709.299 341.8448,683.1947 343.6638,669.3142" fill="none" id="D1-to-P3" style="stroke:#181818;stroke-width:0.85;"/><polygon fill="#181818" points="344.3265,664.2575,339.9613,671.4008,343.7743,668.4714,346.7037,672.2844,344.3265,664.2575" style="stroke:#181818;stroke-width:0.85;"/><text fill="#000000" font-family="sans-serif" font-size="7.65" lengthAdjust="spacing" textLength="85.0614" x="337.45" y="718.2093">{source_code, metadata}</text></g><!--link P4 to openrouter--><g class="link" data-entity-1="P4" data-entity-2="openrouter" data-source-line="48" data-uid="lnk29" id="link_P4_openrouter"><path d="M423.9885,541.6875 C425.4335,530.5865 429.7175,509.039 442,496.068 C461.5585,475.413 487.6177,465.5616 510.4827,459.8666" fill="none" id="P4-to-openrouter" style="stroke:#181818;stroke-width:0.85;"/><polygon fill="#181818" points="515.4315,458.634,507.1866,457.1837,511.3075,459.6611,508.83,463.7821,515.4315,458.634" style="stroke:#181818;stroke-width:0.85;"/><text fill="#000000" font-family="sans-serif" font-size="7.65" lengthAdjust="spacing" textLength="75.2673" x="442.85" y="509.5343">{model, error_context}</text></g><!--link openrouter to P4--><g class="link" data-entity-1="openrouter" data-entity-2="P4" data-source-line="49" data-uid="lnk30" id="link_openrouter_P4"><path d="M515.406,456.56 C472.7615,462.1785 397.1285,474.92 380.8,496.068 C375.258,503.242 376.771,508.342 380.8,516.468 C388.0505,531.0795 400.7853,538.7345 410.9343,543.418" fill="none" id="openrouter-to-P4" style="stroke:#181818;stroke-width:0.85;"/><polygon fill="#181818" points="415.565,545.555,410.0436,539.2624,411.7061,543.7742,407.1943,545.4367,415.565,545.555" style="stroke:#181818;stroke-width:0.85;"/><text fill="#000000" font-family="sans-serif" font-size="7.65" lengthAdjust="spacing" textLength="42.1124" x="381.65" y="509.5343">{fixed_code}</text></g><!--link user to P5--><g class="link" data-entity-1="user" data-entity-2="P5" data-source-line="52" data-uid="lnk31" id="link_user_P5"><path d="M611.065,63.3925 C624.835,69.2575 639.438,77.987 648.55,90.618 C708.067,173.1275 650.7005,220.6765 684.25,316.718 C688.5425,329.0175 694.3905,329.927 698.7,342.218 C721.6075,407.566 717.859,427.0395 723.35,496.068 C724.0725,505.1035 725.951,507.781 723.35,516.468 C720.426,526.243 716.7608,531.891 711.6013,538.0365" fill="none" id="user-to-P5" style="stroke:#181818;stroke-width:0.85;"/><polygon fill="#181818" points="708.322,541.9425,715.8449,538.2697,711.0547,538.6875,710.6369,533.8974,708.322,541.9425" style="stroke:#181818;stroke-width:0.85;"/><text fill="#000000" font-family="sans-serif" font-size="7.65" lengthAdjust="spacing" textLength="16.9996" x="718.4959" y="295.3343">DF-7</text><text fill="#000000" font-family="sans-serif" font-size="7.65" lengthAdjust="spacing" textLength="83.7914" x="685.1" y="304.9566">{question, context_code}</text></g><!--link P5 to user--><g class="link" data-entity-1="P5" data-entity-2="user" data-source-line="57" data-uid="lnk36" id="link_P5_user"><path d="M710.039,545.2745 C720.1115,540.404 737.154,530.5355 745.45,516.468 C791.758,437.9535 789.4885,347.811 772.65,276.768 C751.298,186.685 748.289,152.192 679.15,90.618 C660.042,73.601 637.6224,65.2384 615.7944,59.9939" fill="none" id="P5-to-user" style="stroke:#181818;stroke-width:0.85;"/><polygon fill="#181818" points="610.8355,58.8025,617.4795,63.8956,614.9679,59.7953,619.0681,57.2837,610.8355,58.8025" style="stroke:#181818;stroke-width:0.85;"/><text fill="#000000" font-family="sans-serif" font-size="7.65" lengthAdjust="spacing" textLength="22.1021" x="793.0656" y="285.5593">DF-9E</text><text fill="#000000" font-family="sans-serif" font-size="7.65" lengthAdjust="spacing" textLength="46.3594" x="780.9369" y="295.1816">{ai_response,</text><text fill="#000000" font-family="sans-serif" font-size="7.65" lengthAdjust="spacing" textLength="47.6332" x="780.3" y="304.8039">suggestions[]}</text><text fill="#000000" font-family="sans-serif" font-size="7.65" lengthAdjust="spacing" textLength="30.1891" x="789.022" y="314.4261">or {error}</text></g><!--link P5 to openrouter--><g class="link" data-entity-1="P5" data-entity-2="openrouter" data-source-line="53" data-uid="lnk32" id="link_P5_openrouter"><path d="M694.144,543.9315 C672.2905,530.646 614.9381,495.7597 578.0481,473.3282" fill="none" id="P5-to-openrouter" style="stroke:#181818;stroke-width:0.85;"/><polygon fill="#181818" points="573.6905,470.6785,578.4605,477.5581,577.3219,472.8866,581.9934,471.748,573.6905,470.6785" style="stroke:#181818;stroke-width:0.85;"/><text fill="#000000" font-family="sans-serif" font-size="7.65" lengthAdjust="spacing" textLength="16.9996" x="673.0068" y="504.8593">DF-8</text><text fill="#000000" font-family="sans-serif" font-size="7.65" lengthAdjust="spacing" textLength="69.3132" x="646.85" y="514.4816">{model, messages[]}</text></g><!--link openrouter to P5--><g class="link" data-entity-1="openrouter" data-entity-2="P5" data-source-line="54" data-uid="lnk33" id="link_openrouter_P5"><path d="M548.199,470.755 C551.837,485.1115 559.096,504.857 572.9,516.468 C609.875,547.578 667.4888,549.51 689.2743,549.136" fill="none" id="openrouter-to-P5" style="stroke:#181818;stroke-width:0.85;"/><polygon fill="#181818" points="694.3735,549.0485,686.6663,545.7803,690.1241,549.1214,686.783,552.5793,694.3735,549.0485" style="stroke:#181818;stroke-width:0.85;"/><text fill="#000000" font-family="sans-serif" font-size="7.65" lengthAdjust="spacing" textLength="36.5803" x="573.75" y="509.5343">{response}</text></g><!--link P5 to openai--><g class="link" data-entity-1="P5" data-entity-2="openai" data-source-line="55" data-uid="lnk34" id="link_P5_openai"><path d="M709.9795,553.6385 C720.3325,558.271 738.038,568.0035 745.45,582.768 C754.1115,600.023 751.1187,617.5799 745.9422,632.9139" fill="none" id="P5-to-openai" style="stroke:#181818;stroke-width:0.85;"/><polygon fill="#181818" points="744.311,637.746,749.9792,631.5853,745.6704,633.7192,743.5365,629.4103,744.311,637.746" style="stroke:#181818;stroke-width:0.85;"/><text fill="#000000" font-family="sans-serif" font-size="7.65" lengthAdjust="spacing" textLength="16.9996" x="761.192" y="596.2343">DF-9</text><text fill="#000000" font-family="sans-serif" font-size="7.65" lengthAdjust="spacing" textLength="38.2836" x="750.55" y="605.8566">{input_text}</text></g><!--link openai to P5--><g class="link" data-entity-1="openai" data-entity-2="P5" data-source-line="56" data-uid="lnk35" id="link_openai_P5"><path d="M715.156,641.656 C705.5935,634.3035 695.385,624.3245 690.2,612.518 C681.904,593.6395 689.8762,573.5558 695.9367,561.8088" fill="none" id="openai-to-P5" style="stroke:#181818;stroke-width:0.85;"/><polygon fill="#181818" points="698.275,557.2765,691.7459,562.5161,696.3264,561.0534,697.7891,565.6339,698.275,557.2765" style="stroke:#181818;stroke-width:0.85;"/><text fill="#000000" font-family="sans-serif" font-size="7.65" lengthAdjust="spacing" textLength="47.2148" x="691.05" y="600.9093">{embedding[]}</text></g><!--link dev to P6--><g class="link" data-entity-1="dev" data-entity-2="P6" data-source-line="60" data-uid="lnk37" id="link_dev_P6"><path d="M351.373,439.0245 C358.6405,427.184 370.855,409.4275 385.05,397.468 C406.997,378.972 434.2661,367.7271 448.9201,362.3976" fill="none" id="dev-to-P6" style="stroke:#181818;stroke-width:0.85;"/><polygon fill="#181818" points="453.713,360.6545,445.3616,360.0739,449.7189,362.1071,447.6858,366.4644,453.713,360.6545" style="stroke:#181818;stroke-width:0.85;"/><text fill="#000000" font-family="sans-serif" font-size="7.65" lengthAdjust="spacing" textLength="68.4578" x="385.9" y="406.2593">{command, params}</text></g><!--link P6 to dev--><g class="link" data-entity-1="P6" data-entity-2="dev" data-source-line="65" data-uid="lnk42" id="link_P6_dev"><path d="M453.6025,358.946 C426.513,362.5585 338.5295,375.793 322.15,397.468 C312.6215,410.065 319.6823,423.4094 329.1768,434.9949" fill="none" id="P6-to-dev" style="stroke:#181818;stroke-width:0.85;"/><polygon fill="#181818" points="332.4095,438.9395,330.1902,430.8675,329.7156,435.6523,324.9308,435.1777,332.4095,438.9395" style="stroke:#181818;stroke-width:0.85;"/><text fill="#000000" font-family="sans-serif" font-size="7.65" lengthAdjust="spacing" textLength="44.2228" x="323" y="406.2593">{result, stats}</text></g><!--link P6 to D2--><g class="link" data-entity-1="P6" data-entity-2="D2" data-source-line="61" data-uid="lnk38" id="link_P6_D2"><path d="M461.8645,349.324 C462.332,335.3925 462.5955,303.016 456.45,276.768 C454.393,267.979 452.7066,263.2556 449.2811,255.9456" fill="none" id="P6-to-D2" style="stroke:#181818;stroke-width:0.85;"/><polygon fill="#181818" points="447.117,251.3275,447.2844,259.6973,448.9204,255.1759,453.4418,256.8119,447.117,251.3275" style="stroke:#181818;stroke-width:0.85;"/><text fill="#000000" font-family="sans-serif" font-size="7.65" lengthAdjust="spacing" textLength="24.2462" x="461.55" y="300.0093">{query}</text></g><!--link D2 to P6--><g class="link" data-entity-1="D2" data-entity-2="P6" data-source-line="62" data-uid="lnk39" id="link_D2_P6"><path d="M431.2135,251.404 C426.8615,258.5695 422.127,267.775 419.9,276.768 C415.633,294.006 412.8875,300.4065 419.9,316.718 C426.751,332.6555 439.227,342.4469 449.274,348.8389" fill="none" id="D2-to-P6" style="stroke:#181818;stroke-width:0.85;"/><polygon fill="#181818" points="453.577,351.5765,448.9476,344.6014,449.9912,349.2951,445.2975,350.3387,453.577,351.5765" style="stroke:#181818;stroke-width:0.85;"/><text fill="#000000" font-family="sans-serif" font-size="7.65" lengthAdjust="spacing" textLength="28.0674" x="420.75" y="300.0093">{users[]}</text></g><!--link P6 to openrouter--><g class="link" data-entity-1="P6" data-entity-2="openrouter" data-source-line="63" data-uid="lnk40" id="link_P6_openrouter"><path d="M460.36,364.8195 C458.949,375.215 457.7845,395.122 466.65,408.518 C477.9295,425.569 493.6063,434.6329 510.7593,441.1694" fill="none" id="P6-to-openrouter" style="stroke:#181818;stroke-width:0.85;"/><polygon fill="#181818" points="515.525,442.9855,509.5872,437.0842,511.5536,441.4721,507.1657,443.4385,515.525,442.9855" style="stroke:#181818;stroke-width:0.85;"/><text fill="#000000" font-family="sans-serif" font-size="7.65" lengthAdjust="spacing" textLength="55.2944" x="467.5" y="406.2593">{config_request}</text></g><!--link openrouter to P6--><g class="link" data-entity-1="openrouter" data-entity-2="P6" data-source-line="64" data-uid="lnk41" id="link_openrouter_P6"><path d="M542.283,433.899 C539.886,422.5345 535.3725,407.957 527,397.468 C511.2665,377.7565 487.6217,367.2907 474.0047,362.2927" fill="none" id="openrouter-to-P6" style="stroke:#181818;stroke-width:0.85;"/><polygon fill="#181818" points="469.217,360.5355,475.227,366.3632,473.2067,361.9999,477.5701,359.9796,469.217,360.5355" style="stroke:#181818;stroke-width:0.85;"/><text fill="#000000" font-family="sans-serif" font-size="7.65" lengthAdjust="spacing" textLength="45.0969" x="533.8" y="406.2593">{usage_data}</text></g><!--link user to P7--><g class="link" data-entity-1="user" data-entity-2="P7" data-source-line="68" data-uid="lnk43" id="link_user_P7"><path d="M610.9545,56.924 C690.7185,67.192 877.2,97.1375 877.2,152.668 C877.2,152.668 877.2,152.668 877.2,770.193 C877.2,798.107 877.2,826.259 877.2,840.3095" fill="none" id="user-to-P7" style="stroke:#181818;stroke-width:0.85;"/><polygon fill="#181818" points="877.2,845.4095,880.6,837.7595,877.2,841.1595,873.8,837.7595,877.2,845.4095" style="stroke:#181818;stroke-width:0.85;"/><text fill="#000000" font-family="sans-serif" font-size="7.65" lengthAdjust="spacing" textLength="21.2542" x="908.4576" y="450.8843">DF-10</text><text fill="#000000" font-family="sans-serif" font-size="7.65" lengthAdjust="spacing" textLength="82.0694" x="878.05" y="460.5066">{diagram_name, format}</text></g><!--link P7 to user--><g class="link" data-entity-1="P7" data-entity-2="user" data-source-line="70" data-uid="lnk45" id="link_P7_user"><path d="M884.8755,851.538 C914.5405,848.461 1020,833.093 1020,770.193 C1020,152.668 1020,152.668 1020,152.668 C1020,69.0195 721.6659,55.5259 616.1809,53.3244" fill="none" id="P7-to-user" style="stroke:#181818;stroke-width:0.85;"/><polygon fill="#181818" points="611.082,53.218,618.6594,56.7769,615.3311,53.3066,618.8013,49.9783,611.082,53.218" style="stroke:#181818;stroke-width:0.85;"/><text fill="#000000" font-family="sans-serif" font-size="7.65" lengthAdjust="spacing" textLength="48.9144" x="1020.85" y="455.5593">{exported_file}</text></g><!--link D1 to P7--><g class="link" data-entity-1="D1" data-entity-2="P7" data-source-line="69" data-uid="lnk44" id="link_D1_P7"><path d="M340.2975,780.461 C490.8155,800.572 809.704,843.1953 864.2655,850.4883" fill="none" id="D1-to-P7" style="stroke:#181818;stroke-width:0.85;"/><polygon fill="#181818" points="869.3205,851.164,862.1884,846.7804,865.108,850.6009,861.2875,853.5205,869.3205,851.164" style="stroke:#181818;stroke-width:0.85;"/><text fill="#000000" font-family="sans-serif" font-size="7.65" lengthAdjust="spacing" textLength="48.9144" x="625.6" y="817.6593">{source_code}</text></g><!--SRC=[TLPTRnj557tthnYb3xpOJTQVJIGZ1TAYI4X4y5HXj9hkZfqXwrapEtPIJAHsLqrTeGg4Q6a920fLQaAXe218I2f-pDIE-zI_q3kpO-ywCI_MVjnpxxdddhbhGOL7a8nko-X4Xl_9w9wCVeFhmUu1oi7pfp9wAADVhLSdlHU7nwEzcpBwHaM4np8yUdLo9nCu618iNBnKocI23SfQcECckeQTZGRtsynzs_TyZZRNgI2fzowfuxOdhlXCV40_9MWnzSx0E2CSMP3r3LIjLj7WyVsNKL-6VHaTo6X7XZ_7lq1iiBixUlBLuFbFm4V5PZXn16ODu3Kt1joHqPvkyM_udKCuGEq0ybzubpRMnLjUcwH1B-z_Vlhmtz6DMphG9HqJzmudXAK3tsiHzhxV5eJNsFBQgWxtuHdNpm25EuIvX9_5BAzEnsEQYZKDJmlT6-piG7ivj79b1LtrszprsQZ_O7XmJtViKEwev6ZDkhXGOwFzkwF-IOqDRk-TVhc3T9qr2rrOzgX3TBS98Ay0usA7CdmYmsSowjNOwU-F4d1-DhYWmE2LqQF-6K1XDg2e0CF7tm4z6Hshma_rV6x8Q5zTX7yOV74slgJmIhxXry-6N_nbWakpWyigE6O5W5z-64NF3Q0y6r3HMe1bG8BmIB7xNfacwXbO9GsRp6byTi8ZY9GXsB0txE-V_lFjY-C7ykRTS_PqC7VHNBMwOYsXM3i3LLf0fiDgjSO2cB53RCTt2VeCjJZfKB9f1vq6t3M9m2uMM9DQiOmxhnBFypUJxFab5FjW6DqQ_FYdIgeyRrCNKc378K5W2t-3CBWbMotAIM1Z4UVCJ-SqhIfpcPp6MQeTVP1okJULmvR0dpchnhejxdSek3cBL0TsXt1QfuHlPo18nKA59TGDW0FrcQsQsSx0iqcQBWti3lQeEq7eCZf_VZv_6KgaMyWYqzfsZS6wwHBEVIWsvWqUH-SjRlmwtKFUz63bhA8k8e1W5WRWVmnds6QuIO1Ip7H5C_Le86mOK9rkGGzMagPhGC677qqWIHTMQTugNOwbCb5P5BHrKxExWCDc_3AJUI7EM_WVrjaQSobkm8QDRr7AOK2l42SfnabAa2JrNasH2SA4BQwtL7HngcHvlgmQ6OyicxOhbDLjn28K4jq0fmIkKu_OBIpMfmW1AfKZaRMWNPCcDZuBa-GfXSkGt_IirGM7mqSd4HIM4PhieXcRIEbhMarjTM3GXD9U5kd6R2tD5gHDnKoqXFwsY6j47jU59OQMLyq6cnvYAQPU0UQVj4aGZz5K68-gT9uHG2u1nF1gWeLmWsZ9pv9I1ReWHCjdmNGo-0ZfH8jgbApLXc5Fse9t2Peqhn7NfQoXHrewe_gYFflK7jU0KGRjHYFkHL6QwMrOrIXsjTdJIXRrvTLbowgiupURc2btgRy90PGkfrO9gCMl9pj48nIfs7Vb6KC4LUkq0JorqEULCYb0IBEVJ1R5AjOGp0Ik5LW4IICLjMh6Nv3a-p4zvOenw49YK7CewpvlOf4OldB6yC2YaXQy2vlRvm8ifWxITkOr]--></g></svg>