<svg xmlns="http://www.w3.org/2000/svg" xmlns:xlink="http://www.w3.org/1999/xlink" contentStyleType="text/css" data-diagram-type="ACTIVITY" height="1779px" preserveAspectRatio="none" style="width:2174px;height:1779px;background:#FFFFFF;" version="1.1" viewBox="0 0 2174 1779" width="2174px" zoomAndPan="magnify"><title>3.10.1 &#12456;&#12487;&#12451;&#12479;&#20869;&#12504;&#12523;&#12503;&#12501;&#12525;&#12540;&#65288;UC 3-10&#65289;</title><defs/><g><text fill="#000000" font-family="sans-serif" font-size="14" font-weight="bold" lengthAdjust="spacing" textLength="282.6318" x="944.623" y="34.5332">3.10.1 &#12456;&#12487;&#12451;&#12479;&#20869;&#12504;&#12523;&#12503;&#12501;&#12525;&#12540;&#65288;UC 3-10&#65289;</text><rect fill="none" height="22.6406" style="stroke:none;stroke-width:1;" width="2141.8779" x="15" y="51.0645"/><rect fill="#E3F2FD" height="1716.5859" style="stroke:#E3F2FD;stroke-width:1;" width="436.9409" x="15" y="51.0645"/><ellipse cx="79" cy="88.7051" fill="#222222" rx="10" ry="10" style="stroke:#222222;stroke-width:1;"/><path d="M145,108.7051 L145,142.4082 L125,146.4082 L145,150.4082 L145,184.1113 A0,0 0 0 0 145,184.1113 L446.9409,184.1113 A0,0 0 0 0 446.9409,184.1113 L446.9409,118.7051 L436.9409,108.7051 L145,108.7051 A0,0 0 0 0 145,108.7051" fill="#FEFFDD" style="stroke:#181818;stroke-width:0.5;"/><path d="M436.9409,108.7051 L436.9409,118.7051 L446.9409,118.7051 L436.9409,108.7051" fill="#FEFFDD" style="stroke:#181818;stroke-width:0.5;"/><text fill="#000000" font-family="sans-serif" font-size="13" font-weight="bold" lengthAdjust="spacing" textLength="107.25" x="151" y="127.2002">&#36215;&#21205;&#26041;&#27861;&#65288;&#35079;&#21512;&#65289;</text><text fill="#000000" font-family="sans-serif" font-size="13" lengthAdjust="spacing" textLength="150.9409" x="151" y="143.5518">- &#12504;&#12523;&#12503;&#12508;&#12479;&#12531;&#12434;&#12463;&#12522;&#12483;&#12463;</text><text fill="#000000" font-family="sans-serif" font-size="13" lengthAdjust="spacing" textLength="140.1118" x="151" y="159.9033">- &#12471;&#12519;&#12540;&#12488;&#12459;&#12483;&#12488;&#65288;F1&#65289;</text><text fill="#000000" font-family="sans-serif" font-size="13" lengthAdjust="spacing" textLength="280.9409" x="151" y="176.2549">- &#12486;&#12461;&#12473;&#12488;&#36984;&#25246;&#8594;&#21491;&#12463;&#12522;&#12483;&#12463;&#8594;&#12300;&#12504;&#12523;&#12503;&#12434;&#26908;&#32034;&#12301;</text><rect fill="#FAFAFA" height="35.0938" rx="12.5" ry="12.5" style="stroke:#666666;stroke-width:0.5;" width="92" x="33" y="128.8613"/><text fill="#000000" font-family="sans-serif" font-size="12" lengthAdjust="spacing" textLength="72" x="43" y="151.3184">&#12504;&#12523;&#12503;&#12434;&#36215;&#21205;</text><path d="M139,338.416 L139,363.9434 L119,367.9434 L139,371.9434 L139,397.4707 A0,0 0 0 0 139,397.4707 L342,397.4707 A0,0 0 0 0 342,397.4707 L342,348.416 L332,338.416 L139,338.416 A0,0 0 0 0 139,338.416" fill="#FEFFDD" style="stroke:#181818;stroke-width:0.5;"/><path d="M332,338.416 L332,348.416 L342,348.416 L332,338.416" fill="#FEFFDD" style="stroke:#181818;stroke-width:0.5;"/><text fill="#000000" font-family="sans-serif" font-size="13" lengthAdjust="spacing" textLength="169" x="145" y="356.9111">&#12486;&#12461;&#12473;&#12488;&#36984;&#25246;&#12363;&#12425;&#12398;&#36215;&#21205;&#26178;&#12399;</text><text fill="#000000" font-family="sans-serif" font-size="13" lengthAdjust="spacing" textLength="182" x="145" y="373.2627">&#36984;&#25246;&#12467;&#12540;&#12489;&#12364;&#21021;&#26399;&#12463;&#12456;&#12522;&#12392;&#12375;&#12390;</text><text fill="#000000" font-family="sans-serif" font-size="13" lengthAdjust="spacing" textLength="91" x="145" y="389.6143">&#33258;&#21205;&#20837;&#21147;&#12373;&#12428;&#12427;</text><rect fill="#FAFAFA" height="35.0938" rx="12.5" ry="12.5" style="stroke:#666666;stroke-width:0.5;" width="80" x="39" y="350.3965"/><text fill="#000000" font-family="sans-serif" font-size="12" lengthAdjust="spacing" textLength="60" x="49" y="372.8535">&#36074;&#21839;&#12434;&#20837;&#21147;</text><rect fill="#FAFAFA" height="35.0938" rx="12.5" ry="12.5" style="stroke:#666666;stroke-width:0.5;" width="80" x="39" y="1399.2441"/><text fill="#000000" font-family="sans-serif" font-size="12" lengthAdjust="spacing" textLength="60" x="49" y="1421.7012">&#22238;&#31572;&#12434;&#30906;&#35469;</text><rect fill="#FAFAFA" height="35.0938" rx="12.5" ry="12.5" style="stroke:#666666;stroke-width:0.5;" width="116" x="21" y="1572.4473"/><text fill="#000000" font-family="sans-serif" font-size="12" lengthAdjust="spacing" textLength="96" x="31" y="1594.9043">&#12450;&#12463;&#12471;&#12519;&#12531;&#12434;&#36984;&#25246;</text><line style="stroke:#000000;stroke-width:1.5;" x1="15" x2="15" y1="51.0645" y2="1767.6504"/><rect fill="#E8F5E9" height="1716.5859" style="stroke:#E8F5E9;stroke-width:1;" width="400.8945" x="451.9409" y="51.0645"/><path d="M623.9409,200.3066 L623.9409,217.6582 L603.9409,221.6582 L623.9409,225.6582 L623.9409,243.0098 A0,0 0 0 0 623.9409,243.0098 L774.9409,243.0098 A0,0 0 0 0 774.9409,243.0098 L774.9409,210.3066 L764.9409,200.3066 L623.9409,200.3066 A0,0 0 0 0 623.9409,200.3066" fill="#FEFFDD" style="stroke:#181818;stroke-width:0.5;"/><path d="M764.9409,200.3066 L764.9409,210.3066 L774.9409,210.3066 L764.9409,200.3066" fill="#FEFFDD" style="stroke:#181818;stroke-width:0.5;"/><text fill="#000000" font-family="sans-serif" font-size="13" lengthAdjust="spacing" textLength="130" x="629.9409" y="218.8018">&#12488;&#12464;&#12523;&#24335;&#12469;&#12452;&#12489;&#12497;&#12493;&#12523;</text><text fill="#000000" font-family="sans-serif" font-size="13" lengthAdjust="spacing" textLength="78" x="629.9409" y="235.1533">&#65288;&#38283;&#38281;&#21487;&#33021;&#65289;</text><rect fill="#FAFAFA" height="35.0938" rx="12.5" ry="12.5" style="stroke:#666666;stroke-width:0.5;" width="128" x="475.9409" y="204.1113"/><text fill="#000000" font-family="sans-serif" font-size="12" lengthAdjust="spacing" textLength="108" x="485.9409" y="226.5684">&#12504;&#12523;&#12503;&#12497;&#12493;&#12523;&#12434;&#38283;&#12367;</text><path d="M635.9409,253.0098 L635.9409,286.7129 L615.9409,290.7129 L635.9409,294.7129 L635.9409,328.416 A0,0 0 0 0 635.9409,328.416 L833.8818,328.416 A0,0 0 0 0 833.8818,328.416 L833.8818,263.0098 L823.8818,253.0098 L635.9409,253.0098 A0,0 0 0 0 635.9409,253.0098" fill="#FEFFDD" style="stroke:#181818;stroke-width:0.5;"/><path d="M823.8818,253.0098 L823.8818,263.0098 L833.8818,263.0098 L823.8818,253.0098" fill="#FEFFDD" style="stroke:#181818;stroke-width:0.5;"/><text fill="#000000" font-family="sans-serif" font-size="13" font-weight="bold" lengthAdjust="spacing" textLength="53.625" x="641.9409" y="271.5049">&#21462;&#24471;&#24773;&#22577;</text><text fill="#000000" font-family="sans-serif" font-size="13" lengthAdjust="spacing" textLength="176.9409" x="641.9409" y="287.8564">- &#36984;&#25246;&#20013;&#12398;&#12486;&#12461;&#12473;&#12488;&#65288;&#12354;&#12428;&#12400;&#65289;</text><text fill="#000000" font-family="sans-serif" font-size="13" lengthAdjust="spacing" textLength="137.9409" x="641.9409" y="304.208">- &#12459;&#12540;&#12477;&#12523;&#20301;&#32622;&#12398;&#12467;&#12540;&#12489;</text><text fill="#000000" font-family="sans-serif" font-size="13" lengthAdjust="spacing" textLength="111.9409" x="641.9409" y="320.5596">- &#29694;&#22312;&#12398;&#22259;&#34920;&#12479;&#12452;&#12503;</text><rect fill="#FAFAFA" height="35.0938" rx="12.5" ry="12.5" style="stroke:#666666;stroke-width:0.5;" width="152" x="463.9409" y="273.166"/><text fill="#000000" font-family="sans-serif" font-size="12" lengthAdjust="spacing" textLength="132" x="473.9409" y="295.623">&#36215;&#21205;&#12467;&#12531;&#12486;&#12461;&#12473;&#12488;&#12434;&#21462;&#24471;</text><rect fill="#FAFAFA" height="35.0938" rx="12.5" ry="12.5" style="stroke:#666666;stroke-width:0.5;" width="140" x="469.9409" y="417.4707"/><text fill="#000000" font-family="sans-serif" font-size="12" lengthAdjust="spacing" textLength="120" x="479.9409" y="439.9277">&#26908;&#32034;&#12522;&#12463;&#12456;&#12473;&#12488;&#12434;&#36865;&#20449;</text><path d="M599.9409,1303.8379 L599.9409,1337.541 L579.9409,1341.541 L599.9409,1345.541 L599.9409,1379.2441 A0,0 0 0 0 599.9409,1379.2441 L797.8818,1379.2441 A0,0 0 0 0 797.8818,1379.2441 L797.8818,1313.8379 L787.8818,1303.8379 L599.9409,1303.8379 A0,0 0 0 0 599.9409,1303.8379" fill="#FEFFDD" style="stroke:#181818;stroke-width:0.5;"/><path d="M787.8818,1303.8379 L787.8818,1313.8379 L797.8818,1313.8379 L787.8818,1303.8379" fill="#FEFFDD" style="stroke:#181818;stroke-width:0.5;"/><text fill="#000000" font-family="sans-serif" font-size="13" font-weight="bold" lengthAdjust="spacing" textLength="53.625" x="605.9409" y="1322.333">&#34920;&#31034;&#20869;&#23481;</text><text fill="#000000" font-family="sans-serif" font-size="13" lengthAdjust="spacing" textLength="72.2236" x="605.9409" y="1338.6846">- AI&#29983;&#25104;&#22238;&#31572;</text><text fill="#000000" font-family="sans-serif" font-size="13" lengthAdjust="spacing" textLength="176.9409" x="605.9409" y="1355.0361">- &#21442;&#29031;&#20803;&#12467;&#12531;&#12486;&#12531;&#12484;&#12408;&#12398;&#12522;&#12531;&#12463;</text><text fill="#000000" font-family="sans-serif" font-size="13" lengthAdjust="spacing" textLength="176.9409" x="605.9409" y="1371.3877">- &#12467;&#12540;&#12489;&#12473;&#12491;&#12506;&#12483;&#12488;&#65288;&#12354;&#12428;&#12400;&#65289;</text><rect fill="#FAFAFA" height="35.0938" rx="12.5" ry="12.5" style="stroke:#666666;stroke-width:0.5;" width="80" x="499.9409" y="1323.9941"/><text fill="#000000" font-family="sans-serif" font-size="12" lengthAdjust="spacing" textLength="60" x="509.9409" y="1346.4512">&#22238;&#31572;&#12434;&#34920;&#31034;</text><path d="M641.9409,1444.3379 L641.9409,1494.3926 L621.9409,1498.3926 L641.9409,1502.3926 L641.9409,1552.4473 A0,0 0 0 0 641.9409,1552.4473 L847.8354,1552.4473 A0,0 0 0 0 847.8354,1552.4473 L847.8354,1454.3379 L837.8354,1444.3379 L641.9409,1444.3379 A0,0 0 0 0 641.9409,1444.3379" fill="#FEFFDD" style="stroke:#181818;stroke-width:0.5;"/><path d="M837.8354,1444.3379 L837.8354,1454.3379 L847.8354,1454.3379 L837.8354,1444.3379" fill="#FEFFDD" style="stroke:#181818;stroke-width:0.5;"/><text fill="#000000" font-family="sans-serif" font-size="13" font-weight="bold" lengthAdjust="spacing" textLength="134.0625" x="647.9409" y="1462.833">&#36984;&#25246;&#21487;&#33021;&#12394;&#12450;&#12463;&#12471;&#12519;&#12531;</text><text fill="#000000" font-family="sans-serif" font-size="13" lengthAdjust="spacing" textLength="132.8945" x="647.9409" y="1479.1846">A: &#12473;&#12491;&#12506;&#12483;&#12488;&#12434;&#12467;&#12500;&#12540;</text><text fill="#000000" font-family="sans-serif" font-size="13" lengthAdjust="spacing" textLength="184.8945" x="647.9409" y="1495.5361">B: &#12473;&#12491;&#12506;&#12483;&#12488;&#12434;&#12456;&#12487;&#12451;&#12479;&#12395;&#25407;&#20837;</text><text fill="#000000" font-family="sans-serif" font-size="13" lengthAdjust="spacing" textLength="94.6118" x="647.9409" y="1511.8877">C: &#21442;&#29031;&#20803;&#12434;&#34920;&#31034;</text><text fill="#000000" font-family="sans-serif" font-size="13" lengthAdjust="spacing" textLength="68.6118" x="647.9409" y="1528.2393">D: &#36861;&#21152;&#36074;&#21839;</text><text fill="#000000" font-family="sans-serif" font-size="13" lengthAdjust="spacing" textLength="106.8945" x="647.9409" y="1544.5908">E: &#12497;&#12493;&#12523;&#12434;&#38281;&#12376;&#12427;</text><rect fill="#FAFAFA" height="35.0938" rx="12.5" ry="12.5" style="stroke:#666666;stroke-width:0.5;" width="164" x="457.9409" y="1480.8457"/><text fill="#000000" font-family="sans-serif" font-size="12" lengthAdjust="spacing" textLength="144" x="467.9409" y="1503.3027">&#12518;&#12540;&#12470;&#12540;&#12450;&#12463;&#12471;&#12519;&#12531;&#12434;&#24453;&#27231;</text><path d="M629.9409,1617.541 L629.9409,1667.5957 L609.9409,1671.5957 L629.9409,1675.5957 L629.9409,1725.6504 A0,0 0 0 0 629.9409,1725.6504 L809.8354,1725.6504 A0,0 0 0 0 809.8354,1725.6504 L809.8354,1627.541 L799.8354,1617.541 L629.9409,1617.541 A0,0 0 0 0 629.9409,1617.541" fill="#FEFFDD" style="stroke:#181818;stroke-width:0.5;"/><path d="M799.8354,1617.541 L799.8354,1627.541 L809.8354,1627.541 L799.8354,1617.541" fill="#FEFFDD" style="stroke:#181818;stroke-width:0.5;"/><text fill="#000000" font-family="sans-serif" font-size="13" font-weight="bold" lengthAdjust="spacing" textLength="93.8438" x="635.9409" y="1636.0361">&#12450;&#12463;&#12471;&#12519;&#12531;&#35443;&#32048;</text><text fill="#000000" font-family="sans-serif" font-size="13" lengthAdjust="spacing" textLength="158.8945" x="635.9409" y="1652.3877">A: &#12463;&#12522;&#12483;&#12503;&#12508;&#12540;&#12489;&#12395;&#12467;&#12500;&#12540;</text><text fill="#000000" font-family="sans-serif" font-size="13" lengthAdjust="spacing" textLength="132.8945" x="635.9409" y="1668.7393">B: &#12459;&#12540;&#12477;&#12523;&#20301;&#32622;&#12395;&#25407;&#20837;</text><text fill="#000000" font-family="sans-serif" font-size="13" lengthAdjust="spacing" textLength="107.6118" x="635.9409" y="1685.0908">C: &#23398;&#32722;&#30011;&#38754;&#12408;&#36983;&#31227;</text><text fill="#000000" font-family="sans-serif" font-size="13" lengthAdjust="spacing" textLength="133.6118" x="635.9409" y="1701.4424">D: &#26032;&#35215;&#26908;&#32034;&#12392;&#12375;&#12390;&#20966;&#29702;</text><text fill="#000000" font-family="sans-serif" font-size="13" lengthAdjust="spacing" textLength="132.8945" x="635.9409" y="1717.7939">E: &#12497;&#12493;&#12523;&#12434;&#38281;&#12376;&#12390;&#32066;&#20102;</text><rect fill="#FAFAFA" height="35.0938" rx="12.5" ry="12.5" style="stroke:#666666;stroke-width:0.5;" width="140" x="469.9409" y="1654.0488"/><text fill="#000000" font-family="sans-serif" font-size="12" lengthAdjust="spacing" textLength="120" x="479.9409" y="1676.5059">&#36984;&#25246;&#12450;&#12463;&#12471;&#12519;&#12531;&#12434;&#23455;&#34892;</text><ellipse cx="539.9409" cy="1756.6504" fill="none" rx="11" ry="11" style="stroke:#222222;stroke-width:1;"/><ellipse cx="539.9409" cy="1756.6504" fill="#222222" rx="6" ry="6" style="stroke:#222222;stroke-width:1;"/><line style="stroke:#000000;stroke-width:1.5;" x1="451.9409" x2="451.9409" y1="51.0645" y2="1767.6504"/><rect fill="#FFF3E0" height="1716.5859" style="stroke:#FFF3E0;stroke-width:1;" width="370.9448" x="852.8354" y="51.0645"/><rect fill="#FAFAFA" height="35.0938" rx="12.5" ry="12.5" style="stroke:#666666;stroke-width:0.5;" width="92" x="883.8374" y="472.5645"/><text fill="#000000" font-family="sans-serif" font-size="12" lengthAdjust="spacing" textLength="72" x="893.8374" y="495.0215">&#12463;&#12456;&#12522;&#12434;&#21463;&#20449;</text><rect fill="#FAFAFA" height="35.0938" rx="12.5" ry="12.5" style="stroke:#666666;stroke-width:0.5;" width="140.709" x="859.4829" y="527.6582"/><text fill="#000000" font-family="sans-serif" font-size="12" lengthAdjust="spacing" textLength="120.709" x="869.4829" y="550.1152">&#12463;&#12456;&#12522;&#12434;Embedding&#21270;</text><rect fill="#FAFAFA" height="35.0938" rx="12.5" ry="12.5" style="stroke:#666666;stroke-width:0.5;" width="140" x="859.8374" y="692.9395"/><text fill="#000000" font-family="sans-serif" font-size="12" lengthAdjust="spacing" textLength="120" x="869.8374" y="715.3965">&#39006;&#20284;&#12467;&#12531;&#12486;&#12531;&#12484;&#12434;&#26908;&#32034;</text><path d="M1001.8374,878.5332 L1001.8374,904.0605 L981.8374,908.0605 L1001.8374,912.0605 L1001.8374,937.5879 A0,0 0 0 0 1001.8374,937.5879 L1134.7783,937.5879 A0,0 0 0 0 1134.7783,937.5879 L1134.7783,888.5332 L1124.7783,878.5332 L1001.8374,878.5332 A0,0 0 0 0 1001.8374,878.5332" fill="#FEFFDD" style="stroke:#181818;stroke-width:0.5;"/><path d="M1124.7783,878.5332 L1124.7783,888.5332 L1134.7783,888.5332 L1124.7783,878.5332" fill="#FEFFDD" style="stroke:#181818;stroke-width:0.5;"/><text fill="#000000" font-family="sans-serif" font-size="13" font-weight="bold" lengthAdjust="spacing" textLength="53.625" x="1007.8374" y="897.0283">&#35413;&#20385;&#22522;&#28310;</text><text fill="#000000" font-family="sans-serif" font-size="13" lengthAdjust="spacing" textLength="111.9409" x="1007.8374" y="913.3799">- &#39006;&#20284;&#24230;&#12473;&#12467;&#12450;&#38334;&#20516;</text><text fill="#000000" font-family="sans-serif" font-size="13" lengthAdjust="spacing" textLength="59.9409" x="1007.8374" y="929.7314">- &#32080;&#26524;&#20214;&#25968;</text><rect fill="#FAFAFA" height="35.0938" rx="12.5" ry="12.5" style="stroke:#666666;stroke-width:0.5;" width="104" x="877.8374" y="890.5137"/><text fill="#000000" font-family="sans-serif" font-size="12" lengthAdjust="spacing" textLength="84" x="887.8374" y="912.9707">&#26908;&#32034;&#32080;&#26524;&#12434;&#35413;&#20385;</text><path d="M1020.8394,947.5879 L1020.8394,989.4668 L1000.8394,993.4668 L1020.8394,997.4668 L1020.8394,1039.3457 A0,0 0 0 0 1020.8394,1039.3457 L1218.7803,1039.3457 A0,0 0 0 0 1218.7803,1039.3457 L1218.7803,957.5879 L1208.7803,947.5879 L1020.8394,947.5879 A0,0 0 0 0 1020.8394,947.5879" fill="#FEFFDD" style="stroke:#181818;stroke-width:0.5;"/><path d="M1208.7803,947.5879 L1208.7803,957.5879 L1218.7803,957.5879 L1208.7803,947.5879" fill="#FEFFDD" style="stroke:#181818;stroke-width:0.5;"/><text fill="#000000" font-family="sans-serif" font-size="13" font-weight="bold" lengthAdjust="spacing" textLength="93.8438" x="1026.8394" y="966.083">&#12503;&#12525;&#12531;&#12503;&#12488;&#27083;&#25104;</text><text fill="#000000" font-family="sans-serif" font-size="13" lengthAdjust="spacing" textLength="98.9409" x="1026.8394" y="982.4346">- &#12518;&#12540;&#12470;&#12540;&#12463;&#12456;&#12522;</text><text fill="#000000" font-family="sans-serif" font-size="13" lengthAdjust="spacing" textLength="176.9409" x="1026.8394" y="998.7861">- &#36984;&#25246;&#12467;&#12540;&#12489;&#65288;&#12467;&#12531;&#12486;&#12461;&#12473;&#12488;&#65289;</text><text fill="#000000" font-family="sans-serif" font-size="13" lengthAdjust="spacing" textLength="143.73" x="1026.8394" y="1015.1377">- &#26908;&#32034;&#32080;&#26524;&#65288;&#19978;&#20301;3-5&#20214;&#65289;</text><text fill="#000000" font-family="sans-serif" font-size="13" lengthAdjust="spacing" textLength="98.9409" x="1026.8394" y="1031.4893">- &#22259;&#34920;&#12479;&#12452;&#12503;&#24773;&#22577;</text><rect fill="#FAFAFA" height="35.0938" rx="12.5" ry="12.5" style="stroke:#666666;stroke-width:0.5;" width="142.0039" x="858.8354" y="975.9199"/><text fill="#000000" font-family="sans-serif" font-size="12" lengthAdjust="spacing" textLength="122.0039" x="868.8354" y="998.377">RAG&#12503;&#12525;&#12531;&#12503;&#12488;&#12434;&#27083;&#31689;</text><path d="M989.8374,1163.3379 L989.8374,1197.041 L969.8374,1201.041 L989.8374,1205.041 L989.8374,1238.7441 A0,0 0 0 0 989.8374,1238.7441 L1148.7783,1238.7441 A0,0 0 0 0 1148.7783,1238.7441 L1148.7783,1173.3379 L1138.7783,1163.3379 L989.8374,1163.3379 A0,0 0 0 0 989.8374,1163.3379" fill="#FEFFDD" style="stroke:#181818;stroke-width:0.5;"/><path d="M1138.7783,1163.3379 L1138.7783,1173.3379 L1148.7783,1173.3379 L1138.7783,1163.3379" fill="#FEFFDD" style="stroke:#181818;stroke-width:0.5;"/><text fill="#000000" font-family="sans-serif" font-size="13" font-weight="bold" lengthAdjust="spacing" textLength="53.625" x="995.8374" y="1181.833">&#25972;&#24418;&#20869;&#23481;</text><text fill="#000000" font-family="sans-serif" font-size="13" lengthAdjust="spacing" textLength="59.9409" x="995.8374" y="1198.1846">- &#22238;&#31572;&#26412;&#25991;</text><text fill="#000000" font-family="sans-serif" font-size="13" lengthAdjust="spacing" textLength="85.9409" x="995.8374" y="1214.5361">- &#21442;&#29031;&#20803;&#12522;&#12531;&#12463;</text><text fill="#000000" font-family="sans-serif" font-size="13" lengthAdjust="spacing" textLength="137.9409" x="995.8374" y="1230.8877">- &#12467;&#12540;&#12489;&#12473;&#12491;&#12506;&#12483;&#12488;&#25277;&#20986;</text><rect fill="#FAFAFA" height="35.0938" rx="12.5" ry="12.5" style="stroke:#666666;stroke-width:0.5;" width="80" x="889.8374" y="1183.4941"/><text fill="#000000" font-family="sans-serif" font-size="12" lengthAdjust="spacing" textLength="60" x="899.8374" y="1205.9512">&#22238;&#31572;&#12434;&#25972;&#24418;</text><rect fill="#FAFAFA" height="35.0938" rx="12.5" ry="12.5" style="stroke:#666666;stroke-width:0.5;" width="116" x="871.8374" y="1258.7441"/><text fill="#000000" font-family="sans-serif" font-size="12" lengthAdjust="spacing" textLength="96" x="881.8374" y="1281.2012">&#12524;&#12473;&#12509;&#12531;&#12473;&#12434;&#36820;&#21364;</text><line style="stroke:#000000;stroke-width:1.5;" x1="852.8354" x2="852.8354" y1="51.0645" y2="1767.6504"/><rect fill="#FCE4EC" height="1716.5859" style="stroke:#FCE4EC;stroke-width:1;" width="326.9663" x="1223.7803" y="51.0645"/><path d="M1399.8057,738.0332 L1399.8057,771.7363 L1379.8057,775.7363 L1399.8057,779.7363 L1399.8057,813.4395 A0,0 0 0 0 1399.8057,813.4395 L1545.7466,813.4395 A0,0 0 0 0 1545.7466,813.4395 L1545.7466,748.0332 L1535.7466,738.0332 L1399.8057,738.0332 A0,0 0 0 0 1399.8057,738.0332" fill="#FEFFDD" style="stroke:#181818;stroke-width:0.5;"/><path d="M1535.7466,738.0332 L1535.7466,748.0332 L1545.7466,748.0332 L1535.7466,738.0332" fill="#FEFFDD" style="stroke:#181818;stroke-width:0.5;"/><text fill="#000000" font-family="sans-serif" font-size="13" font-weight="bold" lengthAdjust="spacing" textLength="88.1436" x="1405.8057" y="756.5283">Hybrid Search</text><text fill="#000000" font-family="sans-serif" font-size="13" lengthAdjust="spacing" textLength="124.9409" x="1405.8057" y="772.8799">- &#12505;&#12463;&#12488;&#12523;&#39006;&#20284;&#24230;&#26908;&#32034;</text><text fill="#000000" font-family="sans-serif" font-size="13" lengthAdjust="spacing" textLength="119.9009" x="1405.8057" y="789.2314">- &#20840;&#25991;&#26908;&#32034;&#65288;BM25&#65289;</text><text fill="#000000" font-family="sans-serif" font-size="13" lengthAdjust="spacing" textLength="72.9409" x="1405.8057" y="805.583">- &#12473;&#12467;&#12450;&#32113;&#21512;</text><rect fill="#FAFAFA" height="35.0938" rx="12.5" ry="12.5" style="stroke:#666666;stroke-width:0.5;" width="150.0254" x="1229.7803" y="758.1895"/><text fill="#000000" font-family="sans-serif" font-size="12" lengthAdjust="spacing" textLength="130.0254" x="1239.7803" y="780.6465">pgvector&#12391;&#12505;&#12463;&#12488;&#12523;&#26908;&#32034;</text><rect fill="#FAFAFA" height="35.0938" rx="12.5" ry="12.5" style="stroke:#666666;stroke-width:0.5;" width="104" x="1252.793" y="833.4395"/><text fill="#000000" font-family="sans-serif" font-size="12" lengthAdjust="spacing" textLength="84" x="1262.793" y="855.8965">&#26908;&#32034;&#32080;&#26524;&#12434;&#36820;&#21364;</text><line style="stroke:#000000;stroke-width:1.5;" x1="1223.7803" x2="1223.7803" y1="51.0645" y2="1767.6504"/><rect fill="#F3E5F5" height="1716.5859" style="stroke:#F3E5F5;stroke-width:1;" width="339.9668" x="1550.7466" y="51.0645"/><path d="M1731.7935,587.123 L1731.7935,596.2988 L1711.7935,600.2988 L1731.7935,604.2988 L1731.7935,613.4746 A0,0 0 0 0 1731.7935,613.4746 L1885.7134,613.4746 A0,0 0 0 0 1885.7134,613.4746 L1885.7134,597.123 L1875.7134,587.123 L1731.7935,587.123 A0,0 0 0 0 1731.7935,587.123" fill="#FEFFDD" style="stroke:#181818;stroke-width:0.5;"/><path d="M1875.7134,587.123 L1875.7134,597.123 L1885.7134,597.123 L1875.7134,587.123" fill="#FEFFDD" style="stroke:#181818;stroke-width:0.5;"/><text fill="#000000" font-family="sans-serif" font-size="13" lengthAdjust="spacing" textLength="132.9199" x="1737.7935" y="605.6182">1536&#27425;&#20803;&#12505;&#12463;&#12488;&#12523;&#29983;&#25104;</text><rect fill="#FAFAFA" height="35.0938" rx="12.5" ry="12.5" style="stroke:#666666;stroke-width:0.5;" width="145.3848" x="1566.4087" y="582.752"/><text fill="#000000" font-family="sans-serif" font-size="12" lengthAdjust="spacing" textLength="125.3848" x="1576.4087" y="605.209">text-embedding-3-small</text><rect fill="#FAFAFA" height="35.0938" rx="12.5" ry="12.5" style="stroke:#666666;stroke-width:0.5;" width="164.709" x="1556.7466" y="637.8457"/><text fill="#000000" font-family="sans-serif" font-size="12" lengthAdjust="spacing" textLength="144.709" x="1566.7466" y="660.3027">Embedding&#12505;&#12463;&#12488;&#12523;&#12434;&#36820;&#21364;</text><line style="stroke:#000000;stroke-width:1.5;" x1="1550.7466" x2="1550.7466" y1="51.0645" y2="1767.6504"/><rect fill="#FFFDE7" height="1716.5859" style="stroke:#FFFDE7;stroke-width:1;" width="252.1646" x="1890.7134" y="51.0645"/><path d="M2020.0571,1055.541 L2020.0571,1072.8926 L2000.0571,1076.8926 L2020.0571,1080.8926 L2020.0571,1098.2441 A0,0 0 0 0 2020.0571,1098.2441 L2137.8779,1098.2441 A0,0 0 0 0 2137.8779,1098.2441 L2137.8779,1065.541 L2127.8779,1055.541 L2020.0571,1055.541 A0,0 0 0 0 2020.0571,1055.541" fill="#FEFFDD" style="stroke:#181818;stroke-width:0.5;"/><path d="M2127.8779,1055.541 L2127.8779,1065.541 L2137.8779,1065.541 L2127.8779,1055.541" fill="#FEFFDD" style="stroke:#181818;stroke-width:0.5;"/><text fill="#000000" font-family="sans-serif" font-size="13" lengthAdjust="spacing" textLength="96.8208" x="2026.0571" y="1074.0361">OpenRouter&#32076;&#30001;</text><text fill="#000000" font-family="sans-serif" font-size="13" lengthAdjust="spacing" textLength="69.3481" x="2026.0571" y="1090.3877">TD-007&#28310;&#25312;</text><rect fill="#FAFAFA" height="35.0938" rx="12.5" ry="12.5" style="stroke:#666666;stroke-width:0.5;" width="103.3438" x="1896.7134" y="1059.3457"/><text fill="#000000" font-family="sans-serif" font-size="12" lengthAdjust="spacing" textLength="83.3438" x="1906.7134" y="1081.8027">LLM&#12391;&#22238;&#31572;&#29983;&#25104;</text><rect fill="#FAFAFA" height="35.0938" rx="12.5" ry="12.5" style="stroke:#666666;stroke-width:0.5;" width="91.3379" x="1902.7163" y="1118.2441"/><text fill="#000000" font-family="sans-serif" font-size="12" lengthAdjust="spacing" textLength="71.3379" x="1912.7163" y="1140.7012">AI&#22238;&#31572;&#12434;&#36820;&#21364;</text><line style="stroke:#000000;stroke-width:1.5;" x1="1890.7134" x2="1890.7134" y1="51.0645" y2="1767.6504"/><line style="stroke:#000000;stroke-width:1.5;" x1="2157.8779" x2="2157.8779" y1="51.0645" y2="1767.6504"/><line style="stroke:#181818;stroke-width:1;" x1="79" x2="79" y1="98.7051" y2="128.8613"/><polygon fill="#181818" points="75,118.8613,79,128.8613,83,118.8613,79,122.8613" style="stroke:#181818;stroke-width:1;"/><line style="stroke:#181818;stroke-width:1;" x1="539.9409" x2="539.9409" y1="239.2051" y2="273.166"/><polygon fill="#181818" points="535.9409,263.166,539.9409,273.166,543.9409,263.166,539.9409,267.166" style="stroke:#181818;stroke-width:1;"/><line style="stroke:#181818;stroke-width:1;" x1="539.9409" x2="539.9409" y1="1689.1426" y2="1745.6504"/><polygon fill="#181818" points="535.9409,1735.6504,539.9409,1745.6504,543.9409,1735.6504,539.9409,1739.6504" style="stroke:#181818;stroke-width:1;"/><line style="stroke:#181818;stroke-width:1;" x1="929.8374" x2="929.8374" y1="507.6582" y2="527.6582"/><polygon fill="#181818" points="925.8374,517.6582,929.8374,527.6582,933.8374,517.6582,929.8374,521.6582" style="stroke:#181818;stroke-width:1;"/><line style="stroke:#181818;stroke-width:1;" x1="929.8374" x2="929.8374" y1="925.6074" y2="975.9199"/><polygon fill="#181818" points="925.8374,965.9199,929.8374,975.9199,933.8374,965.9199,929.8374,969.9199" style="stroke:#181818;stroke-width:1;"/><line style="stroke:#181818;stroke-width:1;" x1="929.8374" x2="929.8374" y1="1218.5879" y2="1258.7441"/><polygon fill="#181818" points="925.8374,1248.7441,929.8374,1258.7441,933.8374,1248.7441,929.8374,1252.7441" style="stroke:#181818;stroke-width:1;"/><line style="stroke:#181818;stroke-width:1;" x1="1304.793" x2="1304.793" y1="793.2832" y2="833.4395"/><polygon fill="#181818" points="1300.793,823.4395,1304.793,833.4395,1308.793,823.4395,1304.793,827.4395" style="stroke:#181818;stroke-width:1;"/><line style="stroke:#181818;stroke-width:1;" x1="1639.1011" x2="1639.1011" y1="617.8457" y2="637.8457"/><polygon fill="#181818" points="1635.1011,627.8457,1639.1011,637.8457,1643.1011,627.8457,1639.1011,631.8457" style="stroke:#181818;stroke-width:1;"/><line style="stroke:#181818;stroke-width:1;" x1="1948.3853" x2="1948.3853" y1="1094.4395" y2="1118.2441"/><polygon fill="#181818" points="1944.3853,1108.2441,1948.3853,1118.2441,1952.3853,1108.2441,1948.3853,1112.2441" style="stroke:#181818;stroke-width:1;"/><line style="stroke:#181818;stroke-width:1;" x1="79" x2="79" y1="163.9551" y2="189.1113"/><line style="stroke:#181818;stroke-width:1;" x1="79" x2="539.9409" y1="189.1113" y2="189.1113"/><line style="stroke:#181818;stroke-width:1;" x1="539.9409" x2="539.9409" y1="189.1113" y2="204.1113"/><polygon fill="#181818" points="535.9409,194.1113,539.9409,204.1113,543.9409,194.1113,539.9409,198.1113" style="stroke:#181818;stroke-width:1;"/><line style="stroke:#181818;stroke-width:1;" x1="539.9409" x2="539.9409" y1="308.2598" y2="333.416"/><line style="stroke:#181818;stroke-width:1;" x1="539.9409" x2="79" y1="333.416" y2="333.416"/><line style="stroke:#181818;stroke-width:1;" x1="79" x2="79" y1="333.416" y2="350.3965"/><polygon fill="#181818" points="75,340.3965,79,350.3965,83,340.3965,79,344.3965" style="stroke:#181818;stroke-width:1;"/><line style="stroke:#181818;stroke-width:1;" x1="79" x2="79" y1="385.4902" y2="402.4707"/><line style="stroke:#181818;stroke-width:1;" x1="79" x2="539.9409" y1="402.4707" y2="402.4707"/><line style="stroke:#181818;stroke-width:1;" x1="539.9409" x2="539.9409" y1="402.4707" y2="417.4707"/><polygon fill="#181818" points="535.9409,407.4707,539.9409,417.4707,543.9409,407.4707,539.9409,411.4707" style="stroke:#181818;stroke-width:1;"/><line style="stroke:#181818;stroke-width:1;" x1="539.9409" x2="539.9409" y1="452.5645" y2="457.5645"/><line style="stroke:#181818;stroke-width:1;" x1="539.9409" x2="929.8374" y1="457.5645" y2="457.5645"/><line style="stroke:#181818;stroke-width:1;" x1="929.8374" x2="929.8374" y1="457.5645" y2="472.5645"/><polygon fill="#181818" points="925.8374,462.5645,929.8374,472.5645,933.8374,462.5645,929.8374,466.5645" style="stroke:#181818;stroke-width:1;"/><line style="stroke:#181818;stroke-width:1;" x1="929.8374" x2="929.8374" y1="562.752" y2="567.752"/><line style="stroke:#181818;stroke-width:1;" x1="929.8374" x2="1639.1011" y1="567.752" y2="567.752"/><line style="stroke:#181818;stroke-width:1;" x1="1639.1011" x2="1639.1011" y1="567.752" y2="582.752"/><polygon fill="#181818" points="1635.1011,572.752,1639.1011,582.752,1643.1011,572.752,1639.1011,576.752" style="stroke:#181818;stroke-width:1;"/><line style="stroke:#181818;stroke-width:1;" x1="1639.1011" x2="1639.1011" y1="672.9395" y2="677.9395"/><line style="stroke:#181818;stroke-width:1;" x1="1639.1011" x2="929.8374" y1="677.9395" y2="677.9395"/><line style="stroke:#181818;stroke-width:1;" x1="929.8374" x2="929.8374" y1="677.9395" y2="692.9395"/><polygon fill="#181818" points="925.8374,682.9395,929.8374,692.9395,933.8374,682.9395,929.8374,686.9395" style="stroke:#181818;stroke-width:1;"/><line style="stroke:#181818;stroke-width:1;" x1="929.8374" x2="929.8374" y1="728.0332" y2="733.0332"/><line style="stroke:#181818;stroke-width:1;" x1="929.8374" x2="1304.793" y1="733.0332" y2="733.0332"/><line style="stroke:#181818;stroke-width:1;" x1="1304.793" x2="1304.793" y1="733.0332" y2="758.1895"/><polygon fill="#181818" points="1300.793,748.1895,1304.793,758.1895,1308.793,748.1895,1304.793,752.1895" style="stroke:#181818;stroke-width:1;"/><line style="stroke:#181818;stroke-width:1;" x1="1304.793" x2="1304.793" y1="868.5332" y2="873.5332"/><line style="stroke:#181818;stroke-width:1;" x1="1304.793" x2="929.8374" y1="873.5332" y2="873.5332"/><line style="stroke:#181818;stroke-width:1;" x1="929.8374" x2="929.8374" y1="873.5332" y2="890.5137"/><polygon fill="#181818" points="925.8374,880.5137,929.8374,890.5137,933.8374,880.5137,929.8374,884.5137" style="stroke:#181818;stroke-width:1;"/><line style="stroke:#181818;stroke-width:1;" x1="929.8374" x2="929.8374" y1="1011.0137" y2="1044.3457"/><line style="stroke:#181818;stroke-width:1;" x1="929.8374" x2="1948.3853" y1="1044.3457" y2="1044.3457"/><line style="stroke:#181818;stroke-width:1;" x1="1948.3853" x2="1948.3853" y1="1044.3457" y2="1059.3457"/><polygon fill="#181818" points="1944.3853,1049.3457,1948.3853,1059.3457,1952.3853,1049.3457,1948.3853,1053.3457" style="stroke:#181818;stroke-width:1;"/><line style="stroke:#181818;stroke-width:1;" x1="1948.3853" x2="1948.3853" y1="1153.3379" y2="1158.3379"/><line style="stroke:#181818;stroke-width:1;" x1="1948.3853" x2="929.8374" y1="1158.3379" y2="1158.3379"/><line style="stroke:#181818;stroke-width:1;" x1="929.8374" x2="929.8374" y1="1158.3379" y2="1183.4941"/><polygon fill="#181818" points="925.8374,1173.4941,929.8374,1183.4941,933.8374,1173.4941,929.8374,1177.4941" style="stroke:#181818;stroke-width:1;"/><line style="stroke:#181818;stroke-width:1;" x1="929.8374" x2="929.8374" y1="1293.8379" y2="1298.8379"/><line style="stroke:#181818;stroke-width:1;" x1="929.8374" x2="539.9409" y1="1298.8379" y2="1298.8379"/><line style="stroke:#181818;stroke-width:1;" x1="539.9409" x2="539.9409" y1="1298.8379" y2="1323.9941"/><polygon fill="#181818" points="535.9409,1313.9941,539.9409,1323.9941,543.9409,1313.9941,539.9409,1317.9941" style="stroke:#181818;stroke-width:1;"/><line style="stroke:#181818;stroke-width:1;" x1="539.9409" x2="539.9409" y1="1359.0879" y2="1384.2441"/><line style="stroke:#181818;stroke-width:1;" x1="539.9409" x2="79" y1="1384.2441" y2="1384.2441"/><line style="stroke:#181818;stroke-width:1;" x1="79" x2="79" y1="1384.2441" y2="1399.2441"/><polygon fill="#181818" points="75,1389.2441,79,1399.2441,83,1389.2441,79,1393.2441" style="stroke:#181818;stroke-width:1;"/><line style="stroke:#181818;stroke-width:1;" x1="79" x2="79" y1="1434.3379" y2="1445.0918"/><line style="stroke:#181818;stroke-width:1;" x1="79" x2="539.9409" y1="1445.0918" y2="1445.0918"/><line style="stroke:#181818;stroke-width:1;" x1="539.9409" x2="539.9409" y1="1445.0918" y2="1480.8457"/><polygon fill="#181818" points="535.9409,1470.8457,539.9409,1480.8457,543.9409,1470.8457,539.9409,1474.8457" style="stroke:#181818;stroke-width:1;"/><line style="stroke:#181818;stroke-width:1;" x1="539.9409" x2="539.9409" y1="1515.9395" y2="1551.6934"/><line style="stroke:#181818;stroke-width:1;" x1="539.9409" x2="79" y1="1551.6934" y2="1551.6934"/><line style="stroke:#181818;stroke-width:1;" x1="79" x2="79" y1="1551.6934" y2="1572.4473"/><polygon fill="#181818" points="75,1562.4473,79,1572.4473,83,1562.4473,79,1566.4473" style="stroke:#181818;stroke-width:1;"/><line style="stroke:#181818;stroke-width:1;" x1="79" x2="79" y1="1607.541" y2="1618.2949"/><line style="stroke:#181818;stroke-width:1;" x1="79" x2="539.9409" y1="1618.2949" y2="1618.2949"/><line style="stroke:#181818;stroke-width:1;" x1="539.9409" x2="539.9409" y1="1618.2949" y2="1654.0488"/><polygon fill="#181818" points="535.9409,1644.0488,539.9409,1654.0488,543.9409,1644.0488,539.9409,1648.0488" style="stroke:#181818;stroke-width:1;"/><text fill="#000000" font-family="sans-serif" font-size="18" lengthAdjust="spacing" textLength="126" x="172.9709" y="69.75">&#12456;&#12531;&#12489;&#12518;&#12540;&#12470;&#12540;</text><text fill="#000000" font-family="sans-serif" font-size="18" lengthAdjust="spacing" textLength="137.0654" x="586.356" y="69.75">Frontend Service</text><text fill="#000000" font-family="sans-serif" font-size="18" lengthAdjust="spacing" textLength="104.0625" x="988.7771" y="69.75">Backend API</text><text fill="#000000" font-family="sans-serif" font-size="18" lengthAdjust="spacing" textLength="81.0703" x="1349.2288" y="69.75">Supabase</text><text fill="#000000" font-family="sans-serif" font-size="18" lengthAdjust="spacing" textLength="61.04" x="1692.7104" y="69.75">OpenAI</text><text fill="#000000" font-family="sans-serif" font-size="18" lengthAdjust="spacing" textLength="98.0596" x="1970.2664" y="69.75">OpenRouter</text><!--SRC=[dLRVJnj747w_l-AaF20XEOMu9AbH7nomMwH4hKAhFXjyWLF0Xyv7qaX-uEvYCDZK56536WSmfGOCveU011oC_vUkzyv-oh-GsLsVxxWZKbf0bfcTsVtccszcj-lx__p3TV7-kxqzTtjvfEqYVGvfVoEjZcUJI5z3-ZxILv6UGte5wLVW-ki0x_VrzWHuN2cPzMMadI8T_cRfvskaBHlR1VDi2wbla9RckY02QPT8sqRw9j8FO0zmnAdtvjbhV7IDwuK0UFXuyTatyPUYCZfEZbLtl24jzOEvyz4igKPbYqRWj-ijjMvMyW4-9Ya213NtJispusRvm5ZxW-lw7pnmyUTYR2eYHoRvuAWYlX2LLuyYey_7P6aw5XsG9YIPlnCEaj_RF2KvAiXjh_lqn-4r_5ASd8Z4XD_4g3BEzpxiSQmDIB6eg8XIB1IB3Ykl9WH-V4AC2HodY0hyyxMr-NILQjVcqzKynoNkXFpXU-71n7HSa1Ci72eqZ_GIOLHxJye9JW_3VQ7l4i-411-MfPWYnAByi22_44S5M0s7m_vGJo8o9IPuGWLP3VuyH5O6Gj-61XBnwQb8WX-6pv58d4RuGttXleGKWOYVfeHOS8XjCnXwa91aPdigJIk2310fD2wkH6I52zWPQSlDymyudUldI6LvMHmRLpYUx-vcPYD_QPpc8DtczXnUIa6stTsmxECTd1I09PAl1W8zGdePwJfyOLxQ1wJlK5MbaBPFLdJO91Nk9RonVMQHLY4Qr5CjzS9OMFztTXbdJvrRWGNDP9oOsxgVMUG8ImGvP0YyEZFJ_qJw8lckBRVoQQHcNIbIICVWWA-oI3kdFJ3VYG87m0c1hVmypXurzHf1R9yMOFpOBMab0SVXR1vVhteOPMP3J-BDapQBBEF6HGMfXyvDu6YaQaZB8FMumnJX3yHK0tIDsg9PEoH1v7nWbxcOsMjSs0KpVdlQBEwIkf2iLfqiCHq4cgTbdCiIiCb_yC9R3pVkgY0rZRHvsBgjYpSQKacDswiM3AHcSEgTKTWWzIDjK4Og05f5QWcSctDbY6Kd8ZL7yeEvvIvXkxWGolQmQ6tDg8rwiH_SI8z0gJj74CfNwTeDOsXoH8X6nTWOpkH966aKBg08loi-mLho-NtnoSZ4X8k0tZx_VUEWY9CWs3TKYocWtLpPC59BDk10vmId5-cf-WfUFBEXjehhZQkhByrluaURcmjCZRqGHXL99dFPiQNbvrBKZwz6P97Ca8WyEjvfJ3kC7Okh9HPFrt5oryZFCGF8xD6JUtssmYu9H6tBF3-1PdVaoTpDyoLZlN1BUkxblLpZkkYTADICDwf6DM_ftmBOERgLlyOpsqpDTB_6n_T6xjZPUK-3Fz3-hb0QLvauZ9sqUJJlETFb25vGm0vJzdJkoCRHbXrHasxqzBb5cZDtS6nSB41p-drzWDjoSNKZcm1EsKka8ny_VW9LXwlMhAmmeRcoiSUvUPunLqx0zCkWhwVd0V1ff3STvGeEiMrkALLdmSYTuPfNKimCbnu-l6ppn4ACmW7eXXcocfdSeRrHfeFV6lRM4204fP7-5vltna8DprKTyCX3WxYyey6NDr3I2M2ZB-wQsrMlagZv1iZW4EECXRfWklfElQ3ZzckmkmUnTv1si9fRrMPviT- -Y9pgsg82OvSXkIdnTTBOs_0aneJ7xXkabbrnDDLWW7TXf1Slm5yXhmoUVtIxW_sYGUg-aQd350RdWO2JfZRVO1yCyCrw3Iziidi2B27OziQL2hD-pJM-svHuqsLvTRYn-il3ok56ivZnDl5DH_RsjCcm7WhiBTA-XlOzb7Xlpviqq2UskVAnzGuUr1Vi3SoOCFB7pLBMUckthpCyLpANPhz8Z5eopxL6TTP1JroHfhZF]--></g></svg>