<svg xmlns="http://www.w3.org/2000/svg" xmlns:xlink="http://www.w3.org/1999/xlink" contentStyleType="text/css" data-diagram-type="DESCRIPTION" height="408px" preserveAspectRatio="none" style="width:895px;height:408px;background:#FFFFFF;" version="1.1" viewBox="0 0 895 408" width="895px" zoomAndPan="magnify"><defs/><g><!--cluster PlantUML Studio--><g class="cluster" data-entity="PlantUML Studio" data-source-line="26" data-uid="ent0004" id="cluster_PlantUML Studio"><rect fill="none" height="201" rx="2.5" ry="2.5" style="stroke:#181818;stroke-width:1;" width="882" x="7" y="96.5"/><text fill="#000000" font-family="sans-serif" font-size="11" font-weight="bold" lengthAdjust="spacing" textLength="87.9893" x="404.0054" y="109.9189">PlantUML Studio</text></g><!--cluster 1. ??--><g class="cluster" data-entity="1. &#35469;&#35388;" data-source-line="30" data-uid="ent0005" id="cluster_1. &#35469;&#35388;"><rect fill="#E8F5E9" height="104" rx="2.5" ry="2.5" style="stroke:#181818;stroke-width:1;" width="126" x="203" y="153"/><text fill="#000000" font-family="sans-serif" font-size="11" font-style="italic" lengthAdjust="spacing" textLength="34.2354" x="248.8823" y="166.4189">&#171;&#35469;&#35388;&#187;</text><text fill="#000000" font-family="sans-serif" font-size="11" font-weight="bold" lengthAdjust="spacing" textLength="34.9175" x="248.5413" y="180.2549">1. &#35469;&#35388;</text></g><!--cluster 2. ??????--><g class="cluster" data-entity="2. &#12503;&#12525;&#12472;&#12455;&#12463;&#12488;" data-source-line="34" data-uid="ent0007" id="cluster_2. &#12503;&#12525;&#12472;&#12455;&#12463;&#12488;"><rect fill="#E3F2FD" height="104" rx="2.5" ry="2.5" style="stroke:#181818;stroke-width:1;" width="140" x="39" y="153"/><text fill="#000000" font-family="sans-serif" font-size="11" font-style="italic" lengthAdjust="spacing" textLength="78.2354" x="69.8823" y="166.4189">&#171;&#12503;&#12525;&#12472;&#12455;&#12463;&#12488;&#187;</text><text fill="#000000" font-family="sans-serif" font-size="11" font-weight="bold" lengthAdjust="spacing" textLength="80.2925" x="68.8538" y="180.2549">2. &#12503;&#12525;&#12472;&#12455;&#12463;&#12488;</text></g><!--cluster 3. ????--><g class="cluster" data-entity="3. &#22259;&#34920;&#25805;&#20316;" data-source-line="41" data-uid="ent0009" id="cluster_3. &#22259;&#34920;&#25805;&#20316;"><rect fill="#FFF3E0" height="121" rx="2.5" ry="2.5" style="stroke:#181818;stroke-width:1;" width="140" x="369" y="144.5"/><text fill="#000000" font-family="sans-serif" font-size="11" font-style="italic" lengthAdjust="spacing" textLength="56.2354" x="410.8823" y="157.9189">&#171;&#22259;&#34920;&#25805;&#20316;&#187;</text><text fill="#000000" font-family="sans-serif" font-size="11" font-weight="bold" lengthAdjust="spacing" textLength="57.605" x="410.1975" y="171.7549">3. &#22259;&#34920;&#25805;&#20316;</text></g><!--cluster 4. AI??--><g class="cluster" data-entity="4. AI&#27231;&#33021;" data-source-line="45" data-uid="ent0011" id="cluster_4. AI&#27231;&#33021;"><rect fill="#FCE4EC" height="104" rx="2.5" ry="2.5" style="stroke:#181818;stroke-width:1;" width="146" x="533" y="153"/><text fill="#000000" font-family="sans-serif" font-size="11" font-style="italic" lengthAdjust="spacing" textLength="44.6284" x="583.6858" y="166.4189">&#171;AI&#27231;&#33021;&#187;</text><text fill="#000000" font-family="sans-serif" font-size="11" font-weight="bold" lengthAdjust="spacing" textLength="45.9175" x="583.0413" y="180.2549">4. AI&#27231;&#33021;</text></g><!--cluster 5. ????--><g class="cluster" data-entity="5. &#31649;&#29702;&#27231;&#33021;" data-source-line="51" data-uid="ent0013" id="cluster_5. &#31649;&#29702;&#27231;&#33021;"><rect fill="#F3E5F5" height="104" rx="2.5" ry="2.5" style="stroke:#181818;stroke-width:1;" width="154" x="711" y="153"/><text fill="#000000" font-family="sans-serif" font-size="11" font-style="italic" lengthAdjust="spacing" textLength="56.2354" x="759.8823" y="166.4189">&#171;&#31649;&#29702;&#27231;&#33021;&#187;</text><text fill="#000000" font-family="sans-serif" font-size="11" font-weight="bold" lengthAdjust="spacing" textLength="57.605" x="759.1975" y="180.2549">5. &#31649;&#29702;&#27231;&#33021;</text></g><g class="entity" data-entity="UC1" data-source-line="31" data-uid="ent0006" id="entity_UC1"><ellipse cx="265.8406" cy="219.7882" fill="#F1F1F1" rx="46.8406" ry="20.7882" style="stroke:#181818;stroke-width:0.5;"/><text fill="#000000" font-family="sans-serif" font-size="10" lengthAdjust="spacing" textLength="40" x="245.8406" y="215.5909">&#12525;&#12464;&#12452;&#12531;</text><text fill="#000000" font-family="sans-serif" font-size="10" lengthAdjust="spacing" textLength="50" x="240.8406" y="228.169">&#12525;&#12464;&#12450;&#12454;&#12488;</text></g><g class="entity" data-entity="UC2" data-source-line="35" data-uid="ent0008" id="entity_UC2"><ellipse cx="108.9117" cy="219.7882" fill="#F1F1F1" rx="53.9117" ry="20.7882" style="stroke:#181818;stroke-width:0.5;"/><text fill="#000000" font-family="sans-serif" font-size="10" lengthAdjust="spacing" textLength="60" x="78.9117" y="215.5909">&#12503;&#12525;&#12472;&#12455;&#12463;&#12488;</text><text fill="#000000" font-family="sans-serif" font-size="10" lengthAdjust="spacing" textLength="28.8867" x="94.4683" y="228.169">CRUD</text></g><g class="entity" data-entity="UC3" data-source-line="42" data-uid="ent0010" id="entity_UC3"><ellipse cx="438.9117" cy="220.1822" fill="#F1F1F1" rx="53.9117" ry="29.6822" style="stroke:#181818;stroke-width:0.5;"/><text fill="#000000" font-family="sans-serif" font-size="10" lengthAdjust="spacing" textLength="48.8867" x="414.4683" y="209.6959">&#22259;&#34920;CRUD</text><text fill="#000000" font-family="sans-serif" font-size="10" lengthAdjust="spacing" textLength="50" x="413.9117" y="222.274">&#12503;&#12524;&#12499;&#12517;&#12540;</text><text fill="#000000" font-family="sans-serif" font-size="10" lengthAdjust="spacing" textLength="60" x="408.9117" y="234.8522">&#12456;&#12463;&#12473;&#12509;&#12540;&#12488;</text></g><g class="entity" data-entity="UC4" data-source-line="46" data-uid="ent0012" id="entity_UC4"><ellipse cx="606.0743" cy="219.7882" fill="#F1F1F1" rx="57.0743" ry="20.7882" style="stroke:#181818;stroke-width:0.5;"/><text fill="#000000" font-family="sans-serif" font-size="10" lengthAdjust="spacing" textLength="64.4727" x="573.838" y="215.5909">Question-Start</text><text fill="#000000" font-family="sans-serif" font-size="10" lengthAdjust="spacing" textLength="49.4482" x="581.3502" y="228.169">AI&#12481;&#12515;&#12483;&#12488;</text></g><g class="entity" data-entity="UC5" data-source-line="52" data-uid="ent0014" id="entity_UC5"><ellipse cx="787.9828" cy="219.7882" fill="#F1F1F1" rx="60.9828" ry="20.7882" style="stroke:#181818;stroke-width:0.5;"/><text fill="#000000" font-family="sans-serif" font-size="10" lengthAdjust="spacing" textLength="60" x="757.9828" y="215.5909">&#12518;&#12540;&#12470;&#12540;&#31649;&#29702;</text><text fill="#000000" font-family="sans-serif" font-size="10" lengthAdjust="spacing" textLength="70" x="752.9828" y="228.169">&#12467;&#12531;&#12486;&#12531;&#12484;&#31649;&#29702;</text></g><!--entity user--><g class="entity" data-entity="user" data-source-line="22" data-uid="ent0002" id="entity_user"><ellipse cx="353" cy="22" fill="#F1F1F1" rx="16" ry="16" style="stroke:#181818;stroke-width:0.5;"/><path d="M353,42 C357,42 360,42 364,38 C372,38 380,46 380,54 L380,58 C380,62 376,66 372,66 L334,66 C330,66 326,62 326,58 L326,54 C326,46 334,38 342,38 C346,42 349,42 353,42" fill="#F1F1F1" style="stroke:#181818;stroke-width:0.5;"/><text fill="#000000" font-family="sans-serif" font-size="11" lengthAdjust="spacing" textLength="77" x="314.5" y="77.9189">&#12456;&#12531;&#12489;&#12518;&#12540;&#12470;&#12540;</text></g><!--entity developer--><g class="entity" data-entity="developer" data-source-line="23" data-uid="ent0003" id="entity_developer"><ellipse cx="788" cy="22" fill="#F1F1F1" rx="16" ry="16" style="stroke:#181818;stroke-width:0.5;"/><path d="M788,42 C792,42 795,42 799,38 C807,38 815,46 815,54 L815,58 C815,62 811,66 807,66 L769,66 C765,66 761,62 761,58 L761,54 C761,46 769,38 777,38 C781,42 784,42 788,42" fill="#F1F1F1" style="stroke:#181818;stroke-width:0.5;"/><text fill="#000000" font-family="sans-serif" font-size="11" lengthAdjust="spacing" textLength="33" x="771.5" y="77.9189">&#38283;&#30330;&#32773;</text></g><!--entity supabase--><g class="entity" data-entity="supabase" data-source-line="57" data-uid="ent0015" id="entity_supabase"><ellipse cx="532" cy="343.8359" fill="#F1F1F1" rx="16" ry="16" style="stroke:#181818;stroke-width:0.5;"/><path d="M532,363.8359 C536,363.8359 539,363.8359 543,359.8359 C551,359.8359 559,367.8359 559,375.8359 L559,379.8359 C559,383.8359 555,387.8359 551,387.8359 L513,387.8359 C509,387.8359 505,383.8359 505,379.8359 L505,375.8359 C505,367.8359 513,359.8359 521,359.8359 C525,363.8359 528,363.8359 532,363.8359" fill="#F1F1F1" style="stroke:#181818;stroke-width:0.5;"/><text fill="#000000" font-family="sans-serif" font-size="11" lengthAdjust="spacing" textLength="49.543" x="507.2285" y="399.7549">Supabase</text><text fill="#000000" font-family="sans-serif" font-size="11" font-style="italic" lengthAdjust="spacing" textLength="34.2354" x="514.8823" y="324.9189">&#171;&#22806;&#37096;&#187;</text></g><!--entity openrouter--><g class="entity" data-entity="openrouter" data-source-line="58" data-uid="ent0016" id="entity_openrouter"><ellipse cx="438.9626" cy="343.8359" fill="#F1F1F1" rx="16" ry="16" style="stroke:#181818;stroke-width:0.5;"/><path d="M438.9626,363.8359 C442.9626,363.8359 445.9626,363.8359 449.9626,359.8359 C457.9626,359.8359 465.9626,367.8359 465.9626,375.8359 L465.9626,379.8359 C465.9626,383.8359 461.9626,387.8359 457.9626,387.8359 L419.9626,387.8359 C415.9626,387.8359 411.9626,383.8359 411.9626,379.8359 L411.9626,375.8359 C411.9626,367.8359 419.9626,359.8359 427.9626,359.8359 C431.9626,363.8359 434.9626,363.8359 438.9626,363.8359" fill="#F1F1F1" style="stroke:#181818;stroke-width:0.5;"/><text fill="#000000" font-family="sans-serif" font-size="11" lengthAdjust="spacing" textLength="59.9253" x="409" y="399.7549">OpenRouter</text><text fill="#000000" font-family="sans-serif" font-size="11" font-style="italic" lengthAdjust="spacing" textLength="34.2354" x="421.845" y="324.9189">&#171;&#22806;&#37096;&#187;</text></g><!--entity openai--><g class="entity" data-entity="openai" data-source-line="59" data-uid="ent0017" id="entity_openai"><ellipse cx="788" cy="343.8359" fill="#F1F1F1" rx="16" ry="16" style="stroke:#181818;stroke-width:0.5;"/><path d="M788,363.8359 C792,363.8359 795,363.8359 799,359.8359 C807,359.8359 815,367.8359 815,375.8359 L815,379.8359 C815,383.8359 811,387.8359 807,387.8359 L769,387.8359 C765,387.8359 761,383.8359 761,379.8359 L761,375.8359 C761,367.8359 769,359.8359 777,359.8359 C781,363.8359 784,363.8359 788,363.8359" fill="#F1F1F1" style="stroke:#181818;stroke-width:0.5;"/><text fill="#000000" font-family="sans-serif" font-size="11" lengthAdjust="spacing" textLength="37.3022" x="769.3489" y="399.7549">OpenAI</text><text fill="#000000" font-family="sans-serif" font-size="11" font-style="italic" lengthAdjust="spacing" textLength="34.2354" x="770.8823" y="324.9189">&#171;&#22806;&#37096;&#187;</text></g><g class="entity" data-entity="GMN28" data-source-line="77" data-uid="ent0029" id="entity_GMN28"><path d="M186.5,346 L186.5,369.8359 A0,0 0 0 0 186.5,369.8359 L345.6123,369.8359 A0,0 0 0 0 345.6123,369.8359 L345.6123,356 L335.6123,346 L270,346 L266,241.07 L262,346 L186.5,346 A0,0 0 0 0 186.5,346" fill="#FEFFDD" style="stroke:#181818;stroke-width:0.5;"/><path d="M335.6123,346 L335.6123,356 L345.6123,356 L335.6123,346" fill="#FEFFDD" style="stroke:#181818;stroke-width:0.5;"/><text fill="#000000" font-family="sans-serif" font-size="11" lengthAdjust="spacing" textLength="138.1123" x="192.5" y="362.4189">&#35469;&#35388;&#24460; &#8594; &#12503;&#12525;&#12472;&#12455;&#12463;&#12488;&#36984;&#25246;</text></g><g class="entity" data-entity="GMN31" data-source-line="81" data-uid="ent0032" id="entity_GMN31"><path d="M594.5,346 L594.5,369.8359 A0,0 0 0 0 594.5,369.8359 L709.0054,369.8359 A0,0 0 0 0 709.0054,369.8359 L709.0054,356 L699.0054,346 L652.16,346 L612.79,241.07 L644.16,346 L594.5,346 A0,0 0 0 0 594.5,346" fill="#FEFFDD" style="stroke:#181818;stroke-width:0.5;"/><path d="M699.0054,346 L699.0054,356 L709.0054,356 L699.0054,346" fill="#FEFFDD" style="stroke:#181818;stroke-width:0.5;"/><text fill="#000000" font-family="sans-serif" font-size="11" lengthAdjust="spacing" textLength="93.5054" x="600.5" y="362.4189">AI&#29983;&#25104; &#8594; &#22259;&#34920;&#20316;&#25104;</text></g><!--link user to UC1--><g class="link" data-entity-1="user" data-entity-2="UC1" data-source-line="62" data-uid="lnk18" id="link_user_UC1"><path d="M334.76,80.69 C316.82,116.77 292.7913,165.1175 278.5113,193.8375" fill="none" id="user-to-UC1" style="stroke:#181818;stroke-width:1;"/><polygon fill="#181818" points="275.84,199.21,283.4286,192.9321,278.0661,194.7329,276.2653,189.3703,275.84,199.21" style="stroke:#181818;stroke-width:1;"/></g><!--link user to UC2--><g class="link" data-entity-1="user" data-entity-2="UC2" data-source-line="63" data-uid="lnk19" id="link_user_UC2"><path d="M314.23,48.44 C282.01,53.69 236.22,64.91 203,88.5 C162.02,117.6 134.8435,164.9037 120.7435,193.6337" fill="none" id="user-to-UC2" style="stroke:#181818;stroke-width:1;"/><polygon fill="#181818" points="118.1,199.02,125.6561,192.7029,120.3029,194.5314,118.4743,189.1783,118.1,199.02" style="stroke:#181818;stroke-width:1;"/></g><!--link user to UC3--><g class="link" data-entity-1="user" data-entity-2="UC3" data-source-line="64" data-uid="lnk20" id="link_user_UC3"><path d="M371.03,80.69 C387.23,113.66 408.0335,155.9852 422.7235,185.8752" fill="none" id="user-to-UC3" style="stroke:#181818;stroke-width:1;"/><polygon fill="#181818" points="425.37,191.26,424.9902,181.4185,423.1646,186.7727,417.8104,184.9471,425.37,191.26" style="stroke:#181818;stroke-width:1;"/></g><!--link user to UC4--><g class="link" data-entity-1="user" data-entity-2="UC4" data-source-line="65" data-uid="lnk21" id="link_user_UC4"><path d="M391.55,47.97 C425.07,52.96 473.67,64.08 509,88.5 C550.8,117.39 579.0401,164.827 593.7501,193.617" fill="none" id="user-to-UC4" style="stroke:#181818;stroke-width:1;"/><polygon fill="#181818" points="596.48,198.96,595.9471,189.1256,594.205,194.5075,588.8231,192.7655,596.48,198.96" style="stroke:#181818;stroke-width:1;"/></g><!--link developer to UC5--><g class="link" data-entity-1="developer" data-entity-2="UC5" data-source-line="66" data-uid="lnk22" id="link_developer_UC5"><path d="M788,80.69 C788,116.57 788,163.89 788,192.73" fill="none" id="developer-to-UC5" style="stroke:#181818;stroke-width:1;"/><polygon fill="#181818" points="788,198.73,792,189.73,788,193.73,784,189.73,788,198.73" style="stroke:#181818;stroke-width:1;"/></g><!--link UC1 to supabase--><g class="link" data-entity-1="UC1" data-entity-2="supabase" data-source-line="69" data-uid="lnk23" id="link_UC1_supabase"><path d="M282.34,240.11 C300.99,260.4 333.52,291.44 369,305.5 C417.87,324.87 438.96,292.16 487,313.5 C493.16,316.24 494.3735,316.3435 499.6535,320.7735" fill="none" id="UC1-to-supabase" style="stroke:#181818;stroke-width:1;"/><polygon fill="#181818" points="504.25,324.63,499.9263,315.7809,500.4196,321.4163,494.7843,321.9096,504.25,324.63" style="stroke:#181818;stroke-width:1;"/></g><!--link UC3 to openrouter--><g class="link" data-entity-1="UC3" data-entity-2="openrouter" data-source-line="70" data-uid="lnk24" id="link_UC3_openrouter"><path d="M439,249.51 C439,267.97 439,286.37 439,307.26" fill="none" id="UC3-to-openrouter" style="stroke:#181818;stroke-width:1;"/><polygon fill="#181818" points="439,313.26,443,304.26,439,308.26,435,304.26,439,313.26" style="stroke:#181818;stroke-width:1;"/></g><!--link UC4 to openrouter--><g class="link" data-entity-1="UC4" data-entity-2="openrouter" data-source-line="71" data-uid="lnk25" id="link_UC4_openrouter"><path d="M588.3,240.08 C569.98,258.88 539.78,287.35 509,305.5 C500.04,310.78 495.91,308.13 487,313.5 C480.84,317.22 479.3306,317.9147 473.6806,322.6947" fill="none" id="UC4-to-openrouter" style="stroke:#181818;stroke-width:1;"/><polygon fill="#181818" points="469.1,326.57,478.5545,323.8108,472.9172,323.3406,473.3874,317.7033,469.1,326.57" style="stroke:#181818;stroke-width:1;"/></g><!--link UC5 to supabase--><g class="link" data-entity-1="UC5" data-entity-2="supabase" data-source-line="72" data-uid="lnk26" id="link_UC5_supabase"><path d="M770.08,240.41 C750.06,260.64 715.63,291.34 679,305.5 C636.59,321.9 618.46,294.82 577,313.5 C570.76,316.31 569.4354,316.4886 564.0954,321.0186" fill="none" id="UC5-to-supabase" style="stroke:#181818;stroke-width:1;"/><polygon fill="#181818" points="559.52,324.9,568.9708,322.1282,563.3329,321.6655,563.7956,316.0276,559.52,324.9" style="stroke:#181818;stroke-width:1;"/></g><!--link UC5 to openai--><g class="link" data-entity-1="UC5" data-entity-2="openai" data-source-line="73" data-uid="lnk27" id="link_UC5_openai"><path d="M788,241.07 C788,259.98 788,282.97 788,307.22" fill="none" id="UC5-to-openai" style="stroke:#181818;stroke-width:1;"/><polygon fill="#181818" points="788,313.22,792,304.22,788,308.22,784,304.22,788,313.22" style="stroke:#181818;stroke-width:1;"/></g><!--SRC=[dLLRJnD157xVNp6f3trg0sqtKO9DQcaJ4erAmnilQxlKXhBJRASQDIHqHvfoHn7Ke29GeIAWfbug5Fql3hqzyHUScTss0ss9EWzjPivtpdppdSlQh_xpakoWictKjjFbjK8Va0b-GZ0cncU2IyGealH1UIf_ShnSnekI_J-Y8vW0288x424u3Y8nNGsZ6DIaP5Y9gw3NsID9oR6Obb1qPHmeOGJr47f0BSfzDGd7LS6OKC9ZIbGrpIoCeaNZ8Y2YZYgfE0f23OLY3sdmtdRlbj4b65D9DQma1UCPLfOhU2G1kgxHNLI7AItYXt6ez_VNTkTh-PBN2ou5BWVbm9NEA8AV4xpF53LsYF6Hu2ptS0TTmO7E7ZGVjOryPNd-vFWLmmQ3GNUWfpFMDrXvlrx3nnpd3tW2_iwuwi56TIaZODq1EIXB4v9aTpZ0IV6869kCdV6Bfl-qb3qfpjHn_hGq3HmEYMS7s8YH9xX0y3J1sxn8lj5V6r2IJ4QzWQglpbPV7jOcfxWbejvJup11pVmYOdmdnW-2CmI_BM_YwieSYz_CAR3TYYiQ6hvn7OHGAXA3DgezVv39SgPoyBKFcBeJVDGkBOl6u0X6LNHNrQtKiTL8fgtNQKMm0I67BI1RLbtGDxFuduYHeoyVqHexAXLL8CjVEEplRRfEIEtNkPoWdIUxkcDXTALn7ZkY-OU61om6Be61mCCKRP-BHl26-Ggp1lv6ABSJYAN8E9yhpIviJHJZnoIZpFS8NYRu7IqNUa2hY1KQhOBNh8gQChelbD7Z18rQPqI4kkz2udPAJRA1umWXHKSZcc-Gu3J1Msp8DU_qN2JSB1TEx9o6QarMilECdJ4xrsajTa8oM-rZefag1TvR6Vxxs3osICeMDQjPoxbLsffY9z5-BIyMokalP_irb4eeT-YDF4pIsh0ayW1URmDtCw5gGp25L9qZQRTgEjzsmVe6cpWb9c8wpPBwwcPzSeknOaE2_djvnmWRbxXnYnkFr1mVredSJOBMDJGw1pSUJ0_S_A3rBdhaQJ-Ipxl9JOmIiyONNc5jY4krtRtAYmMc-rg1VIbpgoJzWU05iw19UeVMVpLtQEL3WqXjV0ZXg3KnpCbJ_Za7VcUUTXWHzNInClD6KhK8OFvIUnHMlBx1whFrIdQ91p7xZhOcFMWv_W40]--></g></svg>