<svg xmlns="http://www.w3.org/2000/svg" xmlns:xlink="http://www.w3.org/1999/xlink" contentStyleType="text/css" data-diagram-type="DESCRIPTION" height="584px" preserveAspectRatio="none" style="width:694px;height:584px;background:#FFFFFF;" version="1.1" viewBox="0 0 694 584" width="694px" zoomAndPan="magnify"><defs/><g><!--cluster PlantUML Studio--><g class="cluster" data-entity="PlantUML Studio" data-source-line="25" data-uid="ent0004" id="cluster_PlantUML Studio"><rect fill="none" height="571" rx="2.5" ry="2.5" style="stroke:#181818;stroke-width:1;" width="253" x="130" y="7"/><text fill="#000000" font-family="sans-serif" font-size="11" font-weight="bold" lengthAdjust="spacing" textLength="87.9893" x="212.5054" y="20.4189">PlantUML Studio</text></g><!--cluster 1. ??--><g class="cluster" data-entity="1. &#35469;&#35388;" data-source-line="27" data-uid="ent0005" id="cluster_1. &#35469;&#35388;"><rect fill="#E8F5E9" height="159" rx="2.5" ry="2.5" style="stroke:#181818;stroke-width:1;" width="166" x="173.5" y="47"/><text fill="#000000" font-family="sans-serif" font-size="11" font-style="italic" lengthAdjust="spacing" textLength="34.2354" x="239.3823" y="60.4189">&#171;&#35469;&#35388;&#187;</text><text fill="#000000" font-family="sans-serif" font-size="11" font-weight="bold" lengthAdjust="spacing" textLength="34.9175" x="239.0413" y="74.2549">1. &#35469;&#35388;</text></g><!--cluster 2. ????????--><g class="cluster" data-entity="2. &#12503;&#12525;&#12472;&#12455;&#12463;&#12488;&#31649;&#29702;" data-source-line="32" data-uid="ent0008" id="cluster_2. &#12503;&#12525;&#12472;&#12455;&#12463;&#12488;&#31649;&#29702;"><rect fill="#E3F2FD" height="324" rx="2.5" ry="2.5" style="stroke:#181818;stroke-width:1;" width="205" x="154" y="230"/><text fill="#000000" font-family="sans-serif" font-size="11" font-style="italic" lengthAdjust="spacing" textLength="78.2354" x="217.3823" y="243.4189">&#171;&#12503;&#12525;&#12472;&#12455;&#12463;&#12488;&#187;</text><text fill="#000000" font-family="sans-serif" font-size="11" font-weight="bold" lengthAdjust="spacing" textLength="102.98" x="205.01" y="257.2549">2. &#12503;&#12525;&#12472;&#12455;&#12463;&#12488;&#31649;&#29702;</text></g><g class="entity" data-entity="UC_LOGIN" data-source-line="28" data-uid="ent0006" id="entity_UC_LOGIN"><ellipse cx="256.5525" cy="107.9105" fill="#FAFAFA" rx="62.5525" ry="14.9105" style="stroke:#666666;stroke-width:0.5;"/><text fill="#000000" font-family="sans-serif" font-size="11" lengthAdjust="spacing" textLength="84.9546" x="214.0752" y="110.4115">1-1 &#12525;&#12464;&#12452;&#12531;&#12377;&#12427;</text></g><g class="entity" data-entity="UC_LOGOUT" data-source-line="29" data-uid="ent0007" id="entity_UC_LOGOUT"><ellipse cx="256.6093" cy="173.8219" fill="#FAFAFA" rx="67.1093" ry="15.8219" style="stroke:#666666;stroke-width:0.5;"/><text fill="#000000" font-family="sans-serif" font-size="11" lengthAdjust="spacing" textLength="95.9546" x="208.632" y="176.3228">1-2 &#12525;&#12464;&#12450;&#12454;&#12488;&#12377;&#12427;</text></g><g class="entity" data-entity="UC_PRJ_CREATE" data-source-line="33" data-uid="ent0009" id="entity_UC_PRJ_CREATE"><ellipse cx="256.4806" cy="296.1961" fill="#FAFAFA" rx="86.4806" ry="19.6961" style="stroke:#666666;stroke-width:0.5;"/><text fill="#000000" font-family="sans-serif" font-size="11" lengthAdjust="spacing" textLength="139.9546" x="186.5033" y="298.6971">2-1 &#12503;&#12525;&#12472;&#12455;&#12463;&#12488;&#12434;&#20316;&#25104;&#12377;&#12427;</text></g><g class="entity" data-entity="UC_PRJ_SELECT" data-source-line="34" data-uid="ent0010" id="entity_UC_PRJ_SELECT"><ellipse cx="256.4806" cy="370.1961" fill="#FAFAFA" rx="86.4806" ry="19.6961" style="stroke:#666666;stroke-width:0.5;"/><text fill="#000000" font-family="sans-serif" font-size="11" lengthAdjust="spacing" textLength="139.9546" x="186.5033" y="372.6971">2-2 &#12503;&#12525;&#12472;&#12455;&#12463;&#12488;&#12434;&#36984;&#25246;&#12377;&#12427;</text></g><g class="entity" data-entity="UC_PRJ_EDIT" data-source-line="35" data-uid="ent0011" id="entity_UC_PRJ_EDIT"><ellipse cx="256.4806" cy="444.1961" fill="#FAFAFA" rx="86.4806" ry="19.6961" style="stroke:#666666;stroke-width:0.5;"/><text fill="#000000" font-family="sans-serif" font-size="11" lengthAdjust="spacing" textLength="139.9546" x="186.5033" y="446.6971">2-3 &#12503;&#12525;&#12472;&#12455;&#12463;&#12488;&#12434;&#32232;&#38598;&#12377;&#12427;</text></g><g class="entity" data-entity="UC_PRJ_DELETE" data-source-line="36" data-uid="ent0012" id="entity_UC_PRJ_DELETE"><ellipse cx="256.4806" cy="518.1961" fill="#FAFAFA" rx="86.4806" ry="19.6961" style="stroke:#666666;stroke-width:0.5;"/><text fill="#000000" font-family="sans-serif" font-size="11" lengthAdjust="spacing" textLength="139.9546" x="186.5033" y="520.6971">2-4 &#12503;&#12525;&#12472;&#12455;&#12463;&#12488;&#12434;&#21066;&#38500;&#12377;&#12427;</text></g><!--entity user--><g class="entity" data-entity="user" data-source-line="21" data-uid="ent0002" id="entity_user"><ellipse cx="44.5" cy="321" fill="#F1F1F1" rx="16" ry="16" style="stroke:#181818;stroke-width:0.5;"/><path d="M44.5,341 C48.5,341 51.5,341 55.5,337 C63.5,337 71.5,345 71.5,353 L71.5,357 C71.5,361 67.5,365 63.5,365 L25.5,365 C21.5,365 17.5,361 17.5,357 L17.5,353 C17.5,345 25.5,337 33.5,337 C37.5,341 40.5,341 44.5,341" fill="#F1F1F1" style="stroke:#181818;stroke-width:0.5;"/><text fill="#000000" font-family="sans-serif" font-size="11" lengthAdjust="spacing" textLength="77" x="6" y="376.9189">&#12456;&#12531;&#12489;&#12518;&#12540;&#12470;&#12540;</text></g><!--entity supabase--><g class="entity" data-entity="supabase" data-source-line="22" data-uid="ent0003" id="entity_supabase"><ellipse cx="599.6177" cy="155.8359" fill="#F1F1F1" rx="16" ry="16" style="stroke:#181818;stroke-width:0.5;"/><path d="M599.6177,175.8359 C603.6177,175.8359 606.6177,175.8359 610.6177,171.8359 C618.6177,171.8359 626.6177,179.8359 626.6177,187.8359 L626.6177,191.8359 C626.6177,195.8359 622.6177,199.8359 618.6177,199.8359 L580.6177,199.8359 C576.6177,199.8359 572.6177,195.8359 572.6177,191.8359 L572.6177,187.8359 C572.6177,179.8359 580.6177,171.8359 588.6177,171.8359 C592.6177,175.8359 595.6177,175.8359 599.6177,175.8359" fill="#F1F1F1" style="stroke:#181818;stroke-width:0.5;"/><text fill="#000000" font-family="sans-serif" font-size="11" lengthAdjust="spacing" textLength="49.543" x="574.8462" y="211.7549">Supabase</text><text fill="#000000" font-family="sans-serif" font-size="11" font-style="italic" lengthAdjust="spacing" textLength="78.2354" x="560.5" y="136.9189">&#171;&#22806;&#37096;&#12471;&#12473;&#12486;&#12512;&#187;</text></g><g class="entity" data-entity="GMN21" data-source-line="54" data-uid="ent0022" id="entity_GMN21"><path d="M528.5,48 L528.5,85.6719 L670.5483,85.6719 L670.5483,58 L660.5483,48 L528.5,48" fill="#FEFFDD" style="stroke:#181818;stroke-width:0.5;"/><path d="M660.5483,48 L660.5483,58 L670.5483,58 L660.5483,48" fill="#FEFFDD" style="stroke:#181818;stroke-width:1;"/><text fill="#000000" font-family="sans-serif" font-size="11" lengthAdjust="spacing" textLength="47.0562" x="534.5" y="64.4189">&#35469;&#35388;&#26041;&#24335;:</text><text fill="#000000" font-family="sans-serif" font-size="11" lengthAdjust="spacing" textLength="121.0483" x="534.5" y="78.2549">- OAuth (GitHub/Google)</text></g><g class="entity" data-entity="GMN24" data-source-line="59" data-uid="ent0025" id="entity_GMN24"><path d="M511,277 L511,292 L343.11,296 L511,300 L511,314.6719 A0,0 0 0 0 511,314.6719 L687.5361,314.6719 A0,0 0 0 0 687.5361,314.6719 L687.5361,287 L677.5361,277 L511,277 A0,0 0 0 0 511,277" fill="#FEFFDD" style="stroke:#181818;stroke-width:0.5;"/><path d="M677.5361,277 L677.5361,287 L687.5361,287 L677.5361,277" fill="#FEFFDD" style="stroke:#181818;stroke-width:0.5;"/><text fill="#000000" font-family="sans-serif" font-size="11" lengthAdjust="spacing" textLength="155.5361" x="517" y="293.4189">&#12503;&#12525;&#12472;&#12455;&#12463;&#12488; = &#22259;&#34920;&#12398;&#12464;&#12523;&#12540;&#12503;</text><text fill="#000000" font-family="sans-serif" font-size="11" lengthAdjust="spacing" textLength="110" x="517" y="307.2549">&#20316;&#25104;&#26178;&#12399;&#21517;&#21069;&#12398;&#12415;&#35373;&#23450;</text></g><!--link user to UC_LOGIN--><g class="link" data-entity-1="user" data-entity-2="UC_LOGIN" data-source-line="41" data-uid="lnk13" id="link_user_UC_LOGIN"><path d="M49.23,304.4 C55.8,258.72 73.74,182.5 122,140 C141.85,122.52 163.6593,115.0891 188.7093,111.2491" fill="none" id="user-to-UC_LOGIN" style="stroke:#181818;stroke-width:1;"/><polygon fill="#181818" points="194.64,110.34,185.1378,107.7499,189.6977,111.0976,186.35,115.6575,194.64,110.34" style="stroke:#181818;stroke-width:1;"/></g><!--link user to UC_LOGOUT--><g class="link" data-entity-1="user" data-entity-2="UC_LOGOUT" data-source-line="42" data-uid="lnk14" id="link_user_UC_LOGOUT"><path d="M77.2,304.17 C90.33,289.57 106.16,273.23 122,260 C156.27,231.36 195.4108,207.4897 223.3608,191.6397" fill="none" id="user-to-UC_LOGOUT" style="stroke:#181818;stroke-width:1;"/><polygon fill="#181818" points="228.58,188.68,218.7781,189.6401,224.2307,191.1464,222.7244,196.5991,228.58,188.68" style="stroke:#181818;stroke-width:1;"/></g><!--link user to UC_PRJ_CREATE--><g class="link" data-entity-1="user" data-entity-2="UC_PRJ_CREATE" data-source-line="43" data-uid="lnk15" id="link_user_UC_PRJ_CREATE"><path d="M83.34,333.56 C93.01,331.41 103.39,329.11 113,327 C139.33,321.21 162.5568,316.144 187.5468,310.714" fill="none" id="user-to-UC_PRJ_CREATE" style="stroke:#181818;stroke-width:1;"/><polygon fill="#181818" points="193.41,309.44,183.7659,307.4422,188.524,310.5017,185.4646,315.2598,193.41,309.44" style="stroke:#181818;stroke-width:1;"/></g><!--link user to UC_PRJ_SELECT--><g class="link" data-entity-1="user" data-entity-2="UC_PRJ_SELECT" data-source-line="44" data-uid="lnk16" id="link_user_UC_PRJ_SELECT"><path d="M83.04,347.01 C110.41,350.66 142.4427,354.9264 175.7927,359.3764" fill="none" id="user-to-UC_PRJ_SELECT" style="stroke:#181818;stroke-width:1;"/><polygon fill="#181818" points="181.74,360.17,173.3481,355.0148,176.7839,359.5087,172.29,362.9445,181.74,360.17" style="stroke:#181818;stroke-width:1;"/></g><!--link user to UC_PRJ_DELETE--><g class="link" data-entity-1="user" data-entity-2="UC_PRJ_DELETE" data-source-line="45" data-uid="lnk17" id="link_user_UC_PRJ_DELETE"><path d="M56.97,379.64 C68.48,411.19 89.26,455.12 122,481 C138.89,494.35 154.4786,501.359 175.1686,506.819" fill="none" id="user-to-UC_PRJ_DELETE" style="stroke:#181818;stroke-width:1;"/><polygon fill="#181818" points="180.97,508.35,173.2886,502.186,176.1355,507.0742,171.2473,509.9212,180.97,508.35" style="stroke:#181818;stroke-width:1;"/></g><!--link user to UC_PRJ_EDIT--><g class="link" data-entity-1="user" data-entity-2="UC_PRJ_EDIT" data-source-line="46" data-uid="lnk18" id="link_user_UC_PRJ_EDIT"><path d="M83.19,379.62 C94.87,389.67 108.29,399.74 122,407 C142.72,417.98 161.208,424.4696 183.358,430.1496" fill="none" id="user-to-UC_PRJ_EDIT" style="stroke:#181818;stroke-width:1;"/><polygon fill="#181818" points="189.17,431.64,181.4457,425.5298,184.3267,430.398,179.4585,433.2791,189.17,431.64" style="stroke:#181818;stroke-width:1;"/></g><!--link UC_LOGIN to supabase--><g class="link" data-entity-1="UC_LOGIN" data-entity-2="supabase" data-source-line="49" data-uid="lnk19" id="link_UC_LOGIN_supabase"><path d="M306.72,116.95 C374.96,129.36 491.0466,150.4675 553.4666,161.8075" fill="none" id="UC_LOGIN-to-supabase" style="stroke:#181818;stroke-width:1;"/><polygon fill="#181818" points="559.37,162.88,551.2299,157.3357,554.4505,161.9863,549.8,165.2069,559.37,162.88" style="stroke:#181818;stroke-width:1;"/><text fill="#000000" font-family="sans-serif" font-size="11" lengthAdjust="spacing" textLength="53.1846" x="413.4519" y="119.4189">OAuth&#35469;&#35388;</text><text fill="#000000" font-family="sans-serif" font-size="11" lengthAdjust="spacing" textLength="80.0884" x="400" y="133.2549">(GitHub/Google)</text></g><!--link UC_LOGOUT to supabase--><g class="link" data-entity-1="UC_LOGOUT" data-entity-2="supabase" data-source-line="50" data-uid="lnk20" id="link_UC_LOGOUT_supabase"><path d="M323.04,176.37 C367.59,177.61 427.86,178.58 481,177 C507.15,176.22 530.5338,174.8762 553.3738,173.3262" fill="none" id="UC_LOGOUT-to-supabase" style="stroke:#181818;stroke-width:1;"/><polygon fill="#181818" points="559.36,172.92,550.1098,169.5385,554.3715,173.2585,550.6515,177.5202,559.36,172.92" style="stroke:#181818;stroke-width:1;"/><text fill="#000000" font-family="sans-serif" font-size="11" lengthAdjust="spacing" textLength="77" x="401.5" y="174.4189">&#12475;&#12483;&#12471;&#12519;&#12531;&#32066;&#20102;</text></g><!--link UC_LOGIN to GMN21--><g class="link" data-entity-1="UC_LOGIN" data-entity-2="GMN21" data-source-line="54" data-uid="lnk23" id="link_UC_LOGIN_GMN21"><path d="M310.88,100.53 C337.36,96.9 369.85,92.56 399,89 C441.89,83.76 490.04,78.43 528.28,74.33" fill="none" id="UC_LOGIN-GMN21" style="stroke:#181818;stroke-width:1;stroke-dasharray:7.0,7.0;"/></g><!--SRC=[dLHjJzDG5FxUNt4oFanZDhEXHibOWgD330fXyCs4bAsCXj5BkZP43OcxDra6YX8J8OWnWaIcXfS45H0CF-RIlVmBxssxhRJbWzubQthkESzvpdEVst3lFoyX38slX_KV1-R6OG_4eerloutg6To0U9IIDKfsAJwcU8VYVKegzRtD-afP2Fz7cu8yfOEEG5Foqpha54tEwWfI1Q4uewXpaYRDWfJLaPRHdnPaaERb8fgLNPjpKdP6oilsDY-Mr7p1dP2JfoIZeAUHgcUKPpB4OeA_79uBmDPzzfRNaA7cKgY0j4J2dZgPX2xnRlgsU2yuoo-8LT6TZgVxXGLtEwCePwNY5UsWAzt7V_OUqdAoviJlM8j3XICHe7YBTy7db9n1929O-a28uYebXvGiKlA5xL3yY_s7G2hohbehAsFCIPECWhLHT5uWaJ2tLvkaIl4HnIUKb2dvb4ossdLYvXQfltl5cxQbXj18GLBryKT3aD6Dd892R3fhX9QseLWKR253u9BKre2lbYgXM2G6bf8756_pOKhh5B-qg8wd9eQ61mOV1nN5sqLC63PxnLStF3vc5IvucCMZS9MRETV0WmtW7RTuUtCfVdlnvqEjidAPpiZemudKgDWt9WO1nOE1cgNZsj97Fr16719JOq50tS50zQDgSwFi1nBx1mDXRWN3c8jBpVLjFqm_u-CCjj3owyNngTkopTMjvelFt4FSb-oPx1ok9yAFpHroIUSDEq9ummuVRzYQrYBdzts7NukMLTc-Apqmt6VeqxQFdwZN1XJzWJ5vSm0XTXkk2stctYgAJoaXl1FPOTwk_yGNlylE5IEl-Oqb5TvLHRhiV0xHbDltTiVQwebvzgQ7lKTi8k1b8Aivu2227-gIz_m72xt0FlUDpIejxV7xHBvRjDPOiktasZgcfNrpPTbSNEOvfVD6TTVSUz_f-HS0]--></g></svg>