<svg xmlns="http://www.w3.org/2000/svg" xmlns:xlink="http://www.w3.org/1999/xlink" contentStyleType="text/css" data-diagram-type="DESCRIPTION" height="933px" preserveAspectRatio="none" style="width:911px;height:933px;background:#FFFFFF;" version="1.1" viewBox="0 0 911 933" width="911px" zoomAndPan="magnify"><defs/><g><!--cluster PlantUML Studio--><g class="cluster" data-entity="PlantUML Studio" data-source-line="35" data-uid="ent0003" id="cluster_PlantUML Studio"><rect fill="#FFF3E0" height="839" rx="2.5" ry="2.5" style="stroke:#181818;stroke-width:1;" width="550" x="123" y="41.19"/><text fill="#000000" font-family="sans-serif" font-size="10" font-weight="bold" lengthAdjust="spacing" textLength="79.9902" x="358.0049" y="53.5709">PlantUML Studio</text></g><!--cluster 3. ?????PlantUML?Excalidraw?--><g class="cluster" data-entity="3. &#22259;&#34920;&#25805;&#20316;&#65288;PlantUML&#12539;Excalidraw&#65289;" data-source-line="37" data-uid="ent0004" id="cluster_3. &#22259;&#34920;&#25805;&#20316;&#65288;PlantUML&#12539;Excalidraw&#65289;"><rect fill="#FFF3E0" height="776" rx="2.5" ry="2.5" style="stroke:#181818;stroke-width:1;" width="502" x="147" y="80.19"/><text fill="#000000" font-family="sans-serif" font-size="10" font-weight="bold" lengthAdjust="spacing" textLength="181.665" x="307.1675" y="92.5709">3. &#22259;&#34920;&#25805;&#20316;&#65288;PlantUML&#12539;Excalidraw&#65289;</text></g><!--cluster 3-A. ????????--><g class="cluster" data-entity="3-A. &#22522;&#26412;&#25805;&#20316;&#65288;&#20849;&#36890;&#65289;" data-source-line="42" data-uid="ent0005" id="cluster_3-A. &#22522;&#26412;&#25805;&#20316;&#65288;&#20849;&#36890;&#65289;"><rect fill="#E3F2FD" height="150" rx="2.5" ry="2.5" style="stroke:#181818;stroke-width:1;" width="426" x="193" y="368.19"/><text fill="#000000" font-family="sans-serif" font-size="10" font-style="italic" lengthAdjust="spacing" textLength="51.123" x="380.4385" y="380.5709">&#171;&#22522;&#26412;&#25805;&#20316;&#187;</text><text fill="#000000" font-family="sans-serif" font-size="10" font-weight="bold" lengthAdjust="spacing" textLength="104.1699" x="353.915" y="393.149">3-A. &#22522;&#26412;&#25805;&#20316;&#65288;&#20849;&#36890;&#65289;</text></g><!--cluster 3-B. ?????????--><g class="cluster" data-entity="3-B. &#20986;&#21147;&#12539;&#31649;&#29702;&#65288;&#20849;&#36890;&#65289;" data-source-line="51" data-uid="ent0009" id="cluster_3-B. &#20986;&#21147;&#12539;&#31649;&#29702;&#65288;&#20849;&#36890;&#65289;"><rect fill="#E8F5E9" height="290" rx="2.5" ry="2.5" style="stroke:#181818;stroke-width:1;" width="450" x="173" y="542.19"/><text fill="#000000" font-family="sans-serif" font-size="10" font-style="italic" lengthAdjust="spacing" textLength="51.123" x="372.4385" y="554.5709">&#171;&#20986;&#21147;&#25805;&#20316;&#187;</text><text fill="#000000" font-family="sans-serif" font-size="10" font-weight="bold" lengthAdjust="spacing" textLength="114.4824" x="340.7588" y="567.149">3-B. &#20986;&#21147;&#12539;&#31649;&#29702;&#65288;&#20849;&#36890;&#65289;</text></g><!--cluster 3-C. PlantUML??--><g class="cluster" data-entity="3-C. PlantUML&#23554;&#29992;" data-source-line="62" data-uid="ent0015" id="cluster_3-C. PlantUML&#23554;&#29992;"><rect fill="#FCE4EC" height="92" rx="2.5" ry="2.5" style="stroke:#181818;stroke-width:1;" width="168" x="446.5" y="252.19"/><text fill="#000000" font-family="sans-serif" font-size="10" font-style="italic" lengthAdjust="spacing" textLength="75.0293" x="492.9854" y="264.5709">&#171;PlantUML&#23554;&#29992;&#187;</text><text fill="#000000" font-family="sans-serif" font-size="10" font-weight="bold" lengthAdjust="spacing" textLength="88.4033" x="486.2983" y="277.149">3-C. PlantUML&#23554;&#29992;</text></g><!--cluster 3-D. ????--><g class="cluster" data-entity="3-D. &#23398;&#32722;&#25903;&#25588;" data-source-line="69" data-uid="ent0017" id="cluster_3-D. &#23398;&#32722;&#25903;&#25588;"><rect fill="#F3E5F5" height="109" rx="2.5" ry="2.5" style="stroke:#181818;stroke-width:1;" width="454" x="171" y="119.19"/><text fill="#000000" font-family="sans-serif" font-size="10" font-style="italic" lengthAdjust="spacing" textLength="51.123" x="372.4385" y="131.5709">&#171;&#23398;&#32722;&#25903;&#25588;&#187;</text><text fill="#000000" font-family="sans-serif" font-size="10" font-weight="bold" lengthAdjust="spacing" textLength="62.9199" x="366.54" y="144.149">3-D. &#23398;&#32722;&#25903;&#25588;</text></g><g class="entity" data-entity="UC_CREATE" data-source-line="43" data-uid="ent0006" id="entity_UC_CREATE"><ellipse cx="265.3748" cy="426.365" fill="#FAFAFA" rx="56.3748" ry="13.675" style="stroke:#666666;stroke-width:0.5;"/><text fill="#000000" font-family="sans-serif" font-size="9" lengthAdjust="spacing" textLength="78.5083" x="226.1207" y="428.0476">3-1 &#22259;&#34920;&#12434;&#20316;&#25104;&#12377;&#12427;</text></g><g class="entity" data-entity="UC_TEMPLATE" data-source-line="44" data-uid="ent0007" id="entity_UC_TEMPLATE"><ellipse cx="530.2966" cy="447.0493" fill="#FAFAFA" rx="72.2966" ry="16.8593" style="stroke:#666666;stroke-width:0.5;"/><text fill="#000000" font-family="sans-serif" font-size="9" lengthAdjust="spacing" textLength="114.5083" x="473.0425" y="448.7319">3-2 &#12486;&#12531;&#12503;&#12524;&#12540;&#12488;&#12434;&#36984;&#25246;&#12377;&#12427;</text></g><g class="entity" data-entity="UC_EDIT" data-source-line="45" data-uid="ent0008" id="entity_UC_EDIT"><ellipse cx="265.3748" cy="488.365" fill="#FAFAFA" rx="56.3748" ry="13.675" style="stroke:#666666;stroke-width:0.5;"/><text fill="#000000" font-family="sans-serif" font-size="9" lengthAdjust="spacing" textLength="78.5083" x="226.1207" y="490.0476">3-3 &#22259;&#34920;&#12434;&#32232;&#38598;&#12377;&#12427;</text></g><g class="entity" data-entity="UC_SAVE" data-source-line="52" data-uid="ent0010" id="entity_UC_SAVE"><ellipse cx="265.3748" cy="662.365" fill="#FAFAFA" rx="56.3748" ry="13.675" style="stroke:#666666;stroke-width:0.5;"/><text fill="#000000" font-family="sans-serif" font-size="9" lengthAdjust="spacing" textLength="78.5083" x="226.1207" y="664.0476">3-5 &#22259;&#34920;&#12434;&#20445;&#23384;&#12377;&#12427;</text></g><g class="entity" data-entity="UC_EXPORT" data-source-line="53" data-uid="ent0011" id="entity_UC_EXPORT"><ellipse cx="265.2966" cy="728.0493" fill="#FAFAFA" rx="72.2966" ry="16.8593" style="stroke:#666666;stroke-width:0.5;"/><text fill="#000000" font-family="sans-serif" font-size="9" lengthAdjust="spacing" textLength="114.5083" x="208.0425" y="729.7319">3-6 &#22259;&#34920;&#12434;&#12456;&#12463;&#12473;&#12509;&#12540;&#12488;&#12377;&#12427;</text></g><g class="entity" data-entity="UC_HISTORY" data-source-line="54" data-uid="ent0012" id="entity_UC_HISTORY"><ellipse cx="530.4272" cy="604.3754" fill="#FAFAFA" rx="76.4272" ry="17.6854" style="stroke:#666666;stroke-width:0.5;"/><text fill="#000000" font-family="sans-serif" font-size="9" lengthAdjust="spacing" textLength="123.5083" x="468.6731" y="606.0581">3-7 &#12496;&#12540;&#12472;&#12519;&#12531;&#23653;&#27508;&#12434;&#30906;&#35469;&#12377;&#12427;</text></g><g class="entity" data-entity="UC_RESTORE" data-source-line="55" data-uid="ent0013" id="entity_UC_RESTORE"><ellipse cx="265.4272" cy="798.3754" fill="#FAFAFA" rx="76.4272" ry="17.6854" style="stroke:#666666;stroke-width:0.5;"/><text fill="#000000" font-family="sans-serif" font-size="9" lengthAdjust="spacing" textLength="123.5083" x="203.6731" y="800.0581">3-8 &#36942;&#21435;&#12496;&#12540;&#12472;&#12519;&#12531;&#12434;&#24489;&#20803;&#12377;&#12427;</text></g><g class="entity" data-entity="UC_DELETE" data-source-line="56" data-uid="ent0014" id="entity_UC_DELETE"><ellipse cx="265.3748" cy="600.365" fill="#FAFAFA" rx="56.3748" ry="13.675" style="stroke:#666666;stroke-width:0.5;"/><text fill="#000000" font-family="sans-serif" font-size="9" lengthAdjust="spacing" textLength="78.5083" x="226.1207" y="602.0476">3-9 &#22259;&#34920;&#12434;&#21066;&#38500;&#12377;&#12427;</text></g><g class="entity" data-entity="UC_PREVIEW" data-source-line="63" data-uid="ent0016" id="entity_UC_PREVIEW"><ellipse cx="530.7149" cy="312.233" fill="#FAFAFA" rx="68.2149" ry="16.043" style="stroke:#666666;stroke-width:0.5;"/><text fill="#000000" font-family="sans-serif" font-size="9" lengthAdjust="spacing" textLength="105.5083" x="477.9608" y="313.9156">3-4 &#22259;&#34920;&#12434;&#12503;&#12524;&#12499;&#12517;&#12540;&#12377;&#12427;</text></g><g class="entity" data-entity="UC_LEARN_SEARCH" data-source-line="70" data-uid="ent0018" id="entity_UC_LEARN_SEARCH"><ellipse cx="530.7427" cy="181.3385" fill="#FAFAFA" rx="78.7427" ry="18.1485" style="stroke:#666666;stroke-width:0.5;"/><text fill="#000000" font-family="sans-serif" font-size="9" lengthAdjust="spacing" textLength="128.5137" x="466.4859" y="183.0212">3-10 &#23398;&#32722;&#12467;&#12531;&#12486;&#12531;&#12484;&#12434;&#26908;&#32034;&#12377;&#12427;</text></g><g class="entity" data-entity="UC_LEARN_VIEW" data-source-line="71" data-uid="ent0019" id="entity_UC_LEARN_VIEW"><ellipse cx="265.7427" cy="194.3385" fill="#FAFAFA" rx="78.7427" ry="18.1485" style="stroke:#666666;stroke-width:0.5;"/><text fill="#000000" font-family="sans-serif" font-size="9" lengthAdjust="spacing" textLength="128.5137" x="201.4859" y="196.0212">3-11 &#23398;&#32722;&#12467;&#12531;&#12486;&#12531;&#12484;&#12434;&#30906;&#35469;&#12377;&#12427;</text></g><!--entity user--><g class="entity" data-entity="user" data-source-line="32" data-uid="ent0002" id="entity_user"><ellipse cx="41" cy="431.69" fill="#F1F1F1" rx="16" ry="16" style="stroke:#181818;stroke-width:0.5;"/><path d="M41,451.69 C45,451.69 48,451.69 52,447.69 C60,447.69 68,455.69 68,463.69 L68,467.69 C68,471.69 64,475.69 60,475.69 L22,475.69 C18,475.69 14,471.69 14,467.69 L14,463.69 C14,455.69 22,447.69 30,447.69 C34,451.69 37,451.69 41,451.69" fill="#F1F1F1" style="stroke:#181818;stroke-width:0.5;"/><text fill="#000000" font-family="sans-serif" font-size="10" lengthAdjust="spacing" textLength="70" x="6" y="486.5709">&#12456;&#12531;&#12489;&#12518;&#12540;&#12470;&#12540;</text></g><!--entity openrouter--><g class="entity" data-entity="openrouter" data-source-line="77" data-uid="ent0020" id="entity_openrouter"><ellipse cx="843.187" cy="343.2681" fill="#F1F1F1" rx="16" ry="16" style="stroke:#181818;stroke-width:0.5;"/><path d="M843.187,363.2681 C847.187,363.2681 850.187,363.2681 854.187,359.2681 C862.187,359.2681 870.187,367.2681 870.187,375.2681 L870.187,379.2681 C870.187,383.2681 866.187,387.2681 862.187,387.2681 L824.187,387.2681 C820.187,387.2681 816.187,383.2681 816.187,379.2681 L816.187,375.2681 C816.187,367.2681 824.187,359.2681 832.187,359.2681 C836.187,363.2681 839.187,363.2681 843.187,363.2681" fill="#F1F1F1" style="stroke:#181818;stroke-width:0.5;"/><text fill="#000000" font-family="sans-serif" font-size="10" lengthAdjust="spacing" textLength="73.374" x="806.5" y="398.149">OpenRouter API</text><text fill="#000000" font-family="sans-serif" font-size="10" font-style="italic" lengthAdjust="spacing" textLength="71.123" x="807.6255" y="324.5709">&#171;&#22806;&#37096;&#12471;&#12473;&#12486;&#12512;&#187;</text></g><g class="entity" data-entity="GMN39" data-source-line="111" data-uid="ent0040" id="entity_GMN39"><path d="M782,435.19 L782,445.61 L603.12,447.88 L782,453.61 L782,465.315 A0,0 0 0 0 782,465.315 L904.3477,465.315 A0,0 0 0 0 904.3477,465.315 L904.3477,445.19 L894.3477,435.19 L782,435.19 A0,0 0 0 0 782,435.19" fill="#FFFDE7" style="stroke:#FBC02D;stroke-width:0.5;"/><path d="M894.3477,435.19 L894.3477,445.19 L904.3477,445.19 L894.3477,435.19" fill="#FFFDE7" style="stroke:#FBC02D;stroke-width:0.5;"/><text fill="#000000" font-family="sans-serif" font-size="8" lengthAdjust="spacing" textLength="101.3477" x="788" y="448.4947">PlantUML/&#12527;&#12452;&#12516;&#12540;&#12501;&#12524;&#12540;&#12512;</text><text fill="#000000" font-family="sans-serif" font-size="8" lengthAdjust="spacing" textLength="40" x="788" y="458.5572">&#20001;&#26041;&#12395;&#36969;&#29992;</text></g><g class="entity" data-entity="GMN42" data-source-line="116" data-uid="ent0043" id="entity_GMN42"><path d="M792.5,239.19 L792.5,263.64 L585.94,302.9 L792.5,271.64 L792.5,279.3775 A0,0 0 0 0 792.5,279.3775 L893.0586,279.3775 A0,0 0 0 0 893.0586,279.3775 L893.0586,249.19 L883.0586,239.19 L792.5,239.19 A0,0 0 0 0 792.5,239.19" fill="#FFFDE7" style="stroke:#FBC02D;stroke-width:0.5;"/><path d="M883.0586,239.19 L883.0586,249.19 L893.0586,249.19 L883.0586,239.19" fill="#FFFDE7" style="stroke:#FBC02D;stroke-width:0.5;"/><text fill="#000000" font-family="sans-serif" font-size="8" lengthAdjust="spacing" textLength="51.125" x="798.5" y="252.4947">PlantUML&#23554;&#29992;</text><text fill="#000000" font-family="sans-serif" font-size="8" lengthAdjust="spacing" textLength="48" x="798.5" y="262.5572">&#27083;&#25991;&#33258;&#21205;&#26908;&#35388;</text><text fill="#000000" font-family="sans-serif" font-size="8" lengthAdjust="spacing" textLength="79.5586" x="798.5" y="272.6197">&#12456;&#12521;&#12540;&#26178;&#12399;AI&#20462;&#27491;&#25552;&#26696;</text></g><g class="entity" data-entity="GMN45" data-source-line="122" data-uid="ent0046" id="entity_GMN45"><path d="M786.5,584.19 L786.5,600.19 L607.06,604.19 L786.5,608.19 L786.5,624.3775 A0,0 0 0 0 786.5,624.3775 L899.5273,624.3775 A0,0 0 0 0 899.5273,624.3775 L899.5273,594.19 L889.5273,584.19 L786.5,584.19 A0,0 0 0 0 786.5,584.19" fill="#FFFDE7" style="stroke:#FBC02D;stroke-width:0.5;"/><path d="M889.5273,584.19 L889.5273,594.19 L899.5273,594.19 L889.5273,584.19" fill="#FFFDE7" style="stroke:#FBC02D;stroke-width:0.5;"/><text fill="#000000" font-family="sans-serif" font-size="8" lengthAdjust="spacing" textLength="92.0273" x="792.5" y="597.4947">PlantUML/Excalidraw&#20849;&#36890;</text><text fill="#000000" font-family="sans-serif" font-size="8" lengthAdjust="spacing" textLength="72.4609" x="792.5" y="607.5572">SHA-256&#12495;&#12483;&#12471;&#12517;&#12391;</text><text fill="#000000" font-family="sans-serif" font-size="8" lengthAdjust="spacing" textLength="56" x="792.5" y="617.6197">&#12496;&#12540;&#12472;&#12519;&#12531;&#31649;&#29702;</text></g><g class="entity" data-entity="GMN48" data-source-line="128" data-uid="ent0049" id="entity_GMN48"><path d="M789,154.19 L789,171.39 L608.65,179.45 L789,179.39 L789,194.3775 A0,0 0 0 0 789,194.3775 L896.6836,194.3775 A0,0 0 0 0 896.6836,194.3775 L896.6836,164.19 L886.6836,154.19 L789,154.19 A0,0 0 0 0 789,154.19" fill="#FFFDE7" style="stroke:#FBC02D;stroke-width:0.5;"/><path d="M886.6836,154.19 L886.6836,164.19 L896.6836,164.19 L886.6836,154.19" fill="#FFFDE7" style="stroke:#FBC02D;stroke-width:0.5;"/><text fill="#000000" font-family="sans-serif" font-size="8" lengthAdjust="spacing" textLength="33.3359" x="795" y="167.4947">RAG&#26908;&#32034;</text><text fill="#000000" font-family="sans-serif" font-size="8" lengthAdjust="spacing" textLength="72" x="795" y="177.5572">&#32232;&#38598;&#20013;&#12398;&#12504;&#12523;&#12503;&#27231;&#33021;</text><text fill="#000000" font-family="sans-serif" font-size="8" lengthAdjust="spacing" textLength="86.6836" x="795" y="187.6197">pgvector&#12391;&#12505;&#12463;&#12488;&#12523;&#26908;&#32034;</text></g><g class="entity" data-entity="GMN51" data-source-line="134" data-uid="ent0052" id="entity_GMN51"><path d="M468,896.19 L468,926.315 L593,926.315 L593,906.19 L583,896.19 L468,896.19" fill="#FFFDE7" style="stroke:#FBC02D;stroke-width:0.5;"/><path d="M583,896.19 L583,906.19 L593,906.19 L583,896.19" fill="#FFFDE7" style="stroke:#FBC02D;stroke-width:1;"/><text fill="#000000" font-family="sans-serif" font-size="8" lengthAdjust="spacing" textLength="74.8945" x="474" y="909.4947">&#25163;&#21205;&#20445;&#23384;&#12398;&#12415;: Ctrl+S</text><text fill="#000000" font-family="sans-serif" font-size="8" lengthAdjust="spacing" textLength="104" x="474" y="919.5572">&#20445;&#23384;&#26178;&#12395;&#29992;&#35486;&#19968;&#36011;&#24615;&#12481;&#12455;&#12483;&#12463;</text></g><!--link user to UC_CREATE--><g class="link" data-entity-1="user" data-entity-2="UC_CREATE" data-source-line="80" data-uid="lnk21" id="link_user_UC_CREATE"><path d="M76.28,448.18 C113.21,443.87 166.3905,437.656 208.5205,432.736" fill="none" id="user-to-UC_CREATE" style="stroke:#181818;stroke-width:1;"/><polygon fill="#181818" points="214.48,432.04,205.0768,429.1109,209.5137,432.62,206.0047,437.0569,214.48,432.04" style="stroke:#181818;stroke-width:1;"/></g><!--link user to UC_EDIT--><g class="link" data-entity-1="user" data-entity-2="UC_EDIT" data-source-line="81" data-uid="lnk22" id="link_user_UC_EDIT"><path d="M76.28,457.74 C114.31,463.89 169.9672,472.8909 212.2672,479.7409" fill="none" id="user-to-UC_EDIT" style="stroke:#181818;stroke-width:1;"/><polygon fill="#181818" points="218.19,480.7,209.9452,475.3127,213.2543,479.9007,208.6663,483.2099,218.19,480.7" style="stroke:#181818;stroke-width:1;"/></g><!--link user to UC_SAVE--><g class="link" data-entity-1="user" data-entity-2="UC_SAVE" data-source-line="84" data-uid="lnk23" id="link_user_UC_SAVE"><path d="M46.78,489.42 C54.09,530.48 72.05,595.45 115,631.19 C140.98,652.81 172.1775,660.1215 202.9675,662.4815" fill="none" id="user-to-UC_SAVE" style="stroke:#181818;stroke-width:1;"/><polygon fill="#181818" points="208.95,662.94,200.282,658.2639,203.9646,662.5579,199.6706,666.2405,208.95,662.94" style="stroke:#181818;stroke-width:1;"/></g><!--link user to UC_EXPORT--><g class="link" data-entity-1="user" data-entity-2="UC_EXPORT" data-source-line="85" data-uid="lnk24" id="link_user_UC_EXPORT"><path d="M42.33,489.51 C44.9,542.62 57.76,639.51 115,693.19 C135.9,712.79 159.6794,721.1901 187.1194,725.4001" fill="none" id="user-to-UC_EXPORT" style="stroke:#181818;stroke-width:1;"/><polygon fill="#181818" points="193.05,726.31,184.7607,720.9914,188.1078,725.5517,183.5475,728.8989,193.05,726.31" style="stroke:#181818;stroke-width:1;"/></g><!--link user to UC_HISTORY--><g class="link" data-entity-1="user" data-entity-2="UC_HISTORY" data-source-line="86" data-uid="lnk25" id="link_user_UC_HISTORY"><path d="M44.47,414.86 C51.35,318.12 72.56,67.09 107,71.19 C250.01,88.2 330.41,36.05 422,147.19 C448.24,179.03 421.33,480.67 438.5,518.19 C452.15,548.04 476.4401,569.1656 498.1001,584.2856" fill="none" id="user-to-UC_HISTORY" style="stroke:#181818;stroke-width:1;"/><polygon fill="#181818" points="503.02,587.72,497.9298,579.2885,498.9201,584.858,493.3506,585.8484,503.02,587.72" style="stroke:#181818;stroke-width:1;"/></g><!--link user to UC_RESTORE--><g class="link" data-entity-1="user" data-entity-2="UC_RESTORE" data-source-line="87" data-uid="lnk26" id="link_user_UC_RESTORE"><path d="M45.88,489.25 C54.35,562.88 76.83,723.83 115,762.19 C134.49,781.78 156.7449,790.4042 183.3849,794.9342" fill="none" id="user-to-UC_RESTORE" style="stroke:#181818;stroke-width:1;"/><polygon fill="#181818" points="189.3,795.94,181.0979,790.4879,184.3708,795.1018,179.7568,798.3746,189.3,795.94" style="stroke:#181818;stroke-width:1;"/></g><!--link user to UC_DELETE--><g class="link" data-entity-1="user" data-entity-2="UC_DELETE" data-source-line="88" data-uid="lnk27" id="link_user_UC_DELETE"><path d="M76.24,486.16 C88.03,497.02 101.64,508.68 115,518.19 C155.76,547.19 202.4429,571.0603 233.1429,585.6803" fill="none" id="user-to-UC_DELETE" style="stroke:#181818;stroke-width:1;"/><polygon fill="#181818" points="238.56,588.26,232.1542,580.779,234.0458,586.1102,228.7145,588.0018,238.56,588.26" style="stroke:#181818;stroke-width:1;"/></g><!--link user to UC_PREVIEW--><g class="link" data-entity-1="user" data-entity-2="UC_PREVIEW" data-source-line="91" data-uid="lnk28" id="link_user_UC_PREVIEW"><path d="M42.93,415.05 C45.86,332.41 57.83,137.45 106,97.19 C215.1,6 319.29,48.86 422,147.19 C448.54,172.6 420.46,196.18 438.5,228.19 C454.97,257.41 480.2634,278.7426 501.3334,293.6626" fill="none" id="user-to-UC_PREVIEW" style="stroke:#181818;stroke-width:1;"/><polygon fill="#181818" points="506.23,297.13,501.1966,288.6645,502.1495,294.2405,496.5734,295.1933,506.23,297.13" style="stroke:#181818;stroke-width:1;"/></g><!--link user to UC_LEARN_SEARCH--><g class="link" data-entity-1="user" data-entity-2="UC_LEARN_SEARCH" data-source-line="94" data-uid="lnk29" id="link_user_UC_LEARN_SEARCH"><path d="M45.61,415.17 C53.45,343.43 74.66,189.74 115,158.19 C227.98,69.83 410.2387,130.4391 488.2687,162.8391" fill="none" id="user-to-UC_LEARN_SEARCH" style="stroke:#181818;stroke-width:1;"/><polygon fill="#181818" points="493.81,165.14,487.032,157.9945,489.1923,163.2226,483.9641,165.3829,493.81,165.14" style="stroke:#181818;stroke-width:1;"/></g><!--link user to UC_LEARN_VIEW--><g class="link" data-entity-1="user" data-entity-2="UC_LEARN_VIEW" data-source-line="95" data-uid="lnk30" id="link_user_UC_LEARN_VIEW"><path d="M74.12,414.95 C122.74,358.57 209.2414,258.2636 245.2314,216.5336" fill="none" id="user-to-UC_LEARN_VIEW" style="stroke:#181818;stroke-width:1;"/><polygon fill="#181818" points="249.15,211.99,240.243,216.193,245.8845,215.7763,246.3011,221.4178,249.15,211.99" style="stroke:#181818;stroke-width:1;"/></g><!--link UC_PREVIEW to openrouter--><g class="link" data-entity-1="UC_PREVIEW" data-entity-2="openrouter" data-source-line="98" data-uid="lnk31" id="link_UC_PREVIEW_openrouter"><path d="M588.81,320.5 C652.42,329.71 747.162,343.4496 800.372,351.1596" fill="none" id="UC_PREVIEW-to-openrouter" style="stroke:#181818;stroke-width:1;"/><polygon fill="#181818" points="806.31,352.02,797.9766,346.7707,801.3617,351.303,796.8294,354.6881,806.31,352.02" style="stroke:#181818;stroke-width:1;"/><text fill="#000000" font-family="sans-serif" font-size="10" lengthAdjust="spacing" textLength="49.4482" x="696" y="320.5709">AI&#33258;&#21205;&#20462;&#27491;</text><text fill="#000000" font-family="sans-serif" font-size="10" lengthAdjust="spacing" textLength="46.6602" x="697.394" y="333.149">(&#12456;&#12521;&#12540;&#26178;)</text></g><!--link UC_SAVE to openrouter--><g class="link" data-entity-1="UC_SAVE" data-entity-2="openrouter" data-source-line="99" data-uid="lnk32" id="link_UC_SAVE_openrouter"><path d="M297.68,673.4 C371.59,697.84 560.28,747.5 681,666.19 C780.05,599.48 716.02,516.73 782,417.19 C788.84,406.88 793.417,401.1223 802.167,392.3323" fill="none" id="UC_SAVE-to-openrouter" style="stroke:#181818;stroke-width:1;"/><polygon fill="#181818" points="806.4,388.08,797.2157,391.6365,802.8725,391.6236,802.8854,397.2804,806.4,388.08" style="stroke:#181818;stroke-width:1;"/><text fill="#000000" font-family="sans-serif" font-size="10" lengthAdjust="spacing" textLength="50" x="505.8301" y="650.5709">&#29992;&#35486;&#19968;&#36011;&#24615;</text><text fill="#000000" font-family="sans-serif" font-size="10" lengthAdjust="spacing" textLength="66.6602" x="497.5" y="663.149">&#12481;&#12455;&#12483;&#12463;(&#33258;&#21205;)</text></g><!--link UC_LEARN_SEARCH to openrouter--><g class="link" data-entity-1="UC_LEARN_SEARCH" data-entity-2="openrouter" data-source-line="100" data-uid="lnk33" id="link_UC_LEARN_SEARCH_openrouter"><path d="M563.22,197.71 C606.35,220.34 685.72,262.58 752,301.19 C770.13,311.75 784.8842,320.8106 801.3042,331.1606" fill="none" id="UC_LEARN_SEARCH-to-openrouter" style="stroke:#181818;stroke-width:1;"/><polygon fill="#181818" points="806.38,334.36,800.8993,326.177,802.1502,331.6938,796.6334,332.9447,806.38,334.36" style="stroke:#181818;stroke-width:1;"/><text fill="#000000" font-family="sans-serif" font-size="10" lengthAdjust="spacing" textLength="61.6699" x="690" y="264.5709">RAG&#24540;&#31572;&#29983;&#25104;</text></g><!--link UC_CREATE to UC_TEMPLATE--><g class="link" data-entity-1="UC_CREATE" data-entity-2="UC_TEMPLATE" data-source-line="103" data-uid="lnk34" id="link_UC_CREATE_UC_TEMPLATE"><path d="M319.41,430.41 C360.36,433.68 411.389,437.7634 455.689,441.2934" fill="none" id="UC_CREATE-to-UC_TEMPLATE" style="stroke:#181818;stroke-width:1;stroke-dasharray:7.0,7.0;"/><polygon fill="#181818" points="461.67,441.77,453.0162,437.0677,456.6858,441.3728,452.3807,445.0425,461.67,441.77" style="stroke:#181818;stroke-width:1;"/><text fill="#000000" font-family="sans-serif" font-size="10" lengthAdjust="spacing" textLength="42.8125" x="377" y="432.5709">&#171;include&#187;</text></g><!--link UC_CREATE to UC_PREVIEW--><g class="link" data-entity-1="UC_CREATE" data-entity-2="UC_PREVIEW" data-source-line="104" data-uid="lnk35" id="link_UC_CREATE_UC_PREVIEW"><path d="M282.67,413.14 C302.92,397.38 339.18,371.02 374,355.19 C407.02,340.18 440.5701,330.6837 471.4501,323.6437" fill="none" id="UC_CREATE-to-UC_PREVIEW" style="stroke:#181818;stroke-width:1;stroke-dasharray:7.0,7.0;"/><polygon fill="#181818" points="477.3,322.31,467.636,320.4105,472.4251,323.4214,469.4143,328.2104,477.3,322.31" style="stroke:#181818;stroke-width:1;"/><text fill="#000000" font-family="sans-serif" font-size="10" lengthAdjust="spacing" textLength="46.1475" x="375" y="335.5709">&#171;extends&#187;</text></g><!--link UC_EDIT to UC_PREVIEW--><g class="link" data-entity-1="UC_EDIT" data-entity-2="UC_PREVIEW" data-source-line="105" data-uid="lnk36" id="link_UC_EDIT_UC_PREVIEW"><path d="M303.43,478.15 C317.07,473.28 332.09,466.43 344,457.19 C361.84,443.35 357.7,431.82 374,416.19 C395.63,395.46 461.7403,353.735 499.8403,330.285" fill="none" id="UC_EDIT-to-UC_PREVIEW" style="stroke:#181818;stroke-width:1;stroke-dasharray:7.0,7.0;"/><polygon fill="#181818" points="504.95,327.14,495.1888,328.451,500.6919,329.7608,499.3821,335.2639,504.95,327.14" style="stroke:#181818;stroke-width:1;"/><text fill="#000000" font-family="sans-serif" font-size="10" lengthAdjust="spacing" textLength="46.1475" x="375" y="378.5709">&#171;extends&#187;</text></g><!--link UC_RESTORE to UC_HISTORY--><g class="link" data-entity-1="UC_RESTORE" data-entity-2="UC_HISTORY" data-source-line="106" data-uid="lnk37" id="link_UC_RESTORE_UC_HISTORY"><path d="M307.04,783.39 C319.55,777.79 332.94,770.68 344,762.19 C395.94,722.33 387.05,689.68 438.5,649.19 C454.01,636.98 467.8922,629.2883 484.7622,621.7483" fill="none" id="UC_RESTORE-to-UC_HISTORY" style="stroke:#181818;stroke-width:1;stroke-dasharray:7.0,7.0;"/><polygon fill="#181818" points="490.24,619.3,480.3912,619.3206,485.6752,621.3402,483.6555,626.6243,490.24,619.3" style="stroke:#181818;stroke-width:1;"/><text fill="#000000" font-family="sans-serif" font-size="10" lengthAdjust="spacing" textLength="42.8125" x="377" y="663.5709">&#171;include&#187;</text></g><!--link UC_LEARN_VIEW to UC_LEARN_SEARCH--><g class="link" data-entity-1="UC_LEARN_VIEW" data-entity-2="UC_LEARN_SEARCH" data-source-line="107" data-uid="lnk38" id="link_UC_LEARN_VIEW_UC_LEARN_SEARCH"><path d="M342.57,190.43 C377.46,188.71 412.7374,186.9673 447.6074,185.2373" fill="none" id="UC_LEARN_VIEW-to-UC_LEARN_SEARCH" style="stroke:#181818;stroke-width:1;stroke-dasharray:7.0,7.0;"/><polygon fill="#181818" points="453.6,184.94,444.4128,181.3909,448.6061,185.1878,444.8093,189.3811,453.6,184.94" style="stroke:#181818;stroke-width:1;"/><text fill="#000000" font-family="sans-serif" font-size="10" lengthAdjust="spacing" textLength="42.8125" x="377" y="184.5709">&#171;include&#187;</text></g><!--link UC_SAVE to GMN51--><g class="link" data-entity-1="UC_SAVE" data-entity-2="GMN51" data-source-line="134" data-uid="lnk53" id="link_UC_SAVE_GMN51"><path d="M303.99,672.15 C317.55,676.99 332.37,683.84 344,693.19 C402.22,739.99 388.88,776.35 438.5,832.19 C460.46,856.9 489.97,881.2 509.36,896.19" fill="none" id="UC_SAVE-GMN51" style="stroke:#181818;stroke-width:1;stroke-dasharray:7.0,7.0;"/></g><!--SRC=[jLTjJzjM5FwUNt55Fz1fWW4f512B589J8j614jfjKgNAIWoBcjh8cBLRLOduhfIN5H1lBOEMGdcdWJBGI86E7tEnatpgNzXziMCRnrdNCYCbuTvpddFlESzvSUMt__dnLOByra7ky9ssSD0C_DNuAx-ygKy_E_-m-F5qk2l5Yygjcnq8dd0FutmgcP3v1nzFHx0QWc-HkehK5QIk8pZS37BPTQI-H-ePWX2fUrWRgJi83Y7r4C5jRNYDwdt64LD2Zm8K2SZ9tfyKa4ZAGbn9IgBFrtylAVRnCdyVy755acFABoa1y0-4Vkc-ODliu-Ft-5w1RHDbNknDsGKIGWy_a5B2agZ4ahyAeBR6jZdGByJvVg6usUHpGuD7Fe2VLlnVhomDY8cGb99aS2KS3lkvcb9xBItQqh6- -9PvEX00LpX_k2xSvY7xz5WRNR39DeRhkQRIicR8j7TgRcQJI8T3t3Kkv86SMS-TJUapU_h48PNrS_NXUjzZdzi3dfSCaZ-s9ya9GJRM6-ZZX18bfPopshZhRfnmQwYcZZcc68H60bjPLGKe__OewKv1LPMF4W5K87KJmGC4Hn34v3n5wb_uimBm_UGoigbwHFYA2GfVQoimD_ix0IZo0rIOdWGnPI2Hb2hmmUafpA1N-Al19-PBKPSydvm3bWRmLmMnCHjbi37joNvXy0-ILP-FRDsbd84AuEBheo84UKoAO9XQmoT8dSAI-l0aIiyZTOmw_rReRYZA1RivB-KwGEE18_USr1SSEOYho5GXdTL7Npc1khcRNHrbeFpMEN97cuM58QSwrnRfBge-_jBWj6BVqHp5WS_jBkScX_wlABajkGBbB1QUWQgt1UhifPPvuNHGB7ZRqxSDbYh9D9A0E95U6l5o-lc7hivejnVGTHplIPgWMGGtSE2r_JKzSqXYjdASttxcn6gFnBexepzwWJM2GdfS6p-v08d1jB-tj2VG2HRb29Zd5PkiAseZeuNvLQTs6zV1sRZtnGGALGDduTQtblBmm-LmnWLEQEBg4vv4kMQBjf6NqmYk4HyxVD8LvMv7kEylpobjcEks_dIPBha0JVF6sGgz2roDeOhK0rggMC7w3Rj7NrtC7QuulTB11QFVtOtXpr2x9sIj9sIfF62G5tpDFessgAtE5U2clSFPccDddo16fG55a46mAq919RmaioNi29To8C1WpxCdzePRc5if3BuXzSVHDqQ8BT9dyNV0LlFjIxJybiSiNKzTuBHEEQ1PnR4lcON3lcRclttDoEgovtBcJOa3cMbG_dOsifN0S936lM7XksF5J110wonKsnRZPX2Cv9zkQsEpvsUxUkRD7V4gdPYsy17rUVKhd-5Njnw-SdxxrNbsCF_dZZwuSKT4C8tK3JRoNsMOLDr-0pTCD7X3ErlCPMPoCqjuH306CcDMm-yG- -n7OMxQSHr6951T7R1F01YlfIKfnbC32G4prILdEe682GyLGKpqCp52mdyLCdXYoXbKSjkq8cEAEbpWb3VkEyuw9haTdOpP6uxKSs6-CIdt3O9xv9qBhbAzMND4UerbphFB-jnxbDuffBTma7pu0dJQzhcHhJhjv39Uq3V6zBcdB8oucEKtJ_6YdHeelHUCCDBe4vFwyd0vGrQ_Bjx0cehPp8BtOkt1ghhw1WGdA8kEI6j9Rn2xpZxEwa0vUnTABIOPAyZuDni1pxCPbDv5y0M2-CtqUR6XzFN-B93QYEqYE4-o5OynSCVGBcFH69BqaJ6QIsoAsaNfisOGKkJKrp4I6RfCVRTp8NtioMEP-GS0]--></g></svg>