<svg xmlns="http://www.w3.org/2000/svg" xmlns:xlink="http://www.w3.org/1999/xlink" contentStyleType="text/css" data-diagram-type="DESCRIPTION" height="585px" preserveAspectRatio="none" style="width:786px;height:585px;background:#FFFFFF;" version="1.1" viewBox="0 0 786 585" width="786px" zoomAndPan="magnify"><defs/><g><!--cluster PlantUML Studio--><g class="cluster" data-entity="PlantUML Studio" data-source-line="30" data-uid="ent0004" id="cluster_PlantUML Studio"><rect fill="none" height="252" rx="2.5" ry="2.5" style="stroke:#181818;stroke-width:1;" width="650.5" x="130" y="7"/><text fill="#000000" font-family="sans-serif" font-size="11" font-weight="bold" lengthAdjust="spacing" textLength="87.9893" x="411.2554" y="20.4189">PlantUML Studio</text></g><!--cluster 4. AI??--><g class="cluster" data-entity="4. AI&#27231;&#33021;" data-source-line="32" data-uid="ent0005" id="cluster_4. AI&#27231;&#33021;"><rect fill="#FCE4EC" height="188" rx="2.5" ry="2.5" style="stroke:#181818;stroke-width:1;" width="221" x="154" y="47"/><text fill="#000000" font-family="sans-serif" font-size="11" font-style="italic" lengthAdjust="spacing" textLength="44.6284" x="242.1858" y="60.4189">&#171;AI&#27231;&#33021;&#187;</text><text fill="#000000" font-family="sans-serif" font-size="11" font-weight="bold" lengthAdjust="spacing" textLength="45.9175" x="241.5413" y="74.2549">4. AI&#27231;&#33021;</text></g><!--cluster 3. ????????--><g class="cluster" data-entity="3. &#22259;&#34920;&#25805;&#20316;&#65288;&#21442;&#29031;&#65289;" data-source-line="37" data-uid="ent0008" id="cluster_3. &#22259;&#34920;&#25805;&#20316;&#65288;&#21442;&#29031;&#65289;"><rect fill="#FFF3E0" height="173" rx="2.5" ry="2.5" style="stroke:#181818;stroke-width:1;" width="221" x="535.5" y="56"/><text fill="#000000" font-family="sans-serif" font-size="11" font-style="italic" lengthAdjust="spacing" textLength="56.2354" x="617.8823" y="69.4189">&#171;&#22259;&#34920;&#25805;&#20316;&#187;</text><text fill="#000000" font-family="sans-serif" font-size="11" font-weight="bold" lengthAdjust="spacing" textLength="102.98" x="594.51" y="83.2549">3. &#22259;&#34920;&#25805;&#20316;&#65288;&#21442;&#29031;&#65289;</text></g><g class="entity" data-entity="UC_AI_QS" data-source-line="33" data-uid="ent0006" id="entity_UC_AI_QS"><ellipse cx="264.3244" cy="116.067" fill="#FAFAFA" rx="92.3244" ry="22.567" style="stroke:#666666;stroke-width:0.5;"/><text fill="#000000" font-family="sans-serif" font-size="11" lengthAdjust="spacing" textLength="114.3237" x="207.1625" y="111.65">4-1 AI Question-Start&#12391;</text><text fill="#000000" font-family="sans-serif" font-size="11" lengthAdjust="spacing" textLength="77" x="225.8244" y="125.4859">&#22259;&#34920;&#12434;&#29983;&#25104;&#12377;&#12427;</text></g><g class="entity" data-entity="UC_AI_CHAT" data-source-line="34" data-uid="ent0007" id="entity_UC_AI_CHAT"><ellipse cx="264.4626" cy="196.067" fill="#FAFAFA" rx="94.4626" ry="22.567" style="stroke:#666666;stroke-width:0.5;"/><text fill="#000000" font-family="sans-serif" font-size="11" lengthAdjust="spacing" textLength="117.3477" x="205.7888" y="191.65">4-2 &#30446;&#30340;&#21029;AI&#12481;&#12515;&#12483;&#12488;&#12434;</text><text fill="#000000" font-family="sans-serif" font-size="11" lengthAdjust="spacing" textLength="44" x="242.4626" y="205.4859">&#21033;&#29992;&#12377;&#12427;</text></g><g class="entity" data-entity="UC_CREATE" data-source-line="38" data-uid="ent0009" id="entity_UC_CREATE"><ellipse cx="646.1093" cy="117.8219" fill="#FAFAFA" rx="67.1093" ry="15.8219" style="stroke:#666666;stroke-width:0.5;"/><text fill="#000000" font-family="sans-serif" font-size="11" lengthAdjust="spacing" textLength="95.9546" x="598.132" y="120.3228">3-1 &#22259;&#34920;&#12434;&#20316;&#25104;&#12377;&#12427;</text></g><g class="entity" data-entity="UC_LEARN_SEARCH" data-source-line="39" data-uid="ent0010" id="entity_UC_LEARN_SEARCH"><ellipse cx="645.839" cy="190.7678" fill="#FAFAFA" rx="94.339" ry="21.2678" style="stroke:#666666;stroke-width:0.5;"/><text fill="#000000" font-family="sans-serif" font-size="11" lengthAdjust="spacing" textLength="157.0723" x="567.3029" y="193.2688">3-10 &#23398;&#32722;&#12467;&#12531;&#12486;&#12531;&#12484;&#12434;&#26908;&#32034;&#12377;&#12427;</text></g><!--entity user--><g class="entity" data-entity="user" data-source-line="26" data-uid="ent0002" id="entity_user"><ellipse cx="44.5" cy="136" fill="#F1F1F1" rx="16" ry="16" style="stroke:#181818;stroke-width:0.5;"/><path d="M44.5,156 C48.5,156 51.5,156 55.5,152 C63.5,152 71.5,160 71.5,168 L71.5,172 C71.5,176 67.5,180 63.5,180 L25.5,180 C21.5,180 17.5,176 17.5,172 L17.5,168 C17.5,160 25.5,152 33.5,152 C37.5,156 40.5,156 44.5,156" fill="#F1F1F1" style="stroke:#181818;stroke-width:0.5;"/><text fill="#000000" font-family="sans-serif" font-size="11" lengthAdjust="spacing" textLength="77" x="6" y="191.9189">&#12456;&#12531;&#12489;&#12518;&#12540;&#12470;&#12540;</text></g><!--entity openrouter--><g class="entity" data-entity="openrouter" data-source-line="27" data-uid="ent0003" id="entity_openrouter"><ellipse cx="645.8557" cy="419.8359" fill="#F1F1F1" rx="16" ry="16" style="stroke:#181818;stroke-width:0.5;"/><path d="M645.8557,439.8359 C649.8557,439.8359 652.8557,439.8359 656.8557,435.8359 C664.8557,435.8359 672.8557,443.8359 672.8557,451.8359 L672.8557,455.8359 C672.8557,459.8359 668.8557,463.8359 664.8557,463.8359 L626.8557,463.8359 C622.8557,463.8359 618.8557,459.8359 618.8557,455.8359 L618.8557,451.8359 C618.8557,443.8359 626.8557,435.8359 634.8557,435.8359 C638.8557,439.8359 641.8557,439.8359 645.8557,439.8359" fill="#F1F1F1" style="stroke:#181818;stroke-width:0.5;"/><text fill="#000000" font-family="sans-serif" font-size="11" lengthAdjust="spacing" textLength="80.7114" x="605.5" y="475.7549">OpenRouter API</text><text fill="#000000" font-family="sans-serif" font-size="11" font-style="italic" lengthAdjust="spacing" textLength="78.2354" x="606.738" y="400.9189">&#171;&#22806;&#37096;&#12471;&#12473;&#12486;&#12512;&#187;</text></g><g class="entity" data-entity="GMN17" data-source-line="57" data-uid="ent0018" id="entity_GMN17"><path d="M563.5,275.5 L563.5,354.6797 L728.123,354.6797 L728.123,285.5 L718.123,275.5 L563.5,275.5" fill="#FFFDE7" style="stroke:#FBC02D;stroke-width:0.5;"/><path d="M718.123,275.5 L718.123,285.5 L728.123,285.5 L718.123,275.5" fill="#FFFDE7" style="stroke:#FBC02D;stroke-width:1;"/><text fill="#000000" font-family="sans-serif" font-size="11" font-weight="bold" lengthAdjust="spacing" textLength="127.5366" x="569.5" y="291.9189">AI Question-Start &#12501;&#12525;&#12540;</text><text fill="#000000" font-family="sans-serif" font-size="11" lengthAdjust="spacing" textLength="122.23" x="569.5" y="305.7549">1. &#12518;&#12540;&#12470;&#12540;&#12364;&#30446;&#30340;&#12434;&#20837;&#21147;</text><text fill="#000000" font-family="sans-serif" font-size="11" lengthAdjust="spacing" textLength="143.623" x="569.5" y="319.5908">2. AI&#12364;&#36074;&#21839;&#12391;&#35201;&#20214;&#12434;&#24341;&#12365;&#20986;&#12377;</text><text fill="#000000" font-family="sans-serif" font-size="11" lengthAdjust="spacing" textLength="100.23" x="569.5" y="333.4268">3. &#12486;&#12531;&#12503;&#12524;&#12540;&#12488;&#25552;&#26696;</text><text fill="#000000" font-family="sans-serif" font-size="11" lengthAdjust="spacing" textLength="115.5269" x="569.5" y="347.2627">4. PlantUML&#12467;&#12540;&#12489;&#29983;&#25104;</text></g><g class="entity" data-entity="GMN20" data-source-line="65" data-uid="ent0021" id="entity_GMN20"><path d="M533,513.5 L533,578.8438 L758.7192,578.8438 L758.7192,523.5 L748.7192,513.5 L533,513.5" fill="#FFFDE7" style="stroke:#FBC02D;stroke-width:0.5;"/><path d="M748.7192,513.5 L748.7192,523.5 L758.7192,523.5 L748.7192,513.5" fill="#FFFDE7" style="stroke:#FBC02D;stroke-width:1;"/><text fill="#000000" font-family="sans-serif" font-size="11" font-weight="bold" lengthAdjust="spacing" textLength="90.4063" x="539" y="529.9189">&#30446;&#30340;&#21029;AI&#12481;&#12515;&#12483;&#12488;</text><text fill="#000000" font-family="sans-serif" font-size="11" lengthAdjust="spacing" textLength="204.7192" x="539" y="543.7549">- &#12501;&#12455;&#12540;&#12474;&#35469;&#35672;&#65288;&#35201;&#20214;&#23450;&#32681;&#8594;&#35373;&#35336;&#8594;&#23455;&#35013;&#65289;</text><text fill="#000000" font-family="sans-serif" font-size="11" lengthAdjust="spacing" textLength="83.7192" x="539" y="557.5908">- &#22259;&#34920;&#12475;&#12483;&#12488;&#25552;&#26696;</text><text fill="#000000" font-family="sans-serif" font-size="11" lengthAdjust="spacing" textLength="182.7192" x="539" y="571.4268">- &#29992;&#35486;&#19968;&#36011;&#24615;&#12481;&#12455;&#12483;&#12463;&#65288;&#20445;&#23384;&#26178;&#33258;&#21205;&#65289;</text></g><!--link user to UC_AI_QS--><g class="link" data-entity-1="user" data-entity-2="UC_AI_QS" data-source-line="44" data-uid="lnk11" id="link_user_UC_AI_QS"><path d="M83.47,149.86 C112.99,144.31 148.9336,137.55 184.8436,130.79" fill="none" id="user-to-UC_AI_QS" style="stroke:#181818;stroke-width:1;"/><polygon fill="#181818" points="190.74,129.68,181.1554,127.414,185.8263,130.605,182.6353,135.2759,190.74,129.68" style="stroke:#181818;stroke-width:1;"/></g><!--link user to UC_AI_CHAT--><g class="link" data-entity-1="user" data-entity-2="UC_AI_CHAT" data-source-line="45" data-uid="lnk12" id="link_user_UC_AI_CHAT"><path d="M83.47,163.79 C112.38,168.97 147.1936,175.1942 182.6036,181.5242" fill="none" id="user-to-UC_AI_CHAT" style="stroke:#181818;stroke-width:1;"/><polygon fill="#181818" points="188.51,182.58,180.3543,177.0587,183.588,181.7001,178.9466,184.9338,188.51,182.58" style="stroke:#181818;stroke-width:1;"/></g><!--link UC_AI_QS to openrouter--><g class="link" data-entity-1="UC_AI_QS" data-entity-2="openrouter" data-source-line="48" data-uid="lnk13" id="link_UC_AI_QS_openrouter"><path d="M343.1,128.04 C358.54,134.01 373.04,142.86 383,156 C402.63,181.89 373.38,274.7 391,302 C439.91,377.79 541.3006,411.0811 599.5706,424.8411" fill="none" id="UC_AI_QS-to-openrouter" style="stroke:#181818;stroke-width:1;"/><polygon fill="#181818" points="605.41,426.22,597.5702,420.2587,600.5438,425.0709,595.7316,428.0445,605.41,426.22" style="stroke:#181818;stroke-width:1;"/><text fill="#000000" font-family="sans-serif" font-size="11" lengthAdjust="spacing" textLength="44" x="425" y="299.4189">&#22259;&#34920;&#29983;&#25104;</text></g><!--link UC_AI_CHAT to openrouter--><g class="link" data-entity-1="UC_AI_CHAT" data-entity-2="openrouter" data-source-line="49" data-uid="lnk14" id="link_UC_AI_CHAT_openrouter"><path d="M270.19,218.57 C281.44,266.3 314.89,376.97 391,424 C457.07,464.83 546.4661,455.4146 599.5661,444.8146" fill="none" id="UC_AI_CHAT-to-openrouter" style="stroke:#181818;stroke-width:1;"/><polygon fill="#181818" points="605.45,443.64,595.8411,441.4792,600.5467,444.6188,597.4072,449.3245,605.45,443.64" style="stroke:#181818;stroke-width:1;"/><text fill="#000000" font-family="sans-serif" font-size="11" lengthAdjust="spacing" textLength="66" x="414" y="421.4189">&#12481;&#12515;&#12483;&#12488;&#24540;&#31572;</text></g><!--link UC_AI_QS to UC_CREATE--><g class="link" data-entity-1="UC_AI_QS" data-entity-2="UC_CREATE" data-source-line="52" data-uid="lnk15" id="link_UC_AI_QS_UC_CREATE"><path d="M357.37,116.48 C425.81,116.84 511.6501,117.2987 572.9501,117.6187" fill="none" id="UC_AI_QS-to-UC_CREATE" style="stroke:#181818;stroke-width:1;stroke-dasharray:7.0,7.0;"/><polygon fill="#181818" points="578.95,117.65,569.971,113.6031,573.9501,117.6239,569.9292,121.603,578.95,117.65" style="stroke:#181818;stroke-width:1;"/><text fill="#000000" font-family="sans-serif" font-size="11" lengthAdjust="spacing" textLength="50.7622" x="421.8154" y="100.4189">&#171;extends&#187;</text><text fill="#000000" font-family="sans-serif" font-size="11" lengthAdjust="spacing" textLength="98.3931" x="398" y="114.2549">AI&#29983;&#25104;&#24460;&#12395;&#22259;&#34920;&#20316;&#25104;</text></g><!--link UC_AI_CHAT to UC_LEARN_SEARCH--><g class="link" data-entity-1="UC_AI_CHAT" data-entity-2="UC_LEARN_SEARCH" data-source-line="53" data-uid="lnk16" id="link_UC_AI_CHAT_UC_LEARN_SEARCH"><path d="M359.31,194.76 C417.91,193.99 487.0905,193.0789 545.6105,192.3089" fill="none" id="UC_AI_CHAT-to-UC_LEARN_SEARCH" style="stroke:#181818;stroke-width:1;stroke-dasharray:7.0,7.0;"/><polygon fill="#181818" points="551.61,192.23,542.5582,188.3488,546.6104,192.2958,542.6634,196.3481,551.61,192.23" style="stroke:#181818;stroke-width:1;"/><text fill="#000000" font-family="sans-serif" font-size="11" lengthAdjust="spacing" textLength="50.7622" x="421.6189" y="176.4189">&#171;extends&#187;</text><text fill="#000000" font-family="sans-serif" font-size="11" lengthAdjust="spacing" textLength="110" x="392" y="190.2549">&#23398;&#32722;&#12467;&#12531;&#12486;&#12531;&#12484;&#12434;&#25552;&#26696;</text></g><!--link UC_AI_QS to GMN17--><g class="link" data-entity-1="UC_AI_QS" data-entity-2="GMN17" data-source-line="57" data-uid="lnk19" id="link_UC_AI_QS_GMN17"><path d="M341.42,128.68 C357.13,134.61 372.17,143.29 383,156 C396.74,172.13 377.97,186.29 391,203 C433,256.88 506.36,285.43 563.48,300.18" fill="none" id="UC_AI_QS-GMN17" style="stroke:#181818;stroke-width:1;stroke-dasharray:7.0,7.0;"/></g><!--link UC_AI_CHAT to GMN20--><g class="link" data-entity-1="UC_AI_CHAT" data-entity-2="GMN20" data-source-line="65" data-uid="lnk22" id="link_UC_AI_CHAT_GMN20"><path d="M269.96,218.79 C281.08,269.7 314.84,393.43 391,461 C430.39,495.95 484.64,516.61 532.89,528.79" fill="none" id="UC_AI_CHAT-GMN20" style="stroke:#181818;stroke-width:1;stroke-dasharray:7.0,7.0;"/></g><!--SRC=[dLLRJnD157xVNp6f3qsQjE4MJGWsMKeRcdY3wfi9sT056-eksMxZBIPqHx08206AA2XI4DfYyLAZSfF_udIxovD_mJEpktIXvK6doNOxSyvtpdVETwRUg_-yE2yoYnNZssTzfTA9EW9yj5PSC_4Hv_qFhAGuf29LHafY-9wAuWb575GJiiHngP64D2eemdqa3Ago4bCV9KKaF11JydtHTJWg38u8mw9rJ9q5QJZfDeYBGq8wgKPaIOqb7ekejPLhT4TFE0Ih6tuDAt9QYeVafAnqTJdKWa5qAH8ATuH3pUsW4kPweROmKprQPRQHI7kuXNlg3fLEYOD2we9GuCBJZtKcAt5HiVSlitKMIfBLYt4YaPxmbKQSI7UefQs7udZzVaIqFD4-4UsOu4FaztEiniX3j0B15O8d2Tw24w9zXwS72IcQlU9OtHmLfNuvhOeAucz5sR4CMugr1TNON3h11QBz8DeUmHC4lmy6dR3rFJsFZTmq3NxQDkIvbHGazSxrQoYcfkC9sGCi6HMdJvwE07AQua5d6cJLWowdqfuEVojOexwqcAAYyiTKGL59PlkkP3MCQFF6ubejEqSohuasnPZS2GtmqO6-M3EqDcIix1fldkdP3toKu0p16mHZWhC019ZPeh5OQ80AzVAt6TZJSrJQ0yYjcp-7MNrMCyQt_nnEKchdDDM4NZlGEoK2LWr4GlrX_dQugMCBqijRnl4yqIgiunFi-Go0QfkhnhVyMQ1hORx_na0Cdg5UcuijfEhF0xUMJfRo9sCRjAbKCF0Th1Vqt0wh2yDer4iTnl5cZYwLTThChVvnTSX6GtUZzEDLexneYz7M-1xHlbWl9qiBJI870i5wCG6lgqjyg8fIF1KCtfNug9M1_ckQP7QidAnMk7Eo8TnbF0zqOJjcvshhMIVZbpHHdANviKl0kZRb8RTiVRu6pODdZk0oEFjyOD4QGEu19vbfIzSGJX__eBzO0PisEcXmObPAUcuMXiRSobGFlbEJmnp9pEZFzq4ZODXEmQnyNn7yqKhGpXh1tmDoPffnWyD9ksV0dDraN5CgzjZuV1UC72FYPyIqRKPbtopDcELbc2ChLNttZV6h-7jYtYoKpK8MNlJTDNDZ7EQBkJgZSs01dgRiHp36PkbTzUUO-NMdDhPDmz8O66GEwDNZjtfvkVPQCv-NzAaSXJkbyXS0]--></g></svg>