<svg xmlns="http://www.w3.org/2000/svg" xmlns:xlink="http://www.w3.org/1999/xlink" contentStyleType="text/css" data-diagram-type="DESCRIPTION" height="1202px" preserveAspectRatio="none" style="width:809px;height:1202px;background:#FFFFFF;" version="1.1" viewBox="0 0 809 1202" width="809px" zoomAndPan="magnify"><defs/><g><!--cluster PlantUML Studio--><g class="cluster" data-entity="PlantUML Studio" data-source-line="31" data-uid="ent0006" id="cluster_PlantUML Studio"><rect fill="#F3E5F5" height="1181" rx="2.5" ry="2.5" style="stroke:#181818;stroke-width:1;" width="331" x="107.5" y="7"/><text fill="#000000" font-family="sans-serif" font-size="11" font-weight="bold" lengthAdjust="spacing" textLength="87.9893" x="229.0054" y="20.4189">PlantUML Studio</text></g><!--cluster 5. ????--><g class="cluster" data-entity="5. &#31649;&#29702;&#27231;&#33021;" data-source-line="33" data-uid="ent0007" id="cluster_5. &#31649;&#29702;&#27231;&#33021;"><rect fill="#F3E5F5" height="1117" rx="2.5" ry="2.5" style="stroke:#181818;stroke-width:1;" width="283" x="131.5" y="47"/><text fill="#000000" font-family="sans-serif" font-size="11" font-weight="bold" lengthAdjust="spacing" textLength="57.605" x="244.1975" y="60.4189">5. &#31649;&#29702;&#27231;&#33021;</text></g><!--cluster 5-A. LLM??--><g class="cluster" data-entity="5-A. LLM&#31649;&#29702;" data-source-line="38" data-uid="ent0009" id="cluster_5-A. LLM&#31649;&#29702;"><rect fill="#F3E5F5" height="542" rx="2.5" ry="2.5" style="stroke:#181818;stroke-width:1;" width="235" x="155.5" y="207"/><text fill="#000000" font-family="sans-serif" font-size="11" font-weight="bold" lengthAdjust="spacing" textLength="69.126" x="238.437" y="220.4189">5-A. LLM&#31649;&#29702;</text></g><!--cluster 5-B. Embedding??--><g class="cluster" data-entity="5-B. Embedding&#31649;&#29702;" data-source-line="49" data-uid="ent0017" id="cluster_5-B. Embedding&#31649;&#29702;"><rect fill="#F3E5F5" height="173" rx="2.5" ry="2.5" style="stroke:#181818;stroke-width:1;" width="232" x="157" y="773"/><text fill="#000000" font-family="sans-serif" font-size="11" font-weight="bold" lengthAdjust="spacing" textLength="106.4121" x="219.7939" y="786.4189">5-B. Embedding&#31649;&#29702;</text></g><!--cluster 5-C. ?????????--><g class="cluster" data-entity="5-C. &#23398;&#32722;&#12467;&#12531;&#12486;&#12531;&#12484;&#31649;&#29702;" data-source-line="55" data-uid="ent0020" id="cluster_5-C. &#23398;&#32722;&#12467;&#12531;&#12486;&#12531;&#12484;&#31649;&#29702;"><rect fill="#F3E5F5" height="170" rx="2.5" ry="2.5" style="stroke:#181818;stroke-width:1;" width="221" x="162.5" y="970"/><text fill="#000000" font-family="sans-serif" font-size="11" font-weight="bold" lengthAdjust="spacing" textLength="125.9307" x="210.0347" y="983.4189">5-C. &#23398;&#32722;&#12467;&#12531;&#12486;&#12531;&#12484;&#31649;&#29702;</text></g><g class="entity" data-entity="UC_ADMIN_USER" data-source-line="35" data-uid="ent0008" id="entity_UC_ADMIN_USER"><ellipse cx="273.1105" cy="97.2221" fill="#FAFAFA" rx="76.6105" ry="17.7221" style="stroke:#666666;stroke-width:0.5;"/><text fill="#000000" font-family="sans-serif" font-size="11" lengthAdjust="spacing" textLength="117.9546" x="214.1332" y="99.7231">5-1 &#12518;&#12540;&#12470;&#12540;&#12434;&#31649;&#29702;&#12377;&#12427;</text></g><g class="entity" data-entity="UC_ADMIN_CONFIG" data-source-line="61" data-uid="ent0023" id="entity_UC_ADMIN_CONFIG"><ellipse cx="272.7738" cy="169.7548" fill="#FAFAFA" rx="89.2738" ry="20.2548" style="stroke:#666666;stroke-width:0.5;"/><text fill="#000000" font-family="sans-serif" font-size="11" lengthAdjust="spacing" textLength="146.0723" x="199.7377" y="172.2557">5-13 &#12471;&#12473;&#12486;&#12512;&#35373;&#23450;&#12434;&#22793;&#26356;&#12377;&#12427;</text></g><g class="entity" data-entity="UC_LLM_REG" data-source-line="39" data-uid="ent0010" id="entity_UC_LLM_REG"><ellipse cx="273.2381" cy="258.1476" fill="#FAFAFA" rx="81.2381" ry="18.6476" style="stroke:#666666;stroke-width:0.5;"/><text fill="#000000" font-family="sans-serif" font-size="11" lengthAdjust="spacing" textLength="128.353" x="209.0616" y="260.6486">5-2 LLM&#12514;&#12487;&#12523;&#12434;&#30331;&#37682;&#12377;&#12427;</text></g><g class="entity" data-entity="UC_LLM_SWITCH" data-source-line="40" data-uid="ent0011" id="entity_UC_LLM_SWITCH"><ellipse cx="273.2069" cy="331.1414" fill="#FAFAFA" rx="86.2069" ry="19.6414" style="stroke:#666666;stroke-width:0.5;"/><text fill="#000000" font-family="sans-serif" font-size="11" lengthAdjust="spacing" textLength="139.353" x="203.5304" y="333.6424">5-3 LLM&#12514;&#12487;&#12523;&#12434;&#20999;&#12426;&#26367;&#12360;&#12427;</text></g><g class="entity" data-entity="UC_LLM_PROMPT" data-source-line="41" data-uid="ent0012" id="entity_UC_LLM_PROMPT"><ellipse cx="273.2388" cy="406.1478" fill="#FAFAFA" rx="91.2388" ry="20.6478" style="stroke:#666666;stroke-width:0.5;"/><text fill="#000000" font-family="sans-serif" font-size="11" lengthAdjust="spacing" textLength="150.353" x="198.0623" y="408.6487">5-4 LLM&#12503;&#12525;&#12531;&#12503;&#12488;&#12434;&#31649;&#29702;&#12377;&#12427;</text></g><g class="entity" data-entity="UC_LLM_PARAM" data-source-line="42" data-uid="ent0013" id="entity_UC_LLM_PARAM"><ellipse cx="273.2388" cy="482.1478" fill="#FAFAFA" rx="91.2388" ry="20.6478" style="stroke:#666666;stroke-width:0.5;"/><text fill="#000000" font-family="sans-serif" font-size="11" lengthAdjust="spacing" textLength="150.353" x="198.0623" y="484.6487">5-5 LLM&#12497;&#12521;&#12513;&#12540;&#12479;&#12434;&#35373;&#23450;&#12377;&#12427;</text></g><g class="entity" data-entity="UC_LLM_WORKFLOW" data-source-line="43" data-uid="ent0014" id="entity_UC_LLM_WORKFLOW"><ellipse cx="272.8235" cy="559.1647" fill="#FAFAFA" rx="96.3235" ry="21.6647" style="stroke:#666666;stroke-width:0.5;"/><text fill="#000000" font-family="sans-serif" font-size="11" lengthAdjust="spacing" textLength="161.353" x="192.147" y="561.6657">5-6 LLM&#12527;&#12540;&#12463;&#12501;&#12525;&#12540;&#12434;&#23450;&#32681;&#12377;&#12427;</text></g><g class="entity" data-entity="UC_LLM_USAGE" data-source-line="44" data-uid="ent0015" id="entity_UC_LLM_USAGE"><ellipse cx="273.2381" cy="634.1476" fill="#FAFAFA" rx="81.2381" ry="18.6476" style="stroke:#666666;stroke-width:0.5;"/><text fill="#000000" font-family="sans-serif" font-size="11" lengthAdjust="spacing" textLength="128.353" x="209.0616" y="636.6486">5-7 LLM&#20351;&#29992;&#37327;&#12434;&#30435;&#35222;&#12377;&#12427;</text></g><g class="entity" data-entity="UC_LLM_FALLBACK" data-source-line="45" data-uid="ent0016" id="entity_UC_LLM_FALLBACK"><ellipse cx="272.9529" cy="710.1906" fill="#FAFAFA" rx="101.4529" ry="22.6906" style="stroke:#666666;stroke-width:0.5;"/><text fill="#000000" font-family="sans-serif" font-size="11" lengthAdjust="spacing" textLength="172.353" x="186.7764" y="712.6915">5-8 LLM&#12501;&#12457;&#12540;&#12523;&#12496;&#12483;&#12463;&#12434;&#35373;&#23450;&#12377;&#12427;</text></g><g class="entity" data-entity="UC_EMB_CONFIG" data-source-line="50" data-uid="ent0018" id="entity_UC_EMB_CONFIG"><ellipse cx="272.9049" cy="826.781" fill="#FAFAFA" rx="96.9049" ry="21.781" style="stroke:#666666;stroke-width:0.5;"/><text fill="#000000" font-family="sans-serif" font-size="11" lengthAdjust="spacing" textLength="162.6045" x="191.6027" y="829.282">5-9 Embedding&#12514;&#12487;&#12523;&#12434;&#35373;&#23450;&#12377;&#12427;</text></g><g class="entity" data-entity="UC_EMB_USAGE" data-source-line="51" data-uid="ent0019" id="entity_UC_EMB_USAGE"><ellipse cx="272.7553" cy="906.8511" fill="#FAFAFA" rx="99.7553" ry="22.3511" style="stroke:#666666;stroke-width:0.5;"/><text fill="#000000" font-family="sans-serif" font-size="11" lengthAdjust="spacing" textLength="168.7222" x="188.3942" y="909.352">5-10 Embedding&#20351;&#29992;&#37327;&#12434;&#30435;&#35222;&#12377;&#12427;</text></g><g class="entity" data-entity="UC_LC_REG" data-source-line="56" data-uid="ent0021" id="entity_UC_LC_REG"><ellipse cx="272.839" cy="1101.7678" fill="#FAFAFA" rx="94.339" ry="21.2678" style="stroke:#666666;stroke-width:0.5;"/><text fill="#000000" font-family="sans-serif" font-size="11" lengthAdjust="spacing" textLength="157.0723" x="194.3029" y="1104.2688">5-11 &#23398;&#32722;&#12467;&#12531;&#12486;&#12531;&#12484;&#12434;&#30331;&#37682;&#12377;&#12427;</text></g><g class="entity" data-entity="UC_LC_MGT" data-source-line="57" data-uid="ent0022" id="entity_UC_LC_MGT"><ellipse cx="272.839" cy="1023.7678" fill="#FAFAFA" rx="94.339" ry="21.2678" style="stroke:#666666;stroke-width:0.5;"/><text fill="#000000" font-family="sans-serif" font-size="11" lengthAdjust="spacing" textLength="157.0723" x="194.3029" y="1026.2688">5-12 &#23398;&#32722;&#12467;&#12531;&#12486;&#12531;&#12484;&#12434;&#31649;&#29702;&#12377;&#12427;</text></g><!--entity developer--><g class="entity" data-entity="developer" data-source-line="25" data-uid="ent0002" id="entity_developer"><ellipse cx="33" cy="538" fill="#F1F1F1" rx="16" ry="16" style="stroke:#181818;stroke-width:0.5;"/><path d="M33,558 C37,558 40,558 44,554 C52,554 60,562 60,570 L60,574 C60,578 56,582 52,582 L14,582 C10,582 6,578 6,574 L6,570 C6,562 14,554 22,554 C26,558 29,558 33,558" fill="#F1F1F1" style="stroke:#181818;stroke-width:0.5;"/><text fill="#000000" font-family="sans-serif" font-size="11" lengthAdjust="spacing" textLength="33" x="16.5" y="593.9189">&#38283;&#30330;&#32773;</text></g><!--entity supabase--><g class="entity" data-entity="supabase" data-source-line="26" data-uid="ent0003" id="entity_supabase"><ellipse cx="710.6177" cy="646.8359" fill="#F1F1F1" rx="16" ry="16" style="stroke:#181818;stroke-width:0.5;"/><path d="M710.6177,666.8359 C714.6177,666.8359 717.6177,666.8359 721.6177,662.8359 C729.6177,662.8359 737.6177,670.8359 737.6177,678.8359 L737.6177,682.8359 C737.6177,686.8359 733.6177,690.8359 729.6177,690.8359 L691.6177,690.8359 C687.6177,690.8359 683.6177,686.8359 683.6177,682.8359 L683.6177,678.8359 C683.6177,670.8359 691.6177,662.8359 699.6177,662.8359 C703.6177,666.8359 706.6177,666.8359 710.6177,666.8359" fill="#F1F1F1" style="stroke:#181818;stroke-width:0.5;"/><text fill="#000000" font-family="sans-serif" font-size="11" lengthAdjust="spacing" textLength="49.543" x="685.8462" y="702.7549">Supabase</text><text fill="#000000" font-family="sans-serif" font-size="11" font-style="italic" lengthAdjust="spacing" textLength="78.2354" x="671.5" y="627.9189">&#171;&#22806;&#37096;&#12471;&#12473;&#12486;&#12512;&#187;</text></g><!--entity openrouter--><g class="entity" data-entity="openrouter" data-source-line="27" data-uid="ent0004" id="entity_openrouter"><ellipse cx="710.3557" cy="363.8359" fill="#F1F1F1" rx="16" ry="16" style="stroke:#181818;stroke-width:0.5;"/><path d="M710.3557,383.8359 C714.3557,383.8359 717.3557,383.8359 721.3557,379.8359 C729.3557,379.8359 737.3557,387.8359 737.3557,395.8359 L737.3557,399.8359 C737.3557,403.8359 733.3557,407.8359 729.3557,407.8359 L691.3557,407.8359 C687.3557,407.8359 683.3557,403.8359 683.3557,399.8359 L683.3557,395.8359 C683.3557,387.8359 691.3557,379.8359 699.3557,379.8359 C703.3557,383.8359 706.3557,383.8359 710.3557,383.8359" fill="#F1F1F1" style="stroke:#181818;stroke-width:0.5;"/><text fill="#000000" font-family="sans-serif" font-size="11" lengthAdjust="spacing" textLength="80.7114" x="670" y="419.7549">OpenRouter API</text><text fill="#000000" font-family="sans-serif" font-size="11" font-style="italic" lengthAdjust="spacing" textLength="78.2354" x="671.238" y="344.9189">&#171;&#22806;&#37096;&#12471;&#12473;&#12486;&#12512;&#187;</text></g><!--entity openai--><g class="entity" data-entity="openai" data-source-line="28" data-uid="ent0005" id="entity_openai"><ellipse cx="710.6177" cy="1008.8359" fill="#F1F1F1" rx="16" ry="16" style="stroke:#181818;stroke-width:0.5;"/><path d="M710.6177,1028.8359 C714.6177,1028.8359 717.6177,1028.8359 721.6177,1024.8359 C729.6177,1024.8359 737.6177,1032.8359 737.6177,1040.8359 L737.6177,1044.8359 C737.6177,1048.8359 733.6177,1052.8359 729.6177,1052.8359 L691.6177,1052.8359 C687.6177,1052.8359 683.6177,1048.8359 683.6177,1044.8359 L683.6177,1040.8359 C683.6177,1032.8359 691.6177,1024.8359 699.6177,1024.8359 C703.6177,1028.8359 706.6177,1028.8359 710.6177,1028.8359" fill="#F1F1F1" style="stroke:#181818;stroke-width:0.5;"/><text fill="#000000" font-family="sans-serif" font-size="11" lengthAdjust="spacing" textLength="58.0884" x="681.5735" y="1064.7549">OpenAI API</text><text fill="#000000" font-family="sans-serif" font-size="11" font-style="italic" lengthAdjust="spacing" textLength="78.2354" x="671.5" y="989.9189">&#171;&#22806;&#37096;&#12471;&#12473;&#12486;&#12512;&#187;</text></g><g class="entity" data-entity="GMN49" data-source-line="96" data-uid="ent0050" id="entity_GMN49"><path d="M618.5,218.5 L618.5,254 L354.13,258 L618.5,262 L618.5,297.6797 A0,0 0 0 0 618.5,297.6797 L802.7275,297.6797 A0,0 0 0 0 802.7275,297.6797 L802.7275,228.5 L792.7275,218.5 L618.5,218.5 A0,0 0 0 0 618.5,218.5" fill="#FFFDE7" style="stroke:#FBC02D;stroke-width:0.5;"/><path d="M792.7275,218.5 L792.7275,228.5 L802.7275,228.5 L792.7275,218.5" fill="#FFFDE7" style="stroke:#FBC02D;stroke-width:0.5;"/><text fill="#000000" font-family="sans-serif" font-size="11" font-weight="bold" lengthAdjust="spacing" textLength="154.2202" x="624.5" y="234.9189">LLM&#31649;&#29702;&#65288;OpenRouter&#32076;&#30001;&#65289;</text><text fill="#000000" font-family="sans-serif" font-size="11" lengthAdjust="spacing" textLength="86.4961" x="624.5" y="248.7549">- 300+&#12514;&#12487;&#12523;&#23550;&#24540;</text><text fill="#000000" font-family="sans-serif" font-size="11" lengthAdjust="spacing" textLength="163.2275" x="624.5" y="262.5908">- Claude, GPT-4o, Gemini, Llama</text><text fill="#000000" font-family="sans-serif" font-size="11" lengthAdjust="spacing" textLength="105.7192" x="624.5" y="276.4268">- &#33258;&#21205;&#12501;&#12457;&#12540;&#12523;&#12496;&#12483;&#12463;</text><text fill="#000000" font-family="sans-serif" font-size="11" lengthAdjust="spacing" textLength="105.7192" x="624.5" y="290.2627">- &#20351;&#29992;&#37327;&#12539;&#12467;&#12473;&#12488;&#30435;&#35222;</text></g><g class="entity" data-entity="GMN52" data-source-line="104" data-uid="ent0053" id="entity_GMN52"><path d="M628,878.5 L628,943.8438 L793.375,943.8438 L793.375,888.5 L783.375,878.5 L628,878.5" fill="#FFFDE7" style="stroke:#FBC02D;stroke-width:0.5;"/><path d="M783.375,878.5 L783.375,888.5 L793.375,888.5 L783.375,878.5" fill="#FFFDE7" style="stroke:#FBC02D;stroke-width:1;"/><text fill="#000000" font-family="sans-serif" font-size="11" font-weight="bold" lengthAdjust="spacing" textLength="144.375" x="634" y="894.9189">Embedding&#65288;OpenAI&#30452;&#25509;&#65289;</text><text fill="#000000" font-family="sans-serif" font-size="11" lengthAdjust="spacing" textLength="121.6553" x="634" y="908.7549">- text-embedding-3-small</text><text fill="#000000" font-family="sans-serif" font-size="11" lengthAdjust="spacing" textLength="53.1899" x="634" y="922.5908">- 1536&#27425;&#20803;</text><text fill="#000000" font-family="sans-serif" font-size="11" lengthAdjust="spacing" textLength="81.9307" x="634" y="936.4268">- $0.02/M tokens</text></g><g class="entity" data-entity="GMN55" data-source-line="111" data-uid="ent0056" id="entity_GMN55"><path d="M623,1102.5 L623,1135.64 L358.74,1111.15 L623,1143.64 L623,1195.5156 A0,0 0 0 0 623,1195.5156 L798.0269,1195.5156 A0,0 0 0 0 798.0269,1195.5156 L798.0269,1112.5 L788.0269,1102.5 L623,1102.5 A0,0 0 0 0 623,1102.5" fill="#FFFDE7" style="stroke:#FBC02D;stroke-width:0.5;"/><path d="M788.0269,1102.5 L788.0269,1112.5 L798.0269,1112.5 L788.0269,1102.5" fill="#FFFDE7" style="stroke:#FBC02D;stroke-width:0.5;"/><text fill="#000000" font-family="sans-serif" font-size="11" font-weight="bold" lengthAdjust="spacing" textLength="136.125" x="629" y="1118.9189">&#23398;&#32722;&#12467;&#12531;&#12486;&#12531;&#12484;&#30331;&#37682;&#12501;&#12525;&#12540;</text><text fill="#000000" font-family="sans-serif" font-size="11" lengthAdjust="spacing" textLength="154.0269" x="629" y="1132.7549">1. Markdown/PDF&#12450;&#12483;&#12503;&#12525;&#12540;&#12489;</text><text fill="#000000" font-family="sans-serif" font-size="11" lengthAdjust="spacing" textLength="150.9922" x="629" y="1146.5908">2. &#12481;&#12515;&#12531;&#12461;&#12531;&#12464;&#65288;512tokens&#65289;</text><text fill="#000000" font-family="sans-serif" font-size="11" lengthAdjust="spacing" textLength="130.2383" x="629" y="1160.4268">3. OpenAI Embedding&#29983;&#25104;</text><text fill="#000000" font-family="sans-serif" font-size="11" lengthAdjust="spacing" textLength="140.019" x="629" y="1174.2627">4. Supabase pgvector&#12395;&#20445;&#23384;</text><text fill="#000000" font-family="sans-serif" font-size="11" lengthAdjust="spacing" textLength="136.9253" x="629" y="1188.0986">5. Hybrid Search&#12391;&#21033;&#29992;&#21487;&#33021;</text></g><!--link developer to UC_ADMIN_USER--><g class="link" data-entity-1="developer" data-entity-2="UC_ADMIN_USER" data-source-line="66" data-uid="lnk24" id="link_developer_UC_ADMIN_USER"><path d="M34.45,521.19 C36.39,427.4 46.53,187.58 99.5,132 C124.48,105.79 157.3167,96.7876 191.8067,94.2076" fill="none" id="developer-to-UC_ADMIN_USER" style="stroke:#181818;stroke-width:1;"/><polygon fill="#181818" points="197.79,93.76,188.5167,90.4425,192.8039,94.133,189.1135,98.4202,197.79,93.76" style="stroke:#181818;stroke-width:1;"/></g><!--link developer to UC_LLM_REG--><g class="link" data-entity-1="developer" data-entity-2="UC_LLM_REG" data-source-line="67" data-uid="lnk25" id="link_developer_UC_LLM_REG"><path d="M38.35,521.47 C46.71,456.09 67.09,325.25 99.5,294 C123.84,270.54 153.3384,261.2977 185.7984,257.6077" fill="none" id="developer-to-UC_LLM_REG" style="stroke:#181818;stroke-width:1;"/><polygon fill="#181818" points="191.76,256.93,182.3658,253.9722,186.792,257.4948,183.2694,261.921,191.76,256.93" style="stroke:#181818;stroke-width:1;"/></g><!--link developer to UC_LLM_SWITCH--><g class="link" data-entity-1="developer" data-entity-2="UC_LLM_SWITCH" data-source-line="68" data-uid="lnk26" id="link_developer_UC_LLM_SWITCH"><path d="M36.2,521.44 C40.84,477.97 55.19,407.32 99.5,368 C123.32,346.86 150.3234,337.6499 181.0334,333.1499" fill="none" id="developer-to-UC_LLM_SWITCH" style="stroke:#181818;stroke-width:1;"/><polygon fill="#181818" points="186.97,332.28,177.4852,329.6271,182.0228,333.0049,178.645,337.5426,186.97,332.28" style="stroke:#181818;stroke-width:1;"/></g><!--link developer to UC_LLM_PROMPT--><g class="link" data-entity-1="developer" data-entity-2="UC_LLM_PROMPT" data-source-line="69" data-uid="lnk27" id="link_developer_UC_LLM_PROMPT"><path d="M46.21,521.31 C56.44,495.68 73.6,463.08 99.5,444 C123.94,425.99 149.3727,417.2805 178.6127,412.0805" fill="none" id="developer-to-UC_LLM_PROMPT" style="stroke:#181818;stroke-width:1;"/><polygon fill="#181818" points="184.52,411.03,174.9587,408.6676,179.5972,411.9055,176.3594,416.544,184.52,411.03" style="stroke:#181818;stroke-width:1;"/></g><!--link developer to UC_LLM_PARAM--><g class="link" data-entity-1="developer" data-entity-2="UC_LLM_PARAM" data-source-line="70" data-uid="lnk28" id="link_developer_UC_LLM_PARAM"><path d="M60.72,540.44 C72.22,533.17 86.09,525.31 99.5,520 C130.29,507.81 159.9191,500.2791 190.6891,494.3291" fill="none" id="developer-to-UC_LLM_PARAM" style="stroke:#181818;stroke-width:1;"/><polygon fill="#181818" points="196.58,493.19,186.9843,490.9714,191.6709,494.1393,188.5031,498.8259,196.58,493.19" style="stroke:#181818;stroke-width:1;"/></g><!--link developer to UC_LLM_WORKFLOW--><g class="link" data-entity-1="developer" data-entity-2="UC_LLM_WORKFLOW" data-source-line="71" data-uid="lnk29" id="link_developer_UC_LLM_WORKFLOW"><path d="M60.84,559 C88.92,559 128.65,559 170.38,559" fill="none" id="developer-to-UC_LLM_WORKFLOW" style="stroke:#181818;stroke-width:1;"/><polygon fill="#181818" points="176.38,559,167.38,555,171.38,559,167.38,563,176.38,559" style="stroke:#181818;stroke-width:1;"/></g><!--link developer to UC_LLM_USAGE--><g class="link" data-entity-1="developer" data-entity-2="UC_LLM_USAGE" data-source-line="72" data-uid="lnk30" id="link_developer_UC_LLM_USAGE"><path d="M60.69,577.63 C72.19,584.92 86.06,592.76 99.5,598 C132.28,610.77 164.5082,618.3051 196.5782,623.8651" fill="none" id="developer-to-UC_LLM_USAGE" style="stroke:#181818;stroke-width:1;"/><polygon fill="#181818" points="202.49,624.89,194.3056,619.4114,197.5635,624.0359,192.939,627.2938,202.49,624.89" style="stroke:#181818;stroke-width:1;"/></g><!--link developer to UC_LLM_FALLBACK--><g class="link" data-entity-1="developer" data-entity-2="UC_LLM_FALLBACK" data-source-line="73" data-uid="lnk31" id="link_developer_UC_LLM_FALLBACK"><path d="M47.16,596.64 C57.64,621.13 74.69,651.8 99.5,670 C122.06,686.54 144.513,695.1236 171.643,700.9336" fill="none" id="developer-to-UC_LLM_FALLBACK" style="stroke:#181818;stroke-width:1;"/><polygon fill="#181818" points="177.51,702.19,169.5472,696.394,172.6209,701.143,167.8719,704.2167,177.51,702.19" style="stroke:#181818;stroke-width:1;"/></g><!--link developer to UC_EMB_CONFIG--><g class="link" data-entity-1="developer" data-entity-2="UC_EMB_CONFIG" data-source-line="74" data-uid="lnk32" id="link_developer_UC_EMB_CONFIG"><path d="M38.07,596.69 C44.43,638.61 60.37,706.06 99.5,749 C127.62,779.85 164.5881,797.4222 200.4581,809.1722" fill="none" id="developer-to-UC_EMB_CONFIG" style="stroke:#181818;stroke-width:1;"/><polygon fill="#181818" points="206.16,811.04,198.8524,804.4371,201.4084,809.4835,196.362,812.0396,206.16,811.04" style="stroke:#181818;stroke-width:1;"/></g><!--link developer to UC_EMB_USAGE--><g class="link" data-entity-1="developer" data-entity-2="UC_EMB_USAGE" data-source-line="75" data-uid="lnk33" id="link_developer_UC_EMB_USAGE"><path d="M37.06,596.51 C43.8,669.76 62.36,828 99.5,866 C119.18,886.15 140.9595,895.8899 168.3695,901.6799" fill="none" id="developer-to-UC_EMB_USAGE" style="stroke:#181818;stroke-width:1;"/><polygon fill="#181818" points="174.24,902.92,166.261,897.1463,169.348,901.8866,164.6076,904.9736,174.24,902.92" style="stroke:#181818;stroke-width:1;"/></g><!--link developer to UC_LC_REG--><g class="link" data-entity-1="developer" data-entity-2="UC_LC_REG" data-source-line="76" data-uid="lnk34" id="link_developer_UC_LC_REG"><path d="M33.53,596.83 C33.04,702.05 37.41,994.84 99.5,1063 C119.56,1085.02 143.2696,1094.9168 172.3296,1099.9968" fill="none" id="developer-to-UC_LC_REG" style="stroke:#181818;stroke-width:1;"/><polygon fill="#181818" points="178.24,1101.03,170.0632,1095.54,173.3147,1100.169,168.6856,1103.4205,178.24,1101.03" style="stroke:#181818;stroke-width:1;"/></g><!--link developer to UC_LC_MGT--><g class="link" data-entity-1="developer" data-entity-2="UC_LC_MGT" data-source-line="77" data-uid="lnk35" id="link_developer_UC_LC_MGT"><path d="M35.94,596.76 C41.07,683.09 57.58,891.63 99.5,946 C124.79,978.79 161.2391,996.4233 197.5591,1007.6833" fill="none" id="developer-to-UC_LC_MGT" style="stroke:#181818;stroke-width:1;"/><polygon fill="#181818" points="203.29,1009.46,195.8781,1002.9743,198.5142,1007.9794,193.5092,1010.6155,203.29,1009.46" style="stroke:#181818;stroke-width:1;"/></g><!--link developer to UC_ADMIN_CONFIG--><g class="link" data-entity-1="developer" data-entity-2="UC_ADMIN_CONFIG" data-source-line="78" data-uid="lnk36" id="link_developer_UC_ADMIN_CONFIG"><path d="M36.55,521.22 C42.58,442.92 60.25,266.63 99.5,223 C122.23,197.73 150.818,185.6396 182.978,178.6196" fill="none" id="developer-to-UC_ADMIN_CONFIG" style="stroke:#181818;stroke-width:1;"/><polygon fill="#181818" points="188.84,177.34,179.194,175.3514,183.955,178.4063,180.9001,183.1673,188.84,177.34" style="stroke:#181818;stroke-width:1;"/></g><!--link UC_ADMIN_USER to supabase--><g class="link" data-entity-1="UC_ADMIN_USER" data-entity-2="supabase" data-source-line="81" data-uid="lnk37" id="link_UC_ADMIN_USER_supabase"><path d="M347.05,92.28 C382.56,94.23 422.63,103.56 446.5,132 C468.58,158.31 433.06,414.17 454.5,441 C492.85,489 538.54,439.24 588.5,475 C638.31,510.65 670.4727,568.2918 689.5527,611.0018" fill="none" id="UC_ADMIN_USER-to-supabase" style="stroke:#181818;stroke-width:1;"/><polygon fill="#181818" points="692,616.48,691.9812,606.6312,689.9606,611.9148,684.6769,609.8942,692,616.48" style="stroke:#181818;stroke-width:1;"/><text fill="#000000" font-family="sans-serif" font-size="11" lengthAdjust="spacing" textLength="75.7754" x="484" y="438.4189">&#12518;&#12540;&#12470;&#12540;CRUD</text></g><!--link UC_LLM_REG to supabase--><g class="link" data-entity-1="UC_LLM_REG" data-entity-2="supabase" data-source-line="82" data-uid="lnk38" id="link_UC_LLM_REG_supabase"><path d="M352.66,254.3 C386.65,257.16 423.77,267.15 446.5,294 C460.87,310.97 440.92,476.39 454.5,494 C492.53,543.32 535.45,502.38 588.5,535 C622.86,556.13 650.3743,584.6714 672.5343,611.6814" fill="none" id="UC_LLM_REG-to-supabase" style="stroke:#181818;stroke-width:1;"/><polygon fill="#181818" points="676.34,616.32,673.7239,606.825,673.1686,612.4545,667.5391,611.8992,676.34,616.32" style="stroke:#181818;stroke-width:1;"/><text fill="#000000" font-family="sans-serif" font-size="11" lengthAdjust="spacing" textLength="77" x="483" y="491.4189">&#12514;&#12487;&#12523;&#35373;&#23450;&#20445;&#23384;</text></g><!--link UC_LLM_REG to openrouter--><g class="link" data-entity-1="UC_LLM_REG" data-entity-2="openrouter" data-source-line="83" data-uid="lnk39" id="link_UC_LLM_REG_openrouter"><path d="M336.64,269.45 C369.54,275.88 410.41,284.5 446.5,294 C526.69,315.11 612.9343,344.0751 664.1143,361.9151" fill="none" id="UC_LLM_REG-to-openrouter" style="stroke:#181818;stroke-width:1;"/><polygon fill="#181818" points="669.78,363.89,662.5981,357.1505,665.0586,362.2442,659.9649,364.7048,669.78,363.89" style="stroke:#181818;stroke-width:1;"/><text fill="#000000" font-family="sans-serif" font-size="11" lengthAdjust="spacing" textLength="77" x="483" y="295.4189">&#12514;&#12487;&#12523;&#19968;&#35239;&#21462;&#24471;</text></g><!--link UC_LLM_PROMPT to supabase--><g class="link" data-entity-1="UC_LLM_PROMPT" data-entity-2="supabase" data-source-line="84" data-uid="lnk40" id="link_UC_LLM_PROMPT_supabase"><path d="M363.95,405.03 C394.49,409.51 426.03,420.35 446.5,444 C462.54,462.53 440.2,534.1 454.5,554 C467.82,572.54 596.534,620.5896 664.664,645.0896" fill="none" id="UC_LLM_PROMPT-to-supabase" style="stroke:#181818;stroke-width:1;"/><polygon fill="#181818" points="670.31,647.12,663.1945,640.3105,665.605,645.428,660.4874,647.8385,670.31,647.12" style="stroke:#181818;stroke-width:1;"/><text fill="#000000" font-family="sans-serif" font-size="11" lengthAdjust="spacing" textLength="77" x="483" y="551.4189">&#12503;&#12525;&#12531;&#12503;&#12488;&#20445;&#23384;</text></g><!--link UC_LLM_USAGE to supabase--><g class="link" data-entity-1="UC_LLM_USAGE" data-entity-2="supabase" data-source-line="85" data-uid="lnk41" id="link_UC_LLM_USAGE_supabase"><path d="M351.36,638.8 C444.85,644.59 592.5515,653.7486 664.3115,658.1986" fill="none" id="UC_LLM_USAGE-to-supabase" style="stroke:#181818;stroke-width:1;"/><polygon fill="#181818" points="670.3,658.57,661.5648,654.0206,665.3096,658.2605,661.0697,662.0053,670.3,658.57" style="stroke:#181818;stroke-width:1;"/><text fill="#000000" font-family="sans-serif" font-size="11" lengthAdjust="spacing" textLength="55" x="494" y="643.4189">&#20351;&#29992;&#37327;&#12525;&#12464;</text></g><!--link UC_LLM_USAGE to openrouter--><g class="link" data-entity-1="UC_LLM_USAGE" data-entity-2="openrouter" data-source-line="86" data-uid="lnk42" id="link_UC_LLM_USAGE_openrouter"><path d="M352.6,637.66 C386.58,634.79 423.71,624.8 446.5,598 C459.47,582.75 441.15,432.92 454.5,418 C508.28,357.88 606.5588,361.692 663.6988,369.752" fill="none" id="UC_LLM_USAGE-to-openrouter" style="stroke:#181818;stroke-width:1;"/><polygon fill="#181818" points="669.64,370.59,661.2869,365.3721,664.689,369.8916,660.1695,373.2937,669.64,370.59" style="stroke:#181818;stroke-width:1;"/><text fill="#000000" font-family="sans-serif" font-size="11" lengthAdjust="spacing" textLength="55" x="494" y="364.4189">&#20351;&#29992;&#37327;&#21462;&#24471;</text></g><!--link UC_EMB_CONFIG to supabase--><g class="link" data-entity-1="UC_EMB_CONFIG" data-entity-2="supabase" data-source-line="87" data-uid="lnk43" id="link_UC_EMB_CONFIG_supabase"><path d="M339.65,810.86 C375.45,799.05 418.13,779.61 446.5,749 C453.57,741.37 446.8,734 454.5,727 C486.06,698.32 601.0404,677.3166 664.3704,667.5266" fill="none" id="UC_EMB_CONFIG-to-supabase" style="stroke:#181818;stroke-width:1;"/><polygon fill="#181818" points="670.3,666.61,660.7946,664.0319,665.3587,667.3739,662.0167,671.938,670.3,666.61" style="stroke:#181818;stroke-width:1;"/><text fill="#000000" font-family="sans-serif" font-size="11" lengthAdjust="spacing" textLength="99.6499" x="472" y="680.4189">Embedding&#35373;&#23450;&#20445;&#23384;</text></g><!--link UC_EMB_USAGE to supabase--><g class="link" data-entity-1="UC_EMB_USAGE" data-entity-2="supabase" data-source-line="88" data-uid="lnk44" id="link_UC_EMB_USAGE_supabase"><path d="M372.79,904.38 C400.4,898.66 427.91,887.36 446.5,866 C458.81,851.86 442.3,796.24 454.5,782 C494.49,735.35 532.8,773.94 588.5,748 C618.05,734.23 643.143,716.6859 665.753,698.6159" fill="none" id="UC_EMB_USAGE-to-supabase" style="stroke:#181818;stroke-width:1;"/><polygon fill="#181818" points="670.44,694.87,660.9122,697.3642,666.5341,697.9916,665.9067,703.6135,670.44,694.87" style="stroke:#181818;stroke-width:1;"/><text fill="#000000" font-family="sans-serif" font-size="11" lengthAdjust="spacing" textLength="55" x="494" y="745.4189">&#20351;&#29992;&#37327;&#12525;&#12464;</text></g><!--link UC_EMB_USAGE to openai--><g class="link" data-entity-1="UC_EMB_USAGE" data-entity-2="openai" data-source-line="89" data-uid="lnk45" id="link_UC_EMB_USAGE_openai"><path d="M338.26,924.12 C429.83,948.51 589.2722,990.9754 664.4922,1011.0154" fill="none" id="UC_EMB_USAGE-to-openai" style="stroke:#181818;stroke-width:1;"/><polygon fill="#181818" points="670.29,1012.56,662.6231,1006.3779,665.4585,1011.2728,660.5636,1014.1082,670.29,1012.56" style="stroke:#181818;stroke-width:1;"/><text fill="#000000" font-family="sans-serif" font-size="11" lengthAdjust="spacing" textLength="55" x="494" y="956.4189">&#20351;&#29992;&#37327;&#21462;&#24471;</text></g><!--link UC_LC_REG to supabase--><g class="link" data-entity-1="UC_LC_REG" data-entity-2="supabase" data-source-line="90" data-uid="lnk46" id="link_UC_LC_REG_supabase"><path d="M367.72,1101.94 C397.13,1096.99 426.99,1085.9 446.5,1063 C464.84,1041.48 439.64,960.06 454.5,936 C490.71,877.37 539.2,906.15 588.5,858 C634.01,813.55 666.971,754.0375 687.441,711.0375" fill="none" id="UC_LC_REG-to-supabase" style="stroke:#181818;stroke-width:1;"/><polygon fill="#181818" points="690.02,705.62,682.5399,712.0269,687.8709,710.1346,689.7632,715.4655,690.02,705.62" style="stroke:#181818;stroke-width:1;"/><text fill="#000000" font-family="sans-serif" font-size="11" lengthAdjust="spacing" textLength="132" x="455.5" y="855.4189">&#12467;&#12531;&#12486;&#12531;&#12484;&#12539;&#12505;&#12463;&#12488;&#12523;&#20445;&#23384;</text></g><!--link UC_LC_REG to openai--><g class="link" data-entity-1="UC_LC_REG" data-entity-2="openai" data-source-line="91" data-uid="lnk47" id="link_UC_LC_REG_openai"><path d="M353.43,1090.62 C417.17,1081.12 508.85,1066.66 588.5,1051 C616,1045.59 640.9484,1039.8716 664.5784,1034.1516" fill="none" id="UC_LC_REG-to-openai" style="stroke:#181818;stroke-width:1;"/><polygon fill="#181818" points="670.41,1032.74,660.7215,1030.9697,665.5504,1033.9164,662.6037,1038.7452,670.41,1032.74" style="stroke:#181818;stroke-width:1;"/><text fill="#000000" font-family="sans-serif" font-size="11" lengthAdjust="spacing" textLength="77.6499" x="483" y="1048.4189">Embedding&#29983;&#25104;</text></g><!--link UC_LC_MGT to supabase--><g class="link" data-entity-1="UC_LC_MGT" data-entity-2="supabase" data-source-line="92" data-uid="lnk48" id="link_UC_LC_MGT_supabase"><path d="M345.24,1009.96 C381.63,998.91 423.07,979.55 446.5,946 C460.41,926.09 438.89,855.61 454.5,837 C493.98,789.92 536.34,835.47 588.5,803 C627.68,778.61 657.3665,742.3318 678.9665,710.5618" fill="none" id="UC_LC_MGT-to-supabase" style="stroke:#181818;stroke-width:1;"/><polygon fill="#181818" points="682.34,705.6,673.9719,710.7937,679.5288,709.7349,680.5877,715.2917,682.34,705.6" style="stroke:#181818;stroke-width:1;"/><text fill="#000000" font-family="sans-serif" font-size="11" lengthAdjust="spacing" textLength="86.7754" x="478.5" y="800.4189">&#12467;&#12531;&#12486;&#12531;&#12484;CRUD</text></g><!--link UC_EMB_CONFIG to GMN52--><g class="link" data-entity-1="UC_EMB_CONFIG" data-entity-2="GMN52" data-source-line="104" data-uid="lnk54" id="link_UC_EMB_CONFIG_GMN52"><path d="M367.82,831.76 C395.87,837.36 424.87,847.84 446.5,867 C454.29,873.9 446.24,882.67 454.5,889 C503.17,926.31 573.46,929.79 627.93,925.07" fill="none" id="UC_EMB_CONFIG-GMN52" style="stroke:#181818;stroke-width:1;stroke-dasharray:7.0,7.0;"/></g><!--SRC=[dLTjJzjM5FxkNt6LJKBAcZGlX6vLXnHCGgCc9Kf0V4I6c3GYiIF7QTTDI62la0vKM0LqZ4qTq56oZS86sxf1oO-vE2-V-XTsxtNYTyCs8pdOvvpddlTptFVfVxweFj2kdxHEZvNjaziWuc-zsMcjBJRhBzlok_VdjSxcSclhx_Ry4-LOQgqVl3z_IlNzZqEAx8m8H1u8XVm34UGA0Zij5dYEeYgp1QxC24m9CDCYBsJ5nqKMC8_O2bzY3SGoCptBv5cLZ8KPBbyqCkJO6QPQ5ECy9sOBdxCW6AJiuk0B2g1h23tb1RxAvMY-o0lWWtWu5eb7g3cZIBN2JZCLTv4e_bDfl91ZXUxx0NAPeJXUTCU9nuTZj-muyI4w41h6E7q-7u3IBfIEeDI0yZdm-IZYA-3HWkC1J0Mvu25RvCkiq2DdgsLc2jb0g9Nk0xXpHtcrsP4FeFGdbFw2yYAKVnWSxCcCbbakmrT5LW3HT8988aXEK5zTBnjDcEIOWfjCroxzdR8hjpPMi7LQV84dNMGuSJoL15cncYlm7kH6ugjUG3qHFp1chAVhPtpr0IZl8uT1wGzqLxaqOY-ydeWlQEA3qdEL5IviGMcPM39EJqQ7Kudxa-FPM8Oo791CfbHcL2cwvrg_hxJMVyMbqkFKrVL5_RgKKLkBKY7C1ULTA2z1-MUirDPPP-KtirA8PJ8J6t7325inbDeIbBvgRZVWGiq2avr8ZD5ttP3wLQGNK3w4yWdvf-RYA0oMpeocqcDkO14Lx6ierw6yGrpUG63jWqFbpRSEOD5CDEM6DQ1Y7H4KTDyW6k8W8gpMHTqEDp6QkHTFZawu8Tx2Y9Vl6gZPTPPMiP7RU-tzJJlGU3Ow4dD3-LZLQmDATQmEyhwy1cMP5B6hfV5eCZaKfUzfe7F6N8kLfjXShi3bJHaNJRIsJvlFVdJ9jY6_LUwAdFj4vpLcZPEwiTJG93rwFvvmJRvWG4UxpfqOpUnEa-NAuNwhyHnA9oJt5idzIqiz6soc_LT9N65_CEWiw5Pzz5N55movWpcL3JsP6Xbpjj_O9TLWEBQni0CZBeHNJvlRfqxTp130kTwakNnxPXmsdStTplmURihQT44FWvQEQAFr6fCZeTjg76dTpk5C8ut0aQGLjIDLJIr7abPoDgeXmnrfRg2qY-5gV5sys3s8HC0-BVKWcDnE8BInVjiqnUZC-32b1yBEsYrlDKik6zyhXzzO-Grpto1n-NQ-lVzQMTrKBbvGfgZP3p7D2_CXn7rM2RrF83dfsCvhKadZrfNHWsQ5rdgHrM8jblz26JDlTxznL4HD0vj7BAr0FeFo5fbRDUnPtK6qAGZa4BsDhxzirjOeBQUkEOHaWhfioS_8BAhXJ28xgRgDypFcNSBhlMQjyNeHbm-40u6FjBHGZYwKndVaFLragZds1XX9Z_dwUVJBbWfSuGP85faIGpZQIpyfonkEuv7G3Qu_m-RWGgYfWuDYkHnPg2cx2QQXvFLg7hEFogu58lkPw6DxRBwmhr9YYaL22aR20yrVTfGdCddyCE0FX6wcq2VCBCjLhb92cmfUh_CKKYT9RrCXcWJz8CK8ipd-4NSpFHp73HWveri-o3ruj8VyA80BKDx3C18fA-aOMHO9XbIbr0qWx0VTDToQC03q-q7lam2KymzPlBN3XLxU0VJn1-u-dX8AEP1b6M7w0LnuhTJgA1BAwX7QhNMh_m40]--></g></svg>