<svg xmlns="http://www.w3.org/2000/svg" xmlns:xlink="http://www.w3.org/1999/xlink" contentStyleType="text/css" data-diagram-type="ACTIVITY" height="399px" preserveAspectRatio="none" style="width:1294px;height:399px;background:#FFFFFF;" version="1.1" viewBox="0 0 1294 399" width="1294px" zoomAndPan="magnify"><title>3.11 &#31649;&#29702;&#27231;&#33021;&#12501;&#12525;&#12540;&#65288;Phase 2&#65289;&#27010;&#35201;</title><defs/><g><text fill="#000000" font-family="sans-serif" font-size="14" font-weight="bold" lengthAdjust="spacing" textLength="242.874" x="524.0894" y="34.5332">3.11 &#31649;&#29702;&#27231;&#33021;&#12501;&#12525;&#12540;&#65288;Phase 2&#65289;&#27010;&#35201;</text><ellipse cx="652.0264" cy="58.6094" fill="#222222" rx="10" ry="10" style="stroke:#222222;stroke-width:1;"/><rect fill="#F1F1F1" height="35.0938" rx="12.5" ry="12.5" style="stroke:#181818;stroke-width:0.5;" width="128" x="588.0264" y="88.6094"/><text fill="#000000" font-family="sans-serif" font-size="12" lengthAdjust="spacing" textLength="108" x="598.0264" y="111.0664">&#31649;&#29702;&#30011;&#38754;&#12395;&#12450;&#12463;&#12475;&#12473;</text><rect fill="#F1F1F1" height="35.0938" rx="12.5" ry="12.5" style="stroke:#181818;stroke-width:0.5;" width="148.0332" x="578.0098" y="143.7031"/><text fill="#000000" font-family="sans-serif" font-size="12" lengthAdjust="spacing" textLength="128.0332" x="588.0098" y="166.1602">Phase 2&#31649;&#29702;&#12479;&#12502;&#12434;&#36984;&#25246;</text><polygon fill="#F1F1F1" points="610.0264,198.7969,694.0264,198.7969,706.0264,210.7969,694.0264,222.7969,610.0264,222.7969,598.0264,210.7969,610.0264,198.7969" style="stroke:#181818;stroke-width:0.5;"/><text fill="#000000" font-family="sans-serif" font-size="12" lengthAdjust="spacing" textLength="84" x="610.0264" y="215.707">&#31649;&#29702;&#27231;&#33021;&#12434;&#36984;&#25246;</text><path d="M182.3438,286.2217 L182.3438,333.1006 L162.3438,337.1006 L182.3438,341.1006 L182.3438,387.9795 A0,0 0 0 0 182.3438,387.9795 L437.3438,387.9795 A0,0 0 0 0 437.3438,387.9795 L437.3438,296.2217 L427.3438,286.2217 L182.3438,286.2217 A0,0 0 0 0 182.3438,286.2217" fill="#FEFFDD" style="stroke:#181818;stroke-width:0.5;"/><path d="M427.3438,286.2217 L427.3438,296.2217 L437.3438,296.2217 L427.3438,286.2217" fill="#FEFFDD" style="stroke:#181818;stroke-width:0.5;"/><text fill="#000000" font-family="sans-serif" font-size="13" lengthAdjust="spacing" textLength="108.3672" x="188.3438" y="304.7168">&#35443;&#32048;&#12399; 3.11.1 &#21442;&#29031;</text><line style="stroke:#181818;stroke-width:1;" x1="182.3438" x2="437.3438" y1="312.5732" y2="312.5732"/><line style="stroke:#181818;stroke-width:1;" x1="182.3438" x2="437.3438" y1="314.5732" y2="314.5732"/><text fill="#000000" font-family="sans-serif" font-size="13" lengthAdjust="spacing" textLength="197.1709" x="188.3438" y="331.0684">DAG&#12456;&#12487;&#12451;&#12479;&#12391;&#12527;&#12540;&#12463;&#12501;&#12525;&#12540;&#23450;&#32681;</text><text fill="#000000" font-family="sans-serif" font-size="13" lengthAdjust="spacing" textLength="234" x="188.3438" y="347.4199">&#12539;&#12473;&#12486;&#12483;&#12503;&#36861;&#21152;&#65288;&#12514;&#12487;&#12523;&#12289;&#12503;&#12525;&#12531;&#12503;&#12488;&#65289;</text><text fill="#000000" font-family="sans-serif" font-size="13" lengthAdjust="spacing" textLength="176.9663" x="188.3438" y="363.7715">&#12539;&#20837;&#20986;&#21147;&#12510;&#12483;&#12500;&#12531;&#12464;&#65288;Jinja2&#65289;</text><text fill="#000000" font-family="sans-serif" font-size="13" lengthAdjust="spacing" textLength="91" x="188.3438" y="380.123">&#12539;&#26465;&#20214;&#20998;&#23696;&#35373;&#23450;</text><rect fill="#ADD8E6" height="35.0938" rx="12.5" ry="12.5" style="stroke:#181818;stroke-width:0.5;" width="151.3438" x="11" y="319.5537"/><text fill="#000000" font-family="sans-serif" font-size="12" lengthAdjust="spacing" textLength="131.3438" x="21" y="342.0107">LLM&#12527;&#12540;&#12463;&#12501;&#12525;&#12540;&#30011;&#38754;&#12408;</text><path d="M608.0527,286.2217 L608.0527,324.9248 L588.0527,328.9248 L608.0527,332.9248 L608.0527,371.6279 A0,0 0 0 0 608.0527,371.6279 L811.0527,371.6279 A0,0 0 0 0 811.0527,371.6279 L811.0527,296.2217 L801.0527,286.2217 L608.0527,286.2217 A0,0 0 0 0 608.0527,286.2217" fill="#FEFFDD" style="stroke:#181818;stroke-width:0.5;"/><path d="M801.0527,286.2217 L801.0527,296.2217 L811.0527,296.2217 L801.0527,286.2217" fill="#FEFFDD" style="stroke:#181818;stroke-width:0.5;"/><text fill="#000000" font-family="sans-serif" font-size="13" lengthAdjust="spacing" textLength="108.3672" x="614.0527" y="304.7168">&#35443;&#32048;&#12399; 3.11.2 &#21442;&#29031;</text><line style="stroke:#181818;stroke-width:1;" x1="608.0527" x2="811.0527" y1="312.5732" y2="312.5732"/><line style="stroke:#181818;stroke-width:1;" x1="608.0527" x2="811.0527" y1="314.5732" y2="314.5732"/><text fill="#000000" font-family="sans-serif" font-size="13" lengthAdjust="spacing" textLength="182" x="614.0527" y="331.0684">&#12514;&#12487;&#12523;&#20999;&#26367;&#12392;&#20877;&#29983;&#25104;&#12458;&#12503;&#12471;&#12519;&#12531;</text><text fill="#000000" font-family="sans-serif" font-size="13" lengthAdjust="spacing" textLength="181.3525" x="614.0527" y="347.4199">&#12539;text-embedding-3-small/large</text><text fill="#000000" font-family="sans-serif" font-size="13" lengthAdjust="spacing" textLength="148.7827" x="614.0527" y="363.7715">&#12539;&#26082;&#23384;&#20877;&#29983;&#25104; or &#26032;&#35215;&#12398;&#12415;</text><rect fill="#98FB98" height="35.0938" rx="12.5" ry="12.5" style="stroke:#181818;stroke-width:0.5;" width="140.709" x="447.3438" y="311.3779"/><text fill="#000000" font-family="sans-serif" font-size="12" lengthAdjust="spacing" textLength="120.709" x="457.3438" y="333.835">Embedding&#35373;&#23450;&#30011;&#38754;&#12408;</text><path d="M993.0527,286.2217 L993.0527,316.749 L973.0527,320.749 L993.0527,324.749 L993.0527,355.2764 A0,0 0 0 0 993.0527,355.2764 L1157.0527,355.2764 A0,0 0 0 0 1157.0527,355.2764 L1157.0527,296.2217 L1147.0527,286.2217 L993.0527,286.2217 A0,0 0 0 0 993.0527,286.2217" fill="#FEFFDD" style="stroke:#181818;stroke-width:0.5;"/><path d="M1147.0527,286.2217 L1147.0527,296.2217 L1157.0527,296.2217 L1147.0527,286.2217" fill="#FEFFDD" style="stroke:#181818;stroke-width:0.5;"/><text fill="#000000" font-family="sans-serif" font-size="13" lengthAdjust="spacing" textLength="108.3672" x="999.0527" y="304.7168">&#35443;&#32048;&#12399; 3.11.3 &#21442;&#29031;</text><line style="stroke:#181818;stroke-width:1;" x1="993.0527" x2="1157.0527" y1="312.5732" y2="312.5732"/><line style="stroke:#181818;stroke-width:1;" x1="993.0527" x2="1157.0527" y1="314.5732" y2="314.5732"/><text fill="#000000" font-family="sans-serif" font-size="13" lengthAdjust="spacing" textLength="143" x="999.0527" y="331.0684">&#12488;&#12540;&#12463;&#12531;&#25968;&#12539;&#12467;&#12473;&#12488;&#30435;&#35222;</text><text fill="#000000" font-family="sans-serif" font-size="13" lengthAdjust="spacing" textLength="109.0845" x="999.0527" y="347.4199">&#12539;OpenAI&#30452;&#25509;&#25509;&#32154;</text><rect fill="#FFFFE0" height="35.0938" rx="12.5" ry="12.5" style="stroke:#181818;stroke-width:0.5;" width="152" x="821.0527" y="303.2021"/><text fill="#000000" font-family="sans-serif" font-size="12" lengthAdjust="spacing" textLength="132" x="831.0527" y="325.6592">&#20351;&#29992;&#37327;&#12480;&#12483;&#12471;&#12517;&#12508;&#12540;&#12489;&#12408;</text><rect fill="#F1F1F1" height="35.0938" rx="12.5" ry="12.5" style="stroke:#181818;stroke-width:0.5;" width="116" x="1167.0527" y="272.3857"/><text fill="#000000" font-family="sans-serif" font-size="12" lengthAdjust="spacing" textLength="96" x="1177.0527" y="294.8428">&#31649;&#29702;&#30011;&#38754;&#12488;&#12483;&#12503;&#12408;</text><ellipse cx="1225.0527" cy="353.4795" fill="none" rx="11" ry="11" style="stroke:#222222;stroke-width:1;"/><ellipse cx="1225.0527" cy="353.4795" fill="#222222" rx="6" ry="6" style="stroke:#222222;stroke-width:1;"/><line style="stroke:#181818;stroke-width:1;" x1="652.0264" x2="652.0264" y1="68.6094" y2="88.6094"/><polygon fill="#181818" points="648.0264,78.6094,652.0264,88.6094,656.0264,78.6094,652.0264,82.6094" style="stroke:#181818;stroke-width:1;"/><line style="stroke:#181818;stroke-width:1;" x1="652.0264" x2="652.0264" y1="123.7031" y2="143.7031"/><polygon fill="#181818" points="648.0264,133.7031,652.0264,143.7031,656.0264,133.7031,652.0264,137.7031" style="stroke:#181818;stroke-width:1;"/><line style="stroke:#181818;stroke-width:1;" x1="1225.0527" x2="1225.0527" y1="307.4795" y2="342.4795"/><polygon fill="#181818" points="1221.0527,332.4795,1225.0527,342.4795,1229.0527,332.4795,1225.0527,336.4795" style="stroke:#181818;stroke-width:1;"/><line style="stroke:#181818;stroke-width:1;" x1="598.0264" x2="86.6719" y1="210.7969" y2="210.7969"/><line style="stroke:#181818;stroke-width:1;" x1="86.6719" x2="86.6719" y1="210.7969" y2="319.5537"/><polygon fill="#181818" points="82.6719,309.5537,86.6719,319.5537,90.6719,309.5537,86.6719,313.5537" style="stroke:#181818;stroke-width:1;"/><text fill="#000000" font-family="sans-serif" font-size="11" lengthAdjust="spacing" textLength="109.3984" x="86.6719" y="261.7988">LLM&#12527;&#12540;&#12463;&#12501;&#12525;&#12540;&#23450;&#32681;</text><text fill="#000000" font-family="sans-serif" font-size="11" lengthAdjust="spacing" textLength="34.8423" x="86.6719" y="275.6348">UC 5-6</text><line style="stroke:#181818;stroke-width:1;" x1="706.0264" x2="1225.0527" y1="210.7969" y2="210.7969"/><line style="stroke:#181818;stroke-width:1;" x1="1225.0527" x2="1225.0527" y1="210.7969" y2="272.3857"/><polygon fill="#181818" points="1221.0527,262.3857,1225.0527,272.3857,1229.0527,262.3857,1225.0527,266.3857" style="stroke:#181818;stroke-width:1;"/><text fill="#000000" font-family="sans-serif" font-size="11" lengthAdjust="spacing" textLength="22" x="1225.0527" y="245.1328">&#25147;&#12427;</text><line style="stroke:#181818;stroke-width:1;" x1="517.6982" x2="517.6982" y1="210.7969" y2="311.3779"/><polygon fill="#181818" points="513.6982,301.3779,517.6982,311.3779,521.6982,301.3779,517.6982,305.3779" style="stroke:#181818;stroke-width:1;"/><text fill="#000000" font-family="sans-serif" font-size="11" lengthAdjust="spacing" textLength="110.6499" x="517.6982" y="252.7109">Embedding&#12514;&#12487;&#12523;&#35373;&#23450;</text><text fill="#000000" font-family="sans-serif" font-size="11" lengthAdjust="spacing" textLength="34.8423" x="517.6982" y="266.5469">UC 5-9</text><line style="stroke:#181818;stroke-width:1;" x1="897.0527" x2="897.0527" y1="210.7969" y2="303.2021"/><polygon fill="#181818" points="893.0527,293.2021,897.0527,303.2021,901.0527,293.2021,897.0527,297.2021" style="stroke:#181818;stroke-width:1;"/><text fill="#000000" font-family="sans-serif" font-size="11" lengthAdjust="spacing" textLength="110.6499" x="897.0527" y="248.623">Embedding&#20351;&#29992;&#37327;&#30435;&#35222;</text><text fill="#000000" font-family="sans-serif" font-size="11" lengthAdjust="spacing" textLength="40.96" x="897.0527" y="262.459">UC 5-10</text><line style="stroke:#181818;stroke-width:1;" x1="652.0264" x2="652.0264" y1="178.7969" y2="198.7969"/><polygon fill="#181818" points="648.0264,188.7969,652.0264,198.7969,656.0264,188.7969,652.0264,192.7969" style="stroke:#181818;stroke-width:1;"/><!--SRC=[bPDFJnD16CRl-oacyGA7eYtHn18F1D5eC9eGRrwMTjAkBhDDEueO3knCQ1U8GamfQWMaX58aG6C98d_iXtdPFptn5PpPTbSnO72pXzcTvttcUN_xRkw5HZ9gLXr5_GcglTBe-3s3q67j3KRHc98BTmSCajIePf11aXocupf6QLqZM56eHiL3RqyqYjoTLNS-xsokUFm4-0BmRU37PyVMaxIQmoXsTZpjL9bNDHLbebMQTJyUUfDJ4qgEgbcgnDl5Rl6ejLG1SmjO1TWki2DWF_gKUCUYBGBM15u2zhvb7ZWpotr_-OrfD956NUVI1Dfk9I6DkeQ67W7V5V7a8K5KU-UJ-tFp6NawW6v6RdKh25tJjLIQZkWlSVp2YY3kGPyG4uDYb9K5uW4XRxFXxjN1tFNXz4IHFSVSgGr_xuwu_CNT_ll0Qi0BmDPaM-R6PR5yEN390tWUE0U-w3LFx9alWZ3mYlJWMp1fYlT-NSDVM89wK6fFhTk5Gtkc37pPDoXA5QiBWuSQUQx6_j0wIwkdH_ksbRU_pNkrRP51x62IzBiKooIcQYBTeJauEeAJIOsamXpjaWxAspxAZAhZL1PZ4W_bRTL_G8nT234yrROAJbb0hDdvjsvnnR7cWNsL6DXtu89i8-YEujSqWeCOaTv8RbJLzUkwcatXaC1YnTx-43eX8ukSKjshpe6v0sRpAZXEJvfkiTOgpBdbDQzQwk28tlWzMkDOrusnU2W4FYc_ZCox3lopd0G-VIKqlPUWiO9fQZWBTNz-6lu8MUrCGRUFCvZqFt3BUywxTN6x-__wteubR6Pb5-T_MtcOdCjEu1mrCehmQF-HoYy0]--></g></svg>