<svg xmlns="http://www.w3.org/2000/svg" xmlns:xlink="http://www.w3.org/1999/xlink" contentStyleType="text/css" data-diagram-type="ACTIVITY" height="1196px" preserveAspectRatio="none" style="width:1466px;height:1196px;background:#FFFFFF;" version="1.1" viewBox="0 0 1466 1196" width="1466px" zoomAndPan="magnify"><title>3.11.3 Embedding&#20351;&#29992;&#37327;&#30435;&#35222;&#12501;&#12525;&#12540;&#65288;UC 5-10&#65289;</title><defs/><g><text fill="#000000" font-family="sans-serif" font-size="14" font-weight="bold" lengthAdjust="spacing" textLength="315.54" x="574.0588" y="34.5332">3.11.3 Embedding&#20351;&#29992;&#37327;&#30435;&#35222;&#12501;&#12525;&#12540;&#65288;UC 5-10&#65289;</text><rect fill="none" height="22.6406" style="stroke:none;stroke-width:1;" width="1433.6577" x="15" y="51.0645"/><ellipse cx="170.3369" cy="88.7051" fill="#222222" rx="10" ry="10" style="stroke:#222222;stroke-width:1;"/><rect fill="#F1F1F1" height="35.0938" rx="12.5" ry="12.5" style="stroke:#181818;stroke-width:0.5;" width="176" x="82.3369" y="118.7051"/><text fill="#000000" font-family="sans-serif" font-size="12" lengthAdjust="spacing" textLength="156" x="92.3369" y="141.1621">&#20351;&#29992;&#37327;&#12480;&#12483;&#12471;&#12517;&#12508;&#12540;&#12489;&#12434;&#38283;&#12367;</text><path d="M230.3369,444.7988 L230.3369,486.6777 L210.3369,490.6777 L230.3369,494.6777 L230.3369,536.5566 A0,0 0 0 0 230.3369,536.5566 L331.7744,536.5566 A0,0 0 0 0 331.7744,536.5566 L331.7744,454.7988 L321.7744,444.7988 L230.3369,444.7988 A0,0 0 0 0 230.3369,444.7988" fill="#FEFFDD" style="stroke:#181818;stroke-width:0.5;"/><path d="M321.7744,444.7988 L321.7744,454.7988 L331.7744,454.7988 L321.7744,444.7988" fill="#FEFFDD" style="stroke:#181818;stroke-width:0.5;"/><text fill="#000000" font-family="sans-serif" font-size="13" font-weight="bold" lengthAdjust="spacing" textLength="80.4375" x="236.3369" y="463.2939">&#36984;&#25246;&#21487;&#33021;&#26399;&#38291;</text><text fill="#000000" font-family="sans-serif" font-size="13" lengthAdjust="spacing" textLength="39" x="236.3369" y="479.6455">&#12539;&#26085;&#27425;</text><text fill="#000000" font-family="sans-serif" font-size="13" lengthAdjust="spacing" textLength="39" x="236.3369" y="495.9971">&#12539;&#36913;&#27425;</text><text fill="#000000" font-family="sans-serif" font-size="13" lengthAdjust="spacing" textLength="39" x="236.3369" y="512.3486">&#12539;&#26376;&#27425;</text><text fill="#000000" font-family="sans-serif" font-size="13" lengthAdjust="spacing" textLength="65" x="236.3369" y="528.7002">&#12539;&#12459;&#12473;&#12479;&#12512;</text><rect fill="#F1F1F1" height="35.0938" rx="12.5" ry="12.5" style="stroke:#181818;stroke-width:0.5;" width="80" x="130.3369" y="473.1309"/><text fill="#000000" font-family="sans-serif" font-size="12" lengthAdjust="spacing" textLength="60" x="140.3369" y="495.5879">&#26399;&#38291;&#12434;&#36984;&#25246;</text><polygon fill="#F1F1F1" points="107,776.9316,233.6738,776.9316,245.6738,788.9316,233.6738,800.9316,107,800.9316,95,788.9316,107,776.9316" style="stroke:#181818;stroke-width:0.5;"/><text fill="#000000" font-family="sans-serif" font-size="12" lengthAdjust="spacing" textLength="126.6738" x="107" y="793.8418">&#12522;&#12450;&#12523;&#12479;&#12452;&#12512;&#27531;&#39640;&#30906;&#35469;?</text><text fill="#000000" font-family="sans-serif" font-size="11" lengthAdjust="spacing" textLength="22" x="73" y="786.5146">&#12399;&#12356;</text><text fill="#000000" font-family="sans-serif" font-size="11" lengthAdjust="spacing" textLength="33" x="245.6738" y="786.5146">&#12356;&#12356;&#12360;</text><rect fill="#F1F1F1" height="35.0938" rx="12.5" ry="12.5" style="stroke:#181818;stroke-width:0.5;" width="128" x="21" y="810.9316"/><text fill="#000000" font-family="sans-serif" font-size="12" lengthAdjust="spacing" textLength="108" x="31" y="833.3887">&#27531;&#39640;&#30906;&#35469;&#12434;&#12463;&#12522;&#12483;&#12463;</text><rect fill="#F1F1F1" height="35.0938" rx="12.5" ry="12.5" style="stroke:#181818;stroke-width:0.5;" width="140" x="185.6738" y="810.9316"/><text fill="#000000" font-family="sans-serif" font-size="12" lengthAdjust="spacing" textLength="120" x="195.6738" y="833.3887">&#12480;&#12483;&#12471;&#12517;&#12508;&#12540;&#12489;&#12434;&#30906;&#35469;</text><ellipse cx="255.6738" cy="877.0254" fill="none" rx="11" ry="11" style="stroke:#222222;stroke-width:1;"/><ellipse cx="255.6738" cy="877.0254" fill="#222222" rx="6" ry="6" style="stroke:#222222;stroke-width:1;"/><rect fill="#F1F1F1" height="35.0938" rx="12.5" ry="12.5" style="stroke:#181818;stroke-width:0.5;" width="80" x="130.3369" y="1107.4238"/><text fill="#000000" font-family="sans-serif" font-size="12" lengthAdjust="spacing" textLength="60" x="140.3369" y="1129.8809">&#27531;&#39640;&#12434;&#30906;&#35469;</text><ellipse cx="170.3369" cy="1173.5176" fill="none" rx="11" ry="11" style="stroke:#222222;stroke-width:1;"/><ellipse cx="170.3369" cy="1173.5176" fill="#222222" rx="6" ry="6" style="stroke:#222222;stroke-width:1;"/><line style="stroke:#000000;stroke-width:1.5;" x1="15" x2="15" y1="51.0645" y2="1184.5176"/><rect fill="#F1F1F1" height="35.0938" rx="12.5" ry="12.5" style="stroke:#181818;stroke-width:0.5;" width="176" x="342.7744" y="173.7988"/><text fill="#000000" font-family="sans-serif" font-size="12" lengthAdjust="spacing" textLength="156" x="352.7744" y="196.2559">&#12480;&#12483;&#12471;&#12517;&#12508;&#12540;&#12489;&#12487;&#12540;&#12479;&#12434;&#35201;&#27714;</text><path d="M520.7744,359.3926 L520.7744,393.0957 L500.7744,397.0957 L520.7744,401.0957 L520.7744,434.7988 A0,0 0 0 0 520.7744,434.7988 L684.7744,434.7988 A0,0 0 0 0 684.7744,434.7988 L684.7744,369.3926 L674.7744,359.3926 L520.7744,359.3926 A0,0 0 0 0 520.7744,359.3926" fill="#FEFFDD" style="stroke:#181818;stroke-width:0.5;"/><path d="M674.7744,359.3926 L674.7744,369.3926 L684.7744,369.3926 L674.7744,359.3926" fill="#FEFFDD" style="stroke:#181818;stroke-width:0.5;"/><text fill="#000000" font-family="sans-serif" font-size="13" font-weight="bold" lengthAdjust="spacing" textLength="53.625" x="526.7744" y="377.8877">&#34920;&#31034;&#20869;&#23481;</text><text fill="#000000" font-family="sans-serif" font-size="13" lengthAdjust="spacing" textLength="143" x="526.7744" y="394.2393">&#12539;&#12488;&#12540;&#12463;&#12531;&#20351;&#29992;&#37327;&#12464;&#12521;&#12501;</text><text fill="#000000" font-family="sans-serif" font-size="13" lengthAdjust="spacing" textLength="117" x="526.7744" y="410.5908">&#12539;&#12467;&#12473;&#12488;&#25512;&#31227;&#12464;&#12521;&#12501;</text><text fill="#000000" font-family="sans-serif" font-size="13" lengthAdjust="spacing" textLength="117" x="526.7744" y="426.9424">&#12539;&#12514;&#12487;&#12523;&#21029;&#12486;&#12540;&#12502;&#12523;</text><rect fill="#F1F1F1" height="35.0938" rx="12.5" ry="12.5" style="stroke:#181818;stroke-width:0.5;" width="140" x="360.7744" y="379.5488"/><text fill="#000000" font-family="sans-serif" font-size="12" lengthAdjust="spacing" textLength="120" x="370.7744" y="402.0059">&#12480;&#12483;&#12471;&#12517;&#12508;&#12540;&#12489;&#12434;&#34920;&#31034;</text><rect fill="#F1F1F1" height="35.0938" rx="12.5" ry="12.5" style="stroke:#181818;stroke-width:0.5;" width="164" x="348.7744" y="556.5566"/><text fill="#000000" font-family="sans-serif" font-size="12" lengthAdjust="spacing" textLength="144" x="358.7744" y="579.0137">&#36984;&#25246;&#26399;&#38291;&#12391;&#12487;&#12540;&#12479;&#12434;&#20877;&#21462;&#24471;</text><rect fill="#F1F1F1" height="35.0938" rx="12.5" ry="12.5" style="stroke:#181818;stroke-width:0.5;" width="152" x="354.7744" y="721.8379"/><text fill="#000000" font-family="sans-serif" font-size="12" lengthAdjust="spacing" textLength="132" x="364.7744" y="744.2949">&#12464;&#12521;&#12501;&#12539;&#12486;&#12540;&#12502;&#12523;&#12434;&#26356;&#26032;</text><rect fill="#F1F1F1" height="35.0938" rx="12.5" ry="12.5" style="stroke:#181818;stroke-width:0.5;" width="120.6934" x="370.4277" y="908.0254"/><text fill="#000000" font-family="sans-serif" font-size="12" lengthAdjust="spacing" textLength="100.6934" x="380.4277" y="930.4824">OpenAI&#27531;&#39640;&#12434;&#35201;&#27714;</text><path d="M502.7744,1012.0176 L502.7744,1045.7207 L482.7744,1049.7207 L502.7744,1053.7207 L502.7744,1087.4238 A0,0 0 0 0 502.7744,1087.4238 L614.7744,1087.4238 A0,0 0 0 0 614.7744,1087.4238 L614.7744,1022.0176 L604.7744,1012.0176 L502.7744,1012.0176 A0,0 0 0 0 502.7744,1012.0176" fill="#FEFFDD" style="stroke:#181818;stroke-width:0.5;"/><path d="M604.7744,1012.0176 L604.7744,1022.0176 L614.7744,1022.0176 L604.7744,1012.0176" fill="#FEFFDD" style="stroke:#181818;stroke-width:0.5;"/><text fill="#000000" font-family="sans-serif" font-size="13" font-weight="bold" lengthAdjust="spacing" textLength="53.625" x="508.7744" y="1030.5127">&#34920;&#31034;&#20869;&#23481;</text><text fill="#000000" font-family="sans-serif" font-size="13" lengthAdjust="spacing" textLength="78" x="508.7744" y="1046.8643">&#12539;&#29694;&#22312;&#12398;&#27531;&#39640;</text><text fill="#000000" font-family="sans-serif" font-size="13" lengthAdjust="spacing" textLength="91" x="508.7744" y="1063.2158">&#12539;&#20170;&#26376;&#12398;&#20351;&#29992;&#37327;</text><text fill="#000000" font-family="sans-serif" font-size="13" lengthAdjust="spacing" textLength="91" x="508.7744" y="1079.5674">&#12539;&#27531;&#12426;&#26085;&#25968;&#20104;&#28204;</text><rect fill="#F1F1F1" height="35.0938" rx="12.5" ry="12.5" style="stroke:#181818;stroke-width:0.5;" width="104" x="378.7744" y="1032.1738"/><text fill="#000000" font-family="sans-serif" font-size="12" lengthAdjust="spacing" textLength="84" x="388.7744" y="1054.6309">&#27531;&#39640;&#24773;&#22577;&#12434;&#34920;&#31034;</text><line style="stroke:#000000;stroke-width:1.5;" x1="336.7744" x2="336.7744" y1="51.0645" y2="1184.5176"/><path d="M912.543,218.8926 L912.543,252.5957 L892.543,256.5957 L912.543,260.5957 L912.543,294.2988 A0,0 0 0 0 912.543,294.2988 L1037.543,294.2988 A0,0 0 0 0 1037.543,294.2988 L1037.543,228.8926 L1027.543,218.8926 L912.543,218.8926 A0,0 0 0 0 912.543,218.8926" fill="#FEFFDD" style="stroke:#181818;stroke-width:0.5;"/><path d="M1027.543,218.8926 L1027.543,228.8926 L1037.543,228.8926 L1027.543,218.8926" fill="#FEFFDD" style="stroke:#181818;stroke-width:0.5;"/><text fill="#000000" font-family="sans-serif" font-size="13" font-weight="bold" lengthAdjust="spacing" textLength="53.625" x="918.543" y="237.3877">&#38598;&#35336;&#38917;&#30446;</text><text fill="#000000" font-family="sans-serif" font-size="13" lengthAdjust="spacing" textLength="104" x="918.543" y="253.7393">&#12539;&#26085;&#27425;&#12488;&#12540;&#12463;&#12531;&#25968;</text><text fill="#000000" font-family="sans-serif" font-size="13" lengthAdjust="spacing" textLength="78" x="918.543" y="270.0908">&#12539;&#26085;&#27425;&#12467;&#12473;&#12488;</text><text fill="#000000" font-family="sans-serif" font-size="13" lengthAdjust="spacing" textLength="91" x="918.543" y="286.4424">&#12539;&#12514;&#12487;&#12523;&#21029;&#20869;&#35379;</text><rect fill="#F1F1F1" height="50.1875" rx="12.5" ry="12.5" style="stroke:#181818;stroke-width:0.5;" width="171.4355" x="721.1074" y="231.502"/><text fill="#000000" font-family="sans-serif" font-size="12" lengthAdjust="spacing" textLength="151.4355" x="731.1074" y="253.959">embedding_usage_logs&#12363;&#12425;</text><text fill="#000000" font-family="sans-serif" font-size="12" lengthAdjust="spacing" textLength="108" x="731.1074" y="269.0527">&#20351;&#29992;&#37327;&#12487;&#12540;&#12479;&#12434;&#38598;&#35336;</text><rect fill="#F1F1F1" height="35.0938" rx="12.5" ry="12.5" style="stroke:#181818;stroke-width:0.5;" width="222.1016" x="695.7744" y="314.2988"/><text fill="#000000" font-family="sans-serif" font-size="12" lengthAdjust="spacing" textLength="202.1016" x="705.7744" y="336.7559">embedding_usage_daily&#12499;&#12517;&#12540;&#12434;&#36820;&#21364;</text><rect fill="#F1F1F1" height="35.0938" rx="12.5" ry="12.5" style="stroke:#181818;stroke-width:0.5;" width="152" x="730.8252" y="611.6504"/><text fill="#000000" font-family="sans-serif" font-size="12" lengthAdjust="spacing" textLength="132" x="740.8252" y="634.1074">&#25351;&#23450;&#26399;&#38291;&#12398;&#20351;&#29992;&#37327;&#12434;&#38598;&#35336;</text><rect fill="#F1F1F1" height="35.0938" rx="12.5" ry="12.5" style="stroke:#181818;stroke-width:0.5;" width="104" x="754.8252" y="666.7441"/><text fill="#000000" font-family="sans-serif" font-size="12" lengthAdjust="spacing" textLength="84" x="764.8252" y="689.2012">&#38598;&#35336;&#32080;&#26524;&#12434;&#36820;&#21364;</text><line style="stroke:#000000;stroke-width:1.5;" x1="689.7744" x2="689.7744" y1="51.0645" y2="1184.5176"/><path d="M1232.543,959.3145 L1232.543,976.666 L1212.543,980.666 L1232.543,984.666 L1232.543,1002.0176 A0,0 0 0 0 1232.543,1002.0176 L1442.1572,1002.0176 A0,0 0 0 0 1442.1572,1002.0176 L1442.1572,969.3145 L1432.1572,959.3145 L1232.543,959.3145 A0,0 0 0 0 1232.543,959.3145" fill="#FEFFDD" style="stroke:#181818;stroke-width:0.5;"/><path d="M1432.1572,959.3145 L1432.1572,969.3145 L1442.1572,969.3145 L1432.1572,959.3145" fill="#FEFFDD" style="stroke:#181818;stroke-width:0.5;"/><text fill="#000000" font-family="sans-serif" font-size="13" font-weight="bold" lengthAdjust="spacing" textLength="99.8486" x="1238.543" y="977.8096">OpenAI&#30452;&#25509;&#25509;&#32154;</text><text fill="#000000" font-family="sans-serif" font-size="13" lengthAdjust="spacing" textLength="188.6143" x="1238.543" y="994.1611">GET /v1/dashboard/billing/usage</text><rect fill="#F1F1F1" height="35.0938" rx="12.5" ry="12.5" style="stroke:#181818;stroke-width:0.5;" width="164" x="1048.543" y="963.1191"/><text fill="#000000" font-family="sans-serif" font-size="12" lengthAdjust="spacing" textLength="144" x="1058.543" y="985.5762">&#29694;&#22312;&#12398;&#27531;&#39640;&#12539;&#20351;&#29992;&#37327;&#12434;&#36820;&#21364;</text><line style="stroke:#000000;stroke-width:1.5;" x1="1042.543" x2="1042.543" y1="51.0645" y2="1184.5176"/><line style="stroke:#000000;stroke-width:1.5;" x1="1447.1572" x2="1447.1572" y1="51.0645" y2="1184.5176"/><line style="stroke:#181818;stroke-width:1;" x1="170.3369" x2="170.3369" y1="98.7051" y2="118.7051"/><polygon fill="#181818" points="166.3369,108.7051,170.3369,118.7051,174.3369,108.7051,170.3369,112.7051" style="stroke:#181818;stroke-width:1;"/><line style="stroke:#181818;stroke-width:1;" x1="255.6738" x2="255.6738" y1="846.0254" y2="866.0254"/><polygon fill="#181818" points="251.6738,856.0254,255.6738,866.0254,259.6738,856.0254,255.6738,860.0254" style="stroke:#181818;stroke-width:1;"/><line style="stroke:#181818;stroke-width:1;" x1="95" x2="85" y1="788.9316" y2="788.9316"/><line style="stroke:#181818;stroke-width:1;" x1="85" x2="85" y1="788.9316" y2="810.9316"/><polygon fill="#181818" points="81,800.9316,85,810.9316,89,800.9316,85,804.9316" style="stroke:#181818;stroke-width:1;"/><line style="stroke:#181818;stroke-width:1;" x1="245.6738" x2="255.6738" y1="788.9316" y2="788.9316"/><line style="stroke:#181818;stroke-width:1;" x1="255.6738" x2="255.6738" y1="788.9316" y2="810.9316"/><polygon fill="#181818" points="251.6738,800.9316,255.6738,810.9316,259.6738,800.9316,255.6738,804.9316" style="stroke:#181818;stroke-width:1;"/><line style="stroke:#181818;stroke-width:1;" x1="85" x2="85" y1="846.0254" y2="893.0254"/><line style="stroke:#181818;stroke-width:1;" x1="85" x2="430.7744" y1="893.0254" y2="893.0254"/><line style="stroke:#181818;stroke-width:1;" x1="430.7744" x2="430.7744" y1="893.0254" y2="908.0254"/><polygon fill="#181818" points="426.7744,898.0254,430.7744,908.0254,434.7744,898.0254,430.7744,902.0254" style="stroke:#181818;stroke-width:1;"/><line style="stroke:#181818;stroke-width:1;" x1="170.3369" x2="170.3369" y1="1142.5176" y2="1162.5176"/><polygon fill="#181818" points="166.3369,1152.5176,170.3369,1162.5176,174.3369,1152.5176,170.3369,1156.5176" style="stroke:#181818;stroke-width:1;"/><line style="stroke:#181818;stroke-width:1;" x1="806.8252" x2="806.8252" y1="281.6895" y2="314.2988"/><polygon fill="#181818" points="802.8252,304.2988,806.8252,314.2988,810.8252,304.2988,806.8252,308.2988" style="stroke:#181818;stroke-width:1;"/><line style="stroke:#181818;stroke-width:1;" x1="806.8252" x2="806.8252" y1="646.7441" y2="666.7441"/><polygon fill="#181818" points="802.8252,656.7441,806.8252,666.7441,810.8252,656.7441,806.8252,660.7441" style="stroke:#181818;stroke-width:1;"/><line style="stroke:#181818;stroke-width:1;" x1="170.3369" x2="170.3369" y1="153.7988" y2="158.7988"/><line style="stroke:#181818;stroke-width:1;" x1="170.3369" x2="430.7744" y1="158.7988" y2="158.7988"/><line style="stroke:#181818;stroke-width:1;" x1="430.7744" x2="430.7744" y1="158.7988" y2="173.7988"/><polygon fill="#181818" points="426.7744,163.7988,430.7744,173.7988,434.7744,163.7988,430.7744,167.7988" style="stroke:#181818;stroke-width:1;"/><line style="stroke:#181818;stroke-width:1;" x1="430.7744" x2="430.7744" y1="208.8926" y2="213.8926"/><line style="stroke:#181818;stroke-width:1;" x1="430.7744" x2="806.8252" y1="213.8926" y2="213.8926"/><line style="stroke:#181818;stroke-width:1;" x1="806.8252" x2="806.8252" y1="213.8926" y2="231.502"/><polygon fill="#181818" points="802.8252,221.502,806.8252,231.502,810.8252,221.502,806.8252,225.502" style="stroke:#181818;stroke-width:1;"/><line style="stroke:#181818;stroke-width:1;" x1="806.8252" x2="806.8252" y1="349.3926" y2="354.3926"/><line style="stroke:#181818;stroke-width:1;" x1="806.8252" x2="430.7744" y1="354.3926" y2="354.3926"/><line style="stroke:#181818;stroke-width:1;" x1="430.7744" x2="430.7744" y1="354.3926" y2="379.5488"/><polygon fill="#181818" points="426.7744,369.5488,430.7744,379.5488,434.7744,369.5488,430.7744,373.5488" style="stroke:#181818;stroke-width:1;"/><line style="stroke:#181818;stroke-width:1;" x1="430.7744" x2="430.7744" y1="414.6426" y2="439.7988"/><line style="stroke:#181818;stroke-width:1;" x1="430.7744" x2="170.3369" y1="439.7988" y2="439.7988"/><line style="stroke:#181818;stroke-width:1;" x1="170.3369" x2="170.3369" y1="439.7988" y2="473.1309"/><polygon fill="#181818" points="166.3369,463.1309,170.3369,473.1309,174.3369,463.1309,170.3369,467.1309" style="stroke:#181818;stroke-width:1;"/><line style="stroke:#181818;stroke-width:1;" x1="170.3369" x2="170.3369" y1="508.2246" y2="539.8906"/><line style="stroke:#181818;stroke-width:1;" x1="170.3369" x2="430.7744" y1="539.8906" y2="539.8906"/><line style="stroke:#181818;stroke-width:1;" x1="430.7744" x2="430.7744" y1="539.8906" y2="556.5566"/><polygon fill="#181818" points="426.7744,546.5566,430.7744,556.5566,434.7744,546.5566,430.7744,550.5566" style="stroke:#181818;stroke-width:1;"/><line style="stroke:#181818;stroke-width:1;" x1="430.7744" x2="430.7744" y1="591.6504" y2="596.6504"/><line style="stroke:#181818;stroke-width:1;" x1="430.7744" x2="806.8252" y1="596.6504" y2="596.6504"/><line style="stroke:#181818;stroke-width:1;" x1="806.8252" x2="806.8252" y1="596.6504" y2="611.6504"/><polygon fill="#181818" points="802.8252,601.6504,806.8252,611.6504,810.8252,601.6504,806.8252,605.6504" style="stroke:#181818;stroke-width:1;"/><line style="stroke:#181818;stroke-width:1;" x1="806.8252" x2="806.8252" y1="701.8379" y2="706.8379"/><line style="stroke:#181818;stroke-width:1;" x1="806.8252" x2="430.7744" y1="706.8379" y2="706.8379"/><line style="stroke:#181818;stroke-width:1;" x1="430.7744" x2="430.7744" y1="706.8379" y2="721.8379"/><polygon fill="#181818" points="426.7744,711.8379,430.7744,721.8379,434.7744,711.8379,430.7744,715.8379" style="stroke:#181818;stroke-width:1;"/><line style="stroke:#181818;stroke-width:1;" x1="430.7744" x2="430.7744" y1="756.9316" y2="761.9316"/><line style="stroke:#181818;stroke-width:1;" x1="430.7744" x2="170.3369" y1="761.9316" y2="761.9316"/><line style="stroke:#181818;stroke-width:1;" x1="170.3369" x2="170.3369" y1="761.9316" y2="776.9316"/><polygon fill="#181818" points="166.3369,766.9316,170.3369,776.9316,174.3369,766.9316,170.3369,770.9316" style="stroke:#181818;stroke-width:1;"/><line style="stroke:#181818;stroke-width:1;" x1="430.7744" x2="430.7744" y1="943.1191" y2="948.1191"/><line style="stroke:#181818;stroke-width:1;" x1="430.7744" x2="1130.543" y1="948.1191" y2="948.1191"/><line style="stroke:#181818;stroke-width:1;" x1="1130.543" x2="1130.543" y1="948.1191" y2="963.1191"/><polygon fill="#181818" points="1126.543,953.1191,1130.543,963.1191,1134.543,953.1191,1130.543,957.1191" style="stroke:#181818;stroke-width:1;"/><line style="stroke:#181818;stroke-width:1;" x1="1130.543" x2="1130.543" y1="998.2129" y2="1007.0176"/><line style="stroke:#181818;stroke-width:1;" x1="1130.543" x2="430.7744" y1="1007.0176" y2="1007.0176"/><line style="stroke:#181818;stroke-width:1;" x1="430.7744" x2="430.7744" y1="1007.0176" y2="1032.1738"/><polygon fill="#181818" points="426.7744,1022.1738,430.7744,1032.1738,434.7744,1022.1738,430.7744,1026.1738" style="stroke:#181818;stroke-width:1;"/><line style="stroke:#181818;stroke-width:1;" x1="430.7744" x2="430.7744" y1="1067.2676" y2="1092.4238"/><line style="stroke:#181818;stroke-width:1;" x1="430.7744" x2="170.3369" y1="1092.4238" y2="1092.4238"/><line style="stroke:#181818;stroke-width:1;" x1="170.3369" x2="170.3369" y1="1092.4238" y2="1107.4238"/><polygon fill="#181818" points="166.3369,1097.4238,170.3369,1107.4238,174.3369,1097.4238,170.3369,1101.4238" style="stroke:#181818;stroke-width:1;"/><text fill="#000000" font-family="sans-serif" font-size="18" lengthAdjust="spacing" textLength="54" x="148.8872" y="69.75">&#38283;&#30330;&#32773;</text><text fill="#000000" font-family="sans-serif" font-size="18" lengthAdjust="spacing" textLength="137.0654" x="444.7417" y="69.75">Frontend Service</text><text fill="#000000" font-family="sans-serif" font-size="18" lengthAdjust="spacing" textLength="81.0703" x="825.6235" y="69.75">Supabase</text><text fill="#000000" font-family="sans-serif" font-size="18" lengthAdjust="spacing" textLength="95.0537" x="1197.3232" y="69.75">OpenAI API</text><!--SRC=[bLHFJzim7BtdK-GuAeskGxkqXmaXc3XjKhSpIebfhPMaQW8I4mSIqnB-TXfGDbenO1GwojeYs0PjWGzZugGdliASf2bfWI6a79oVVyz-x_dPqaSe9BWaDyxsZyfm4ifJGw8WX-4dm0PUCb9xTa0KU2X3KHWK-B0y5GTiB0u5m30obEbFNsyWqDl73ev70Cz38NfzSMMi5Pjp6IFtmzpFOhIEqI-C6ZSDxSC0- -fvuCLDOvvXfflPHUDRpPn9JJEIp2Lb9jX6OZI34SBgNumA6EKf6ADvh7wX4AnaGXGybAHKWS2pOP2SXADWcWdU3q9pra2zecXpNo77geKEJoIu22TPAE3I7fcGk2WOYOjH2IkBM9rdF7Hk5sdcqcPH2p62A0Cs2QCncM5PdyyfDxTJHgxiyz4IHdMoKI17EnXfDhY2qGbPhtPCgITOFQSDJX6ZNNkdaguLz7JAB9umba9hf_zpvZaOdy9erHRUi9HUhUdBfq_oYO9sYiPUxOuofqpvwELpLvbNqwrBQXMZd_IuMpskEB9ID0xgtRCUhHYbRH8qAYMlOaz0WYJ_lPbTjVnNpiZ2rbt_xRAUgPZemkdjF0Ldt9mvRez9NckFiLgokD83HjjU1lUuvspKegCSUAEXfvVrJ5Q_tEYA65cQqykRBgJiCQoTfev-fsZy_aosyeyUfckhxUcjZnH7SgSaMmrr6Wd7s6SO7M9rrswYjFUePb9UR9Q-6hiryt3vTGyhnu10svGALcPxg4D1xpnTsJxuGpj4bH03uXAmkcVjJxC13sNCMI94MoHPJ5XMmx7xXRrD0A5_sDcuu-uw4sp_ks7QPMGkzNoHcjfgH7MlkwvpNLbnLZ2eFIi5-Xb_Dksil1byp_ed0twUas8HaKlo_WYCquSkwhTlsIEvS0WGbDAtZvzscReqECNh-W8Dg3SjhTIMwTEqO6LwlNfTqyZPqOCtnhNEzTns_1y0]--></g></svg>