<svg xmlns="http://www.w3.org/2000/svg" xmlns:xlink="http://www.w3.org/1999/xlink" contentStyleType="text/css" data-diagram-type="ACTIVITY" height="1405px" preserveAspectRatio="none" style="width:1203px;height:1405px;background:#FFFFFF;" version="1.1" viewBox="0 0 1203 1405" width="1203px" zoomAndPan="magnify"><title>3.11.2 Embedding&#12514;&#12487;&#12523;&#35373;&#23450;&#12501;&#12525;&#12540;&#65288;UC 5-9&#65289;</title><defs/><g><text fill="#000000" font-family="sans-serif" font-size="14" font-weight="bold" lengthAdjust="spacing" textLength="307.7539" x="446.2573" y="34.5332">3.11.2 Embedding&#12514;&#12487;&#12523;&#35373;&#23450;&#12501;&#12525;&#12540;&#65288;UC 5-9&#65289;</text><rect fill="none" height="22.6406" style="stroke:none;stroke-width:1;" width="1170.2686" x="15" y="51.0645"/><ellipse cx="135" cy="88.7051" fill="#222222" rx="10" ry="10" style="stroke:#222222;stroke-width:1;"/><rect fill="#F1F1F1" height="35.0938" rx="12.5" ry="12.5" style="stroke:#181818;stroke-width:0.5;" width="164.709" x="52.6455" y="118.7051"/><text fill="#000000" font-family="sans-serif" font-size="12" lengthAdjust="spacing" textLength="144.709" x="62.6455" y="141.1621">Embedding&#35373;&#23450;&#30011;&#38754;&#12434;&#38283;&#12367;</text><path d="M201,390.8379 L201,424.541 L181,428.541 L201,432.541 L201,466.2441 A0,0 0 0 0 201,466.2441 L376.6479,466.2441 A0,0 0 0 0 376.6479,466.2441 L376.6479,400.8379 L366.6479,390.8379 L201,390.8379 A0,0 0 0 0 201,390.8379" fill="#FEFFDD" style="stroke:#181818;stroke-width:0.5;"/><path d="M366.6479,390.8379 L366.6479,400.8379 L376.6479,400.8379 L366.6479,390.8379" fill="#FEFFDD" style="stroke:#181818;stroke-width:0.5;"/><text fill="#000000" font-family="sans-serif" font-size="13" font-weight="bold" lengthAdjust="spacing" textLength="93.8438" x="207" y="409.333">&#36984;&#25246;&#21487;&#33021;&#12514;&#12487;&#12523;</text><text fill="#000000" font-family="sans-serif" font-size="13" lengthAdjust="spacing" textLength="148.8335" x="207" y="425.6846">&#12539;text-embedding-3-small</text><text fill="#000000" font-family="sans-serif" font-size="13" lengthAdjust="spacing" textLength="147.4053" x="207" y="442.0361">&#12539;text-embedding-3-large</text><text fill="#000000" font-family="sans-serif" font-size="13" lengthAdjust="spacing" textLength="154.6479" x="207" y="458.3877">&#12539;text-embedding-ada-002</text><rect fill="#F1F1F1" height="35.0938" rx="12.5" ry="12.5" style="stroke:#181818;stroke-width:0.5;" width="92" x="89" y="410.9941"/><text fill="#000000" font-family="sans-serif" font-size="12" lengthAdjust="spacing" textLength="72" x="99" y="433.4512">&#12514;&#12487;&#12523;&#12434;&#36984;&#25246;</text><path d="M213,476.2441 L213,509.9473 L193,513.9473 L213,517.9473 L213,551.6504 A0,0 0 0 0 213,551.6504 L373.4517,551.6504 A0,0 0 0 0 373.4517,551.6504 L373.4517,486.2441 L363.4517,476.2441 L213,476.2441 A0,0 0 0 0 213,476.2441" fill="#FEFFDD" style="stroke:#181818;stroke-width:0.5;"/><path d="M363.4517,476.2441 L363.4517,486.2441 L373.4517,486.2441 L363.4517,476.2441" fill="#FEFFDD" style="stroke:#181818;stroke-width:0.5;"/><text fill="#000000" font-family="sans-serif" font-size="13" font-weight="bold" lengthAdjust="spacing" textLength="53.625" x="219" y="494.7393">&#35373;&#23450;&#38917;&#30446;</text><text fill="#000000" font-family="sans-serif" font-size="13" lengthAdjust="spacing" textLength="139.4517" x="219" y="511.0908">&#12539;&#27425;&#20803;&#25968;&#65288;1536/3072&#65289;</text><text fill="#000000" font-family="sans-serif" font-size="13" lengthAdjust="spacing" textLength="104" x="219" y="527.4424">&#12539;&#12481;&#12515;&#12531;&#12463;&#12469;&#12452;&#12474;</text><text fill="#000000" font-family="sans-serif" font-size="13" lengthAdjust="spacing" textLength="104" x="219" y="543.7939">&#12539;&#12458;&#12540;&#12496;&#12540;&#12521;&#12483;&#12503;</text><rect fill="#F1F1F1" height="35.0938" rx="12.5" ry="12.5" style="stroke:#181818;stroke-width:0.5;" width="116" x="77" y="496.4004"/><text fill="#000000" font-family="sans-serif" font-size="12" lengthAdjust="spacing" textLength="96" x="87" y="518.8574">&#12497;&#12521;&#12513;&#12540;&#12479;&#12434;&#35373;&#23450;</text><path d="M231,561.6504 L231,587.1777 L211,591.1777 L231,595.1777 L231,620.7051 A0,0 0 0 0 231,620.7051 L408,620.7051 A0,0 0 0 0 408,620.7051 L408,571.6504 L398,561.6504 L231,561.6504 A0,0 0 0 0 231,561.6504" fill="#FEFFDD" style="stroke:#181818;stroke-width:0.5;"/><path d="M398,561.6504 L398,571.6504 L408,571.6504 L398,561.6504" fill="#FEFFDD" style="stroke:#181818;stroke-width:0.5;"/><text fill="#000000" font-family="sans-serif" font-size="13" font-weight="bold" lengthAdjust="spacing" textLength="107.25" x="237" y="580.1455">&#20877;&#29983;&#25104;&#12458;&#12503;&#12471;&#12519;&#12531;</text><text fill="#000000" font-family="sans-serif" font-size="13" lengthAdjust="spacing" textLength="156" x="237" y="596.4971">&#12539;&#26082;&#23384;&#12467;&#12531;&#12486;&#12531;&#12484;&#12434;&#20877;&#29983;&#25104;</text><text fill="#000000" font-family="sans-serif" font-size="13" lengthAdjust="spacing" textLength="156" x="237" y="612.8486">&#12539;&#26032;&#35215;&#12467;&#12531;&#12486;&#12531;&#12484;&#12398;&#12415;&#36969;&#29992;</text><rect fill="#F1F1F1" height="35.0938" rx="12.5" ry="12.5" style="stroke:#181818;stroke-width:0.5;" width="152" x="59" y="573.6309"/><text fill="#000000" font-family="sans-serif" font-size="12" lengthAdjust="spacing" textLength="132" x="69" y="596.0879">&#20877;&#29983;&#25104;&#12458;&#12503;&#12471;&#12519;&#12531;&#12434;&#36984;&#25246;</text><rect fill="#F1F1F1" height="35.0938" rx="12.5" ry="12.5" style="stroke:#181818;stroke-width:0.5;" width="140" x="65" y="640.7051"/><text fill="#000000" font-family="sans-serif" font-size="12" lengthAdjust="spacing" textLength="120" x="75" y="663.1621">&#20445;&#23384;&#12508;&#12479;&#12531;&#12434;&#12463;&#12522;&#12483;&#12463;</text><polygon fill="#F1F1F1" points="119.6631,836.2988,150.3369,836.2988,162.3369,848.2988,150.3369,860.2988,119.6631,860.2988,107.6631,848.2988,119.6631,836.2988" style="stroke:#181818;stroke-width:0.5;"/><text fill="#000000" font-family="sans-serif" font-size="12" lengthAdjust="spacing" textLength="30.6738" x="119.6631" y="853.209">&#30906;&#35469;?</text><text fill="#000000" font-family="sans-serif" font-size="11" lengthAdjust="spacing" textLength="15.8931" x="91.77" y="845.8818">OK</text><text fill="#000000" font-family="sans-serif" font-size="11" lengthAdjust="spacing" textLength="55" x="162.3369" y="845.8818">&#12461;&#12515;&#12531;&#12475;&#12523;</text><rect fill="#F1F1F1" height="35.0938" rx="12.5" ry="12.5" style="stroke:#181818;stroke-width:0.5;" width="104" x="21" y="870.2988"/><text fill="#000000" font-family="sans-serif" font-size="12" lengthAdjust="spacing" textLength="84" x="31" y="892.7559">&#30906;&#35469;&#12434;&#12463;&#12522;&#12483;&#12463;</text><rect fill="#F1F1F1" height="35.0938" rx="12.5" ry="12.5" style="stroke:#181818;stroke-width:0.5;" width="104" x="145" y="870.2988"/><text fill="#000000" font-family="sans-serif" font-size="12" lengthAdjust="spacing" textLength="84" x="155" y="892.7559">&#35373;&#23450;&#30011;&#38754;&#12395;&#25147;&#12427;</text><ellipse cx="197" cy="936.3926" fill="none" rx="11" ry="11" style="stroke:#222222;stroke-width:1;"/><ellipse cx="197" cy="936.3926" fill="#222222" rx="6" ry="6" style="stroke:#222222;stroke-width:1;"/><rect fill="#F1F1F1" height="35.0938" rx="12.5" ry="12.5" style="stroke:#181818;stroke-width:0.5;" width="104" x="83" y="1316.4316"/><text fill="#000000" font-family="sans-serif" font-size="12" lengthAdjust="spacing" textLength="84" x="93" y="1338.8887">&#35373;&#23450;&#23436;&#20102;&#12434;&#30906;&#35469;</text><ellipse cx="135" cy="1382.5254" fill="none" rx="11" ry="11" style="stroke:#222222;stroke-width:1;"/><ellipse cx="135" cy="1382.5254" fill="#222222" rx="6" ry="6" style="stroke:#222222;stroke-width:1;"/><line style="stroke:#000000;stroke-width:1.5;" x1="15" x2="15" y1="51.0645" y2="1393.5254"/><rect fill="#F1F1F1" height="35.0938" rx="12.5" ry="12.5" style="stroke:#181818;stroke-width:0.5;" width="116" x="437" y="173.7988"/><text fill="#000000" font-family="sans-serif" font-size="12" lengthAdjust="spacing" textLength="96" x="447" y="196.2559">&#29694;&#22312;&#12398;&#35373;&#23450;&#12434;&#21462;&#24471;</text><path d="M567,289.0801 L567,330.959 L547,334.959 L567,338.959 L567,380.8379 A0,0 0 0 0 567,380.8379 L692,380.8379 A0,0 0 0 0 692,380.8379 L692,299.0801 L682,289.0801 L567,289.0801 A0,0 0 0 0 567,289.0801" fill="#FEFFDD" style="stroke:#181818;stroke-width:0.5;"/><path d="M682,289.0801 L682,299.0801 L692,299.0801 L682,289.0801" fill="#FEFFDD" style="stroke:#181818;stroke-width:0.5;"/><text fill="#000000" font-family="sans-serif" font-size="13" font-weight="bold" lengthAdjust="spacing" textLength="53.625" x="573" y="307.5752">&#34920;&#31034;&#38917;&#30446;</text><text fill="#000000" font-family="sans-serif" font-size="13" lengthAdjust="spacing" textLength="91" x="573" y="323.9268">&#12539;&#29694;&#22312;&#12398;&#12514;&#12487;&#12523;</text><text fill="#000000" font-family="sans-serif" font-size="13" lengthAdjust="spacing" textLength="52" x="573" y="340.2783">&#12539;&#27425;&#20803;&#25968;</text><text fill="#000000" font-family="sans-serif" font-size="13" lengthAdjust="spacing" textLength="104" x="573" y="356.6299">&#12539;&#12481;&#12515;&#12531;&#12463;&#12469;&#12452;&#12474;</text><text fill="#000000" font-family="sans-serif" font-size="13" lengthAdjust="spacing" textLength="78" x="573" y="372.9814">&#12539;&#12467;&#12473;&#12488;&#24773;&#22577;</text><rect fill="#F1F1F1" height="35.0938" rx="12.5" ry="12.5" style="stroke:#181818;stroke-width:0.5;" width="104" x="443" y="317.4121"/><text fill="#000000" font-family="sans-serif" font-size="12" lengthAdjust="spacing" textLength="84" x="453" y="339.8691">&#35373;&#23450;&#30011;&#38754;&#12434;&#34920;&#31034;</text><rect fill="#F1F1F1" height="35.0938" rx="12.5" ry="12.5" style="stroke:#181818;stroke-width:0.5;" width="140" x="425" y="695.7988"/><text fill="#000000" font-family="sans-serif" font-size="12" lengthAdjust="spacing" textLength="120" x="435" y="718.2559">&#12467;&#12473;&#12488;&#35211;&#31309;&#12418;&#12426;&#12434;&#35336;&#31639;</text><path d="M585,740.8926 L585,774.5957 L565,778.5957 L585,782.5957 L585,816.2988 A0,0 0 0 0 585,816.2988 L710,816.2988 A0,0 0 0 0 710,816.2988 L710,750.8926 L700,740.8926 L585,740.8926 A0,0 0 0 0 585,740.8926" fill="#FEFFDD" style="stroke:#181818;stroke-width:0.5;"/><path d="M700,740.8926 L700,750.8926 L710,750.8926 L700,740.8926" fill="#FEFFDD" style="stroke:#181818;stroke-width:0.5;"/><text fill="#000000" font-family="sans-serif" font-size="13" font-weight="bold" lengthAdjust="spacing" textLength="53.625" x="591" y="759.3877">&#30906;&#35469;&#20869;&#23481;</text><text fill="#000000" font-family="sans-serif" font-size="13" lengthAdjust="spacing" textLength="104" x="591" y="775.7393">&#12539;&#12514;&#12487;&#12523;&#22793;&#26356;&#20869;&#23481;</text><text fill="#000000" font-family="sans-serif" font-size="13" lengthAdjust="spacing" textLength="104" x="591" y="792.0908">&#12539;&#20877;&#29983;&#25104;&#23550;&#35937;&#20214;&#25968;</text><text fill="#000000" font-family="sans-serif" font-size="13" lengthAdjust="spacing" textLength="78" x="591" y="808.4424">&#12539;&#25512;&#23450;&#12467;&#12473;&#12488;</text><rect fill="#F1F1F1" height="35.0938" rx="12.5" ry="12.5" style="stroke:#181818;stroke-width:0.5;" width="140" x="425" y="761.0488"/><text fill="#000000" font-family="sans-serif" font-size="12" lengthAdjust="spacing" textLength="120" x="435" y="783.5059">&#30906;&#35469;&#12480;&#12452;&#12450;&#12525;&#12464;&#12434;&#34920;&#31034;</text><rect fill="#F1F1F1" height="35.0938" rx="12.5" ry="12.5" style="stroke:#181818;stroke-width:0.5;" width="152" x="419" y="967.3926"/><text fill="#000000" font-family="sans-serif" font-size="12" lengthAdjust="spacing" textLength="132" x="429" y="989.8496">&#35373;&#23450;&#20445;&#23384;&#12522;&#12463;&#12456;&#12473;&#12488;&#36865;&#20449;</text><path d="M567,1237.377 L567,1262.9043 L547,1266.9043 L567,1270.9043 L567,1296.4316 A0,0 0 0 0 567,1296.4316 L718,1296.4316 A0,0 0 0 0 718,1296.4316 L718,1247.377 L708,1237.377 L567,1237.377 A0,0 0 0 0 567,1237.377" fill="#FEFFDD" style="stroke:#181818;stroke-width:0.5;"/><path d="M708,1237.377 L708,1247.377 L718,1247.377 L708,1237.377" fill="#FEFFDD" style="stroke:#181818;stroke-width:0.5;"/><text fill="#000000" font-family="sans-serif" font-size="13" font-weight="bold" lengthAdjust="spacing" textLength="53.625" x="573" y="1255.8721">&#34920;&#31034;&#20869;&#23481;</text><text fill="#000000" font-family="sans-serif" font-size="13" lengthAdjust="spacing" textLength="91" x="573" y="1272.2236">&#12539;&#35373;&#23450;&#26356;&#26032;&#23436;&#20102;</text><text fill="#000000" font-family="sans-serif" font-size="13" lengthAdjust="spacing" textLength="130" x="573" y="1288.5752">&#12539;&#20877;&#29983;&#25104;&#12472;&#12519;&#12502;&#12398;&#29366;&#24907;</text><rect fill="#F1F1F1" height="35.0938" rx="12.5" ry="12.5" style="stroke:#181818;stroke-width:0.5;" width="104" x="443" y="1249.3574"/><text fill="#000000" font-family="sans-serif" font-size="12" lengthAdjust="spacing" textLength="84" x="453" y="1271.8145">&#23436;&#20102;&#36890;&#30693;&#12434;&#34920;&#31034;</text><line style="stroke:#000000;stroke-width:1.5;" x1="413" x2="413" y1="51.0645" y2="1393.5254"/><rect fill="#F1F1F1" height="50.1875" rx="12.5" ry="12.5" style="stroke:#181818;stroke-width:0.5;" width="152" x="901.384" y="228.8926"/><text fill="#000000" font-family="sans-serif" font-size="12" lengthAdjust="spacing" textLength="131.4082" x="911.384" y="251.3496">embedding_settings&#12363;&#12425;</text><text fill="#000000" font-family="sans-serif" font-size="12" lengthAdjust="spacing" textLength="132" x="911.384" y="266.4434">&#29694;&#22312;&#12398;&#12514;&#12487;&#12523;&#35373;&#23450;&#12434;&#36820;&#21364;</text><rect fill="#F1F1F1" height="35.0938" rx="12.5" ry="12.5" style="stroke:#181818;stroke-width:0.5;" width="163.4082" x="895.6799" y="1022.4863"/><text fill="#000000" font-family="sans-serif" font-size="12" lengthAdjust="spacing" textLength="143.4082" x="905.6799" y="1044.9434">embedding_settings&#12434;&#26356;&#26032;</text><polygon fill="#F1F1F1" points="938.0471,1077.5801,1016.7209,1077.5801,1028.7209,1089.5801,1016.7209,1101.5801,938.0471,1101.5801,926.0471,1089.5801,938.0471,1077.5801" style="stroke:#181818;stroke-width:0.5;"/><text fill="#000000" font-family="sans-serif" font-size="12" lengthAdjust="spacing" textLength="78.6738" x="938.0471" y="1094.4902">&#20877;&#29983;&#25104;&#12364;&#24517;&#35201;?</text><text fill="#000000" font-family="sans-serif" font-size="11" lengthAdjust="spacing" textLength="22" x="904.0471" y="1087.1631">&#12399;&#12356;</text><text fill="#000000" font-family="sans-serif" font-size="11" lengthAdjust="spacing" textLength="33" x="1028.7209" y="1087.1631">&#12356;&#12356;&#12360;</text><path d="M913,1111.5801 L913,1128.9316 L893,1132.9316 L913,1136.9316 L913,1154.2832 A0,0 0 0 0 913,1154.2832 L1077.7681,1154.2832 A0,0 0 0 0 1077.7681,1154.2832 L1077.7681,1121.5801 L1067.7681,1111.5801 L913,1111.5801 A0,0 0 0 0 913,1111.5801" fill="#FEFFDD" style="stroke:#181818;stroke-width:0.5;"/><path d="M1067.7681,1111.5801 L1067.7681,1121.5801 L1077.7681,1121.5801 L1067.7681,1111.5801" fill="#FEFFDD" style="stroke:#181818;stroke-width:0.5;"/><text fill="#000000" font-family="sans-serif" font-size="13" lengthAdjust="spacing" textLength="117" x="919" y="1130.0752">&#12496;&#12483;&#12463;&#12464;&#12521;&#12454;&#12531;&#12489;&#12391;</text><text fill="#000000" font-family="sans-serif" font-size="13" lengthAdjust="spacing" textLength="143.7681" x="919" y="1146.4268">Embedding&#20877;&#29983;&#25104;&#12434;&#23455;&#34892;</text><rect fill="#F1F1F1" height="35.0938" rx="12.5" ry="12.5" style="stroke:#181818;stroke-width:0.5;" width="164" x="729" y="1115.3848"/><text fill="#000000" font-family="sans-serif" font-size="12" lengthAdjust="spacing" textLength="144" x="739" y="1137.8418">&#20877;&#29983;&#25104;&#12472;&#12519;&#12502;&#12434;&#12461;&#12517;&#12540;&#30331;&#37682;</text><rect fill="#F1F1F1" height="35.0938" rx="12.5" ry="12.5" style="stroke:#181818;stroke-width:0.5;" width="92" x="1087.7681" y="1111.5801"/><text fill="#000000" font-family="sans-serif" font-size="12" lengthAdjust="spacing" textLength="72" x="1097.7681" y="1134.0371">&#35373;&#23450;&#12398;&#12415;&#26356;&#26032;</text><rect fill="#F1F1F1" height="35.0938" rx="12.5" ry="12.5" style="stroke:#181818;stroke-width:0.5;" width="104" x="925.384" y="1192.2832"/><text fill="#000000" font-family="sans-serif" font-size="12" lengthAdjust="spacing" textLength="84" x="935.384" y="1214.7402">&#26356;&#26032;&#32080;&#26524;&#12434;&#36820;&#21364;</text><line style="stroke:#000000;stroke-width:1.5;" x1="723" x2="723" y1="51.0645" y2="1393.5254"/><line style="stroke:#000000;stroke-width:1.5;" x1="1183.7681" x2="1183.7681" y1="51.0645" y2="1393.5254"/><line style="stroke:#181818;stroke-width:1;" x1="135" x2="135" y1="98.7051" y2="118.7051"/><polygon fill="#181818" points="131,108.7051,135,118.7051,139,108.7051,135,112.7051" style="stroke:#181818;stroke-width:1;"/><line style="stroke:#181818;stroke-width:1;" x1="135" x2="135" y1="446.0879" y2="496.4004"/><polygon fill="#181818" points="131,486.4004,135,496.4004,139,486.4004,135,490.4004" style="stroke:#181818;stroke-width:1;"/><line style="stroke:#181818;stroke-width:1;" x1="135" x2="135" y1="531.4941" y2="573.6309"/><polygon fill="#181818" points="131,563.6309,135,573.6309,139,563.6309,135,567.6309" style="stroke:#181818;stroke-width:1;"/><line style="stroke:#181818;stroke-width:1;" x1="135" x2="135" y1="608.7246" y2="640.7051"/><polygon fill="#181818" points="131,630.7051,135,640.7051,139,630.7051,135,634.7051" style="stroke:#181818;stroke-width:1;"/><line style="stroke:#181818;stroke-width:1;" x1="197" x2="197" y1="905.3926" y2="925.3926"/><polygon fill="#181818" points="193,915.3926,197,925.3926,201,915.3926,197,919.3926" style="stroke:#181818;stroke-width:1;"/><line style="stroke:#181818;stroke-width:1;" x1="107.6631" x2="73" y1="848.2988" y2="848.2988"/><line style="stroke:#181818;stroke-width:1;" x1="73" x2="73" y1="848.2988" y2="870.2988"/><polygon fill="#181818" points="69,860.2988,73,870.2988,77,860.2988,73,864.2988" style="stroke:#181818;stroke-width:1;"/><line style="stroke:#181818;stroke-width:1;" x1="162.3369" x2="197" y1="848.2988" y2="848.2988"/><line style="stroke:#181818;stroke-width:1;" x1="197" x2="197" y1="848.2988" y2="870.2988"/><polygon fill="#181818" points="193,860.2988,197,870.2988,201,860.2988,197,864.2988" style="stroke:#181818;stroke-width:1;"/><line style="stroke:#181818;stroke-width:1;" x1="73" x2="73" y1="905.3926" y2="952.3926"/><line style="stroke:#181818;stroke-width:1;" x1="73" x2="495" y1="952.3926" y2="952.3926"/><line style="stroke:#181818;stroke-width:1;" x1="495" x2="495" y1="952.3926" y2="967.3926"/><polygon fill="#181818" points="491,957.3926,495,967.3926,499,957.3926,495,961.3926" style="stroke:#181818;stroke-width:1;"/><line style="stroke:#181818;stroke-width:1;" x1="135" x2="135" y1="1351.5254" y2="1371.5254"/><polygon fill="#181818" points="131,1361.5254,135,1371.5254,139,1361.5254,135,1365.5254" style="stroke:#181818;stroke-width:1;"/><line style="stroke:#181818;stroke-width:1;" x1="495" x2="495" y1="730.8926" y2="761.0488"/><polygon fill="#181818" points="491,751.0488,495,761.0488,499,751.0488,495,755.0488" style="stroke:#181818;stroke-width:1;"/><line style="stroke:#181818;stroke-width:1;" x1="926.0471" x2="811" y1="1089.5801" y2="1089.5801"/><line style="stroke:#181818;stroke-width:1;" x1="811" x2="811" y1="1089.5801" y2="1115.3848"/><polygon fill="#181818" points="807,1105.3848,811,1115.3848,815,1105.3848,811,1109.3848" style="stroke:#181818;stroke-width:1;"/><line style="stroke:#181818;stroke-width:1;" x1="1028.7209" x2="1133.7681" y1="1089.5801" y2="1089.5801"/><line style="stroke:#181818;stroke-width:1;" x1="1133.7681" x2="1133.7681" y1="1089.5801" y2="1111.5801"/><polygon fill="#181818" points="1129.7681,1101.5801,1133.7681,1111.5801,1137.7681,1101.5801,1133.7681,1105.5801" style="stroke:#181818;stroke-width:1;"/><line style="stroke:#181818;stroke-width:1;" x1="811" x2="811" y1="1150.4785" y2="1172.2832"/><polygon fill="#181818" points="807,1162.2832,811,1172.2832,815,1162.2832,811,1166.2832" style="stroke:#181818;stroke-width:1;"/><line style="stroke:#181818;stroke-width:1;" x1="1133.7681" x2="1133.7681" y1="1146.6738" y2="1172.2832"/><polygon fill="#181818" points="1129.7681,1162.2832,1133.7681,1172.2832,1137.7681,1162.2832,1133.7681,1166.2832" style="stroke:#181818;stroke-width:1;"/><line style="stroke:#181818;stroke-width:1;" x1="811" x2="1133.7681" y1="1172.2832" y2="1172.2832"/><line style="stroke:#181818;stroke-width:1;" x1="977.384" x2="977.384" y1="1057.5801" y2="1077.5801"/><polygon fill="#181818" points="973.384,1067.5801,977.384,1077.5801,981.384,1067.5801,977.384,1071.5801" style="stroke:#181818;stroke-width:1;"/><line style="stroke:#181818;stroke-width:1;" x1="977.384" x2="977.384" y1="1172.2832" y2="1192.2832"/><polygon fill="#181818" points="973.384,1182.2832,977.384,1192.2832,981.384,1182.2832,977.384,1186.2832" style="stroke:#181818;stroke-width:1;"/><line style="stroke:#181818;stroke-width:1;" x1="135" x2="135" y1="153.7988" y2="158.7988"/><line style="stroke:#181818;stroke-width:1;" x1="135" x2="495" y1="158.7988" y2="158.7988"/><line style="stroke:#181818;stroke-width:1;" x1="495" x2="495" y1="158.7988" y2="173.7988"/><polygon fill="#181818" points="491,163.7988,495,173.7988,499,163.7988,495,167.7988" style="stroke:#181818;stroke-width:1;"/><line style="stroke:#181818;stroke-width:1;" x1="495" x2="495" y1="208.8926" y2="213.8926"/><line style="stroke:#181818;stroke-width:1;" x1="495" x2="977.384" y1="213.8926" y2="213.8926"/><line style="stroke:#181818;stroke-width:1;" x1="977.384" x2="977.384" y1="213.8926" y2="228.8926"/><polygon fill="#181818" points="973.384,218.8926,977.384,228.8926,981.384,218.8926,977.384,222.8926" style="stroke:#181818;stroke-width:1;"/><line style="stroke:#181818;stroke-width:1;" x1="977.384" x2="977.384" y1="279.0801" y2="285.7461"/><line style="stroke:#181818;stroke-width:1;" x1="977.384" x2="495" y1="285.7461" y2="285.7461"/><line style="stroke:#181818;stroke-width:1;" x1="495" x2="495" y1="285.7461" y2="317.4121"/><polygon fill="#181818" points="491,307.4121,495,317.4121,499,307.4121,495,311.4121" style="stroke:#181818;stroke-width:1;"/><line style="stroke:#181818;stroke-width:1;" x1="495" x2="495" y1="352.5059" y2="385.8379"/><line style="stroke:#181818;stroke-width:1;" x1="495" x2="135" y1="385.8379" y2="385.8379"/><line style="stroke:#181818;stroke-width:1;" x1="135" x2="135" y1="385.8379" y2="410.9941"/><polygon fill="#181818" points="131,400.9941,135,410.9941,139,400.9941,135,404.9941" style="stroke:#181818;stroke-width:1;"/><line style="stroke:#181818;stroke-width:1;" x1="135" x2="135" y1="675.7988" y2="680.7988"/><line style="stroke:#181818;stroke-width:1;" x1="135" x2="495" y1="680.7988" y2="680.7988"/><line style="stroke:#181818;stroke-width:1;" x1="495" x2="495" y1="680.7988" y2="695.7988"/><polygon fill="#181818" points="491,685.7988,495,695.7988,499,685.7988,495,689.7988" style="stroke:#181818;stroke-width:1;"/><line style="stroke:#181818;stroke-width:1;" x1="495" x2="495" y1="796.1426" y2="821.2988"/><line style="stroke:#181818;stroke-width:1;" x1="495" x2="135" y1="821.2988" y2="821.2988"/><line style="stroke:#181818;stroke-width:1;" x1="135" x2="135" y1="821.2988" y2="836.2988"/><polygon fill="#181818" points="131,826.2988,135,836.2988,139,826.2988,135,830.2988" style="stroke:#181818;stroke-width:1;"/><line style="stroke:#181818;stroke-width:1;" x1="495" x2="495" y1="1002.4863" y2="1007.4863"/><line style="stroke:#181818;stroke-width:1;" x1="495" x2="977.384" y1="1007.4863" y2="1007.4863"/><line style="stroke:#181818;stroke-width:1;" x1="977.384" x2="977.384" y1="1007.4863" y2="1022.4863"/><polygon fill="#181818" points="973.384,1012.4863,977.384,1022.4863,981.384,1012.4863,977.384,1016.4863" style="stroke:#181818;stroke-width:1;"/><line style="stroke:#181818;stroke-width:1;" x1="977.384" x2="977.384" y1="1227.377" y2="1232.377"/><line style="stroke:#181818;stroke-width:1;" x1="977.384" x2="495" y1="1232.377" y2="1232.377"/><line style="stroke:#181818;stroke-width:1;" x1="495" x2="495" y1="1232.377" y2="1249.3574"/><polygon fill="#181818" points="491,1239.3574,495,1249.3574,499,1239.3574,495,1243.3574" style="stroke:#181818;stroke-width:1;"/><line style="stroke:#181818;stroke-width:1;" x1="495" x2="495" y1="1284.4512" y2="1301.4316"/><line style="stroke:#181818;stroke-width:1;" x1="495" x2="135" y1="1301.4316" y2="1301.4316"/><line style="stroke:#181818;stroke-width:1;" x1="135" x2="135" y1="1301.4316" y2="1316.4316"/><polygon fill="#181818" points="131,1306.4316,135,1316.4316,139,1306.4316,135,1310.4316" style="stroke:#181818;stroke-width:1;"/><text fill="#000000" font-family="sans-serif" font-size="18" lengthAdjust="spacing" textLength="54" x="187" y="69.75">&#38283;&#30330;&#32773;</text><text fill="#000000" font-family="sans-serif" font-size="18" lengthAdjust="spacing" textLength="137.0654" x="499.4673" y="69.75">Frontend Service</text><text fill="#000000" font-family="sans-serif" font-size="18" lengthAdjust="spacing" textLength="81.0703" x="912.8489" y="69.75">Supabase</text><!--SRC=[XLH9Jzj05BxxL_X8aTAoY5Q5GrKXkFJG0-gvCiG5gy51yRHgAmvuXj10GaCZIhgm9MK9K1AwGw3anpp6TaxyXSuI6nBg8bcs_DRlVVEziPuQveIMqCRL-oF8U6wWbuDn4mqPhtIriqkn0cz_t8mQo8YR0sPq2BsCwUfOp31rHK46OZ_TDpixRtQf0-F3UZHgcAD0Ya1U0zdpIlkq_178Eo3xG4xEJrAF-jMUoDtparb5cQmlfTqFLMygEQbOI4iWfJUe81FTnUFwIX5mZaM2dUrZEOC91b0te-gGddXkZEYJIg-RFQNB9R3BZMuuHxDBz3JFmuUUJMZ3ciN3TB_sOqj7Y7qjiDE0PvKWlnKspdcrHJh_8wHl2qQlK78tgdsA6KUwcZ16nv2YgktjqbnVJxgVoktjp0Ja-6f7QNU-56YIEEyEv2yG6yXd8Dy1Lm3_1Bm1kDfmOMOy0f9oI9AkVrKuCjwucTNUe3xdq3vqvbQlu9Dccgruv4yGxWD5-WiK2OYBT4UiSIqM2_75jCIe_a-V5jKY7HrTuIZV0ja1Kc0I0LpZN0fght8fpCrS1fmnSNNsTD- -rTrnfulhwteATta_iY3Uh3q1aW-3I6VctSKr9xKWilA0VmFP5cN3U0tB273dYtJ_FJz7LeNCYFSqrwwVrmXREl2sigrXJ3bshMxlk8kbCCHdjHLUdonpHWLGJW7PvNFYIeYa0rbvMsbtPnum1ZmdpYFbblDX-rUiUhlpGAO4kqM-wlWWV25aE9r9qlAHJqOWFBenwtpw8PtI5V11AwVUryBPyQzWFvmt9R6c3SmXJ1XFr3RPyzuD5OtffjhsyC4DLi47tigC7hDqjGtmlgyS1czF93HjlBtdf9Y8qdtCOw7u16zlFFdVLU4VoQuGOqcYha_PPxN2zNSLpZ5Yc1gQ8_bm5qgpCxIMzBRiO52mAs1F2-oNz7WebBWa1cT3Rh85S3ySrpFV-2XDfyLfNf2yy3DbMuAtX0HdmTuM_k36lbG_HyjhNY73_C69D3YrfyMJkiIcrB8_cy_X9Iwao_svuAmkNtSbqtBch3fJd_hehcrUToKtAr22aRrabHRvNT1cbzsvNquo7RPvifGima18bVKfGYD_0G00]--></g></svg>