<svg xmlns="http://www.w3.org/2000/svg" xmlns:xlink="http://www.w3.org/1999/xlink" contentStyleType="text/css" data-diagram-type="SEQUENCE" height="775px" preserveAspectRatio="none" style="width:842px;height:775px;background:#FFFFFF;" version="1.1" viewBox="0 0 842 775" width="842px" zoomAndPan="magnify"><title>&#12525;&#12464;&#12450;&#12454;&#12488;&#12501;&#12525;&#12540;&#65288;&#12463;&#12521;&#12452;&#12450;&#12531;&#12488;&#20596;&#65289;</title><defs/><g><text fill="#000000" font-family="sans-serif" font-size="14" font-weight="bold" lengthAdjust="spacing" textLength="245.4375" x="294.2813" y="29.5332">&#12525;&#12464;&#12450;&#12454;&#12488;&#12501;&#12525;&#12540;&#65288;&#12463;&#12521;&#12452;&#12450;&#12531;&#12488;&#20596;&#65289;</text><g><title>&#12502;&#12521;&#12454;&#12470;</title><rect fill="#FFFFFF" height="476.9766" style="stroke:#181818;stroke-width:1;" width="10" x="245" y="197.9219"/></g><g><title>Supabase Auth</title><rect fill="#FFFFFF" height="133.4063" style="stroke:#181818;stroke-width:1;" width="10" x="432.8672" y="228.2734"/></g><g><title>Next.js Router</title><rect fill="#FFFFFF" height="176.4609" style="stroke:#181818;stroke-width:1;" width="10" x="599.0762" y="468.0859"/></g><g><title>&#12456;&#12531;&#12489;&#12518;&#12540;&#12470;&#12540;</title><rect fill="#000000" fill-opacity="0.00000" height="571.6797" width="8" x="53" y="121.2188"/><line style="stroke:#181818;stroke-width:0.5;stroke-dasharray:5.0,5.0;" x1="57" x2="57" y1="121.2188" y2="692.8984"/></g><g><title>&#12502;&#12521;&#12454;&#12470;</title><rect fill="#000000" fill-opacity="0.00000" height="571.6797" width="8" x="246" y="121.2188"/><line style="stroke:#181818;stroke-width:0.5;stroke-dasharray:5.0,5.0;" x1="249.3071" x2="249.3071" y1="121.2188" y2="692.8984"/></g><g><title>Supabase Auth</title><rect fill="#000000" fill-opacity="0.00000" height="571.6797" width="8" x="433.8672" y="121.2188"/><line style="stroke:#181818;stroke-width:0.5;stroke-dasharray:5.0,5.0;" x1="437.4648" x2="437.4648" y1="121.2188" y2="692.8984"/></g><g><title>Next.js Router</title><rect fill="#000000" fill-opacity="0.00000" height="571.6797" width="8" x="600.0762" y="121.2188"/><line style="stroke:#181818;stroke-width:0.5;stroke-dasharray:5.0,5.0;" x1="603.728" x2="603.728" y1="121.2188" y2="692.8984"/></g><g class="participant participant-head" data-participant="user"><text fill="#000000" font-family="sans-serif" font-size="14" lengthAdjust="spacing" textLength="98" x="5" y="118.1426">&#12456;&#12531;&#12489;&#12518;&#12540;&#12470;&#12540;</text><ellipse cx="57" cy="52.1094" fill="#E2E2F0" rx="8" ry="8" style="stroke:#181818;stroke-width:0.5;"/><path d="M57,60.1094 L57,87.1094 M44,68.1094 L70,68.1094 M57,87.1094 L44,102.1094 M57,87.1094 L70,102.1094" fill="none" style="stroke:#181818;stroke-width:0.5;"/></g><g class="participant participant-tail" data-participant="user"><text fill="#000000" font-family="sans-serif" font-size="14" lengthAdjust="spacing" textLength="98" x="5" y="706.4316">&#12456;&#12531;&#12489;&#12518;&#12540;&#12470;&#12540;</text><ellipse cx="57" cy="718.0078" fill="#E2E2F0" rx="8" ry="8" style="stroke:#181818;stroke-width:0.5;"/><path d="M57,726.0078 L57,753.0078 M44,734.0078 L70,734.0078 M57,753.0078 L44,768.0078 M57,753.0078 L70,768.0078" fill="none" style="stroke:#181818;stroke-width:0.5;"/></g><g class="participant participant-head" data-participant="browser"><rect fill="#E3F2FD" height="49.2188" rx="5" ry="5" style="stroke:#666666;stroke-width:0.5;" width="135.3857" x="182.3071" y="71"/><text fill="#000000" font-family="sans-serif" font-size="14" lengthAdjust="spacing" textLength="56" x="222" y="92.5332">&#12502;&#12521;&#12454;&#12470;</text><text fill="#000000" font-family="sans-serif" font-size="14" lengthAdjust="spacing" textLength="121.3857" x="189.3071" y="110.1426">(Client Component)</text></g><g class="participant participant-tail" data-participant="browser"><rect fill="#E3F2FD" height="49.2188" rx="5" ry="5" style="stroke:#666666;stroke-width:0.5;" width="135.3857" x="182.3071" y="691.8984"/><text fill="#000000" font-family="sans-serif" font-size="14" lengthAdjust="spacing" textLength="56" x="222" y="713.4316">&#12502;&#12521;&#12454;&#12470;</text><text fill="#000000" font-family="sans-serif" font-size="14" lengthAdjust="spacing" textLength="121.3857" x="189.3071" y="731.041">(Client Component)</text></g><g class="participant participant-head" data-participant="supabase"><rect fill="#E8F5E9" height="49.2188" rx="5" ry="5" style="stroke:#666666;stroke-width:0.5;" width="120.8047" x="377.4648" y="71"/><text fill="#000000" font-family="sans-serif" font-size="14" lengthAdjust="spacing" textLength="95.7441" x="389.9951" y="92.5332">Supabase Auth</text><text fill="#000000" font-family="sans-serif" font-size="14" lengthAdjust="spacing" textLength="106.8047" x="384.4648" y="110.1426">(@supabase/ssr)</text></g><g class="participant participant-tail" data-participant="supabase"><rect fill="#E8F5E9" height="49.2188" rx="5" ry="5" style="stroke:#666666;stroke-width:0.5;" width="120.8047" x="377.4648" y="691.8984"/><text fill="#000000" font-family="sans-serif" font-size="14" lengthAdjust="spacing" textLength="95.7441" x="389.9951" y="713.4316">Supabase Auth</text><text fill="#000000" font-family="sans-serif" font-size="14" lengthAdjust="spacing" textLength="106.8047" x="384.4648" y="731.041">(@supabase/ssr)</text></g><g class="participant participant-head" data-participant="router"><rect fill="#FFF3E0" height="31.6094" rx="5" ry="5" style="stroke:#666666;stroke-width:0.5;" width="102.6963" x="552.728" y="88.6094"/><text fill="#000000" font-family="sans-serif" font-size="14" lengthAdjust="spacing" textLength="88.6963" x="559.728" y="110.1426">Next.js Router</text></g><g class="participant participant-tail" data-participant="router"><rect fill="#FFF3E0" height="31.6094" rx="5" ry="5" style="stroke:#666666;stroke-width:0.5;" width="102.6963" x="552.728" y="691.8984"/><text fill="#000000" font-family="sans-serif" font-size="14" lengthAdjust="spacing" textLength="88.6963" x="559.728" y="713.4316">Next.js Router</text></g><g><title>&#12502;&#12521;&#12454;&#12470;</title><rect fill="#FFFFFF" height="476.9766" style="stroke:#181818;stroke-width:1;" width="10" x="245" y="197.9219"/></g><g><title>Supabase Auth</title><rect fill="#FFFFFF" height="133.4063" style="stroke:#181818;stroke-width:1;" width="10" x="432.8672" y="228.2734"/></g><g><title>Next.js Router</title><rect fill="#FFFFFF" height="176.4609" style="stroke:#181818;stroke-width:1;" width="10" x="599.0762" y="468.0859"/></g><rect fill="#EEEEEE" height="3" rx="5" ry="5" style="stroke:#EEEEEE;stroke-width:1;" width="835" x="0" y="152.3945"/><line style="stroke:#000000;stroke-width:1;" x1="0" x2="835" y1="152.3945" y2="152.3945"/><line style="stroke:#000000;stroke-width:1;" x1="0" x2="835" y1="155.3945" y2="155.3945"/><rect fill="#EEEEEE" height="24.3516" rx="5" ry="5" style="stroke:#000000;stroke-width:2;" width="84.6431" x="375.1785" y="141.2188"/><text fill="#000000" font-family="sans-serif" font-size="13" font-weight="bold" lengthAdjust="spacing" textLength="67.0313" x="381.1785" y="158.7139">&#12525;&#12464;&#12450;&#12454;&#12488;</text><g class="message" data-participant-1="user" data-participant-2="browser"><polygon fill="#181818" points="233,193.9219,243,197.9219,233,201.9219,237,197.9219" style="stroke:#181818;stroke-width:1;"/><line style="stroke:#181818;stroke-width:2;" x1="57" x2="239" y1="197.9219" y2="197.9219"/><text fill="#000000" font-family="sans-serif" font-size="13" lengthAdjust="spacing" textLength="169" x="64" y="193.0654">&#12525;&#12464;&#12450;&#12454;&#12488;&#12508;&#12479;&#12531;&#12434;&#12463;&#12522;&#12483;&#12463;</text></g><g class="message" data-participant-1="browser" data-participant-2="supabase"><polygon fill="#181818" points="420.8672,224.2734,430.8672,228.2734,420.8672,232.2734,424.8672,228.2734" style="stroke:#181818;stroke-width:1;"/><line style="stroke:#181818;stroke-width:2;" x1="255" x2="426.8672" y1="228.2734" y2="228.2734"/><text fill="#000000" font-family="sans-serif" font-size="13" lengthAdjust="spacing" textLength="53.46" x="262" y="223.417">signOut()</text></g><g class="message" data-participant-1="supabase" data-participant-2="supabase"><line style="stroke:#181818;stroke-width:2;" x1="442.8672" x2="484.8672" y1="274.9766" y2="274.9766"/><line style="stroke:#181818;stroke-width:2;" x1="484.8672" x2="484.8672" y1="274.9766" y2="287.9766"/><line style="stroke:#181818;stroke-width:2;" x1="443.8672" x2="484.8672" y1="287.9766" y2="287.9766"/><polygon fill="#181818" points="453.8672,283.9766,443.8672,287.9766,453.8672,291.9766,449.8672,287.9766" style="stroke:#181818;stroke-width:1;"/><text fill="#000000" font-family="sans-serif" font-size="13" lengthAdjust="spacing" textLength="104" x="449.8672" y="253.7686">&#12475;&#12483;&#12471;&#12519;&#12531;&#28961;&#21177;&#21270;</text><text fill="#000000" font-family="sans-serif" font-size="13" lengthAdjust="spacing" textLength="132.209" x="449.8672" y="270.1201">(Supabase&#12469;&#12540;&#12496;&#12540;&#20596;)</text></g><g class="message" data-participant-1="supabase" data-participant-2="supabase"><line style="stroke:#181818;stroke-width:2;" x1="442.8672" x2="484.8672" y1="318.3281" y2="318.3281"/><line style="stroke:#181818;stroke-width:2;" x1="484.8672" x2="484.8672" y1="318.3281" y2="331.3281"/><line style="stroke:#181818;stroke-width:2;" x1="443.8672" x2="484.8672" y1="331.3281" y2="331.3281"/><polygon fill="#181818" points="453.8672,327.3281,443.8672,331.3281,453.8672,335.3281,449.8672,331.3281" style="stroke:#181818;stroke-width:1;"/><text fill="#000000" font-family="sans-serif" font-size="13" lengthAdjust="spacing" textLength="92.4663" x="449.8672" y="313.4717">Cookie&#21066;&#38500;&#25351;&#31034;</text></g><g class="message" data-participant-1="supabase" data-participant-2="browser"><polygon fill="#181818" points="266,357.6797,256,361.6797,266,365.6797,262,361.6797" style="stroke:#181818;stroke-width:1;"/><line style="stroke:#181818;stroke-width:2;stroke-dasharray:2.0,2.0;" x1="260" x2="436.8672" y1="361.6797" y2="361.6797"/><text fill="#000000" font-family="sans-serif" font-size="13" lengthAdjust="spacing" textLength="26" x="272" y="356.8232">&#25104;&#21151;</text></g><g class="message" data-participant-1="browser" data-participant-2="browser"><line style="stroke:#181818;stroke-width:2;" x1="255" x2="297" y1="424.7344" y2="424.7344"/><line style="stroke:#181818;stroke-width:2;" x1="297" x2="297" y1="424.7344" y2="437.7344"/><line style="stroke:#181818;stroke-width:2;" x1="256" x2="297" y1="437.7344" y2="437.7344"/><polygon fill="#181818" points="266,433.7344,256,437.7344,266,441.7344,262,437.7344" style="stroke:#181818;stroke-width:1;"/><text fill="#000000" font-family="sans-serif" font-size="13" lengthAdjust="spacing" textLength="143" x="262" y="387.1748">&#12525;&#12540;&#12459;&#12523;&#12475;&#12483;&#12471;&#12519;&#12531;&#21066;&#38500;</text><text fill="#000000" font-family="sans-serif" font-size="13" lengthAdjust="spacing" textLength="4.3291" x="262" y="403.5264">-</text><text fill="#000000" font-family="sans-serif" font-size="13" lengthAdjust="spacing" textLength="3.6118" x="266.3291" y="403.5264">&#160;</text><text fill="#000000" font-family="sans-serif" font-size="13" lengthAdjust="spacing" textLength="40.4663" x="269.9409" y="403.5264">Cookie</text><text fill="#000000" font-family="sans-serif" font-size="13" lengthAdjust="spacing" textLength="4.3291" x="262" y="419.8779">-</text><text fill="#000000" font-family="sans-serif" font-size="13" lengthAdjust="spacing" textLength="3.6118" x="266.3291" y="419.8779">&#160;</text><text fill="#000000" font-family="sans-serif" font-size="13" lengthAdjust="spacing" textLength="145.9263" x="269.9409" y="419.8779">localStorage(&#12461;&#12515;&#12483;&#12471;&#12517;)</text></g><g class="message" data-participant-1="browser" data-participant-2="router"><polygon fill="#181818" points="587.0762,464.0859,597.0762,468.0859,587.0762,472.0859,591.0762,468.0859" style="stroke:#181818;stroke-width:1;"/><line style="stroke:#181818;stroke-width:2;" x1="255" x2="593.0762" y1="468.0859" y2="468.0859"/><text fill="#000000" font-family="sans-serif" font-size="13" lengthAdjust="spacing" textLength="110.4619" x="262" y="463.2295">router.push('/login')</text></g><g class="message" data-participant-1="router" data-participant-2="browser"><polygon fill="#181818" points="266,494.4375,256,498.4375,266,502.4375,262,498.4375" style="stroke:#181818;stroke-width:1;"/><line style="stroke:#181818;stroke-width:2;stroke-dasharray:2.0,2.0;" x1="260" x2="598.0762" y1="498.4375" y2="498.4375"/><text fill="#000000" font-family="sans-serif" font-size="13" lengthAdjust="spacing" textLength="91" x="272" y="493.5811">&#12490;&#12499;&#12466;&#12540;&#12471;&#12519;&#12531;</text></g><g class="message" data-participant-1="browser" data-participant-2="router"><polygon fill="#181818" points="587.0762,524.7891,597.0762,528.7891,587.0762,532.7891,591.0762,528.7891" style="stroke:#181818;stroke-width:1;"/><line style="stroke:#181818;stroke-width:2;" x1="255" x2="593.0762" y1="528.7891" y2="528.7891"/><text fill="#000000" font-family="sans-serif" font-size="13" font-weight="bold" lengthAdjust="spacing" textLength="93.9072" x="262" y="523.9326">router.refresh()</text></g><path d="M614,546.7891 L614,611.7891 A5,5 0 0 0 619,616.7891 L825,616.7891 A5,5 0 0 0 830,611.7891 L830,551.7891 L820,541.7891 L619,541.7891 A5,5 0 0 0 614,546.7891" fill="#FFFDE7" style="stroke:#FBC02D;stroke-width:0.5;"/><path d="M820,541.7891 L820,549.2891 A2.5,2.5 0 0 0 822.5,551.7891 L830,551.7891 L820,541.7891" fill="#FFFDE7" style="stroke:#FBC02D;stroke-width:0.5;"/><text fill="#000000" font-family="sans-serif" font-size="13" font-weight="bold" lengthAdjust="spacing" textLength="128.6606" x="620" y="560.2842">&#37325;&#35201;: router.refresh()</text><text fill="#000000" font-family="sans-serif" font-size="13" lengthAdjust="spacing" textLength="156" x="620" y="576.6357">&#12469;&#12540;&#12496;&#12540;&#12467;&#12531;&#12509;&#12540;&#12493;&#12531;&#12488;&#12434;</text><text fill="#000000" font-family="sans-serif" font-size="13" lengthAdjust="spacing" textLength="182" x="620" y="592.9873">&#20877;&#26908;&#35388;&#12375;&#12390;&#12461;&#12515;&#12483;&#12471;&#12517;&#12434;&#12463;&#12522;&#12450;</text><text fill="#000000" font-family="sans-serif" font-size="13" lengthAdjust="spacing" textLength="195" x="620" y="609.3389">&#12371;&#12428;&#12364;&#12394;&#12356;&#12392;&#21476;&#12356;&#35469;&#35388;&#29366;&#24907;&#12364;&#27531;&#12427;</text><g class="message" data-participant-1="router" data-participant-2="browser"><polygon fill="#181818" points="266,640.5469,256,644.5469,266,648.5469,262,644.5469" style="stroke:#181818;stroke-width:1;"/><line style="stroke:#181818;stroke-width:2;stroke-dasharray:2.0,2.0;" x1="260" x2="603.0762" y1="644.5469" y2="644.5469"/><text fill="#000000" font-family="sans-serif" font-size="13" lengthAdjust="spacing" textLength="182" x="272" y="639.6904">&#12469;&#12540;&#12496;&#12540;&#12467;&#12531;&#12509;&#12540;&#12493;&#12531;&#12488;&#20877;&#26908;&#35388;</text></g><g class="message" data-participant-1="browser" data-participant-2="user"><polygon fill="#181818" points="68,670.8984,58,674.8984,68,678.8984,64,674.8984" style="stroke:#181818;stroke-width:1;"/><line style="stroke:#181818;stroke-width:2;stroke-dasharray:2.0,2.0;" x1="62" x2="249" y1="674.8984" y2="674.8984"/><text fill="#000000" font-family="sans-serif" font-size="13" lengthAdjust="spacing" textLength="117" x="74" y="670.042">&#12525;&#12464;&#12452;&#12531;&#12506;&#12540;&#12472;&#34920;&#31034;</text></g><!--SRC=[dLHRJnD157xVNp61XxOavLAYQ1ECKDetBw7wnilI3ktQThVkHOd6Xvq1WGA1QCIW60EMYk0THT4c_fYJBV34N_3iT5ksN69asqmcvvplE_S9zF_t9mK8i1_0gy2-0Dy6jkkyt8uIu1-0VGQs1gm2V1huCrV2guVLQM2VWBy3LdQrYE3JZltji3g3JBTZf2SSEG6sbu7DehfMNjdVg4P9J5DDEcxsaMkncoHCabPH7fKDIfB9OMVolLDT03u33Dsj0r-jkv02vqXDCdAAMfHrkK0CUjUYQeeEwBfs_rPMIULKQXWauZFHDKjDfpHTfJhfwVOf2l9u0Otb33MK1vH4khlzp7YQIaefogf97ae4lq4vbSi8jfYMrtJIdXXmVtMTfgUfxialYazwvATJDPEUoPD83CNxJl8a1cFTaI6NnrJCF3rNyoGvPI9N6x0D8Py1NX5JiODd6v4DOXbKb_pPjW5V4cGLj1fHWx6yGb4Sqmf5JSLRIC16iU289EtntaGaCTJAq6pzW6LcaUAguGcw34EluniI9BYKk12_t4fm7UUeyuv1XZNBfBe0wE8ggjKRnrRrznyl275dmqs7XAyqupjbvbU0_H4xyKIKRHCunujRAUMUZ6toe9BKu42wPhXHOYWPzOPb1aD7Y8OMEzwmQyK0-osyu4Q-HTTx4wjEQTUPMyBQD6e5xBlR6Bw89pOlT1PLJDDo2dLcIWVBvThSr5xvbzzhI-QrwKMdz5fAqrC2zUNMMYftEBQ0RnqBkUvmH0rx0RYtl9QIyqcSBzoXeDZiDmt8UgZ5XTUyg7VfB5f6DXZeociPHGtu2bbNIvvv-5Xm9U1FWNqL8NfXdUwbeyFpezCndQAhK4U795PGLp9PasXZ3Ky4RG-cvlShTZCsFuOGVrk0ROibUYKay_L5mp52C-VnVFqP1Fivs9LZnJWQDRRcSjgOnXpO-Dy4UmBi3MUXZ9VzpNbas2ljr2PdKLlxEEi-i5HDY-T3EgCi_mgm6Pf_4BpqZwg7d5RhlfG5_8MW_Rc_kY4cpKVHM9E_]--></g></svg>