<svg xmlns="http://www.w3.org/2000/svg" xmlns:xlink="http://www.w3.org/1999/xlink" contentStyleType="text/css" data-diagram-type="SEQUENCE" height="1286px" preserveAspectRatio="none" style="width:1156px;height:1286px;background:#FFFFFF;" version="1.1" viewBox="0 0 1156 1286" width="1156px" zoomAndPan="magnify"><title>&#12503;&#12525;&#12472;&#12455;&#12463;&#12488;&#32232;&#38598;&#12501;&#12525;&#12540;&#65288;UC 2-3&#65289;</title><defs/><g><text fill="#000000" font-family="sans-serif" font-size="14" font-weight="bold" lengthAdjust="spacing" textLength="232.0322" x="458.2107" y="29.5332">&#12503;&#12525;&#12472;&#12455;&#12463;&#12488;&#32232;&#38598;&#12501;&#12525;&#12540;&#65288;UC 2-3&#65289;</text><g><title>&lt;u&gt;&#12502;&#12521;&#12454;&#12470;</title><rect fill="#FFFFFF" height="977.3281" style="stroke:#181818;stroke-width:1;" width="10" x="275" y="201.5313"/></g><g><title>&lt;u&gt;Next.js</title><rect fill="#FFFFFF" height="528.2188" style="stroke:#181818;stroke-width:1;" width="10" x="513.2295" y="554.9375"/></g><g><title>&lt;u&gt;ProjectService</title><rect fill="#FFFFFF" height="434.8125" style="stroke:#181818;stroke-width:1;" width="10" x="701.0903" y="601.6406"/></g><g><title>&lt;u&gt;Supabase</title><rect fill="#FFFFFF" height="30.3516" style="stroke:#181818;stroke-width:1;" width="10" x="874.6392" y="648.3438"/></g><g><title>&lt;u&gt;Supabase</title><rect fill="#FFFFFF" height="115.7578" style="stroke:#181818;stroke-width:1;" width="10" x="874.6392" y="890.3438"/></g><rect fill="none" height="720.1641" rx="5" ry="5" style="stroke:#000000;stroke-width:1.5;" width="1129.4536" x="10" y="451.6953"/><rect fill="none" height="471.1641" rx="5" ry="5" style="stroke:#000000;stroke-width:1.5;" width="1109.4536" x="20" y="693.6953"/><g><title>&lt;u&gt;&#12456;&#12531;&#12489;&#12518;&#12540;&#12470;&#12540;</title><rect fill="#000000" fill-opacity="0.00000" height="1064.0313" width="8" x="78" y="124.8281"/><line style="stroke:#181818;stroke-width:0.5;stroke-dasharray:5.0,5.0;" x1="82" x2="82" y1="124.8281" y2="1188.8594"/></g><g><title>&lt;u&gt;&#12502;&#12521;&#12454;&#12470;</title><rect fill="#000000" fill-opacity="0.00000" height="1064.0313" width="8" x="276" y="124.8281"/><line style="stroke:#181818;stroke-width:0.5;stroke-dasharray:5.0,5.0;" x1="279.1035" x2="279.1035" y1="124.8281" y2="1188.8594"/></g><g><title>&lt;u&gt;Next.js</title><rect fill="#000000" fill-opacity="0.00000" height="1064.0313" width="8" x="514.2295" y="124.8281"/><line style="stroke:#181818;stroke-width:0.5;stroke-dasharray:5.0,5.0;" x1="517.8228" x2="517.8228" y1="124.8281" y2="1188.8594"/></g><g><title>&lt;u&gt;ProjectService</title><rect fill="#000000" fill-opacity="0.00000" height="1064.0313" width="8" x="702.0903" y="124.8281"/><line style="stroke:#181818;stroke-width:0.5;stroke-dasharray:5.0,5.0;" x1="705.9629" x2="705.9629" y1="124.8281" y2="1188.8594"/></g><g><title>&lt;u&gt;Supabase</title><rect fill="#000000" fill-opacity="0.00000" height="1064.0313" width="8" x="875.6392" y="124.8281"/><line style="stroke:#181818;stroke-width:0.5;stroke-dasharray:5.0,5.0;" x1="879.1118" x2="879.1118" y1="124.8281" y2="1188.8594"/></g><g class="participant participant-head" data-participant="user"><text fill="#000000" font-family="sans-serif" font-size="14" lengthAdjust="spacing" text-decoration="underline" textLength="98" x="30" y="121.752">&#12456;&#12531;&#12489;&#12518;&#12540;&#12470;&#12540;</text><ellipse cx="82" cy="55.7188" fill="#E2E2F0" rx="8" ry="8" style="stroke:#181818;stroke-width:0.5;"/><path d="M82,63.7188 L82,90.7188 M69,71.7188 L95,71.7188 M82,90.7188 L69,105.7188 M82,90.7188 L95,105.7188" fill="none" style="stroke:#181818;stroke-width:0.5;"/></g><g class="participant participant-tail" data-participant="user"><text fill="#000000" font-family="sans-serif" font-size="14" lengthAdjust="spacing" text-decoration="underline" textLength="98" x="30" y="1202.3926">&#12456;&#12531;&#12489;&#12518;&#12540;&#12470;&#12540;</text><ellipse cx="82" cy="1213.9688" fill="#E2E2F0" rx="8" ry="8" style="stroke:#181818;stroke-width:0.5;"/><path d="M82,1221.9688 L82,1248.9688 M69,1229.9688 L95,1229.9688 M82,1248.9688 L69,1263.9688 M82,1248.9688 L95,1263.9688" fill="none" style="stroke:#181818;stroke-width:0.5;"/></g><g class="participant participant-head" data-participant="browser"><rect fill="#E3F2FD" height="49.2188" rx="5" ry="5" style="stroke:#666666;stroke-width:0.5;" width="105.793" x="227.1035" y="74.6094"/><text fill="#000000" font-family="sans-serif" font-size="14" lengthAdjust="spacing" text-decoration="underline" textLength="56" x="252" y="96.1426">&#12502;&#12521;&#12454;&#12470;</text><text fill="#000000" font-family="sans-serif" font-size="14" lengthAdjust="spacing" text-decoration="underline" textLength="91.793" x="234.1035" y="113.752">(Next.js Client)</text></g><g class="participant participant-tail" data-participant="browser"><rect fill="#E3F2FD" height="49.2188" rx="5" ry="5" style="stroke:#666666;stroke-width:0.5;" width="105.793" x="227.1035" y="1187.8594"/><text fill="#000000" font-family="sans-serif" font-size="14" lengthAdjust="spacing" text-decoration="underline" textLength="56" x="252" y="1209.3926">&#12502;&#12521;&#12454;&#12470;</text><text fill="#000000" font-family="sans-serif" font-size="14" lengthAdjust="spacing" text-decoration="underline" textLength="91.793" x="234.1035" y="1227.002">(Next.js Client)</text></g><g class="participant participant-head" data-participant="api"><rect fill="#FFF3E0" height="49.2188" rx="5" ry="5" style="stroke:#666666;stroke-width:0.5;" width="84.8135" x="475.8228" y="74.6094"/><text fill="#000000" font-family="sans-serif" font-size="14" lengthAdjust="spacing" text-decoration="underline" textLength="42.7861" x="496.8364" y="96.1426">Next.js</text><text fill="#000000" font-family="sans-serif" font-size="14" lengthAdjust="spacing" text-decoration="underline" textLength="70.8135" x="482.8228" y="113.752">API Routes</text></g><g class="participant participant-tail" data-participant="api"><rect fill="#FFF3E0" height="49.2188" rx="5" ry="5" style="stroke:#666666;stroke-width:0.5;" width="84.8135" x="475.8228" y="1187.8594"/><text fill="#000000" font-family="sans-serif" font-size="14" lengthAdjust="spacing" text-decoration="underline" textLength="42.7861" x="496.8364" y="1209.3926">Next.js</text><text fill="#000000" font-family="sans-serif" font-size="14" lengthAdjust="spacing" text-decoration="underline" textLength="70.8135" x="482.8228" y="1227.002">API Routes</text></g><g class="participant participant-head" data-participant="service"><rect fill="#E8F5E9" height="31.6094" rx="5" ry="5" style="stroke:#666666;stroke-width:0.5;" width="104.2549" x="653.9629" y="92.2188"/><text fill="#000000" font-family="sans-serif" font-size="14" lengthAdjust="spacing" text-decoration="underline" textLength="90.2549" x="660.9629" y="113.752">ProjectService</text></g><g class="participant participant-tail" data-participant="service"><rect fill="#E8F5E9" height="31.6094" rx="5" ry="5" style="stroke:#666666;stroke-width:0.5;" width="104.2549" x="653.9629" y="1187.8594"/><text fill="#000000" font-family="sans-serif" font-size="14" lengthAdjust="spacing" text-decoration="underline" textLength="90.2549" x="660.9629" y="1209.3926">ProjectService</text></g><g class="participant participant-head" data-participant="storage"><text fill="#000000" font-family="sans-serif" font-size="14" lengthAdjust="spacing" text-decoration="underline" textLength="63.0547" x="845.1118" y="104.1426">Supabase</text><text fill="#000000" font-family="sans-serif" font-size="14" lengthAdjust="spacing" text-decoration="underline" textLength="49.0342" x="852.1221" y="121.752">Storage</text><path d="M861.6392,53.6094 C861.6392,43.6094 879.6392,43.6094 879.6392,43.6094 C879.6392,43.6094 897.6392,43.6094 897.6392,53.6094 L897.6392,79.6094 C897.6392,89.6094 879.6392,89.6094 879.6392,89.6094 C879.6392,89.6094 861.6392,89.6094 861.6392,79.6094 L861.6392,53.6094" fill="#FCE4EC" style="stroke:#181818;stroke-width:1.5;"/><path d="M861.6392,53.6094 C861.6392,63.6094 879.6392,63.6094 879.6392,63.6094 C879.6392,63.6094 897.6392,63.6094 897.6392,53.6094" fill="none" style="stroke:#181818;stroke-width:1.5;"/></g><g class="participant participant-tail" data-participant="storage"><text fill="#000000" font-family="sans-serif" font-size="14" lengthAdjust="spacing" text-decoration="underline" textLength="63.0547" x="845.1118" y="1202.3926">Supabase</text><text fill="#000000" font-family="sans-serif" font-size="14" lengthAdjust="spacing" text-decoration="underline" textLength="49.0342" x="852.1221" y="1220.002">Storage</text><path d="M861.6392,1233.0781 C861.6392,1223.0781 879.6392,1223.0781 879.6392,1223.0781 C879.6392,1223.0781 897.6392,1223.0781 897.6392,1233.0781 L897.6392,1259.0781 C897.6392,1269.0781 879.6392,1269.0781 879.6392,1269.0781 C879.6392,1269.0781 861.6392,1269.0781 861.6392,1259.0781 L861.6392,1233.0781" fill="#FCE4EC" style="stroke:#181818;stroke-width:1.5;"/><path d="M861.6392,1233.0781 C861.6392,1243.0781 879.6392,1243.0781 879.6392,1243.0781 C879.6392,1243.0781 897.6392,1243.0781 897.6392,1233.0781" fill="none" style="stroke:#181818;stroke-width:1.5;"/></g><g><title>&lt;u&gt;&#12502;&#12521;&#12454;&#12470;</title><rect fill="#FFFFFF" height="977.3281" style="stroke:#181818;stroke-width:1;" width="10" x="275" y="201.5313"/></g><g><title>&lt;u&gt;Next.js</title><rect fill="#FFFFFF" height="528.2188" style="stroke:#181818;stroke-width:1;" width="10" x="513.2295" y="554.9375"/></g><g><title>&lt;u&gt;ProjectService</title><rect fill="#FFFFFF" height="434.8125" style="stroke:#181818;stroke-width:1;" width="10" x="701.0903" y="601.6406"/></g><g><title>&lt;u&gt;Supabase</title><rect fill="#FFFFFF" height="30.3516" style="stroke:#181818;stroke-width:1;" width="10" x="874.6392" y="648.3438"/></g><g><title>&lt;u&gt;Supabase</title><rect fill="#FFFFFF" height="115.7578" style="stroke:#181818;stroke-width:1;" width="10" x="874.6392" y="890.3438"/></g><rect fill="#EEEEEE" height="3" rx="5" ry="5" style="stroke:#EEEEEE;stroke-width:1;" width="1149.4536" x="0" y="156.0039"/><line style="stroke:#000000;stroke-width:1;" x1="0" x2="1149.4536" y1="156.0039" y2="156.0039"/><line style="stroke:#000000;stroke-width:1;" x1="0" x2="1149.4536" y1="159.0039" y2="159.0039"/><rect fill="#EEEEEE" height="24.3516" rx="5" ry="5" style="stroke:#000000;stroke-width:2;" width="151.6743" x="498.8896" y="144.8281"/><text fill="#000000" font-family="sans-serif" font-size="13" font-weight="bold" lengthAdjust="spacing" textLength="134.0625" x="504.8896" y="162.3232">&#12503;&#12525;&#12472;&#12455;&#12463;&#12488;&#32232;&#38598;&#38283;&#22987;</text><g class="message" data-participant-1="user" data-participant-2="browser"><polygon fill="#181818" points="263,197.5313,273,201.5313,263,205.5313,267,201.5313" style="stroke:#181818;stroke-width:1;"/><line style="stroke:#181818;stroke-width:2;" x1="82" x2="269" y1="201.5313" y2="201.5313"/><text fill="#000000" font-family="sans-serif" font-size="13" lengthAdjust="spacing" textLength="130" x="89" y="196.6748">&#32232;&#38598;&#12508;&#12479;&#12531;&#12434;&#12463;&#12522;&#12483;&#12463;</text></g><g class="message" data-participant-1="browser" data-participant-2="browser"><line style="stroke:#181818;stroke-width:2;" x1="285" x2="327" y1="248.2344" y2="248.2344"/><line style="stroke:#181818;stroke-width:2;" x1="327" x2="327" y1="248.2344" y2="261.2344"/><line style="stroke:#181818;stroke-width:2;" x1="286" x2="327" y1="261.2344" y2="261.2344"/><polygon fill="#181818" points="296,257.2344,286,261.2344,296,265.2344,292,261.2344" style="stroke:#181818;stroke-width:1;"/><text fill="#000000" font-family="sans-serif" font-size="13" lengthAdjust="spacing" textLength="143" x="292" y="227.0264">&#21517;&#21069;&#22793;&#26356;&#12480;&#12452;&#12450;&#12525;&#12464;&#34920;&#31034;</text><text fill="#000000" font-family="sans-serif" font-size="13" lengthAdjust="spacing" textLength="169" x="292" y="243.3779">&#65288;&#29694;&#22312;&#12398;&#21517;&#21069;&#12434;&#12503;&#12522;&#12475;&#12483;&#12488;&#65289;</text></g><g class="message" data-participant-1="user" data-participant-2="browser"><polygon fill="#181818" points="263,287.5859,273,291.5859,263,295.5859,267,291.5859" style="stroke:#181818;stroke-width:1;"/><line style="stroke:#181818;stroke-width:2;" x1="82" x2="269" y1="291.5859" y2="291.5859"/><text fill="#000000" font-family="sans-serif" font-size="13" lengthAdjust="spacing" textLength="169" x="89" y="286.7295">&#26032;&#12375;&#12356;&#12503;&#12525;&#12472;&#12455;&#12463;&#12488;&#21517;&#12434;&#20837;&#21147;</text></g><g class="message" data-participant-1="browser" data-participant-2="browser"><line style="stroke:#181818;stroke-width:2;" x1="285" x2="327" y1="321.9375" y2="321.9375"/><line style="stroke:#181818;stroke-width:2;" x1="327" x2="327" y1="321.9375" y2="334.9375"/><line style="stroke:#181818;stroke-width:2;" x1="286" x2="327" y1="334.9375" y2="334.9375"/><polygon fill="#181818" points="296,330.9375,286,334.9375,296,338.9375,292,334.9375" style="stroke:#181818;stroke-width:1;"/><text fill="#000000" font-family="sans-serif" font-size="13" lengthAdjust="spacing" textLength="169" x="292" y="317.0811">&#12463;&#12521;&#12452;&#12450;&#12531;&#12488;&#12496;&#12522;&#12487;&#12540;&#12471;&#12519;&#12531;</text></g><path d="M290,352.9375 L290,433.9375 A5,5 0 0 0 295,438.9375 L482,438.9375 A5,5 0 0 0 487,433.9375 L487,357.9375 L477,347.9375 L295,347.9375 A5,5 0 0 0 290,352.9375" fill="#FFFDE7" style="stroke:#FBC02D;stroke-width:0.5;"/><path d="M477,347.9375 L477,355.4375 A2.5,2.5 0 0 0 479.5,357.9375 L487,357.9375 L477,347.9375" fill="#FFFDE7" style="stroke:#FBC02D;stroke-width:0.5;"/><text fill="#000000" font-family="sans-serif" font-size="13" font-weight="bold" lengthAdjust="spacing" textLength="134.0625" x="296" y="366.4326">&#12496;&#12522;&#12487;&#12540;&#12471;&#12519;&#12531;&#12523;&#12540;&#12523;</text><text fill="#000000" font-family="sans-serif" font-size="13" lengthAdjust="spacing" textLength="176.9409" x="296" y="382.7842">- &#24517;&#38920;&#12481;&#12455;&#12483;&#12463;&#65288;&#31354;&#25991;&#23383;&#19981;&#21487;&#65289;</text><text fill="#000000" font-family="sans-serif" font-size="13" lengthAdjust="spacing" textLength="166.8608" x="296" y="399.1357">- &#25991;&#23383;&#25968;&#21046;&#38480;&#65288;1&#12316;100&#25991;&#23383;&#65289;</text><text fill="#000000" font-family="sans-serif" font-size="13" lengthAdjust="spacing" textLength="111.9409" x="296" y="415.4873">- &#31105;&#27490;&#25991;&#23383;&#12481;&#12455;&#12483;&#12463;</text><text fill="#000000" font-family="sans-serif" font-size="13" lengthAdjust="spacing" textLength="75.1943" x="303.2236" y="431.8389">&lt; &gt; : " / \ | ? *</text><path d="M15,451.6953 L70.1709,451.6953 L70.1709,460.0469 L60.1709,470.0469 L10,470.0469 L10,456.6953 A5,5 0 0 1 15,451.6953" fill="#EEEEEE" style="stroke:#000000;stroke-width:1.5;"/><rect fill="none" height="720.1641" rx="5" ry="5" style="stroke:#000000;stroke-width:1.5;" width="1129.4536" x="10" y="451.6953"/><text fill="#000000" font-family="sans-serif" font-size="13" font-weight="bold" lengthAdjust="spacing" textLength="15.1709" x="25" y="466.1904">alt</text><text fill="#000000" font-family="sans-serif" font-size="11" font-weight="bold" lengthAdjust="spacing" textLength="103.2324" x="85.1709" y="465.1143">[&#12496;&#12522;&#12487;&#12540;&#12471;&#12519;&#12531;NG]</text><g class="message" data-participant-1="browser" data-participant-2="user"><polygon fill="#181818" points="93,488.3984,83,492.3984,93,496.3984,89,492.3984" style="stroke:#181818;stroke-width:1;"/><line style="stroke:#181818;stroke-width:2;stroke-dasharray:2.0,2.0;" x1="87" x2="274" y1="492.3984" y2="492.3984"/><text fill="#000000" font-family="sans-serif" font-size="13" lengthAdjust="spacing" textLength="156" x="99" y="487.542">&#12496;&#12522;&#12487;&#12540;&#12471;&#12519;&#12531;&#12456;&#12521;&#12540;&#34920;&#31034;</text></g><line style="stroke:#000000;stroke-width:1;stroke-dasharray:2.0,2.0;" x1="10" x2="1139.4536" y1="501.3984" y2="501.3984"/><text fill="#000000" font-family="sans-serif" font-size="11" font-weight="bold" lengthAdjust="spacing" textLength="103.2324" x="15" y="512.8174">[&#12496;&#12522;&#12487;&#12540;&#12471;&#12519;&#12531;OK]</text><g class="message" data-participant-1="browser" data-participant-2="api"><polygon fill="#181818" points="501.2295,550.9375,511.2295,554.9375,501.2295,558.9375,505.2295,554.9375" style="stroke:#181818;stroke-width:1;"/><line style="stroke:#181818;stroke-width:2;" x1="285" x2="507.2295" y1="554.9375" y2="554.9375"/><text fill="#000000" font-family="sans-serif" font-size="13" lengthAdjust="spacing" textLength="26" x="292" y="533.7295">PUT</text><text fill="#000000" font-family="sans-serif" font-size="13" lengthAdjust="spacing" textLength="3.6118" x="318" y="533.7295">&#160;</text><text fill="#000000" font-family="sans-serif" font-size="13" lengthAdjust="spacing" textLength="132.2471" x="321.6118" y="533.7295">/api/projects/{projectId}</text><text fill="#000000" font-family="sans-serif" font-size="13" lengthAdjust="spacing" textLength="4.3418" x="292" y="550.0811">{</text><text fill="#000000" font-family="sans-serif" font-size="13" lengthAdjust="spacing" textLength="3.6118" x="296.3418" y="550.0811">&#160;</text><text fill="#000000" font-family="sans-serif" font-size="13" lengthAdjust="spacing" textLength="36.1309" x="299.9536" y="550.0811">name:</text><text fill="#000000" font-family="sans-serif" font-size="13" lengthAdjust="spacing" textLength="3.6118" x="336.0845" y="550.0811">&#160;</text><text fill="#000000" font-family="sans-serif" font-size="13" lengthAdjust="spacing" textLength="74.2295" x="339.6963" y="550.0811">"&#26032;&#12375;&#12356;&#21517;&#21069;"</text><text fill="#000000" font-family="sans-serif" font-size="13" lengthAdjust="spacing" textLength="3.6118" x="413.9258" y="550.0811">&#160;</text><text fill="#000000" font-family="sans-serif" font-size="13" lengthAdjust="spacing" textLength="4.3418" x="417.5376" y="550.0811">}</text></g><g class="message" data-participant-1="api" data-participant-2="service"><polygon fill="#181818" points="689.0903,597.6406,699.0903,601.6406,689.0903,605.6406,693.0903,601.6406" style="stroke:#181818;stroke-width:1;"/><line style="stroke:#181818;stroke-width:2;" x1="523.2295" x2="695.0903" y1="601.6406" y2="601.6406"/><text fill="#000000" font-family="sans-serif" font-size="13" lengthAdjust="spacing" textLength="138.0234" x="530.2295" y="580.4326">updateProject(projectId,</text><text fill="#000000" font-family="sans-serif" font-size="13" lengthAdjust="spacing" textLength="62.8545" x="530.2295" y="596.7842">newName)</text></g><g class="message" data-participant-1="service" data-participant-2="storage"><polygon fill="#181818" points="862.6392,644.3438,872.6392,648.3438,862.6392,652.3438,866.6392,648.3438" style="stroke:#181818;stroke-width:1;"/><line style="stroke:#181818;stroke-width:2;" x1="711.0903" x2="868.6392" y1="648.3438" y2="648.3438"/><text fill="#000000" font-family="sans-serif" font-size="13" lengthAdjust="spacing" textLength="117" x="718.0903" y="627.1357">&#26032;&#12501;&#12457;&#12523;&#12480;&#23384;&#22312;&#30906;&#35469;</text><text fill="#000000" font-family="sans-serif" font-size="13" lengthAdjust="spacing" textLength="134.437" x="718.0903" y="643.4873">/{user_id}/{new_name}/</text></g><g class="message" data-participant-1="storage" data-participant-2="service"><polygon fill="#181818" points="722.0903,674.6953,712.0903,678.6953,722.0903,682.6953,718.0903,678.6953" style="stroke:#181818;stroke-width:1;"/><line style="stroke:#181818;stroke-width:2;stroke-dasharray:2.0,2.0;" x1="716.0903" x2="878.6392" y1="678.6953" y2="678.6953"/><text fill="#000000" font-family="sans-serif" font-size="13" lengthAdjust="spacing" textLength="52" x="728.0903" y="673.8389">&#23384;&#22312;&#26377;&#28961;</text></g><path d="M25,693.6953 L80.1709,693.6953 L80.1709,702.0469 L70.1709,712.0469 L20,712.0469 L20,698.6953 A5,5 0 0 1 25,693.6953" fill="#EEEEEE" style="stroke:#000000;stroke-width:1.5;"/><rect fill="none" height="471.1641" rx="5" ry="5" style="stroke:#000000;stroke-width:1.5;" width="1109.4536" x="20" y="693.6953"/><text fill="#000000" font-family="sans-serif" font-size="13" font-weight="bold" lengthAdjust="spacing" textLength="15.1709" x="35" y="708.1904">alt</text><text fill="#000000" font-family="sans-serif" font-size="11" font-weight="bold" lengthAdjust="spacing" textLength="120.7637" x="95.1709" y="707.1143">[&#21516;&#21517;&#12503;&#12525;&#12472;&#12455;&#12463;&#12488;&#23384;&#22312;]</text><g class="message" data-participant-1="service" data-participant-2="api"><polygon fill="#181818" points="534.2295,730.3984,524.2295,734.3984,534.2295,738.3984,530.2295,734.3984" style="stroke:#181818;stroke-width:1;"/><line style="stroke:#181818;stroke-width:2;stroke-dasharray:2.0,2.0;" x1="528.2295" x2="700.0903" y1="734.3984" y2="734.3984"/><text fill="#000000" font-family="sans-serif" font-size="13" lengthAdjust="spacing" textLength="32.5" x="540.2295" y="729.542">Error:</text><text fill="#000000" font-family="sans-serif" font-size="13" lengthAdjust="spacing" textLength="3.6118" x="572.7295" y="729.542">&#160;</text><text fill="#000000" font-family="sans-serif" font-size="13" lengthAdjust="spacing" textLength="117.749" x="576.3413" y="729.542">DUPLICATE_NAME</text></g><g class="message" data-participant-1="api" data-participant-2="browser"><polygon fill="#181818" points="296,777.1016,286,781.1016,296,785.1016,292,781.1016" style="stroke:#181818;stroke-width:1;"/><line style="stroke:#181818;stroke-width:2;stroke-dasharray:2.0,2.0;" x1="290" x2="512.2295" y1="781.1016" y2="781.1016"/><text fill="#000000" font-family="sans-serif" font-size="13" lengthAdjust="spacing" textLength="21.6899" x="302" y="759.8936">409</text><text fill="#000000" font-family="sans-serif" font-size="13" lengthAdjust="spacing" textLength="3.6118" x="323.6899" y="759.8936">&#160;</text><text fill="#000000" font-family="sans-serif" font-size="13" lengthAdjust="spacing" textLength="43.3481" x="327.3018" y="759.8936">Conflict</text><text fill="#000000" font-family="sans-serif" font-size="13" lengthAdjust="spacing" textLength="204.2295" x="302" y="776.2451">"&#21516;&#21517;&#12398;&#12503;&#12525;&#12472;&#12455;&#12463;&#12488;&#12364;&#23384;&#22312;&#12375;&#12414;&#12377;"</text></g><g class="message" data-participant-1="browser" data-participant-2="user"><polygon fill="#181818" points="93,807.4531,83,811.4531,93,815.4531,89,811.4531" style="stroke:#181818;stroke-width:1;"/><line style="stroke:#181818;stroke-width:2;stroke-dasharray:2.0,2.0;" x1="87" x2="274" y1="811.4531" y2="811.4531"/><text fill="#000000" font-family="sans-serif" font-size="13" lengthAdjust="spacing" textLength="130" x="99" y="806.5967">&#12456;&#12521;&#12540;&#12513;&#12483;&#12475;&#12540;&#12472;&#34920;&#31034;</text></g><line style="stroke:#000000;stroke-width:1;stroke-dasharray:2.0,2.0;" x1="20" x2="1129.4536" y1="820.4531" y2="820.4531"/><text fill="#000000" font-family="sans-serif" font-size="11" font-weight="bold" lengthAdjust="spacing" textLength="52.7012" x="25" y="831.8721">[&#21516;&#21517;&#12394;&#12375;]</text><g class="message" data-participant-1="service" data-participant-2="storage"><polygon fill="#181818" points="862.6392,886.3438,872.6392,890.3438,862.6392,894.3438,866.6392,890.3438" style="stroke:#181818;stroke-width:1;"/><line style="stroke:#181818;stroke-width:2;" x1="711.0903" x2="868.6392" y1="890.3438" y2="890.3438"/><text fill="#000000" font-family="sans-serif" font-size="13" lengthAdjust="spacing" textLength="91" x="718.0903" y="852.7842">&#12501;&#12457;&#12523;&#12480;&#21517;&#22793;&#26356;</text><text fill="#000000" font-family="sans-serif" font-size="13" lengthAdjust="spacing" textLength="127.937" x="718.0903" y="869.1357">/{user_id}/{old_name}/</text><text fill="#000000" font-family="sans-serif" font-size="13" lengthAdjust="spacing" textLength="3.6118" x="846.0273" y="869.1357">&#160;</text><text fill="#000000" font-family="sans-serif" font-size="13" lengthAdjust="spacing" textLength="13" x="849.6392" y="869.1357">&#8594;</text><text fill="#000000" font-family="sans-serif" font-size="13" lengthAdjust="spacing" textLength="134.437" x="718.0903" y="885.4873">/{user_id}/{new_name}/</text></g><path d="M889,908.3438 L889,973.3438 A5,5 0 0 0 894,978.3438 L1114,978.3438 A5,5 0 0 0 1119,973.3438 L1119,913.3438 L1109,903.3438 L894,903.3438 A5,5 0 0 0 889,908.3438" fill="#FFFDE7" style="stroke:#FBC02D;stroke-width:0.5;"/><path d="M1109,903.3438 L1109,910.8438 A2.5,2.5 0 0 0 1111.5,913.3438 L1119,913.3438 L1109,903.3438" fill="#FFFDE7" style="stroke:#FBC02D;stroke-width:0.5;"/><text fill="#000000" font-family="sans-serif" font-size="13" font-weight="bold" lengthAdjust="spacing" textLength="75.2134" x="895" y="921.8389">Storage&#25805;&#20316;</text><text fill="#000000" font-family="sans-serif" font-size="13" lengthAdjust="spacing" textLength="209.4536" x="895" y="938.1904">1. &#37197;&#19979;&#12501;&#12449;&#12452;&#12523;&#12434;&#26032;&#12501;&#12457;&#12523;&#12480;&#12408;&#31227;&#21205;</text><text fill="#000000" font-family="sans-serif" font-size="13" lengthAdjust="spacing" textLength="118.4536" x="895" y="954.542">2. &#26087;&#12501;&#12457;&#12523;&#12480;&#12434;&#21066;&#38500;</text><text fill="#000000" font-family="sans-serif" font-size="13" lengthAdjust="spacing" textLength="109.8208" x="895" y="970.8936">Storage Policy&#36969;&#29992;</text><g class="message" data-participant-1="storage" data-participant-2="service"><polygon fill="#181818" points="722.0903,1002.1016,712.0903,1006.1016,722.0903,1010.1016,718.0903,1006.1016" style="stroke:#181818;stroke-width:1;"/><line style="stroke:#181818;stroke-width:2;stroke-dasharray:2.0,2.0;" x1="716.0903" x2="878.6392" y1="1006.1016" y2="1006.1016"/><text fill="#000000" font-family="sans-serif" font-size="13" lengthAdjust="spacing" textLength="52" x="728.0903" y="1001.2451">&#22793;&#26356;&#25104;&#21151;</text></g><g class="message" data-participant-1="service" data-participant-2="api"><polygon fill="#181818" points="534.2295,1032.4531,524.2295,1036.4531,534.2295,1040.4531,530.2295,1036.4531" style="stroke:#181818;stroke-width:1;"/><line style="stroke:#181818;stroke-width:2;stroke-dasharray:2.0,2.0;" x1="528.2295" x2="705.0903" y1="1036.4531" y2="1036.4531"/><text fill="#000000" font-family="sans-serif" font-size="13" lengthAdjust="spacing" textLength="92.46" x="540.2295" y="1031.5967">Project&#26356;&#26032;&#23436;&#20102;</text></g><g class="message" data-participant-1="api" data-participant-2="browser"><polygon fill="#181818" points="296,1079.1563,286,1083.1563,296,1087.1563,292,1083.1563" style="stroke:#181818;stroke-width:1;"/><line style="stroke:#181818;stroke-width:2;stroke-dasharray:2.0,2.0;" x1="290" x2="517.2295" y1="1083.1563" y2="1083.1563"/><text fill="#000000" font-family="sans-serif" font-size="13" lengthAdjust="spacing" textLength="21.6899" x="302" y="1061.9482">200</text><text fill="#000000" font-family="sans-serif" font-size="13" lengthAdjust="spacing" textLength="3.6118" x="323.6899" y="1061.9482">&#160;</text><text fill="#000000" font-family="sans-serif" font-size="13" lengthAdjust="spacing" textLength="18.7827" x="327.3018" y="1061.9482">OK</text><text fill="#000000" font-family="sans-serif" font-size="13" lengthAdjust="spacing" textLength="4.3418" x="302" y="1078.2998">{</text><text fill="#000000" font-family="sans-serif" font-size="13" lengthAdjust="spacing" textLength="3.6118" x="306.3418" y="1078.2998">&#160;</text><text fill="#000000" font-family="sans-serif" font-size="13" lengthAdjust="spacing" textLength="39.019" x="309.9536" y="1078.2998">project</text><text fill="#000000" font-family="sans-serif" font-size="13" lengthAdjust="spacing" textLength="3.6118" x="348.9727" y="1078.2998">&#160;</text><text fill="#000000" font-family="sans-serif" font-size="13" lengthAdjust="spacing" textLength="4.3418" x="352.5845" y="1078.2998">}</text></g><g class="message" data-participant-1="browser" data-participant-2="browser"><line style="stroke:#181818;stroke-width:2;" x1="285" x2="327" y1="1113.5078" y2="1113.5078"/><line style="stroke:#181818;stroke-width:2;" x1="327" x2="327" y1="1113.5078" y2="1126.5078"/><line style="stroke:#181818;stroke-width:2;" x1="286" x2="327" y1="1126.5078" y2="1126.5078"/><polygon fill="#181818" points="296,1122.5078,286,1126.5078,296,1130.5078,292,1126.5078" style="stroke:#181818;stroke-width:1;"/><text fill="#000000" font-family="sans-serif" font-size="13" lengthAdjust="spacing" textLength="130" x="292" y="1108.6514">&#12503;&#12525;&#12472;&#12455;&#12463;&#12488;&#19968;&#35239;&#26356;&#26032;</text></g><g class="message" data-participant-1="browser" data-participant-2="user"><polygon fill="#181818" points="93,1152.8594,83,1156.8594,93,1160.8594,89,1156.8594" style="stroke:#181818;stroke-width:1;"/><line style="stroke:#181818;stroke-width:2;stroke-dasharray:2.0,2.0;" x1="87" x2="274" y1="1156.8594" y2="1156.8594"/><text fill="#000000" font-family="sans-serif" font-size="13" lengthAdjust="spacing" textLength="117" x="99" y="1152.0029">&#23436;&#20102;&#12513;&#12483;&#12475;&#12540;&#12472;&#34920;&#31034;</text></g><!--SRC=[dLPjJzjM5FxkNt6LVg2D2WcXxTPeCD6GJAWRZGPyYuJSv9Qw13kpdRORGo9seK28YDY08P0s42M42ih4r6P0s_-oYnFogNzXvzxhk0unI9kHqENwdEUyFCyvfgtxFpz26oB6EsAU4kDFOXuHuszh_IYCYBbAp7rYL8XH8iOROixMtktMrsS-dSvQnO8rLx2svwhhVtqwdIFcChKqJm5fE892xLqUpiHOuluajqQCF9XQYqPjkXH6rLVxLdxD0O7WgAlZTaVNJJJKrnuCtX7Q_aTDWZOcoHbH5SUHXd_8OZc9UrLLUJRqM4gEoLZJKCXbeYfPEPLKL1chg3FeUZ4kFXy7Ot4KQz9F68M2GG_WkAZgKbBAYBAE00UhQKd6xWmoBeC90S5pJqoEZRAe4IMjgEXQh9V-y7UA2XZs_Hts29DkE5dHyQKuiLXVz8jMdDYzI33KHt5qIK_ZIzbrQ02QEPT0i228IHrGVCJOfGenWV8T9fYtyDk7H0rbDQmAxZfzn5mXPfaOEs2LaAyFuETwnnCDHT8IblKRpEaX409-w5gqAnQAzJNxsmu9kJVUZxvNiZhMc9EOaLYPNT5WiqDSLPxWf3w8rQTI4ZDRZPyXm9Unsz6xGahKnOUYXf5lC9jXfuGy29K1lzoUdm4_4hqLZGX2T_UbdQglvArI7b6jqU9HUuzJJnWrchb1Z8ziffQOwnunJJZGTafFHM3HzX24XciJYdlEY3b5Z6rYRB5a3iytTslRnmaPQAejVh0sTadkW9lJM3JbFMASq73cB6EmDSVgoY79hPBSYzOA0GbWhEbNrlpw9Ranmt8ZfICwuMQHLVYIAGCMIWdk1O6fLPL67-j8UUGKZ93Vx-b0pDVqJ_Ertmz6xSZwE5t_0x1pD3dMFLfo-RYwyjBQNpsh5Ap5DxH0Qillgik7rkpR-beH33l9r4PdCCXVDCngExdg_XQ_SmEpgVaAzK1rFXH02VGp-Xhv1IodsCZ15AHrv9dqm3VCrsaKT2fhjycpHZf6PRZXB0euhM5lomVtcu5xcFp3A3uyX09m36IuwBN0X7tgJqqcv0aaY-COod0uvjhmeKc6v-WF80H-0x20tXYOCCfcO5YmFLFN7V2RICRF1W3yHZEGxSZ16YWKq9ueBZTOBaQPCJnbxVy6ggrj7P_l5H9oO8BsQqHAJGOc8C08JNyoS244X-8HRDZsffmvPdLZhlPYavcbS8itnmGYhU82bNchzXa8CskgnUbz5BuZQXZr3SU_xO_q3aL71dg_Yphsh95Dat8hU1T55FbHMahg2TbdnyqTU7mZSmiyEkFi0tmfVGwkbxOQCYBc9bFm2PDEnLOLzMBAQaJS0zZMkjmSDH5Kj3TFCpjAEcMpW_wPMK9N4ET9dlEcUIsukUMFtsylvkelXRFt6smRD9xE3bIVBfnLyYpVJRg486LZwOB4IAvIAvrO-MMNQwW3LLTBJLQmwERcwslRBYixD8ehGDgFzLovzkjdHNpU1qullTN8kbUTBLhplpkcbodIMshs-56ObKFhOE7iUCOJoJrytYA4_rpGW_jqCzYZR6-22qZEFhYmTLnxlqMrPvMfyvqIp_4gkVByhz2gdAAxLX1S-JG-5_y2]--></g></svg>