<svg xmlns="http://www.w3.org/2000/svg" xmlns:xlink="http://www.w3.org/1999/xlink" contentStyleType="text/css" data-diagram-type="SEQUENCE" height="1851px" preserveAspectRatio="none" style="width:1142px;height:1851px;background:#FFFFFF;" version="1.1" viewBox="0 0 1142 1851" width="1142px" zoomAndPan="magnify"><title>&#12486;&#12531;&#12503;&#12524;&#12540;&#12488;&#36984;&#25246;&#12501;&#12525;&#12540;&#65288;UC 3-2&#65289;</title><defs/><g><text fill="#000000" font-family="sans-serif" font-size="14" font-weight="bold" lengthAdjust="spacing" textLength="232.0322" x="451.2537" y="29.5332">&#12486;&#12531;&#12503;&#12524;&#12540;&#12488;&#36984;&#25246;&#12501;&#12525;&#12540;&#65288;UC 3-2&#65289;</text><g><title>&#12502;&#12521;&#12454;&#12470;</title><rect fill="#FFFFFF" height="1561.7109" style="stroke:#181818;stroke-width:1;" width="10" x="340" y="197.9219"/></g><g><title>API Routes</title><rect fill="#FFFFFF" height="225.5156" style="stroke:#181818;stroke-width:1;" width="10" x="543" y="244.625"/></g><g><title>API Routes</title><rect fill="#FFFFFF" height="270.5156" style="stroke:#181818;stroke-width:1;" width="10" x="543" y="1048.0078"/></g><g><title>TemplateService</title><rect fill="#FFFFFF" height="148.4609" style="stroke:#181818;stroke-width:1;" width="10" x="713.6226" y="274.9766"/></g><g><title>TemplateService</title><rect fill="#FFFFFF" height="30.3516" style="stroke:#181818;stroke-width:1;" width="10" x="713.6226" y="1078.3594"/></g><g><title>DiagramService</title><rect fill="#FFFFFF" height="132.7578" style="stroke:#181818;stroke-width:1;" width="10" x="839.936" y="1155.4141"/></g><g><title>Supabase Storage</title><rect fill="#FFFFFF" height="30.3516" style="stroke:#181818;stroke-width:1;" width="10" x="1039.5503" y="1202.1172"/></g><g><title>Supabase Storage</title><rect fill="#FFFFFF" height="30.3516" style="stroke:#181818;stroke-width:1;" width="10" x="1039.5503" y="1540.1719"/></g><rect fill="none" height="824.2188" rx="5" ry="5" style="stroke:#000000;stroke-width:1.5;" width="1115.5396" x="10" y="928.4141"/><rect fill="none" height="498.1641" rx="5" ry="5" style="stroke:#000000;stroke-width:1.5;" width="1095.5396" x="20" y="1247.4688"/><g><title>&#12456;&#12531;&#12489;&#12518;&#12540;&#12470;&#12540;</title><rect fill="#000000" fill-opacity="0.00000" height="1648.4141" width="8" x="78" y="121.2188"/><line style="stroke:#181818;stroke-width:0.5;stroke-dasharray:5.0,5.0;" x1="82" x2="82" y1="121.2188" y2="1769.6328"/></g><g><title>&#12502;&#12521;&#12454;&#12470;</title><rect fill="#000000" fill-opacity="0.00000" height="1648.4141" width="8" x="341" y="121.2188"/><line style="stroke:#181818;stroke-width:0.5;stroke-dasharray:5.0,5.0;" x1="344.1035" x2="344.1035" y1="121.2188" y2="1769.6328"/></g><g><title>API Routes</title><rect fill="#000000" fill-opacity="0.00000" height="1648.4141" width="8" x="544" y="121.2188"/><line style="stroke:#181818;stroke-width:0.5;stroke-dasharray:5.0,5.0;" x1="547.7588" x2="547.7588" y1="121.2188" y2="1769.6328"/></g><g><title>TemplateService</title><rect fill="#000000" fill-opacity="0.00000" height="1648.4141" width="8" x="714.6226" y="121.2188"/><line style="stroke:#181818;stroke-width:0.5;stroke-dasharray:5.0,5.0;" x1="718.1021" x2="718.1021" y1="121.2188" y2="1769.6328"/></g><g><title>DiagramService</title><rect fill="#000000" fill-opacity="0.00000" height="1648.4141" width="8" x="840.936" y="121.2188"/><line style="stroke:#181818;stroke-width:0.5;stroke-dasharray:5.0,5.0;" x1="844.1431" x2="844.1431" y1="121.2188" y2="1769.6328"/></g><g><title>Supabase Storage</title><rect fill="#000000" fill-opacity="0.00000" height="1648.4141" width="8" x="1040.5503" y="121.2188"/><line style="stroke:#181818;stroke-width:0.5;stroke-dasharray:5.0,5.0;" x1="1043.561" x2="1043.561" y1="121.2188" y2="1769.6328"/></g><g class="participant participant-head" data-participant="User"><text fill="#000000" font-family="sans-serif" font-size="14" lengthAdjust="spacing" textLength="98" x="30" y="118.1426">&#12456;&#12531;&#12489;&#12518;&#12540;&#12470;&#12540;</text><ellipse cx="82" cy="52.1094" fill="#E2E2F0" rx="8" ry="8" style="stroke:#181818;stroke-width:0.5;"/><path d="M82,60.1094 L82,87.1094 M69,68.1094 L95,68.1094 M82,87.1094 L69,102.1094 M82,87.1094 L95,102.1094" fill="none" style="stroke:#181818;stroke-width:0.5;"/></g><g class="participant participant-tail" data-participant="User"><text fill="#000000" font-family="sans-serif" font-size="14" lengthAdjust="spacing" textLength="98" x="30" y="1783.166">&#12456;&#12531;&#12489;&#12518;&#12540;&#12470;&#12540;</text><ellipse cx="82" cy="1794.7422" fill="#E2E2F0" rx="8" ry="8" style="stroke:#181818;stroke-width:0.5;"/><path d="M82,1802.7422 L82,1829.7422 M69,1810.7422 L95,1810.7422 M82,1829.7422 L69,1844.7422 M82,1829.7422 L95,1844.7422" fill="none" style="stroke:#181818;stroke-width:0.5;"/></g><g class="participant participant-head" data-participant="Browser"><rect fill="#FAFAFA" height="49.2188" rx="5" ry="5" style="stroke:#666666;stroke-width:0.5;" width="105.793" x="292.1035" y="71"/><text fill="#000000" font-family="sans-serif" font-size="14" lengthAdjust="spacing" textLength="56" x="317" y="92.5332">&#12502;&#12521;&#12454;&#12470;</text><text fill="#000000" font-family="sans-serif" font-size="14" lengthAdjust="spacing" textLength="91.793" x="299.1035" y="110.1426">(Next.js Client)</text></g><g class="participant participant-tail" data-participant="Browser"><rect fill="#FAFAFA" height="49.2188" rx="5" ry="5" style="stroke:#666666;stroke-width:0.5;" width="105.793" x="292.1035" y="1768.6328"/><text fill="#000000" font-family="sans-serif" font-size="14" lengthAdjust="spacing" textLength="56" x="317" y="1790.166">&#12502;&#12521;&#12454;&#12470;</text><text fill="#000000" font-family="sans-serif" font-size="14" lengthAdjust="spacing" textLength="91.793" x="299.1035" y="1807.7754">(Next.js Client)</text></g><g class="participant participant-head" data-participant="APIRoutes"><rect fill="#FAFAFA" height="49.2188" rx="5" ry="5" style="stroke:#666666;stroke-width:0.5;" width="110.4824" x="492.7588" y="71"/><text fill="#000000" font-family="sans-serif" font-size="14" lengthAdjust="spacing" textLength="70.8135" x="512.5933" y="92.5332">API Routes</text><text fill="#000000" font-family="sans-serif" font-size="14" lengthAdjust="spacing" textLength="96.4824" x="499.7588" y="110.1426">(/api/templates)</text></g><g class="participant participant-tail" data-participant="APIRoutes"><rect fill="#FAFAFA" height="49.2188" rx="5" ry="5" style="stroke:#666666;stroke-width:0.5;" width="110.4824" x="492.7588" y="1768.6328"/><text fill="#000000" font-family="sans-serif" font-size="14" lengthAdjust="spacing" textLength="70.8135" x="512.5933" y="1790.166">API Routes</text><text fill="#000000" font-family="sans-serif" font-size="14" lengthAdjust="spacing" textLength="96.4824" x="499.7588" y="1807.7754">(/api/templates)</text></g><g class="participant participant-head" data-participant="TemplateService"><rect fill="#FAFAFA" height="31.6094" rx="5" ry="5" style="stroke:#666666;stroke-width:0.5;" width="119.041" x="659.1021" y="88.6094"/><text fill="#000000" font-family="sans-serif" font-size="14" lengthAdjust="spacing" textLength="105.041" x="666.1021" y="110.1426">TemplateService</text></g><g class="participant participant-tail" data-participant="TemplateService"><rect fill="#FAFAFA" height="31.6094" rx="5" ry="5" style="stroke:#666666;stroke-width:0.5;" width="119.041" x="659.1021" y="1768.6328"/><text fill="#000000" font-family="sans-serif" font-size="14" lengthAdjust="spacing" textLength="105.041" x="666.1021" y="1790.166">TemplateService</text></g><g class="participant participant-head" data-participant="DiagramService"><rect fill="#FAFAFA" height="31.6094" rx="5" ry="5" style="stroke:#666666;stroke-width:0.5;" width="113.5859" x="788.1431" y="88.6094"/><text fill="#000000" font-family="sans-serif" font-size="14" lengthAdjust="spacing" textLength="99.5859" x="795.1431" y="110.1426">DiagramService</text></g><g class="participant participant-tail" data-participant="DiagramService"><rect fill="#FAFAFA" height="31.6094" rx="5" ry="5" style="stroke:#666666;stroke-width:0.5;" width="113.5859" x="788.1431" y="1768.6328"/><text fill="#000000" font-family="sans-serif" font-size="14" lengthAdjust="spacing" textLength="99.5859" x="795.1431" y="1790.166">DiagramService</text></g><g class="participant participant-head" data-participant="Storage"><text fill="#000000" font-family="sans-serif" font-size="14" lengthAdjust="spacing" textLength="115.9785" x="983.561" y="118.1426">Supabase Storage</text><path d="M1026.5503,67.6094 C1026.5503,57.6094 1044.5503,57.6094 1044.5503,57.6094 C1044.5503,57.6094 1062.5503,57.6094 1062.5503,67.6094 L1062.5503,93.6094 C1062.5503,103.6094 1044.5503,103.6094 1044.5503,103.6094 C1044.5503,103.6094 1026.5503,103.6094 1026.5503,93.6094 L1026.5503,67.6094" fill="#E2E2F0" style="stroke:#181818;stroke-width:1.5;"/><path d="M1026.5503,67.6094 C1026.5503,77.6094 1044.5503,77.6094 1044.5503,77.6094 C1044.5503,77.6094 1062.5503,77.6094 1062.5503,67.6094" fill="none" style="stroke:#181818;stroke-width:1.5;"/></g><g class="participant participant-tail" data-participant="Storage"><text fill="#000000" font-family="sans-serif" font-size="14" lengthAdjust="spacing" textLength="115.9785" x="983.561" y="1783.166">Supabase Storage</text><path d="M1026.5503,1796.2422 C1026.5503,1786.2422 1044.5503,1786.2422 1044.5503,1786.2422 C1044.5503,1786.2422 1062.5503,1786.2422 1062.5503,1796.2422 L1062.5503,1822.2422 C1062.5503,1832.2422 1044.5503,1832.2422 1044.5503,1832.2422 C1044.5503,1832.2422 1026.5503,1832.2422 1026.5503,1822.2422 L1026.5503,1796.2422" fill="#E2E2F0" style="stroke:#181818;stroke-width:1.5;"/><path d="M1026.5503,1796.2422 C1026.5503,1806.2422 1044.5503,1806.2422 1044.5503,1806.2422 C1044.5503,1806.2422 1062.5503,1806.2422 1062.5503,1796.2422" fill="none" style="stroke:#181818;stroke-width:1.5;"/></g><g><title>&#12502;&#12521;&#12454;&#12470;</title><rect fill="#FFFFFF" height="1561.7109" style="stroke:#181818;stroke-width:1;" width="10" x="340" y="197.9219"/></g><g><title>API Routes</title><rect fill="#FFFFFF" height="225.5156" style="stroke:#181818;stroke-width:1;" width="10" x="543" y="244.625"/></g><g><title>API Routes</title><rect fill="#FFFFFF" height="270.5156" style="stroke:#181818;stroke-width:1;" width="10" x="543" y="1048.0078"/></g><g><title>TemplateService</title><rect fill="#FFFFFF" height="148.4609" style="stroke:#181818;stroke-width:1;" width="10" x="713.6226" y="274.9766"/></g><g><title>TemplateService</title><rect fill="#FFFFFF" height="30.3516" style="stroke:#181818;stroke-width:1;" width="10" x="713.6226" y="1078.3594"/></g><g><title>DiagramService</title><rect fill="#FFFFFF" height="132.7578" style="stroke:#181818;stroke-width:1;" width="10" x="839.936" y="1155.4141"/></g><g><title>Supabase Storage</title><rect fill="#FFFFFF" height="30.3516" style="stroke:#181818;stroke-width:1;" width="10" x="1039.5503" y="1202.1172"/></g><g><title>Supabase Storage</title><rect fill="#FFFFFF" height="30.3516" style="stroke:#181818;stroke-width:1;" width="10" x="1039.5503" y="1540.1719"/></g><rect fill="#EEEEEE" height="3" rx="5" ry="5" style="stroke:#EEEEEE;stroke-width:1;" width="1135.5396" x="0" y="152.3945"/><line style="stroke:#000000;stroke-width:1;" x1="0" x2="1135.5396" y1="152.3945" y2="152.3945"/><line style="stroke:#000000;stroke-width:1;" x1="0" x2="1135.5396" y1="155.3945" y2="155.3945"/><rect fill="#EEEEEE" height="24.3516" rx="5" ry="5" style="stroke:#000000;stroke-width:2;" width="352.7681" x="391.3857" y="141.2188"/><text fill="#000000" font-family="sans-serif" font-size="13" font-weight="bold" lengthAdjust="spacing" textLength="335.1563" x="397.3857" y="158.7139">&#22259;&#34920;&#20316;&#25104;&#12480;&#12452;&#12450;&#12525;&#12464;&#12391;&#12300;&#12486;&#12531;&#12503;&#12524;&#12540;&#12488;&#12363;&#12425;&#20316;&#25104;&#12301;&#12434;&#36984;&#25246;</text><g class="message" data-participant-1="User" data-participant-2="Browser"><polygon fill="#181818" points="328,193.9219,338,197.9219,328,201.9219,332,197.9219" style="stroke:#181818;stroke-width:1;"/><line style="stroke:#181818;stroke-width:2;" x1="82" x2="334" y1="197.9219" y2="197.9219"/><text fill="#000000" font-family="sans-serif" font-size="13" lengthAdjust="spacing" textLength="195" x="89" y="193.0654">&#12300;&#12486;&#12531;&#12503;&#12524;&#12540;&#12488;&#12363;&#12425;&#20316;&#25104;&#12301;&#12434;&#36984;&#25246;</text></g><g class="message" data-participant-1="Browser" data-participant-2="APIRoutes"><polygon fill="#181818" points="531,240.625,541,244.625,531,248.625,535,244.625" style="stroke:#181818;stroke-width:1;"/><line style="stroke:#181818;stroke-width:2;" x1="350" x2="537" y1="244.625" y2="244.625"/><text fill="#000000" font-family="sans-serif" font-size="13" lengthAdjust="spacing" textLength="26.7236" x="357" y="223.417">GET</text><text fill="#000000" font-family="sans-serif" font-size="13" lengthAdjust="spacing" textLength="3.6118" x="383.7236" y="223.417">&#160;</text><text fill="#000000" font-family="sans-serif" font-size="13" lengthAdjust="spacing" textLength="80.9326" x="387.3354" y="223.417">/api/templates</text><text fill="#000000" font-family="sans-serif" font-size="13" lengthAdjust="spacing" textLength="171.3867" x="357" y="239.7686">?type={PlantUML|Excalidraw}</text></g><g class="message" data-participant-1="APIRoutes" data-participant-2="TemplateService"><polygon fill="#181818" points="701.6226,270.9766,711.6226,274.9766,701.6226,278.9766,705.6226,274.9766" style="stroke:#181818;stroke-width:1;"/><line style="stroke:#181818;stroke-width:2;" x1="553" x2="707.6226" y1="274.9766" y2="274.9766"/><text fill="#000000" font-family="sans-serif" font-size="13" lengthAdjust="spacing" textLength="111.9917" x="560" y="270.1201">getTemplates(type)</text></g><path d="M548,292.9766 L548,390.9766 A5,5 0 0 0 553,395.9766 L883,395.9766 A5,5 0 0 0 888,390.9766 L888,297.9766 L878,287.9766 L553,287.9766 A5,5 0 0 0 548,292.9766" fill="#FFFDE7" style="stroke:#FBC02D;stroke-width:0.5;"/><path d="M878,287.9766 L878,295.4766 A2.5,2.5 0 0 0 880.5,297.9766 L888,297.9766 L878,287.9766" fill="#FFFDE7" style="stroke:#FBC02D;stroke-width:0.5;"/><text fill="#000000" font-family="sans-serif" font-size="13" font-weight="bold" lengthAdjust="spacing" textLength="134.0625" x="554" y="306.4717">&#12486;&#12531;&#12503;&#12524;&#12540;&#12488;&#12459;&#12486;&#12468;&#12522;</text><text fill="#000000" font-family="sans-serif" font-size="13" lengthAdjust="spacing" textLength="60.6899" x="554" y="322.8232">PlantUML:</text><text fill="#000000" font-family="sans-serif" font-size="13" lengthAdjust="spacing" textLength="254.9409" x="554" y="339.1748">- &#12471;&#12540;&#12465;&#12531;&#12473;&#22259;&#12289;&#12463;&#12521;&#12473;&#22259;&#12289;&#12518;&#12540;&#12473;&#12465;&#12540;&#12473;&#22259;</text><text fill="#000000" font-family="sans-serif" font-size="13" lengthAdjust="spacing" textLength="280.9409" x="554" y="355.5264">- &#12450;&#12463;&#12486;&#12451;&#12499;&#12486;&#12451;&#22259;&#12289;&#29366;&#24907;&#22259;&#12289;&#12467;&#12531;&#12509;&#12540;&#12493;&#12531;&#12488;&#22259;</text><text fill="#000000" font-family="sans-serif" font-size="13" lengthAdjust="spacing" textLength="66.4663" x="554" y="371.8779">Excalidraw:</text><text fill="#000000" font-family="sans-serif" font-size="13" lengthAdjust="spacing" textLength="319.9409" x="554" y="388.2295">- &#12527;&#12452;&#12516;&#12540;&#12501;&#12524;&#12540;&#12512;&#12289;&#12501;&#12525;&#12540;&#12481;&#12515;&#12540;&#12488;&#12289;&#12510;&#12452;&#12531;&#12489;&#12510;&#12483;&#12503;</text><g class="message" data-participant-1="TemplateService" data-participant-2="APIRoutes"><polygon fill="#181818" points="564,419.4375,554,423.4375,564,427.4375,560,423.4375" style="stroke:#181818;stroke-width:1;"/><line style="stroke:#181818;stroke-width:2;stroke-dasharray:2.0,2.0;" x1="558" x2="717.6226" y1="423.4375" y2="423.4375"/><text fill="#000000" font-family="sans-serif" font-size="13" lengthAdjust="spacing" textLength="63.5845" x="570" y="418.5811">templates[]</text></g><g class="message" data-participant-1="APIRoutes" data-participant-2="Browser"><polygon fill="#181818" points="361,466.1406,351,470.1406,361,474.1406,357,470.1406" style="stroke:#181818;stroke-width:1;"/><line style="stroke:#181818;stroke-width:2;stroke-dasharray:2.0,2.0;" x1="355" x2="547" y1="470.1406" y2="470.1406"/><text fill="#000000" font-family="sans-serif" font-size="13" lengthAdjust="spacing" textLength="21.6899" x="367" y="448.9326">200</text><text fill="#000000" font-family="sans-serif" font-size="13" lengthAdjust="spacing" textLength="3.6118" x="388.6899" y="448.9326">&#160;</text><text fill="#000000" font-family="sans-serif" font-size="13" lengthAdjust="spacing" textLength="18.7827" x="392.3018" y="448.9326">OK</text><text fill="#000000" font-family="sans-serif" font-size="13" lengthAdjust="spacing" textLength="4.3418" x="367" y="465.2842">{</text><text fill="#000000" font-family="sans-serif" font-size="13" lengthAdjust="spacing" textLength="3.6118" x="371.3418" y="465.2842">&#160;</text><text fill="#000000" font-family="sans-serif" font-size="13" lengthAdjust="spacing" textLength="56.3608" x="374.9536" y="465.2842">templates</text><text fill="#000000" font-family="sans-serif" font-size="13" lengthAdjust="spacing" textLength="3.6118" x="431.3145" y="465.2842">&#160;</text><text fill="#000000" font-family="sans-serif" font-size="13" lengthAdjust="spacing" textLength="4.3418" x="434.9263" y="465.2842">}</text></g><g class="message" data-participant-1="Browser" data-participant-2="Browser"><line style="stroke:#181818;stroke-width:2;" x1="350" x2="392" y1="516.8438" y2="516.8438"/><line style="stroke:#181818;stroke-width:2;" x1="392" x2="392" y1="516.8438" y2="529.8438"/><line style="stroke:#181818;stroke-width:2;" x1="351" x2="392" y1="529.8438" y2="529.8438"/><polygon fill="#181818" points="361,525.8438,351,529.8438,361,533.8438,357,529.8438" style="stroke:#181818;stroke-width:1;"/><text fill="#000000" font-family="sans-serif" font-size="13" lengthAdjust="spacing" textLength="130" x="357" y="495.6357">&#12486;&#12531;&#12503;&#12524;&#12540;&#12488;&#19968;&#35239;&#34920;&#31034;</text><text fill="#000000" font-family="sans-serif" font-size="13" lengthAdjust="spacing" textLength="125.6582" x="357" y="511.9873">(&#12464;&#12522;&#12483;&#12489;&#12524;&#12452;&#12450;&#12454;&#12488;)</text></g><path d="M285,547.8438 L285,628.8438 A5,5 0 0 0 290,633.8438 L399,633.8438 A5,5 0 0 0 404,628.8438 L404,552.8438 L394,542.8438 L290,542.8438 A5,5 0 0 0 285,547.8438" fill="#FFFDE7" style="stroke:#FBC02D;stroke-width:0.5;"/><path d="M394,542.8438 L394,550.3438 A2.5,2.5 0 0 0 396.5,552.8438 L404,552.8438 L394,542.8438" fill="#FFFDE7" style="stroke:#FBC02D;stroke-width:0.5;"/><text fill="#000000" font-family="sans-serif" font-size="13" font-weight="bold" lengthAdjust="spacing" textLength="53.625" x="291" y="561.3389">&#34920;&#31034;&#38917;&#30446;</text><text fill="#000000" font-family="sans-serif" font-size="13" lengthAdjust="spacing" textLength="98.9409" x="291" y="577.6904">- &#12469;&#12512;&#12493;&#12452;&#12523;&#30011;&#20687;</text><text fill="#000000" font-family="sans-serif" font-size="13" lengthAdjust="spacing" textLength="98.9409" x="291" y="594.042">- &#12486;&#12531;&#12503;&#12524;&#12540;&#12488;&#21517;</text><text fill="#000000" font-family="sans-serif" font-size="13" lengthAdjust="spacing" textLength="59.9409" x="291" y="610.3936">- &#12459;&#12486;&#12468;&#12522;</text><text fill="#000000" font-family="sans-serif" font-size="13" lengthAdjust="spacing" textLength="46.9409" x="291" y="626.7451">- &#35500;&#26126;&#25991;</text><rect fill="#EEEEEE" height="3" rx="5" ry="5" style="stroke:#EEEEEE;stroke-width:1;" width="1135.5396" x="0" y="660.7773"/><line style="stroke:#000000;stroke-width:1;" x1="0" x2="1135.5396" y1="660.7773" y2="660.7773"/><line style="stroke:#000000;stroke-width:1;" x1="0" x2="1135.5396" y1="663.7773" y2="663.7773"/><rect fill="#EEEEEE" height="24.3516" rx="5" ry="5" style="stroke:#000000;stroke-width:2;" width="124.8618" x="505.3389" y="649.6016"/><text fill="#000000" font-family="sans-serif" font-size="13" font-weight="bold" lengthAdjust="spacing" textLength="107.25" x="511.3389" y="667.0967">&#12486;&#12531;&#12503;&#12524;&#12540;&#12488;&#36984;&#25246;</text><g class="message" data-participant-1="User" data-participant-2="Browser"><polygon fill="#181818" points="328,702.3047,338,706.3047,328,710.3047,332,706.3047" style="stroke:#181818;stroke-width:1;"/><line style="stroke:#181818;stroke-width:2;" x1="82" x2="334" y1="706.3047" y2="706.3047"/><text fill="#000000" font-family="sans-serif" font-size="13" lengthAdjust="spacing" textLength="143" x="89" y="701.4482">&#12486;&#12531;&#12503;&#12524;&#12540;&#12488;&#12434;&#12463;&#12522;&#12483;&#12463;</text></g><g class="message" data-participant-1="Browser" data-participant-2="Browser"><line style="stroke:#181818;stroke-width:2;" x1="350" x2="392" y1="753.0078" y2="753.0078"/><line style="stroke:#181818;stroke-width:2;" x1="392" x2="392" y1="753.0078" y2="766.0078"/><line style="stroke:#181818;stroke-width:2;" x1="351" x2="392" y1="766.0078" y2="766.0078"/><polygon fill="#181818" points="361,762.0078,351,766.0078,361,770.0078,357,766.0078" style="stroke:#181818;stroke-width:1;"/><text fill="#000000" font-family="sans-serif" font-size="13" lengthAdjust="spacing" textLength="91" x="357" y="731.7998">&#12503;&#12524;&#12499;&#12517;&#12540;&#34920;&#31034;</text><text fill="#000000" font-family="sans-serif" font-size="13" lengthAdjust="spacing" textLength="99.6582" x="357" y="748.1514">(&#25313;&#22823;&#12503;&#12524;&#12499;&#12517;&#12540;)</text></g><g class="message" data-participant-1="User" data-participant-2="Browser"><polygon fill="#181818" points="328,792.3594,338,796.3594,328,800.3594,332,796.3594" style="stroke:#181818;stroke-width:1;"/><line style="stroke:#181818;stroke-width:2;" x1="82" x2="334" y1="796.3594" y2="796.3594"/><text fill="#000000" font-family="sans-serif" font-size="13" lengthAdjust="spacing" textLength="234" x="89" y="791.5029">&#12300;&#12371;&#12398;&#12486;&#12531;&#12503;&#12524;&#12540;&#12488;&#12391;&#20316;&#25104;&#12301;&#12434;&#12463;&#12522;&#12483;&#12463;</text></g><g class="message" data-participant-1="Browser" data-participant-2="Browser"><line style="stroke:#181818;stroke-width:2;" x1="350" x2="392" y1="826.7109" y2="826.7109"/><line style="stroke:#181818;stroke-width:2;" x1="392" x2="392" y1="826.7109" y2="839.7109"/><line style="stroke:#181818;stroke-width:2;" x1="351" x2="392" y1="839.7109" y2="839.7109"/><polygon fill="#181818" points="361,835.7109,351,839.7109,361,843.7109,357,839.7109" style="stroke:#181818;stroke-width:1;"/><text fill="#000000" font-family="sans-serif" font-size="13" lengthAdjust="spacing" textLength="104" x="357" y="821.8545">&#22259;&#34920;&#21517;&#20837;&#21147;&#12434;&#20419;&#12377;</text></g><g class="message" data-participant-1="User" data-participant-2="Browser"><polygon fill="#181818" points="328,866.0625,338,870.0625,328,874.0625,332,870.0625" style="stroke:#181818;stroke-width:1;"/><line style="stroke:#181818;stroke-width:2;" x1="82" x2="334" y1="870.0625" y2="870.0625"/><text fill="#000000" font-family="sans-serif" font-size="13" lengthAdjust="spacing" textLength="78" x="89" y="865.2061">&#22259;&#34920;&#21517;&#12434;&#20837;&#21147;</text></g><g class="message" data-participant-1="Browser" data-participant-2="Browser"><line style="stroke:#181818;stroke-width:2;" x1="350" x2="392" y1="900.4141" y2="900.4141"/><line style="stroke:#181818;stroke-width:2;" x1="392" x2="392" y1="900.4141" y2="913.4141"/><line style="stroke:#181818;stroke-width:2;" x1="351" x2="392" y1="913.4141" y2="913.4141"/><polygon fill="#181818" points="361,909.4141,351,913.4141,361,917.4141,357,913.4141" style="stroke:#181818;stroke-width:1;"/><text fill="#000000" font-family="sans-serif" font-size="13" lengthAdjust="spacing" textLength="169" x="357" y="895.5576">&#12463;&#12521;&#12452;&#12450;&#12531;&#12488;&#12496;&#12522;&#12487;&#12540;&#12471;&#12519;&#12531;</text></g><path d="M15,928.4141 L70.1709,928.4141 L70.1709,936.7656 L60.1709,946.7656 L10,946.7656 L10,933.4141 A5,5 0 0 1 15,928.4141" fill="#EEEEEE" style="stroke:#000000;stroke-width:1.5;"/><rect fill="none" height="824.2188" rx="5" ry="5" style="stroke:#000000;stroke-width:1.5;" width="1115.5396" x="10" y="928.4141"/><text fill="#000000" font-family="sans-serif" font-size="13" font-weight="bold" lengthAdjust="spacing" textLength="15.1709" x="25" y="942.9092">alt</text><text fill="#000000" font-family="sans-serif" font-size="11" font-weight="bold" lengthAdjust="spacing" textLength="120.7637" x="85.1709" y="941.833">[&#12496;&#12522;&#12487;&#12540;&#12471;&#12519;&#12531;&#12456;&#12521;&#12540;]</text><g class="message" data-participant-1="Browser" data-participant-2="User"><polygon fill="#181818" points="93,965.1172,83,969.1172,93,973.1172,89,969.1172" style="stroke:#181818;stroke-width:1;"/><line style="stroke:#181818;stroke-width:2;stroke-dasharray:2.0,2.0;" x1="87" x2="339" y1="969.1172" y2="969.1172"/><text fill="#000000" font-family="sans-serif" font-size="13" lengthAdjust="spacing" textLength="130" x="99" y="964.2607">&#12456;&#12521;&#12540;&#12513;&#12483;&#12475;&#12540;&#12472;&#34920;&#31034;</text></g><line style="stroke:#000000;stroke-width:1;stroke-dasharray:2.0,2.0;" x1="10" x2="1125.5396" y1="978.1172" y2="978.1172"/><text fill="#000000" font-family="sans-serif" font-size="11" font-weight="bold" lengthAdjust="spacing" textLength="103.2324" x="15" y="989.5361">[&#12496;&#12522;&#12487;&#12540;&#12471;&#12519;&#12531;OK]</text><g class="message" data-participant-1="Browser" data-participant-2="APIRoutes"><polygon fill="#181818" points="531,1044.0078,541,1048.0078,531,1052.0078,535,1048.0078" style="stroke:#181818;stroke-width:1;"/><line style="stroke:#181818;stroke-width:2;" x1="350" x2="537" y1="1048.0078" y2="1048.0078"/><text fill="#000000" font-family="sans-serif" font-size="13" lengthAdjust="spacing" textLength="35.3945" x="357" y="1010.4482">POST</text><text fill="#000000" font-family="sans-serif" font-size="13" lengthAdjust="spacing" textLength="3.6118" x="392.3945" y="1010.4482">&#160;</text><text fill="#000000" font-family="sans-serif" font-size="13" lengthAdjust="spacing" textLength="78.0381" x="396.0063" y="1010.4482">/api/diagrams</text><text fill="#000000" font-family="sans-serif" font-size="13" lengthAdjust="spacing" textLength="4.3418" x="357" y="1026.7998">{</text><text fill="#000000" font-family="sans-serif" font-size="13" lengthAdjust="spacing" textLength="3.6118" x="361.3418" y="1026.7998">&#160;</text><text fill="#000000" font-family="sans-serif" font-size="13" lengthAdjust="spacing" textLength="53.4727" x="364.9536" y="1026.7998">projectId,</text><text fill="#000000" font-family="sans-serif" font-size="13" lengthAdjust="spacing" textLength="3.6118" x="418.4263" y="1026.7998">&#160;</text><text fill="#000000" font-family="sans-serif" font-size="13" lengthAdjust="spacing" textLength="36.1309" x="422.0381" y="1026.7998">name,</text><text fill="#000000" font-family="sans-serif" font-size="13" lengthAdjust="spacing" textLength="3.6118" x="458.1689" y="1026.7998">&#160;</text><text fill="#000000" font-family="sans-serif" font-size="13" lengthAdjust="spacing" textLength="28.1836" x="461.7808" y="1026.7998">type,</text><text fill="#000000" font-family="sans-serif" font-size="13" lengthAdjust="spacing" textLength="7.2236" x="357" y="1043.1514">&#160;&#160;</text><text fill="#000000" font-family="sans-serif" font-size="13" lengthAdjust="spacing" textLength="60.7026" x="364.2236" y="1043.1514">templateId</text><text fill="#000000" font-family="sans-serif" font-size="13" lengthAdjust="spacing" textLength="3.6118" x="424.9263" y="1043.1514">&#160;</text><text fill="#000000" font-family="sans-serif" font-size="13" lengthAdjust="spacing" textLength="4.3418" x="428.5381" y="1043.1514">}</text></g><g class="message" data-participant-1="APIRoutes" data-participant-2="TemplateService"><polygon fill="#181818" points="701.6226,1074.3594,711.6226,1078.3594,701.6226,1082.3594,705.6226,1078.3594" style="stroke:#181818;stroke-width:1;"/><line style="stroke:#181818;stroke-width:2;" x1="553" x2="707.6226" y1="1078.3594" y2="1078.3594"/><text fill="#000000" font-family="sans-serif" font-size="13" lengthAdjust="spacing" textLength="141.6226" x="560" y="1073.5029">getTemplate(templateId)</text></g><g class="message" data-participant-1="TemplateService" data-participant-2="APIRoutes"><polygon fill="#181818" points="564,1104.7109,554,1108.7109,564,1112.7109,560,1108.7109" style="stroke:#181818;stroke-width:1;"/><line style="stroke:#181818;stroke-width:2;stroke-dasharray:2.0,2.0;" x1="558" x2="717.6226" y1="1108.7109" y2="1108.7109"/><text fill="#000000" font-family="sans-serif" font-size="13" lengthAdjust="spacing" textLength="95.3926" x="570" y="1103.8545">templateContent</text></g><g class="message" data-participant-1="APIRoutes" data-participant-2="DiagramService"><polygon fill="#181818" points="827.936,1151.4141,837.936,1155.4141,827.936,1159.4141,831.936,1155.4141" style="stroke:#181818;stroke-width:1;"/><line style="stroke:#181818;stroke-width:2;" x1="553" x2="833.936" y1="1155.4141" y2="1155.4141"/><text fill="#000000" font-family="sans-serif" font-size="13" lengthAdjust="spacing" textLength="111.2681" x="560" y="1134.2061">createDiagram(dto,</text><text fill="#000000" font-family="sans-serif" font-size="13" lengthAdjust="spacing" textLength="99.7217" x="560" y="1150.5576">templateContent)</text></g><g class="message" data-participant-1="DiagramService" data-participant-2="Storage"><polygon fill="#181818" points="1027.5503,1198.1172,1037.5503,1202.1172,1027.5503,1206.1172,1031.5503,1202.1172" style="stroke:#181818;stroke-width:1;"/><line style="stroke:#181818;stroke-width:2;" x1="849.936" x2="1033.5503" y1="1202.1172" y2="1202.1172"/><text fill="#000000" font-family="sans-serif" font-size="13" lengthAdjust="spacing" textLength="49.8481" x="856.936" y="1180.9092">list(path)</text><text fill="#000000" font-family="sans-serif" font-size="13" lengthAdjust="spacing" textLength="78" x="856.936" y="1197.2607">&#37325;&#35079;&#12481;&#12455;&#12483;&#12463;</text></g><g class="message" data-participant-1="Storage" data-participant-2="DiagramService"><polygon fill="#181818" points="860.936,1228.4688,850.936,1232.4688,860.936,1236.4688,856.936,1232.4688" style="stroke:#181818;stroke-width:1;"/><line style="stroke:#181818;stroke-width:2;stroke-dasharray:2.0,2.0;" x1="854.936" x2="1043.5503" y1="1232.4688" y2="1232.4688"/><text fill="#000000" font-family="sans-serif" font-size="13" lengthAdjust="spacing" textLength="78" x="866.936" y="1227.6123">&#12501;&#12449;&#12452;&#12523;&#19968;&#35239;</text></g><path d="M25,1247.4688 L80.1709,1247.4688 L80.1709,1255.8203 L70.1709,1265.8203 L20,1265.8203 L20,1252.4688 A5,5 0 0 1 25,1247.4688" fill="#EEEEEE" style="stroke:#000000;stroke-width:1.5;"/><rect fill="none" height="498.1641" rx="5" ry="5" style="stroke:#000000;stroke-width:1.5;" width="1095.5396" x="20" y="1247.4688"/><text fill="#000000" font-family="sans-serif" font-size="13" font-weight="bold" lengthAdjust="spacing" textLength="15.1709" x="35" y="1261.9639">alt</text><text fill="#000000" font-family="sans-serif" font-size="11" font-weight="bold" lengthAdjust="spacing" textLength="98.0762" x="95.1709" y="1260.8877">[&#21516;&#21517;&#12501;&#12449;&#12452;&#12523;&#23384;&#22312;]</text><g class="message" data-participant-1="DiagramService" data-participant-2="APIRoutes"><polygon fill="#181818" points="564,1284.1719,554,1288.1719,564,1292.1719,560,1288.1719" style="stroke:#181818;stroke-width:1;"/><line style="stroke:#181818;stroke-width:2;stroke-dasharray:2.0,2.0;" x1="558" x2="843.936" y1="1288.1719" y2="1288.1719"/><text fill="#000000" font-family="sans-serif" font-size="13" lengthAdjust="spacing" textLength="102.5845" x="570" y="1283.3154">ConflictError(409)</text></g><g class="message" data-participant-1="APIRoutes" data-participant-2="Browser"><polygon fill="#181818" points="361,1314.5234,351,1318.5234,361,1322.5234,357,1318.5234" style="stroke:#181818;stroke-width:1;"/><line style="stroke:#181818;stroke-width:2;stroke-dasharray:2.0,2.0;" x1="355" x2="547" y1="1318.5234" y2="1318.5234"/><text fill="#000000" font-family="sans-serif" font-size="13" lengthAdjust="spacing" textLength="21.6899" x="367" y="1313.667">409</text><text fill="#000000" font-family="sans-serif" font-size="13" lengthAdjust="spacing" textLength="3.6118" x="388.6899" y="1313.667">&#160;</text><text fill="#000000" font-family="sans-serif" font-size="13" lengthAdjust="spacing" textLength="43.3481" x="392.3018" y="1313.667">Conflict</text></g><g class="message" data-participant-1="Browser" data-participant-2="User"><polygon fill="#181818" points="93,1344.875,83,1348.875,93,1352.875,89,1348.875" style="stroke:#181818;stroke-width:1;"/><line style="stroke:#181818;stroke-width:2;stroke-dasharray:2.0,2.0;" x1="87" x2="339" y1="1348.875" y2="1348.875"/><text fill="#000000" font-family="sans-serif" font-size="13" lengthAdjust="spacing" textLength="65" x="99" y="1344.0186">&#12456;&#12521;&#12540;&#34920;&#31034;</text></g><line style="stroke:#000000;stroke-width:1;stroke-dasharray:2.0,2.0;" x1="20" x2="1115.5396" y1="1357.875" y2="1357.875"/><text fill="#000000" font-family="sans-serif" font-size="11" font-weight="bold" lengthAdjust="spacing" textLength="52.7012" x="25" y="1369.2939">[&#37325;&#35079;&#12394;&#12375;]</text><g class="message" data-participant-1="DiagramService" data-participant-2="DiagramService"><line style="stroke:#181818;stroke-width:2;" x1="844.936" x2="886.936" y1="1411.4141" y2="1411.4141"/><line style="stroke:#181818;stroke-width:2;" x1="886.936" x2="886.936" y1="1411.4141" y2="1424.4141"/><line style="stroke:#181818;stroke-width:2;" x1="845.936" x2="886.936" y1="1424.4141" y2="1424.4141"/><polygon fill="#181818" points="855.936,1420.4141,845.936,1424.4141,855.936,1428.4141,851.936,1424.4141" style="stroke:#181818;stroke-width:1;"/><text fill="#000000" font-family="sans-serif" font-size="13" lengthAdjust="spacing" textLength="143" x="851.936" y="1390.2061">&#12486;&#12531;&#12503;&#12524;&#12540;&#12488;&#12467;&#12540;&#12489;&#36969;&#29992;</text><text fill="#000000" font-family="sans-serif" font-size="13" lengthAdjust="spacing" textLength="7.5918" x="851.936" y="1406.5576">+</text><text fill="#000000" font-family="sans-serif" font-size="13" lengthAdjust="spacing" textLength="3.6118" x="859.5278" y="1406.5576">&#160;</text><text fill="#000000" font-family="sans-serif" font-size="13" lengthAdjust="spacing" textLength="104" x="863.1396" y="1406.5576">&#12501;&#12449;&#12452;&#12523;&#12497;&#12473;&#29983;&#25104;</text></g><path d="M723,1442.4141 L723,1507.4141 A5,5 0 0 0 728,1512.4141 L961,1512.4141 A5,5 0 0 0 966,1507.4141 L966,1447.4141 L956,1437.4141 L728,1437.4141 A5,5 0 0 0 723,1442.4141" fill="#FFFDE7" style="stroke:#FBC02D;stroke-width:0.5;"/><path d="M956,1437.4141 L956,1444.9141 A2.5,2.5 0 0 0 958.5,1447.4141 L966,1447.4141 L956,1437.4141" fill="#FFFDE7" style="stroke:#FBC02D;stroke-width:0.5;"/><text fill="#000000" font-family="sans-serif" font-size="13" font-weight="bold" lengthAdjust="spacing" textLength="107.25" x="729" y="1455.9092">&#12486;&#12531;&#12503;&#12524;&#12540;&#12488;&#36969;&#29992;</text><text fill="#000000" font-family="sans-serif" font-size="13" lengthAdjust="spacing" textLength="183.4536" x="729" y="1472.2607">1. &#12486;&#12531;&#12503;&#12524;&#12540;&#12488;&#12467;&#12540;&#12489;&#12434;&#12467;&#12500;&#12540;</text><text fill="#000000" font-family="sans-serif" font-size="13" lengthAdjust="spacing" textLength="222.6948" x="729" y="1488.6123">2. &#22259;&#34920;&#21517;&#12434;&#21453;&#26144;&#65288;@startuml {name}&#65289;</text><text fill="#000000" font-family="sans-serif" font-size="13" lengthAdjust="spacing" textLength="118.4536" x="729" y="1504.9639">3. &#21021;&#26399;&#12467;&#12513;&#12531;&#12488;&#36861;&#21152;</text><g class="message" data-participant-1="DiagramService" data-participant-2="Storage"><polygon fill="#181818" points="1027.5503,1536.1719,1037.5503,1540.1719,1027.5503,1544.1719,1031.5503,1540.1719" style="stroke:#181818;stroke-width:1;"/><line style="stroke:#181818;stroke-width:2;" x1="844.936" x2="1033.5503" y1="1540.1719" y2="1540.1719"/><text fill="#000000" font-family="sans-serif" font-size="13" lengthAdjust="spacing" textLength="72.2808" x="851.936" y="1535.3154">upload(path,</text><text fill="#000000" font-family="sans-serif" font-size="13" lengthAdjust="spacing" textLength="3.6118" x="924.2168" y="1535.3154">&#160;</text><text fill="#000000" font-family="sans-serif" font-size="13" lengthAdjust="spacing" textLength="99.7217" x="927.8286" y="1535.3154">templateContent)</text></g><g class="message" data-participant-1="Storage" data-participant-2="DiagramService"><polygon fill="#181818" points="855.936,1566.5234,845.936,1570.5234,855.936,1574.5234,851.936,1570.5234" style="stroke:#181818;stroke-width:1;"/><line style="stroke:#181818;stroke-width:2;stroke-dasharray:2.0,2.0;" x1="849.936" x2="1043.5503" y1="1570.5234" y2="1570.5234"/><text fill="#000000" font-family="sans-serif" font-size="13" lengthAdjust="spacing" textLength="52" x="861.936" y="1565.667">&#20445;&#23384;&#25104;&#21151;</text></g><g class="message" data-participant-1="DiagramService" data-participant-2="APIRoutes"><polygon fill="#181818" points="559,1596.875,549,1600.875,559,1604.875,555,1600.875" style="stroke:#181818;stroke-width:1;"/><line style="stroke:#181818;stroke-width:2;stroke-dasharray:2.0,2.0;" x1="553" x2="843.936" y1="1600.875" y2="1600.875"/><text fill="#000000" font-family="sans-serif" font-size="13" lengthAdjust="spacing" textLength="4.3418" x="565" y="1596.0186">{</text><text fill="#000000" font-family="sans-serif" font-size="13" lengthAdjust="spacing" textLength="3.6118" x="569.3418" y="1596.0186">&#160;</text><text fill="#000000" font-family="sans-serif" font-size="13" lengthAdjust="spacing" textLength="13.73" x="572.9536" y="1596.0186">id,</text><text fill="#000000" font-family="sans-serif" font-size="13" lengthAdjust="spacing" textLength="3.6118" x="586.6836" y="1596.0186">&#160;</text><text fill="#000000" font-family="sans-serif" font-size="13" lengthAdjust="spacing" textLength="36.1309" x="590.2954" y="1596.0186">name,</text><text fill="#000000" font-family="sans-serif" font-size="13" lengthAdjust="spacing" textLength="3.6118" x="626.4263" y="1596.0186">&#160;</text><text fill="#000000" font-family="sans-serif" font-size="13" lengthAdjust="spacing" textLength="28.1836" x="630.0381" y="1596.0186">type,</text><text fill="#000000" font-family="sans-serif" font-size="13" lengthAdjust="spacing" textLength="3.6118" x="658.2217" y="1596.0186">&#160;</text><text fill="#000000" font-family="sans-serif" font-size="13" lengthAdjust="spacing" textLength="25.3018" x="661.8335" y="1596.0186">path</text><text fill="#000000" font-family="sans-serif" font-size="13" lengthAdjust="spacing" textLength="3.6118" x="687.1353" y="1596.0186">&#160;</text><text fill="#000000" font-family="sans-serif" font-size="13" lengthAdjust="spacing" textLength="4.3418" x="690.7471" y="1596.0186">}</text></g><g class="message" data-participant-1="APIRoutes" data-participant-2="Browser"><polygon fill="#181818" points="361,1643.5781,351,1647.5781,361,1651.5781,357,1647.5781" style="stroke:#181818;stroke-width:1;"/><line style="stroke:#181818;stroke-width:2;stroke-dasharray:2.0,2.0;" x1="355" x2="547" y1="1647.5781" y2="1647.5781"/><text fill="#000000" font-family="sans-serif" font-size="13" lengthAdjust="spacing" textLength="21.6899" x="367" y="1626.3701">201</text><text fill="#000000" font-family="sans-serif" font-size="13" lengthAdjust="spacing" textLength="3.6118" x="388.6899" y="1626.3701">&#160;</text><text fill="#000000" font-family="sans-serif" font-size="13" lengthAdjust="spacing" textLength="46.249" x="392.3018" y="1626.3701">Created</text><text fill="#000000" font-family="sans-serif" font-size="13" lengthAdjust="spacing" textLength="4.3418" x="367" y="1642.7217">{</text><text fill="#000000" font-family="sans-serif" font-size="13" lengthAdjust="spacing" textLength="3.6118" x="371.3418" y="1642.7217">&#160;</text><text fill="#000000" font-family="sans-serif" font-size="13" lengthAdjust="spacing" textLength="46.9663" x="374.9536" y="1642.7217">diagram</text><text fill="#000000" font-family="sans-serif" font-size="13" lengthAdjust="spacing" textLength="3.6118" x="421.9199" y="1642.7217">&#160;</text><text fill="#000000" font-family="sans-serif" font-size="13" lengthAdjust="spacing" textLength="4.3418" x="425.5317" y="1642.7217">}</text></g><g class="message" data-participant-1="Browser" data-participant-2="Browser"><line style="stroke:#181818;stroke-width:2;" x1="350" x2="392" y1="1677.9297" y2="1677.9297"/><line style="stroke:#181818;stroke-width:2;" x1="392" x2="392" y1="1677.9297" y2="1690.9297"/><line style="stroke:#181818;stroke-width:2;" x1="351" x2="392" y1="1690.9297" y2="1690.9297"/><polygon fill="#181818" points="361,1686.9297,351,1690.9297,361,1694.9297,357,1690.9297" style="stroke:#181818;stroke-width:1;"/><text fill="#000000" font-family="sans-serif" font-size="13" lengthAdjust="spacing" textLength="117" x="357" y="1673.0732">&#12456;&#12487;&#12451;&#12479;&#30011;&#38754;&#12395;&#36983;&#31227;</text></g><g class="message" data-participant-1="Browser" data-participant-2="User"><polygon fill="#181818" points="93,1733.6328,83,1737.6328,93,1741.6328,89,1737.6328" style="stroke:#181818;stroke-width:1;"/><line style="stroke:#181818;stroke-width:2;stroke-dasharray:2.0,2.0;" x1="87" x2="339" y1="1737.6328" y2="1737.6328"/><text fill="#000000" font-family="sans-serif" font-size="13" lengthAdjust="spacing" textLength="78" x="99" y="1716.4248">&#12456;&#12487;&#12451;&#12479;&#34920;&#31034;</text><text fill="#000000" font-family="sans-serif" font-size="13" lengthAdjust="spacing" textLength="177.6582" x="99" y="1732.7764">(&#12486;&#12531;&#12503;&#12524;&#12540;&#12488;&#12467;&#12540;&#12489;&#36969;&#29992;&#28168;&#12415;)</text></g><!--SRC=[dLPRKnH757wVNz557c09YykQYfMj8WakO5d6I0Lu2dcOx7PmT9bPPmOq8LInqsMuIIGHKKkGYoWNRqcHA2eKFwQPsUN9lv3JFVTX1Z135JNRSyxNfqz_tzTTt_hHZr2FgF66aXrg_4t95ZNUcW-tSeYItzWlSe-Iv-mZ6J-eR5kJZoYvIyaB686ytZmwdSx6X5BZJoUwye0QKn1gBhwptitbaFNaXJdrm0E1gT3fvfOcP6qiriZk_lPexUbQRNaTTQRRprrCPxAGQgtErzPtSYYlo3g-ePz15_DTA8swIgAizrxy1dNZQuDOBc3KBedzgZWWrF-F9WZQLKakYv2ED0UlJLMLwpsNfS9L6MiQoWP2L6LGBXOKLSOgQia4FWo8DmOWMEp7clGBHjbC9eWC_tMf89MXS3Gi87ZEYeMh_HmjhvGK5NtIsSR-x6-AMiIgC_uvVuIH89oiw3WHfxEplUFCOPpEi_bCjftXw99UmiTlyuUTSNkRF-nC289Oq06bLuDrYnggeyOwpvwWv2bdq6luNoS4rtaMckY5apbADgZn50Bxv8PlOJURhsWeNvAmhAV2UMrTvxzJ1dMiyKpuXUoVa7TAB4kdT3nGBeam4CdhSSQxiJea0IbOTcGidE2m9XWV7geJYg8k_YXg67N3wc5lUL3tO3aqM2S8hQq820tqtT-TjyPdA1cbnYerLbWdZRzePOsEteeHIsMA6XDEokYqfnt4QCbRdVxIQoC8ysCms8P9Gx1q5q0GN2G0zNkSG-SwUb2uiNtoL_hFPTmwx2hjruuR1R4a5LNn-eWFx848Wey7uD6DoA5-hBk3MWE3JlaeaMX1uEHMXg3Gw2U46XlZBESP6pJ-eMIpiH62tAfpy9wEiJWwMg76Ayv7zwT3uhSyRCSUTx9NU2pWFwRaZlrY9rKdNritfroyBLxL0Yzfch-FsnX-wvnwo2l63RBAG- -worZYPJZIemJU7plBO-EFU8gjDr0eWVKBM2vo8n24QCFJaHtsDlRx7uGYJkvyO1T3n0CpGvSkzCd3FX8Q2I85c10WMO2vXpRDy_lgwZiGDXC9sUGBcs0njdZ0BiXuAiW8bykC2NRomTBDwiENVD_PRltBEWaRmDhrh3hxtYItdQv7Ap1dffqSdpvyeBRvtBh_kpKt5kWmw3l9BvF46dSqSYhnPHglaZfb9m3Jda2Qro1hQjbSNOjyJIMvHEKEhRoCyugre564gealnpOrQ9Lvyuav-H2IzlS87Ern4tkn46M79x714Pzja4mfbCpmIiQu-42liD8jE7DAEehzn4-V3NOLuSUSEmdCqkjEuGHGiimN-9wdRzlz5719m_78bow48SD2whhKxNXbqJueD2QAigfSmGNzVB49oU80RaBCuPhwPEJ9vNmHzC9munJ3na_kdmq-PYeCUTWj4JgfC_0RbgppdACSub2jaJCqXmegXWHdkA6eAqtHII9bXn7iAIAeC8zx_kPGITBqXhAeNqxroGTZqxNLCUQMnfh3un2sayK7NOHqNDNCUOrbspLiQugsmeMo9m1YcZEt6DS3YUQB- -RyEW-8MqIazT2DdqfIGU-0owRQy5dcYvIN6PWsqXqt8icf0SO3ZeFpQUT-F4eyZbfO65UCq-xA9gtSIrncR7SFU-4MVvaug6nKPzVxv4z3Mq397t06LsSNmQi4RoR_64ZeIlpzm9w2dn3kqz9yL4tS6k5zrZKO-yasXotkzhHrVmakoLzhEbmg1mTAQ9Z9VuHTb_siqv0rlc3DBtB8PTllQdkxvkII5-MVCybDzGKmM2ufOf5B845RYHeuLWVxUml0OkYwERaOnv-G2av0yc4aXLqHiR8TCpoQwiToFPjfGNdkDaNcmeuZnsD7x3PYyS6ZQPqT273NC_RWzd2mi48hpmugRwfhxuzLZ9FctscEOxsr3IVodhrbG05stH22johtilCV]--></g></svg>